<svg width="36" height="36" viewBox="0 0 36 36" fill="none" xmlns="http://www.w3.org/2000/svg">
<g clip-path="url(#clip0_3109_7835)">
<path d="M33.0271 0.359985H8.12355C6.78636 0.359985 5.70237 1.44398 5.70237 2.78115V7.27762H2.58942C1.79064 7.27767 1.2914 8.1424 1.69083 8.83415C1.87618 9.15517 2.21873 9.35293 2.58942 9.35293H5.70237V16.9623H2.58942C1.79064 16.9623 1.29141 17.827 1.6908 18.5188C1.87616 18.8399 2.2187 19.0376 2.58942 19.0376H5.70237V26.647H2.58942C1.79064 26.647 1.29141 27.5117 1.6908 28.2035C1.87616 28.5246 2.2187 28.7223 2.58942 28.7223H5.70237V33.2188C5.70237 34.556 6.78636 35.64 8.12355 35.64H33.0271C34.3642 35.64 35.4483 34.556 35.4483 33.2188V2.78117C35.4483 1.44398 34.3642 0.359985 33.0271 0.359985ZM33.3729 33.2188C33.3729 33.4098 33.2181 33.5647 33.0271 33.5647H8.12355C7.93251 33.5647 7.77767 33.4098 7.77767 33.2188V2.78117C7.77767 2.59013 7.93251 2.43527 8.12355 2.43527H33.0271C33.2181 2.43527 33.3729 2.59013 33.3729 2.78117V33.2188Z" fill="black"/>
<path fill-rule="evenodd" clip-rule="evenodd" d="M24.572 20.4437C28.5879 17.3671 27.7672 11.0969 23.0948 9.15732C18.4225 7.21779 13.4026 11.0636 14.0591 16.0798C14.2858 17.8114 15.1923 19.3816 16.5787 20.4437C14.5328 21.2078 12.7502 22.5449 11.444 24.2951C10.9648 24.9341 11.357 25.8523 12.15 25.9479C12.5181 25.9922 12.8818 25.8368 13.1043 25.5403C16.8398 20.5596 24.3109 20.5596 28.0464 25.5403C28.5257 26.1793 29.517 26.0599 29.8307 25.3253C29.9764 24.9844 29.9291 24.5917 29.7066 24.2951C28.4004 22.5449 26.6179 21.2078 24.572 20.4437ZM16.0789 15.233C16.0789 11.7716 19.8259 9.60828 22.8236 11.339C25.8212 13.0697 25.8212 17.3964 22.8236 19.1271C22.1401 19.5217 21.3646 19.7295 20.5753 19.7295C18.0919 19.7296 16.0789 17.7164 16.0789 15.233Z" fill="#00A3E2"/>
</g>
<defs>
<clipPath id="clip0_3109_7835">
<rect width="36" height="36" fill="white"/>
</clipPath>
</defs>
</svg>
