<svg width="36" height="36" viewBox="0 0 36 36" fill="none" xmlns="http://www.w3.org/2000/svg">
<g clip-path="url(#clip0_2573_1804)">
<path d="M35.9734 4.11472C35.9502 4.05145 35.9145 3.99343 35.8686 3.94404C35.8227 3.89463 35.7674 3.85483 35.706 3.82692C35.6447 3.799 35.5782 3.78355 35.5108 3.78144C35.4435 3.77932 35.3763 3.7906 35.3133 3.8146C35.1399 3.87582 34.9813 3.97297 34.8481 4.09971C34.638 4.27978 34.4128 4.54989 34.2778 4.66993L31.8469 6.90576C30.9466 7.8061 30.0313 8.72144 29.2059 9.69681C28.3806 10.6722 27.6154 11.7076 26.8351 12.6979C26.2948 13.4632 25.7547 14.2885 25.1244 15.0389C24.7371 15.5235 24.3051 15.9707 23.8339 16.3743C23.7856 16.4088 23.7447 16.4525 23.7132 16.5027C23.6818 16.5531 23.6607 16.6091 23.6509 16.6677C23.6412 16.7262 23.643 16.7861 23.6563 16.8438C23.6698 16.9017 23.6944 16.9563 23.7289 17.0045C23.7634 17.0528 23.8071 17.0939 23.8573 17.1252C23.9077 17.1566 23.9637 17.1779 24.0223 17.1876C24.0808 17.1974 24.1407 17.1954 24.1984 17.1821C24.2563 17.1687 24.311 17.1441 24.3591 17.1096C24.9308 16.7268 25.468 16.295 25.9647 15.8192C26.7 15.1289 27.3753 14.3185 28.0356 13.6583C28.6957 12.998 29.0559 12.5329 29.536 11.9476C30.0162 11.3624 30.9017 10.327 31.5768 9.51674L32.9724 7.91113L35.0431 5.48023L35.6434 4.78998C35.7753 4.74231 35.8834 4.6452 35.9451 4.51917C36.0067 4.39315 36.0169 4.2481 35.9734 4.11472Z" fill="#00A3E2"/>
<path d="M4.08665 14.2435C4.44678 13.8383 4.82192 13.4332 5.16705 13.013C5.76728 12.3078 6.33749 11.5125 6.96773 10.8372C7.36434 10.3979 7.79591 9.99137 8.2582 9.62176C8.47977 9.43823 8.7156 9.27263 8.96346 9.12656C9.21808 8.9804 9.48403 8.85496 9.75876 8.75143C10.447 8.4724 11.2003 8.39479 11.9309 8.52763C12.6616 8.66047 13.3394 8.9983 13.8853 9.50171C15.776 11.0023 17.1715 13.8083 18.492 15.624L20.5177 18.355L22.9336 21.3561C24.4944 23.4093 26.4417 25.1373 28.6658 26.443C29.5104 26.9122 30.4978 27.0553 31.441 26.8452C32.3841 26.635 33.2173 26.0862 33.7827 25.3026C33.8541 25.1955 33.8837 25.0659 33.8657 24.9384C33.8478 24.8109 33.7838 24.6943 33.6855 24.6111C33.5874 24.5278 33.4621 24.4834 33.3335 24.4864C33.2048 24.4894 33.0816 24.5395 32.9874 24.6273C32.5542 25.1937 31.9273 25.5804 31.2268 25.7133C30.5264 25.8462 29.8015 25.716 29.191 25.3476C27.1828 24.0466 25.4495 22.3642 24.0891 20.3958L21.8382 17.3946L19.8876 14.6186C18.492 12.6829 16.9914 9.78682 14.9507 8.1662C14.1759 7.4867 13.221 7.04582 12.2013 6.89672C11.1816 6.74762 10.1405 6.89666 9.20355 7.3259C8.85074 7.46479 8.51372 7.64084 8.19817 7.8511C7.88248 8.0491 7.58159 8.26975 7.29785 8.51134C6.78953 8.9696 6.32256 9.47173 5.90232 10.0119C5.3021 10.7622 4.7619 11.5125 4.19169 12.3078L4.04163 12.4878C1.77578 14.8737 3.42641 14.9938 4.08665 14.2435Z" fill="#2B2A29"/>
<path d="M19.6625 21.5963C18.9509 22.5263 18.179 23.4086 17.3516 24.2373C16.5455 25.0497 15.6551 25.7741 14.6955 26.3981C14.3607 26.6282 14.0096 26.8337 13.6452 27.0132C13.4271 27.1382 13.1716 27.1808 12.9249 27.1334C12.5894 27.012 12.3147 26.7642 12.1596 26.4431C11.4393 25.3326 11.0342 23.682 10.3889 22.8417C9.91502 22.1456 9.22143 21.6284 8.41901 21.3726C7.61658 21.1169 6.75162 21.1376 5.96229 21.4313C5.26712 21.6803 4.61427 22.0346 4.02657 22.4816C2.43597 23.697 2.76609 24.5373 4.02657 23.9822C4.73525 23.4324 5.54633 23.0295 6.41246 22.7967C6.90812 22.6667 7.43264 22.7019 7.90652 22.8968C8.3804 23.0918 8.77778 23.436 9.03845 23.8772C9.65367 24.7025 9.99879 26.3081 10.7041 27.3884C11.097 28.0634 11.7375 28.5587 12.4897 28.769C12.9951 28.8656 13.518 28.8081 13.9903 28.6038C14.5239 28.3452 15.0272 28.0281 15.4908 27.6585C16.2996 27.0624 17.0484 26.3891 17.7267 25.6478C18.7185 24.5681 19.6265 23.4143 20.4428 22.1964C20.483 22.1417 20.5118 22.0793 20.5275 22.013C20.5433 21.9468 20.5457 21.8781 20.5344 21.8111C20.5232 21.744 20.4987 21.6798 20.4624 21.6222C20.426 21.5648 20.3786 21.5151 20.3226 21.4763C20.216 21.4161 20.0915 21.3951 19.9709 21.417C19.8503 21.4389 19.7412 21.5024 19.6625 21.5963Z" fill="#00A3E2"/>
<path d="M35.2231 33.8107C33.5425 33.7357 31.6818 33.6457 29.8362 33.5857H26.2349C22.5435 33.5857 18.8671 33.3306 15.1906 33.2706C13.6001 33.2706 11.9945 33.2706 10.3889 33.4056L3.50134 33.7807H1.77571C1.56562 33.7807 2.19586 30.6145 2.10583 25.6777C2.10583 25.6777 1.59564 14.6486 1.61064 14.0934C1.61064 12.5929 1.70069 11.0923 1.70069 9.59174V6.59062C1.56563 5.24011 1.31053 3.88961 1.26552 2.56912C1.22988 2.03779 1.25505 1.50413 1.34055 0.978523C1.35126 0.919315 1.35 0.858561 1.33683 0.799849C1.32366 0.741139 1.29886 0.685663 1.26389 0.6367C1.22892 0.587739 1.18448 0.546285 1.13322 0.514789C1.08195 0.483292 1.02489 0.462394 0.965406 0.453327C0.907272 0.442473 0.84757 0.443178 0.789709 0.455404C0.731848 0.467629 0.676965 0.491136 0.628191 0.52458C0.579418 0.558025 0.537714 0.600751 0.50546 0.650319C0.473204 0.699886 0.451032 0.755323 0.44021 0.813462C0.342482 1.40352 0.297288 2.00108 0.305158 2.59913C0.305158 3.91963 0.530243 5.28514 0.560255 6.5606V9.56173C0.560255 11.0623 0.395193 12.5629 0.305158 14.0634C0.0500635 17.9949 0.47022 21.8964 0.44021 25.8277C0.44021 30.6445 -0.0549756 33.7807 0.00504678 34.1109C0.0546558 34.3861 0.173416 34.6444 0.350175 34.8612C0.666058 35.2029 1.08996 35.4255 1.55063 35.4915C2.23332 35.5752 2.92369 35.5752 3.60639 35.4915L10.539 35.0262C12.0395 34.8762 13.6451 34.8162 15.1906 34.8012C18.8822 34.8012 22.5585 34.9362 26.2648 34.8012H29.8212C31.6518 34.8012 33.5126 34.8762 35.1782 34.9062C35.3004 34.8853 35.4113 34.8219 35.4912 34.7272C35.5712 34.6324 35.6149 34.5124 35.6149 34.3885C35.6149 34.2645 35.5712 34.1446 35.4912 34.0498C35.4113 33.955 35.3004 33.8917 35.1782 33.8709L35.2231 33.8107Z" fill="#2B2A29"/>
</g>
<defs>
<clipPath id="clip0_2573_1804">
<rect width="36" height="36" fill="white"/>
</clipPath>
</defs>
</svg>
