<svg width="36" height="36" viewBox="0 0 36 36" fill="none" xmlns="http://www.w3.org/2000/svg">
<g clip-path="url(#clip0_2989_12107)">
<path d="M32.3353 3.12701H27.8388V1.39759C27.8388 0.598809 26.9741 0.0995758 26.2824 0.498965C25.9613 0.684323 25.7635 1.02687 25.7635 1.39759V3.12701H11.2365V1.39759C11.2365 0.598809 10.3718 0.0995758 9.68001 0.498965C9.35896 0.684323 9.16118 1.02687 9.16118 1.39759V3.12701H4.66471C3.32754 3.12701 2.24353 4.211 2.24353 5.54818V33.2188C2.24353 34.556 3.32754 35.6399 4.66471 35.6399H32.3353C33.6725 35.6399 34.7565 34.556 34.7565 33.2188V5.54818C34.7565 4.211 33.6725 3.12701 32.3353 3.12701ZM4.66471 5.20229H9.16118V6.9317C9.16118 7.73049 10.0259 8.22973 10.7176 7.83034C11.0387 7.64498 11.2365 7.30242 11.2365 6.9317V5.20229H25.7635V6.9317C25.7635 7.73049 26.6282 8.22973 27.32 7.83034C27.6411 7.64498 27.8388 7.30242 27.8388 6.9317V5.20229H32.3353C32.5263 5.20231 32.6812 5.35716 32.6812 5.54818V11.4282H4.31883V5.54818C4.31883 5.35715 4.47367 5.20228 4.66471 5.20229ZM32.3353 33.5646H4.66471C4.47367 33.5647 4.31883 33.4098 4.31883 33.2188V13.5035H32.6812V33.2188C32.6812 33.4098 32.5263 33.5646 32.3353 33.5646Z" fill="black"/>
<path d="M17.6353 21.573C18.7883 22.2386 20.2294 21.4065 20.2294 20.0752C20.2294 19.1201 19.4551 18.3458 18.5 18.3458C18.1965 18.3458 17.8982 18.4257 17.6353 18.5775C16.4824 19.2432 16.4824 20.9073 17.6353 21.573Z" fill="#00A3E2"/>
<path d="M25.2447 21.573C26.3977 22.2386 27.8388 21.4065 27.8388 20.0752C27.8388 19.1201 27.0646 18.3458 26.1094 18.3458C25.8059 18.3458 25.5076 18.4257 25.2447 18.5775C24.0918 19.2432 24.0918 20.9073 25.2447 21.573Z" fill="#00A3E2"/>
<path d="M10.0259 28.4906C11.1788 29.1562 12.62 28.3242 12.62 26.9929C12.62 26.0378 11.8457 25.2635 10.8906 25.2635C10.587 25.2635 10.2888 25.3434 10.0259 25.4952C8.87296 26.1608 8.87296 27.825 10.0259 28.4906Z" fill="#00A3E2"/>
<path d="M17.6353 28.4906C18.7883 29.1562 20.2294 28.3242 20.2294 26.9929C20.2294 26.0378 19.4551 25.2635 18.5 25.2635C18.1964 25.2635 17.8982 25.3434 17.6353 25.4952C16.4824 26.1608 16.4824 27.825 17.6353 28.4906Z" fill="#00A3E2"/>
<path d="M25.2447 28.4906C26.3977 29.1562 27.8388 28.3242 27.8388 26.9929C27.8388 26.0378 27.0646 25.2635 26.1094 25.2635C25.8059 25.2635 25.5076 25.3434 25.2447 25.4952C24.0918 26.1608 24.0918 27.825 25.2447 28.4906Z" fill="#00A3E2"/>
</g>
<defs>
<clipPath id="clip0_2989_12107">
<rect width="36" height="36" fill="white"/>
</clipPath>
</defs>
</svg>
