<svg width="36" height="36" viewBox="0 0 36 36" fill="none" xmlns="http://www.w3.org/2000/svg">
<g clip-path="url(#clip0_4403_23581)">
<g clip-path="url(#clip1_4403_23581)">
<path fill-rule="evenodd" clip-rule="evenodd" d="M35.52 31.1988C35.61 30.2988 35.955 29.3088 36 28.3488C36.0202 27.8391 35.9438 27.3301 35.775 26.8488C35.5356 26.3185 35.1636 25.8587 34.695 25.5138C34.2264 25.1974 33.7231 24.9357 33.195 24.7338C33.2248 24.6678 33.2403 24.5962 33.2403 24.5238C33.2403 24.4513 33.2248 24.3798 33.195 24.3138C33.0448 23.239 32.7988 22.1798 32.46 21.1488C32.2748 20.616 31.9544 20.1404 31.53 19.7688C30.6615 19.115 29.6159 18.7386 28.53 18.6888C27.0702 18.6368 25.6094 18.7627 24.18 19.0638C23.5921 19.1419 23.0106 19.2622 22.44 19.4238C21.9718 19.5723 21.5452 19.8292 21.195 20.1738C20.7237 20.7168 20.3893 21.3649 20.22 22.0638C20.0501 22.779 19.9348 23.5061 19.875 24.2388C18.8643 25.0659 18.0281 26.0856 17.415 27.2388C17.0008 28.0914 16.8197 29.0385 16.89 29.9838C16.8901 30.4933 16.9712 30.9996 17.13 31.4838C17.3301 31.8939 17.6708 32.2186 18.09 32.3988C18.1924 32.4453 18.2976 32.4854 18.405 32.5188C18.405 32.5188 18.405 32.5188 18.405 32.5938C18.3032 33.153 18.2529 33.7204 18.255 34.2888C18.2898 34.551 18.3933 34.7994 18.555 35.0088C18.9315 35.3698 19.4166 35.5965 19.935 35.6538C20.3734 35.7067 20.8166 35.7067 21.255 35.6538C21.6862 35.6107 22.1128 35.5304 22.53 35.4138C22.6625 35.3976 22.7885 35.3478 22.8962 35.269C23.0039 35.1902 23.0896 35.0851 23.145 34.9638C23.2636 34.4172 23.3089 33.8573 23.28 33.2988C23.296 33.25 23.296 33.1975 23.28 33.1488H23.58C25.455 33.1488 27.45 33.1488 29.43 32.9838H29.79L29.625 34.2888V35.1138C29.6462 35.2661 29.7137 35.4082 29.8183 35.5209C29.9229 35.6336 30.0597 35.7114 30.21 35.7438C30.5921 35.8715 30.9922 35.9373 31.395 35.9388C31.923 35.9281 32.4495 35.878 32.97 35.7888C33.2702 35.7577 33.5666 35.6974 33.855 35.6088C34.0187 35.5505 34.1709 35.4642 34.305 35.3538C34.5309 35.1053 34.6953 34.8073 34.785 34.4838C34.8729 33.9334 34.903 33.3754 34.875 32.8188C34.894 32.6942 34.8661 32.5671 34.7969 32.4618C34.7276 32.3566 34.6219 32.2807 34.5 32.2488C34.8 32.2488 35.1 32.1438 35.4 32.0688C35.528 32.0367 35.6386 31.9563 35.7085 31.8444C35.7784 31.7325 35.8023 31.5979 35.775 31.4688C35.7561 31.4072 35.7232 31.3509 35.679 31.304C35.6348 31.2572 35.5804 31.2212 35.52 31.1988ZM21.465 22.4388C21.6243 21.9694 21.8975 21.5468 22.26 21.2088C22.4698 21.0576 22.7106 20.9551 22.965 20.9088C23.4915 20.8209 24.0222 20.7608 24.555 20.7288C25.8557 20.4825 27.1763 20.3569 28.5 20.3538C29.2917 20.3269 30.0755 20.5189 30.765 20.9088C31.1211 21.2163 31.3858 21.6159 31.53 22.0638C31.8115 22.8035 32.047 23.5599 32.235 24.3288L31.725 24.1188C31.6252 24.0564 31.5049 24.0356 31.39 24.0608C31.275 24.086 31.1745 24.1553 31.11 24.2538C31.0655 24.3204 31.0418 24.3987 31.0418 24.4788C31.0418 24.5589 31.0655 24.6372 31.11 24.7038C29.955 24.5838 28.815 24.4638 27.66 24.4038C26.82 24.4038 25.965 24.4038 25.125 24.2838C24.285 24.1638 23.19 24.2838 22.125 24.2838C21.6638 24.3234 21.2071 24.4037 20.76 24.5238C20.9422 23.812 21.1779 23.115 21.465 22.4388ZM22.335 33.1788C22.1986 33.4463 22.0784 33.7218 21.975 34.0038L19.785 33.8988C19.485 33.8238 19.5 33.1788 19.455 32.7888C19.785 32.8638 20.115 32.9388 20.445 32.9838C21.09 33.0588 21.735 33.0888 22.365 33.1038C22.35 33.1338 22.335 33.1488 22.335 33.1788ZM23.7 31.4388H23.34C23.4304 31.1007 23.5458 30.7698 23.685 30.4488C23.7781 30.2073 23.9272 29.9914 24.12 29.8188C24.3121 29.6653 24.5307 29.5483 24.765 29.4738C25.1699 29.2993 25.5923 29.1686 26.025 29.0838C26.3761 29.0142 26.7323 28.9741 27.09 28.9638C27.3941 28.9347 27.7008 28.9705 27.99 29.0688C28.2201 29.1805 28.4244 29.3389 28.59 29.5338C28.8959 29.9411 29.1764 30.3669 29.43 30.8088C29.4964 30.9253 29.6049 31.012 29.7332 31.051C29.8616 31.0901 29.9999 31.0785 30.12 31.0188C30.2394 30.9551 30.3285 30.8467 30.3679 30.7173C30.4073 30.5879 30.3937 30.4481 30.33 30.3288C30.1335 29.814 29.903 29.3129 29.64 28.8288C29.4079 28.4293 29.0903 28.0861 28.71 27.8238C27.7868 27.3464 26.7268 27.2033 25.71 27.4188C25.2248 27.5127 24.7553 27.6743 24.315 27.8988C23.851 28.0703 23.4397 28.3597 23.1215 28.7384C22.8033 29.1171 22.5891 29.5722 22.5 30.0588C22.4072 30.4987 22.347 30.9449 22.32 31.3938C21.75 31.3938 21.18 31.3938 20.595 31.2888C19.9923 31.2583 19.3989 31.1265 18.84 30.8988C18.77 30.9017 18.7009 30.8811 18.6439 30.8404C18.5868 30.7996 18.545 30.741 18.525 30.6738C18.4568 30.372 18.4067 30.0665 18.375 29.7588C18.3227 29.3856 18.3227 29.0069 18.375 28.6338C18.375 28.6338 18.45 28.6338 18.495 28.6338C18.9015 28.7653 19.2859 28.9575 19.635 29.2038C19.8138 29.2976 19.9801 29.4135 20.13 29.5488C20.461 29.84 20.7267 30.1978 20.91 30.5988C20.9388 30.7295 21.0179 30.8437 21.1301 30.9167C21.2424 30.9896 21.3788 31.0155 21.51 30.9888C21.5768 30.9785 21.6406 30.9542 21.6973 30.9175C21.754 30.8808 21.8024 30.8326 21.8392 30.776C21.876 30.7194 21.9005 30.6556 21.9109 30.5889C21.9214 30.5221 21.9177 30.454 21.9 30.3888C21.9176 29.8014 21.7888 29.2189 21.525 28.6938C21.3952 28.4368 21.2047 28.2154 20.97 28.0488C20.7492 27.8604 20.4871 27.7268 20.205 27.6588C19.6564 27.5593 19.0924 27.5849 18.555 27.7338C18.6267 27.5164 18.717 27.3056 18.825 27.1038C19.1566 26.4988 19.565 25.9391 20.04 25.4388C20.0906 25.5023 20.1592 25.5491 20.2367 25.5732C20.3143 25.5973 20.3973 25.5975 20.475 25.5738C20.9037 25.4832 21.343 25.4529 21.78 25.4838C22.905 25.4838 24.075 25.7988 25.08 25.9188H27.045C28.545 25.9188 30.045 25.7088 31.545 25.6488C31.6444 25.6551 31.7434 25.6312 31.829 25.5804C31.9147 25.5295 31.983 25.454 32.025 25.3638C32.445 25.6938 32.895 26.0388 33.315 26.3988C33.5575 26.6071 33.774 26.8438 33.96 27.1038C33.7002 27.0321 33.4339 26.9869 33.165 26.9688C32.8986 26.9597 32.6345 27.0218 32.4 27.1488C32.1639 27.2946 31.9598 27.4867 31.7999 27.7136C31.6401 27.9405 31.5279 28.1973 31.47 28.4688L31.365 29.7888C31.3383 29.9199 31.3642 30.0564 31.4371 30.1686C31.5101 30.2809 31.6243 30.36 31.755 30.3888C31.8201 30.4041 31.8876 30.4061 31.9535 30.3946C32.0194 30.3832 32.0823 30.3584 32.1384 30.322C32.1944 30.2856 32.2426 30.2381 32.2798 30.1826C32.317 30.127 32.3426 30.0645 32.355 29.9988L32.91 29.0238C32.9866 28.8861 33.0884 28.7639 33.21 28.6638C33.3 28.5738 33.345 28.4838 33.465 28.4388L34.365 28.1388V28.6488V31.0188C33.049 31.2309 31.7218 31.3661 30.39 31.4238C28.1622 31.5587 25.9284 31.5638 23.7 31.4388ZM33.885 32.6838C33.885 32.9688 33.765 33.3288 33.675 33.6738C33.585 34.0188 33.09 34.0788 32.82 34.0788L31.005 34.1838L30.825 32.8488C31.98 32.7138 33.12 32.5338 34.215 32.2938C34.1321 32.3265 34.0586 32.3792 34.001 32.4473C33.9434 32.5153 33.9036 32.5966 33.885 32.6838Z" fill="#00A3E2"/>
<path fill-rule="evenodd" clip-rule="evenodd" d="M22.755 11.6538C22.4974 11.2463 22.1125 10.9352 21.66 10.7688C21.1315 10.6143 20.5888 10.5138 20.04 10.4688C19.5415 10.4139 19.0385 10.4139 18.54 10.4688C17.88 10.4688 17.205 10.6188 16.56 10.6788H12.99L9.18001 10.9488C8.66901 10.9825 8.16468 11.0834 7.68001 11.2488C7.264 11.4065 6.89312 11.664 6.60001 11.9988C6.28778 12.3786 6.08087 12.8338 6.00001 13.3188C5.9077 14.1254 5.86262 14.9368 5.86501 15.7488C5.76025 17.5222 5.76025 19.3003 5.86501 21.0738C5.95825 22.4572 6.12851 23.8343 6.37501 25.1988C6.57001 25.9488 6.93001 25.7388 7.33501 25.1988C7.21501 24.1338 7.14001 23.0688 7.09501 21.9738C8.15745 22.1381 9.23004 22.2283 10.305 22.2438C10.973 22.2342 11.6395 22.179 12.3 22.0788C13.29 21.9588 14.25 21.7488 15.3 21.5988C15.3733 21.6115 15.4484 21.608 15.5202 21.5886C15.592 21.5692 15.6586 21.5344 15.7155 21.4865C15.7724 21.4386 15.8181 21.3789 15.8495 21.3115C15.8809 21.2441 15.8972 21.1706 15.8972 21.0963C15.8972 21.0219 15.8809 20.9485 15.8495 20.8811C15.8181 20.8136 15.7724 20.7539 15.7155 20.706C15.6586 20.6582 15.592 20.6233 15.5202 20.6039C15.4484 20.5845 15.3733 20.5811 15.3 20.5938C14.325 20.5938 13.35 20.4738 12.375 20.4738H11.13C10.7182 20.4922 10.3076 20.5322 9.90001 20.5938C8.98501 20.7138 8.08501 20.8938 7.17001 21.0138C7.17001 19.6938 7.17001 18.3738 7.33501 17.0688C8.83501 17.1588 10.185 17.2938 11.64 17.3238H13.605L15.555 17.2488C17.055 17.1138 18.63 16.9038 20.145 16.6638C20.2182 16.668 20.2914 16.6564 20.3597 16.6297C20.4279 16.6031 20.4897 16.5621 20.5406 16.5095C20.5916 16.4568 20.6307 16.3938 20.6551 16.3247C20.6796 16.2556 20.6888 16.1821 20.6823 16.1091C20.6758 16.0361 20.6536 15.9654 20.6172 15.9018C20.5809 15.8381 20.5313 15.7831 20.4718 15.7403C20.4122 15.6976 20.3442 15.6682 20.2723 15.6541C20.2004 15.64 20.1263 15.6416 20.055 15.6588H15.36C14.31 15.6588 13.26 15.6588 12.225 15.7338C10.59 15.8238 8.98501 16.0338 7.38001 16.1988V15.9138C7.38001 15.4038 7.38001 14.6238 7.51501 13.9338C7.52021 13.6448 7.60876 13.3636 7.77001 13.1238C7.91031 12.929 8.11946 12.7949 8.35501 12.7488C8.67546 12.6754 9.0017 12.6303 9.33001 12.6138L13.14 12.3438L16.755 12.1338C17.385 12.0438 18.045 11.8938 18.69 11.8188C19.0787 11.7739 19.4713 11.7739 19.86 11.8188C20.3188 11.8242 20.776 11.8745 21.225 11.9688C21.4154 12.0262 21.5799 12.1482 21.69 12.3138C21.9893 12.8064 22.1739 13.3601 22.23 13.9338C22.35 14.9388 22.23 16.0338 22.335 16.9338C22.3389 17.0664 22.3944 17.1923 22.4896 17.2847C22.5848 17.3772 22.7123 17.4288 22.845 17.4288C22.9803 17.4288 23.11 17.375 23.2056 17.2794C23.3013 17.1837 23.355 17.054 23.355 16.9188C23.4441 15.7204 23.4441 14.5171 23.355 13.3188C23.2704 12.7287 23.0662 12.1622 22.755 11.6538Z" fill="black"/>
<path fill-rule="evenodd" clip-rule="evenodd" d="M28.65 13.1838C27.4676 11.7107 26.1466 10.3544 24.705 9.13378C22.59 7.28878 20.25 5.62378 18 4.04878C17.415 3.64378 16.845 3.19378 16.26 2.78878C15.8531 2.50817 15.4326 2.24786 15 2.00878C14.704 1.84042 14.3859 1.7142 14.055 1.63378C13.8278 1.58554 13.5911 1.61184 13.38 1.70878C13.1357 1.81772 12.9042 1.95356 12.69 2.11378C12.255 2.41378 11.865 2.80378 11.49 3.11878L4.99501 8.83378C3.94501 9.79378 2.88001 10.8138 1.90501 11.8338C1.24002 12.5956 0.628563 13.4025 0.0750114 14.2488C0.00875247 14.3473 -0.0172851 14.4675 0.00223905 14.5847C0.0217632 14.7018 0.0853691 14.807 0.180011 14.8788C0.27857 14.945 0.398746 14.9711 0.51589 14.9515C0.633035 14.932 0.73827 14.8684 0.810012 14.7738C1.37988 14.0354 1.99613 13.334 2.65501 12.6738L3.10501 12.2688C3.09673 12.3033 3.09673 12.3393 3.10501 12.3738C3.01501 13.0488 2.95501 13.7388 2.91001 14.4438C2.91001 15.4788 2.91001 16.5138 2.82001 17.5188C2.73001 18.5238 2.82001 19.8138 2.82001 20.9388C2.82001 22.0638 2.98501 23.2038 3.09001 24.3438C3.09001 24.7938 3.09001 25.5138 3.27001 26.0988C3.3179 26.4416 3.42984 26.7723 3.60001 27.0738C3.74393 27.3094 3.94097 27.508 4.17538 27.6539C4.40979 27.7997 4.67507 27.8887 4.95001 27.9138C5.65501 27.9888 6.57001 27.6288 7.06501 27.6588C7.8944 27.7039 8.72563 27.7039 9.55501 27.6588C11.415 27.5088 13.26 27.1638 15.135 26.9838C15.2717 26.9723 15.3984 26.9078 15.4881 26.8041C15.5778 26.7003 15.6233 26.5656 15.615 26.4288C15.6 26.2976 15.5361 26.1768 15.436 26.0906C15.3359 26.0044 15.207 25.9591 15.075 25.9638C13.455 25.9638 11.865 26.1888 10.275 26.2488H8.77501C7.72087 26.1885 6.66415 26.1885 5.61001 26.2488C5.41501 26.2488 5.20501 26.3538 5.10001 26.2488C5.017 26.054 4.97121 25.8454 4.96501 25.6338C4.96501 25.1238 4.87501 24.5688 4.84501 24.1338L4.14001 17.4588C4.14001 16.4838 3.99001 15.4638 3.96001 14.4588V12.4488C3.96839 12.3318 3.93074 12.2161 3.85509 12.1264C3.77944 12.0368 3.67177 11.9802 3.55501 11.9688C3.55501 11.9688 3.45001 11.9688 3.39001 11.9688C4.18501 11.2488 5.01001 10.4988 5.85001 9.82378L12.585 4.42378C12.885 4.16878 13.2 3.86878 13.53 3.61378L13.83 3.40378C13.92 3.47878 14.16 3.49378 14.22 3.52378C14.6136 3.73045 14.9944 3.96088 15.36 4.21378C15.96 4.60378 16.53 5.02378 17.115 5.41378C19.35 6.91378 21.72 8.41378 23.895 10.1238C25.3321 11.2328 26.6628 12.4732 27.87 13.8288C27.9161 13.8755 27.9709 13.9126 28.0315 13.9379C28.092 13.9632 28.1569 13.9763 28.2225 13.9763C28.2881 13.9763 28.3531 13.9632 28.4136 13.9379C28.4741 13.9126 28.529 13.8755 28.575 13.8288C28.6605 13.7467 28.7147 13.6375 28.7284 13.5198C28.7421 13.4021 28.7144 13.2833 28.65 13.1838Z" fill="black"/>
</g>
</g>
<defs>
<clipPath id="clip0_4403_23581">
<rect width="36" height="36" fill="white"/>
</clipPath>
<clipPath id="clip1_4403_23581">
<rect width="36" height="36" fill="white" transform="translate(0 0.748779)"/>
</clipPath>
</defs>
</svg>
