<svg width="36" height="36" viewBox="0 0 36 36" fill="none" xmlns="http://www.w3.org/2000/svg">
<g clip-path="url(#clip0_4456_13992)">
<path d="M33.75 14.9062H32.0484L28.0673 5.94984C27.9126 5.60202 27.6604 5.30651 27.3412 5.09911C27.0219 4.8917 26.6494 4.78129 26.2688 4.78125H9.73125C9.35057 4.78129 8.97806 4.8917 8.65884 5.09911C8.33962 5.30651 8.08738 5.60202 7.93266 5.94984L3.95156 14.9062H2.25C2.02622 14.9062 1.81161 14.9951 1.65338 15.1534C1.49514 15.3116 1.40625 15.5262 1.40625 15.75C1.40625 15.9738 1.49514 16.1884 1.65338 16.3466C1.81161 16.5049 2.02622 16.5938 2.25 16.5938H3.65625V28.125C3.65625 28.6471 3.86367 29.1479 4.23288 29.5171C4.6021 29.8863 5.10285 30.0938 5.625 30.0938H9C9.52215 30.0938 10.0229 29.8863 10.3921 29.5171C10.7613 29.1479 10.9688 28.6471 10.9688 28.125V25.5938H25.0312V28.125C25.0312 28.6471 25.2387 29.1479 25.6079 29.5171C25.9771 29.8863 26.4779 30.0938 27 30.0938H30.375C30.8971 30.0938 31.3979 29.8863 31.7671 29.5171C32.1363 29.1479 32.3438 28.6471 32.3438 28.125V16.5938H33.75C33.9738 16.5938 34.1884 16.5049 34.3466 16.3466C34.5049 16.1884 34.5938 15.9738 34.5938 15.75C34.5938 15.5262 34.5049 15.3116 34.3466 15.1534C34.1884 14.9951 33.9738 14.9062 33.75 14.9062ZM9.47391 6.63609C9.49598 6.58627 9.53205 6.54393 9.57773 6.51422C9.62342 6.48451 9.67675 6.46871 9.73125 6.46875H26.2688C26.3232 6.46871 26.3766 6.48451 26.4223 6.51422C26.468 6.54393 26.504 6.58627 26.5261 6.63609L30.202 14.9062H5.79797L9.47391 6.63609ZM9.28125 28.125C9.28125 28.1996 9.25162 28.2711 9.19887 28.3239C9.14613 28.3766 9.07459 28.4062 9 28.4062H5.625C5.55041 28.4062 5.47887 28.3766 5.42613 28.3239C5.37338 28.2711 5.34375 28.1996 5.34375 28.125V25.5938H9.28125V28.125ZM30.375 28.4062H27C26.9254 28.4062 26.8539 28.3766 26.8011 28.3239C26.7484 28.2711 26.7188 28.1996 26.7188 28.125V25.5938H30.6562V28.125C30.6562 28.1996 30.6266 28.2711 30.5739 28.3239C30.5211 28.3766 30.4496 28.4062 30.375 28.4062ZM30.6562 23.9062H5.34375V16.5938H30.6562V23.9062Z" fill="black"/>
<path d="M8.40338 19.6534C8.24514 19.8116 8.15625 20.0262 8.15625 20.25C8.15625 20.4738 8.24514 20.6884 8.40338 20.8466C8.56161 21.0049 8.77622 21.0938 9 21.0938H11.25C11.4738 21.0938 11.6884 21.0049 11.8466 20.8466C12.0049 20.6884 12.0938 20.4738 12.0938 20.25C12.0938 20.0262 12.0049 19.8116 11.8466 19.6534C11.6884 19.4951 11.4738 19.4062 11.25 19.4062H9C8.77622 19.4062 8.56161 19.4951 8.40338 19.6534Z" fill="#00A3E2"/>
<path d="M24.1534 19.6534C23.9951 19.8116 23.9062 20.0262 23.9062 20.25C23.9062 20.4738 23.9951 20.6884 24.1534 20.8466C24.3116 21.0049 24.5262 21.0938 24.75 21.0938H27C27.2238 21.0938 27.4384 21.0049 27.5966 20.8466C27.7549 20.6884 27.8438 20.4738 27.8438 20.25C27.8438 20.0262 27.7549 19.8116 27.5966 19.6534C27.4384 19.4951 27.2238 19.4062 27 19.4062H24.75C24.5262 19.4062 24.3116 19.4951 24.1534 19.6534Z" fill="#00A3E2"/>
</g>
<defs>
<clipPath id="clip0_4456_13992">
<rect width="36" height="36" fill="white"/>
</clipPath>
</defs>
</svg>
