<svg width="36" height="36" viewBox="0 0 36 36" fill="none" xmlns="http://www.w3.org/2000/svg">
<g clip-path="url(#clip0_4482_13150)">
<path d="M32.3438 22.5872V31.5C32.3441 31.6483 32.3054 31.794 32.2314 31.9226C32.1575 32.0511 32.051 32.1579 31.9227 32.2322C31.7944 32.3065 31.6488 32.3456 31.5005 32.3457C31.3522 32.3458 31.2065 32.3068 31.0781 32.2327L27.5625 30.2217L24.0469 32.2327C23.9185 32.3068 23.7728 32.3458 23.6245 32.3457C23.4762 32.3456 23.3306 32.3065 23.2023 32.2322C23.074 32.1579 22.9675 32.0511 22.8936 31.9226C22.8196 31.794 22.7809 31.6483 22.7812 31.5V27.8438H5.625C5.10285 27.8438 4.6021 27.6363 4.23288 27.2671C3.86367 26.8979 3.65625 26.3971 3.65625 25.875V7.875C3.65625 7.35285 3.86367 6.8521 4.23288 6.48288C4.6021 6.11367 5.10285 5.90625 5.625 5.90625H30.375C30.8971 5.90625 31.3979 6.11367 31.7671 6.48288C32.1363 6.8521 32.3438 7.35285 32.3438 7.875V12.2878C33.0533 12.9449 33.6194 13.7415 34.0066 14.6277C34.3937 15.5138 34.5936 16.4704 34.5936 17.4375C34.5936 18.4046 34.3937 19.3612 34.0066 20.2473C33.6194 21.1335 33.0533 21.9301 32.3438 22.5872ZM27.5625 12.0938C26.5056 12.0938 25.4724 12.4072 24.5937 12.9943C23.7149 13.5815 23.03 14.4161 22.6255 15.3925C22.2211 16.369 22.1152 17.4434 22.3214 18.48C22.5276 19.5166 23.0366 20.4688 23.7839 21.2161C24.5312 21.9634 25.4834 22.4724 26.52 22.6786C27.5566 22.8848 28.631 22.7789 29.6075 22.3745C30.5839 21.97 31.4185 21.2851 32.0057 20.4063C32.5928 19.5276 32.9062 18.4944 32.9062 17.4375C32.9062 16.0202 32.3433 14.661 31.3411 13.6589C30.339 12.6568 28.9798 12.0938 27.5625 12.0938ZM22.7812 26.1562V22.5872C21.5501 21.4382 20.7722 19.8855 20.589 18.2114C20.4059 16.5374 20.8296 14.8532 21.7833 13.4652C22.7369 12.0772 24.157 11.0775 25.7853 10.648C27.4137 10.2185 29.1421 10.3877 30.6562 11.1248V7.875C30.6562 7.80041 30.6266 7.72887 30.5739 7.67613C30.5211 7.62338 30.4496 7.59375 30.375 7.59375H5.625C5.55041 7.59375 5.47887 7.62338 5.42613 7.67613C5.37338 7.72887 5.34375 7.80041 5.34375 7.875V25.875C5.34375 25.9496 5.37338 26.0211 5.42613 26.0739C5.47887 26.1266 5.55041 26.1562 5.625 26.1562H22.7812ZM30.6562 23.7502C29.6935 24.223 28.6351 24.4688 27.5625 24.4688C26.4899 24.4688 25.4315 24.223 24.4688 23.7502V30.0459L27.1406 28.5173C27.2689 28.4433 27.4144 28.4043 27.5625 28.4043C27.7106 28.4043 27.8561 28.4433 27.9844 28.5173L30.6562 30.0459V23.7502Z" fill="black"/>
<path d="M17.4716 19.7216C17.6299 19.5634 17.7188 19.3488 17.7188 19.125C17.7188 18.9012 17.6299 18.6866 17.4716 18.5284C17.3134 18.3701 17.0988 18.2812 16.875 18.2812H10.125C9.90122 18.2812 9.68661 18.3701 9.52838 18.5284C9.37015 18.6866 9.28125 18.9012 9.28125 19.125C9.28125 19.3488 9.37015 19.5634 9.52838 19.7216C9.68661 19.8799 9.90122 19.9688 10.125 19.9688H16.875C17.0988 19.9688 17.3134 19.8799 17.4716 19.7216Z" fill="#00A3E2"/>
<path d="M10.125 13.7812H16.875C17.0988 13.7812 17.3134 13.8701 17.4716 14.0284C17.6299 14.1866 17.7188 14.4012 17.7188 14.625C17.7188 14.8488 17.6299 15.0634 17.4716 15.2216C17.3134 15.3799 17.0988 15.4688 16.875 15.4688H10.125C9.90122 15.4688 9.68661 15.3799 9.52838 15.2216C9.37015 15.0634 9.28125 14.8488 9.28125 14.625C9.28125 14.4012 9.37015 14.1866 9.52838 14.0284C9.68661 13.8701 9.90122 13.7812 10.125 13.7812Z" fill="#00A3E2"/>
</g>
<defs>
<clipPath id="clip0_4482_13150">
<rect width="36" height="36" fill="white"/>
</clipPath>
</defs>
</svg>
