<svg width="36" height="36" viewBox="0 0 36 36" fill="none" xmlns="http://www.w3.org/2000/svg">
<g clip-path="url(#clip0_3109_9703)">
<path d="M35.64 31.8353C35.64 32.4083 35.1754 32.8729 34.6023 32.8729H1.39763C0.824554 32.8729 0.359985 32.4083 0.359985 31.8353V4.16469C0.359985 3.36591 1.22469 2.86666 1.91645 3.26605C2.23751 3.45141 2.43529 3.79397 2.43529 4.16469V21.2478L11.7828 13.0677C12.1519 12.7452 12.6964 12.725 13.0885 13.0193L23.484 20.8155L33.9192 11.6842C34.552 11.1967 35.4752 11.5771 35.581 12.3689C35.6238 12.6896 35.5145 13.012 35.2855 13.2406L24.2172 22.9253C23.8481 23.2479 23.3035 23.2681 22.9115 22.9738L12.516 15.1845L2.43529 24.0045V30.7976H34.6023C35.1754 30.7976 35.64 31.2622 35.64 31.8353Z" fill="black"/>
<path d="M11.7827 13.0677L2.43527 21.2478V24.0045L12.516 15.1845L22.9115 22.9738C23.3035 23.2681 23.848 23.2479 24.2172 22.9254L35.2854 13.2407C35.5145 13.012 35.6238 12.6896 35.5809 12.3689C35.4752 11.5771 34.552 11.1967 33.9192 11.6842L23.4839 20.8155L13.0884 13.0193C12.6964 12.725 12.1519 12.7452 11.7827 13.0677Z" fill="#00A3E2"/>
</g>
<defs>
<clipPath id="clip0_3109_9703">
<rect width="36" height="36" fill="white"/>
</clipPath>
</defs>
</svg>
