<svg width="36" height="36" viewBox="0 0 36 36" fill="none" xmlns="http://www.w3.org/2000/svg">
<g clip-path="url(#clip0_2573_1806)">
<path fill-rule="evenodd" clip-rule="evenodd" d="M35.9669 19.7842C35.9167 18.3789 35.7463 16.9803 35.4575 15.604C35.3841 15.1189 35.1707 14.6659 34.8432 14.3005C34.5124 14.0565 34.135 13.8831 33.7344 13.7911C32.9703 13.6113 32.1462 13.5064 31.472 13.5064C31.0814 13.5021 30.7008 13.3822 30.3783 13.1618C30.2148 12.8528 30.1323 12.5075 30.1386 12.158C30.0991 11.3898 29.9633 10.6297 29.7341 9.89554C29.6064 9.51361 29.3661 9.17929 29.0448 8.93663C28.9327 8.85943 28.7952 8.82877 28.6609 8.85113C28.5267 8.8735 28.4065 8.94713 28.3256 9.0565C28.2492 9.16615 28.2191 9.3014 28.2414 9.43312C28.2639 9.56485 28.3371 9.68249 28.4454 9.76069C28.7264 10.0625 28.8864 10.4572 28.895 10.8694C28.9533 11.7087 29.0583 12.544 29.2097 13.3716C29.2718 13.6061 29.3901 13.8221 29.5542 14.0009C29.8704 14.2834 30.2511 14.484 30.663 14.5852C31.7965 14.7045 32.9097 14.9714 33.9741 15.3793C34.0782 15.5631 34.1397 15.7678 34.1539 15.9786C34.3532 17.2527 34.4583 18.5397 34.4686 19.8292C34.492 20.9707 34.432 22.1125 34.2888 23.2453C34.2667 23.6041 34.1752 23.9553 34.0191 24.2791C33.6814 24.5436 33.2643 24.6861 32.8355 24.6837C32.1633 24.7623 31.4974 24.8874 30.8427 25.0582C30.4478 25.1755 30.0771 25.3633 29.7491 25.6126C29.3282 25.9516 29.0544 26.4402 28.9848 26.9761C28.8992 27.657 28.8541 28.3425 28.8499 29.0287C28.8499 29.4483 28.8499 29.8678 28.5204 30.0475C26.9662 30.4252 25.37 30.6015 23.7708 30.5719C19.0961 30.8116 12.8183 30.8116 11.7845 30.8566C11.6652 30.8566 11.5509 30.904 11.4666 30.9883C11.3823 31.0726 11.335 31.1869 11.335 31.3062C11.335 31.4253 11.3823 31.5397 11.4666 31.624C11.5509 31.7083 11.6652 31.7556 11.7845 31.7556C12.8932 31.7556 19.1711 32.0703 23.8757 32.0403C25.6757 32.1027 27.4756 31.9162 29.2245 31.4859C29.6973 31.233 30.0561 30.81 30.2285 30.3022C30.4384 29.4699 30.5393 28.6137 30.5282 27.7552C30.5282 27.4105 30.5282 27.096 30.7079 26.9461C31.1258 26.6877 31.5973 26.5288 32.0863 26.4816C32.7666 26.4168 33.4389 26.2863 34.0939 26.092C34.546 25.9498 34.9469 25.6791 35.2478 25.3129C35.5256 24.9217 35.7054 24.4696 35.7722 23.9944C35.9816 22.6015 36.0468 21.1906 35.9669 19.7842Z" fill="#00A3E2"/>
<path fill-rule="evenodd" clip-rule="evenodd" d="M2.21046 10.5998C2.56156 10.2177 3.01339 9.94242 3.51397 9.80568C4.40392 9.57472 5.3217 9.46884 6.24087 9.49104L12.9832 9.01158C13.0434 9.01995 13.1047 9.01599 13.1634 8.99997C13.222 8.98395 13.2769 8.95618 13.3245 8.91837C13.3721 8.88054 13.4116 8.83345 13.4405 8.77993C13.4694 8.72643 13.4871 8.66761 13.4926 8.60704C13.4927 8.48641 13.4458 8.37049 13.3619 8.28381C13.278 8.19711 13.1637 8.14647 13.0431 8.14258H6.31578C5.26461 8.04081 4.20414 8.09635 3.16936 8.30739C2.3806 8.48016 1.65788 8.87532 1.08674 9.44608C0.6188 9.963 0.307077 10.602 0.187763 11.289C0.0370683 12.1594 -0.023184 13.0431 0.00796725 13.926L0.157797 21.9569C-0.0370245 24.3428 0.109282 26.7441 0.592301 29.0888C0.720586 29.6684 0.992148 30.2066 1.38215 30.6542C1.77215 31.1018 2.26814 31.4444 2.82475 31.6508C2.95391 31.6905 3.09354 31.6773 3.21297 31.6142C3.33238 31.5509 3.4218 31.4429 3.46153 31.3137C3.50127 31.1846 3.48807 31.0449 3.42486 30.9255C3.36164 30.8061 3.25356 30.7166 3.12441 30.677C2.0906 30.3323 1.71601 29.1786 1.53623 27.8601C1.39011 25.8923 1.4403 23.9147 1.68606 21.9569C1.68606 20.3237 1.68606 18.7355 1.77595 17.1323V13.881C1.70224 13.1387 1.70224 12.3909 1.77595 11.6486C1.81518 11.264 1.96624 10.8994 2.21046 10.5998Z" fill="#00A3E2"/>
<path fill-rule="evenodd" clip-rule="evenodd" d="M18.2871 25.8374C20.6032 25.1345 22.6783 23.8013 24.2803 21.9869C25.2879 20.7606 26.0599 19.3586 26.5576 17.8515C27.0505 16.3545 27.2737 14.7818 27.2169 13.2068C27.1516 10.8258 26.3856 8.51701 25.0144 6.56938C24.0574 5.21585 22.6125 4.28657 20.9841 3.97733C20.9151 3.95282 20.8416 3.94348 20.7687 3.94991C20.6958 3.95635 20.6251 3.97843 20.5615 4.01464C20.4979 4.05085 20.4427 4.10035 20.4 4.15975C20.3572 4.21916 20.3278 4.28708 20.3137 4.3589C20.2995 4.43072 20.301 4.50475 20.3181 4.57594C20.335 4.64713 20.3673 4.7138 20.4124 4.77143C20.4576 4.82906 20.5146 4.8763 20.5795 4.9099C20.6446 4.94351 20.7162 4.96271 20.7892 4.96619C21.6225 5.17684 22.3987 5.56963 23.062 6.11629C23.7252 6.66295 24.259 7.34987 24.6249 8.12759C25.4392 9.70772 25.8655 11.4591 25.8684 13.2368C25.8672 14.6462 25.6239 16.0449 25.1493 17.3721C24.6757 18.6888 23.9647 19.9076 23.0517 20.9679C21.6384 22.509 19.8298 23.6334 17.8227 24.2193C15.8776 24.8681 13.7745 24.8681 11.8295 24.2193C11.6147 24.159 11.4045 24.084 11.2002 23.9945C12.1441 23.2004 13.118 22.4963 14.1069 21.7022C15.0957 20.9081 16.1146 20.099 17.1034 19.2449L17.9575 18.3909L18.1372 18.1961C18.6363 18.2261 19.1365 18.2261 19.6356 18.1961C20.13 18.1961 20.6094 18.0314 21.1338 18.0164C21.2704 18.0164 21.4015 17.9631 21.4995 17.868C21.5974 17.7729 21.6543 17.6433 21.6582 17.507C21.6583 17.3744 21.6067 17.247 21.5143 17.1519C21.4221 17.0568 21.2962 17.0013 21.1638 16.9974C20.7442 16.9172 20.3173 16.8821 19.8903 16.8926C19.6281 16.9217 19.3678 16.9667 19.1112 17.0274C19.6942 16.3163 20.3197 15.6408 20.9841 15.0048C21.0664 14.9207 21.1125 14.8078 21.1125 14.6901C21.1125 14.5725 21.0664 14.4595 20.9841 14.3755C20.9434 14.3329 20.8947 14.2989 20.8405 14.2758C20.7864 14.2526 20.7282 14.2406 20.6694 14.2406C20.6106 14.2406 20.5522 14.2526 20.4982 14.2758C20.4441 14.2989 20.3953 14.3329 20.3547 14.3755C19.3059 15.2295 18.4219 16.2333 17.3581 17.1623C16.9644 17.5358 16.5492 17.886 16.1146 18.2111C15.3954 18.7655 14.6163 19.2599 13.9421 19.7094C13.957 19.5149 13.957 19.3196 13.9421 19.125C13.863 18.8207 13.7679 18.5205 13.6574 18.2261C13.6484 18.1593 13.6259 18.0951 13.5912 18.0374C13.5565 17.9796 13.5104 17.9295 13.4557 17.8902C13.401 17.8509 13.3388 17.8233 13.273 17.8089C13.2072 17.7945 13.1392 17.7938 13.0731 17.8065C12.94 17.8286 12.8212 17.9025 12.7425 18.012C12.6639 18.1215 12.6319 18.2579 12.6535 18.3909C12.6242 18.785 12.6242 19.1805 12.6535 19.5746C12.7121 19.8701 12.8078 20.157 12.9382 20.4285C12.204 20.9529 11.4399 21.4923 10.7807 22.0767C10.4061 22.3764 10.0765 22.721 9.71688 23.0505C9.22722 22.4595 8.8971 21.7527 8.75797 20.9979C8.60404 20.1942 8.61636 19.3674 8.79415 18.5685C8.97196 17.7698 9.31147 17.0159 9.79179 16.3532C10.4434 15.4308 11.2257 14.6081 12.1141 13.911C13.5076 12.8659 14.9692 11.9149 16.4892 11.0642C17.1334 10.6747 17.8825 10.2851 18.5568 9.83564C19.0501 9.53527 19.4947 9.16139 19.8753 8.72692C20.2822 8.22601 20.5323 7.61626 20.5945 6.97391C20.7049 6.07726 20.5756 5.16734 20.2198 4.33691C20.1987 4.28174 20.1663 4.23149 20.125 4.18924C20.0836 4.14698 20.0341 4.11361 19.9794 4.09117C19.9246 4.06873 19.866 4.05769 19.8069 4.05872C19.7478 4.05976 19.6894 4.07284 19.6356 4.09718C19.5804 4.11845 19.5301 4.15075 19.4878 4.1921C19.4457 4.23346 19.4122 4.283 19.3897 4.33771C19.3674 4.39241 19.3563 4.45112 19.3573 4.51024C19.3584 4.56935 19.3714 4.62764 19.3959 4.68152C19.6162 5.25413 19.7131 5.86681 19.6804 6.47947C19.6744 7.05323 19.4737 7.60793 19.1112 8.05268C18.7803 8.42026 18.4024 8.74267 17.9874 9.01159C17.2983 9.43111 16.4892 9.77572 15.9048 10.1203C14.3119 10.9278 12.7706 11.8335 11.2901 12.8322C10.2712 13.5621 9.36283 14.4351 8.59315 15.4242C7.95762 16.2443 7.4968 17.1858 7.2391 18.1908C6.98142 19.1958 6.93234 20.243 7.09486 21.2676C7.29277 22.3908 7.81339 23.432 8.59315 24.2642C8.2935 24.6089 7.96387 24.9534 7.6792 25.328C6.94578 26.2797 6.37843 27.3486 6.00111 28.4894C5.72406 29.3042 5.66721 30.1776 5.8363 31.0215C5.86506 31.1522 5.94403 31.2662 6.05616 31.3391C6.16828 31.412 6.30457 31.4378 6.43561 31.4111C6.50164 31.3985 6.56454 31.373 6.62067 31.3361C6.6768 31.299 6.72505 31.2513 6.76266 31.1957C6.80025 31.1399 6.82647 31.0773 6.83976 31.0115C6.85306 30.9455 6.8532 30.8777 6.84015 30.8117C6.75795 30.1536 6.85636 29.4855 7.12483 28.8789C7.54744 27.9051 8.12982 27.0089 8.84787 26.2269C9.16251 25.8824 9.50712 25.5527 9.83674 25.2231C10.261 25.4952 10.713 25.7211 11.1852 25.8974C13.4943 26.661 15.9912 26.64 18.2871 25.8374Z" fill="#2B2A29"/>
</g>
<defs>
<clipPath id="clip0_2573_1806">
<rect width="36" height="36" fill="white"/>
</clipPath>
</defs>
</svg>
