<svg width="36" height="36" viewBox="0 0 36 36" fill="none" xmlns="http://www.w3.org/2000/svg">
<g clip-path="url(#clip0_3109_7850)">
<g clip-path="url(#clip1_3109_7850)">
<path d="M35.64 17.9951C35.6428 31.3732 21.3351 39.8853 9.57965 33.4992L3.54922 35.5088C1.78113 36.0984 0.0377894 34.553 0.411177 32.7269C0.430625 32.6319 0.455755 32.5381 0.486453 32.446L2.49601 26.4156C-3.98081 14.4806 4.89125 0.00979775 18.4657 0.368223C28.0206 0.620518 35.6363 8.43692 35.64 17.9951ZM33.5647 17.9951C33.5618 6.0135 20.5896 -1.47193 10.2146 4.52137C2.76981 8.82196 0.222093 18.3442 4.5246 25.7878C4.67389 26.0454 4.70539 26.3546 4.61107 26.637L2.45624 33.1015C2.372 33.3541 2.59279 33.6031 2.85365 33.5498C2.86722 33.547 2.88062 33.5434 2.89377 33.539L9.35308 31.3842C9.45916 31.3493 9.57003 31.3312 9.68167 31.3306C9.86382 31.3316 10.0426 31.3799 10.2005 31.4706C20.5692 37.4748 33.5493 30.0029 33.5647 18.0213C33.5647 18.0126 33.5647 18.0039 33.5647 17.9951Z" fill="black"/>
<path d="M17.1354 19.4929C18.2883 20.1585 19.7295 19.3264 19.7295 17.9951C19.7295 17.0401 18.9552 16.2658 18.0001 16.2657C17.6965 16.2657 17.3983 16.3456 17.1354 16.4974C15.9825 17.1631 15.9825 18.8272 17.1354 19.4929Z" fill="#00A3E2"/>
<path d="M8.893 18.8598C8.22741 17.7068 9.05944 16.2657 10.3907 16.2657C11.3458 16.2658 12.1201 17.0401 12.1201 17.9951C12.1201 18.2987 12.0402 18.597 11.8884 18.8599C11.2227 20.0128 9.55859 20.0127 8.893 18.8598Z" fill="#00A3E2"/>
<path d="M24.1117 18.8598C23.4461 17.7068 24.2782 16.2657 25.6095 16.2657C26.5646 16.2658 27.3389 17.0401 27.3389 17.9951C27.3389 18.2987 27.2589 18.597 27.1071 18.8599C26.4414 20.0128 24.7773 20.0127 24.1117 18.8598Z" fill="#00A3E2"/>
</g>
</g>
<defs>
<clipPath id="clip0_3109_7850">
<rect width="36" height="36" fill="white"/>
</clipPath>
<clipPath id="clip1_3109_7850">
<rect width="36" height="36" fill="white"/>
</clipPath>
</defs>
</svg>
