<svg width="36" height="36" viewBox="0 0 36 36" fill="none" xmlns="http://www.w3.org/2000/svg">
<g clip-path="url(#clip0_2573_5433)">
<path fill-rule="evenodd" clip-rule="evenodd" d="M13.6019 15.3939C14.2467 15.6489 14.9321 15.786 15.6253 15.7986C16.2043 15.8363 16.7851 15.8363 17.3641 15.7986C18.5632 15.7086 19.4475 15.4388 21.0813 15.3639C21.411 15.3639 22.3702 15.4688 22.9848 15.3639C23.3092 15.3384 23.6227 15.2355 23.8992 15.064C24.4263 14.6734 24.8107 14.1205 24.9933 13.4903C25.2643 12.3524 25.3504 11.1782 25.2481 10.0129C25.2481 9.15857 25.368 7.55478 25.2481 6.25076C25.2162 5.59548 25.0531 4.95327 24.7684 4.3622C24.3865 3.70932 23.9395 3.09667 23.4345 2.53358C22.7239 1.72211 21.963 0.956169 21.1563 0.240301C20.9754 0.0786109 20.7391 -0.00726463 20.4967 0.000482007C20.002 0.000482007 18.8179 0.225312 18.6231 0.240301L14.2614 0.824859C14.1531 0.838517 14.0507 0.882267 13.9659 0.951147C13.8811 1.02003 13.8174 1.11128 13.7818 1.21457C13.7448 1.11321 13.6775 1.02573 13.589 0.964043C13.5004 0.902352 13.3951 0.869451 13.2872 0.869826C13.2202 0.871765 13.1544 0.886876 13.0933 0.914295C13.0322 0.941715 12.9771 0.980904 12.9312 1.02962C12.8852 1.07834 12.8493 1.13564 12.8255 1.19823C12.8018 1.26083 12.7906 1.3275 12.7926 1.39443L12.6427 10.2977C12.6427 10.9572 12.4328 12.0514 12.4178 12.9807C12.3928 13.4622 12.4537 13.9444 12.5977 14.4046C12.6883 14.6295 12.8242 14.8334 12.997 15.0036C13.1698 15.1739 13.3757 15.3066 13.6019 15.3939ZM22.2354 3.55279C22.6492 4.04887 23.0109 4.58633 23.3146 5.1566C23.4264 5.42861 23.4922 5.71732 23.5095 6.01095L23.4195 5.99595C22.5724 5.83195 21.7167 5.71686 20.8564 5.65122C20.5411 5.60608 20.2365 5.50455 19.9572 5.35145C19.9572 5.09664 20.077 4.69194 20.077 4.40715V2.98323L19.987 1.69421C20.1969 1.69421 20.3767 1.6942 20.4517 1.54431C21.0825 2.18084 21.6778 2.85134 22.2354 3.55279ZM14.3963 2.05394L18.6981 1.66422L18.4732 2.93826C18.4732 3.05817 18.3084 3.5678 18.2034 4.15234C18.1465 4.59478 18.1165 5.04027 18.1135 5.48634C18.0955 5.74899 18.1375 6.01227 18.2362 6.25633C18.3349 6.5004 18.4876 6.71887 18.6831 6.89528C19.167 7.16454 19.7044 7.32323 20.2569 7.35993C21.2461 7.35993 22.2804 7.12011 23.2546 7.18006C23.3473 7.20889 23.4466 7.20889 23.5395 7.18006C23.5395 8.31919 23.3745 9.5183 23.3745 10.1778C23.4321 10.8811 23.4321 11.5879 23.3745 12.2912C23.0748 14.6444 22.0105 13.4753 21.0513 13.5203C19.3875 13.6252 18.4882 13.895 17.2591 14.0149C16.7601 14.0477 16.2594 14.0477 15.7603 14.0149C15.3736 14.0228 14.987 13.9927 14.6062 13.925C14.4713 13.925 14.3214 13.7151 14.2464 13.7901C14.149 13.4288 14.1086 13.0546 14.1265 12.6809C14.1265 11.8266 14.2315 10.9122 14.2015 10.3427L13.8268 1.67922C13.8804 1.78078 13.9635 1.86377 14.0652 1.91727C14.1668 1.97076 14.2822 1.99229 14.3963 1.97899V2.05394Z" fill="#00A3E2"/>
<path fill-rule="evenodd" clip-rule="evenodd" d="M32.7125 28.7038C32.5083 28.4871 32.2704 28.3048 32.0081 28.1643C31.7994 28.0764 31.5839 28.0062 31.3635 27.9544C31.889 27.4708 32.2632 26.8456 32.4414 26.1543C32.6196 25.4628 32.5941 24.7345 32.3678 24.0573C32.1066 23.2186 31.5999 22.4776 30.9134 21.9298C30.2267 21.382 29.3915 21.0528 28.5158 20.9847C27.7182 20.9265 26.9276 21.1668 26.2974 21.6591C25.4823 22.3429 24.9486 23.3038 24.7985 24.3571C24.66 24.951 24.6906 25.5717 24.8867 26.1492C25.0826 26.7267 25.4363 27.2377 25.9077 27.6246C25.5188 27.7164 25.1417 27.8521 24.7835 28.0293C24.5388 28.1703 24.3165 28.3471 24.1241 28.554C23.9325 28.7689 23.7666 29.0053 23.6294 29.2584C23.3241 29.8354 23.1356 30.4669 23.0748 31.117C22.806 30.7863 22.4933 30.4939 22.1456 30.2476C21.783 30.0252 21.4019 29.8345 21.0063 29.6781C21.497 29.1228 21.8306 28.4467 21.9728 27.7195C22.1151 26.9923 22.0608 26.2404 21.8157 25.5412C21.4284 24.4156 20.6211 23.4831 19.5626 22.9384C18.5042 22.3939 17.2761 22.2792 16.1351 22.6183C15.4091 22.845 14.7524 23.2521 14.2265 23.8014C13.7006 24.3508 13.3226 25.0246 13.1279 25.7599C12.9333 26.4951 12.9283 27.2677 13.1134 28.0053C13.2986 28.743 13.6678 29.4217 14.1865 29.9778C13.9767 30.0678 13.7519 30.1428 13.557 30.2476C13.1942 30.475 12.8575 30.7413 12.5528 31.042C12.5528 31.132 12.4328 31.2369 12.3579 31.3119C12.2843 30.6442 12.0806 29.9976 11.7584 29.4082C11.6086 29.1478 11.4218 28.9105 11.2038 28.7038C11.0041 28.4988 10.7771 28.3222 10.5293 28.1791C10.3089 28.0956 10.0837 28.0255 9.8548 27.9694C10.383 27.4845 10.7591 26.8567 10.9374 26.1624C11.1156 25.4679 11.0884 24.7366 10.859 24.0573C10.5895 23.2414 10.0866 22.5226 9.41252 21.9898C8.73848 21.4569 7.92293 21.1335 7.06689 21.0595C6.27393 21.0009 5.48775 21.2415 4.86356 21.7341C4.04402 22.4142 3.50923 23.3769 3.3647 24.432C3.22265 25.0258 3.25142 25.6477 3.44768 26.2258C3.64394 26.8041 3.99968 27.315 4.47386 27.6996C4.0796 27.7963 3.69749 27.937 3.33472 28.1193C3.09277 28.2702 2.87113 28.4515 2.67521 28.6588C2.48372 28.8738 2.31775 29.1102 2.18059 29.3632C1.85105 29.9262 1.63228 30.5469 1.53608 31.1919C1.51288 31.2637 1.50419 31.3395 1.51052 31.4146C1.51685 31.4899 1.53806 31.5631 1.57294 31.63C1.6078 31.6969 1.65562 31.7563 1.71362 31.8046C1.77163 31.8529 1.83865 31.8892 1.9108 31.9114C2.05594 31.9594 2.21411 31.9486 2.35139 31.8813C2.48869 31.8141 2.59417 31.6957 2.64524 31.5516C2.78389 31.2948 2.94971 31.0536 3.13987 30.8322C3.32851 30.6262 3.52867 30.4309 3.73942 30.2476L4.294 29.6631C4.65904 29.1885 5.0599 28.7425 5.49308 28.3291C5.58911 28.2763 5.66343 28.1914 5.70293 28.0893H5.95774C6.0944 28.0933 6.22727 28.044 6.32805 27.9516C6.42884 27.8592 6.48958 27.7311 6.49733 27.5946C6.49019 27.4737 6.43895 27.3597 6.35331 27.274C6.26766 27.1884 6.15359 27.1371 6.03267 27.13C4.74365 26.9652 4.53382 25.7811 4.81859 24.7318C5.10338 23.6826 5.82284 22.8282 6.88703 22.9632C7.38387 22.9959 7.86059 23.172 8.25958 23.4699C8.65855 23.7678 8.96272 24.1749 9.13533 24.6418C9.34966 25.1044 9.39811 25.6267 9.27253 26.1208C9.14696 26.6149 8.85503 27.0507 8.44586 27.3549C8.25641 27.5022 8.03606 27.6046 7.80134 27.6546C7.5098 27.7156 7.21427 27.7557 6.91702 27.7744C6.7646 27.7822 6.62127 27.8493 6.51765 27.9613C6.41402 28.0734 6.35833 28.2214 6.36243 28.374C6.36433 28.4502 6.38147 28.5252 6.41283 28.5945C6.4442 28.6639 6.48917 28.7263 6.54506 28.7779C6.60095 28.8297 6.66665 28.8696 6.73826 28.8955C6.80987 28.9215 6.88594 28.9327 6.96197 28.9287C7.3937 28.9504 7.82648 28.9201 8.25101 28.8387H8.46085C8.85055 29.1834 9.16531 29.5582 9.49507 29.8879L10.0946 30.4875C10.315 30.6706 10.5251 30.8658 10.7241 31.072C10.9207 31.2972 11.0916 31.5435 11.2337 31.8064C11.2712 31.9158 11.342 32.0107 11.436 32.0779C11.5301 32.1451 11.6428 32.1811 11.7584 32.1811C11.2834 33.0094 10.9682 33.9195 10.8291 34.8642C10.7939 34.9402 10.7756 35.023 10.7753 35.1069C10.775 35.1907 10.7927 35.2735 10.8272 35.3499C10.8618 35.4264 10.9124 35.4943 10.9755 35.5495C11.0387 35.6046 11.1129 35.6454 11.1933 35.6694C11.2736 35.6932 11.3582 35.6995 11.4412 35.6878C11.5242 35.6763 11.6037 35.6469 11.6743 35.6017C11.745 35.5567 11.8051 35.4969 11.8506 35.4265C11.8962 35.3562 11.9261 35.2768 11.9382 35.1939C12.4088 34.1788 13.0821 33.2709 13.9167 32.526L14.6212 31.8664C14.9837 31.5346 15.3693 31.2291 15.7754 30.952C15.8253 30.9547 15.8753 30.9547 15.9252 30.952C16.6937 31.0873 17.48 31.0873 18.2484 30.952C18.2925 30.9651 18.3393 30.9651 18.3834 30.952C18.4583 31.0591 18.567 31.1379 18.692 31.176C18.8169 31.2139 18.951 31.209 19.0728 31.1619C19.2924 31.06 19.503 30.9397 19.7024 30.8022C20.148 31.1364 20.5736 31.4967 20.9765 31.8814C21.2162 32.1213 21.426 32.361 21.6209 32.5858C22.3691 33.4648 22.9346 34.4838 23.2847 35.5836C23.3069 35.6577 23.3436 35.7265 23.3927 35.7864C23.4417 35.8461 23.5022 35.8956 23.5706 35.9319C23.6388 35.968 23.7137 35.9904 23.7906 35.9976C23.8677 36.0046 23.9453 35.9964 24.0191 35.9733C24.1652 35.9343 24.291 35.8416 24.3716 35.7138C24.4523 35.586 24.4815 35.4324 24.4538 35.2839C24.3854 34.3066 24.1836 33.3435 23.8542 32.421C23.7639 32.233 23.6586 32.0526 23.5395 31.8814C23.6744 31.9117 23.8157 31.8919 23.9369 31.8256C24.0582 31.7595 24.1514 31.6515 24.1989 31.5217C24.3465 31.2667 24.5171 31.026 24.7086 30.8022C24.8735 30.5923 25.0983 30.4425 25.2932 30.2326C25.488 30.0228 25.6679 29.8729 25.8477 29.6631C26.2131 29.1934 26.6141 28.7524 27.0468 28.3441C27.1503 28.2966 27.231 28.2105 27.2717 28.1043H27.5265C27.6617 28.1043 27.7913 28.0506 27.8868 27.955C27.9824 27.8595 28.0361 27.7297 28.0361 27.5946C28.0361 27.4594 27.9824 27.3298 27.8868 27.2343C27.7913 27.1387 27.6617 27.085 27.5265 27.085C26.2524 26.9202 26.0276 25.7361 26.3124 24.6868C26.5971 23.6376 27.3317 22.7833 28.3958 22.9182C28.8906 22.9519 29.3649 23.1285 29.7614 23.4265C30.1577 23.7244 30.4592 24.1311 30.6291 24.5968C30.8633 25.0564 30.9299 25.5831 30.8177 26.0863C30.7056 26.5897 30.4217 27.0382 30.0146 27.3549C29.8181 27.4996 29.5934 27.6016 29.355 27.6546C29.0687 27.7158 28.7781 27.7558 28.4858 27.7744C28.3334 27.7822 28.19 27.8493 28.0863 27.9613C27.9828 28.0734 27.927 28.2214 27.9312 28.374C27.9311 28.4494 27.9464 28.5241 27.9761 28.5934C28.0058 28.6627 28.0493 28.7253 28.104 28.7772C28.1588 28.8291 28.2234 28.8693 28.2942 28.8954C28.365 28.9213 28.4405 28.9327 28.5158 28.9287C28.9524 28.9504 29.3901 28.9203 29.8197 28.8387H30.0296C30.4193 29.1834 30.734 29.5432 31.0638 29.8729C31.3935 30.2026 31.4685 30.2626 31.6634 30.4575C31.8582 30.6523 32.0981 30.8172 32.2929 31.042C32.483 31.2669 32.6535 31.5075 32.8025 31.7614C32.823 31.8349 32.8583 31.9036 32.9058 31.9632C32.9534 32.0229 33.0126 32.0724 33.0797 32.1087C33.1467 32.1451 33.2205 32.1676 33.2964 32.1748C33.3725 32.1822 33.4491 32.1741 33.5219 32.1511C33.6681 32.1061 33.7908 32.0055 33.8637 31.8711C33.9365 31.7365 33.9537 31.5789 33.9116 31.4317C33.8396 30.7455 33.6252 30.0819 33.2822 29.4832C33.1341 29.1952 32.942 28.9323 32.7125 28.7038ZM15.3407 29.2134C15.0401 28.8313 14.8424 28.3786 14.7663 27.8985C14.6902 27.4183 14.7383 26.9268 14.906 26.4705C15.0096 26.0308 15.2258 25.6255 15.5333 25.2945C15.8406 24.9634 16.2288 24.7179 16.6596 24.582C17.3567 24.3324 18.1229 24.3597 18.8004 24.658C19.478 24.9564 20.0153 25.5031 20.3019 26.1856C21.9956 30.2326 16.3299 30.3076 15.3407 29.2134Z" fill="#2B2A29"/>
<path fill-rule="evenodd" clip-rule="evenodd" d="M3.79941 19.6806C4.02423 19.6806 4.09918 19.8905 5.1184 17.6721C5.2533 17.3874 5.35822 17.0726 5.46315 16.7879C6.15262 14.9892 6.37746 14.8992 6.03271 14.5545C5.35822 13.9549 3.91932 15.8286 3.90432 15.8735C3.74136 16.0803 3.60537 16.307 3.49963 16.548C3.39729 16.7939 3.32191 17.0502 3.2748 17.3124C3.18487 17.7621 3.10992 19.6206 3.79941 19.6806Z" fill="#2B2A29"/>
<path fill-rule="evenodd" clip-rule="evenodd" d="M34.2264 16.488C34.1264 16.2472 33.9954 16.0204 33.8367 15.8136C33.8367 15.8136 32.3379 13.895 31.7084 14.4945C31.3337 14.8393 31.5435 14.9592 32.2329 16.7278C32.3528 17.0127 32.4577 17.3274 32.5776 17.6122C33.6118 19.8304 33.6718 19.6356 33.9117 19.6207C34.6011 19.6207 34.5113 17.7021 34.4513 17.2524C34.4106 16.9888 34.335 16.7317 34.2264 16.488Z" fill="#2B2A29"/>
<path fill-rule="evenodd" clip-rule="evenodd" d="M9.03039 13.0706C9.17341 13.0052 9.30907 12.9248 9.43509 12.8308C9.56746 12.7527 9.6885 12.6569 9.79482 12.546C10.9339 11.5417 11.1438 11.4668 10.9789 11.0471C10.9789 10.8822 10.7391 10.3276 8.88051 10.9722C8.69604 11.0357 8.51989 11.1213 8.3559 11.227C8.19799 11.3302 8.05219 11.4509 7.92123 11.5867C7.68141 11.8565 6.79708 13.0856 7.15681 13.4453C7.29171 13.5652 7.38163 13.82 9.03039 13.0706Z" fill="#2B2A29"/>
<path fill-rule="evenodd" clip-rule="evenodd" d="M27.8862 12.546C27.9987 12.65 28.1188 12.7452 28.2459 12.8308C28.3771 12.925 28.5178 13.0054 28.6656 13.0706C30.3294 13.82 30.4192 13.5652 30.5392 13.4303C30.8989 13.0406 29.9995 11.8415 29.7747 11.5717C29.6385 11.4358 29.4876 11.3152 29.3251 11.212C29.1627 11.1034 28.9863 11.0177 28.8004 10.9572C26.9569 10.3127 26.7621 10.8673 26.7021 11.0322C26.5522 11.4668 26.7621 11.5418 27.8862 12.546Z" fill="#2B2A29"/>
</g>
<defs>
<clipPath id="clip0_2573_5433">
<rect width="36" height="36" fill="white"/>
</clipPath>
</defs>
</svg>
