<svg width="36" height="36" viewBox="0 0 36 36" fill="none" xmlns="http://www.w3.org/2000/svg">
<g clip-path="url(#clip0_3109_7784)">
<g clip-path="url(#clip1_3109_7784)">
<path d="M18.5 0.359985C4.92072 0.359381 -3.5662 15.059 3.22292 26.8193C10.012 38.5796 26.9861 38.5804 33.7763 26.8207C35.3248 24.1389 36.14 21.0967 36.14 18C36.1286 8.26242 28.2376 0.371418 18.5 0.359985ZM18.5 33.5647C6.51829 33.5652 -0.970179 20.595 5.02022 10.2182C11.0106 -0.158499 25.9878 -0.159174 31.9791 10.217C33.3454 12.5833 34.0647 15.2676 34.0647 18C34.0552 26.5922 27.0922 33.5551 18.5 33.5647ZM26.3377 8.77012L15.2695 14.3042C15.068 14.4047 14.9048 14.568 14.8042 14.7695L9.27013 25.8377C8.92564 26.5277 9.42759 27.339 10.1988 27.3388C10.3596 27.3385 10.5182 27.3012 10.6623 27.2299L21.7305 21.6957C21.932 21.5952 22.0952 21.432 22.1958 21.2305L27.7299 10.1623C28.0871 9.44786 27.537 8.61459 26.7397 8.6624C26.5998 8.67078 26.463 8.70743 26.3377 8.77012ZM20.494 19.994L12.5197 23.9803L16.4973 16.006L24.4717 12.0283L20.494 19.994Z" fill="black"/>
</g>
</g>
<defs>
<clipPath id="clip0_3109_7784">
<rect width="36" height="36" fill="white"/>
</clipPath>
<clipPath id="clip1_3109_7784">
<rect width="36" height="36" fill="white" transform="translate(0.5)"/>
</clipPath>
</defs>
</svg>
