<svg width="36" height="36" viewBox="0 0 36 36" fill="none" xmlns="http://www.w3.org/2000/svg">
<g clip-path="url(#clip0_2573_1819)">
<path fill-rule="evenodd" clip-rule="evenodd" d="M35.9827 26.0371C35.9827 25.0176 36.0727 23.5332 35.1132 23.0385C33.1789 21.9739 28.3362 21.9139 26.5219 23.0385C25.5174 23.6832 25.6972 25.1976 25.4124 26.0371C25.3075 26.352 13.1479 26.5768 10.9139 25.9171C9.53448 25.5124 10.494 24.013 8.99472 23.1435C8.23005 22.6936 1.88785 23.1435 1.25814 23.2633C-1.26074 23.908 0.643413 30.76 1.46805 33.189C1.47751 33.2563 1.50162 33.3207 1.53867 33.3777C1.57572 33.4347 1.62481 33.4828 1.6825 33.5187C1.74018 33.5547 1.80504 33.5775 1.87251 33.5857C1.93998 33.5938 2.00842 33.5871 2.07301 33.5659C2.13759 33.5448 2.19675 33.5097 2.24632 33.4632C2.29588 33.4167 2.33464 33.36 2.35989 33.2968C2.38512 33.2337 2.3962 33.1659 2.39236 33.0979C2.38852 33.0301 2.36985 32.964 2.33766 32.9041C1.75291 31.0749 0.673399 26.6068 1.21316 24.8227C1.21316 24.5977 1.3481 24.4179 1.52802 24.3729C3.64737 24.1974 5.77575 24.1573 7.9002 24.2529C8.11011 24.2529 8.335 24.3879 8.37999 24.3279C8.97972 24.8227 8.37999 26.6368 10.4641 27.3265C12.5481 28.0162 24.7677 28.3461 26.1921 27.6114C27.0766 27.1467 27.1816 26.1121 27.3166 25.1376C27.3166 24.8976 27.6315 24.6127 27.4965 24.4929C28.5405 24.0643 29.6697 23.8846 30.795 23.968C31.8973 24.0465 32.9938 24.1917 34.0786 24.4029C34.4835 24.163 34.1985 25.9021 34.2285 26.1871C34.3185 27.3715 34.0486 32.1844 33.1041 32.9941C32.1594 33.8037 22.6087 34.1035 21.2892 34.1335C2.83243 34.5834 2.29269 33.3838 2.11276 34.3884C2.09985 34.4554 2.10054 34.5244 2.11479 34.5912C2.12904 34.6579 2.15656 34.7212 2.19571 34.7772C2.23486 34.8331 2.28486 34.8807 2.34273 34.9168C2.4006 34.9531 2.46516 34.9774 2.53257 34.9882C3.67207 35.2131 31.3048 36.4875 34.1236 34.2835C35.7429 33.009 36.0877 27.8514 35.9827 26.0371Z" fill="#2B2A29"/>
<path fill-rule="evenodd" clip-rule="evenodd" d="M10.1941 16.0217C10.5989 18.2406 15.5318 23.6232 17.9457 23.9681C20.3597 24.3129 24.9026 17.3411 24.7827 15.9017C24.6627 14.4623 23.0135 14.4923 21.6941 14.1174C21.5486 14.0511 21.3981 13.9959 21.2442 13.9525C21.2442 13.8326 20.9894 10.3691 20.9894 10.519C20.7794 8.22505 19.49 3.26224 19.4 1.02823C19.4 0.891038 19.3455 0.759467 19.2485 0.662461C19.1516 0.565453 19.02 0.510955 18.8828 0.510955C18.7455 0.510955 18.614 0.565453 18.5171 0.662461C18.42 0.759467 18.3656 0.891038 18.3656 1.02823C18.3656 3.41218 19.52 8.3 19.655 10.624C19.767 11.75 19.8221 12.8809 19.8198 14.0125C19.9248 15.3768 20.7644 15.317 21.3192 15.5118C21.8739 15.7067 22.8185 15.7967 23.2383 15.9617C22.5308 17.534 21.5963 18.9939 20.4645 20.2947C20.1047 20.7296 18.7253 22.2588 18.2306 22.1988C16.4313 21.944 12.2332 17.0711 11.9783 15.9017L15.2619 15.182C15.6612 14.9368 15.9471 14.5431 16.0565 14.0875C16.3115 13.3228 17.5559 0.983246 17.5559 0.878293C17.4209 0.263564 16.8362 0.368518 16.6113 0.758345C16.5006 1.00547 16.4105 1.26121 16.3413 1.523C15.3218 9.52946 14.932 12.6181 14.842 13.1878C14.842 13.4727 14.4522 13.7276 14.5572 13.8925C13.1778 14.3273 9.81926 13.9225 10.1941 16.0217Z" fill="#00A3E2"/>
<path fill-rule="evenodd" clip-rule="evenodd" d="M0.898335 22.2588C0.957075 22.2981 1.02354 22.3242 1.09324 22.3356C1.16295 22.347 1.2343 22.3434 1.30248 22.3249C1.37066 22.3065 1.43409 22.2736 1.48852 22.2286C1.54294 22.1836 1.5871 22.1274 1.61802 22.0639C1.87167 21.6076 2.08731 21.1312 2.26273 20.6395C4.01695 17.116 3.76207 17.9107 4.39179 16.4263C4.79359 15.2413 5.45431 14.1606 6.32593 13.2628C7.90438 12.6765 9.55256 12.2984 11.2288 12.1383C11.3659 12.1383 11.4975 12.0838 11.5945 11.9868C11.6915 11.8898 11.746 11.7582 11.746 11.621C11.746 11.4838 11.6915 11.3523 11.5945 11.2553C11.4975 11.1583 11.3659 11.1038 11.2288 11.1038C9.24159 11.0708 7.26357 11.3802 5.38135 12.0184C3.46219 13.3078 2.68254 15.9016 1.22819 20.3097C1.03327 20.7745 0.478521 21.8689 0.898335 22.2588Z" fill="#2B2A29"/>
<path fill-rule="evenodd" clip-rule="evenodd" d="M26.9868 11.5835C27.8976 11.6177 28.7936 11.8264 29.6256 12.1982C30.6452 13.0379 32.9543 20.0098 33.2991 21.6891C33.3404 21.8062 33.422 21.9049 33.5294 21.9675C33.6366 22.0302 33.7628 22.0527 33.885 22.0311C34.0074 22.0095 34.1181 21.9451 34.1975 21.8496C34.277 21.754 34.3199 21.6333 34.3187 21.5091C34.0037 18.8553 32.8193 12.4231 30.6152 10.8938C29.5026 10.3739 28.262 10.1914 27.0468 10.369C26.837 10.369 22.9986 10.369 22.9386 11.0138C22.8786 11.6585 24.8129 11.3286 26.9868 11.5835Z" fill="#2B2A29"/>
</g>
<defs>
<clipPath id="clip0_2573_1819">
<rect width="36" height="36" fill="white"/>
</clipPath>
</defs>
</svg>
