<svg width="36" height="36" viewBox="0 0 36 36" fill="none" xmlns="http://www.w3.org/2000/svg">
<g clip-path="url(#clip0_2573_1798)">
<path fill-rule="evenodd" clip-rule="evenodd" d="M35.9346 4.85016C35.7405 4.11993 35.3752 3.44645 34.8691 2.88548C34.3629 2.32451 33.7303 1.89221 33.0238 1.62438C31.6899 1.04207 30.1866 0.97788 28.8078 1.44434C28.2436 1.67906 27.7332 2.02619 27.3075 2.46459C26.6809 3.08252 26.1726 3.80961 25.807 4.61012C25.6014 5.0082 25.45 5.43209 25.357 5.87042C25.3234 5.9957 25.339 6.12903 25.4004 6.2433C25.4616 6.35757 25.5642 6.4442 25.687 6.48557C25.7431 6.50703 25.803 6.51705 25.863 6.51504C25.923 6.51303 25.9821 6.49903 26.0365 6.47387C26.0911 6.44869 26.14 6.41287 26.1805 6.36851C26.221 6.32413 26.2521 6.2721 26.2722 6.21551L26.7373 5.12024C27.0408 4.5702 27.4195 4.06521 27.8626 3.61986C28.2658 3.2427 28.7551 2.96973 29.2879 2.82468C30.3033 2.60451 31.3635 2.74235 32.2887 3.21477C32.7687 3.36221 33.2088 3.61724 33.5754 3.96044C33.942 4.30364 34.2255 4.72596 34.4041 5.19525C34.63 5.96502 34.6711 6.7772 34.5243 7.56582C34.3689 8.3627 34.1064 9.13488 33.744 9.86139L33.549 9.75636C31.9585 8.94617 28.1776 7.0407 27.0223 6.39555C26.9008 6.33119 26.7588 6.31713 26.627 6.35641C26.495 6.3957 26.3838 6.48518 26.3172 6.6056C26.2528 6.72721 26.2387 6.86924 26.278 7.00111C26.3173 7.133 26.4069 7.24418 26.5273 7.31076L33.1889 10.9416C33.0539 11.2417 32.8288 11.6918 32.5437 12.247C30.7133 15.8778 26.3322 24.0398 24.7719 26.7555C24.1383 26.1275 23.4559 25.5504 22.7313 25.0301C22.3713 24.7901 21.9811 24.5499 21.6061 24.3399C21.2139 24.1322 20.8078 23.9517 20.3908 23.7998C19.6222 23.5154 18.8286 23.3043 18.0202 23.1696C18.0666 22.9853 18.1267 22.8048 18.2002 22.6295C19.5805 19.4337 23.1814 12.382 24.8319 9.12621C25.2069 8.40603 25.477 7.88091 25.597 7.62584C25.8972 7.0557 24.9819 6.90567 24.9669 6.92067C24.5878 7.47158 24.2566 8.05383 23.9766 8.66109C22.1611 11.9469 18.2602 18.8486 16.7749 21.9993C16.4296 22.6002 16.2054 23.2628 16.1148 23.9498C16.2198 24.5799 16.8799 29.036 17.3151 30.8214C17.3938 31.2984 17.6194 31.739 17.9602 32.0817C18.2332 32.2386 18.5463 32.3115 18.8604 32.2919C19.5529 32.2065 20.2269 32.0088 20.8558 31.7067C22.5277 30.9335 24.0792 29.9228 25.4621 28.706C25.8371 28.2858 30.3532 19.5987 32.8288 14.4975C33.564 12.9972 34.1192 11.8119 34.3292 11.2417C34.8756 10.1105 35.3418 8.94239 35.7244 7.74587C35.9964 6.80597 36.0679 5.81946 35.9346 4.85016ZM19.2355 30.5214H19.0104C19.0104 30.5214 17.9902 25.5702 17.7501 24.2349C18.4552 24.5799 19.2505 25.0451 20.0157 25.4952C20.4808 25.7652 20.976 26.0054 21.516 26.2604C22.0561 26.5154 22.5213 26.7255 23.0164 26.9805L24.1867 27.6857C23.3371 28.389 22.417 29.0025 21.441 29.5161C20.7436 29.9286 20.0043 30.2655 19.2355 30.5214Z" fill="#2B2A29"/>
<path fill-rule="evenodd" clip-rule="evenodd" d="M18.0204 33.7771C17.1007 33.5823 16.1938 33.3318 15.3047 33.027C14.7457 32.838 14.2077 32.5915 13.6993 32.2918C13.2758 32.049 12.9636 31.6507 12.8291 31.1815C12.7864 30.5185 12.8836 29.854 13.1142 29.2311C13.4197 28.3105 13.4197 27.3159 13.1142 26.3953C12.86 25.8696 12.4448 25.4386 11.9289 25.165C11.2965 24.8109 10.5956 24.5961 9.87339 24.5349C8.58018 24.5127 7.28808 24.6232 6.01746 24.865C4.12778 25.2492 2.26374 25.7503 0.4361 26.3653C0.367293 26.3697 0.300303 26.3892 0.239978 26.4225C0.179651 26.4559 0.127497 26.5023 0.0872907 26.5582C0.047084 26.6143 0.0198296 26.6785 0.00749939 26.7463C-0.00483072 26.8141 -0.00192802 26.8839 0.0159974 26.9505C0.0299757 27.0091 0.0555678 27.0642 0.0912578 27.1128C0.126948 27.1612 0.172009 27.2022 0.223775 27.2329C0.275541 27.2637 0.332956 27.2838 0.392622 27.2919C0.452287 27.3001 0.51299 27.2962 0.571133 27.2805C2.0715 26.9655 3.57186 26.6503 5.20726 26.4403C6.69774 26.2242 8.20846 26.1838 9.70836 26.3203C10.0795 26.3605 10.4403 26.4672 10.7736 26.6353C11.0437 26.7705 11.3288 26.9055 11.4188 27.1305C11.6031 27.7165 11.6031 28.345 11.4188 28.9309C11.1641 29.8036 11.1229 30.7248 11.2987 31.6167C11.4243 32.0322 11.6344 32.4172 11.9159 32.7477C12.1973 33.0781 12.544 33.3469 12.9341 33.5371C13.5608 33.8526 14.2198 34.099 14.8996 34.2723C15.8577 34.5237 16.8295 34.719 17.8104 34.8574C17.9454 34.8793 18.0837 34.8477 18.1957 34.7692C18.3078 34.6908 18.3849 34.5717 18.4104 34.4373C18.4306 34.3683 18.4365 34.2958 18.4275 34.2246C18.4186 34.1532 18.3951 34.0845 18.3587 34.0227C18.3221 33.9607 18.2731 33.907 18.215 33.8647C18.1567 33.8226 18.0906 33.7927 18.0204 33.7771Z" fill="#00A3E2"/>
</g>
<defs>
<clipPath id="clip0_2573_1798">
<rect width="36" height="36" fill="white"/>
</clipPath>
</defs>
</svg>
