<svg width="36" height="36" viewBox="0 0 36 36" fill="none" xmlns="http://www.w3.org/2000/svg">
<g clip-path="url(#clip0_2573_1809)">
<path d="M15.4582 18.7224C15.2331 18.5572 15.0529 18.5722 14.2722 18.9475C13.4915 19.323 12.4105 19.9534 10.2336 21.0945C10.1694 21.1248 10.112 21.1678 10.0649 21.2209C10.0178 21.274 9.98191 21.3361 9.95947 21.4035C9.93702 21.4708 9.92845 21.5421 9.93427 21.6127C9.94011 21.6835 9.96021 21.7524 9.99337 21.8151C10.0221 21.8788 10.0637 21.936 10.1154 21.9829C10.1671 22.0299 10.2279 22.0657 10.2941 22.0882C10.3602 22.1107 10.4303 22.1194 10.5 22.1139C10.5696 22.1082 10.6374 22.0882 10.699 22.0554C12.2003 21.3648 13.3564 20.8393 14.077 20.554C13.8068 21.4398 13.3564 22.716 12.8459 23.962C12.4408 24.9924 11.9694 25.9953 11.4347 26.9647C11.2877 27.2833 11.0784 27.5691 10.8191 27.8055H10.6239L10.0534 27.7153C9.51294 27.5803 8.97246 27.3852 8.6722 27.295L2.44165 25.3432L4.43842 24.4875C4.55776 24.4435 4.6548 24.3541 4.70827 24.2386C4.76175 24.1233 4.76728 23.9914 4.72368 23.872C4.70202 23.8147 4.6693 23.7624 4.62739 23.7178C4.58547 23.6733 4.53519 23.6374 4.47942 23.6124C4.42365 23.5873 4.36348 23.5734 4.30234 23.5716C4.24122 23.5698 4.18032 23.58 4.12314 23.6017C3.16228 23.932 0.339777 24.9829 0.30975 24.9979C0.193947 25.042 0.0996217 25.129 0.0464685 25.2409C-0.00668481 25.3528 -0.0145571 25.4809 0.0244954 25.5985C0.302698 26.4586 0.523381 27.3364 0.685084 28.2258C0.955324 29.5921 1.1505 30.9583 1.3757 32.3245C1.42938 32.9845 1.5196 33.6412 1.64593 34.2913C1.73622 34.7404 1.98048 35.1439 2.33655 35.4322C2.69074 35.6539 3.10558 35.7591 3.52261 35.7325C4.17285 35.6532 4.81231 35.5021 5.42931 35.2821C6.45022 34.9819 7.47112 34.6516 8.43198 34.3063C9.39283 33.961 10.4288 33.5856 11.4347 33.2103C12.936 32.6398 14.0019 32.2044 15.1879 31.7089C15.9387 31.3786 16.6893 31.0183 17.6352 30.5679C18.378 30.2386 19.0507 29.7697 19.617 29.1867C19.9455 28.8151 20.1175 28.3311 20.0974 27.8355C19.7136 26.1591 19.0917 24.5463 18.2508 23.0463C17.5374 21.4755 16.5964 20.0185 15.4582 18.7224ZM18.0405 28.4211C17.6842 28.668 17.3016 28.8745 16.8996 29.0365L10.729 31.5138L4.8588 33.6907C4.55853 33.7959 4.13815 33.991 3.73279 34.096C3.32743 34.2012 3.08722 34.5165 2.93709 33.4204C2.81698 32.88 2.75692 32.3095 2.71189 32.0542C2.38159 30.703 2.11135 29.3368 1.75104 27.9856C1.61577 27.4168 1.45039 26.8555 1.25559 26.3041C2.11135 26.6494 3.61269 27.265 5.11402 27.8055C6.27006 28.2409 7.39606 28.6612 8.20678 28.9315C8.91112 29.2021 9.64024 29.4033 10.3837 29.532C10.8967 29.6364 11.4302 29.551 11.8851 29.2918C12.9062 28.2229 13.6577 26.9259 14.077 25.5084C14.6893 23.9185 15.1909 22.2882 15.5784 20.629C16.0287 21.3948 16.5693 22.5058 17.0798 23.6317C17.7771 24.9916 18.2823 26.4418 18.5811 27.9406C18.5209 28.1358 18.2658 28.2709 18.0405 28.4211Z" fill="#00A3E2"/>
<path d="M23.2352 2.83825C23.5647 3.37712 23.6774 4.02107 23.5505 4.63985C23.5505 4.82002 22.8899 5.67578 22.7397 6.06613C22.6809 6.19051 22.6503 6.32639 22.6503 6.46397C22.6503 6.60157 22.6809 6.73745 22.7397 6.86183C22.8639 7.08925 23.045 7.28062 23.2652 7.41733C23.5355 7.59749 23.8958 7.68757 24.1209 7.8377C24.5669 8.13631 24.9453 8.52499 25.232 8.97872C25.3658 9.14485 25.4541 9.34291 25.4883 9.55346C25.5225 9.764 25.5014 9.97984 25.4271 10.1798C25.3314 10.3609 25.2044 10.5236 25.0518 10.6602C24.8804 10.8004 24.6941 10.9213 24.4962 11.0205C24.2721 11.094 24.0558 11.1895 23.8506 11.3058C23.7668 11.353 23.6937 11.4176 23.6369 11.4953C23.5799 11.5729 23.5401 11.6619 23.5203 11.7562C23.5085 11.9084 23.5277 12.0613 23.5767 12.2059C23.6256 12.3504 23.7036 12.4835 23.8056 12.5969C24.1209 12.9873 24.7665 13.4827 24.8867 13.798C24.9729 14.0092 25.0031 14.2391 24.9741 14.4653C24.9452 14.6916 24.8582 14.9065 24.7215 15.0891C24.1176 15.7331 23.3865 16.2443 22.5746 16.5905C22.5189 16.6176 22.4693 16.6556 22.4285 16.7022C22.3877 16.7487 22.3566 16.8029 22.337 16.8617C22.3175 16.9203 22.3098 16.9824 22.3145 17.0441C22.3191 17.1059 22.3361 17.166 22.3644 17.2211C22.4222 17.3345 22.5227 17.4203 22.6437 17.4597C22.7648 17.4992 22.8965 17.489 23.0099 17.4312C23.9591 17.0588 24.8223 16.4969 25.5471 15.7797C25.8074 15.4673 25.9794 15.0911 26.0454 14.6898C26.1113 14.2886 26.069 13.8771 25.9226 13.4977C25.7639 12.9593 25.5152 12.4517 25.1868 11.9964C25.4229 11.883 25.6448 11.7419 25.8474 11.576C26.1309 11.3561 26.366 11.0801 26.538 10.7653C26.7014 10.4471 26.7866 10.0946 26.7866 9.7369C26.7866 9.37922 26.7014 9.02668 26.538 8.70848C26.1713 7.87255 25.5849 7.15145 24.8415 6.62162L24.4062 6.38141C24.6498 5.9786 24.8367 5.54413 24.9617 5.09026C25.1255 4.48169 25.1567 3.84503 25.0532 3.22337C24.9495 2.60171 24.7136 2.00957 24.3611 1.48705C24.092 1.09231 23.7249 0.774143 23.2961 0.563628C22.8671 0.353114 22.391 0.257448 21.914 0.285977C21.3365 0.305321 20.7744 0.476481 20.2841 0.78222C19.7939 1.08796 19.3929 1.51748 19.1214 2.02753C18.6233 3.30193 18.2853 4.63331 18.1155 5.99105C17.8317 7.28987 17.3933 8.54998 16.8095 9.7444C16.254 10.9081 15.485 11.9572 14.5424 12.8372C14.2721 13.0774 13.6566 13.6779 13.041 14.2184C12.7524 14.4654 12.4464 14.6912 12.1252 14.894C11.4746 14.2141 10.7494 13.6098 9.96329 13.0924C10.1585 11.6778 10.1585 10.2431 9.96329 8.82859C9.79108 7.74838 9.3752 6.72154 8.74721 5.82592C8.28181 5.19535 7.24588 4.39964 6.64534 3.51385C6.49871 3.36613 6.38951 3.18551 6.32684 2.98703C6.26416 2.78855 6.24983 2.57797 6.28502 2.37284C6.3173 2.30098 6.3673 2.23849 6.43031 2.19122C6.49334 2.14396 6.56732 2.11346 6.64534 2.10259C6.96026 2.00099 7.29053 1.95527 7.62121 1.96747C8.3413 1.96417 9.05345 2.11787 9.70807 2.41787C9.90325 2.53798 9.93328 2.76319 10.0083 2.92834C10.0889 3.14045 10.1948 3.34208 10.3236 3.52886C10.3981 3.63331 10.4894 3.72464 10.5939 3.7991C10.7725 3.93515 10.9858 4.01837 11.2094 4.03931C11.6066 4.04332 12.0034 4.01317 12.3955 3.94924C12.7141 3.95234 13.0295 4.01339 13.3263 4.1294C13.6144 4.25096 13.8749 4.42973 14.092 4.65487C14.2126 4.80145 14.3043 4.96957 14.3622 5.1503C14.4286 5.33813 14.4592 5.53673 14.4523 5.73583C14.4523 5.84092 14.2871 6.24629 14.2721 6.50152C14.2537 6.60893 14.2575 6.71899 14.2833 6.82487C14.3091 6.93076 14.3564 7.03021 14.4223 7.11706C14.4712 7.16699 14.5296 7.20667 14.594 7.23374C14.6585 7.26083 14.7277 7.27478 14.7976 7.27478C14.8675 7.27478 14.9367 7.26083 15.0012 7.23374C15.0656 7.20667 15.1241 7.16699 15.173 7.11706C15.173 7.11706 15.4431 6.99695 15.5933 5.76586C15.6224 5.42788 15.5919 5.08741 15.5033 4.75996C15.3714 4.45684 15.1829 4.18166 14.9477 3.94924C14.6519 3.54605 14.2664 3.21712 13.8217 2.98838C13.0706 2.65603 12.2558 2.49205 11.4346 2.50796C11.3655 2.25826 11.2699 2.01667 11.1494 1.78732C11.0127 1.51277 10.8054 1.27959 10.5488 1.11171C9.46519 0.503048 8.23211 0.211689 6.99065 0.270963C6.44702 0.239804 5.90746 0.381288 5.44907 0.675197C4.99069 0.969104 4.63693 1.40039 4.43837 1.90742C4.32566 2.27837 4.29548 2.66948 4.34995 3.05333C4.40441 3.43717 4.5422 3.80446 4.75366 4.1294C5.57242 5.11751 6.47126 6.03644 7.44106 6.87685C7.99787 7.5364 8.40278 8.31035 8.62711 9.14387C8.89217 10.3052 8.99824 11.4971 8.94239 12.687C8.7908 12.6378 8.63501 12.6026 8.47697 12.5819C7.61818 12.4814 6.7478 12.5896 5.93971 12.8972C5.17114 13.1517 4.4968 13.6313 4.0042 14.2739C3.51161 14.9164 3.22349 15.6921 3.17725 16.5005C3.18824 17.214 3.36322 17.9156 3.68863 18.5508C4.01404 19.1861 4.48118 19.7379 5.05393 20.1638C5.04644 20.2737 5.04644 20.384 5.05393 20.4939C5.07337 20.8184 5.12363 21.1401 5.20406 21.4548L5.41424 22.3106C5.50733 22.8066 5.77333 23.2535 6.16492 23.5718C6.4952 23.7369 6.96062 23.7969 7.45607 23.1513L7.77134 22.6709L8.94239 21.0045C9.00659 20.8919 9.02824 20.76 9.00335 20.6328C8.97848 20.5056 8.90875 20.3916 8.80685 20.3117C8.70496 20.2316 8.5777 20.1908 8.44826 20.1968C8.31881 20.2026 8.1958 20.2548 8.10164 20.3439L6.84052 22.1304L6.72041 22.3106C6.67141 22.2353 6.63112 22.1547 6.60031 22.0704L6.42014 21.2447C6.42014 21.0345 6.42014 20.8092 6.33007 20.5841C6.30011 20.4051 6.30011 20.2226 6.33007 20.0436C6.33902 19.9421 6.32323 19.8398 6.284 19.7456C6.24478 19.6515 6.18331 19.5683 6.10486 19.5032C5.64832 19.1858 5.27399 18.7643 5.01289 18.2733C4.7518 17.7825 4.61146 17.2365 4.60352 16.6806C4.63498 16.16 4.82422 15.6614 5.14606 15.2511C5.4679 14.8407 5.90707 14.5381 6.40513 14.3835C6.99533 14.1679 7.62953 14.1009 8.25178 14.1884C8.83391 14.3159 9.36001 14.6263 9.75311 15.0741C9.96329 15.2994 10.4888 16.005 10.8941 16.3653C11.1161 16.5945 11.4053 16.7471 11.7199 16.8008C12.3539 16.7589 12.9585 16.5171 13.4464 16.11C14.2608 15.5064 15.0426 14.8599 15.7886 14.1733C16.8909 13.126 17.7827 11.8775 18.4158 10.4951C19.0839 9.18049 19.5882 7.78885 19.9172 6.35138C20.0366 5.14714 20.3039 3.96217 20.7129 2.82323C20.846 2.56492 21.0455 2.3467 21.2909 2.19103C21.5363 2.03534 21.8187 1.94782 22.1091 1.93745C22.5896 1.93745 22.9799 2.35783 23.2352 2.83825Z" fill="#2B2A29"/>
<path d="M35.9665 22.791C35.7597 21.2463 35.3613 19.7333 34.7805 18.287C34.6134 17.8191 34.3529 17.39 34.0148 17.0259C33.6821 16.751 33.2737 16.5834 32.8437 16.5455C32.118 16.5495 31.3959 16.6505 30.6969 16.8458C29.6574 17.1386 28.5988 17.3594 27.529 17.5064C26.8756 17.5607 26.2192 17.447 25.6222 17.1761C25.4959 17.1333 25.3583 17.139 25.2359 17.1917C25.1133 17.2445 25.0146 17.3406 24.9588 17.4617C24.9029 17.5827 24.8937 17.7203 24.933 17.8476C24.9724 17.9751 25.0575 18.0834 25.1719 18.152C25.9102 18.5294 26.7298 18.72 27.559 18.7074C28.6948 18.6254 29.8235 18.4649 30.9371 18.227C31.3679 18.1346 31.8042 18.0695 32.2433 18.0318C33.114 18.0318 33.054 18.3471 33.159 18.6173C33.4841 19.5504 33.7497 20.5032 33.9548 21.4698C34.6903 24.4725 33.9547 24.7128 32.6335 24.6077C30.907 24.4725 29.0754 23.4966 27.4689 23.6918C27.1594 23.727 26.8671 23.8524 26.6281 24.0522C26.3568 24.3659 26.106 24.6968 25.8775 25.0431C25.5183 25.4397 25.1321 25.8108 24.7215 26.154C24.3245 26.4993 23.8916 26.8013 23.4303 27.0548L21.764 27.7905C21.7053 27.8106 21.6514 27.8423 21.6052 27.8835C21.559 27.9248 21.5217 27.9749 21.4951 28.0308C21.4684 28.0868 21.4534 28.1474 21.4506 28.2093C21.4477 28.2711 21.4572 28.3329 21.4787 28.391C21.5165 28.5084 21.5994 28.6061 21.7092 28.6623C21.819 28.7187 21.9467 28.7291 22.0641 28.6913L23.8957 28.0157C24.426 27.7622 24.9291 27.4553 25.3971 27.0999C25.8821 26.7563 26.3388 26.3748 26.7633 25.9589C26.9688 25.7417 27.1595 25.511 27.3339 25.2683C27.3818 25.2024 27.4506 25.1549 27.529 25.1331C28.2949 25.1637 29.0484 25.3368 29.751 25.6436C30.6087 25.9808 31.4994 26.2272 32.4084 26.3792C33.3408 26.492 34.2844 26.2968 35.0958 25.8237C35.2929 25.6941 35.4623 25.5264 35.5938 25.3305C35.7252 25.1346 35.8163 24.9143 35.8614 24.6827C35.999 24.0621 36.0345 23.4231 35.9665 22.791Z" fill="#2B2A29"/>
</g>
<defs>
<clipPath id="clip0_2573_1809">
<rect width="36" height="36" fill="white"/>
</clipPath>
</defs>
</svg>
