<svg width="36" height="36" viewBox="0 0 36 36" fill="none" xmlns="http://www.w3.org/2000/svg">
<path fill-rule="evenodd" clip-rule="evenodd" d="M10.3256 32.2865L6.64352 32.4599C6.64352 32.2865 6.36337 31.9129 6.2433 31.4593C5.78834 29.3803 5.44544 27.2783 5.21606 25.1625C4.92257 22.8145 4.62907 20.1864 4.34892 17.6517C3.84197 12.8357 3.41506 8.37986 3.295 6.79231C4.62907 6.5922 8.63129 6.61888 8.63129 6.61888C8.77444 6.6159 8.91129 6.55949 9.01496 6.46075C9.11864 6.36201 9.18165 6.22807 9.1916 6.08525C9.19338 6.01341 9.18098 5.94193 9.15512 5.87489C9.12926 5.80785 9.09044 5.74656 9.04088 5.69453C8.99133 5.64249 8.932 5.60074 8.8663 5.57164C8.8006 5.54254 8.72981 5.52667 8.65798 5.52494C8.65798 5.52494 4.22885 5.37819 2.96148 5.52494C2.67286 5.56328 2.40287 5.68897 2.18772 5.88514C2.12399 5.94991 2.07446 6.02727 2.0423 6.11226C2.01014 6.19725 1.99606 6.28801 2.00095 6.37875C2.00095 7.36596 2.20106 12.3687 2.6413 17.8118C2.84141 20.3732 3.10823 23.028 3.41506 25.4026C3.67014 27.6024 4.07576 29.782 4.62907 31.9263C4.77327 32.6564 5.1417 33.3233 5.68299 33.834C6.26472 33.9932 6.87173 34.0385 7.47065 33.9674C8.97815 33.874 8.80472 33.9674 11.126 33.6472C14.0343 33.1536 12.3934 32.4999 10.3256 32.2865Z" fill="#00A3E2"/>
<path fill-rule="evenodd" clip-rule="evenodd" d="M31.6574 5.28479C31.7157 5.15209 31.7189 5.0017 31.6664 4.86663C31.6138 4.73155 31.5099 4.62285 31.3773 4.56439C29.3252 3.5335 27.131 2.8141 24.867 2.42987C23.733 2.22931 22.5881 2.09567 21.4384 2.02965H18.0365C16.9026 2.02965 15.4084 1.96294 14.1944 2.02965C13.6319 2.08493 13.0744 2.18304 12.5268 2.32314C12.4273 2.28959 12.3195 2.28959 12.22 2.32314C12.22 2.32314 12.1399 2.40319 12.0999 2.44321C11.633 2.61664 11.1394 0.628869 9.08488 19.0257C8.49789 24.2553 8.21773 28.7912 8.49789 29.8851C8.60322 30.1505 8.7617 30.3915 8.96359 30.5934C9.16548 30.7953 9.4065 30.9538 9.67187 31.0591C10.7811 31.5249 11.9406 31.8606 13.1271 32.0596C13.7942 32.1664 18.0899 32.8067 19.6374 32.9535C22.1987 33.2585 24.7871 33.2585 27.3484 32.9535C27.6295 32.9179 27.9006 32.8264 28.1458 32.6844C28.391 32.5423 28.6052 32.3526 28.7758 32.1264C29.6071 29.5016 30.1265 26.7881 30.3233 24.0419C31.0704 17.9185 31.6574 9.82064 31.7508 5.56494C31.744 5.46512 31.7119 5.36869 31.6574 5.28479ZM14.1944 3.29702C15.4351 3.29702 16.6891 3.55049 17.9031 3.67056C19.1171 3.79062 20.5713 3.85733 21.9053 3.93737C23.2394 4.01742 24.5735 4.1108 25.9076 4.29757C27.3693 4.50048 28.8079 4.8445 30.2033 5.32481C29.3895 6.39207 28.589 7.75282 27.6819 8.83342C27.3717 9.25611 27.0085 9.63722 26.6013 9.96739C26.6013 10.1808 26.0009 9.96739 25.454 10.0474C24.4134 10.0474 22.9192 10.0474 21.4517 9.96739V8.84676H21.5451L22.3989 8.45988C22.6149 8.34296 22.8052 8.18403 22.9588 7.99244C23.1123 7.80085 23.226 7.58048 23.2932 7.34429C23.3603 7.1081 23.3795 6.86087 23.3496 6.61715C23.3198 6.37343 23.2415 6.13815 23.1193 5.92514C22.7809 5.30667 22.2372 4.82568 21.5821 4.5651C20.927 4.30452 20.2015 4.28067 19.5307 4.49768C19.1211 4.64883 18.7549 4.89815 18.4642 5.22378C18.1735 5.54941 17.967 5.94141 17.8631 6.36539C17.7649 6.67849 17.7431 7.01056 17.7996 7.3338C17.8561 7.65704 17.9892 7.96204 18.1877 8.2233C18.3863 8.48455 18.6445 8.69444 18.9408 8.8354C19.2371 8.97637 19.5629 9.04431 19.8909 9.03353C19.9664 9.03826 20.0421 9.03826 20.1177 9.03353C20.0243 9.32703 19.9576 9.62053 19.8775 9.91402H19.6641C18.4234 9.82064 17.2494 9.71391 16.3823 9.55382C16.0415 9.52997 15.7097 9.43451 15.4084 9.27367L13.1405 3.29702C13.4913 3.27039 13.8436 3.27039 14.1944 3.29702ZM20.1043 7.84621C19.9955 7.84384 19.8883 7.8189 19.7895 7.77297C19.6908 7.72705 19.6026 7.66113 19.5307 7.57939C19.3039 7.37928 19.3839 7.09913 19.5307 6.84565C19.5775 6.70814 19.6546 6.58286 19.7562 6.47898C19.8577 6.3751 19.9812 6.29527 20.1177 6.24532C20.3905 6.15477 20.6853 6.15477 20.9581 6.24532C21.2505 6.29482 21.5181 6.44034 21.7186 6.65888C21.8786 6.88568 21.8653 7.17917 21.5451 7.48601C21.0748 7.63632 20.5929 7.74787 20.1043 7.81953V7.84621ZM21.0515 17.8784C20.9152 18.1268 20.7034 18.3253 20.4468 18.4452C20.1901 18.5651 19.902 18.6003 19.6241 18.5455C19.4172 18.4989 19.2234 18.4063 19.0572 18.2747C18.8909 18.1431 18.7564 17.9757 18.6635 17.7851C18.5802 17.6111 18.5573 17.4143 18.5984 17.2259C18.6394 17.0374 18.7422 16.868 18.8903 16.7445C19.0951 16.5611 19.3429 16.4326 19.6107 16.3709C20.2644 16.2109 21.7452 16.6378 21.0515 17.8518V17.8784ZM29.1493 21.2403C28.8454 24.5847 28.2336 27.8938 27.3217 31.1258C27.3217 31.1258 27.3217 31.2192 27.2149 31.2459C26.8782 31.2841 26.5399 31.3063 26.201 31.3126C23.6943 31.4203 21.183 31.3311 18.6902 31.0458C16.1957 30.8258 13.7264 30.3792 11.3128 29.7117C10.7925 29.5516 10.4456 29.1247 10.2455 29.2181C10.0961 25.852 10.2165 22.4793 10.6057 19.1325C11.0326 13.7962 11.7263 7.65944 12.3667 3.91069C12.8603 5.53826 13.3939 8.09968 13.7942 9.35371C13.8964 9.7038 14.0589 10.0334 14.2744 10.3276C14.7765 10.7352 15.3728 11.0104 16.0087 11.128C17.1653 11.4036 18.3438 11.5777 19.5307 11.6483C19.5307 11.6483 19.5307 11.7417 19.5307 11.7951C19.5109 12.1772 19.5109 12.5602 19.5307 12.9424V15.197C19.0338 15.2106 18.5499 15.3581 18.1299 15.6239C17.6527 15.8793 17.2812 16.2953 17.081 16.7982C16.8808 17.3011 16.8649 17.8585 17.036 18.3721C17.2145 18.8512 17.509 19.2787 17.8931 19.6163C18.2773 19.9538 18.739 20.191 19.2372 20.3065C19.895 20.4205 20.572 20.3068 21.1565 19.9842C21.741 19.6617 22.1981 19.1495 22.4523 18.5321C22.6271 18.1569 22.6959 17.741 22.6513 17.3295C22.6066 16.9179 22.4501 16.5265 22.1988 16.1975C21.8801 15.8246 21.4414 15.5746 20.9581 15.4905C20.9074 15.4506 20.848 15.4232 20.7847 15.4104H20.718C20.8914 14.6366 21.0649 13.8762 21.1983 13.1025C21.2668 12.7228 21.3158 12.3399 21.345 11.9552V11.7417C22.7331 11.7835 24.1225 11.7524 25.5073 11.6483C26.1554 11.6582 26.7992 11.5403 27.4017 11.3015C27.9651 10.8409 28.4593 10.3018 28.8692 9.70057C29.4962 8.82008 30.0565 7.81953 30.6168 6.88568C30.35 10.6344 29.7897 16.2509 29.1493 21.2136V21.2403Z" fill="#2B2A29"/>
</svg>
