<svg width="36" height="36" viewBox="0 0 36 36" fill="none" xmlns="http://www.w3.org/2000/svg">
<g clip-path="url(#clip0_2808_6736)">
<path d="M1.71692 4.43079H34.2831C35.0325 4.43079 35.64 5.0383 35.64 5.7877V28.8554C35.64 30.3543 34.425 31.5693 32.9261 31.5692H3.07385C1.57508 31.5692 0.360001 30.3542 0.360001 28.8554V5.7877C0.360001 5.0383 0.967514 4.43079 1.71692 4.43079ZM5.20591 7.14462L18 18.8735L30.7941 7.14464L5.20591 7.14462ZM3.07385 28.8554H32.9261V8.87302L18.9176 21.7146C18.3986 22.191 17.6014 22.191 17.0824 21.7146L3.07385 8.87302V28.8554Z" fill="black"/>
</g>
<defs>
<clipPath id="clip0_2808_6736">
<rect width="36" height="36" fill="white" transform="matrix(-1 0 0 1 36 0)"/>
</clipPath>
</defs>
</svg>
