<svg width="36" height="36" viewBox="0 0 36 36" fill="none" xmlns="http://www.w3.org/2000/svg">
<path d="M35.3669 7.64354C35.2337 6.83875 34.8629 6.09212 34.3023 5.49949C33.534 5.17163 32.7087 4.9984 31.8733 4.9897C25.9342 4.66748 19.9812 4.70254 14.0462 5.09465C8.01887 5.48449 2.56125 6.27914 0.837007 7.5086C0.547875 7.77635 0.362115 8.13725 0.312237 8.52815C0.0628921 10.4768 -0.0373551 12.4417 0.0123686 14.4056C-0.0114314 19.4583 0.238827 24.5085 0.76204 29.5339C0.771637 29.5951 0.793365 29.6538 0.825946 29.7064C0.858528 29.7591 0.901305 29.8047 0.951766 29.8407C1.00223 29.8765 1.05936 29.902 1.11979 29.9155C1.18023 29.929 1.24276 29.9304 1.30371 29.9193C1.36465 29.9083 1.42279 29.8852 1.4747 29.8515C1.52661 29.8177 1.57125 29.7739 1.60599 29.7226C1.64073 29.6713 1.66488 29.6137 1.67702 29.553C1.68915 29.4922 1.68901 29.4297 1.67664 29.3691C1.45174 27.9447 1.24183 23.3716 1.21184 18.7087C1.14492 15.6519 1.24503 12.5936 1.51171 9.5477C3.97063 11.197 8.8285 14.4206 12.8018 16.5796L14.9908 17.6592C16.167 18.3033 17.4538 18.7203 18.7842 18.8886C19.3893 18.7912 19.9698 18.5773 20.4935 18.2589C20.9011 18.0409 21.2965 17.8008 21.6778 17.5392L23.837 16.0399C24.3467 15.6651 24.8415 15.3052 25.3362 14.8854C28.2491 12.6554 30.9722 10.188 33.4778 7.5086C33.4778 7.67353 33.5826 7.86844 33.6276 8.07835C34.0647 10.4265 34.2706 12.8119 34.2423 15.2002C34.3197 19.2907 34.1394 23.382 33.7026 27.4498C33.7026 27.7797 33.5976 28.1245 33.5527 28.3195H32.5182C29.8343 28.5894 24.1218 29.0092 18.3043 29.3691C11.7222 29.7738 5.02017 30.1186 2.47129 30.1786C2.40238 30.1786 2.33413 30.1923 2.27047 30.2187C2.2068 30.2449 2.14896 30.2836 2.10022 30.3324C2.05149 30.3811 2.01284 30.4389 1.98646 30.5026C1.96009 30.5662 1.94652 30.6345 1.94652 30.7035C1.95042 30.844 2.00901 30.9774 2.10983 31.0755C2.21063 31.1734 2.34569 31.2283 2.48628 31.2282C5.8898 31.2282 16.6551 30.7933 24.7215 30.3586C28.5599 30.1636 31.7835 29.9538 33.3128 29.8038C33.7552 29.7793 34.1907 29.683 34.6021 29.5189C34.7682 29.4126 34.8946 29.2545 34.962 29.0692C35.1263 28.6137 35.2369 28.1407 35.2919 27.6598C35.7912 23.5107 36.0266 19.3341 35.9966 15.1552C36.0299 12.6369 35.819 10.1212 35.3669 7.64354ZM25.876 12.5614C24.0318 13.9408 22.1577 15.2302 20.7183 16.0998C20.1033 16.5525 19.4128 16.8927 18.6792 17.1043C18.0138 17.0197 17.3689 16.8166 16.7751 16.5046C15.4256 15.9499 13.6864 15.0952 11.8422 14.1207C8.01887 12.1566 3.79071 9.74263 1.70662 8.52815C3.47584 7.4936 8.55863 7.02881 14.1362 6.72895C19.9991 6.40376 25.8756 6.40376 31.7385 6.72895H32.668C30.5569 8.84437 28.2862 10.7943 25.876 12.5614Z" fill="#2B2A29"/>
<path d="M26.5208 21.6174C27.0305 22.1123 27.5553 22.592 28.02 23.0418C29.5194 24.4362 31.0188 25.6508 31.7085 26.3255C31.809 26.4225 31.9434 26.4768 32.0834 26.4768C32.2232 26.4768 32.3576 26.4225 32.4581 26.3255C32.508 26.2766 32.5476 26.2182 32.5746 26.1539C32.6018 26.0895 32.6157 26.0204 32.6157 25.9506C32.6157 25.8807 32.6018 25.8116 32.5746 25.7472C32.5476 25.6829 32.508 25.6245 32.4581 25.5758C31.8134 24.8111 30.614 23.3867 29.1896 21.8424C28.7097 21.3326 28.2101 20.8328 27.6902 20.343C27.1805 19.8482 26.6556 19.3535 26.1909 18.8436C25.7261 18.3339 24.9764 17.8241 24.4067 17.3444C23.3721 16.6397 22.6074 17.3444 23.3421 18.2289C23.852 18.7838 24.4067 19.3985 25.0214 20.0282C25.6361 20.6579 26.0109 21.1227 26.5208 21.6174Z" fill="#00A3E2"/>
<path d="M6.89433 23.0268C5.33691 24.5693 3.86533 26.196 2.48626 27.8997C2.44098 27.9519 2.4064 28.0125 2.38453 28.0781C2.36266 28.1436 2.35392 28.2128 2.35879 28.2816C2.36367 28.3506 2.38206 28.4178 2.41294 28.4796C2.44381 28.5414 2.48656 28.5966 2.53873 28.6419C2.59092 28.6872 2.6515 28.7217 2.71704 28.7436C2.78257 28.7655 2.85178 28.7742 2.92069 28.7694C2.98962 28.7645 3.05689 28.746 3.11871 28.7153C3.18051 28.6844 3.23563 28.6416 3.28092 28.5894C4.16553 27.6899 5.81481 26.3255 7.61402 24.7211C8.55861 23.8665 9.54817 22.9668 10.4628 22.0373C11.3774 21.1077 12.5918 19.7583 13.4615 18.7238C14.3311 17.6892 13.2515 17.2244 12.232 18.1391C11.4523 18.8286 10.6127 19.5483 9.72809 20.343C8.84348 21.1377 7.80892 22.1273 6.89433 23.0268Z" fill="#00A3E2"/>
</svg>
