<svg width="36" height="36" viewBox="0 0 36 36" fill="none" xmlns="http://www.w3.org/2000/svg">
<g clip-path="url(#clip0_2573_1318)">
<path d="M35.1697 12.8379L35.1697 12.838L35.1706 12.8413C37.5289 21.1255 33.5869 29.9064 25.8325 33.6414L25.8324 33.6411L25.8245 33.6455C24.5941 34.332 23.2845 34.8652 21.9251 35.233C9.10313 38.7021 -2.6632 26.9771 0.746473 14.1273L0.746525 14.1273L0.747451 14.1234C1.9276 9.14123 5.09938 4.86239 9.52097 2.28751C12.7043 0.511208 16.3768 -0.185785 19.9884 0.301101C23.5275 0.781122 26.885 2.15956 29.741 4.30531L29.7407 4.30572L29.7512 4.31233C30.0188 4.48078 30.0961 4.83567 29.9239 5.10015C29.7267 5.34962 29.3709 5.40667 29.1057 5.23099C26.3781 3.30068 23.203 2.10088 19.8813 1.7455L19.8794 1.74533C16.6009 1.43583 13.3097 2.18766 10.4897 3.89005L10.4897 3.89001L10.487 3.89177C6.66374 6.31528 3.97618 10.1771 3.02982 14.6065L3.02977 14.6065L3.02909 14.6101C2.21276 18.9512 3.07161 23.4405 5.43239 27.1727C6.21537 28.5128 7.27869 29.6675 8.54922 30.558C13.3319 34.0135 19.6482 34.4881 24.8927 31.7864C25.9834 31.2345 27.0208 30.5827 27.9912 29.839C33.0643 25.9851 35.3474 19.4714 33.7917 13.2897C33.5275 12.1708 33.1657 11.0771 32.711 10.0213C32.2711 8.96918 31.6953 7.97943 30.999 7.07693L30.9946 7.07116L30.9896 7.06584C30.7415 6.80184 30.7414 6.39022 30.989 6.12629C31.2477 5.85794 31.6766 5.85685 31.9365 6.12282C32.7354 7.09894 33.4006 8.1772 33.9143 9.32946L33.9152 9.33138C34.4377 10.4603 34.8573 11.6338 35.1697 12.8379Z" fill="#2B2A29" stroke="#F7F7F7" stroke-width="0.3"/>
<path d="M9.34459 25.8707L9.34461 25.8707C9.52409 25.4068 9.63759 25.1562 9.76516 24.8746C9.84537 24.6975 9.93113 24.5082 10.0423 24.2458C10.0424 24.2456 10.0425 24.2454 10.0426 24.2452L10.1347 24.2842C10.5527 23.2566 11.1374 22.3031 11.8653 21.4616L9.34459 25.8707ZM9.34459 25.8707L9.34399 25.8724M9.34459 25.8707L9.34399 25.8724M9.34399 25.8724C9.13856 26.4325 8.92386 26.7104 8.7329 26.8273C8.55221 26.9379 8.37711 26.9129 8.21026 26.8152C8.03887 26.7147 7.88524 26.5408 7.77287 26.3756C7.71729 26.2939 7.67352 26.2168 7.64405 26.1561C7.62928 26.1256 7.61866 26.1003 7.61197 26.0814C7.60663 26.0663 7.60537 26.0596 7.60512 26.059V25.5735H7.60521L7.60504 25.5695C7.5731 24.7814 7.69314 23.9946 7.95887 23.251L7.95888 23.251L7.95935 23.2496C8.28409 22.2971 8.79663 21.4177 9.46705 20.6618C10.3429 19.7184 11.411 18.9694 12.6012 18.4639L12.7484 18.4014L12.6278 18.2965C11.8373 17.6081 11.2563 16.716 10.9494 15.7199L10.9495 15.7199L10.9481 15.716C10.578 14.6695 10.4642 13.5513 10.6156 12.4529C10.8679 11.0143 11.4699 9.65777 12.3698 8.50002C13.3388 7.3726 14.6648 6.60146 16.1326 6.31227L16.1327 6.31224C17.1366 6.113 18.1635 6.05368 19.1844 6.1358L19.1844 6.13593L19.1897 6.13608C20.2354 6.16483 21.2633 6.41152 22.2061 6.85991L22.2059 6.86031L22.2148 6.86355C22.5223 6.97569 22.6627 7.32521 22.5191 7.61434L22.519 7.61431L22.5175 7.61766C22.3872 7.90622 22.0426 8.03475 21.7513 7.90119L21.7514 7.90098L21.7449 7.89853C20.9225 7.58824 20.0441 7.44994 19.1654 7.49222C18.2796 7.5297 17.4024 7.6805 16.5558 7.94114L16.5554 7.94125C15.4947 8.2722 14.5753 8.94228 13.941 9.84626L13.941 9.84622L13.9389 9.84942C13.3338 10.7858 12.966 11.8529 12.8672 12.9601C12.7701 13.7242 12.8561 14.5 13.119 15.2251C13.3138 15.8725 13.712 16.4422 14.2548 16.8517L14.2548 16.8517L14.2586 16.8544C15.9994 18.0445 18.1755 18.4309 20.2256 17.9137C22.2804 17.5007 23.7924 15.764 23.8994 13.6916C24.0127 12.8578 24.0125 12.0129 23.8989 11.1794L23.8989 11.1794L23.8984 11.1762C23.7663 10.3962 23.4248 9.66584 22.9097 9.06153C22.6777 8.77994 22.7213 8.36528 23.0078 8.13701L23.0083 8.13773M9.34399 25.8724L23.0083 8.13773M23.0083 8.13773L23.0178 8.12786M23.0083 8.13773L23.0178 8.12786M23.0178 8.12786C23.2711 7.86252 23.6985 7.86246 23.952 8.12769L23.0178 8.12786ZM25.0828 22.4889L24.6332 21.4442L23.9521 8.12786C24.5145 8.71949 24.95 9.41732 25.2331 10.1794C25.5568 11.3081 25.6842 12.4828 25.6103 13.6537L25.61 13.6537L25.6101 13.6615C25.6337 15.2862 25.0148 16.8558 23.8848 18.0361L23.7937 18.1312L23.9098 18.1934C25.0737 18.8171 26.0707 19.7052 26.8189 20.7848C27.1608 21.2852 27.4436 21.8225 27.6621 22.3867L27.662 22.3868L27.664 22.3912C27.9048 22.933 28.0837 23.4998 28.1966 24.0811L28.1985 24.0907L28.2022 24.0998C28.4094 24.6081 28.455 25.1666 28.3335 25.7011C28.1727 26.1532 27.9165 26.3932 27.6573 26.4942C27.3963 26.596 27.1203 26.562 26.9092 26.444C26.7474 26.333 26.6209 26.1793 26.5434 26.0003L26.5435 26.0003L26.5415 25.9961C26.3864 25.6785 26.2923 25.4322 26.1858 25.1468C26.1785 25.1272 26.1711 25.1073 26.1637 25.0873C26.0625 24.8155 25.9465 24.504 25.757 24.0668C25.757 24.0668 25.757 24.0667 25.757 24.0667L25.0829 22.4891L25.0828 22.4889Z" fill="#00A3E2" stroke="#F7F7F7" stroke-width="0.2"/>
</g>
<defs>
<clipPath id="clip0_2573_1318">
<rect width="36" height="36" fill="white"/>
</clipPath>
</defs>
</svg>
