<svg width="36" height="36" viewBox="0 0 36 36" fill="none" xmlns="http://www.w3.org/2000/svg">
<g clip-path="url(#clip0_3109_9719)">
<path d="M34.6778 23.4522C35.4185 23.4522 35.8814 22.6504 35.5111 22.0089C35.3392 21.7112 35.0216 21.5278 34.6778 21.5278C31.0875 21.5252 27.516 22.0465 24.0762 23.0753C22.8801 22.3028 21.6453 21.592 20.3766 20.9457C24.9421 19.2001 29.79 18.3102 34.6778 18.3205C35.4185 18.3205 35.8814 17.5187 35.5111 16.8773C35.3392 16.5796 35.0216 16.3962 34.6778 16.3962C33.7156 16.3962 32.7535 16.4315 31.7913 16.4956V10.9438C31.7913 10.641 31.6487 10.3558 31.4064 10.1741L21.1431 2.47662C20.801 2.22003 20.3306 2.22003 19.9885 2.47662L9.72523 10.1741C9.48295 10.3558 9.34037 10.641 9.34037 10.9438V17.1611C6.69786 16.6521 4.01327 16.396 1.32219 16.3962C0.581499 16.3962 0.118562 17.198 0.488912 17.8394C0.660784 18.1371 0.978442 18.3205 1.32219 18.3205C13.5018 18.2964 25.0265 23.8322 32.6204 33.3546C32.8032 33.583 33.0799 33.7158 33.3725 33.7154C34.1131 33.7138 34.5742 32.9109 34.2024 32.2703C34.1784 32.2289 34.1513 32.1893 34.1214 32.1519C33.1823 30.9804 32.1819 29.8595 31.1242 28.7939C32.3036 28.6549 33.4902 28.5847 34.6778 28.5838C35.4185 28.5838 35.8814 27.782 35.5111 27.1405C35.3392 26.8429 35.0216 26.6595 34.6778 26.6594C32.8935 26.6595 31.1115 26.8092 29.3521 27.1069C28.3226 26.1821 27.2535 25.3135 26.1449 24.501C28.9354 23.8028 31.8012 23.4505 34.6778 23.4522ZM17.6793 19.6933V14.4718H23.4524V17.9132C21.5962 18.4278 19.7781 19.0708 18.0112 19.8376L17.6793 19.6933ZM11.2647 11.4249L20.5658 4.44909L29.8669 11.4249V16.6704C28.3575 16.8414 26.8585 17.0946 25.3767 17.4289V13.5096C25.3767 12.9782 24.9459 12.5474 24.4145 12.5474H16.7171C16.1857 12.5474 15.7549 12.9782 15.7549 13.5096V18.9379C14.285 18.4015 12.7858 17.9485 11.2647 17.5813V11.4249ZM19.1498 33.2857C18.8559 33.7287 18.2584 33.8493 17.8156 33.5551C12.9299 30.3044 7.19047 28.5745 1.32219 28.5838C0.581499 28.5838 0.118562 27.782 0.488912 27.1405C0.660784 26.8429 0.978442 26.6595 1.32219 26.6594C7.5693 26.6495 13.6792 28.4911 18.8804 31.9514C19.3234 32.2454 19.444 32.8429 19.1498 33.2857ZM27.1359 32.0653C27.6649 32.5838 27.4342 33.4805 26.7207 33.6793C26.3896 33.7716 26.0344 33.6803 25.7889 33.4396C19.2659 27.0197 10.4745 23.431 1.32219 23.4522C0.581499 23.4522 0.118562 22.6504 0.488912 22.0089C0.660784 21.7112 0.978442 21.5278 1.32219 21.5278C10.98 21.5045 20.2573 25.2909 27.1407 32.0653H27.1359Z" fill="black"/>
</g>
<defs>
<clipPath id="clip0_3109_9719">
<rect width="36" height="36" fill="white"/>
</clipPath>
</defs>
</svg>
