<svg width="36" height="36" viewBox="0 0 36 36" fill="none" xmlns="http://www.w3.org/2000/svg">
<g clip-path="url(#clip0_3109_7797)">
<path d="M35.3894 24.0051C35.3894 24.6269 34.8852 25.131 34.2634 25.1311H29.3842V28.8842H32.7621C33.6289 28.8842 34.1706 29.8225 33.7372 30.5732C33.5361 30.9216 33.1644 31.1362 32.7621 31.1362H29.3842V34.514C29.3842 35.3808 28.446 35.9225 27.6953 35.4891C27.3469 35.288 27.1323 34.9163 27.1323 34.514V24.0051C27.1323 23.3833 27.6364 22.8791 28.2583 22.8791H34.2634C34.8853 22.8791 35.3894 23.3833 35.3894 24.0051ZM10.6183 27.7583C10.6183 30.453 8.43382 32.6374 5.73915 32.6374H3.86255V34.514C3.86255 35.3808 2.92426 35.9225 2.17362 35.4891C1.82525 35.288 1.61064 34.9163 1.61064 34.514V24.0051C1.61064 23.3832 2.11474 22.8791 2.7366 22.8791H5.73915C8.43374 22.8793 10.6183 25.0637 10.6183 27.7583ZM8.36638 27.7583C8.36638 26.3074 7.19008 25.1311 5.73915 25.1311H3.86255V30.3855H5.73915C7.19008 30.3854 8.36638 29.2092 8.36638 27.7583ZM24.1298 29.2596C24.1298 32.7833 21.2731 35.6398 17.7494 35.64H14.7468C14.1249 35.64 13.6208 35.1359 13.6208 34.514V24.0051C13.6208 23.3832 14.125 22.8791 14.7468 22.8791H17.7494C21.2732 22.8791 24.1298 25.7358 24.1298 29.2596ZM21.8779 29.2596C21.8779 26.9795 20.0294 25.1312 17.7494 25.1311H15.8728V33.3881H17.7494C20.0294 33.388 21.8779 31.5396 21.8779 29.2596ZM1.61064 16.4987V2.98723C1.61064 1.53624 2.78689 0.359986 4.23787 0.359986H22.2532C22.5524 0.359747 22.8393 0.478589 23.0507 0.690272L33.5597 11.1992C33.7702 11.4105 33.8883 11.6966 33.8881 11.9949V16.4987C33.8881 17.3655 32.9498 17.9072 32.1992 17.4738C31.8508 17.2727 31.6362 16.901 31.6362 16.4987V13.1208H22.2532C21.6313 13.1208 21.1272 12.6167 21.1272 11.9949V2.6119H4.23787C4.03059 2.6119 3.86255 2.77993 3.86255 2.98723V16.4987C3.86255 17.3655 2.92425 17.9072 2.17362 17.4738C1.82525 17.2727 1.61064 16.901 1.61064 16.4987ZM23.3792 10.8689H30.0448L23.3792 4.20325V10.8689Z" fill="black"/>
</g>
<defs>
<clipPath id="clip0_3109_7797">
<rect width="36" height="36" fill="white"/>
</clipPath>
</defs>
</svg>
