<svg width="36" height="36" viewBox="0 0 36 36" fill="none" xmlns="http://www.w3.org/2000/svg">
<g clip-path="url(#clip0_4403_22352)">
<g clip-path="url(#clip1_4403_22352)">
<path fill-rule="evenodd" clip-rule="evenodd" d="M21.0038 18.278C20.0889 15.188 16.5038 16.208 15.7238 17.093C15.4959 17.3519 15.3301 17.6594 15.2391 17.9922C15.1481 18.3249 15.1343 18.674 15.1988 19.013C15.4238 21.158 16.6988 22.013 18.9638 21.548C19.3249 21.491 19.6694 21.3572 19.9742 21.1554C20.279 20.9537 20.537 20.6888 20.7304 20.3787C20.9239 20.0685 21.0484 19.7205 21.0956 19.358C21.1427 18.9956 21.1115 18.6272 21.0038 18.278ZM18.5588 19.598C17.2838 19.883 17.0588 19.523 16.8788 18.713C16.7888 18.353 16.7588 18.083 16.9838 17.888C17.2088 17.693 19.1738 16.388 19.4288 18.608C19.4461 18.7319 19.4363 18.858 19.4005 18.9779C19.3645 19.0976 19.3033 19.2083 19.2206 19.3023C19.1381 19.3962 19.0362 19.4712 18.922 19.5222C18.8079 19.5734 18.6839 19.5992 18.5588 19.598Z" fill="black"/>
<path fill-rule="evenodd" clip-rule="evenodd" d="M2.54158 9.90918C3.35142 9.90918 2.88651 9.08436 2.82652 5.69508C2.82652 3.16063 2.67655 2.24583 5.52594 1.82592C7.13059 1.60096 8.87021 1.82592 10.4749 1.75093C10.6158 1.72845 10.7441 1.65645 10.8367 1.54788C10.9293 1.4393 10.9802 1.30127 10.9802 1.15856C10.9802 1.01586 10.9293 0.877823 10.8367 0.769251C10.7441 0.66068 10.6158 0.588684 10.4749 0.56619C7.79045 0.356235 4.53616 -0.978477 1.71676 1.51099C0.112107 3.01066 1.71676 7.58467 1.9867 9.45927C1.99225 9.52578 2.01119 9.59047 2.04238 9.64945C2.07357 9.70845 2.11637 9.76053 2.1682 9.80256C2.22003 9.84459 2.27983 9.8757 2.344 9.89401C2.40816 9.91234 2.47537 9.9175 2.54158 9.90918Z" fill="black"/>
<path fill-rule="evenodd" clip-rule="evenodd" d="M10.4748 34.2639C8.87018 34.1891 7.13056 34.4139 5.52591 34.1891C2.60154 33.7691 2.91646 32.4344 2.91646 32.3744C2.81009 30.4748 2.84518 28.5699 3.02144 26.6756C3.03878 26.6022 3.04013 26.526 3.0254 26.4522C3.01066 26.3783 2.98018 26.3084 2.93603 26.2473C2.89189 26.1863 2.8351 26.1354 2.76955 26.0982C2.70398 26.061 2.63119 26.0384 2.55611 26.0319C2.48104 26.0253 2.40544 26.0351 2.33445 26.0604C2.26346 26.0856 2.19875 26.126 2.14472 26.1785C2.0907 26.2311 2.04862 26.2946 2.02134 26.3649C1.99407 26.4351 1.98224 26.5104 1.98667 26.5856C1.77671 27.7854 0.636958 31.4595 1.11685 33.4992C1.49177 34.9988 3.72629 35.9136 5.34595 35.9886C7.07056 35.9217 8.7889 35.7413 10.4898 35.4488C10.6305 35.4245 10.758 35.351 10.8493 35.2412C10.9406 35.1314 10.9897 34.9928 10.9879 34.85C10.9861 34.7072 10.9334 34.5698 10.8394 34.4624C10.7454 34.355 10.6161 34.2846 10.4748 34.2639Z" fill="black"/>
<path fill-rule="evenodd" clip-rule="evenodd" d="M27.4511 1.75098C29.0558 1.82597 30.7955 1.60101 32.4001 1.82597C35.3995 2.24588 35.0095 3.58059 35.0245 3.64057C35.1272 5.54049 35.087 7.44543 34.9046 9.33934C34.8926 9.47856 34.9364 9.6168 35.0264 9.72367C35.1164 9.83055 35.2453 9.89729 35.3845 9.90923C35.5237 9.92115 35.662 9.87729 35.7688 9.7873C35.8757 9.6973 35.9425 9.56853 35.9543 9.42933C36.1493 8.27457 37.304 4.55538 36.8092 2.51582C36.4342 0.95615 34.1998 0.101333 32.5951 0.0113525C30.8654 0.0775288 29.1421 0.257883 27.4361 0.551237C27.2771 0.553226 27.1253 0.618333 27.0142 0.732237C26.9032 0.846141 26.8418 0.99951 26.8438 1.15861C26.8457 1.3177 26.9108 1.46949 27.0248 1.58058C27.1387 1.69167 27.2921 1.75296 27.4511 1.75098Z" fill="black"/>
<path fill-rule="evenodd" clip-rule="evenodd" d="M35.4595 26.1059C34.6496 26.1808 35.1145 26.9156 35.1745 30.32C35.1895 31.0057 35.1644 31.6918 35.0995 32.3746C35.0995 32.3746 35.4145 33.7693 32.4751 34.1891C29.5357 34.609 26.9563 33.6493 26.9263 34.849C26.9243 34.927 26.938 35.0047 26.9664 35.0774C26.9949 35.1502 27.0377 35.2163 27.0922 35.2723C27.1466 35.3282 27.2119 35.3726 27.2838 35.4029C27.3558 35.4332 27.433 35.4488 27.5112 35.4488C29.217 35.7422 30.9404 35.9225 32.6701 35.9887C34.2746 35.9887 36.5092 35.059 36.8842 33.4993C37.3641 31.4897 36.2094 27.6355 36.0294 26.5858C36.0237 26.5168 36.0044 26.4496 35.9726 26.3879C35.9408 26.3264 35.8972 26.2718 35.8442 26.2271C35.7913 26.1826 35.7301 26.1488 35.664 26.1281C35.598 26.1073 35.5283 26.0996 35.4595 26.1059Z" fill="black"/>
<path fill-rule="evenodd" clip-rule="evenodd" d="M27.5411 19.4021C29.1883 19.5754 30.8531 19.4587 32.4601 19.0571C32.6014 19.0264 32.7269 18.9454 32.8133 18.8294C32.8997 18.7133 32.9413 18.5699 32.9303 18.4256C32.9194 18.2813 32.8567 18.1459 32.7536 18.0443C32.6507 17.9426 32.5145 17.8816 32.3701 17.8724C29.6557 17.7224 29.5507 17.1826 25.7116 17.7524C25.5674 16.1978 24.8537 14.7513 23.7076 13.6911C22.5616 12.6308 21.064 12.0316 19.5029 12.0087C20.0582 9.88676 20.0011 7.65087 19.3379 5.5601C19.3088 5.43746 19.2367 5.32934 19.1345 5.25551C19.0325 5.18168 18.9071 5.14707 18.7816 5.15798C18.656 5.1689 18.5386 5.22462 18.4508 5.31497C18.3629 5.40533 18.3106 5.52426 18.3031 5.65007C17.8133 7.73558 17.752 9.89883 18.1232 12.0087C16.5206 12.1198 14.993 12.7288 13.7534 13.7505C12.5139 14.7722 11.6246 16.1557 11.2097 17.7074C11.2097 17.8724 11.4946 17.8724 9.33506 17.7074C7.83527 17.5607 6.32272 17.6111 4.83604 17.8574C4.76072 17.8445 4.6835 17.8483 4.60976 17.8684C4.53604 17.8885 4.46758 17.9243 4.40918 17.9737C4.35077 18.0229 4.30384 18.0844 4.27163 18.1537C4.23943 18.223 4.22275 18.2984 4.22275 18.3748C4.22275 18.4513 4.23943 18.5267 4.27163 18.596C4.30384 18.6653 4.35077 18.7267 4.40918 18.776C4.46758 18.8252 4.53604 18.8612 4.60976 18.8813C4.6835 18.9013 4.76072 18.905 4.83604 18.8923C7.59544 19.5671 8.09033 20.002 11.2247 19.2371C11.3728 20.849 12.1302 22.3439 13.3424 23.4167C14.5545 24.4895 16.1302 25.0597 17.7482 25.0109C17.488 26.8133 17.5951 28.6498 18.0632 30.4097C18.0857 30.5506 18.1577 30.679 18.2662 30.7715C18.3748 30.8642 18.5128 30.9151 18.6556 30.9151C18.7982 30.9151 18.9362 30.8642 19.0448 30.7715C19.1534 30.679 19.2254 30.5506 19.2479 30.4097C19.7785 28.279 19.6103 26.0341 18.7681 24.0061C18.7681 22.6264 16.8184 25.3858 13.9541 22.1765C10.2499 18.0074 15.7987 12.5036 20.9425 14.1532C25.4416 15.6529 25.4416 22.4764 20.1928 23.1512C20.0507 23.183 19.9252 23.2652 19.8392 23.3827C19.7534 23.5001 19.7132 23.6447 19.726 23.7896C19.7389 23.9345 19.804 24.0698 19.9091 24.1703C20.0143 24.2708 20.1523 24.3298 20.2976 24.3361C21.4019 24.2971 22.4704 23.9353 23.3713 23.2957C24.272 22.6559 24.9658 21.7664 25.3666 20.7368C26.2364 18.5023 24.8117 19.0121 27.5411 19.4021Z" fill="#00A3E2"/>
</g>
</g>
<defs>
<clipPath id="clip0_4403_22352">
<rect width="36" height="36" fill="white"/>
</clipPath>
<clipPath id="clip1_4403_22352">
<rect width="36" height="36" fill="white" transform="translate(1)"/>
</clipPath>
</defs>
</svg>
