<svg width="36" height="36" viewBox="0 0 36 36" fill="none" xmlns="http://www.w3.org/2000/svg">
<g clip-path="url(#clip0_2573_1799)">
<path fill-rule="evenodd" clip-rule="evenodd" d="M35.4765 27.2001C35.1116 25.7994 34.3947 24.5152 33.3939 23.4694C32.616 22.794 31.7087 22.2843 30.7271 21.9712C29.7681 21.6261 28.7468 21.4881 27.7307 21.5667C26.7035 21.6078 25.6986 21.8796 24.7908 22.362C23.8832 22.8444 23.0955 23.5251 22.4868 24.3534C21.8609 25.1761 21.4182 26.1231 21.1881 27.1308C20.9582 28.1386 20.9463 29.1838 21.1533 30.1966C21.6687 32.2791 22.9745 34.0792 24.7941 35.2156C25.7327 35.6989 26.7675 35.9658 27.8226 35.997C28.8777 36.028 29.9265 35.8225 30.8919 35.3955C30.9461 35.3748 30.9956 35.3437 31.0376 35.3038C31.0797 35.2641 31.1135 35.2164 31.1372 35.1636C31.1609 35.1106 31.1738 35.0536 31.1754 34.9957C31.1771 34.9378 31.1673 34.8802 31.1466 34.8261C31.1259 34.7721 31.0949 34.7226 31.0551 34.6804C31.0152 34.6383 30.9675 34.6045 30.9147 34.5808C30.8618 34.5573 30.8048 34.5442 30.7469 34.5426C30.689 34.5409 30.6314 34.5508 30.5772 34.5714C29.7416 34.8975 28.8432 35.0319 27.9485 34.9644C27.0539 34.897 26.1858 34.6296 25.4084 34.1818C23.9363 33.1372 22.935 31.5547 22.6217 29.7771C22.5105 28.9989 22.5611 28.2061 22.7699 27.4483C22.9787 26.6904 23.3412 25.9837 23.8352 25.3722C24.318 24.75 24.9323 24.2419 25.6341 23.8845C26.336 23.527 27.1082 23.329 27.8954 23.3047H28.0752C28.8174 23.2464 29.5635 23.3485 30.2627 23.6043C31.0268 23.7867 31.7457 24.1231 32.3751 24.5931C33.2342 25.4191 33.8684 26.4504 34.218 27.5896C34.5993 28.7169 34.5993 29.9383 34.218 31.0656C34.0419 31.543 33.7889 31.9884 33.4689 32.3839C33.1416 32.7936 32.7698 33.1654 32.3601 33.4927C32.2998 33.531 32.2482 33.5814 32.2088 33.6408C32.1692 33.7003 32.1426 33.7674 32.1306 33.8379C32.1188 33.9082 32.1218 33.9804 32.1395 34.0495C32.1572 34.1187 32.1893 34.1833 32.2337 34.2393C32.2781 34.2952 32.3336 34.3413 32.3969 34.3744C32.4602 34.4074 32.5298 34.4269 32.601 34.4313C32.6723 34.4358 32.7437 34.4253 32.8106 34.4004C32.8774 34.3755 32.9385 34.3368 32.9895 34.2867C33.4746 33.9291 33.917 33.5169 34.3079 33.0582C34.7321 32.5992 35.0763 32.0725 35.3267 31.5C35.8572 30.124 35.91 28.6096 35.4765 27.2001Z" fill="#2B2A29"/>
<path fill-rule="evenodd" clip-rule="evenodd" d="M19.6549 5.41573C19.1432 5.04732 18.5837 4.74996 17.9919 4.53177C17.5818 4.38537 17.161 4.27017 16.7334 4.18717C16.7367 3.64854 16.6558 3.11269 16.4937 2.59903C16.3454 2.09133 16.0899 1.6213 15.7446 1.22066C15.3747 0.795192 14.9067 0.466107 14.3812 0.261792C13.8349 0.0238013 13.2322 -0.0541339 12.6432 0.0370558C11.653 0.254847 10.7566 0.779074 10.0813 1.53529C9.592 2.07331 9.3151 2.77089 9.30217 3.49798C9.28681 3.71746 9.28681 3.93774 9.30217 4.1572C8.47398 4.31682 7.66878 4.57851 6.90499 4.93629C6.24353 5.24907 5.67537 5.72943 5.25693 6.32965V6.44952C4.32672 6.40905 3.39475 6.44412 2.47021 6.55438C1.88251 6.64606 1.32377 6.87162 0.83713 7.21362C0.675571 7.33485 0.546826 7.49449 0.462571 7.67806C0.379126 7.9507 0.328822 8.2324 0.312748 8.51707C0.237835 9.02647 0.192889 14.4351 0.282783 19.8588C0.372678 24.8928 0.597412 29.9419 0.687307 31.1554C0.715875 31.876 0.806098 32.5927 0.956989 33.2979C1.03837 33.7375 1.22899 34.1497 1.51134 34.4965C1.7767 34.6989 2.09316 34.8234 2.42526 34.8561C3.98041 35.0562 5.54679 35.1562 7.11474 35.1558C11.1128 35.2543 15.1132 35.1493 19.1007 34.8411C19.2189 34.8135 19.3235 34.7445 19.3955 34.6465C19.4673 34.5487 19.5018 34.4283 19.4928 34.3071C19.4838 34.1861 19.4317 34.072 19.3461 33.986C19.2605 33.8997 19.1469 33.847 19.0257 33.8373C16.2104 33.9571 13.3911 33.9571 10.5757 33.8373C7.26457 33.7324 4.38795 33.5226 3.08449 33.3129L2.66497 33.223C2.5921 33.0514 2.54661 32.8693 2.53014 32.6836C2.44827 32.143 2.40321 31.5973 2.3953 31.0506L1.51134 8.65192V8.08258C1.98658 7.75791 2.54014 7.56648 3.11445 7.52824C3.6688 7.52824 4.25311 7.52824 4.82244 7.42336C4.69998 7.71657 4.59492 8.01673 4.50781 8.32231C4.47927 8.55616 4.47927 8.79262 4.50781 9.02647C4.50781 9.50592 4.64265 10.1502 4.64265 10.1502C4.66411 10.3358 4.75158 10.5075 4.8891 10.634C5.0266 10.7605 5.20501 10.8334 5.39178 10.8393C5.39178 10.8393 9.52691 10.9292 13.3474 10.9292C15.4749 10.9292 17.5125 10.9292 18.6662 10.8244C18.7854 10.8244 18.8997 10.777 18.984 10.6927C19.0683 10.6084 19.1157 10.4941 19.1157 10.3749C19.1157 10.2557 19.0683 10.1414 18.984 10.0571C18.8997 9.97278 18.7854 9.92542 18.6662 9.92542C17.7672 9.92542 16.3288 9.92542 14.7258 9.83553C11.5645 9.68571 7.77397 9.41602 6.23079 9.31114V8.71185C6.2898 8.44291 6.36484 8.17776 6.45552 7.91778C6.52802 7.70076 6.62877 7.49422 6.75517 7.30351C7.02139 6.94506 7.37112 6.65704 7.77398 6.46449C8.51867 6.14196 9.29782 5.90569 10.0962 5.76033L10.5008 5.64046C10.6115 5.61834 10.7166 5.57367 10.8094 5.50923C10.9022 5.4448 10.9807 5.36197 11.0401 5.2659C11.1066 5.17413 11.1519 5.06871 11.1726 4.95729C11.1934 4.84585 11.189 4.73121 11.16 4.62166L10.9652 3.49798C10.9667 3.27669 11.0172 3.05845 11.113 2.85898C11.2089 2.65951 11.3477 2.48376 11.5196 2.34433C11.9569 1.98922 12.4692 1.73818 13.0178 1.6102C13.2918 1.5303 13.5829 1.5303 13.8568 1.6102C14.1538 1.70922 14.425 1.87297 14.6509 2.08963C14.946 2.39914 15.1528 2.78193 15.2502 3.19833C15.3357 3.69286 15.3658 4.19538 15.34 4.69657C15.3385 4.85689 15.3955 5.01226 15.5004 5.13361C15.6051 5.25495 15.7506 5.33394 15.9095 5.35579C16.4613 5.40937 17.0076 5.5096 17.5425 5.65545C18.0691 5.8072 18.573 6.02892 19.0407 6.31467C19.3878 6.56107 19.6371 6.92173 19.7449 7.33347C19.8807 7.82143 19.9512 8.32522 19.9546 8.83171C19.9546 8.96682 20.0084 9.09637 20.1039 9.19191C20.1994 9.28744 20.3289 9.34111 20.4641 9.34111C20.5992 9.34111 20.7287 9.28744 20.8242 9.19191C20.9198 9.09637 20.9734 8.96682 20.9734 8.83171C21.0112 8.09888 20.9043 7.36576 20.6588 6.67425C20.4592 6.16281 20.1093 5.72395 19.6549 5.41573Z" fill="#2B2A29"/>
<path fill-rule="evenodd" clip-rule="evenodd" d="M22.4867 6.83904C23.1567 6.97803 23.8097 7.189 24.4344 7.4683C24.7547 7.58889 25.0313 7.80289 25.2285 8.08258C25.4618 8.7591 25.598 9.46531 25.6331 10.1801C25.7529 11.2588 25.8428 12.5773 25.9476 13.9707C26.1125 15.8584 26.3372 17.881 26.472 19.7688C26.4759 19.8853 26.525 19.9959 26.6088 20.077C26.6927 20.158 26.8049 20.2033 26.9214 20.2033C26.9811 20.2054 27.0405 20.1952 27.0959 20.1733C27.1514 20.1514 27.2018 20.1184 27.2439 20.0763C27.2861 20.0341 27.3192 19.9837 27.341 19.9282C27.3629 19.8727 27.3731 19.8135 27.371 19.7538C27.4608 18.0907 27.5807 16.3228 27.5957 14.6299V12.4275C27.549 11.5986 27.4541 10.7731 27.311 9.95538C27.2004 9.05706 26.9208 8.18778 26.487 7.39339C26.202 6.98061 25.8003 6.66235 25.3334 6.47946C24.4886 6.14341 23.601 5.92659 22.6965 5.83522C22.5633 5.81358 22.4271 5.84557 22.3176 5.92422C22.2081 6.00285 22.1342 6.12171 22.1121 6.25473C22.0892 6.38143 22.115 6.51213 22.1846 6.62055C22.254 6.72895 22.362 6.80701 22.4867 6.83904Z" fill="#2B2A29"/>
<path fill-rule="evenodd" clip-rule="evenodd" d="M31.0717 25.6569C30.9543 25.5923 30.8161 25.5764 30.6871 25.6128C30.5581 25.6493 30.4486 25.7351 30.3825 25.8518L27.6408 30.0018C26.1424 28.8482 26.0676 28.8332 25.8877 28.8932C25.708 28.953 25.3783 29.1029 25.5732 29.4774C25.5732 29.4774 26.607 30.7809 26.7418 30.9758C26.8521 31.1613 27.0073 31.3163 27.1933 31.4262C27.3792 31.5362 27.5896 31.5977 27.8055 31.605C28.0267 31.5977 28.2435 31.5416 28.4404 31.4405C28.6372 31.3395 28.8093 31.1961 28.9441 31.0206C29.3863 30.4604 29.7728 29.8581 30.0978 29.2227C30.5922 28.2489 30.9369 27.1701 31.2664 26.406C31.3084 26.3457 31.3369 26.277 31.35 26.2046C31.3629 26.1323 31.36 26.0579 31.3414 25.9866C31.323 25.9155 31.2893 25.8492 31.2428 25.7922C31.1961 25.7354 31.1377 25.6892 31.0717 25.6569Z" fill="#2B2A29"/>
<path fill-rule="evenodd" clip-rule="evenodd" d="M4.83756 12.2027C4.77847 12.1965 4.71876 12.2021 4.66185 12.2191C4.60492 12.2361 4.55196 12.2642 4.50597 12.3019C4.45999 12.3395 4.42194 12.3858 4.39399 12.4382C4.36603 12.4907 4.34875 12.5481 4.34314 12.6072C4.01068 15.9927 3.93556 19.3985 4.1184 22.7952C4.2168 25.079 4.48221 27.3524 4.91247 29.5973C4.96639 29.853 5.11659 30.0783 5.33197 30.2265C5.80798 30.4455 6.31228 30.5967 6.83022 30.6759C8.32527 30.798 9.82665 30.8231 11.3249 30.7509C13.4075 30.7509 15.8196 30.5711 17.7373 30.4064C17.8042 30.4065 17.8706 30.3929 17.9319 30.366C17.9931 30.3392 18.0481 30.2997 18.0933 30.2504C18.1384 30.201 18.1728 30.1427 18.1941 30.0792C18.2154 30.0158 18.2231 29.9486 18.2167 29.882C18.2149 29.8157 18.1998 29.7504 18.1722 29.6901C18.1446 29.63 18.1052 29.5758 18.0563 29.5311C18.0074 29.4864 17.9499 29.4519 17.8874 29.4299C17.825 29.4077 17.7586 29.3984 17.6925 29.4024H11.3249C9.95241 29.3939 8.5816 29.3039 7.21975 29.1327H6.53057C6.30584 27.9642 6.12604 26.3012 5.93127 24.4583C5.76646 22.8552 5.58667 21.1322 5.46683 19.4541C5.27958 17.2371 5.21457 15.0113 5.27205 12.787C5.29336 12.7192 5.29831 12.6474 5.28648 12.5773C5.27466 12.5072 5.24637 12.441 5.20398 12.384C5.16157 12.3269 5.10625 12.2808 5.04256 12.2493C4.97887 12.2178 4.90861 12.2018 4.83756 12.2027Z" fill="#00A3E2"/>
<path fill-rule="evenodd" clip-rule="evenodd" d="M22.0074 18.1357C22.0973 19.0048 22.2621 19.9336 22.382 21.1323C22.382 21.2515 22.4292 21.3659 22.5135 21.4502C22.5978 21.5345 22.7121 21.5817 22.8314 21.5817C22.9506 21.5817 23.0649 21.5345 23.1492 21.4502C23.2335 21.3659 23.2809 21.2515 23.2809 21.1323C23.4306 19.9786 23.5955 19.0197 23.6405 18.1357C23.6633 17.7066 23.6633 17.2765 23.6405 16.8474C23.6405 16.3828 23.6405 15.9633 23.5056 15.5589C23.3558 14.4801 23.1311 13.5662 22.9512 12.5624C22.9455 12.4954 22.9268 12.4302 22.8957 12.3705C22.8648 12.3108 22.8224 12.2579 22.7708 12.2147C22.7193 12.1715 22.6596 12.139 22.5956 12.1189C22.5314 12.0989 22.4639 12.0917 22.3968 12.0979C22.3305 12.1035 22.2659 12.1224 22.2069 12.1535C22.148 12.1847 22.0959 12.2274 22.0539 12.2792C22.0119 12.331 21.9809 12.3908 21.9626 12.4549C21.9443 12.519 21.9392 12.5861 21.9474 12.6523V16.8923C21.9474 17.3268 21.9624 17.6863 22.0074 18.1357Z" fill="#00A3E2"/>
<path fill-rule="evenodd" clip-rule="evenodd" d="M8.25351 17.252L9.24234 17.3418L11.5496 17.5067H16.359C17.1531 17.5067 17.8572 17.5067 18.4714 17.6115C18.6022 17.6289 18.7347 17.5949 18.8407 17.5166C18.9469 17.4384 19.0187 17.322 19.0408 17.192C19.0625 17.0589 19.0305 16.9226 18.9517 16.8131C18.8731 16.7036 18.7543 16.6298 18.6213 16.6077C17.229 16.2411 15.812 15.9758 14.3813 15.8136C13.4139 15.7385 12.4421 15.7385 11.4747 15.8136L9.30228 16.1282L8.41831 16.2182C7.84899 16.2182 7.87894 16.5477 8.01379 16.8174C7.9812 16.8591 7.96158 16.9094 7.95735 16.962C7.95314 17.0148 7.96451 17.0676 7.99005 17.1138C8.0156 17.1602 8.05419 17.198 8.10104 17.2224C8.14788 17.247 8.2009 17.2572 8.25351 17.252Z" fill="#00A3E2"/>
<path fill-rule="evenodd" clip-rule="evenodd" d="M18.726 22.3908C18.8463 22.4193 18.9727 22.4031 19.0819 22.3454C19.1911 22.2875 19.2756 22.1919 19.3195 22.0766C19.3636 21.9611 19.3641 21.8336 19.321 21.7176C19.278 21.6018 19.1943 21.5057 19.0855 21.4469C17.851 21.2514 16.6045 21.1413 15.3549 21.1173H13.8567C13.3473 21.1173 12.8379 21.1173 12.3585 21.2072C10.8603 21.342 9.60172 21.5967 8.82265 21.7466C8.71936 21.7656 8.62603 21.8204 8.55885 21.9011C8.49168 21.9818 8.4549 22.0835 8.4549 22.1885C8.4549 22.2936 8.49168 22.3953 8.55885 22.476C8.62603 22.5567 8.71936 22.6115 8.82265 22.6305C9.60172 22.6305 10.9052 22.7804 12.3435 22.8252H13.8417C14.3362 22.8252 14.8605 22.8252 15.34 22.7354C17.1678 22.5107 18.6061 22.3608 18.726 22.3908Z" fill="#00A3E2"/>
</g>
<defs>
<clipPath id="clip0_2573_1799">
<rect width="36" height="36" fill="white"/>
</clipPath>
</defs>
</svg>
