<svg width="36" height="36" viewBox="0 0 36 36" fill="none" xmlns="http://www.w3.org/2000/svg">
<g clip-path="url(#clip0_4456_14018)">
<path d="M32.22 20.0602C31.8348 19.7635 31.3862 19.5599 30.9093 19.4652C30.4324 19.3706 29.9401 19.3875 29.4708 19.5145L23.1089 20.977C23.3175 20.4237 23.3887 19.8281 23.3165 19.2412C23.2443 18.6543 23.0309 18.0937 22.6945 17.6074C22.3581 17.1211 21.9088 16.7237 21.385 16.4492C20.8613 16.1746 20.2788 16.0312 19.6875 16.0313H12.6478C12.0936 16.0297 11.5446 16.1381 11.0326 16.3503C10.5206 16.5625 10.0558 16.8742 9.66516 17.2674L6.40125 20.5313H2.25C1.72785 20.5313 1.2271 20.7387 0.857884 21.1079C0.488671 21.4771 0.28125 21.9779 0.28125 22.5V28.125C0.28125 28.6472 0.488671 29.1479 0.857884 29.5171C1.2271 29.8863 1.72785 30.0938 2.25 30.0938H16.875C16.9442 30.0938 17.0132 30.0853 17.0803 30.0685L26.0803 27.8185C26.1229 27.8071 26.1647 27.7931 26.2055 27.7763L31.6645 25.4531L31.7109 25.4321C32.1936 25.191 32.607 24.8311 32.9121 24.3861C33.2172 23.9412 33.404 23.4258 33.455 22.8887C33.5059 22.3516 33.4192 21.8104 33.2032 21.316C32.9871 20.8217 32.6488 20.3904 32.22 20.063V20.0602ZM1.96875 28.125V22.5C1.96875 22.4254 1.99838 22.3539 2.05113 22.3011C2.10387 22.2484 2.17541 22.2188 2.25 22.2188H5.90625V28.4063H2.25C2.17541 28.4063 2.10387 28.3766 2.05113 28.3239C1.99838 28.2711 1.96875 28.1996 1.96875 28.125ZM30.9769 23.9063L25.605 26.1942L16.7709 28.4063H7.59375V21.7252L10.8577 18.4599C11.0922 18.2241 11.3712 18.0372 11.6785 17.91C11.9858 17.7827 12.3152 17.7178 12.6478 17.7188H19.6875C20.2096 17.7188 20.7104 17.9262 21.0796 18.2954C21.4488 18.6646 21.6562 19.1654 21.6562 19.6875C21.6562 20.2097 21.4488 20.7104 21.0796 21.0796C20.7104 21.4488 20.2096 21.6563 19.6875 21.6563H15.75C15.5262 21.6563 15.3116 21.7452 15.1534 21.9034C14.9951 22.0616 14.9062 22.2762 14.9062 22.5C14.9062 22.7238 14.9951 22.9384 15.1534 23.0966C15.3116 23.2549 15.5262 23.3438 15.75 23.3438H20.25C20.3134 23.3438 20.3766 23.3368 20.4384 23.3227L29.8603 21.1556L29.8941 21.1472C30.2487 21.0505 30.6265 21.0883 30.955 21.2532C31.2835 21.4181 31.5394 21.6986 31.6737 22.0408C31.808 22.3829 31.8111 22.7626 31.6825 23.107C31.5539 23.4513 31.3026 23.7359 30.9769 23.9063Z" fill="black"/>
<path d="M23.0619 12.6556C23.4061 12.6555 23.7493 12.6187 24.0857 12.546C24.3387 13.4446 24.8493 14.2495 25.5545 14.8614C26.2597 15.4732 27.1286 15.8652 28.054 15.989C28.9793 16.1128 29.9207 15.963 30.7619 15.558C31.6031 15.153 32.3074 14.5106 32.7877 13.7101C33.2681 12.9095 33.5036 11.9858 33.4651 11.053C33.4267 10.1202 33.1159 9.21904 32.5713 8.46075C32.0266 7.70246 31.2719 7.12022 30.4002 6.78587C29.5285 6.45151 28.578 6.37968 27.666 6.57924C27.4249 5.72271 26.9497 4.95043 26.2937 4.34929C25.6376 3.74815 24.8269 3.34201 23.9526 3.17654C23.0783 3.01107 22.1752 3.09285 21.3449 3.41268C20.5146 3.73251 19.79 4.2777 19.2526 4.98691C18.7152 5.69612 18.3864 6.5412 18.3032 7.4271C18.22 8.31299 18.3856 9.20453 18.7814 10.0014C19.1773 10.7983 19.7876 11.469 20.5438 11.9379C21.3001 12.4068 22.1721 12.6553 23.0619 12.6556ZM31.7807 11.2494C31.7807 11.8613 31.5992 12.4594 31.2593 12.9682C30.9193 13.4769 30.4361 13.8735 29.8708 14.1076C29.3055 14.3418 28.6835 14.4031 28.0833 14.2837C27.4832 14.1643 26.932 13.8697 26.4993 13.437C26.0666 13.0043 25.772 12.4531 25.6526 11.853C25.5332 11.2528 25.5945 10.6308 25.8287 10.0655C26.0628 9.50015 26.4593 9.01698 26.9681 8.67703C27.4769 8.33709 28.075 8.15564 28.6869 8.15564C29.5074 8.15564 30.2943 8.48159 30.8745 9.06178C31.4547 9.64197 31.7807 10.4289 31.7807 11.2494ZM23.0619 4.78064C23.7722 4.7798 24.4609 5.02403 25.012 5.47211C25.5631 5.92019 25.9427 6.54468 26.0867 7.24017C25.4751 7.63676 24.9623 8.16794 24.5874 8.79311C24.2126 9.41828 23.9856 10.1209 23.9239 10.8472C23.4986 10.9697 23.052 10.9996 22.6142 10.9348C22.1764 10.8699 21.7576 10.7119 21.3861 10.4714C21.0145 10.2308 20.6989 9.91339 20.4606 9.54047C20.2222 9.16754 20.0667 8.74781 20.0044 8.30962C19.9422 7.87143 19.9746 7.42499 20.0997 7.00042C20.2247 6.57586 20.4394 6.18307 20.7292 5.84856C21.019 5.51406 21.3772 5.24563 21.7796 5.0614C22.182 4.87717 22.6193 4.78143 23.0619 4.78064Z" fill="#00A3E2"/>
</g>
<defs>
<clipPath id="clip0_4456_14018">
<rect width="36" height="36" fill="white"/>
</clipPath>
</defs>
</svg>
