<svg width="36" height="36" viewBox="0 0 36 36" fill="none" xmlns="http://www.w3.org/2000/svg">
<g clip-path="url(#clip0_3109_9725)">
<path d="M35.4328 14.1917L31.8611 7.04412C31.3774 6.07562 30.2002 5.68257 29.2317 6.16625L25.653 7.95559L18.2142 5.98704C18.0737 5.95063 17.9263 5.95063 17.7858 5.98704L10.347 7.95559L6.76972 6.16625C5.80087 5.68163 4.6226 6.0748 4.1389 7.04412L0.567225 14.1917C0.0833486 15.1598 0.47572 16.3369 1.4437 16.8211L5.245 18.7224L13.031 24.2837C13.1154 24.3445 13.2104 24.3891 13.311 24.4153L22.2717 26.6555C22.34 26.6724 22.41 26.6809 22.4804 26.6807C22.7031 26.6805 22.9166 26.5918 23.074 26.4343L30.818 18.6902L34.5563 16.8211C35.5243 16.3369 35.9167 15.1598 35.4328 14.1917ZM28.0122 19.1145L22.9998 15.099C22.6651 14.8311 22.1823 14.8582 21.8797 15.162C19.2685 17.7928 16.3493 17.4609 14.4885 16.2708C14.4144 16.2251 14.3657 16.1475 14.3569 16.0608C14.3469 15.9814 14.3731 15.9017 14.4283 15.8438L20.5804 9.87934H25.3212L29.2989 17.8348L28.0122 19.1145ZM2.05415 15.1564C2.03099 15.0862 2.03653 15.0097 2.06955 14.9435L5.64263 7.79458C5.69053 7.69951 5.7882 7.63983 5.89465 7.64056C5.9379 7.64062 5.98056 7.65067 6.01926 7.66997L9.1289 9.2241L5.3038 16.8799L2.19416 15.3258C2.12635 15.2907 2.07578 15.2295 2.05415 15.1564ZM22.2227 24.9109L13.8781 22.8248L6.75152 17.734L10.837 9.56433L18 7.66858L20.0722 8.21741C19.9137 8.24823 19.7678 8.32463 19.6521 8.43723L13.2536 14.6467C12.366 15.5338 12.529 17.0149 13.5883 17.6878C16.4193 19.4967 19.8537 19.1565 22.521 16.8631L26.8207 20.3102L22.2227 24.9109ZM33.9458 15.1564C33.9226 15.2269 33.8722 15.2854 33.8058 15.3188L30.6962 16.8799L26.8711 9.2241L29.9807 7.66997C30.0473 7.63657 30.1243 7.63103 30.195 7.65457C30.2655 7.67784 30.324 7.7282 30.3574 7.79458L33.9305 14.9435C33.9635 15.0097 33.969 15.0862 33.9458 15.1564ZM18.2646 29.4039C18.1524 29.8538 17.6968 30.1277 17.2467 30.0157L11.4041 28.5554C11.3033 28.5296 11.2082 28.485 11.1241 28.4238L7.43197 25.7902C6.90546 25.413 6.98476 24.6072 7.57471 24.3399C7.84851 24.2158 8.1677 24.2472 8.41205 24.4223L11.9669 26.9607L17.6528 28.3818C18.1042 28.4946 18.3779 28.9529 18.2632 29.4039H18.2646Z" fill="black"/>
</g>
<defs>
<clipPath id="clip0_3109_9725">
<rect width="36" height="36" fill="white"/>
</clipPath>
</defs>
</svg>
