<svg width="36" height="36" viewBox="0 0 36 36" fill="none" xmlns="http://www.w3.org/2000/svg">
<g clip-path="url(#clip0_2573_1803)">
<path fill-rule="evenodd" clip-rule="evenodd" d="M18.4456 25.9814C18.2775 25.8428 18.0766 25.7496 17.8623 25.7108C17.6478 25.6719 17.4271 25.6886 17.221 25.7592C17.0149 25.83 16.8303 25.9523 16.6849 26.1146C16.5396 26.2769 16.4383 26.4737 16.3906 26.6864C15.7306 28.1864 18.2206 29.1314 18.8506 27.9314C19.3306 26.9864 19.2706 26.3864 18.4456 25.9814Z" fill="#2B2A29"/>
<path fill-rule="evenodd" clip-rule="evenodd" d="M31.9341 6.92722C26.4879 -0.0192956 18.3711 0.475813 14.0502 1.58605C11.7942 2.15763 9.67653 3.17818 7.82383 4.58671C6.46138 5.60342 5.21374 6.76553 4.10302 8.05247C2.97571 9.37677 2.05512 10.8639 1.37243 12.4634C-0.0487637 15.5803 -0.377561 19.0852 0.439162 22.4121C1.25588 25.7388 3.17041 28.693 5.87341 30.7975C8.52156 32.9145 11.6758 34.3045 15.025 34.8307C18.3743 35.3569 21.8028 35.001 24.9726 33.7981C27.9945 32.5635 30.6237 30.5305 32.5793 27.9168C34.6104 25.335 35.804 22.194 36 18.9148C35.9904 14.5821 34.5624 10.3717 31.9341 6.92722ZM31.2439 26.8516C29.451 29.1736 27.0675 30.9715 24.3424 32.0577C21.4723 33.1312 18.374 33.4467 15.3465 32.9737C12.3189 32.5006 9.46446 31.255 7.05867 29.3571C4.61808 27.5068 2.86881 24.8913 2.09086 21.9291C1.3129 18.9669 1.55124 15.8293 2.76772 13.0186C3.35785 11.5589 4.16736 10.198 5.16825 8.98268C6.18504 7.72028 7.33717 6.57318 8.60402 5.56192C10.307 4.22296 12.2608 3.23842 14.3503 2.66629C16.8558 1.96114 25.3626 0.385794 30.8538 7.7374C33.2726 10.9417 34.5648 14.8553 34.5297 18.8698C34.2594 21.7996 33.1147 24.5806 31.2439 26.8516Z" fill="#00A3E2"/>
<path fill-rule="evenodd" clip-rule="evenodd" d="M19.0763 8.00746C18.2421 7.77381 17.3631 7.75018 16.5176 7.93866C15.672 8.12713 14.8862 8.52187 14.2303 9.08769C13.5762 9.71056 13.1131 10.5068 12.895 11.3832C12.6036 12.5945 12.6294 13.8606 12.97 15.059C12.9978 15.1844 13.0743 15.2934 13.1827 15.3624C13.291 15.4314 13.4223 15.4544 13.5476 15.4266C13.673 15.3987 13.7821 15.3222 13.851 15.2139C13.92 15.1056 13.943 14.9743 13.9152 14.8489C13.743 13.9822 13.743 13.0901 13.9152 12.2234C14.0704 11.4272 14.5071 10.7135 15.1455 10.2129C15.6339 9.86727 16.1985 9.6445 16.7915 9.56353C17.3843 9.48256 17.988 9.54579 18.5513 9.74784C19.1277 9.8974 19.6625 10.1765 20.1149 10.5639C20.5673 10.9513 20.9253 11.4367 21.1617 11.9833C21.3585 12.3768 21.4496 12.8147 21.4259 13.254C21.4023 13.6933 21.2648 14.1188 21.0267 14.4889C20.0966 15.8541 18.3861 16.9344 17.456 18.4047C16.9973 19.1088 16.7619 19.9352 16.7808 20.7752C16.7712 21.5555 16.914 22.3301 17.201 23.0558C17.2458 23.1942 17.3432 23.3097 17.4723 23.3771C17.6015 23.4444 17.7518 23.4584 17.8911 23.4158C18.0335 23.3708 18.1526 23.2718 18.2228 23.1399C18.2928 23.0081 18.3084 22.8539 18.2661 22.7106C18.0762 22.0994 17.9951 21.4596 18.0261 20.8203C18.0713 20.2347 18.2792 19.6736 18.6263 19.1999C19.4117 18.3078 20.2865 17.4984 21.2369 16.7844C21.9956 16.1922 22.6067 15.4322 23.0222 14.5639C23.2376 14.0456 23.3486 13.4898 23.3486 12.9285C23.3486 12.3672 23.2376 11.8115 23.0222 11.2932C22.6734 10.471 22.1334 9.74397 21.4472 9.1725C20.7609 8.60101 19.9481 8.20159 19.0763 8.00746Z" fill="#2B2A29"/>
</g>
<defs>
<clipPath id="clip0_2573_1803">
<rect width="36" height="36" fill="white"/>
</clipPath>
</defs>
</svg>
