<svg width="36" height="36" viewBox="0 0 36 36" fill="none" xmlns="http://www.w3.org/2000/svg">
<g clip-path="url(#clip0_2672_3690)">
<path d="M15.5788 26.3012C15.5788 26.8742 16.0434 27.3388 16.6165 27.3388C17.9537 27.3389 19.0377 26.2549 19.0377 24.9176V18C19.0377 17.809 19.1925 17.6541 19.3835 17.6541C20.1823 17.6541 20.6816 16.7894 20.2822 16.0976C20.0968 15.7766 19.7543 15.5788 19.3835 15.5788C18.0464 15.5788 16.9624 16.6628 16.9624 18V24.9176C16.9624 25.1087 16.8075 25.2635 16.6165 25.2635C16.0434 25.2635 15.5788 25.7281 15.5788 26.3012ZM18.6918 12.12C17.3605 12.12 16.5284 10.6788 17.1941 9.52587C17.8597 8.37292 19.5238 8.37292 20.1895 9.52587C20.3413 9.78876 20.4212 10.087 20.4212 10.3906C20.4212 11.3457 19.6469 12.12 18.6918 12.12ZM0.360012 18C0.360012 31.5793 15.06 40.0663 26.82 33.2767C38.58 26.487 38.58 9.51293 26.82 2.7233C24.1386 1.1752 21.0962 0.360126 18 0.359985C8.26245 0.371418 0.371445 8.26242 0.360012 18ZM2.4353 18C2.4353 6.01827 15.4059 -1.47031 25.7824 4.52056C36.1588 10.5114 36.1588 25.4886 25.7824 31.4794C23.4162 32.8455 20.7322 33.5647 18 33.5647C9.40781 33.5551 2.44484 26.5922 2.4353 18Z" fill="#2B2A29"/>
</g>
<defs>
<clipPath id="clip0_2672_3690">
<rect width="36" height="36" fill="white" transform="matrix(-1 0 0 1 36 0)"/>
</clipPath>
</defs>
</svg>
