<svg width="36" height="36" viewBox="0 0 36 36" fill="none" xmlns="http://www.w3.org/2000/svg">
<g clip-path="url(#clip0_2573_1802)">
<path d="M30.6423 15.4067C30.5795 15.3431 30.5048 15.2927 30.4224 15.2583C30.3399 15.2238 30.2516 15.2061 30.1623 15.2061C30.0731 15.2061 29.9846 15.2238 29.9022 15.2583C29.8199 15.2927 29.745 15.3431 29.6823 15.4067C29.1857 15.8715 28.7244 16.3729 28.3023 16.9067C27.6573 17.6867 27.0723 18.5267 26.4723 19.2917C25.2123 20.9417 23.9523 22.5766 22.6323 24.1816C21.7623 25.2466 20.8623 26.2966 19.9323 27.3167C19.2573 28.0816 18.4323 29.1616 17.4573 30.1067C16.9295 30.6975 16.3356 31.2259 15.6873 31.6816C14.967 32.0012 14.1878 32.1663 13.3998 32.1663C12.6118 32.1663 11.8325 32.0012 11.1123 31.6816C9.54269 31.1745 8.14887 30.2332 7.09227 28.9667C6.72683 28.4769 6.48204 27.9079 6.37778 27.3058C6.27353 26.7037 6.31275 26.0856 6.49227 25.5017C7.16261 23.5788 8.07494 21.7491 9.20727 20.0567C9.59727 19.3667 9.98727 18.6916 10.4073 18.0166C10.8273 17.3417 11.2323 16.6817 11.6823 16.0366L13.8423 13.0366C14.9523 11.5366 16.0773 10.0366 17.3373 8.53658C18.147 7.60032 19.052 6.75075 20.0373 6.00157C20.4573 5.68657 20.8773 5.32657 21.3123 5.04157C21.5579 4.87137 21.8253 4.73514 22.1073 4.63657C22.9455 4.3969 23.8341 4.3969 24.6723 4.63657C25.5545 4.8778 26.3906 5.26299 27.1473 5.77657C27.5243 6.02961 27.8187 6.38744 27.9947 6.80592C28.1706 7.22442 28.2203 7.68525 28.1373 8.13158C27.8354 9.7215 27.1332 11.2083 26.0973 12.4516L24.8973 13.9516L23.3973 15.9616L21.3723 18.6767L18.8973 22.0066C18.4139 22.6607 17.8877 23.2819 17.3223 23.8666C16.7694 24.4445 16.1442 24.9486 15.4623 25.3666C15.062 25.5737 14.622 25.6927 14.1719 25.716C13.7217 25.7394 13.2718 25.6662 12.8523 25.5017C12.456 25.4073 12.1054 25.1771 11.8614 24.851C11.6175 24.5247 11.4957 24.1233 11.5173 23.7167C11.6176 23.0324 11.8742 22.3804 12.2673 21.8116C12.8973 20.7766 13.7673 19.7866 14.3073 19.0066C14.8473 18.2266 15.5823 17.1616 16.2723 16.2766C16.7235 15.7072 17.2256 15.1802 17.7723 14.7016C17.8505 14.6515 17.9169 14.5852 17.9672 14.5071C18.0173 14.4291 18.0501 14.3411 18.0632 14.2492C18.0762 14.1573 18.0693 14.0636 18.0429 13.9747C18.0164 13.8857 17.9711 13.8035 17.91 13.7336C17.8488 13.6637 17.7734 13.6079 17.6888 13.5699C17.604 13.5319 17.5121 13.5126 17.4194 13.5133C17.3265 13.5141 17.2349 13.5349 17.1509 13.5743C17.0669 13.6137 16.9923 13.6707 16.9323 13.7416C16.3476 14.2791 15.8106 14.8663 15.3273 15.4967C14.6373 16.3967 14.0073 17.3716 13.3623 18.2717C12.7173 19.1716 11.8623 20.1017 11.2773 21.1817C10.7903 21.9109 10.4773 22.7423 10.3623 23.6117C10.3166 24.1596 10.4348 24.7089 10.7019 25.1895C10.969 25.6702 11.3729 26.0609 11.8623 26.3116C12.5108 26.6873 13.2429 26.895 13.992 26.916C14.7412 26.9368 15.4838 26.7703 16.1523 26.4316C16.7727 26.0718 17.3513 25.6441 17.8773 25.1566C18.6398 24.4296 19.3421 23.642 19.9773 22.8017L22.3473 19.5016L24.4323 16.7417L25.9323 14.7916L27.1323 13.2916C28.332 11.8595 29.1476 10.1458 29.5023 8.31157C29.6253 7.61439 29.5416 6.89646 29.2619 6.24617C28.982 5.59587 28.5182 5.0416 27.9273 4.65157C27.0425 4.04037 26.0577 3.58857 25.0173 3.31658C23.9295 3.00239 22.7751 3.00239 21.6873 3.31658C21.281 3.44855 20.8967 3.64068 20.5473 3.88657C20.0973 4.18657 19.6623 4.56157 19.2273 4.89157C18.1734 5.70252 17.2037 6.6171 16.3323 7.62157C15.0573 9.12157 13.9323 10.7116 12.8073 12.2566L10.6623 15.3617C10.2123 16.0367 9.77727 16.7116 9.35727 17.4016C8.93727 18.0917 8.56227 18.7966 8.17227 19.5016C6.99966 21.2943 6.06201 23.2301 5.38227 25.2617C5.16234 26.013 5.12381 26.8059 5.26983 27.5751C5.41586 28.3444 5.74227 29.068 6.22227 29.6866C7.40195 31.1192 8.9616 32.1902 10.7223 32.7767C11.603 33.1512 12.5533 33.3342 13.5102 33.3135C14.467 33.2928 15.4086 33.0688 16.2723 32.6566C16.8119 32.286 17.3142 31.8641 17.7723 31.3967C18.8523 30.3467 19.9473 29.0266 20.7723 28.1566C21.5973 27.2866 22.6323 26.0717 23.5323 25.0067C24.8823 23.4017 26.1723 21.7666 27.4623 20.1316C28.0623 19.3666 28.6623 18.5567 29.2923 17.7766C29.691 17.2836 30.122 16.8175 30.5823 16.3816C30.6503 16.3215 30.7059 16.2487 30.7457 16.1672C30.7856 16.0857 30.809 15.997 30.8145 15.9064C30.8201 15.816 30.8078 15.7253 30.7782 15.6395C30.7487 15.5536 30.7025 15.4745 30.6423 15.4067Z" fill="#2B2A29"/>
<path d="M3.65736 23.0566C3.65736 23.3416 2.29236 22.7716 1.09236 23.4016C-0.497642 24.2566 -0.182642 22.2166 0.957358 22.0666C2.47236 21.8566 3.79236 22.4116 3.65736 23.0566Z" fill="#00A3E2"/>
<path d="M7.9624 13.2316C8.0674 12.9466 6.8524 12.1666 6.1474 10.9966C5.2024 9.49664 4.4374 11.3866 5.3524 12.0916C6.5524 13.0366 7.7524 13.8466 7.9624 13.2316Z" fill="#00A3E2"/>
<path d="M14.6374 4.87658C14.3374 4.87658 14.4424 3.49658 13.4224 2.58158C12.0874 1.36658 14.1124 0.976577 14.6524 1.99658C15.3575 3.34658 15.2825 4.78658 14.6374 4.87658Z" fill="#00A3E2"/>
<path d="M20.1571 31.1262C19.9021 31.3062 20.9521 32.2812 20.8321 33.6312C20.6671 35.4312 22.4221 34.3362 22.1221 33.2412C21.7021 31.7562 20.6821 30.7662 20.1571 31.1262Z" fill="#00A3E2"/>
<path d="M27.5074 23.3265C27.7324 23.1315 28.9174 23.9265 30.2674 24.1365C32.0524 24.3915 30.5824 25.8465 29.5774 25.2915C28.2424 24.5565 26.9974 23.7615 27.5074 23.3265Z" fill="#00A3E2"/>
<path d="M32.337 13.5765C32.337 13.8765 33.687 13.2465 34.917 13.8465C36.537 14.6415 36.147 12.6165 35.007 12.4965C33.477 12.3465 32.187 12.9465 32.337 13.5765Z" fill="#00A3E2"/>
</g>
<defs>
<clipPath id="clip0_2573_1802">
<rect width="36" height="36" fill="white"/>
</clipPath>
</defs>
</svg>
