<svg width="36" height="36" viewBox="0 0 36 36" fill="none" xmlns="http://www.w3.org/2000/svg">
<g clip-path="url(#clip0_2823_9741)">
<path d="M0.360016 17.9999C0.360016 18.6218 0.864128 19.1259 1.48597 19.1259H34.5141C35.3808 19.1259 35.9225 18.1876 35.4892 17.437C35.288 17.0886 34.9163 16.874 34.5141 16.874H1.48597C0.864128 16.874 0.360016 17.3781 0.360016 17.9999ZM34.5141 7.1157H1.48597C0.619217 7.1157 0.0774879 6.17739 0.510864 5.42675C0.712002 5.07838 1.08372 4.86377 1.48597 4.86377H34.5141C35.3808 4.86377 35.9225 5.80208 35.4892 6.55272C35.288 6.90109 34.9163 7.1157 34.5141 7.1157ZM1.48597 28.8842H34.5141C35.3808 28.8842 35.9225 29.8225 35.4892 30.5731C35.288 30.9215 34.9163 31.1361 34.5141 31.1361H1.48597C0.619217 31.1361 0.0774689 30.1978 0.510891 29.4471C0.712029 29.0988 1.08373 28.8842 1.48597 28.8842Z" fill="black"/>
</g>
<defs>
<clipPath id="clip0_2823_9741">
<rect width="36" height="36" fill="white" transform="matrix(-1 0 0 1 36 0)"/>
</clipPath>
</defs>
</svg>
