<svg width="36" height="36" viewBox="0 0 36 36" fill="none" xmlns="http://www.w3.org/2000/svg">
<g clip-path="url(#clip0_2573_1935)">
<path fill-rule="evenodd" clip-rule="evenodd" d="M18.372 0.136281C18.33 0.0931538 18.2798 0.0588739 18.2244 0.0354667C18.1689 0.0120597 18.1094 0 18.0492 0C17.9891 0 17.9295 0.0120597 17.874 0.0354667C17.8185 0.0588739 17.7684 0.0931538 17.7264 0.136281C17.7264 0.136281 17.6063 -0.0288622 17.3361 2.82362V4.94046C17.3361 5.69112 17.5163 6.36671 17.5763 6.84713C17.6363 7.32755 17.7864 7.79295 18.1167 7.79295C18.2633 7.80147 18.4074 7.75317 18.5193 7.6581C18.6312 7.56303 18.702 7.42851 18.7173 7.2825C18.7173 6.80208 18.9575 5.7812 19.0175 4.71527C19.0553 4.15041 19.0553 3.58365 19.0175 3.0188C18.9575 2.02968 18.7395 1.05655 18.372 0.136281Z" fill="#00A3E2"/>
<path fill-rule="evenodd" clip-rule="evenodd" d="M18.0417 31.6336C17.9835 31.6228 17.9238 31.6236 17.8659 31.6357C17.808 31.648 17.7531 31.6716 17.7043 31.705C17.6554 31.7385 17.6137 31.7812 17.5815 31.8307C17.5492 31.8804 17.527 31.9359 17.5162 31.9941C17.332 32.4489 17.1961 32.922 17.1108 33.4053C17.1034 33.5101 17.1034 33.6156 17.1108 33.7206C17.0955 33.9405 17.0955 34.1611 17.1108 34.381C17.17 34.7125 17.2554 35.0389 17.3661 35.3569V35.6872C17.4411 36.0175 17.6814 36.0325 17.9065 35.9725C18.1317 35.9124 18.477 36.0925 18.6871 34.366C18.7101 34.1464 18.7101 33.9252 18.6871 33.7054C18.7029 33.5457 18.7029 33.3849 18.6871 33.2251C18.387 31.6938 18.2518 31.6788 18.0417 31.6336Z" fill="#2B2A29"/>
<path fill-rule="evenodd" clip-rule="evenodd" d="M33.9706 19.323C33.5214 19.1409 33.0529 19.01 32.5744 18.9326C32.4648 18.9185 32.3538 18.9185 32.2441 18.9326C32.0245 18.9098 31.8031 18.9098 31.5835 18.9326C31.2541 18.995 30.9283 19.0752 30.6076 19.1729L30.2775 19.2629C29.9472 19.338 29.9322 19.5782 29.9922 19.8035C29.887 20.2988 30.3225 20.2988 30.6228 20.3739C30.9229 20.4489 31.2082 20.5241 31.6135 20.5841C31.8285 20.5991 32.0442 20.5991 32.2591 20.5841C32.4219 20.57 32.5828 20.5398 32.7396 20.4941C34.2409 20.1488 34.2409 20.0286 34.3309 19.8035C34.3405 19.6931 34.309 19.583 34.2426 19.4943C34.1761 19.4058 34.0792 19.3448 33.9706 19.323Z" fill="#2B2A29"/>
<path fill-rule="evenodd" clip-rule="evenodd" d="M4.04953 20.6592H4.52995C6.03126 20.2989 6.03126 20.1787 6.03126 19.9686C6.0535 19.8493 6.02829 19.726 5.96098 19.6251C5.89368 19.5241 5.78961 19.4535 5.67094 19.4281C5.22073 19.2487 4.75269 19.1178 4.27473 19.0377H3.94444C3.72951 19.0228 3.51381 19.0228 3.29887 19.0377C2.96412 19.1044 2.63332 19.1896 2.30802 19.293L1.99273 19.368C1.9335 19.3759 1.87701 19.398 1.82799 19.4322C1.77897 19.4665 1.73884 19.512 1.71093 19.5648C1.68303 19.6177 1.66816 19.6764 1.66756 19.7362C1.66696 19.7961 1.68066 19.855 1.70749 19.9084C1.58739 20.4189 2.03778 20.4189 2.33805 20.479C2.65839 20.5702 2.98437 20.6404 3.31389 20.6892C3.55944 20.7075 3.80629 20.6974 4.04953 20.6592Z" fill="#2B2A29"/>
<path fill-rule="evenodd" clip-rule="evenodd" d="M26.6892 11.5162C26.9595 11.9516 27.2748 11.6513 27.5449 11.5162C27.8152 11.3811 28.0704 11.2309 28.4007 10.9907C28.5829 10.8428 28.7445 10.6711 28.8811 10.4803C28.9939 10.3605 29.0946 10.2298 29.1814 10.0899C30.0522 8.78381 29.977 8.67872 29.857 8.49857C29.7897 8.39897 29.6865 8.32928 29.5689 8.30409C29.4513 8.27891 29.3286 8.30018 29.2264 8.36345C28.774 8.54387 28.3414 8.77025 27.9352 9.03903L27.6801 9.24921C27.5191 9.39434 27.3733 9.55529 27.2446 9.72963C27.0486 10.0045 26.8681 10.2902 26.7042 10.5854L26.524 10.8706C26.4774 10.9185 26.4438 10.9777 26.4265 11.0423C26.4093 11.1069 26.409 11.1749 26.4255 11.2397C26.4421 11.3046 26.475 11.364 26.5212 11.4124C26.5674 11.4608 26.6253 11.4966 26.6892 11.5162Z" fill="#2B2A29"/>
<path fill-rule="evenodd" clip-rule="evenodd" d="M8.82366 27.8955C8.3713 28.0759 7.93866 28.3023 7.53253 28.5711L7.27731 28.7812C7.11565 28.9302 6.96513 29.0908 6.82692 29.2617C6.58671 29.592 6.43657 29.9073 6.30147 30.1174L6.1213 30.4027C6.08452 30.4506 6.05935 30.5062 6.04774 30.5655C6.03615 30.6247 6.03843 30.6858 6.05443 30.744C6.07044 30.8022 6.09972 30.8559 6.13998 30.9009C6.18024 30.9459 6.23037 30.9808 6.28645 31.0032C6.55668 31.4386 6.87196 31.1383 7.14219 31.0032C7.41243 30.868 7.66765 30.718 7.99794 30.4777C8.17453 30.3349 8.33556 30.174 8.47836 29.9973C8.59123 29.8776 8.69182 29.7468 8.77861 29.607C9.64938 28.3009 9.5593 28.1958 9.4392 28.0156C9.4074 27.9664 9.36603 27.9241 9.31753 27.8914C9.26904 27.8586 9.21442 27.8359 9.15696 27.8247C9.09949 27.8134 9.04036 27.814 8.98309 27.8262C8.92582 27.8383 8.8716 27.8619 8.82366 27.8955Z" fill="#2B2A29"/>
<path fill-rule="evenodd" clip-rule="evenodd" d="M28.671 29.757C28.614 29.6621 28.5431 29.5761 28.4609 29.5019C28.3157 29.3366 28.1547 29.1858 27.9804 29.0514C27.7067 28.8582 27.4209 28.6827 27.1247 28.526L26.8395 28.3458C26.7929 28.3089 26.7383 28.2837 26.6801 28.272C26.6219 28.2603 26.5617 28.2627 26.5046 28.2788C26.4474 28.295 26.3949 28.3244 26.3513 28.3647C26.3078 28.4051 26.2743 28.4552 26.2539 28.511C25.9988 28.6611 25.7736 28.8113 26.8095 30.2225C26.9372 30.393 27.0777 30.5537 27.2298 30.7029C27.365 30.8231 27.5001 30.9131 27.6201 31.0032C28.9413 31.859 29.0313 31.7838 29.2266 31.6638C29.2775 31.6335 29.3214 31.5929 29.3555 31.5444C29.3895 31.496 29.4131 31.4409 29.4245 31.3829C29.4357 31.3248 29.4347 31.265 29.4213 31.2072C29.4078 31.1496 29.3825 31.0953 29.3466 31.0482C29.1731 30.5927 28.9464 30.1593 28.671 29.757Z" fill="#2B2A29"/>
<path fill-rule="evenodd" clip-rule="evenodd" d="M9.03375 9.12918C8.54755 8.66203 7.99638 8.26761 7.39732 7.95817C7.12708 7.77801 6.93192 7.95817 6.81181 8.13832C6.37644 8.39355 6.67669 8.72383 6.81181 8.97906C6.96853 9.27522 7.14403 9.56106 7.33726 9.83479C7.46175 10.017 7.60794 10.1834 7.77265 10.3302C7.8924 10.4431 8.02317 10.5437 8.16298 10.6305C9.46912 11.4862 9.57421 11.4112 9.75438 11.2911C9.85396 11.2238 9.92365 11.1205 9.94884 11.003C9.97402 10.8855 9.95275 10.7627 9.8895 10.6605C9.68256 10.1101 9.39409 9.59389 9.03375 9.12918Z" fill="#2B2A29"/>
<path fill-rule="evenodd" clip-rule="evenodd" d="M14.1233 7.70287C14.0989 7.37009 14.0538 7.03915 13.9881 6.712C13.9406 6.49983 13.8701 6.29343 13.778 6.09646C13.7161 5.94204 13.6354 5.7958 13.5377 5.66109C12.682 4.35495 12.5619 4.38498 12.3367 4.41501C12.2303 4.44966 12.1407 4.52266 12.0852 4.61979C12.0297 4.71691 12.0123 4.83123 12.0364 4.94046C12.0096 5.44332 12.0449 5.94756 12.1415 6.44176C12.1646 6.54873 12.1947 6.65405 12.2316 6.75705C12.3062 6.96382 12.3966 7.16458 12.5018 7.35757C12.6753 7.64398 12.8658 7.91971 13.0723 8.1833C13.2225 8.40849 13.4176 8.8739 13.868 8.5436C14.3184 8.42351 14.1683 8.01814 14.1233 7.70287Z" fill="#2B2A29"/>
<path fill-rule="evenodd" clip-rule="evenodd" d="M23.9419 34.1559C23.9419 33.9006 23.9419 33.5553 23.8068 33.165C23.7525 32.9549 23.6823 32.7491 23.5966 32.5496C23.5287 32.3981 23.4483 32.2524 23.3563 32.1141C22.5006 30.7929 22.3654 30.8381 22.1553 30.8681C22.0386 30.8934 21.9355 30.9612 21.8662 31.0583C21.7968 31.1555 21.766 31.275 21.78 31.3935C21.7713 31.8966 21.8115 32.3994 21.9001 32.8949C21.916 33.0035 21.9463 33.1094 21.9901 33.21C22.0648 33.4169 22.1551 33.6176 22.2604 33.8106C22.4338 34.097 22.6243 34.3728 22.8309 34.6364C22.981 34.8615 23.1762 35.327 23.6266 34.9967C24.1371 34.8765 24.0469 34.5012 23.9419 34.1559Z" fill="#2B2A29"/>
<path fill-rule="evenodd" clip-rule="evenodd" d="M29.3317 14.9843C29.2774 15.0123 29.2308 15.0532 29.1958 15.1035C29.161 15.1536 29.139 15.2115 29.1315 15.2722C29.1241 15.3328 29.1316 15.3943 29.1534 15.4515C29.1753 15.5086 29.2107 15.5595 29.2566 15.5998C29.2566 16.1103 29.737 15.9601 30.0373 15.9151C30.3375 15.87 30.6378 15.9151 31.0431 15.765C31.2537 15.7183 31.4598 15.6531 31.6587 15.5698L32.079 15.3295C33.3852 14.4738 33.3552 14.3387 33.3252 14.1285C33.316 14.069 33.2952 14.0119 33.2637 13.9606C33.2322 13.9093 33.1906 13.8649 33.1417 13.8299C33.0927 13.7949 33.0372 13.7701 32.9784 13.7569C32.9197 13.7437 32.859 13.7424 32.7997 13.7532C32.2963 13.7339 31.7923 13.7742 31.2984 13.8733L30.9831 13.9633C30.7752 14.0351 30.5742 14.1256 30.3826 14.2336C30.0916 14.4075 29.8108 14.5979 29.5419 14.8041L29.3317 14.9843Z" fill="#2B2A29"/>
<path fill-rule="evenodd" clip-rule="evenodd" d="M6.88701 23.992C6.87794 23.9325 6.85703 23.8755 6.82551 23.8242C6.79401 23.7729 6.75254 23.7283 6.70355 23.6934C6.65456 23.6584 6.59906 23.6335 6.54032 23.6205C6.48158 23.6073 6.42078 23.6059 6.36155 23.6167C5.85813 23.5975 5.35421 23.6377 4.86024 23.7369C4.7456 23.7555 4.63431 23.7909 4.52996 23.8419C4.32435 23.9194 4.1238 24.0097 3.92943 24.1122C3.58413 24.3073 3.32891 24.5325 3.10371 24.6826L2.83347 24.8628C2.78393 24.8974 2.74346 24.9435 2.71551 24.997C2.68757 25.0506 2.67297 25.1101 2.67297 25.1706C2.67297 25.231 2.68757 25.2906 2.71551 25.3441C2.74346 25.3977 2.78393 25.4437 2.83347 25.4784C2.83347 25.9888 3.31389 25.8387 3.61416 25.7935C3.91442 25.7485 4.21469 25.7935 4.60502 25.6435C4.81445 25.6128 5.02053 25.5625 5.22056 25.4934C5.55084 25.2982 6.94706 24.3673 6.88701 23.992Z" fill="#2B2A29"/>
<path fill-rule="evenodd" clip-rule="evenodd" d="M24.5724 5.2106C24.2045 5.52999 23.8767 5.89298 23.5965 6.29154C23.5328 6.38129 23.4774 6.47679 23.4314 6.5768C23.3274 6.76838 23.2419 6.96947 23.1762 7.17732C23.0561 7.56765 23.0261 7.91295 22.9659 8.16818C22.9059 8.4234 22.9659 8.43842 22.9659 8.49846C22.8909 8.82875 23.0861 8.94885 23.3262 8.9939C23.7317 9.30917 23.9118 8.9939 24.107 8.66361C24.332 8.41574 24.5426 8.15508 24.7376 7.88294C24.8577 7.70409 24.9585 7.51283 25.0377 7.31243C25.1082 7.15938 25.1586 6.99792 25.1879 6.83202C25.5482 5.3307 25.4282 5.24063 25.263 5.12052C25.2158 5.07218 25.158 5.03549 25.0941 5.01335C25.0302 4.99121 24.9621 4.98423 24.8952 4.99298C24.8282 5.00172 24.7641 5.02593 24.7082 5.0637C24.6521 5.10147 24.6056 5.15177 24.5724 5.2106Z" fill="#2B2A29"/>
<path fill-rule="evenodd" clip-rule="evenodd" d="M12.2166 30.5678C11.8571 30.8957 11.5303 31.2576 11.2408 31.6488L11.0756 31.934C10.969 32.1296 10.8834 32.3358 10.8204 32.5496C10.7318 32.8748 10.6666 33.2058 10.6252 33.5405V33.8706C10.6252 34.1859 10.7603 34.3211 10.9856 34.3511C11.2108 34.3811 11.4359 34.6964 12.3968 33.2552C12.5195 33.0701 12.6251 32.874 12.7121 32.6696C12.7709 32.5188 12.8161 32.3631 12.8472 32.2043C13.2075 30.7029 13.0874 30.6129 12.8472 30.4778C12.7516 30.4061 12.6315 30.3753 12.5132 30.3921C12.395 30.4091 12.2883 30.4722 12.2166 30.5678Z" fill="#2B2A29"/>
<path fill-rule="evenodd" clip-rule="evenodd" d="M31.5535 25.4032L31.2683 25.2381C31.0685 25.1451 30.8628 25.0648 30.6528 24.9979C30.2623 24.8778 29.917 24.8478 29.6619 24.7876L29.3316 24.7126C29.0163 24.7126 28.8811 24.8478 28.8361 25.0879C28.5208 25.4782 28.9263 25.6735 29.1664 25.8687C29.4066 26.0638 29.6169 26.274 29.9472 26.4991C30.1359 26.6112 30.3315 26.7115 30.5327 26.7994L30.9981 26.9496C32.4993 27.2949 32.5895 27.1897 32.7246 26.9496C32.7962 26.854 32.827 26.7339 32.8101 26.6157C32.7931 26.4973 32.73 26.3907 32.6344 26.319C32.3038 25.9804 31.9419 25.6737 31.5535 25.4032Z" fill="#2B2A29"/>
<path fill-rule="evenodd" clip-rule="evenodd" d="M3.70413 13.4829C3.96569 13.729 4.2414 13.9596 4.52985 14.1735C4.70673 14.297 4.89839 14.3979 5.10035 14.4738C5.2482 14.544 5.4047 14.5945 5.56575 14.6239C7.06706 14.9692 7.17215 14.8641 7.29225 14.6239C7.36392 14.5283 7.3947 14.4082 7.37781 14.29C7.36092 14.1717 7.29774 14.065 7.20218 13.9933C6.84488 13.6524 6.45233 13.3504 6.03116 13.0926C5.94141 13.0288 5.84592 12.9735 5.74592 12.9274C5.13842 12.6483 4.48923 12.4708 3.82424 12.402C3.7674 12.3827 3.70677 12.3774 3.64746 12.3865C3.58815 12.3955 3.53187 12.4187 3.48335 12.454C3.43482 12.4893 3.39546 12.5357 3.36858 12.5893C3.34169 12.643 3.32805 12.7023 3.3288 12.7623C3.02855 13.1676 3.46392 13.3628 3.70413 13.4829Z" fill="#2B2A29"/>
</g>
<defs>
<clipPath id="clip0_2573_1935">
<rect width="36" height="36" fill="white"/>
</clipPath>
</defs>
</svg>
