<svg width="36" height="36" viewBox="0 0 36 36" fill="none" xmlns="http://www.w3.org/2000/svg">
<g clip-path="url(#clip0_2573_1797)">
<path fill-rule="evenodd" clip-rule="evenodd" d="M10.7852 25.3311C10.8638 25.3308 10.9418 25.3468 11.014 25.3783C11.0861 25.4097 11.1509 25.4556 11.2045 25.5133C11.258 25.5711 11.299 25.6392 11.3248 25.7136C11.3506 25.788 11.3606 25.8669 11.3545 25.9453C11.2565 27.4788 11.2966 29.0181 11.4743 30.5443C11.6323 31.4739 12.0475 32.3406 12.6728 33.0462C13.1426 33.4008 13.6936 33.6325 14.2757 33.7203C17.0075 34.3288 19.8128 34.5406 22.6051 34.3495C26.3952 34.1398 30.2453 33.3309 31.9981 31.3533C32.4803 30.4245 32.7563 29.4025 32.807 28.3572C33.3834 23.5806 33.5038 18.76 33.1666 13.9606C33.0426 11.182 32.6462 8.42229 31.9831 5.72115C31.7928 4.71756 31.3317 3.7851 30.6498 3.0246C29.3165 1.96095 26.1555 1.6913 22.7699 1.73625C18.9071 1.70925 15.055 2.14173 11.2945 3.0246C10.9201 3.15942 10.6204 3.489 10.4855 3.38414C10.2355 4.10645 10.1138 4.86698 10.126 5.63126C10.126 7.03946 10.216 8.62743 10.216 9.54126C10.22 9.61062 10.2098 9.6801 10.1861 9.7454C10.1623 9.81069 10.1255 9.87044 10.0777 9.92096C10.03 9.97148 9.97253 10.0117 9.90863 10.0391C9.84488 10.0666 9.77603 10.0807 9.70658 10.0806C9.63773 10.0826 9.56918 10.071 9.50468 10.0464C9.44033 10.0219 9.38138 9.98496 9.33143 9.93765C9.28133 9.89036 9.24098 9.83364 9.21278 9.77078C9.18473 9.7079 9.16913 9.64008 9.16734 9.57122C9.16734 8.4177 8.91264 6.57506 8.98748 4.92716C9.00504 4.19306 9.15203 3.46782 9.42188 2.7849C9.79328 2.30225 10.3243 1.96766 10.9201 1.84112C14.7659 0.755757 18.7306 0.14697 22.7249 0.0284326C26.6349 -0.121376 30.2153 0.298088 31.8033 1.52651C32.8251 2.51363 33.5337 3.7797 33.8407 5.16686C34.5974 7.99178 35.0494 10.8896 35.189 13.8108C35.5421 18.7573 35.3865 23.7271 34.7246 28.6419C34.6022 30.0477 34.145 31.4038 33.3913 32.5968C31.3239 34.8139 26.9795 35.8176 22.68 35.9824C17.5865 36.1473 12.5978 35.0836 11.639 33.96C10.853 33.0678 10.3339 31.9723 10.141 30.799C9.99083 29.1796 9.99083 27.5497 10.141 25.9303C10.1408 25.8477 10.1576 25.7659 10.1905 25.69C10.2235 25.6143 10.2716 25.5462 10.3321 25.4898C10.3925 25.4335 10.4641 25.3905 10.5421 25.363C10.6201 25.3357 10.7027 25.3249 10.7852 25.3311Z" fill="#2B2A29"/>
<path fill-rule="evenodd" clip-rule="evenodd" d="M1.27322 14.3499C4.68887 15.0241 8.31422 15.5783 11.9696 16.1476C14.3216 16.5221 16.7034 16.9117 19.0554 17.1514C21.003 17.3461 22.9355 17.4509 24.8381 17.4659L23.5048 16.1926C22.4561 15.2188 21.4224 14.245 20.5086 13.1963L17.048 9.07661C16.9544 8.97439 16.9023 8.84077 16.9023 8.70209C16.9023 8.56343 16.9544 8.4298 17.048 8.32757C17.0981 8.27729 17.1576 8.23741 17.2232 8.21018C17.2887 8.18296 17.3591 8.16895 17.43 8.16895C17.501 8.16895 17.5713 8.18296 17.6369 8.21018C17.7024 8.23741 17.762 8.27729 17.8121 8.32757L21.6172 12.1327C22.8156 13.2563 24.2838 14.275 25.5871 15.3986C26.5089 16.1882 27.3564 17.0608 28.1189 18.0052C28.2242 18.1418 28.2988 18.2995 28.3376 18.4676C28.3763 18.6356 28.3784 18.8101 28.3436 18.979C28.2933 19.1696 28.1995 19.3459 28.0696 19.4941C27.9396 19.6423 27.777 19.7582 27.5945 19.8329C27.3698 19.9378 26.9204 19.9976 26.7107 20.1175L24.7931 21.4958C23.5359 22.4279 22.3307 23.4281 21.1827 24.4919C20.4476 25.2193 19.7619 25.9951 19.1304 26.8139C19.0421 26.944 18.9062 27.0341 18.7521 27.065C18.5979 27.0958 18.4379 27.0649 18.3065 26.9788C18.1754 26.8877 18.0849 26.7493 18.0542 26.5927C18.0234 26.4361 18.0548 26.2736 18.1416 26.1398C18.7455 25.2131 19.4165 24.3319 20.1491 23.5031C21.2446 22.2877 22.4101 21.1373 23.6396 20.0576L25.2725 18.7393C22.7268 18.9643 20.1677 18.9943 17.6174 18.8291C16.299 18.7393 14.9957 18.6044 13.6923 18.4247C12.389 18.2449 11.1156 18.0052 9.82727 17.7206C6.83117 17.0464 3.83492 16.2224 1.01852 15.3236C0.885172 15.2851 0.771919 15.1966 0.702169 15.0766C0.63242 14.9566 0.61157 14.8144 0.64397 14.6794C0.685371 14.5534 0.77417 14.4484 0.891621 14.3869C1.00922 14.3254 1.14602 14.3121 1.27322 14.3499Z" fill="#00A3E2"/>
</g>
<defs>
<clipPath id="clip0_2573_1797">
<rect width="36" height="36" fill="white" transform="matrix(-1 0 0 1 36 0)"/>
</clipPath>
</defs>
</svg>
