<svg width="36" height="36" viewBox="0 0 36 36" fill="none" xmlns="http://www.w3.org/2000/svg">
<g clip-path="url(#clip0_2573_1936)">
<path d="M29.9972 5.29236C29.6673 5.29236 27.3884 5.0225 25.6493 4.91754H23.7002L18.5427 5.45727C18.4842 5.46099 18.4271 5.47652 18.3747 5.5029C18.3224 5.52929 18.2759 5.56599 18.2381 5.61081C18.2001 5.65563 18.1718 5.70764 18.1547 5.76371C18.1374 5.81976 18.1317 5.87873 18.1379 5.93705C18.1416 5.99556 18.1572 6.05274 18.1836 6.10511C18.21 6.15747 18.2466 6.20397 18.2915 6.24179C18.3363 6.2796 18.3884 6.30797 18.4443 6.32516C18.5004 6.34235 18.5594 6.34803 18.6177 6.34185C19.7721 6.34185 20.8517 6.56673 22.7406 6.6267H25.6193C27.4034 6.6267 29.7422 6.41681 30.117 6.35684C30.1828 6.35325 30.2472 6.33612 30.3062 6.30654C30.3651 6.27698 30.4173 6.23556 30.4594 6.18492C30.5017 6.13428 30.533 6.07548 30.5514 6.0122C30.57 5.94891 30.5751 5.88249 30.5669 5.81711C30.5696 5.74355 30.5562 5.6703 30.5279 5.60237C30.4997 5.53443 30.4569 5.47344 30.4028 5.42358C30.3486 5.37372 30.2844 5.33618 30.2144 5.31353C30.1443 5.29088 30.0702 5.28365 29.9972 5.29236Z" fill="#2B2A29"/>
<path d="M25.7092 10.8097H23.7753L18.7377 11.2745C18.6184 11.2745 18.504 11.3219 18.4197 11.4062C18.3352 11.4906 18.288 11.605 18.288 11.7242C18.288 11.8435 18.3352 11.9579 18.4197 12.0423C18.504 12.1266 18.6184 12.174 18.7377 12.174C19.6972 12.294 20.7468 12.3689 21.7362 12.4139L23.7303 12.4889H25.6942C27.1935 12.3989 28.8727 12.189 30.1921 12.0841C30.2653 12.0968 30.3403 12.0933 30.4122 12.0739C30.4839 12.0545 30.5505 12.0197 30.6073 11.9718C30.6642 11.924 30.7099 11.8643 30.7413 11.7969C30.7726 11.7295 30.789 11.6561 30.789 11.5818C30.789 11.5075 30.7726 11.4341 30.7413 11.3667C30.7099 11.2993 30.6642 11.2396 30.6073 11.1918C30.5505 11.1439 30.4839 11.1091 30.4122 11.0897C30.3403 11.0703 30.2653 11.0669 30.1921 11.0796C28.9027 10.9596 27.2835 10.8397 25.7092 10.8097Z" fill="#2B2A29"/>
<path d="M35.4694 7.78117V2.12895C35.4621 1.69642 35.309 1.27905 35.0347 0.944537C34.0877 0.549794 33.0766 0.331314 32.0511 0.299853C30.237 0.119941 27.8232 0 26.0541 0C25.4994 0 19.6822 0 16.3089 0.254876C15.3436 0.251451 14.3886 0.450649 13.5052 0.839587C13.3708 0.963987 13.2768 1.1259 13.2354 1.30436C13.0961 1.93486 13.0208 2.5778 13.0105 3.22341C12.8606 5.83214 12.9055 10.21 12.9205 11.2445C12.9219 11.317 12.9387 11.3883 12.9698 11.4538C13.0009 11.5193 13.0456 11.5773 13.1009 11.6242C13.1563 11.671 13.221 11.7055 13.2907 11.7253C13.3604 11.7452 13.4335 11.7499 13.5052 11.7392C13.6379 11.7393 13.7653 11.6877 13.8605 11.5953C13.9557 11.5029 14.0111 11.377 14.015 11.2445C14.015 10.4499 14.015 7.69122 14.1499 5.24742C14.1499 3.98803 14.2849 2.8486 14.3898 2.12895C14.4122 1.98256 14.4422 1.83744 14.4798 1.69418H15.0045C15.874 1.49926 17.2984 1.49926 18.8127 1.49926H26.0841C27.5083 1.49926 29.4274 1.66419 31.0467 1.81411C32.0961 1.91905 33.6703 2.17393 33.7003 2.18892C33.7303 2.20392 33.7753 6.5068 33.7003 7.7212C33.7003 8.45584 33.8202 11.0646 33.8202 13.3285C33.8202 14.4829 33.7003 16.5969 33.6853 16.6419C33.331 16.6157 32.9752 16.6157 32.6208 16.6419H31.0317C29.5324 16.5669 27.8082 16.4169 27.0286 16.4619C26.7021 16.4531 26.385 16.5712 26.1441 16.7917C25.7842 17.2116 25.4094 18.186 24.7647 19.2656C24.4704 19.7441 24.1342 20.1957 23.7601 20.615C23.4594 20.9442 23.0935 21.2075 22.6858 21.3881C22.2781 21.5688 21.8373 21.6628 21.3913 21.6643C21.2715 20.8398 21.3913 18.6658 21.3913 17.6313C21.3951 17.4202 21.3543 17.2108 21.2715 17.0166C21.2407 16.9382 21.19 16.8692 21.1242 16.8165C21.0583 16.7639 20.9799 16.7295 20.8966 16.7167C20.5773 16.6911 20.2564 16.6911 19.9371 16.7167C19.6125 16.698 19.2871 16.698 18.9625 16.7167C18.9042 16.7238 18.8478 16.7428 18.7972 16.773C18.7467 16.8032 18.703 16.8435 18.6691 16.8915C18.6352 16.9396 18.6118 16.9942 18.6003 17.052C18.5889 17.1098 18.5898 17.1691 18.6027 17.2266C18.61 17.2839 18.6288 17.3391 18.6577 17.3892C18.6867 17.4391 18.7254 17.483 18.7714 17.5177C18.8175 17.5527 18.8701 17.5781 18.9261 17.5924C18.982 17.6067 19.0404 17.6098 19.0975 17.6013C19.3768 17.5768 19.6578 17.5768 19.9371 17.6013H20.4318C20.3464 19.1494 20.3464 20.701 20.4318 22.2491C20.4772 22.3473 20.5461 22.433 20.6323 22.4984C20.7186 22.5636 20.8197 22.6068 20.9266 22.6239C21.4201 22.7358 21.9324 22.7358 22.4259 22.6239C23.2342 22.424 23.9712 22.0035 24.5548 21.4095C25.0149 20.9571 25.4223 20.4542 25.7692 19.9103C26.3239 19.0557 26.6538 18.246 26.9686 17.8113C27.7182 17.8113 29.3224 17.9761 30.7917 18.1111C31.6152 18.1714 32.442 18.1714 33.2655 18.1111C33.8065 18.1036 34.3314 17.9251 34.7647 17.6013C35.151 16.8885 35.3472 16.0883 35.3346 15.2775C35.6344 12.8487 35.4544 8.74071 35.4694 7.78117Z" fill="#00A3E2"/>
<path d="M18.003 29.7004C17.2568 28.4763 16.2287 27.4482 15.0045 26.7019C14.4162 26.3839 13.7921 26.1373 13.1454 25.9672C14.5792 25.0371 15.71 23.7082 16.3989 22.1442C16.8135 21.3583 17.0451 20.4889 17.0762 19.6009C17.1074 18.7131 16.9373 17.8296 16.5788 17.0166C15.7992 15.5173 9.38228 11.1845 4.79453 17.0166C2.72554 19.6554 2.27577 23.3286 5.30429 25.5174C5.91156 25.9417 6.57187 26.2845 7.26831 26.5369C5.31138 27.4843 3.64428 28.9392 2.44069 30.7498C2.07379 31.3341 1.76259 31.9515 1.51114 32.5939C1.11119 33.5074 0.780421 34.4496 0.52163 35.4126C0.500045 35.4666 0.489535 35.5245 0.490721 35.5827C0.491908 35.6409 0.504766 35.6982 0.528536 35.7514C0.552305 35.8045 0.586501 35.8524 0.629096 35.892C0.671692 35.9317 0.721819 35.9623 0.776504 35.9823C0.889817 36.015 1.01146 36.0019 1.11522 35.9458C1.21897 35.8897 1.29655 35.7952 1.33123 35.6824C1.59805 34.9375 1.9033 34.2069 2.24578 33.4935C2.57749 32.7823 2.98462 32.1088 3.46018 31.4845C4.75692 29.8303 6.49188 28.5732 8.46773 27.8563C9.96057 27.2623 11.6111 27.1941 13.1479 27.6628C14.6847 28.1314 16.0163 29.1091 16.9236 30.435C18.0221 31.9674 18.8628 33.669 19.4124 35.4726C19.4226 35.5443 19.4481 35.613 19.487 35.674C19.526 35.7351 19.5774 35.7871 19.638 35.8269C19.6986 35.8665 19.767 35.8927 19.8386 35.9038C19.9101 35.9151 19.9832 35.9107 20.0531 35.8915C20.1228 35.8722 20.1876 35.8381 20.2433 35.7918C20.2989 35.7454 20.3441 35.6877 20.3757 35.6226C20.4072 35.5573 20.4246 35.4862 20.4266 35.4138C20.4285 35.3415 20.415 35.2695 20.3868 35.2027C19.8842 33.2554 19.0797 31.3989 18.003 29.7004ZM5.85901 17.8713C9.71211 12.4289 15.1845 17.0466 15.3794 17.8713C15.5858 18.4882 15.6668 19.1403 15.6179 19.789C15.569 20.4378 15.3911 21.0702 15.0945 21.6493C14.3123 23.2932 12.9106 24.5601 11.1964 25.1727C10.3566 25.4164 9.47121 25.4593 8.61175 25.2978C7.75231 25.1364 6.94289 24.775 6.24882 24.2431C3.96993 22.6389 4.50968 19.8952 5.90399 17.8713H5.85901Z" fill="#2B2A29"/>
</g>
<defs>
<clipPath id="clip0_2573_1936">
<rect width="36" height="36" fill="white"/>
</clipPath>
</defs>
</svg>
