<svg width="36" height="36" viewBox="0 0 36 36" fill="none" xmlns="http://www.w3.org/2000/svg">
<g clip-path="url(#clip0_2573_1813)">
<path fill-rule="evenodd" clip-rule="evenodd" d="M17.8516 20.1762C17.7766 20.1736 17.7021 20.1871 17.6328 20.2158C17.5633 20.2444 17.5011 20.2875 17.4498 20.3422C17.3985 20.397 17.3596 20.4621 17.3356 20.5332C17.3116 20.6043 17.3031 20.6797 17.3107 20.7543C17.3182 20.829 17.3416 20.901 17.3794 20.9658C17.4172 21.0307 17.4685 21.0867 17.5297 21.13C17.5909 21.1734 17.6607 21.2031 17.7343 21.2172C17.808 21.2314 17.8839 21.2296 17.9568 21.2119C18.7896 21.1983 19.6021 20.9541 20.3044 20.5062C21.0067 20.0583 21.571 19.4245 21.9346 18.6751C22.2952 17.8902 22.4286 17.0199 22.3198 16.1629C22.2111 15.306 21.8644 14.4967 21.3192 13.8267C20.8341 13.2575 20.224 12.8083 19.5366 12.514C18.8491 12.2197 18.1029 12.0885 17.3563 12.1305C16.6192 12.1778 15.9039 12.3998 15.2697 12.7783C14.6354 13.1568 14.1004 13.6808 13.7087 14.3071C13.3546 14.8812 13.1341 15.5275 13.0633 16.1983C13.0124 16.8345 13.0734 17.4747 13.2434 18.0897C13.3617 18.5296 13.5546 18.946 13.8138 19.3206C13.9995 19.5883 14.24 19.8135 14.5193 19.981C14.5686 20.0146 14.624 20.038 14.6823 20.0502C14.7407 20.0623 14.8009 20.0628 14.8594 20.0515C14.9179 20.0404 14.9737 20.0179 15.0235 19.9852C15.0733 19.9525 15.1162 19.9102 15.1497 19.861C15.1833 19.8117 15.2067 19.7563 15.2188 19.698C15.231 19.6396 15.2314 19.5795 15.2203 19.5208C15.2091 19.4623 15.1866 19.4065 15.1539 19.3567C15.1212 19.3069 15.0789 19.264 15.0297 19.2306C14.8277 19.0777 14.6676 18.8764 14.5644 18.6451C14.4432 18.3772 14.3574 18.0946 14.3092 17.8045C14.2161 17.3337 14.2161 16.8493 14.3092 16.3785C14.4014 15.9342 14.5968 15.5176 14.8796 15.1626C15.1779 14.778 15.5557 14.4624 15.9873 14.2375C16.419 14.0125 16.8942 13.8835 17.3802 13.8592C17.8663 13.835 18.352 13.9161 18.8038 14.0971C19.2558 14.278 19.6632 14.5544 19.9981 14.9075C20.3952 15.3322 20.667 15.8584 20.7835 16.428C20.9001 16.9975 20.8569 17.5882 20.6586 18.1348C20.4193 18.6972 20.0317 19.1841 19.5375 19.5436C19.0431 19.9032 18.4605 20.1217 17.8516 20.1762Z" fill="#00A3E2"/>
<path fill-rule="evenodd" clip-rule="evenodd" d="M35.9097 16.1533C35.4468 15.307 34.8249 14.5578 34.0783 13.9468C33.0423 13.1292 31.9597 12.3724 30.8361 11.6802L29.0649 10.3743C28.9725 10.3274 28.8669 10.3138 28.7658 10.3357C28.6647 10.3575 28.5741 10.4136 28.5094 10.4944C28.4259 10.5811 28.3794 10.6968 28.3794 10.8171C28.3794 10.9375 28.4259 11.0531 28.5094 11.1398L30.1456 12.6409C30.9561 13.3614 32.037 14.247 32.9826 15.1927C33.4855 15.6637 33.9244 16.1988 34.2885 16.7838C33.4318 18.0615 32.4238 19.2307 31.2864 20.2663L28.9597 22.3828C28.8643 22.4784 28.8109 22.608 28.8109 22.743C28.8109 22.8781 28.8643 23.0076 28.9597 23.1033C29.058 23.1996 29.19 23.2534 29.3275 23.2534C29.4651 23.2534 29.5971 23.1996 29.6953 23.1033L32.2621 21.1519C33.4366 20.2021 34.5219 19.147 35.5044 17.9997C35.7228 17.7514 35.8746 17.4519 35.9455 17.1289C36.0163 16.806 36.004 16.4703 35.9097 16.1533Z" fill="#2B2A29"/>
<path fill-rule="evenodd" clip-rule="evenodd" d="M23.3907 28.3719L21.8897 30.0381C21.1842 30.8637 20.3136 31.9594 19.3979 32.9202C18.9597 33.4308 18.4548 33.8802 17.8968 34.2561C16.6052 33.435 15.4203 32.4568 14.3693 31.3441L12.1027 29.0625C12.0045 28.9662 11.8725 28.9123 11.7349 28.9123C11.5974 28.9123 11.4654 28.9662 11.3672 29.0625C11.2719 29.158 11.2183 29.2876 11.2183 29.4226C11.2183 29.5578 11.2719 29.6872 11.3672 29.7829L13.3636 32.3347C14.3108 33.4884 15.3609 34.5534 16.5008 35.517C16.7535 35.7435 17.0624 35.8977 17.3951 35.9638C17.7279 36.0298 18.0723 36.0051 18.3921 35.8923C19.2318 35.4129 19.9709 34.7757 20.5688 34.0159C21.3692 32.9652 22.106 31.8673 22.7753 30.7287L24.0362 28.9423C24.0794 28.9003 24.1136 28.8502 24.137 28.7947C24.1604 28.7394 24.1725 28.6798 24.1725 28.6197C24.1725 28.5595 24.1604 28.4998 24.137 28.4445C24.1136 28.389 24.0794 28.3389 24.0362 28.2969C23.9894 28.2583 23.9352 28.2295 23.877 28.2123C23.8188 28.195 23.7578 28.1898 23.6975 28.1968C23.6372 28.2039 23.579 28.2229 23.5262 28.2531C23.4735 28.2832 23.4275 28.3236 23.3907 28.3719Z" fill="#2B2A29"/>
<path fill-rule="evenodd" clip-rule="evenodd" d="M5.73817 12.1605L7.23924 10.6595C7.28889 10.6263 7.33144 10.5835 7.36441 10.5337C7.39738 10.4839 7.42012 10.4281 7.4313 10.3694C7.44247 10.3107 7.44186 10.2504 7.42951 10.192C7.41715 10.1335 7.3933 10.0782 7.35933 10.029C7.32759 9.9777 7.28553 9.93352 7.23582 9.89931C7.18609 9.86511 7.1298 9.8416 7.07052 9.83032C7.01124 9.81903 6.95025 9.82018 6.89143 9.83371C6.83262 9.84726 6.77727 9.87288 6.72888 9.90894L4.95763 11.3199C3.86091 12.0529 2.80834 12.8499 1.8054 13.7066C1.09666 14.3332 0.511211 15.0866 0.0791682 15.9282C-0.0110079 16.2557 -0.0141277 16.6011 0.0701177 16.9302C0.154363 17.2593 0.323055 17.5607 0.559509 17.8046C1.59546 18.9075 2.73108 19.9125 3.95191 20.8067C4.31217 21.0918 5.04769 21.7674 5.75319 22.3077C6.03043 22.5353 6.32116 22.7457 6.6238 22.9382C6.6787 22.9784 6.7411 23.0073 6.80731 23.0231C6.87352 23.0388 6.94222 23.0411 7.00936 23.03C7.0765 23.0187 7.14072 22.9943 7.19824 22.9578C7.25577 22.9215 7.30543 22.874 7.34431 22.818C7.42083 22.7082 7.45111 22.5728 7.42866 22.4408C7.40619 22.3088 7.33278 22.1909 7.22424 22.1126C6.88864 21.8345 6.56797 21.5388 6.26355 21.227C5.69314 20.6565 5.13775 20.0411 4.85256 19.7259C3.69243 18.7772 2.64936 17.6939 1.74535 16.4987C2.08351 15.8895 2.50261 15.329 2.99124 14.8324C3.90688 13.8417 4.95763 12.9111 5.73817 12.1605Z" fill="#2B2A29"/>
<path fill-rule="evenodd" clip-rule="evenodd" d="M22.7303 4.88035C22.0398 3.99473 21.2292 2.77886 20.2836 1.77315C19.6274 1.07538 18.8555 0.496432 18.002 0.0619318C17.6682 -0.023847 17.318 -0.0204654 16.986 0.0717383C16.6541 0.163943 16.3523 0.341731 16.1106 0.587304C15.0023 1.63997 13.997 2.79603 13.1084 4.03975C12.8382 4.40001 12.1778 5.15054 11.6074 5.87105C11.3672 6.18627 11.142 6.4865 10.9769 6.74168C10.9381 6.80168 10.9116 6.86878 10.8988 6.93911C10.8861 7.00944 10.8875 7.0816 10.9028 7.1514C10.9182 7.22121 10.9472 7.28727 10.9883 7.34577C11.0294 7.40427 11.0816 7.45404 11.142 7.4922C11.1979 7.5317 11.2611 7.55958 11.3279 7.57419C11.3946 7.58878 11.4637 7.58982 11.5309 7.57722C11.5981 7.56462 11.6621 7.53864 11.7191 7.50082C11.7761 7.46301 11.8248 7.41414 11.8626 7.35711C12.1293 7.02093 12.415 6.7002 12.7182 6.39642C13.2886 5.81101 13.889 5.24061 14.2192 4.89536C15.1899 3.70745 16.2986 2.63919 17.5215 1.71311C18.1088 2.06868 18.6485 2.49741 19.1277 2.98901C20.1335 3.88965 21.0791 4.91037 21.8447 5.67591L23.3457 7.17697C23.4179 7.27587 23.526 7.34235 23.6469 7.36201C23.7677 7.38168 23.8914 7.35296 23.9912 7.28205C24.0396 7.2477 24.0809 7.20409 24.1124 7.15374C24.1439 7.1034 24.1652 7.0473 24.1749 6.9887C24.1847 6.93011 24.1829 6.87015 24.1692 6.81229C24.1557 6.75444 24.131 6.69983 24.0963 6.6516L22.7303 4.88035Z" fill="#2B2A29"/>
</g>
<defs>
<clipPath id="clip0_2573_1813">
<rect width="36" height="36" fill="white"/>
</clipPath>
</defs>
</svg>
