<svg width="36" height="36" viewBox="0 0 36 36" fill="none" xmlns="http://www.w3.org/2000/svg">
<g clip-path="url(#clip0_3109_9708)">
<path d="M35.64 7.73667V26.9803C35.64 28.9288 34.0605 30.5083 32.112 30.5083H3.888C1.94511 30.5084 0.367946 28.9376 0.360001 26.9947V11.5854C0.360001 10.8447 1.16182 10.3818 1.80328 10.7521C2.10098 10.924 2.28437 11.2416 2.28437 11.5854V26.9803C2.28552 28.2148 3.62261 28.9851 4.69112 28.3668C5.18608 28.0805 5.4911 27.5522 5.49163 26.9803V7.73667C5.49163 6.49674 6.49679 5.49158 7.73672 5.49158H33.3949C34.6348 5.49158 35.64 6.49674 35.64 7.73667ZM33.7156 7.73667C33.7156 7.55954 33.572 7.41595 33.3949 7.41595H7.73672C7.55959 7.41595 7.416 7.55954 7.416 7.73667V26.9803C7.41669 27.538 7.28419 28.0878 7.02952 28.5839H32.112C32.9976 28.5839 33.7156 27.8659 33.7156 26.9803V7.73667Z" fill="black"/>
<path d="M26.9804 16.3963C27.5118 16.3963 27.9425 15.9655 27.9425 15.4341C27.9425 14.9027 27.5118 14.472 26.9804 14.4719H14.1513C13.8076 14.4719 13.4899 14.6553 13.318 14.953C12.9477 15.5944 13.4106 16.3962 14.1513 16.3963H26.9804Z" fill="#00A3E2"/>
<path d="M14.1513 19.6036H26.9804C27.3241 19.6036 27.6418 19.787 27.8136 20.0846C28.184 20.7261 27.7211 21.5279 26.9804 21.5279H14.1513C13.8075 21.5279 13.4899 21.3445 13.318 21.0469C12.9477 20.4054 13.4106 19.6036 14.1513 19.6036Z" fill="#00A3E2"/>
</g>
<defs>
<clipPath id="clip0_3109_9708">
<rect width="36" height="36" fill="white"/>
</clipPath>
</defs>
</svg>
