<svg width="36" height="36" viewBox="0 0 36 36" fill="none" xmlns="http://www.w3.org/2000/svg">
<g clip-path="url(#clip0_2573_1812)">
<path fill-rule="evenodd" clip-rule="evenodd" d="M21.344 14.8305C21.9956 15.1464 22.7036 15.3299 23.4267 15.3699C25.7846 15.6305 28.1589 15.7105 30.5291 15.6097C31.6253 15.5693 32.7101 15.3724 33.7506 15.0254C34.0062 14.9528 34.2407 14.8196 34.4337 14.637C34.6268 14.4543 34.7729 14.2277 34.8594 13.9765C35.0076 13.0498 35.0828 12.1129 35.0841 11.1745C35.174 8.56726 35.0841 5.04604 35.0841 5.04604C35.1051 4.95738 35.1051 4.86501 35.0841 4.77635C34.6344 3.60464 33.8853 2.57135 32.9115 1.77956C32.0082 1.04133 30.9977 0.44511 29.9147 0.0114614C29.8506 -0.00382045 29.7839 -0.00382045 29.72 0.0114614H26.2736C25.4918 0.0169652 24.711 0.0720165 23.9361 0.176284C23.814 0.198314 23.7051 0.266825 23.6325 0.367419C23.5599 0.468013 23.529 0.592855 23.5466 0.715704C23.5539 0.831087 23.6042 0.939561 23.6873 1.01992C23.7704 1.10028 23.8805 1.14675 23.9961 1.15024C24.7245 1.10153 25.4553 1.10153 26.1837 1.15024H27.8169C27.7055 1.97984 27.6453 2.81553 27.6371 3.65254C27.6374 4.05329 27.6623 4.45362 27.7121 4.85125C27.7605 5.24119 27.872 5.6207 28.0418 5.97506C28.1063 6.10408 28.199 6.21692 28.3131 6.30512C28.4273 6.39333 28.5599 6.45465 28.701 6.4845C29.1548 6.52232 29.6108 6.52232 30.0645 6.4845C30.7092 6.45546 31.3505 6.37528 31.9824 6.24475C32.0528 6.241 32.1215 6.22316 32.1848 6.19226C32.2479 6.16137 32.3043 6.11807 32.3505 6.06494C32.3966 6.01181 32.4315 5.94994 32.4533 5.88301C32.475 5.81608 32.4831 5.74548 32.477 5.67537C32.4618 5.53364 32.3927 5.40318 32.2838 5.3111C32.175 5.21901 32.0349 5.17239 31.8926 5.18091C31.413 5.18091 30.9036 5.18091 30.3942 5.04604C29.8847 4.91119 29.7948 4.95615 29.5401 4.89621C29.4651 4.50663 29.4053 3.96721 29.3004 3.39781C29.1356 2.54374 28.9407 1.67467 28.8359 1.19519H29.4203C30.3498 1.60881 31.2093 2.16491 31.9674 2.84342C32.6391 3.486 33.1521 4.27597 33.4659 5.15094C33.4659 5.81024 33.3161 8.80701 33.1962 11.1445C33.1962 12.0585 33.1062 12.8527 33.0464 13.2872C32.9414 13.2872 32.7617 13.452 32.6118 13.497C31.05 13.7803 29.4638 13.9058 27.8769 13.8716C26.2512 13.8959 24.6255 13.8309 23.0072 13.6768H22.3928C22.3928 13.482 22.1831 13.0924 22.1231 12.6729C21.9041 10.6824 21.789 8.68179 21.7784 6.67929C21.65 5.08982 21.7508 3.49013 22.0781 1.9294C22.1126 1.86744 22.1346 1.79926 22.1427 1.72881C22.1508 1.65835 22.145 1.58698 22.1255 1.5188C22.106 1.45059 22.0733 1.38691 22.0292 1.33138C21.9851 1.27585 21.9303 1.22957 21.8684 1.19519C21.8084 1.16043 21.7422 1.13788 21.6735 1.12886C21.6048 1.11984 21.5349 1.12453 21.4682 1.14264C21.4013 1.16075 21.3386 1.19193 21.2838 1.23439C21.2291 1.27684 21.1833 1.32972 21.1491 1.38998C20.579 3.95571 20.3571 6.58659 20.4899 9.21157C20.4675 10.7744 20.5575 12.3367 20.7596 13.8865C20.8356 14.2608 21.0429 14.5955 21.344 14.8305Z" fill="#2B2A29"/>
<path fill-rule="evenodd" clip-rule="evenodd" d="M20.6697 31.942C20.6937 32.7147 20.7637 33.4852 20.8794 34.2496C20.9269 34.6023 21.0903 34.9291 21.3439 35.1786C21.9957 35.4945 22.7036 35.6779 23.4267 35.718C25.7846 35.9785 28.1589 36.0586 30.529 35.9578C31.6224 35.9367 32.7071 35.7601 33.7506 35.4333C34.0064 35.3608 34.2407 35.2276 34.4337 35.0449C34.6268 34.8624 34.7729 34.6357 34.8594 34.3845C35.0078 33.4578 35.0829 32.5209 35.0841 31.5825C35.1741 28.9753 35.0841 25.4541 35.0841 25.4541C35.1065 25.3656 35.1065 25.2729 35.0841 25.1844C34.6344 24.0126 33.8853 22.9794 32.9115 22.1875C32.0082 21.4494 30.9977 20.8531 29.9148 20.4195C29.8507 20.4042 29.784 20.4042 29.7199 20.4195H26.2737C25.4918 20.425 24.711 20.4801 23.9361 20.5843C23.814 20.6064 23.7053 20.6748 23.6325 20.7754C23.5599 20.8761 23.5291 21.0009 23.5465 21.1237C23.5557 21.1851 23.5769 21.244 23.6091 21.297C23.6414 21.3499 23.6838 21.396 23.734 21.4323C23.7844 21.4686 23.8415 21.4945 23.9019 21.5083C23.9624 21.5223 24.0249 21.5239 24.086 21.5133C24.8144 21.4645 25.5453 21.4645 26.2737 21.5133H27.9069C27.7754 22.3416 27.6953 23.1774 27.6672 24.0156C27.6667 24.4114 27.6918 24.8068 27.7421 25.1994C27.7913 25.5939 27.9026 25.9782 28.0718 26.338C28.1342 26.4672 28.2267 26.5794 28.3413 26.6653C28.456 26.7513 28.5897 26.8087 28.731 26.8326C29.1843 26.8788 29.6412 26.8788 30.0945 26.8326C30.7386 26.7961 31.3793 26.716 32.0126 26.5929C32.0828 26.5891 32.1516 26.5713 32.2148 26.5404C32.2781 26.5095 32.3343 26.4661 32.3805 26.413C32.4266 26.3599 32.4617 26.298 32.4833 26.2311C32.505 26.1642 32.5131 26.0935 32.507 26.0235C32.4918 25.8817 32.4227 25.7512 32.3138 25.6591C32.205 25.567 32.0649 25.5205 31.9226 25.5289C31.4432 25.5289 30.9336 25.4541 30.4242 25.3941C29.9148 25.3342 29.8248 25.3042 29.5701 25.2442C29.4953 24.8547 29.4353 24.3153 29.3304 23.7459C29.1656 22.8768 28.9707 22.0227 28.8659 21.5433H29.4502C30.3798 21.9568 31.2393 22.513 31.9976 23.1915C32.6691 23.8341 33.1821 24.624 33.4959 25.4989C33.4959 26.1583 33.3461 29.155 33.2262 31.4926C33.2262 32.4066 33.1362 33.2007 33.0764 33.6352C32.9715 33.6352 32.7917 33.8001 32.6418 33.8451C31.08 34.1284 29.4938 34.254 27.9069 34.2196C26.2814 34.2439 24.6557 34.179 23.0372 34.0248H22.4227C22.4227 33.8301 22.213 33.4405 22.153 33.021C21.9345 31.0303 21.8194 29.0298 21.8085 27.0274C21.6799 25.4379 21.7809 23.8381 22.1081 22.2775C22.1426 22.2154 22.1646 22.1473 22.1727 22.0768C22.1808 22.0065 22.175 21.9351 22.1555 21.8668C22.136 21.7987 22.1033 21.735 22.0592 21.6795C22.0151 21.624 21.9605 21.5776 21.8984 21.5433C21.8384 21.5085 21.7722 21.486 21.7035 21.477C21.6348 21.468 21.5651 21.4726 21.4982 21.4906C21.4313 21.5088 21.3686 21.54 21.3138 21.5824C21.2591 21.6249 21.2133 21.6778 21.1791 21.738C20.609 24.3037 20.3871 26.9347 20.5199 29.5596V30.8182L20.6697 31.942Z" fill="#2B2A29"/>
<path fill-rule="evenodd" clip-rule="evenodd" d="M1.98479 7.00891C2.05563 7.00891 2.12577 6.99496 2.19122 6.96786C2.25666 6.94075 2.31612 6.90102 2.36622 6.85092C2.41631 6.80083 2.45604 6.74137 2.48315 6.67593C2.51025 6.61049 2.5242 6.54033 2.5242 6.4695C2.5377 6.41033 2.5377 6.34887 2.5242 6.28969V6.00499C2.5242 5.58544 2.65907 4.91116 2.68904 4.19194C2.71154 3.89269 2.71154 3.59217 2.68904 3.2929C2.68904 2.93329 2.56916 2.63362 2.5242 2.40886C2.47926 2.1841 2.3444 1.40494 2.31443 1.19517C2.30381 1.13067 2.30381 1.06487 2.31443 1.00038C2.11964 0.685712 1.90986 0.610793 1.76003 0.655745C1.64465 0.663151 1.53617 0.713323 1.45581 0.796453C1.37546 0.879583 1.32899 0.989694 1.3255 1.10526C1.31842 1.12973 1.31842 1.15571 1.3255 1.18018C1.11572 1.18018 1.05578 2.10918 0.995849 2.40886C0.915845 2.82363 0.875705 3.2451 0.875978 3.66751C0.888893 4.08073 0.939043 4.49196 1.02582 4.89619C1.1231 5.40214 1.24815 5.90236 1.40042 6.39457C1.52028 6.90404 1.90986 7.00891 1.98479 7.00891Z" fill="#00A3E2"/>
<path fill-rule="evenodd" clip-rule="evenodd" d="M2.35953 16.0891C2.50004 16.0893 2.63501 16.0344 2.73575 15.9366C2.8365 15.8386 2.89505 15.7051 2.89895 15.5647C2.92143 15.4864 2.92143 15.4033 2.89895 15.325V15.1152C2.85399 14.7256 3.01881 14.1263 3.01881 13.5269C3.03459 13.2625 3.03459 12.9973 3.01881 12.7328C3.01881 12.4032 2.86898 12.1484 2.83901 11.9536C2.80904 11.7588 2.64422 11.1445 2.59928 10.8748V10.7849C2.61431 10.7463 2.61431 10.7036 2.59928 10.665C2.59928 10.5451 1.80512 10.1556 1.6403 10.8448C1.56539 11.1295 1.41554 11.7588 1.37059 11.9536C1.29599 12.3386 1.26085 12.7302 1.2657 13.1224C1.29412 13.5024 1.35935 13.8787 1.46049 14.2462C1.57001 14.7112 1.71528 15.1671 1.89503 15.6097C1.95497 16.0143 2.26962 16.1041 2.35953 16.0891Z" fill="#00A3E2"/>
<path fill-rule="evenodd" clip-rule="evenodd" d="M1.83486 24.3004C1.82183 24.3777 1.82582 24.4569 1.84656 24.5326C1.86729 24.6082 1.90427 24.6784 1.95489 24.7383C2.00553 24.7981 2.06862 24.8463 2.13975 24.8793C2.21088 24.9123 2.28837 24.9294 2.36678 24.9294C2.4452 24.9294 2.52269 24.9123 2.59382 24.8793C2.66495 24.8463 2.72804 24.7981 2.77868 24.7383C2.8293 24.6784 2.86628 24.6082 2.88701 24.5326C2.90774 24.4569 2.91174 24.3777 2.89871 24.3004C3.05249 23.7183 3.13302 23.1193 3.13845 22.5172C3.13845 22.1427 3.04856 21.7831 3.01858 21.4384C2.98862 21.0939 2.86875 20.2248 2.61402 20.2548C2.62857 20.1855 2.62857 20.1141 2.61402 20.0449C2.61402 19.4905 2.01467 19.7004 1.89479 19.7302C1.75248 19.8606 1.65761 20.0346 1.62509 20.2248C1.53518 20.4945 1.40032 21.3636 1.35537 21.5433C1.33337 21.9175 1.33337 22.2928 1.35537 22.6671C1.52019 23.2965 1.71498 23.7909 1.83486 24.3004Z" fill="#00A3E2"/>
<path fill-rule="evenodd" clip-rule="evenodd" d="M6.43499 30.5187L4.77177 30.3538C4.36721 30.3538 3.97763 30.234 3.61802 30.159C3.41174 30.1401 3.2096 30.0895 3.01866 30.0091C3.01866 30.0091 3.18348 30.144 3.10856 30.174C2.67402 30.3238 2.94374 28.7655 2.85383 28.4358C2.76393 28.1062 2.85383 27.432 2.6141 27.402C2.62958 27.3328 2.62958 27.2613 2.6141 27.1921C2.60096 27.1285 2.57417 27.0684 2.53556 27.016C2.49695 26.9638 2.44745 26.9205 2.39046 26.8891C2.33349 26.8578 2.27039 26.8392 2.20551 26.8345C2.14065 26.83 2.07555 26.8395 2.01474 26.8626C1.91163 26.9074 1.82324 26.9803 1.75965 27.0732C1.69605 27.1659 1.65983 27.2746 1.65512 27.387V28.6156C1.65512 28.8105 1.41538 29.7544 1.43036 30.2938C1.43992 30.6285 1.56125 30.9502 1.775 31.2079C2.25266 31.6257 2.86362 31.8594 3.49814 31.8672C4.5044 31.8394 5.50668 31.7292 6.49493 31.5375C6.62069 31.5163 6.73487 31.4512 6.81721 31.3539C6.89957 31.2565 6.94475 31.1331 6.94475 31.0056C6.94475 30.8781 6.89957 30.7546 6.81721 30.6573C6.73487 30.5599 6.62069 30.4948 6.49493 30.4737L6.43499 30.5187Z" fill="#00A3E2"/>
<path fill-rule="evenodd" clip-rule="evenodd" d="M13.6123 30.6535C13.2976 30.6535 12.6383 30.3538 11.8742 30.234C11.6396 30.2191 11.4044 30.2191 11.1699 30.234H10.6904C10.166 30.3238 9.76143 30.4288 9.55166 30.4737H9.46175C9.39258 30.4591 9.32114 30.4591 9.25197 30.4737C9.25197 30.4737 8.80245 31.2079 9.46175 31.4476C9.67152 31.4476 10.0761 31.6725 10.6005 31.8223C10.7561 31.8747 10.9168 31.9098 11.08 31.9272C11.3142 31.95 11.5501 31.95 11.7843 31.9272C12.4 31.8792 13.0111 31.7839 13.6123 31.6425C13.7527 31.6386 13.8861 31.5801 13.9841 31.4793C14.082 31.3785 14.1368 31.2435 14.1367 31.1031C14.1157 30.9786 14.0517 30.8655 13.9559 30.7833C13.8601 30.7012 13.7385 30.6553 13.6123 30.6535Z" fill="#00A3E2"/>
<path fill-rule="evenodd" clip-rule="evenodd" d="M9.35688 9.2715C9.41593 9.28609 9.47764 9.28609 9.53668 9.2715C9.67975 9.2715 9.81696 9.21466 9.91812 9.1135C10.0193 9.01234 10.0761 8.87514 10.0761 8.73208C10.0761 8.64217 9.95623 8.26758 9.40183 8.11774C8.7832 7.95649 8.15134 7.85119 7.51386 7.80307C7.09515 7.76568 6.67393 7.76568 6.25522 7.80307C5.5057 7.89891 4.77687 8.11654 4.09753 8.44738C4.01221 8.53891 3.96478 8.65939 3.96478 8.78452C3.96478 8.90965 4.01221 9.03013 4.09753 9.12166C4.14867 9.18219 4.21321 9.22996 4.28604 9.26118C4.35888 9.29239 4.43799 9.30619 4.51708 9.30147H4.60699C4.92165 9.30147 5.521 9.51124 6.27019 9.57118C6.6789 9.60865 7.09018 9.60865 7.49887 9.57118C8.29303 9.49626 8.99727 9.30147 9.29695 9.28648L9.35688 9.2715Z" fill="#00A3E2"/>
<path fill-rule="evenodd" clip-rule="evenodd" d="M18.4371 8.4474C18.4332 8.30694 18.3747 8.17356 18.2739 8.07561C18.1732 7.97768 18.0382 7.92291 17.8977 7.92296C17.2591 7.7853 16.614 7.68027 15.9648 7.6083C15.5361 7.57083 15.1048 7.57083 14.6762 7.6083C13.8371 7.6083 13.1778 7.90797 12.8032 7.92296H12.6234C12.5624 7.92096 12.5016 7.931 12.4445 7.95252C12.3873 7.97403 12.335 8.0066 12.2905 8.04834C12.246 8.09009 12.2101 8.1402 12.1849 8.19582C12.1598 8.25144 12.1459 8.31147 12.1439 8.37248C12.1439 8.47736 12.2488 8.79203 12.7583 8.95685C13.4036 9.18105 14.0721 9.33185 14.7511 9.40637C15.1798 9.44337 15.6109 9.44337 16.0398 9.40637C16.6653 9.31472 17.2855 9.18968 17.8977 9.03177C17.9725 9.03203 18.0465 9.01673 18.115 8.98686C18.1836 8.95698 18.2452 8.91318 18.2959 8.85822C18.3466 8.80328 18.3855 8.73837 18.4098 8.66765C18.4341 8.59692 18.4434 8.52192 18.4371 8.4474Z" fill="#00A3E2"/>
<path fill-rule="evenodd" clip-rule="evenodd" d="M18.3323 30.4437C18.108 30.4214 17.8821 30.4214 17.658 30.4437C17.5085 30.4292 17.3578 30.4292 17.2084 30.4437C16.7451 30.4604 16.2861 30.5409 15.845 30.6836C15.5603 30.6836 15.2006 31.3278 16.0097 31.6575C16.3704 31.8158 16.7408 31.9509 17.1186 32.0621C17.2638 32.1144 17.4147 32.1497 17.568 32.1669C17.7923 32.1896 18.0182 32.1896 18.2423 32.1669C20.4 31.8372 20.385 30.7134 18.3323 30.4437Z" fill="#00A3E2"/>
</g>
<defs>
<clipPath id="clip0_2573_1812">
<rect width="36" height="36" fill="white"/>
</clipPath>
</defs>
</svg>
