<svg width="36" height="36" viewBox="0 0 36 36" fill="none" xmlns="http://www.w3.org/2000/svg">
<g clip-path="url(#clip0_2573_1814)">
<path fill-rule="evenodd" clip-rule="evenodd" d="M35.8531 8.23296C35.8098 6.5862 35.6292 4.94593 35.3133 3.32919C35.2238 2.7577 34.9499 2.23111 34.5335 1.82958C33.2102 1.29741 31.8048 0.998071 30.3795 0.944796C25.155 0.471617 19.9081 0.291379 14.6635 0.404932C11.1494 0.406743 7.64046 0.672423 4.16617 1.19973C3.0863 1.30623 2.06029 1.72288 1.21191 2.39943C0.649008 3.46935 0.341065 4.65493 0.312141 5.86356C-0.014937 10.0342 -0.0850518 14.2211 0.102193 18.4004C0.190149 23.1197 0.661582 27.824 1.51183 32.4668C1.62715 33.1176 1.90002 33.7304 2.30664 34.2513C3.13657 34.7591 4.07954 35.0528 5.05095 35.1062C8.36661 35.4794 11.702 35.6496 15.0384 35.616C21.2678 35.6984 27.4956 35.3577 33.6787 34.5963C33.739 34.5893 33.7974 34.5698 33.8498 34.5389C33.9021 34.508 33.9474 34.4666 33.9827 34.4171C34.0181 34.3676 34.0425 34.3113 34.0548 34.2518C34.0669 34.1922 34.0667 34.1309 34.0536 34.0715C34.0317 33.9531 33.9646 33.8481 33.8669 33.7782C33.7689 33.7082 33.6477 33.6789 33.5288 33.6965C27.378 34.3448 21.1903 34.5753 15.0084 34.3863C11.7341 34.3598 8.4642 34.1396 5.2159 33.7265C4.53012 33.6884 3.86038 33.5043 3.2514 33.1866C2.88022 32.3858 2.67126 31.5194 2.63655 30.6374C2.13193 26.5616 1.8466 22.4618 1.78177 18.3554C1.6247 14.2347 1.71483 10.1084 2.0517 5.99852C2.05645 5.14329 2.22971 4.29738 2.56158 3.50914C2.6978 3.40938 2.84991 3.33333 3.01146 3.2842C3.68086 3.06423 4.36835 2.90364 5.06594 2.80432C9.35795 2.26213 13.6818 2.01162 18.0077 2.05452C22.9115 2.05452 27.8302 2.17449 30.9343 2.5044C31.8621 2.5479 32.7798 2.71432 33.6637 2.99928C33.4688 3.16424 33.9336 3.62911 34.0386 4.21396C34.3904 6.553 34.5908 8.91232 34.6385 11.2772C34.8785 17.8905 34.7435 26.6933 34.6385 32.2719C34.6365 32.3408 34.6481 32.4095 34.6727 32.474C34.6973 32.5383 34.7341 32.5973 34.7816 32.6475C34.8289 32.6976 34.8857 32.738 34.9487 32.7662C35.0115 32.7944 35.0794 32.8098 35.1483 32.8118C35.285 32.8118 35.4164 32.7585 35.5143 32.6634C35.6123 32.5682 35.6693 32.4384 35.6731 32.3019C35.8832 25.8086 36.1832 14.9963 35.8531 8.23296Z" fill="#00A3E2"/>
<path fill-rule="evenodd" clip-rule="evenodd" d="M31.7292 18.4305C31.9237 18.1589 32.0521 17.8457 32.1042 17.5157C32.3286 15.7707 32.3938 14.0088 32.299 12.252C32.2557 10.506 32.0751 8.76606 31.7592 7.04831C31.7026 6.71762 31.5516 6.41034 31.3243 6.16353C31.1544 6.01241 30.9474 5.90892 30.7245 5.86361C29.6722 5.65997 28.602 5.56449 27.5304 5.57867C24.8494 5.52806 22.1683 5.66837 19.5073 5.99856C18.7875 6.11853 18.4876 7.07829 18.4876 7.10829C18.3826 9.46269 18.1876 13.4217 18.2626 15.8811C18.2761 16.5945 18.3718 17.304 18.5476 17.9955C18.6253 18.1956 18.7546 18.3716 18.9225 18.5054C19.464 18.7601 20.0496 18.9077 20.647 18.9404C22.5639 19.1544 24.4918 19.2546 26.4205 19.2402C27.9297 19.2882 29.4391 19.1624 30.9195 18.8654C31.2232 18.7949 31.5028 18.6449 31.7292 18.4305ZM30.4546 16.6908V17.1708C30.4546 17.3207 30.0646 17.3357 29.8248 17.3657C28.3024 17.5526 26.7694 17.6378 25.2358 17.6207C23.4813 17.6207 21.7117 17.6207 20.602 17.4857C20.3322 17.4857 20.0622 17.3357 19.8822 17.3057C19.8483 17.2236 19.8232 17.1381 19.8072 17.0508C19.6404 15.9281 19.5402 14.7963 19.5073 13.6616V7.13828C19.5073 6.76338 19.3123 6.94332 19.6573 6.89834C21.502 6.7341 23.3554 6.68903 25.2058 6.76338C26.6809 6.78045 28.1536 6.89064 29.6148 7.09329C29.8998 7.09329 30.1696 7.31823 30.3046 7.30323C30.4396 7.28825 30.3046 7.69314 30.3046 7.8731C30.4803 9.34163 30.5803 10.8182 30.6045 12.297C30.6405 13.7633 30.5905 15.2304 30.4546 16.6908Z" fill="#2B2A29"/>
<path fill-rule="evenodd" clip-rule="evenodd" d="M12.2493 8.84778C12.5438 8.87041 12.8395 8.87041 13.134 8.84778C13.4235 8.86999 13.7143 8.86999 14.0038 8.84778C14.8586 8.72781 15.5934 8.56285 16.0283 8.50287C16.1504 8.482 16.2612 8.41863 16.341 8.32393C16.421 8.22925 16.4648 8.10937 16.4648 7.9855C16.4648 7.86162 16.421 7.74174 16.341 7.64706C16.2612 7.55238 16.1504 7.48899 16.0283 7.46812C15.5934 7.46812 14.8436 7.27318 13.9588 7.2132H13.074C12.7843 7.1983 12.494 7.1983 12.2043 7.2132C11.3945 7.33317 10.7046 7.52811 10.1948 7.61809C10.1278 7.60591 10.0589 7.6086 9.99308 7.62595C9.92724 7.64332 9.86601 7.67493 9.81374 7.71856C9.76146 7.7622 9.7194 7.81677 9.69054 7.87845C9.66168 7.94013 9.64673 8.00739 9.64673 8.07547C9.64673 8.14357 9.66168 8.21083 9.69054 8.2725C9.7194 8.33418 9.76146 8.38876 9.81374 8.43238C9.86601 8.47602 9.92724 8.50764 9.99308 8.52499C10.0589 8.54235 10.1278 8.54503 10.1948 8.53285C10.8727 8.67894 11.5587 8.7841 12.2493 8.84778Z" fill="#2B2A29"/>
<path fill-rule="evenodd" clip-rule="evenodd" d="M5.44086 13.3916C5.38179 13.3916 5.32329 13.4032 5.2687 13.4258C5.21412 13.4484 5.16453 13.4815 5.12275 13.5233C5.08098 13.5651 5.04783 13.6147 5.02522 13.6693C5.00262 13.7239 4.99098 13.7824 4.99098 13.8414C4.98898 13.9005 4.99864 13.9594 5.01942 14.0148C5.04019 14.0701 5.07168 14.1208 5.11207 14.164C5.15245 14.2072 5.20096 14.242 5.25481 14.2664C5.30865 14.2908 5.36677 14.3044 5.42587 14.3063C5.96574 14.3063 7.43536 14.5613 9.15993 14.6362H10.7345C11.2594 14.6362 11.8143 14.6362 12.3241 14.5463C14.0937 14.4113 15.5782 14.2164 16.0132 14.1864C16.1353 14.1655 16.246 14.1021 16.326 14.0074C16.4058 13.9128 16.4496 13.7929 16.4496 13.669C16.4496 13.5451 16.4058 13.4252 16.326 13.3305C16.246 13.2359 16.1353 13.1725 16.0132 13.1516C15.5782 13.1516 14.0637 12.9867 12.2941 12.9117H10.7045C10.1797 12.9117 9.63981 12.9117 9.20491 12.9867C7.51035 13.1066 6.01072 13.3466 5.44086 13.3916Z" fill="#2B2A29"/>
<path fill-rule="evenodd" clip-rule="evenodd" d="M5.47081 19.0902C5.99569 19.0902 7.46532 19.345 9.18988 19.42H10.7795C11.3193 19.42 11.8442 19.42 12.3541 19.33C14.1236 19.195 15.6083 19.0002 16.0431 18.9702C16.1102 18.9702 16.1764 18.957 16.2382 18.9313C16.3002 18.9057 16.3563 18.8682 16.4037 18.8208C16.4511 18.7735 16.4886 18.7173 16.5142 18.6553C16.5399 18.5935 16.5531 18.5272 16.5531 18.4603C16.5531 18.3237 16.4999 18.1924 16.4046 18.0943C16.3094 17.9964 16.1798 17.9394 16.0431 17.9355C15.6083 17.9355 14.1086 17.7705 12.3241 17.6955H10.7345C10.2096 17.6955 9.66976 17.6955 9.15988 17.7705C7.46532 17.9055 6.01068 18.1453 5.48582 18.1903C5.42549 18.1884 5.36537 18.1984 5.30904 18.2202C5.25272 18.2419 5.20134 18.2748 5.15796 18.3166C5.11458 18.3586 5.0801 18.4089 5.05656 18.4645C5.03301 18.5202 5.02091 18.5799 5.02094 18.6402C5.02094 18.7596 5.06833 18.874 5.15271 18.9583C5.23707 19.0428 5.3515 19.0902 5.47081 19.0902Z" fill="#2B2A29"/>
<path fill-rule="evenodd" clip-rule="evenodd" d="M30.8145 23.574C30.8145 23.4348 30.7592 23.3013 30.6608 23.2029C30.5622 23.1045 30.4287 23.0491 30.2895 23.0491C29.2998 23.0491 25.7907 22.8093 21.7268 22.6593C20.5271 22.6593 19.2974 22.6593 18.0527 22.5693C16.808 22.4793 15.5633 22.5693 14.3636 22.5693C10.4346 22.5693 7.00044 22.8093 5.77076 22.8841C5.65262 22.8879 5.54036 22.9365 5.45679 23.0202C5.37323 23.1037 5.32461 23.2159 5.32086 23.3341C5.32083 23.3944 5.33295 23.4541 5.35649 23.5098C5.38002 23.5654 5.41451 23.6157 5.45789 23.6577C5.50127 23.6995 5.55264 23.7324 5.60897 23.7541C5.66529 23.7759 5.72541 23.7859 5.78574 23.784C7.01544 23.784 10.4196 24.0838 14.3486 24.2338C15.5483 24.2338 16.793 24.2338 18.0227 24.3088C19.2524 24.3838 20.5121 24.3088 21.7118 24.3088C25.7907 24.3088 29.2998 24.1438 30.2895 24.0988C30.4287 24.0988 30.5622 24.0436 30.6608 23.9451C30.7592 23.8467 30.8145 23.7132 30.8145 23.574Z" fill="#2B2A29"/>
<path fill-rule="evenodd" clip-rule="evenodd" d="M17.6777 27.6829C16.808 27.6829 15.8931 27.5931 14.9934 27.5781C14.0936 27.5631 13.1788 27.5781 12.294 27.5781C9.41477 27.5781 6.9104 27.8179 6.01063 27.8779C5.89117 27.8854 5.7788 27.9372 5.69557 28.0231C5.61233 28.1092 5.56424 28.2232 5.56073 28.3428C5.5607 28.4032 5.57282 28.4629 5.59636 28.5186C5.61991 28.5741 5.65439 28.6243 5.69776 28.6663C5.74114 28.7083 5.79253 28.7412 5.84885 28.7629C5.90518 28.7845 5.96529 28.7947 6.02562 28.7928C6.92538 28.7928 9.39977 29.0926 12.279 29.2426C13.1488 29.2426 14.0486 29.3176 14.9634 29.3326C15.8781 29.3476 16.778 29.3326 17.6477 29.3326C20.6469 29.3326 23.1963 29.1676 23.9312 29.1376C24.0677 29.1337 24.1974 29.0767 24.2927 28.9786C24.3878 28.8807 24.441 28.7494 24.441 28.6128C24.441 28.4775 24.3873 28.3479 24.2916 28.2522C24.1961 28.1566 24.0663 28.1029 23.9312 28.1029C23.2113 28.0429 20.6619 27.8329 17.6777 27.6829Z" fill="#2B2A29"/>
</g>
<defs>
<clipPath id="clip0_2573_1814">
<rect width="36" height="36" fill="white"/>
</clipPath>
</defs>
</svg>
