<svg width="36" height="36" viewBox="0 0 36 36" fill="none" xmlns="http://www.w3.org/2000/svg">
<g clip-path="url(#clip0_2808_6740)">
<g clip-path="url(#clip1_2808_6740)">
<path d="M33.9414 24.0786L25.6312 20.3548L25.6082 20.3442C24.7318 19.9693 23.7253 20.0622 22.9323 20.5911C22.8863 20.6215 22.8421 20.6545 22.8 20.6899L18.5064 24.3502C15.7863 23.029 12.978 20.2419 11.6567 17.557L15.3223 13.1982C15.3576 13.1541 15.3911 13.11 15.4229 13.0624C15.9403 12.2716 16.0277 11.2744 15.6557 10.4058V10.3846L11.9213 2.06024C11.424 0.912753 10.2309 0.229329 8.98954 0.380909C4.04483 1.03158 0.351073 5.25085 0.360017 10.2382C0.360017 24.2444 11.7555 35.6399 25.7617 35.6399C30.7491 35.6488 34.9683 31.9551 35.619 27.0104C35.7708 25.7694 35.0882 24.5764 33.9414 24.0786ZM25.7617 32.8175C13.2972 32.8038 3.19604 22.7027 3.18243 10.2382C3.16871 6.67476 5.80153 3.65459 9.33352 3.18216C9.33282 3.18919 9.33282 3.19628 9.33352 3.20332L13.0379 11.4942L9.39173 15.8583C9.35473 15.9009 9.32111 15.9463 9.29118 15.9941C8.75126 16.8226 8.68434 17.8733 9.11478 18.7636C10.713 22.0323 14.0064 25.301 17.3104 26.8975C18.2073 27.3239 19.2625 27.2476 20.0887 26.6964C20.134 26.6659 20.1775 26.6329 20.2192 26.5976L24.5075 22.939L32.7983 26.6523H32.8177C32.3511 30.1895 29.3296 32.8295 25.7617 32.8175Z" fill="black"/>
</g>
</g>
<defs>
<clipPath id="clip0_2808_6740">
<rect width="36" height="36" fill="white" transform="matrix(-1 0 0 1 36 0)"/>
</clipPath>
<clipPath id="clip1_2808_6740">
<rect width="36" height="36" fill="white"/>
</clipPath>
</defs>
</svg>
