<svg width="36" height="36" viewBox="0 0 36 36" fill="none" xmlns="http://www.w3.org/2000/svg">
<g clip-path="url(#clip0_4456_14038)">
<path d="M26.7188 16.3125C26.7188 16.5906 26.6363 16.8625 26.4818 17.0938C26.3272 17.325 26.1076 17.5053 25.8506 17.6117C25.5937 17.7181 25.3109 17.746 25.0382 17.6917C24.7654 17.6375 24.5148 17.5035 24.3181 17.3069C24.1215 17.1102 23.9875 16.8596 23.9333 16.5868C23.879 16.3141 23.9069 16.0313 24.0133 15.7744C24.1197 15.5174 24.3 15.2978 24.5312 15.1432C24.7625 14.9887 25.0344 14.9062 25.3125 14.9062C25.6855 14.9062 26.0431 15.0544 26.3069 15.3181C26.5706 15.5819 26.7188 15.9395 26.7188 16.3125ZM34.5938 15.75V20.25C34.5938 21.0705 34.2678 21.8574 33.6876 22.4376C33.1074 23.0178 32.3205 23.3438 31.5 23.3438H30.9698L28.6242 29.9123C28.4876 30.2948 28.236 30.6257 27.9039 30.8596C27.5718 31.0935 27.1755 31.2189 26.7694 31.2188H24.9806C24.5745 31.2189 24.1782 31.0935 23.8461 30.8596C23.514 30.6257 23.2624 30.2948 23.1258 29.9123L22.7897 28.9688H14.3353L13.9992 29.9123C13.8626 30.2948 13.611 30.6257 13.2789 30.8596C12.9468 31.0935 12.5505 31.2189 12.1444 31.2188H10.3556C9.94946 31.2189 9.55317 31.0935 9.2211 30.8596C8.88903 30.6257 8.63743 30.2948 8.50078 29.9123L6.71625 24.9159C4.96619 22.9533 3.90591 20.4722 3.69703 17.8509C3.19387 18.0192 2.75632 18.3414 2.44619 18.7719C2.13607 19.2024 1.96905 19.7194 1.96875 20.25C1.96875 20.4738 1.87986 20.6884 1.72162 20.8466C1.56339 21.0049 1.34878 21.0938 1.125 21.0938C0.901224 21.0938 0.686612 21.0049 0.528379 20.8466C0.370145 20.6884 0.28125 20.4738 0.28125 20.25C0.281316 19.273 0.620499 18.3262 1.2409 17.5715C1.86129 16.8167 2.72443 16.3006 3.68297 16.1114C3.88039 13.0439 5.23713 10.1663 7.47801 8.06227C9.71889 5.95823 12.6762 4.78526 15.75 4.78125H30.375C30.5988 4.78125 30.8134 4.87014 30.9716 5.02838C31.1299 5.18661 31.2188 5.40122 31.2188 5.625C31.2188 5.84878 31.1299 6.06339 30.9716 6.22162C30.8134 6.37986 30.5988 6.46875 30.375 6.46875H26.4122C28.6086 7.76746 30.3374 9.72816 31.3509 12.0698C31.4353 12.2639 31.5141 12.4594 31.5872 12.6577C32.3923 12.6804 33.1567 13.0161 33.7182 13.5935C34.2796 14.171 34.5937 14.9446 34.5938 15.75ZM32.9062 15.75C32.9062 15.377 32.7581 15.0194 32.4944 14.7556C32.2306 14.4919 31.873 14.3438 31.5 14.3438H30.9853C30.8056 14.3439 30.6305 14.2868 30.4856 14.1805C30.3407 14.0743 30.2334 13.9245 30.1795 13.7531C30.0721 13.4096 29.9463 13.0721 29.8027 12.742C28.9961 10.8784 27.662 9.29139 25.9646 8.17669C24.2672 7.062 22.2807 6.46829 20.25 6.46875H15.75C13.7303 6.46855 11.7542 7.05609 10.0627 8.15972C8.37118 9.26334 7.03739 10.8353 6.22398 12.684C5.41057 14.5327 5.1527 16.5781 5.48183 18.5708C5.81095 20.5635 6.71284 22.4173 8.0775 23.9062C8.15319 23.9874 8.21157 24.0831 8.24906 24.1875L10.0898 29.34C10.1086 29.3956 10.1444 29.444 10.192 29.4783C10.2397 29.5126 10.2969 29.5311 10.3556 29.5312H12.1444C12.2026 29.5314 12.2594 29.5135 12.307 29.48C12.3546 29.4465 12.3907 29.3991 12.4102 29.3442L12.9459 27.8438C13.004 27.6794 13.1116 27.5371 13.2539 27.4364C13.3962 27.3356 13.5662 27.2814 13.7405 27.2812H23.3845C23.5588 27.2814 23.7288 27.3356 23.8711 27.4364C24.0134 27.5371 24.121 27.6794 24.1791 27.8438L24.7148 29.347C24.7343 29.4019 24.7704 29.4493 24.818 29.4828C24.8656 29.5163 24.9224 29.5342 24.9806 29.5341H26.7694C26.8276 29.5342 26.8844 29.5163 26.932 29.4828C26.9796 29.4493 27.0157 29.4019 27.0352 29.347L29.5805 22.2188C29.6386 22.0544 29.7462 21.9121 29.8884 21.8114C30.0307 21.7106 30.2007 21.6564 30.375 21.6562H31.5C31.873 21.6562 32.2306 21.5081 32.4944 21.2444C32.7581 20.9806 32.9062 20.623 32.9062 20.25V15.75Z" fill="black"/>
<path d="M15.75 9.28125H21.375C21.5988 9.28125 21.8134 9.37015 21.9716 9.52838C22.1299 9.68661 22.2188 9.90122 22.2188 10.125C22.2188 10.3488 22.1299 10.5634 21.9716 10.7216C21.8134 10.8799 21.5988 10.9688 21.375 10.9688H15.75C15.5262 10.9688 15.3116 10.8799 15.1534 10.7216C14.9951 10.5634 14.9062 10.3488 14.9062 10.125C14.9062 9.90122 14.9951 9.68661 15.1534 9.52838C15.3116 9.37015 15.5262 9.28125 15.75 9.28125Z" fill="#00A3E2"/>
</g>
<defs>
<clipPath id="clip0_4456_14038">
<rect width="36" height="36" fill="white"/>
</clipPath>
</defs>
</svg>
