<svg width="36" height="36" viewBox="0 0 36 36" fill="none" xmlns="http://www.w3.org/2000/svg">
<g clip-path="url(#clip0_2686_2301)">
<path d="M36 18C36 18.6345 35.4856 19.1488 34.8511 19.1488H19.1497V34.8495C19.1497 35.7338 18.1923 36.2866 17.4264 35.8444C17.071 35.6392 16.852 35.2599 16.852 34.8495V19.1488H1.15059C0.26619 19.1488 -0.286569 18.1915 0.155633 17.4256C0.360864 17.0701 0.740131 16.8512 1.15059 16.8512H16.852V1.15054C16.852 0.266178 17.8094 -0.286555 18.5753 0.155625C18.9308 0.360847 19.1497 0.740096 19.1497 1.15054V16.8512H34.8511C35.4856 16.8512 36 17.3655 36 18Z" fill="#2B2A29"/>
</g>
<defs>
<clipPath id="clip0_2686_2301">
<rect width="36" height="36" fill="white" transform="matrix(-1 0 0 1 36 0)"/>
</clipPath>
</defs>
</svg>
