<svg width="36" height="36" viewBox="0 0 36 36" fill="none" xmlns="http://www.w3.org/2000/svg">
<path fill-rule="evenodd" clip-rule="evenodd" d="M18 33.9545C26.8115 33.9545 33.9545 26.8115 33.9545 18C33.9545 9.18855 26.8115 2.04545 18 2.04545C9.18855 2.04545 2.04545 9.18855 2.04545 18C2.04545 26.8115 9.18855 33.9545 18 33.9545ZM18 36C27.9411 36 36 27.9411 36 18C36 8.05887 27.9411 0 18 0C8.05887 0 0 8.05887 0 18C0 27.9411 8.05887 36 18 36Z" fill="#00A3E2"/>
<path fill-rule="evenodd" clip-rule="evenodd" d="M18 20.4546C19.3556 20.4546 20.4545 19.3556 20.4545 18C20.4545 16.6444 19.3556 15.5455 18 15.5455C16.6444 15.5455 15.5455 16.6444 15.5455 18C15.5455 19.3556 16.6444 20.4546 18 20.4546ZM18 22.0909C20.2593 22.0909 22.0909 20.2594 22.0909 18C22.0909 15.7407 20.2593 13.9091 18 13.9091C15.7407 13.9091 13.9091 15.7407 13.9091 18C13.9091 20.2594 15.7407 22.0909 18 22.0909Z" fill="#00A3E2"/>
</svg>
