<svg width="36" height="36" viewBox="0 0 36 36" fill="none" xmlns="http://www.w3.org/2000/svg">
<g clip-path="url(#clip0_2989_12068)">
<path d="M20.4232 34.5529H21.1732V34.0349L20.6888 33.8515L20.4232 34.5529ZM11.8699 27.168L11.2529 27.5944L11.253 27.5944L11.8699 27.168ZM9.01259 9.24816L9.66872 9.61148L9.66882 9.6113L9.01259 9.24816ZM13.9672 4.03125L13.5383 3.41603L13.538 3.4162L13.9672 4.03125ZM17.9966 2.14742L18.1421 2.88316L18.1424 2.8831L17.9966 2.14742ZM21.9072 2.28836L22.0806 1.55868L22.0804 1.55862L21.9072 2.28836ZM28.1579 6.5481L28.7963 6.15458L28.7962 6.15431L28.1579 6.5481ZM29.4992 11.6405L28.7492 11.6485L28.7492 11.6485L29.4992 11.6405ZM27.3405 21.1418L28.048 21.3909L28.048 21.3909L27.3405 21.1418ZM20.4232 34.5541H19.6732V36.5795L20.9924 35.0426L20.4232 34.5541ZM20.6888 33.8515C17.169 32.5187 14.5623 29.7442 12.4869 26.7415L11.253 27.5944C13.3988 30.6989 16.2215 33.7638 20.1576 35.2543L20.6888 33.8515ZM12.4869 26.7416C10.6588 24.0963 9.1915 21.2806 8.56642 18.3197L7.09877 18.6296C7.78035 21.8581 9.36366 24.8606 11.2529 27.5944L12.4869 26.7416ZM8.56642 18.3197C7.94254 15.3646 8.20614 12.2528 9.66872 9.61148L8.35647 8.88484C6.68572 11.9021 6.41599 15.3954 7.09877 18.6296L8.56642 18.3197ZM9.66882 9.6113C10.7343 7.68585 12.4233 6.0233 14.3965 4.64629L13.538 3.4162C11.4419 4.87902 9.56555 6.69989 8.35637 8.88503L9.66882 9.6113ZM14.3962 4.64646C15.5654 3.83126 16.7954 3.14959 18.1421 2.88316L17.851 1.41168C16.2057 1.73719 14.7744 2.55412 13.5383 3.41603L14.3962 4.64646ZM18.1424 2.8831C19.2977 2.65403 20.5394 2.7346 21.7341 3.0181L22.0804 1.55862C20.7311 1.23845 19.2661 1.1311 17.8507 1.41175L18.1424 2.8831ZM21.7338 3.01804C24.1899 3.60164 26.348 5.04279 27.5196 6.94189L28.7962 6.15431C27.3811 3.86061 24.8539 2.21764 22.0806 1.55868L21.7338 3.01804ZM27.5194 6.94161C28.3821 8.34133 28.7316 9.98247 28.7492 11.6485L30.2492 11.6326C30.2295 9.77757 29.8403 7.84838 28.7963 6.15458L27.5194 6.94161ZM28.7492 11.6485C28.7823 14.7378 27.7318 17.7716 26.6331 20.8928L28.048 21.3909C29.1306 18.3156 30.2855 15.0309 30.2492 11.6325L28.7492 11.6485ZM26.6331 20.8927C25.0416 25.4124 23.449 29.8771 19.8541 34.0656L20.9924 35.0426C24.7921 30.6153 26.4608 25.8981 28.048 21.3909L26.6331 20.8927ZM21.1732 34.5541V34.5529H19.6732V34.5541H21.1732Z" fill="#2B2A29"/>
<path fill-rule="evenodd" clip-rule="evenodd" d="M23.2494 12.5558C22.9477 11.9687 22.5253 11.452 22.0099 11.0396C21.4945 10.6273 20.8977 10.3287 20.2587 10.1633C19.6059 9.97754 18.9183 9.94982 18.2527 10.0824C17.587 10.215 16.9626 10.5042 16.4308 10.9259C15.6115 11.5905 15.0129 12.4879 14.7139 13.4996C14.415 14.5114 14.4297 15.5899 14.7561 16.5931C15.3691 18.1931 16.969 19.4791 19.825 19.195C19.9618 19.1656 20.0835 19.088 20.1679 18.9764C20.2522 18.8648 20.2936 18.7265 20.2846 18.587C20.2755 18.4474 20.2165 18.3157 20.1184 18.2159C20.0205 18.1162 19.8898 18.055 19.7503 18.0436C17.7316 18.0436 16.6102 17.2361 16.2663 16.0847C16.1142 15.3982 16.1743 14.6816 16.4386 14.03C16.7031 13.3784 17.1592 12.8227 17.7466 12.4361C18.0528 12.2008 18.4078 12.0371 18.7857 11.9569C19.1634 11.8766 19.5543 11.882 19.9297 11.9726C20.3361 12.0536 20.7222 12.2143 21.0661 12.4453C21.4099 12.6763 21.7048 12.973 21.9334 13.3184C22.3345 13.9495 22.5085 14.6984 22.4269 15.4417C22.3684 16.2035 22.0878 16.9315 21.6195 17.5351C21.5683 17.5763 21.526 17.6273 21.4945 17.6849C21.4632 17.7425 21.4435 17.8058 21.4365 17.8711C21.4296 17.9363 21.4356 18.0023 21.4542 18.0653C21.4726 18.1282 21.5035 18.1868 21.5446 18.238C21.5859 18.289 21.6369 18.3314 21.6945 18.3628C21.7521 18.3941 21.8154 18.4139 21.8806 18.4208C21.9459 18.4279 22.0119 18.4219 22.0747 18.4033C22.1377 18.3847 22.1964 18.3539 22.2475 18.3127C23.0086 17.5951 23.5308 16.6606 23.7427 15.6361C23.9281 14.5831 23.7544 13.4983 23.2494 12.5558Z" fill="#00A3E2"/>
</g>
<defs>
<clipPath id="clip0_2989_12068">
<rect width="36" height="36" fill="white"/>
</clipPath>
</defs>
</svg>
