<svg width="36" height="36" viewBox="0 0 36 36" fill="none" xmlns="http://www.w3.org/2000/svg">
<g clip-path="url(#clip0_3109_7802)">
<g clip-path="url(#clip1_3109_7802)">
<path d="M36.14 18C36.14 31.5793 21.44 40.0663 9.68 33.2767C-2.08 26.487 -2.08 9.51293 9.68 2.7233C12.3618 1.17494 15.4033 0.359845 18.5 0.359985C28.2376 0.371418 36.1286 8.26242 36.14 18ZM34.0647 18C34.0647 6.01827 21.0941 -1.47031 10.7176 4.52056C0.341182 10.5114 0.341182 25.4886 10.7176 31.4794C13.084 32.8456 15.7676 33.5648 18.5 33.5647C27.0922 33.5551 34.0552 26.5922 34.0647 18Z" fill="black"/>
<path d="M17.6353 28.4906C18.7882 29.1563 20.2294 28.3242 20.2294 26.9929C20.2294 26.0378 19.4551 25.2635 18.5 25.2635C18.1964 25.2635 17.8982 25.3434 17.6353 25.4952C16.4824 26.1608 16.4824 27.825 17.6353 28.4906Z" fill="#00A3E2"/>
<path d="M11.9282 14.5411C11.9282 11.2985 14.8682 8.66113 18.5 8.66113C22.1318 8.66113 25.0718 11.2985 25.0718 14.5411C25.0718 17.4673 22.6696 19.9023 19.5377 20.3485V20.767C19.5377 21.1377 19.3399 21.4803 19.0188 21.6656C18.3271 22.065 17.4624 21.5658 17.4624 20.767V19.3835C17.4624 18.8104 17.9269 18.3458 18.5 18.3458C20.98 18.3458 22.9965 16.6389 22.9965 14.5411C22.9965 12.4434 20.98 10.7364 18.5 10.7364C16.02 10.7364 14.0035 12.4434 14.0035 14.5411V15.2329C14.0035 15.6036 13.8058 15.9462 13.4847 16.1315C12.793 16.5309 11.9282 16.0317 11.9282 15.2329V14.5411Z" fill="#00A3E2"/>
</g>
</g>
<defs>
<clipPath id="clip0_3109_7802">
<rect width="36" height="36" fill="white"/>
</clipPath>
<clipPath id="clip1_3109_7802">
<rect width="36" height="36" fill="white" transform="translate(0.5)"/>
</clipPath>
</defs>
</svg>
