<svg width="36" height="36" viewBox="0 0 36 36" fill="none" xmlns="http://www.w3.org/2000/svg">
<path d="M24.2928 12.0764C24.0244 10.6085 23.3793 9.23553 22.4205 8.09204C22.1359 7.74752 21.8364 7.34309 21.4918 6.99857C21.241 6.73601 20.9472 6.51818 20.623 6.35448C20.5104 6.29744 20.3806 6.28425 20.2588 6.31746C20.137 6.35067 20.032 6.42792 19.9639 6.53423H19.7692C18.2713 7.403 16.7734 8.33169 15.3954 9.3203C14.6914 9.81461 13.9874 10.3089 13.2984 10.8182L11.2912 12.5108C10.2577 13.4245 9.1642 14.3532 8.16061 15.3567C7.69627 15.8211 7.26189 16.3004 6.84247 16.8546C6.61042 16.0527 6.53916 15.2127 6.63277 14.3832C7.0657 11.874 8.25768 9.55805 10.048 7.74752C10.542 7.26587 11.1209 6.8799 11.7555 6.60912C12.653 6.28142 13.6012 6.11409 14.5566 6.11483C16.0699 6.11148 17.5783 6.28746 19.0503 6.63908C19.1538 6.64623 19.2567 6.61731 19.3413 6.55724C19.4259 6.49718 19.4871 6.40965 19.5145 6.30954C19.5421 6.19248 19.5232 6.06929 19.4617 5.96592C19.4002 5.86254 19.3011 5.78705 19.185 5.75532C17.6635 5.34455 16.1011 5.10341 14.5266 5.03634C13.434 4.99688 12.3432 5.15415 11.3062 5.50068C8.11569 6.62411 5.41948 11.1927 5.00008 14.1884C4.81132 15.7791 5.0653 17.3912 5.73405 18.8469C6.39768 20.2794 7.40644 21.525 8.66991 22.4717C9.38679 22.9914 10.1946 23.3724 11.0515 23.5952C11.8571 23.8199 12.6871 23.9457 13.5231 23.9696C15.8565 24.0161 18.1458 23.3298 20.0688 22.0074C22.0044 20.6991 23.4032 18.7367 24.0082 16.4802C24.4144 15.0491 24.5115 13.5479 24.2928 12.0764ZM7.3218 18.068C7.2805 17.9858 7.24545 17.9007 7.21695 17.8133C7.78683 17.2647 8.39229 16.7543 9.0294 16.2855C10.1229 15.4167 11.2762 14.6378 12.3847 13.8439C13.4931 13.05 14.272 12.346 15.1857 11.6121C16.0993 10.8781 16.9981 10.1142 17.9268 9.3203C18.8556 8.52642 19.5145 8.06207 20.3235 7.49288C20.4505 7.58909 20.5707 7.69421 20.6829 7.80743C20.9826 8.13696 21.2521 8.52642 21.5068 8.85596C22.2258 9.72866 22.7379 10.7529 23.0047 11.8517C21.4168 12.8253 19.7992 13.7091 18.2115 14.6677C17.0347 15.3623 15.8949 16.1172 14.7963 16.9296C13.0623 18.2591 11.471 19.7651 10.048 21.4232L9.71842 21.2285C8.67162 20.4128 7.84735 19.3464 7.3218 18.1278V18.068ZM22.72 16.0458C22.1571 17.9612 20.9166 19.6062 19.23 20.6742C17.5582 21.7439 15.5953 22.2672 13.6129 22.1721C12.9039 22.163 12.1991 22.0623 11.5159 21.8726C11.3212 21.8726 11.1414 21.7377 10.9617 21.6779C11.6357 21.0936 12.3098 20.5544 13.0138 20.0301C13.7178 19.5059 14.5117 19.0416 15.2157 18.5322L17.4325 17.0345C19.3698 15.7062 21.2721 14.3382 23.1394 12.9302C23.1871 14.0051 23.0451 15.08 22.72 16.1057V16.0458Z" fill="#2B2A29"/>
<path d="M34.868 30.8299C34.808 30.5028 34.7177 30.1818 34.5983 29.8713C34.3943 29.3392 34.1225 28.8358 33.7895 28.3734C33.3344 27.7152 32.8338 27.0895 32.2916 26.5011C31.4988 25.6399 30.648 24.8341 29.7452 24.0894C28.502 23.0709 27.1988 22.1422 25.8806 21.0937C26.2754 20.3355 26.6012 19.5435 26.8542 18.727C27.2262 17.5012 27.5066 16.2496 27.693 14.9823C27.9282 13.7634 28.0386 12.5238 28.0226 11.2825C28.0109 10.4163 27.8643 9.55722 27.5882 8.73612C27.3519 7.99407 27.0666 7.2685 26.7344 6.56418C26.5001 6.06615 26.2139 5.5942 25.8806 5.15616C25.3136 4.4242 24.6482 3.77397 23.9034 3.22389C22.7999 2.44296 21.6083 1.79442 20.3534 1.29162C19.4793 0.910453 18.5781 0.595021 17.6573 0.347947C16.6796 0.0939628 15.6713 -0.021999 14.6614 0.0034333C13.419 0.0710242 12.193 0.318247 11.0215 0.737398C9.87059 1.15517 8.76212 1.68181 7.71122 2.31018C6.81084 2.81964 5.96292 3.4167 5.17979 4.09266C1.82451 7.0435 1.13549 13.4844 1.09055 14.1884C0.930139 16.093 1.20679 18.0091 1.89941 19.7905C2.0816 20.2425 2.2917 20.6827 2.52852 21.1086C2.87304 21.7078 3.26249 22.2919 3.66692 22.8762C4.42262 24.0351 5.3522 25.0707 6.42303 25.9468C7.17042 26.5408 8.01741 26.9973 8.92451 27.2949C9.9602 27.633 11.0224 27.8835 12.1 28.0438C12.8372 28.1673 13.5852 28.2125 14.3319 28.1787C15.4935 28.1037 16.641 27.8821 17.7471 27.5196C18.8205 27.1435 19.8623 26.6827 20.8626 26.1415C21.0654 26.3811 21.2553 26.6311 21.4319 26.8905C22.076 27.8791 22.5852 28.9426 23.1845 29.8863C23.6058 30.5374 24.066 31.1628 24.5625 31.7586C25.0314 32.3442 25.5314 32.9043 26.0604 33.4362C27.5169 34.789 29.3507 35.6668 31.3179 35.9527C31.7109 36.0234 32.114 36.0147 32.5035 35.9274C32.8931 35.8401 33.2612 35.6757 33.5864 35.4441C33.9116 35.2125 34.1871 34.9182 34.3968 34.5784C34.6067 34.2388 34.7465 33.8607 34.808 33.4662C34.8687 33.2044 34.9137 32.9394 34.9428 32.6724C34.9574 32.4079 34.9574 32.1429 34.9428 31.8784C34.9482 31.5274 34.9232 31.1766 34.868 30.8299ZM33.1304 33.0318C33.054 33.4116 32.8335 33.747 32.5151 33.9676C32.1966 34.1883 31.8051 34.2769 31.4228 34.2151C29.8526 34.0189 28.374 33.3681 27.1688 32.3428C26.6405 31.8733 26.1404 31.3732 25.6709 30.8449C25.1741 30.3334 24.7136 29.7879 24.2928 29.2122C23.6337 28.2835 23.0346 27.25 22.3455 26.3064C22.1627 26.0668 21.9678 25.8369 21.7614 25.6173L21.9561 25.4824C22.2881 25.2445 22.6034 24.9843 22.8998 24.7036C22.9925 24.6039 23.0439 24.4728 23.0439 24.3366C23.0439 24.2004 22.9925 24.0693 22.8998 23.9695C22.8044 23.8744 22.6751 23.821 22.5404 23.821C22.4055 23.821 22.2762 23.8744 22.1808 23.9695C21.9246 24.2068 21.6489 24.4222 21.357 24.6136C21.0695 24.8173 20.7693 25.0024 20.4582 25.1679C19.4913 25.6591 18.4901 26.0796 17.4624 26.4261C16.422 26.7445 15.3444 26.9259 14.257 26.9653C13.4306 26.986 12.605 26.9005 11.8004 26.7108C10.9651 26.5513 10.1437 26.3259 9.34391 26.0367C8.40267 25.6975 7.54472 25.1614 6.82746 24.4639C6.086 23.7393 5.43242 22.9297 4.88021 22.0524C4.53569 21.5131 4.1762 20.9739 3.86164 20.3746C3.66564 20.0053 3.49062 19.6252 3.33738 19.2363C2.76207 17.6613 2.55207 15.9762 2.72325 14.3083C3.41228 6.36945 7.44159 4.48212 8.59497 3.82305C9.54443 3.25153 10.5479 2.77489 11.5907 2.40004C12.6043 2.01747 13.6698 1.79022 14.7513 1.726C15.5934 1.70272 16.4349 1.79343 17.2527 1.99563C18.0993 2.20117 18.9302 2.46646 19.7393 2.7895C20.6994 3.15985 21.6264 3.61083 22.5104 4.1376C23.3636 4.61851 24.1244 5.24745 24.7572 5.99497C25.0413 6.34753 25.2873 6.72912 25.4912 7.13337C25.8224 7.77645 26.1077 8.44218 26.345 9.12556C26.5898 9.82074 26.7359 10.5468 26.7794 11.2825C26.8155 12.4504 26.7404 13.619 26.5547 14.7726C26.4266 15.7809 26.2415 16.7809 26.0004 17.7684C25.7589 18.7582 25.4073 19.7178 24.9519 20.6293C24.7106 21.1521 24.425 21.6532 24.0981 22.1272C23.7765 22.5823 23.4156 23.0083 23.0196 23.4004C22.9764 23.4417 22.9416 23.4912 22.9175 23.5459C22.8933 23.6005 22.8801 23.6595 22.8788 23.7193C22.8759 23.8401 22.9212 23.9571 23.0046 24.0445C23.088 24.1318 23.2028 24.1825 23.3237 24.1854C23.4444 24.1882 23.5614 24.1429 23.6487 24.0595C24.089 23.6329 24.4947 23.1721 24.8621 22.6815C25.0268 22.4568 25.1616 22.2171 25.3115 21.9774C26.5247 22.996 27.738 23.9547 28.8914 24.9732C29.7065 25.7167 30.4673 26.5177 31.1681 27.3699C31.6382 27.9319 32.0733 28.5222 32.4713 29.1373C32.709 29.5174 32.9001 29.9248 33.0405 30.3505C33.1163 30.5962 33.1763 30.8463 33.2202 31.0995C33.2351 31.339 33.2351 31.579 33.2202 31.8186L33.1304 33.0318Z" fill="#00A3E2"/>
</svg>
