<svg width="36" height="36" viewBox="0 0 36 36" fill="none" xmlns="http://www.w3.org/2000/svg">
<g clip-path="url(#clip0_3109_7821)">
<g clip-path="url(#clip1_3109_7821)">
<path d="M14.3715 1.48594C14.3715 0.864098 14.8756 0.359985 15.4974 0.359985H21.5025C22.3693 0.359985 22.911 1.29828 22.4776 2.04892C22.2765 2.39729 21.9048 2.6119 21.5025 2.6119H15.4974C14.8756 2.6119 14.3715 2.10779 14.3715 1.48594ZM21.5025 33.3881H15.4974C14.6307 33.388 14.089 34.3263 14.5223 35.077C14.7234 35.4254 15.0951 35.64 15.4974 35.64H21.5025C22.3693 35.64 22.911 34.7017 22.4776 33.951C22.2765 33.6027 21.9048 33.3881 21.5025 33.3881ZM33.5128 0.359985H29.0089C28.1422 0.359985 27.6004 1.29828 28.0338 2.04892C28.2349 2.39729 28.6067 2.6119 29.0089 2.6119H33.5128C33.72 2.6119 33.8881 2.77993 33.8881 2.98723V7.49105C33.8881 8.35781 34.8264 8.89954 35.577 8.46616C35.9254 8.26502 36.14 7.89331 36.14 7.49105V2.98723C36.14 1.53624 34.9637 0.359985 33.5128 0.359985ZM35.014 13.8715C34.3922 13.8714 33.8881 14.3756 33.8881 14.9974V21.0025C33.8881 21.8693 34.8264 22.411 35.577 21.9776C35.9254 21.7765 36.14 21.4048 36.14 21.0025V14.9974C36.14 14.3756 35.6359 13.8715 35.014 13.8715ZM35.014 27.383C34.3922 27.3829 33.8881 27.887 33.8881 28.5089V33.0127C33.8881 33.22 33.72 33.3881 33.5127 33.3881H29.0089C28.1422 33.3881 27.6004 34.3264 28.0338 35.077C28.235 35.4254 28.6066 35.64 29.0089 35.64H33.5127C34.9637 35.6399 36.14 34.4637 36.14 33.0127V28.5089C36.14 27.8871 35.6359 27.383 35.014 27.383ZM1.98594 22.1285C2.60777 22.1285 3.1119 21.6244 3.1119 21.0025V14.9974C3.1119 14.1307 2.17361 13.5889 1.42296 14.0223C1.07459 14.2235 0.859985 14.5952 0.859985 14.9974V21.0025C0.859985 21.6244 1.36407 22.1285 1.98594 22.1285ZM7.99105 33.3881H3.48723C3.27993 33.3881 3.1119 33.22 3.1119 33.0127V28.5089C3.1119 27.6422 2.17361 27.1004 1.42296 27.5338C1.07459 27.7349 0.859985 28.1067 0.859985 28.5089V33.0127C0.859985 34.4638 2.03619 35.6401 3.48721 35.64H7.99105C8.85781 35.6399 9.39955 34.7016 8.96613 33.951C8.765 33.6027 8.39329 33.3881 7.99105 33.3881ZM1.98594 8.61701C2.60779 8.61701 3.1119 8.11289 3.1119 7.49105V2.98723C3.1119 2.77993 3.27993 2.61188 3.48723 2.6119H7.99105C8.85781 2.61186 9.39955 1.67354 8.96613 0.922921C8.765 0.574565 8.39329 0.359985 7.99105 0.359985H3.48723C2.03624 0.359985 0.859985 1.53624 0.859985 2.98721V7.49105C0.859985 8.11289 1.3641 8.61701 1.98594 8.61701Z" fill="black"/>
<path fill-rule="evenodd" clip-rule="evenodd" d="M27.5076 28.1336H9.49232C8.87046 28.1336 8.36636 27.6295 8.36636 27.0076V8.99229C8.36636 8.37045 8.87048 7.86633 9.49232 7.86633H27.5076C28.1295 7.86633 28.6336 8.37045 28.6336 8.99229V27.0076C28.6336 27.6295 28.1295 28.1336 27.5076 28.1336ZM26.3817 10.1183H10.6183V25.8817H26.3817V10.1183Z" fill="#00A3E2"/>
</g>
</g>
<defs>
<clipPath id="clip0_3109_7821">
<rect width="36" height="36" fill="white"/>
</clipPath>
<clipPath id="clip1_3109_7821">
<rect width="36" height="36" fill="white" transform="translate(0.5)"/>
</clipPath>
</defs>
</svg>
