<svg width="36" height="36" viewBox="0 0 36 36" fill="none" xmlns="http://www.w3.org/2000/svg">
<path d="M35.9952 3.72943C35.999 3.00312 35.7312 2.30163 35.2444 1.76251C34.7943 1.5025 34.2962 1.33651 33.78 1.27457C33.2639 1.21263 32.7405 1.25604 32.2416 1.40216C30.4095 1.80628 28.6002 2.30748 26.8214 2.90362C25.9054 3.17389 25.0045 3.48919 24.1186 3.83454C22.7974 4.33002 21.5061 4.90057 20.1999 5.47113C17.7962 6.52081 15.4506 7.69864 13.173 8.99956C10.8879 10.2858 8.73537 11.7946 6.74677 13.5039L1.59677 18.1134L0.410604 19.2996C0.264273 19.453 0.138133 19.6246 0.035239 19.81C-0.0117463 19.9411 -0.0117463 20.0844 0.035239 20.2155C0.0660039 20.3803 0.136891 20.535 0.241638 20.6659C0.346384 20.7969 0.481767 20.9001 0.635823 20.9662C1.21593 21.1642 1.8246 21.2656 2.43757 21.2665C3.09822 21.2665 4.26936 21.2665 5.27534 21.4167C5.78411 21.4014 6.29178 21.4725 6.7768 21.6268L7.06207 24.9751C7.15216 25.936 7.19721 26.6868 7.19721 27.3925C7.19721 28.5186 7.04706 30.4705 7.04706 32.0019C7.04706 32.1373 7.10085 32.2672 7.19658 32.3629C7.29233 32.4586 7.42217 32.5125 7.55756 32.5125C7.69295 32.5125 7.8228 32.4586 7.91853 32.3629C8.01427 32.2672 8.06805 32.1373 8.06805 32.0019C8.06805 30.5005 8.26324 28.5186 8.27826 27.3925C8.27826 26.6568 8.27826 25.891 8.17315 24.885C8.06805 23.8791 8.06805 22.6179 7.94795 21.8821C7.82783 21.1464 7.81281 20.7409 5.93598 20.3806C4.8249 20.2455 3.29341 20.1705 2.4676 20.1253L1.64179 20.0053L2.51265 19.1494L7.69269 14.6451C9.61011 12.9802 11.693 11.5162 13.9087 10.2758C16.1486 9.06768 18.4488 7.97518 20.8005 7.00261C22.0767 6.46209 23.3679 5.93658 24.6593 5.50116C27.4065 4.48383 30.241 3.71991 33.1275 3.21894C34.4787 3.80451 34.2836 4.315 34.2535 4.72039C34.1976 5.47831 34.0617 6.22819 33.8481 6.95757L31.9113 13.5039C31.5209 14.8102 31.1005 16.0264 30.6651 17.2126C29.599 20.0803 28.4278 22.768 27.3468 25.876C27.0936 26.5813 26.7925 27.2686 26.4459 27.933C25.8904 28.984 25.2598 29.9899 24.6742 30.936C24.5091 31.2418 24.3181 31.5331 24.1036 31.8067L23.9535 31.9869L23.8635 31.8519L22.362 29.4945C21.6216 28.4788 20.8298 27.5016 19.9896 26.5666C19.147 25.6237 18.2498 24.7314 17.3021 23.8941C16.6565 23.3535 14.8397 21.8521 14.2991 22.9332C14.149 23.1283 13.9838 23.5036 13.8937 23.6088L12.137 26.1613L10.3653 29.2993C9.73468 30.3954 8.98395 31.4314 8.30829 32.5275C8.02302 33.0079 7.73774 33.5034 7.4975 34.029C7.44587 34.1365 7.43901 34.2601 7.47842 34.3726C7.51782 34.4853 7.60029 34.5777 7.70771 34.6296C7.70771 34.6296 8.12811 34.9749 8.74371 34.5094C9.35931 34.044 9.53949 33.9238 9.88482 33.6535C10.2302 33.3832 11.0259 32.8278 11.5815 32.4373C12.137 32.047 12.5875 31.7617 13.0829 31.4164L15.3651 29.8248C16.5663 28.969 17.7225 28.0831 18.8485 27.1372L19.1038 27.4225C19.9146 28.3684 20.6803 29.3593 21.341 30.2902L22.6923 32.6025C22.8298 32.8585 22.9854 33.1044 23.1578 33.3382C23.2437 33.4293 23.3491 33.4995 23.4662 33.5437C23.5833 33.5878 23.7088 33.6049 23.8333 33.5935C24.1891 33.535 24.5219 33.379 24.7944 33.1431C25.2211 32.7292 25.5898 32.2596 25.8904 31.7467C26.5061 30.8008 27.1816 29.7648 27.7673 28.7437C28.1706 28.0263 28.517 27.2782 28.8033 26.5066C29.9144 23.4136 31.1455 20.7561 32.2266 17.9182C32.7071 16.687 33.1425 15.4408 33.5478 14.1045L35.4997 7.49809C35.8639 6.27613 36.0312 5.00398 35.9952 3.72943ZM13.6535 28.924C13.1351 29.2588 12.634 29.6196 12.152 30.0051C11.6415 30.4104 11.1611 30.8308 10.6506 31.2813L9.52448 32.4373C10.11 31.5516 10.7256 30.6957 11.2662 29.7948L13.128 26.7919L14.8547 24.3145C14.9297 24.2244 15.1549 23.8491 15.2451 23.6989C15.3351 23.5488 15.5454 23.8941 15.7105 24.0142C15.8757 24.1342 16.3862 24.6298 16.5813 24.795C17.0919 25.2604 17.6024 25.7859 18.0828 26.2963C16.6565 27.2424 15.11 28.0081 13.6535 28.924Z" fill="#2B2A29"/>
<path d="M20.5302 14.5099C19.7345 15.3808 19.0287 16.2967 18.248 17.2426C17.4672 18.1885 16.5663 19.4047 15.8006 20.5458C15.6354 20.7861 15.4853 21.0412 15.3351 21.2815C14.9447 22.4677 15.5003 22.2874 16.5363 21.4017L16.6715 21.1914C17.5122 20.1253 18.4581 19.1194 19.344 18.1885C20.7704 16.5519 22.347 15.0504 23.8484 13.564L27.1817 10.4259C28.8183 8.92448 30.4548 7.33293 32.0615 5.75639C34.4937 1.49224 27.8723 7.49808 24.2988 10.7563C22.9926 12.0025 21.7314 13.1886 20.5302 14.5099Z" fill="#00A3E2"/>
<path d="M19.9297 9.91548C17.8426 11.3269 15.8307 12.8283 13.8188 14.4199L9.07417 18.2787C8.77389 18.5488 8.42854 18.8341 8.08321 19.1194C7.36251 20.0203 7.46761 20.3506 9.1042 19.6299C9.34444 19.4647 9.58467 19.2996 9.77986 19.1344L14.7347 15.591L27.0766 7.07772C28.2928 6.25193 29.464 5.42612 30.6802 4.63034C30.9655 3.62436 28.8334 4.33005 27.0766 5.36606L26.2809 5.84652C24.1488 7.18283 22.0017 8.4891 19.9297 9.91548Z" fill="#00A3E2"/>
</svg>
