<svg width="36" height="36" viewBox="0 0 36 36" fill="none" xmlns="http://www.w3.org/2000/svg">
<g clip-path="url(#clip0_2794_2600)">
<path fill-rule="evenodd" clip-rule="evenodd" d="M17.5152 13.5011C18.0102 14.1011 18.6702 13.9511 19.1802 13.4111C19.3579 13.1508 19.4275 12.8317 19.3744 12.521C19.3212 12.2103 19.1494 11.9325 18.8952 11.7461C18.6603 11.6047 18.3819 11.554 18.1122 11.6034C17.8425 11.6528 17.6001 11.7991 17.4307 12.0146C17.2612 12.2301 17.1763 12.5001 17.1918 12.7738C17.2074 13.0476 17.3224 13.3062 17.5152 13.5011Z" fill="#00A3E2"/>
<path fill-rule="evenodd" clip-rule="evenodd" d="M21.0999 13.5012C21.5949 14.1012 22.2549 13.9512 22.7649 13.4112C22.9292 13.1546 22.9911 12.8457 22.9383 12.5456C22.8855 12.2456 22.7219 11.9763 22.4799 11.7912C22.2506 11.6769 21.989 11.6443 21.7385 11.6989C21.488 11.7536 21.2637 11.8921 21.1028 12.0916C20.9417 12.2911 20.8538 12.5396 20.8532 12.7959C20.8527 13.0523 20.9397 13.3011 21.0999 13.5012Z" fill="#00A3E2"/>
<path fill-rule="evenodd" clip-rule="evenodd" d="M17.2602 5.71662C17.7552 6.31662 18.4152 6.18162 18.9252 5.64162C19.0993 5.38019 19.1667 5.06205 19.1137 4.75246C19.0608 4.44288 18.8913 4.16529 18.6402 3.97662C18.4071 3.84642 18.1351 3.80341 17.8732 3.8553C17.6112 3.90717 17.3763 4.05055 17.2102 4.25979C17.0443 4.46904 16.9582 4.73049 16.9674 4.99739C16.9765 5.26429 17.0803 5.51924 17.2602 5.71662Z" fill="#00A3E2"/>
<path fill-rule="evenodd" clip-rule="evenodd" d="M22.48 5.64162C22.654 5.38019 22.7215 5.06205 22.6684 4.75246C22.6155 4.44288 22.4461 4.16529 22.195 3.97662C21.9618 3.84642 21.69 3.80341 21.4279 3.8553C21.166 3.90717 20.931 4.05055 20.7651 4.25979C20.5992 4.46904 20.5131 4.73049 20.5221 4.99739C20.5312 5.26429 20.635 5.51924 20.815 5.71662C21.34 6.31662 22 6.18162 22.48 5.64162Z" fill="#00A3E2"/>
<path fill-rule="evenodd" clip-rule="evenodd" d="M33.984 8.86636C36.4588 7.59145 36.6688 2.02684 33.8041 0.706923C31.2243 -0.492994 21.1149 0.166961 18.3252 0.301952C18.1992 0.323154 18.0849 0.388272 18.0025 0.48575C17.92 0.583226 17.8749 0.706757 17.8749 0.834416C17.8749 0.962073 17.92 1.0856 18.0025 1.18308C18.0849 1.28056 18.1992 1.34568 18.3252 1.36688C20.7099 1.36688 30.9393 1.0669 33.0841 2.14683C34.389 2.80678 34.344 5.3866 33.7141 6.64651C33.3241 7.41147 33.3091 7.41147 29.7243 7.65145C27.4144 7.78644 18.4002 8.19141 17.8902 8.19141C17.2497 8.22747 16.6083 8.14091 16.0003 7.93644C13.4805 6.70651 14.3054 1.50187 16.6602 1.65186C16.7214 1.65592 16.7826 1.6479 16.8406 1.62822C16.8985 1.60854 16.9521 1.57761 16.9981 1.53718C17.044 1.49677 17.0817 1.44767 17.1085 1.39271C17.1355 1.33774 17.1514 1.27799 17.1552 1.21689C17.2302 0.106965 13.8554 0.556933 13.3605 4.41168C13.2033 5.27136 13.2917 6.15792 13.6153 6.96969C13.9389 7.78147 14.4848 8.4856 15.1903 9.00136C12.7305 10.3513 12.1905 15.481 15.1903 17.1158C15.7746 17.3891 16.4061 17.5469 17.0502 17.5808C18.3702 17.7158 31.5693 17.5808 33.5491 16.9658C36.0838 16.0658 36.6238 10.5013 33.984 8.86636ZM33.5791 14.626C33.1891 15.391 33.1741 15.391 29.6043 15.616C27.5644 15.736 18.2502 16.1708 17.7552 16.1558C17.1148 16.1908 16.4736 16.1044 15.8653 15.901C13.3155 14.671 14.1554 9.51132 16.4952 9.61631C18.61 9.7513 26.9946 9.61632 29.2294 9.46633C30.5053 9.48354 31.7707 9.70117 32.9791 10.1113C34.269 10.7712 34.224 13.3511 33.5791 14.626Z" fill="#2B2A29"/>
<path fill-rule="evenodd" clip-rule="evenodd" d="M7.48137 26.2357C7.52424 25.4438 7.4484 24.65 7.25637 23.8807C6.50637 21.6307 4.25637 22.3057 3.14637 22.2907C2.32137 22.2907 -0.258628 22.1107 0.146373 23.1307C0.192973 23.2433 0.281972 23.3332 0.394201 23.3809C0.506429 23.4286 0.632902 23.4302 0.746372 23.3857C1.49029 23.2847 2.24589 23.3101 2.98137 23.4607C4.48137 23.6107 5.53137 23.2057 5.69637 24.5257V33.2407C5.69637 34.2757 5.60637 34.5607 3.94137 34.7407C2.93943 34.8037 1.93361 34.7584 0.941372 34.6057C0.873413 34.5928 0.803599 34.5935 0.735913 34.6076C0.668227 34.6219 0.603997 34.6492 0.546887 34.6882C0.489779 34.7272 0.440912 34.7771 0.403076 34.835C0.36524 34.8929 0.339176 34.9577 0.326372 35.0257C0.313568 35.0936 0.314276 35.1634 0.328454 35.231C0.342631 35.2988 0.370001 35.363 0.409003 35.42C0.448003 35.4772 0.49787 35.5261 0.555755 35.5639C0.613642 35.6017 0.678413 35.6278 0.746372 35.6407C1.81971 35.8811 2.91642 36.0019 4.01637 36.0007C5.51637 36.0007 6.53637 35.7757 7.01637 34.5007C7.55637 34.3957 7.48137 26.3857 7.48137 26.2357Z" fill="#2B2A29"/>
<path fill-rule="evenodd" clip-rule="evenodd" d="M31.4793 27.69C31.3044 27.2853 31.0186 26.9382 30.6552 26.6888C30.2916 26.4393 29.865 26.2977 29.4244 26.2802C29.5015 25.7786 29.4418 25.2656 29.2518 24.795C29.0616 24.3246 28.7481 23.9142 28.3441 23.607C27.9403 23.2998 27.4609 23.1074 26.9568 23.0499C26.4526 22.9925 25.9423 23.072 25.4796 23.2803C24.0786 23.9484 22.8126 24.8687 21.7449 25.9952C20.9949 26.6252 19.6 27.63 18.985 28.08L18.79 28.245C17.7283 28.2159 16.677 28.0289 15.6703 27.69C15.4753 27.615 15.2803 27.615 15.2503 27.48C15.2203 27.345 15.3403 27.18 15.5203 26.94C17.3802 24.4053 19.735 23.5203 18.0702 20.9405C16.8102 19.0206 13.4355 20.8505 11.5606 22.1705L8.81579 23.8503C8.71255 23.927 8.64008 24.0381 8.61145 24.1634C8.5828 24.2888 8.59985 24.4203 8.65952 24.5343C8.71921 24.6482 8.81759 24.7371 8.93698 24.785C9.05636 24.8328 9.18892 24.8364 9.31075 24.7952L12.1606 23.1153C13.1355 22.4853 16.3003 20.6855 16.8852 21.6155C17.8902 23.2503 16.1203 23.5653 14.2604 25.9652C13.3305 27.15 13.5405 27.96 14.0954 28.53C14.9245 29.1182 15.88 29.5034 16.8852 29.6549C20.41 30.5399 26.3346 28.575 27.6244 28.305C28.6594 28.095 29.4094 27.615 29.8593 28.47C30.3093 29.3249 28.3594 30.3899 27.5944 30.8549C23.2597 33.8546 15.6853 33.7496 10.7057 32.5947C10.5557 32.5947 10.6157 32.5947 8.8008 33.0147C7.3009 33.7646 7.75087 34.2596 8.8008 34.0346L10.5707 33.6446C16.0753 35.0546 23.6797 35.3696 28.5694 32.2947C30.3843 31.1399 32.4691 29.6549 31.4793 27.69ZM28.2394 26.4002C25.3446 27.015 23.8747 27.66 21.2949 28.005C21.1599 28.005 21.5799 27.885 22.6449 27.27C24.1447 26.3252 26.1546 24.2703 27.3096 24.7352C27.6366 24.8546 27.9078 25.0907 28.0713 25.398C28.2346 25.7054 28.2784 26.0624 28.1944 26.4002H28.2394Z" fill="#2B2A29"/>
</g>
<defs>
<clipPath id="clip0_2794_2600">
<rect width="36" height="36" fill="white"/>
</clipPath>
</defs>
</svg>
