<svg width="36" height="36" viewBox="0 0 36 36" fill="none" xmlns="http://www.w3.org/2000/svg">
<g clip-path="url(#clip0_2573_1816)">
<path fill-rule="evenodd" clip-rule="evenodd" d="M15.8841 25.5193C17.2794 24.0192 18.8847 22.0387 20.475 20.1934C22.0653 18.348 23.8806 16.1277 24.9759 14.8224C25.6628 15.1243 26.391 15.3216 27.1364 15.4075C28.1088 15.5025 29.0901 15.369 30.0018 15.0174C31.1049 14.6083 32.1224 13.9979 33.0024 13.2171C33.8686 12.4594 34.5817 11.5427 35.1028 10.5166C35.3355 9.97252 35.3932 9.36954 35.2678 8.79123C35.0354 7.7271 34.6191 6.71167 34.0376 5.79067C33.8669 5.48844 33.6763 5.19775 33.4676 4.92051C33.4181 4.85092 33.3629 4.78568 33.3024 4.72546C33.1783 4.62171 33.0216 4.56486 32.8599 4.56486C32.6981 4.56486 32.5415 4.62171 32.4172 4.72546C32.4172 4.72546 30.5569 6.88587 29.1766 8.28114L29.0267 8.43117L26.3412 8.79123C26.3412 6.12073 26.221 6.19575 29.0566 2.28C29.1736 2.12589 29.2742 1.95994 29.3567 1.78491C29.3967 1.71409 29.4212 1.63552 29.4284 1.55449C29.4356 1.47345 29.4252 1.39182 29.3982 1.31508C29.3712 1.23833 29.3281 1.16826 29.2717 1.10956C29.2155 1.05086 29.1472 1.0049 29.0716 0.974758C27.4604 0.29601 25.656 0.231951 24.0007 0.794724C23.1498 1.04656 22.3653 1.48398 21.7038 2.07547C21.0422 2.66697 20.52 3.39781 20.175 4.21537C19.8369 5.34286 19.6998 6.52104 19.7698 7.69603C19.8309 8.73945 20.1014 9.75992 20.565 10.6966L10.7082 21.4386C10.004 21.15 9.26065 20.9679 8.50275 20.8986C7.57263 20.8329 6.6396 20.9764 5.77224 21.3186C4.69827 21.732 3.71111 22.3426 2.86169 23.1189C2.01569 23.9031 1.33254 24.8461 0.851306 25.8945C0.266195 27.1096 1.19637 29.2851 1.97652 30.5454C2.18808 30.9177 2.43422 31.2693 2.71166 31.5955C2.83299 31.7052 2.9907 31.7659 3.15425 31.7659C3.31778 31.7659 3.47549 31.7052 3.59682 31.5955C3.59682 31.5955 5.33715 29.5251 6.79243 28.0249L6.91245 27.8898L9.43293 27.5298V30.1852L9.3129 30.3504C8.74279 31.1605 7.39254 32.9908 6.82243 33.846C6.7081 34.0204 6.60294 34.2007 6.50738 34.3861C6.45807 34.488 6.43025 34.5988 6.42561 34.7118C6.42099 34.8249 6.43965 34.9377 6.48045 35.0431C6.52127 35.1487 6.58334 35.2447 6.66281 35.3253C6.74229 35.4058 6.83748 35.4691 6.94247 35.5113C8.65803 36.1627 10.5529 36.1627 12.2685 35.5113C13.1549 35.2234 13.9669 34.7433 14.6464 34.1053C15.3258 33.4674 15.8561 32.6872 16.1993 31.8205C16.4952 30.6907 16.5966 29.5188 16.4993 28.3549C16.464 27.3808 16.2557 26.4207 15.8841 25.5193ZM14.5639 31.3105C14.3042 31.9359 13.9103 32.4966 13.4099 32.9529C12.9095 33.4092 12.315 33.75 11.6684 33.951C10.6641 34.33 9.58025 34.4487 8.51775 34.296C9.14787 33.3658 10.1531 31.9857 10.6182 31.2955C10.8174 31.0305 10.9511 30.7219 11.0082 30.3954V27.0646C11.0243 26.905 11.0243 26.7442 11.0082 26.5846C10.9808 26.4405 10.9124 26.3071 10.8113 26.2008C10.7102 26.0944 10.5807 26.0193 10.4381 25.9845C10.0997 25.9374 9.75636 25.9374 9.41793 25.9845C8.51775 26.1045 7.09248 26.4346 6.61239 26.4646C6.28958 26.5662 6.00303 26.7589 5.78724 27.0196C5.20214 27.6348 4.0019 29.0001 3.28176 29.8552C2.87846 29.2215 2.54162 28.5477 2.27658 27.8448C2.07804 27.4125 2.03562 26.9247 2.15655 26.4646C2.52315 25.5505 3.06897 24.7191 3.76185 24.0192C4.49276 23.3701 5.33702 22.8616 6.25233 22.5189C6.93465 22.2324 7.67439 22.1091 8.41273 22.1587C9.17608 22.2151 9.92309 22.4083 10.6182 22.7289C10.7369 22.779 10.8682 22.7914 10.9943 22.7647C11.1204 22.7379 11.2352 22.6729 11.3233 22.5789L21.6453 10.9966C21.6453 9.70641 20.8351 10.0215 20.715 7.66602C20.6525 6.59976 20.7899 5.53119 21.1201 4.51543C21.4156 3.85681 21.8547 3.27255 22.4049 2.80533C22.9552 2.33811 23.603 1.99972 24.3008 1.81491C25.4838 1.4004 26.7636 1.34817 27.9765 1.6649C27.3463 2.55006 26.0861 4.14036 25.5461 4.87549C25.3539 5.09964 25.2199 5.36755 25.1559 5.65564C25.1559 6.19575 25.0509 8.16111 25.0509 8.98627C25.0378 9.14103 25.0378 9.29661 25.0509 9.45136C25.0738 9.57102 25.1294 9.68202 25.2114 9.77205C25.2936 9.86208 25.3989 9.92763 25.5159 9.96145C25.8396 10.005 26.1675 10.005 26.4912 9.96145C27.4064 9.87144 28.8316 9.61639 29.3116 9.58638C29.6234 9.50189 29.9044 9.33012 30.1218 9.09129C30.7219 8.50618 31.9522 7.20093 32.7024 6.37578C33.0885 7.01854 33.4007 7.70305 33.6325 8.41617C33.7872 8.84265 33.7872 9.30993 33.6325 9.73641C33.2285 10.5922 32.6688 11.3655 31.9823 12.0168C31.2488 12.6699 30.3987 13.1789 29.4767 13.5171C28.7715 13.7733 28.0151 13.8556 27.2714 13.7572C26.4935 13.6548 25.7407 13.4107 25.0509 13.037C24.8771 12.9516 24.6792 12.9289 24.4905 12.9726C24.3019 13.0164 24.1341 13.1239 24.0158 13.2771C23.0404 14.5073 21.1802 16.7277 19.1697 19.0831C17.5362 21.0079 15.8858 22.9183 14.2188 24.8143C14.0936 24.9441 14.0153 25.1119 13.9962 25.2913C13.9772 25.4707 14.0186 25.6513 14.1138 25.8045C14.5594 26.643 14.8107 27.5712 14.8489 28.5199C14.902 29.4544 14.8058 30.3913 14.5639 31.2955V31.3105Z" fill="#2B2A29"/>
<path fill-rule="evenodd" clip-rule="evenodd" d="M4.49696 15.0175C5.57232 15.3906 6.70448 15.5733 7.84259 15.5577C8.87079 15.5696 9.89098 15.3758 10.8432 14.9875L12.2234 16.3678C12.2641 16.4104 12.3129 16.4444 12.3671 16.4676C12.4212 16.4909 12.4795 16.5028 12.5385 16.5028C12.5974 16.5028 12.6557 16.4909 12.7099 16.4676C12.764 16.4444 12.8129 16.4104 12.8535 16.3678C12.936 16.2837 12.9822 16.1706 12.9822 16.0527C12.9822 15.935 12.936 15.8219 12.8535 15.7377L11.2782 13.9973C11.2101 13.9213 11.1188 13.8699 11.0185 13.8509C10.9181 13.8319 10.8144 13.8465 10.7231 13.8923C9.81229 14.2715 8.82777 14.4407 7.84259 14.3874C6.85064 14.363 5.87063 14.165 4.94705 13.8023C4.3217 13.4697 3.77796 13.0025 3.35508 12.4343C2.93219 11.8661 2.64068 11.2112 2.50158 10.5167C2.21696 9.45522 2.21696 8.33752 2.50158 7.27606C3.37175 7.9962 4.67699 9.13641 5.32212 9.67652C5.57591 9.91128 5.88594 10.0766 6.22229 10.1566C6.76239 10.1566 8.71275 10.3816 9.53792 10.4116C9.70742 10.4306 9.8785 10.4306 10.048 10.4116C10.2096 10.3929 10.3622 10.3275 10.4874 10.2237C10.6125 10.1198 10.7049 9.98187 10.7531 9.82655C10.8111 9.48392 10.8111 9.13398 10.7531 8.79135C10.7531 7.87617 10.5131 6.4359 10.5131 5.95581C10.4395 5.60188 10.2619 5.27799 10.003 5.02564C9.5079 4.41052 8.29268 3.18028 7.49753 2.38513C8.11662 2.04958 8.77067 1.78294 9.4479 1.58998C9.87765 1.42476 10.3534 1.42476 10.7832 1.58998C11.6504 2.03388 12.4245 2.63992 13.0636 3.37533C13.686 4.16293 14.1589 5.05787 14.4588 6.01583C14.7054 6.71814 14.7775 7.46986 14.6689 8.20625C14.5563 8.95327 14.3125 9.67452 13.9487 10.3366C13.8961 10.4405 13.8765 10.558 13.8925 10.6733C13.9086 10.7887 13.9597 10.8963 14.0388 10.9818L15.8691 12.7671C15.9183 12.8154 15.9766 12.8535 16.0406 12.8792C16.1046 12.905 16.173 12.9178 16.242 12.9172C16.311 12.9165 16.3791 12.9022 16.4426 12.8752C16.506 12.8481 16.5634 12.8089 16.6117 12.7596C16.6601 12.7103 16.6982 12.6521 16.7238 12.5881C16.7496 12.5241 16.7625 12.4557 16.7618 12.3867C16.7612 12.3178 16.7469 12.2496 16.7197 12.1862C16.6927 12.1227 16.6535 12.0652 16.6042 12.017L15.1039 10.5167C15.4525 9.83739 15.6954 9.10886 15.8241 8.35627C15.98 7.43463 15.9183 6.48934 15.6441 5.59575C15.3312 4.5124 14.8227 3.49546 14.1438 2.59518C13.4237 1.6593 12.5265 0.87424 11.5033 0.284742C10.3181 -0.405389 8.05263 0.284742 6.71738 1.01988C6.40124 1.16353 6.09543 1.32896 5.80221 1.51497C5.72573 1.56121 5.65518 1.61662 5.59217 1.68C5.4582 1.80093 5.37233 1.96609 5.35028 2.14521C5.32823 2.32432 5.3715 2.50539 5.47215 2.65519C5.60717 2.88024 6.8824 3.97544 8.80278 6.13585L8.8928 6.25587L9.07283 8.65632C8.26268 8.65632 7.13747 8.49129 6.52235 8.46129L6.38732 8.35627C5.62217 7.74115 3.88184 6.28587 2.99667 5.67076C2.83077 5.54241 2.65521 5.42704 2.47158 5.32569C2.29629 5.25613 2.10198 5.25114 1.92336 5.31159C1.74473 5.37205 1.59339 5.49403 1.49639 5.65576C0.730019 7.30635 0.601755 9.18221 1.13632 10.9218C1.35189 11.8135 1.7661 12.645 2.34801 13.3542C2.92994 14.0634 3.66452 14.632 4.49696 15.0175Z" fill="#00A3E2"/>
<path fill-rule="evenodd" clip-rule="evenodd" d="M31.6521 21.1537C30.5408 20.7291 29.3613 20.5105 28.1715 20.5086C27.0942 20.4861 26.0247 20.6958 25.0359 21.1237L23.3856 19.4133C23.3015 19.3309 23.1884 19.2847 23.0705 19.2847C22.9527 19.2847 22.8396 19.3309 22.7555 19.4133C22.7129 19.4539 22.6788 19.5028 22.6556 19.557C22.6325 19.6111 22.6205 19.6695 22.6205 19.7284C22.6205 19.7874 22.6325 19.8456 22.6556 19.8997C22.6788 19.954 22.7129 20.0028 22.7555 20.0434L24.5858 22.0839C24.6573 22.1646 24.7541 22.2187 24.8601 22.2378C24.9663 22.2568 25.0758 22.2396 25.1709 22.1889C26.1107 21.7623 27.1419 21.5767 28.1715 21.6487C29.2031 21.6879 30.2193 21.9114 31.1721 22.3089C31.7882 22.6513 32.3205 23.1265 32.7305 23.7C33.1404 24.2733 33.4178 24.9307 33.5426 25.6245C33.821 26.6817 33.821 27.793 33.5426 28.8501C32.6874 28.1149 31.4121 26.9448 30.782 26.3896C30.533 26.1532 30.2286 25.9831 29.8968 25.8946C29.3567 25.8946 27.4064 25.6095 26.5812 25.5645C26.412 25.5409 26.2403 25.5409 26.0711 25.5645C25.9116 25.5816 25.7598 25.6426 25.6328 25.7406C25.5057 25.8385 25.4081 25.9696 25.3509 26.1196C25.2686 26.4582 25.2383 26.8072 25.2609 27.1548C25.2609 28.0699 25.4409 29.5252 25.4259 30.0054C25.4976 30.3612 25.6694 30.6891 25.9211 30.9505C26.4612 31.5657 27.6464 32.8408 28.4265 33.636C27.7958 33.9613 27.1319 34.2178 26.4462 34.4011C26.0102 34.5606 25.5318 34.5606 25.0959 34.4011C24.2393 33.9223 23.4849 33.2802 22.8755 32.5108C22.2704 31.7323 21.8174 30.8467 21.5402 29.9004C21.3026 29.1484 21.2561 28.3492 21.4052 27.5749C21.5561 26.7733 21.8508 26.0058 22.2753 25.3095C22.3431 25.2046 22.3712 25.0791 22.3547 24.9553C22.3382 24.8316 22.2782 24.7179 22.1853 24.6343L20.58 23.134C20.4845 23.0388 20.355 22.9852 20.22 22.9852C20.085 22.9852 19.9556 23.0388 19.8599 23.134C19.7646 23.2297 19.7111 23.3592 19.7111 23.4942C19.7111 23.6292 19.7646 23.7586 19.8599 23.8542L21.1202 25.0845C20.715 25.7796 20.4215 26.5338 20.25 27.3198C20.043 28.2771 20.0687 29.2701 20.325 30.2154C20.6259 31.3263 21.135 32.37 21.8253 33.291C22.5176 34.2234 23.3835 35.013 24.3758 35.6164C25.5309 36.3216 27.8264 35.6164 29.1767 35.0013C29.4605 34.8567 29.7359 34.6965 30.0018 34.5213C30.08 34.4838 30.1511 34.4329 30.2118 34.3711C30.3479 34.2525 30.4376 34.0894 30.465 33.9109C30.4925 33.7326 30.456 33.5502 30.362 33.396C30.362 33.396 28.3815 31.3407 27.1212 29.8254L27.0012 29.7202L26.8812 27.3048C27.6764 27.3048 28.8167 27.5149 29.4167 27.5599L29.5518 27.6799C30.302 28.3251 31.9973 29.8254 32.8074 30.4704C32.9742 30.6019 33.1497 30.7222 33.3324 30.8305C33.4262 30.8899 33.5316 30.9286 33.6414 30.9442C33.7514 30.9597 33.8633 30.9514 33.9698 30.9202C34.0763 30.889 34.175 30.8353 34.2591 30.763C34.3431 30.6906 34.4109 30.601 34.4577 30.5004C35.2388 28.8613 35.3883 26.9919 34.8777 25.2495C34.6757 24.3709 34.2818 23.5482 33.7241 22.84C33.1664 22.1319 32.4588 21.556 31.6521 21.1537Z" fill="#00A3E2"/>
</g>
<defs>
<clipPath id="clip0_2573_1816">
<rect width="36" height="36" fill="white"/>
</clipPath>
</defs>
</svg>
