<svg width="36" height="36" viewBox="0 0 36 36" fill="none" xmlns="http://www.w3.org/2000/svg">
<g clip-path="url(#clip0_3109_7807)">
<path d="M26.9798 23.4546C25.2469 23.454 23.5961 24.1931 22.4423 25.4861L14.602 20.4468C15.2861 18.8896 15.2861 17.117 14.602 15.5598L22.4423 10.5205C25.5731 14.0127 31.3103 12.8062 32.7693 8.34873C34.2283 3.89127 30.3148 -0.474009 25.725 0.491213C21.9406 1.28709 19.8455 5.36175 21.4002 8.90274L13.5598 13.942C10.4335 10.4458 4.69476 11.6451 3.23014 16.1007C1.76552 20.5563 5.67346 24.9265 10.2644 23.9671C11.5379 23.701 12.6927 23.0343 13.5598 22.0645L21.4002 27.1038C19.5192 31.4003 22.9946 36.1218 27.6559 35.6026C32.3172 35.0833 34.6685 29.7128 31.8881 25.9356C30.7396 24.3752 28.9173 23.4541 26.9798 23.4546ZM26.9798 2.29057C30.1888 2.29057 32.1945 5.76447 30.59 8.54358C28.9854 11.3227 24.9741 11.3227 23.3696 8.54358C23.0037 7.90987 22.8111 7.19101 22.8111 6.45925C22.8111 4.15696 24.6775 2.29057 26.9798 2.29057ZM9.02239 22.172C5.81334 22.1718 3.80764 18.6978 5.4123 15.9188C7.01695 13.1397 11.0283 13.1399 12.6327 15.9191C12.9985 16.5528 13.1911 17.2716 13.1911 18.0033C13.1911 20.3057 11.3248 22.1721 9.02239 22.172ZM26.9798 33.716C23.7707 33.716 21.7651 30.2421 23.3696 27.463C24.9741 24.6839 28.9854 24.6839 30.59 27.463C30.9559 28.0967 31.1485 28.8156 31.1485 29.5473C31.1485 31.8496 29.2821 33.716 26.9798 33.716Z" fill="black"/>
</g>
<defs>
<clipPath id="clip0_3109_7807">
<rect width="36" height="36" fill="white"/>
</clipPath>
</defs>
</svg>
