<svg width="36" height="36" viewBox="0 0 36 36" fill="none" xmlns="http://www.w3.org/2000/svg">
<g clip-path="url(#clip0_2989_12098)">
<g clip-path="url(#clip1_2989_12098)">
<path d="M35.895 14.7926L30.5032 8.79948C30.0776 8.32691 29.4714 8.05705 28.8354 8.05697H18.1802V2.60431C18.1802 1.86356 17.3784 1.40061 16.7369 1.77098C16.4392 1.94286 16.2558 2.26052 16.2558 2.60431V8.05697H3.10522C1.86517 8.05691 0.860001 9.06214 0.860001 10.3022V20.566C0.860001 21.806 1.86522 22.8112 3.10522 22.8112H16.2558V33.3958C16.2558 34.1365 17.0576 34.5995 17.6991 34.2291C17.9968 34.0573 18.1802 33.7396 18.1802 33.3958V22.8112H28.8354C29.4714 22.8111 30.0776 22.5413 30.5032 22.0687L35.895 16.0756C36.2217 15.7103 36.2217 15.1579 35.895 14.7926ZM29.0727 20.7825C29.0121 20.8497 28.9259 20.8882 28.8354 20.8884H3.10522C2.92807 20.8884 2.78447 20.7448 2.78447 20.5676V10.3022C2.78447 10.125 2.92807 9.98142 3.10522 9.98144H28.8354C28.9259 9.98165 29.0121 10.0201 29.0727 10.0873L33.8839 15.4341L29.0727 20.7825Z" fill="black"/>
<path d="M6.5 15.4018H26.5" stroke="#00A3E2" stroke-width="1.5" stroke-linecap="round"/>
</g>
</g>
<defs>
<clipPath id="clip0_2989_12098">
<rect width="36" height="36" fill="white"/>
</clipPath>
<clipPath id="clip1_2989_12098">
<rect width="36" height="36" fill="white" transform="translate(0.5)"/>
</clipPath>
</defs>
</svg>
