<svg width="36" height="36" viewBox="0 0 36 36" fill="none" xmlns="http://www.w3.org/2000/svg">
<g clip-path="url(#clip0_6407_11555)">
<g clip-path="url(#clip1_6407_11555)">
<path d="M1.14894 9.95748H7.77447C8.03817 11.2561 8.74271 12.4236 9.76872 13.2623C10.7947 14.1009 12.0791 14.559 13.4043 14.559C14.7294 14.559 16.0138 14.1009 17.0398 13.2623C18.0658 12.4236 18.7703 11.2561 19.034 9.95748H34.8511C35.1558 9.95748 35.448 9.83643 35.6635 9.62096C35.879 9.4055 36 9.11326 36 8.80854C36 8.50383 35.879 8.21159 35.6635 7.99612C35.448 7.78066 35.1558 7.65961 34.8511 7.65961H19.034C18.7703 6.36098 18.0658 5.19345 17.0398 4.35483C16.0138 3.51622 14.7294 3.05811 13.4043 3.05811C12.0791 3.05811 10.7947 3.51622 9.76872 4.35483C8.74271 5.19345 8.03817 6.36098 7.77447 7.65961H1.14894C0.844219 7.65961 0.551983 7.78066 0.336515 7.99612C0.121048 8.21159 0 8.50383 0 8.80854C0 9.11326 0.121048 9.4055 0.336515 9.62096C0.551983 9.83643 0.844219 9.95748 1.14894 9.95748ZM13.4043 5.36174C14.086 5.36174 14.7524 5.56389 15.3192 5.94263C15.886 6.32137 16.3278 6.85969 16.5887 7.48951C16.8496 8.11933 16.9178 8.81237 16.7848 9.48098C16.6518 10.1496 16.3236 10.7638 15.8415 11.2458C15.3595 11.7279 14.7453 12.0561 14.0767 12.1891C13.4081 12.3221 12.715 12.2539 12.0852 11.993C11.4554 11.7321 10.9171 11.2903 10.5383 10.7235C10.1596 10.1567 9.95745 9.49026 9.95745 8.80854C9.95745 7.89439 10.3206 7.01769 10.967 6.37128C11.6134 5.72488 12.4901 5.36174 13.4043 5.36174ZM34.8511 26.0426H31.2894C31.0257 24.744 30.3211 23.5764 29.2951 22.7378C28.2691 21.8992 26.9847 21.4411 25.6596 21.4411C24.3344 21.4411 23.0501 21.8992 22.024 22.7378C20.998 23.5764 20.2935 24.744 20.0298 26.0426H1.14894C0.844219 26.0426 0.551983 26.1636 0.336515 26.3791C0.121048 26.5946 0 26.8868 0 27.1915C0 27.4962 0.121048 27.7885 0.336515 28.0039C0.551983 28.2194 0.844219 28.3405 1.14894 28.3405H20.0298C20.2935 29.6391 20.998 30.8066 22.024 31.6452C23.0501 32.4838 24.3344 32.942 25.6596 32.942C26.9847 32.942 28.2691 32.4838 29.2951 31.6452C30.3211 30.8066 31.0257 29.6391 31.2894 28.3405H34.8511C35.1558 28.3405 35.448 28.2194 35.6635 28.0039C35.879 27.7885 36 27.4962 36 27.1915C36 26.8868 35.879 26.5946 35.6635 26.3791C35.448 26.1636 35.1558 26.0426 34.8511 26.0426ZM25.6596 30.6383C24.9779 30.6383 24.3115 30.4362 23.7446 30.0574C23.1778 29.6787 22.736 29.1404 22.4751 28.5106C22.2143 27.8807 22.146 27.1877 22.279 26.5191C22.412 25.8505 22.7403 25.2363 23.2223 24.7543C23.7044 24.2722 24.3185 23.9439 24.9871 23.8109C25.6558 23.6779 26.3488 23.7462 26.9786 24.0071C27.6084 24.268 28.1468 24.7098 28.5255 25.2766C28.9042 25.8434 29.1064 26.5098 29.1064 27.1915C29.1064 28.1057 28.7432 28.9824 28.0968 29.6288C27.4504 30.2752 26.5737 30.6383 25.6596 30.6383Z" fill="#2B2A29"/>
</g>
</g>
<defs>
<clipPath id="clip0_6407_11555">
<rect width="36" height="36" fill="white"/>
</clipPath>
<clipPath id="clip1_6407_11555">
<rect width="36" height="36" fill="white"/>
</clipPath>
</defs>
</svg>
