<svg width="36" height="36" viewBox="0 0 36 36" fill="none" xmlns="http://www.w3.org/2000/svg">
<g clip-path="url(#clip0_3109_7843)">
<path d="M2.92522 16.0756C2.92522 15.5441 3.35604 15.1133 3.88748 15.1133H6.45346C7.19421 15.1133 7.65717 15.9152 7.28679 16.5567C7.11492 16.8544 6.79724 17.0378 6.45346 17.0378H3.88748C3.35602 17.0378 2.92522 16.607 2.92522 16.0756ZM9.15418 8.59087C9.6734 9.11917 10.5698 8.88731 10.7677 8.17349C10.8611 7.83685 10.7646 7.47605 10.5158 7.23089L8.69871 5.41544C8.14445 4.92403 7.26607 5.2169 7.11761 5.94261C7.05691 6.23928 7.13943 6.54724 7.34034 6.77383L9.15418 8.59087ZM18.0004 5.49082C18.5319 5.49082 18.9627 5.06001 18.9627 4.52858V1.96258C18.9627 1.22185 18.1608 0.758886 17.5193 1.12925C17.2216 1.30115 17.0382 1.61881 17.0382 1.96258V4.52858C17.0382 5.06001 17.469 5.49082 18.0004 5.49082ZM26.1651 8.87313C26.4208 8.87333 26.666 8.77177 26.8467 8.59087L28.6605 6.77383C29.152 6.21957 28.8591 5.34118 28.1334 5.19272C27.8367 5.13204 27.5288 5.21455 27.3022 5.41544L25.4851 7.23089C24.9617 7.75499 25.2019 8.64923 25.9175 8.84049C25.9983 8.86208 26.0815 8.87305 26.1651 8.87313ZM28.5852 16.0756C28.5852 16.607 29.016 17.0378 29.5474 17.0378H32.1134C32.8541 17.0378 33.3171 16.2359 32.9467 15.5944C32.7748 15.2967 32.4572 15.1133 32.1134 15.1133H29.5474C29.016 15.1133 28.5852 15.5441 28.5852 16.0756ZM11.5855 17.0378C12.1169 17.0378 12.5477 16.607 12.5477 16.0756C12.5498 11.878 17.0951 9.25688 20.7292 11.3575C22.4141 12.3314 23.4522 14.1295 23.4532 16.0756C23.4532 16.8163 24.255 17.2792 24.8965 16.9089C25.1943 16.737 25.3777 16.4193 25.3777 16.0756C25.3752 10.3966 19.2259 6.84986 14.309 9.69151C12.0291 11.0092 10.6244 13.4422 10.6232 16.0756C10.6232 16.607 11.054 17.0378 11.5855 17.0378ZM35.5101 34.5186C35.3387 34.8155 35.0222 34.9988 34.6794 34.9998H1.32148C0.585169 34.9992 0.122301 34.2056 0.484326 33.5644L7.00997 22.0174C7.18076 21.7149 7.50135 21.528 7.84873 21.5283H28.1522C28.4995 21.528 28.8201 21.7149 28.9909 22.0174L35.5166 33.5644C35.6834 33.8612 35.681 34.2241 35.5101 34.5186ZM27.5908 23.4528H23.1004L23.798 26.6603H29.4111L27.5908 23.4528ZM21.827 26.6603L21.1293 23.4528H14.8747L14.1771 26.6603H21.827ZM13.7553 28.5848L12.7786 33.0753H23.2222L22.2456 28.5848H13.7553ZM6.5962 26.6603H12.2093L12.9069 23.4528H8.41645L6.5962 26.6603ZM2.97013 33.0753H10.8092L11.7859 28.5848H5.50886L2.97013 33.0753ZM33.0307 33.0753L30.492 28.5848H24.215L25.1916 33.0753H33.0307Z" fill="black"/>
</g>
<defs>
<clipPath id="clip0_3109_7843">
<rect width="36" height="36" fill="white"/>
</clipPath>
</defs>
</svg>
