<svg width="36" height="36" viewBox="0 0 36 36" fill="none" xmlns="http://www.w3.org/2000/svg">
<g clip-path="url(#clip0_2948_7418)">
<g clip-path="url(#clip1_2948_7418)">
<path d="M14.7655 20.4504C14.9641 20.6019 15.1809 20.7279 15.4107 20.8255C15.8014 20.9827 16.2025 21.1131 16.611 21.2157C16.6789 21.2296 16.7434 21.2574 16.8003 21.2971C16.8571 21.3369 16.9053 21.3877 16.9417 21.4468C16.9783 21.5058 17.0023 21.5716 17.0125 21.6402C17.0227 21.7087 17.019 21.7788 17.0011 21.8458C16.9869 21.9141 16.9593 21.9789 16.9198 22.0363C16.8802 22.0938 16.8297 22.1428 16.771 22.1805C16.7124 22.2183 16.6468 22.2439 16.5781 22.2559C16.5094 22.2681 16.4389 22.2664 16.371 22.251C15.9036 22.1607 15.4425 22.0404 14.9905 21.8908C14.6616 21.7837 14.3485 21.6322 14.0604 21.4407C13.2849 20.9358 12.6696 20.22 12.2868 19.3774C11.9041 18.5349 11.7699 17.6007 11.8998 16.6843C12.0253 15.7473 12.4009 14.8614 12.987 14.1195C13.5732 13.3776 14.3481 12.8072 15.2307 12.4681C16.0158 12.2048 16.8522 12.1314 17.6712 12.254C18.4902 12.3766 19.2684 12.6916 19.942 13.1734C20.595 13.6491 21.1267 14.2719 21.4942 14.9914C21.8617 15.7108 22.0547 16.5067 22.0576 17.3145C22.0919 18.4474 21.7073 19.5534 20.9773 20.4204C20.2941 21.2743 19.3234 21.8503 18.2466 22.0408C18.1236 22.0639 17.9964 22.0398 17.8906 21.9729C17.7849 21.9061 17.7084 21.8017 17.6763 21.6808C17.661 21.6205 17.6581 21.5578 17.6683 21.4965C17.6784 21.4351 17.701 21.3765 17.7348 21.3243C17.7687 21.2722 17.8129 21.2275 17.8648 21.1933C17.9167 21.1591 17.9752 21.1362 18.0364 21.1257C18.8517 20.9155 19.5649 20.4205 20.047 19.7302C20.4877 19.0458 20.6688 18.226 20.5572 17.4196C20.5081 16.8531 20.3316 16.305 20.0406 15.8164C19.7494 15.3279 19.3516 14.9116 18.8767 14.5988C18.427 14.2932 17.9137 14.0939 17.3757 14.0159C16.8375 13.9379 16.2888 13.9833 15.7708 14.1486C15.1806 14.3729 14.6587 14.7466 14.2563 15.2332C13.8538 15.7198 13.5847 16.3026 13.4752 16.9245C13.3381 17.574 13.3864 18.2491 13.6146 18.8725C13.8427 19.4961 14.2416 20.0428 14.7655 20.4504Z" fill="#00A3E2"/>
<path d="M29.6648 18.95C29.1546 18.3198 28.6445 17.7047 28.1643 17.0745C27.4291 16.1442 26.6639 15.1839 26.0037 14.2087C25.9538 14.1598 25.9142 14.1014 25.8871 14.037C25.86 13.9726 25.8461 13.9034 25.8461 13.8336C25.8461 13.7637 25.86 13.6946 25.8871 13.6301C25.9142 13.5657 25.9538 13.5074 26.0037 13.4585C26.1044 13.3613 26.2389 13.307 26.3788 13.307C26.5188 13.307 26.6532 13.3613 26.7539 13.4585C31.5853 18.3498 30.7901 17.4647 31.1802 18.1998C31.1728 18.14 31.1728 18.0795 31.1802 18.0198C31.4736 16.8525 31.4736 15.6309 31.1802 14.4637C30.834 13.281 30.3612 12.139 29.7698 11.0578C28.7681 9.2359 27.4583 7.6013 25.8987 6.22643C24.3716 4.83011 22.5441 3.8034 20.5572 3.22559C18.65 2.58273 16.6254 2.36381 14.6247 2.58408C12.6242 2.80436 10.6956 3.45852 8.9739 4.50095C7.24725 5.58546 5.77365 7.02815 4.65285 8.73144C3.5319 10.4347 2.79 12.3589 2.4771 14.3737C2.4612 14.513 2.39055 14.6403 2.2809 14.7275C2.1711 14.8147 2.03115 14.8548 1.89195 14.8389C1.7526 14.8229 1.6254 14.7524 1.5381 14.6426C1.45095 14.5329 1.4109 14.393 1.4268 14.2537C1.6755 12.0322 2.4042 9.89141 3.56235 7.97943C4.72035 6.06746 6.2802 4.43004 8.13375 3.18057C10.0335 1.96698 12.1775 1.1872 14.4129 0.896743C16.6485 0.606281 18.9205 0.812288 21.0673 1.50009C23.2845 2.20143 25.3083 3.40853 26.979 5.02608C28.6235 6.59715 29.9705 8.45249 30.9551 10.5026C31.6855 11.9162 32.1917 13.4348 32.4556 15.0039C32.5602 15.7404 32.5602 16.488 32.4556 17.2245C32.7256 16.9695 33.0107 16.7144 33.2658 16.4444C34.4811 15.1239 34.7812 13.8936 35.1713 13.6835C35.2215 13.6449 35.2788 13.6166 35.34 13.6002C35.4011 13.5838 35.4649 13.5797 35.5276 13.5881C35.5904 13.5965 35.6509 13.6172 35.7056 13.649C35.7603 13.6808 35.8082 13.7232 35.8465 13.7736C35.912 13.8422 35.9589 13.9266 35.9825 14.0185C36.0062 14.1105 36.0058 14.2069 35.9816 14.2987C35.7577 14.9765 35.4662 15.63 35.1113 16.2492C34.8214 16.7748 34.4903 17.2766 34.121 17.7497C33.7759 18.2148 33.4008 18.65 32.9957 19.1151C32.8 19.3817 32.5896 19.6371 32.3655 19.8803C32.1847 20.0634 31.9638 20.202 31.7203 20.2854C31.5714 20.343 31.411 20.3651 31.252 20.3493C31.093 20.3337 30.9399 20.2809 30.8051 20.1954C30.3836 19.8201 30.0015 19.4028 29.6648 18.95Z" fill="black"/>
<path d="M0.196352 25.9571L0.706503 23.9015C0.871202 23.046 1.12785 22.211 1.47165 21.4107C1.57965 21.2241 1.7244 21.0614 1.89735 20.9324C2.07015 20.8034 2.2674 20.7108 2.47695 20.6606C2.8146 20.5956 3.1641 20.6486 3.46725 20.8106C3.80745 21 4.1289 21.221 4.42755 21.4707L8.37375 24.7416C8.47425 24.8117 8.5443 24.9174 8.56935 25.0374C8.59455 25.1574 8.5728 25.2824 8.50875 25.3869C8.4753 25.4403 8.43135 25.4864 8.3796 25.5224C8.32785 25.5582 8.26935 25.5833 8.20755 25.5959C8.1459 25.6085 8.08215 25.6085 8.0205 25.5957C7.9587 25.583 7.9002 25.5579 7.8486 25.5219C6.9783 25.0568 6.003 24.5166 5.1327 24.0215L3.37725 22.9262C4.1145 25.1024 5.3085 27.0959 6.8793 28.7727C8.4501 30.4497 10.3614 31.7712 12.4848 32.6489C14.5992 33.401 16.8626 33.6375 19.0868 33.3392C21.3654 33.0272 23.5476 32.2179 25.4785 30.9684C26.4266 30.3798 27.3159 29.7015 28.1343 28.9428C28.9541 28.1906 29.6705 27.3329 30.2649 26.3921C30.3419 26.2746 30.4606 26.1908 30.597 26.1573C30.7335 26.124 30.8775 26.1435 31.0001 26.2121C31.1204 26.2866 31.2067 26.4054 31.2404 26.5428C31.2741 26.6804 31.2524 26.8256 31.1801 26.9472C30.5759 27.9887 29.8451 28.9512 29.0045 29.8131C28.1648 30.6734 27.2454 31.452 26.2587 32.1387C24.2302 33.6156 21.8892 34.6065 19.4168 35.0346C16.8927 35.4584 14.3012 35.1941 11.9147 34.2693C9.58095 33.2721 7.5123 31.7436 5.87385 29.8055C4.23525 27.8673 3.07215 25.5734 2.47695 23.1062C2.31195 23.6313 2.17695 24.2615 2.08695 24.4566L1.35165 26.2271C1.12665 26.9472 0.901503 27.1274 0.886503 27.1274C0.837603 27.1773 0.779253 27.2169 0.714903 27.2439C0.650553 27.2711 0.581253 27.285 0.511503 27.285C0.441603 27.285 0.372452 27.2711 0.307951 27.2439C0.243601 27.2169 0.185251 27.1773 0.136351 27.1274C0.0388508 26.9984 -0.00899696 26.8386 0.00135231 26.6772C0.0424519 26.4314 0.107702 26.19 0.196352 25.9571Z" fill="black"/>
</g>
</g>
<defs>
<clipPath id="clip0_2948_7418">
<rect width="36" height="36" fill="white" transform="matrix(-1 0 0 1 36 0)"/>
</clipPath>
<clipPath id="clip1_2948_7418">
<rect width="36" height="36" fill="white" transform="matrix(-1 0 0 1 36 0)"/>
</clipPath>
</defs>
</svg>
