<svg width="36" height="36" viewBox="0 0 36 36" fill="none" xmlns="http://www.w3.org/2000/svg">
<g clip-path="url(#clip0_3109_7669)">
<path d="M35.2506 2.55505C34.9353 2.28269 34.495 2.20737 34.1071 2.3594L1.6067 15.0783C0.200671 15.6284 -0.0825194 17.4944 1.09693 18.4369C1.34343 18.6339 1.63384 18.7685 1.94346 18.8293L10.6227 20.534V30.1867C10.6233 31.915 12.4948 32.9945 13.9912 32.1297C14.1728 32.0248 14.3388 31.8949 14.4843 31.7439L18.7566 27.3129L25.4247 33.1583C25.8318 33.5185 26.3565 33.7176 26.9001 33.718C27.1375 33.7175 27.3734 33.6801 27.5993 33.6074C28.3532 33.3688 28.9235 32.7478 29.0972 31.9764L35.6114 3.65678C35.7047 3.25105 35.5658 2.82697 35.2506 2.55505ZM2.29147 16.9354C2.28532 16.9188 2.28532 16.9006 2.29147 16.8841C2.29871 16.8785 2.30684 16.8741 2.31552 16.8712L27.9281 6.84493L11.362 18.7123L2.31552 16.9418L2.29147 16.9354ZM13.0988 30.4064C12.9274 30.5842 12.6279 30.5098 12.5596 30.2725C12.5516 30.2446 12.5473 30.2157 12.5471 30.1867V21.8651L17.3084 26.0347L13.0988 30.4064ZM27.2225 31.5418C27.1984 31.6522 27.116 31.7408 27.0076 31.7727C26.897 31.8116 26.774 31.787 26.6868 31.7086L13.1308 19.8172L33.2347 5.40963L27.2225 31.5418Z" fill="black"/>
</g>
<defs>
<clipPath id="clip0_3109_7669">
<rect width="36" height="36" fill="white"/>
</clipPath>
</defs>
</svg>
