<svg width="36" height="36" viewBox="0 0 36 36" fill="none" xmlns="http://www.w3.org/2000/svg">
<g clip-path="url(#clip0_2573_1817)">
<path fill-rule="evenodd" clip-rule="evenodd" d="M35.8335 34.8711C35.6233 34.6611 34.6927 34.4059 34.4827 34.6159L8.80386 34.0606C7.36447 34.1505 5.92091 34.1505 4.48152 34.0606C3.68748 34.0299 2.92664 33.7339 2.32036 33.2202C1.98212 32.7156 1.81386 32.1162 1.8401 31.5093C1.79739 30.3082 1.82244 29.1057 1.91514 27.9073C2.00518 23.9302 2.06521 9.38739 2.12526 3.32412V0.877802C2.13259 0.838116 2.13259 0.797423 2.12526 0.757737C2.17027 0.0823726 1.47991 -0.352863 1.22477 0.547623C1.21682 0.622454 1.21682 0.697916 1.22477 0.772745C1.22477 1.16296 1.22477 2.03343 1.1047 3.24907C0.834558 9.34236 0.309275 23.8702 0.099161 27.8323C-0.0330537 29.3302 -0.0330537 30.8368 0.099161 32.3347C0.169356 33.1326 0.477879 33.8908 0.984639 34.5109C1.66304 35.139 2.50642 35.5608 3.41595 35.7265C5.20198 35.9655 7.00896 36.0057 8.80386 35.8467C13.1862 35.8467 26.9637 36.0268 32.8168 35.9367C33.9874 35.9367 34.8579 35.9367 35.2632 35.8467C35.4739 35.8321 35.6766 35.7594 35.8485 35.6365C35.8979 35.5854 35.9367 35.5249 35.9627 35.4588C35.9886 35.3925 36.0014 35.3218 35.9999 35.2507C35.9985 35.1796 35.9831 35.1094 35.9546 35.0443C35.9259 34.9792 35.8848 34.9203 35.8335 34.8711Z" fill="#2B2A29"/>
<path fill-rule="evenodd" clip-rule="evenodd" d="M6.7628 13.4997C6.7628 13.4997 7.70831 13.6648 8.6388 13.9049C9.03599 14.001 9.42692 14.1213 9.80943 14.2651C10.7948 14.6861 11.7436 15.188 12.646 15.7659C13.5454 16.3079 14.3898 16.9362 15.1673 17.642C16.3907 18.6675 17.409 19.9151 18.1689 21.3189C18.6813 22.2726 19.0889 23.279 19.3847 24.3206C20.0904 27.0003 20.4534 29.7588 20.4653 32.5299C20.4797 32.66 20.541 32.7804 20.6376 32.8688C20.7342 32.9571 20.8596 33.0074 20.9904 33.0102C21.1351 33.0102 21.2742 32.9538 21.3778 32.8529C21.4816 32.7519 21.5418 32.6145 21.5457 32.4699C21.8487 28.9827 21.4923 25.4696 20.4952 22.1144C19.6669 19.8257 18.2358 17.8034 16.353 16.2612C15.4158 15.5483 14.4104 14.9299 13.3514 14.4152C12.3327 13.9076 11.2734 13.486 10.1846 13.1545C9.82445 13.0494 9.32918 12.9444 8.83391 12.8543C7.85838 12.6892 6.86786 12.5842 6.86786 12.5842C6.76565 12.6019 6.67193 12.6523 6.60071 12.7277C6.5295 12.8031 6.48462 12.8996 6.4728 13.0026C6.46097 13.1057 6.48284 13.2098 6.53511 13.2994C6.58739 13.389 6.66726 13.4593 6.7628 13.4997Z" fill="#2B2A29"/>
<path fill-rule="evenodd" clip-rule="evenodd" d="M4.09132 31.0591C4.51155 31.2091 4.34646 30.924 5.81725 30.1885C6.22248 29.9785 6.55266 29.7834 6.68772 29.6934C6.95824 29.4481 7.20913 29.1822 7.43812 28.8979C7.82833 28.4176 8.20354 27.7873 8.53372 27.397C8.53372 27.397 8.71381 27.277 8.6838 27.232C8.80291 27.2049 8.90932 27.1381 8.98564 27.0427C9.06195 26.9473 9.10369 26.8288 9.10402 26.7067C9.10408 26.562 9.04764 26.4229 8.94673 26.3193C8.84581 26.2156 8.7084 26.1553 8.56374 26.1514C8.08882 26.254 7.64592 26.4703 7.27305 26.7817C6.92967 27.0085 6.59899 27.2541 6.28251 27.5172C5.9073 27.8473 5.62215 28.1775 5.48707 28.2826C5.352 28.3876 4.18137 29.5882 3.89622 30.0085C3.61107 30.4287 3.71613 30.984 4.09132 31.0591Z" fill="#00A3E2"/>
<path fill-rule="evenodd" clip-rule="evenodd" d="M15.8126 20.4184C15.8147 20.3449 15.8018 20.2717 15.7746 20.2035C15.7473 20.1351 15.7065 20.0731 15.6546 20.0211C15.6026 19.9692 15.5405 19.9282 15.4722 19.9011C15.404 19.8739 15.3308 19.861 15.2573 19.8631C14.6291 20.0059 14.0494 20.3112 13.5764 20.7486C13.269 20.9679 12.9735 21.2034 12.6909 21.4539C12.3607 21.784 12.1206 22.0993 12.0005 22.2193C11.8805 22.3393 11.1301 23.4199 10.8749 23.8552C10.7996 23.9694 10.7343 24.09 10.6798 24.2154C10.6798 24.5155 10.6798 24.6957 10.9049 24.7707C11.006 24.8116 11.119 24.8116 11.2201 24.7707C11.5803 24.7707 11.04 24.7707 13.1862 23.4801C13.5657 23.1825 13.922 22.8564 14.2517 22.5045C14.642 22.0242 14.9571 21.4689 15.2573 21.1537C15.2573 21.1537 15.4074 21.0637 15.3774 21.0187C15.5129 20.9931 15.6333 20.9166 15.7142 20.805C15.7952 20.6934 15.8303 20.5551 15.8126 20.4184Z" fill="#00A3E2"/>
<path fill-rule="evenodd" clip-rule="evenodd" d="M20.6002 15.7659C21.2155 15.2706 21.8758 14.8654 22.5213 14.3701C22.7914 14.175 23.0466 13.9499 23.3017 13.7248L24.022 12.9743C24.5773 12.374 25.0726 11.7287 25.5229 11.0833C25.6255 10.9794 25.6831 10.8392 25.6831 10.6931C25.6831 10.547 25.6255 10.4068 25.5229 10.3029C25.4727 10.2525 25.413 10.2126 25.3473 10.1853C25.2817 10.158 25.2112 10.144 25.1401 10.144C25.069 10.144 24.9987 10.158 24.933 10.1853C24.8673 10.2126 24.8076 10.2525 24.7575 10.3029C24.097 10.7982 23.4067 11.2334 22.7464 11.8037C22.3038 12.1365 21.8874 12.5028 21.5007 12.8993C20.8759 13.6119 20.3184 14.3805 19.8348 15.1956C19.7871 15.2418 19.7494 15.2973 19.7244 15.3588C19.6992 15.4203 19.687 15.4863 19.6887 15.5527C19.6903 15.619 19.7058 15.6844 19.734 15.7446C19.7622 15.8046 19.8025 15.8583 19.8526 15.9021C19.9026 15.9457 19.9611 15.9786 20.0244 15.9987C20.0878 16.0186 20.1546 16.0252 20.2206 16.018C20.2866 16.0108 20.3505 15.9901 20.4081 15.957C20.4657 15.924 20.5158 15.8793 20.5552 15.8259L20.6002 15.7659Z" fill="#00A3E2"/>
<path fill-rule="evenodd" clip-rule="evenodd" d="M28.6596 8.09672C28.8546 7.99166 29.3649 7.61647 29.4399 7.55643L30.9408 6.31077C31.1659 6.08565 31.7062 5.60538 32.2615 5.02006C32.8168 4.43475 33.0718 4.08957 33.4621 3.68434C34.6627 2.4687 34.9629 2.88892 34.9629 2.33362C34.9629 2.26069 34.9486 2.18848 34.9206 2.12112C34.8927 2.05374 34.8519 1.99252 34.8003 1.94097C34.7487 1.8894 34.6875 1.84849 34.6201 1.82059C34.5528 1.79268 34.4805 1.77832 34.4076 1.77832C33.5632 1.93369 32.7756 2.31195 32.1264 2.87391C31.6912 3.18907 31.2259 3.54927 30.8356 3.89446C30.4455 4.23964 29.9352 4.85497 29.7402 5.06509L28.4944 6.77601C28.1812 6.99583 27.9409 7.30417 27.8041 7.66149C27.7911 7.7656 27.8106 7.87118 27.8598 7.96385C27.909 8.05652 27.9855 8.13177 28.0791 8.17935C28.1725 8.22693 28.2784 8.24452 28.3824 8.22973C28.4862 8.21495 28.5829 8.1685 28.6596 8.09672Z" fill="#00A3E2"/>
</g>
<defs>
<clipPath id="clip0_2573_1817">
<rect width="36" height="36" fill="white"/>
</clipPath>
</defs>
</svg>
