<svg width="36" height="36" viewBox="0 0 36 36" fill="none" xmlns="http://www.w3.org/2000/svg">
<g clip-path="url(#clip0_2573_1818)">
<path fill-rule="evenodd" clip-rule="evenodd" d="M28.1334 11.3004C27.6231 10.862 27.0774 10.4665 26.502 10.118C26.7319 9.98037 26.9476 9.81981 27.1456 9.63905C27.3085 9.42889 27.4585 9.20893 27.5944 8.98042C27.7303 8.7519 28.0735 8.23211 28.0884 8.18725L28.2831 8.32195C28.747 8.62119 29.226 8.86072 29.6601 9.18996C29.9367 9.4722 30.4149 9.34931 30.5212 8.96878C30.5704 8.79216 30.5218 8.60251 30.3936 8.47149C30.0651 7.97587 29.6998 7.50552 29.3008 7.06455C29.1307 6.87981 28.9456 6.70961 28.747 6.55578C28.5528 6.39875 28.342 6.26328 28.1184 6.15154C27.5826 5.87696 27.0144 5.67078 26.4271 5.53793C26.2042 5.41838 25.9267 5.50639 25.8135 5.73246C25.7106 5.9567 25.7949 6.22226 26.008 6.34625C26.3373 6.60063 26.6817 7.03472 27.1756 7.49864H27.2802C27.0418 7.59644 26.8158 7.72211 26.6068 7.87287C26.3722 8.00511 26.1516 8.16063 25.9482 8.33681C25.7743 8.53685 25.6189 8.75237 25.4842 8.98042L25.2447 9.42951C23.7157 8.70843 22.0936 8.2047 20.4252 7.93272C20.6047 7.93272 20.5747 7.40895 20.6047 7.2891C20.6554 7.11292 20.6905 6.93261 20.7094 6.75031C20.746 6.48216 20.746 6.21032 20.7094 5.94216C20.6179 5.43552 20.493 4.93548 20.3355 4.44537C20.934 4.44537 21.5476 4.44537 22.2213 4.34052C22.7487 4.31205 23.262 4.15807 23.7181 3.8916C24.1809 3.54445 24.4024 2.96175 24.2866 2.39481C24.2254 1.85757 23.9367 1.37252 23.4936 1.06272C22.723 0.643026 21.8697 0.397669 20.9938 0.344251C19.6651 0.147261 18.3256 0.0323124 16.9827 1.64236e-05C16.0408 -0.00151419 15.1018 0.103945 14.1837 0.314404C13.7298 0.395985 13.2801 0.500832 12.8368 0.628638C12.5997 0.697517 12.3732 0.798231 12.1632 0.928026C11.2542 1.46343 10.776 2.50945 10.9658 3.54736C11.1715 4.30746 11.8866 4.81563 12.6721 4.7596L15.3811 4.49022C15.3783 4.53016 15.3783 4.57011 15.3811 4.61007L15.2016 5.20869C15.2016 5.37337 15.1117 5.52308 15.0967 5.68761C15.0669 5.94125 15.0669 6.19746 15.0967 6.45093C15.1398 6.74451 15.2203 7.03119 15.3363 7.3041V7.54363C14.7248 7.57087 14.1153 7.63072 13.5103 7.72317C12.0432 7.94434 10.6342 8.45298 9.3643 9.21996L9.22962 8.96543C9.09844 8.75649 8.9535 8.55643 8.79553 8.36681C8.58813 8.20011 8.36788 8.05011 8.13706 7.91772L7.82268 7.76802L7.94236 7.67833C8.4813 7.1844 8.91522 6.61563 9.43915 6.00201C9.63753 5.85308 9.67777 5.57175 9.529 5.37337C9.37471 5.17302 9.0885 5.13308 8.88538 5.28354C8.22676 5.61278 7.64313 5.85231 7.08936 6.18154C6.84277 6.33399 6.60768 6.50405 6.38589 6.69048C6.16042 6.88334 5.94553 7.08813 5.74227 7.3041C5.29395 7.82955 4.8885 8.39022 4.52986 8.98042C4.33012 9.18414 4.33012 9.51017 4.52986 9.7139C4.73665 9.90598 5.05656 9.90598 5.26333 9.7139C5.81712 9.24981 6.35589 8.92058 6.83482 8.56134C6.74497 8.68119 7.08936 9.04027 7.11921 9.08527C7.24503 9.30369 7.38492 9.51369 7.53829 9.7139C7.72992 9.88502 7.93518 10.0402 8.15191 10.1778C6.18247 11.8148 4.74889 14.0045 4.03594 16.4641C2.71962 20.7451 3.18921 25.3766 5.33803 29.3063C7.3716 32.4887 10.6147 34.7048 14.3186 35.4427C17.8813 36.3497 21.6363 36.1458 25.08 34.8591C25.3458 34.761 25.48 34.465 25.3794 34.2005C25.269 33.9387 24.9705 33.8125 24.7059 33.916C22.9077 34.5675 21.0052 34.8822 19.0932 34.8441C19.1686 34.5531 19.2286 34.2584 19.2727 33.961C19.2868 33.7966 19.2868 33.6313 19.2727 33.4671C19.2948 33.3032 19.2948 33.1369 19.2727 32.9731C19.1565 32.5719 19.0063 32.1813 18.8236 31.8057C18.7858 31.565 18.5733 31.3911 18.3297 31.4016C18.0811 31.4251 17.8996 31.6472 17.9256 31.8955C17.8209 32.3595 17.6862 32.6589 17.6262 33.033C17.6109 33.1973 17.6109 33.3625 17.6262 33.5269C17.6262 33.6766 17.6262 33.8412 17.701 34.0209C17.7667 34.2845 17.8468 34.5443 17.9406 34.7992C16.8336 34.7132 15.7365 34.5279 14.6628 34.2454C12.9343 33.8025 11.2976 33.0576 9.82824 32.0452C10.0828 31.8656 10.3372 31.701 10.5617 31.5213C10.7931 31.3349 11.0039 31.1241 11.1903 30.8927C11.4963 30.4286 11.738 29.925 11.9088 29.3961C12.0667 29.1999 12.0256 28.9113 11.8189 28.7675C11.6246 28.6152 11.3437 28.6487 11.1903 28.8423C10.8311 29.1117 10.457 29.2762 10.0978 29.5457C9.92604 29.6598 9.76563 29.7901 9.61885 29.9347C9.49089 30.0777 9.37104 30.2277 9.25962 30.3839C9.09492 30.6532 8.94522 30.9376 8.78053 31.237C7.9041 30.4795 7.16926 29.5724 6.61027 28.5579C5.59947 26.6153 5.02732 24.4743 4.93395 22.2866C5.24833 22.3614 5.54773 22.4363 5.84697 22.4811C6.14527 22.5175 6.4468 22.5175 6.74497 22.4811C7.25956 22.3967 7.76206 22.251 8.24176 22.047C8.48818 22.0314 8.67186 21.8136 8.64583 21.5681C8.62992 21.3198 8.41518 21.1319 8.16691 21.149C7.71798 21.0591 7.34374 20.8946 6.89466 20.8047C6.71038 20.7892 6.52518 20.7892 6.34089 20.8047C6.15156 20.7899 5.96145 20.7899 5.77212 20.8047C5.46354 20.8548 5.15865 20.9247 4.8591 21.0142C4.90716 19.6107 5.14885 18.2205 5.57757 16.8832C6.04747 15.4951 6.76227 14.2026 7.68798 13.0665C7.97236 13.4258 8.15191 13.785 8.4363 14.1442C8.55063 14.2884 8.68119 14.419 8.82553 14.5333C8.96497 14.6631 9.12094 14.7739 9.28945 14.8627C9.68098 15.105 10.0914 15.3153 10.5169 15.4914C10.7396 15.6666 11.0625 15.6264 11.2352 15.4016C11.3988 15.1727 11.3526 14.8555 11.1305 14.683C10.8161 14.2939 10.6066 13.9347 10.3222 13.6203C10.1344 13.3895 9.91824 13.1833 9.67869 13.0067C9.20941 12.7212 8.70676 12.495 8.18191 12.3332C9.6888 10.7683 11.6847 9.76501 13.8395 9.48935C15.0864 9.2899 16.3497 9.21476 17.6113 9.26481C17.6061 9.32955 17.6061 9.3946 17.6113 9.45934C17.5959 9.64363 17.5959 9.82899 17.6113 10.0133C17.5969 10.2025 17.5969 10.3927 17.6113 10.5819C17.6113 11.001 17.8209 11.4202 17.9556 11.8991C17.9794 12.1826 18.2253 12.3954 18.5094 12.3781C18.7929 12.3542 19.0056 12.1082 18.9883 11.8243C18.9883 11.3454 19.1979 10.9411 19.2427 10.522C19.2865 10.2294 19.2865 9.93169 19.2427 9.63905C19.2498 9.54935 19.2498 9.4592 19.2427 9.36966C21.8587 9.60567 24.3718 10.5018 26.5469 11.974L26.3074 12.1237C26.1573 12.236 26.017 12.3612 25.8883 12.4978C25.7617 12.6381 25.6467 12.7883 25.5441 12.9468C25.3 13.3372 25.0801 13.742 24.8854 14.1593C24.6378 14.4645 24.8136 14.9235 25.2016 14.9853C25.3819 15.0141 25.5639 14.9445 25.6788 14.8027C26.0679 14.5035 26.4422 14.3088 26.7714 14.0244C26.9989 13.8615 27.2095 13.6759 27.3999 13.4706C27.5106 13.3128 27.6106 13.1478 27.6993 12.9767C30.0336 15.2235 31.3885 18.2994 31.471 21.538C31.0669 21.4483 30.7077 21.2987 30.2887 21.2238C30.1044 21.2084 29.9191 21.2084 29.7349 21.2238C29.5461 21.2016 29.355 21.2016 29.1661 21.2238C28.7107 21.2996 28.2609 21.4046 27.819 21.538C27.5356 21.5542 27.3165 21.7932 27.325 22.077C27.3412 22.3604 27.5802 22.5795 27.864 22.5709C28.3579 22.6457 28.762 22.7953 29.1811 22.8402C29.4793 22.8766 29.7808 22.8766 30.0792 22.8402C30.5589 22.7756 31.0273 22.6444 31.471 22.4511C31.4865 23.3652 31.4517 24.2797 31.3663 25.1901C31.2243 26.726 30.7494 28.2123 29.9745 29.5455C29.7357 29.9291 29.4759 30.2988 29.1961 30.6532C29.1633 30.585 29.1112 30.5277 29.0464 30.4886C28.732 30.0993 28.5225 29.7402 28.2381 29.4258C28.0503 29.1951 27.834 28.9889 27.5944 28.8123C27.1299 28.5182 26.626 28.2913 26.0979 28.1386C25.8946 27.9883 25.6086 28.0282 25.4542 28.2285C25.3152 28.4375 25.361 28.7181 25.559 28.8722C25.8433 29.2314 26.023 29.5905 26.3074 29.9347C26.4172 30.0871 26.5483 30.2232 26.6966 30.3389C26.8398 30.464 26.995 30.5744 27.1606 30.6681C27.5536 30.9075 27.9639 31.1177 28.3878 31.2967L28.5375 31.3716C28.0054 31.9281 27.4188 32.4296 26.7864 32.8683C26.4924 33.0585 26.5146 33.4953 26.8263 33.6546C26.9707 33.7287 27.1438 33.7199 27.2802 33.6317C28.6993 32.7414 29.9011 31.5446 30.7975 30.1293C31.6782 28.7024 32.2494 27.1062 32.4739 25.4447C33.402 18.4698 31.3363 14.0244 28.1334 11.3004ZM12.268 3.08328C12.3363 2.72083 12.5763 2.41395 12.9117 2.26012C13.0699 2.17516 13.2423 2.1193 13.4204 2.09543C13.7947 2.09543 14.1689 1.99073 14.543 1.93089C15.3469 1.77782 16.1644 1.70757 16.9827 1.72134C18.2643 1.75165 19.5435 1.8516 20.8143 2.02058C21.3205 2.04584 21.8224 2.12619 22.3111 2.26012C22.5805 2.34996 22.8799 2.43966 22.9248 2.72405C22.9696 3.00843 22.9248 2.85875 22.7901 2.88875C22.5759 2.95975 22.3554 3.00996 22.1314 3.03843C21.1885 3.17313 20.3505 3.26298 19.5271 3.33781C16.5337 3.59221 14.109 3.53236 12.7918 3.53236C12.4027 3.50236 12.253 3.30782 12.268 3.08328ZM16.5487 7.57348L16.6384 7.25925C16.6384 7.04972 16.7433 6.88501 16.7881 6.67548C16.8031 6.54613 16.8031 6.41558 16.7881 6.2864C16.7704 5.94475 16.7304 5.60481 16.6684 5.26854C16.6684 4.46037 16.6684 4.46037 19.123 4.52022C19.0428 4.93011 18.9927 5.34522 18.9733 5.76246C18.9508 6.02145 18.9508 6.28181 18.9733 6.54078C18.9733 6.79517 19.108 7.01971 19.153 7.25925C19.198 7.49879 19.153 7.54364 19.2427 7.73817C18.3342 7.62583 17.4193 7.57087 16.5037 7.57348H16.5487Z" fill="#2B2A29"/>
<path fill-rule="evenodd" clip-rule="evenodd" d="M15.8601 22.5258C15.7395 23.5002 16.2261 24.4495 17.0874 24.9207C18.0249 25.2624 19.0746 25.0548 19.8114 24.3819C21.8319 22.6156 19.8114 20.9544 19.2726 20.625C18.7475 20.3341 18.1283 20.2642 17.5514 20.4304C17.267 19.8018 17.0126 19.1881 16.7132 18.6045C16.5486 18.2902 16.3689 18.0058 16.1894 17.7214C16.0098 17.437 15.7852 17.1526 15.5757 16.8982C15.0622 16.2585 14.5126 15.6489 13.9293 15.0723C13.7621 14.852 13.4499 14.8055 13.2258 14.9674C12.996 15.1354 12.9489 15.4591 13.1209 15.6858C13.4653 16.2844 13.7946 17.0029 14.2286 17.7813C14.378 18.0868 14.5479 18.3819 14.7374 18.6643C14.9185 18.9567 15.1184 19.2366 15.3362 19.5025C15.7253 19.9965 16.1744 20.4604 16.6383 20.9992C16.205 21.399 15.9289 21.9402 15.8601 22.5258ZM18.7787 21.6877C19.2876 21.8524 20.2755 22.5258 19.0032 23.3041C18.677 23.5552 18.2371 23.6016 17.8657 23.424C17.5963 23.2891 17.5514 22.9449 17.5664 22.6456C17.5814 22.3465 17.5663 21.9571 17.9556 21.8374C18.1905 21.6597 18.4962 21.6042 18.7787 21.6877Z" fill="#00A3E2"/>
</g>
<defs>
<clipPath id="clip0_2573_1818">
<rect width="36" height="36" fill="white"/>
</clipPath>
</defs>
</svg>
