<svg width="36" height="36" viewBox="0 0 36 36" fill="none" xmlns="http://www.w3.org/2000/svg">
<path d="M16.1604 33.1473C17.2458 31.39 18.8688 30.0295 20.7886 29.268C22.1085 28.6329 23.4883 28.1311 24.9078 27.7701C26.5578 27.2253 28.2783 26.9226 30.0153 26.8714C30.6744 26.7666 30.6144 25.8978 29.8356 25.8379C28.1074 25.6123 26.353 25.6935 24.6531 26.0776C23.6706 26.2677 22.7079 26.5485 21.7773 26.9164C20.8332 27.2872 19.9297 27.7539 19.0812 28.3093C17.2288 29.3745 15.7687 31.0078 14.9172 32.9676C14.7075 33.7465 15.8458 33.6865 16.1604 33.1473Z" fill="#00A3E2"/>
<path d="M27.6936 21.3744C24.634 20.148 21.3976 19.4199 18.1075 19.2176V19.1427C19.4982 16.2332 20.6844 13.2302 21.6574 10.1556C22.5208 7.77966 22.4889 5.17041 21.5676 2.81628C20.8785 1.40832 21.2679 1.40832 20.5939 0.794206C19.8753 0.208827 18.9555 -0.0708789 18.0327 0.0153343C16.9606 0.10175 15.9037 0.323182 14.8872 0.67438C12.9161 1.3967 11.036 2.34677 9.28531 3.50528C7.52049 4.57892 5.84724 5.79629 4.28256 7.14501C4.19092 7.24227 4.13989 7.37087 4.13989 7.50449C4.13989 7.63812 4.19092 7.7667 4.28256 7.86398C4.37802 7.95909 4.50727 8.0125 4.64203 8.0125C4.77679 8.0125 4.90606 7.95909 5.00152 7.86398C6.56116 6.65234 8.21389 5.56554 9.94435 4.61367C11.6301 3.59664 13.4299 2.78219 15.3066 2.1872C16.2207 1.9046 17.1667 1.73851 18.1225 1.6929C18.5929 1.65109 19.0623 1.78443 19.4406 2.06736C19.5304 2.06736 19.4406 2.26207 19.4406 2.36693C19.3806 2.55738 19.2949 2.73879 19.186 2.90615C18.9538 3.2471 18.6933 3.56776 18.4071 3.86476C16.8672 5.03019 15.1863 5.99646 13.4043 6.74059C9.67474 8.538 5.39095 10.3354 5.19624 10.3803C4.89456 10.4465 4.58956 10.4965 4.28256 10.5301H3.75832C3.63849 10.5301 3.75832 10.1856 3.87814 9.81116C3.90315 9.75712 3.91717 9.69867 3.91941 9.63918C3.92163 9.57967 3.91201 9.52034 3.8911 9.46459C3.87021 9.40885 3.83844 9.35781 3.79764 9.31446C3.75684 9.2711 3.70783 9.23628 3.65347 9.21201C3.59944 9.18701 3.54099 9.17298 3.4815 9.17076C3.42199 9.16852 3.36265 9.17814 3.30691 9.19905C3.25117 9.21996 3.20013 9.25173 3.15678 9.29253C3.11341 9.33331 3.0786 9.38232 3.05434 9.4367C2.85355 9.82034 2.74869 10.2469 2.74869 10.6799C2.74869 11.1129 2.85355 11.5395 3.05434 11.9231C4.05294 14.0299 5.66664 15.7847 7.68264 16.9559C10.3282 18.5529 13.2172 19.7064 16.2352 20.3709C14.541 23.3772 13.2851 26.6103 12.5056 29.972C12.0413 32.2937 12.251 34.3007 13.2695 35.2743C13.6461 35.5602 14.0757 35.7682 14.5334 35.8866C14.9911 36.005 15.4678 36.0309 15.9357 35.9632C18.8641 35.5468 21.7063 34.6618 24.3535 33.3422C27.031 32.1693 29.5479 30.6593 31.8426 28.8486C32.9211 27.875 33.3405 26.9313 33.2356 26.3322C32.9061 24.5049 30.8091 22.6774 27.6936 21.3744ZM8.31172 15.9972C6.44371 14.9669 4.92595 13.4022 3.95304 11.5037C4.41084 11.5567 4.87323 11.5567 5.33104 11.5037C8.79145 10.3704 12.1824 9.03506 15.4863 7.50449C16.9899 6.88682 18.3933 6.04884 19.6503 5.01809C20.0905 4.57177 20.4685 4.06792 20.7736 3.52026C21.3213 5.01284 21.4101 6.63513 21.0283 8.17851C20.0808 11.7436 18.7342 15.1903 17.014 18.4536C16.9092 18.6933 16.8193 18.903 16.7595 19.0827C13.7922 18.5288 10.9375 17.4861 8.31172 15.9972ZM30.4197 27.7701C27.7359 29.7498 24.8053 31.3712 21.7023 32.5932C19.941 33.3528 18.0957 33.9007 16.2052 34.2258C15.6103 34.383 14.9789 34.3246 14.4229 34.0611C13.9436 33.7914 13.8986 33.0574 13.8687 32.3085C13.8797 31.1139 14.0458 29.9256 14.363 28.7738C15.0658 26.0683 16.0707 23.4507 17.3586 20.97L17.5833 20.5656C20.8299 20.7969 24.0171 21.5557 27.0196 22.8123C28.7778 23.3877 30.2986 24.5243 31.3483 26.0476C31.5132 26.1825 31.6329 26.7816 30.4197 27.7701Z" fill="#2B2A29"/>
</svg>
