<svg width="36" height="36" viewBox="0 0 36 36" fill="none" xmlns="http://www.w3.org/2000/svg">
<g clip-path="url(#clip0_3109_7812)">
<g clip-path="url(#clip1_3109_7812)">
<path d="M34.9016 23.2768V18.3067C34.9058 17.3476 34.2748 16.5014 33.3543 16.2318H33.3311L27.4744 14.6303V8.71321C27.4744 7.99851 26.7007 7.55183 26.0817 7.90917C25.7945 8.07503 25.6175 8.38152 25.6175 8.71321V14.1289L21.285 12.956V5.92798H22.8323C23.547 5.92798 23.9937 5.1543 23.6363 4.53537C23.4705 4.24812 23.164 4.07117 22.8323 4.07117H4.26415C3.54946 4.07117 3.10279 4.84484 3.46013 5.46378C3.62597 5.75103 3.93246 5.92798 4.26415 5.92798H5.81149V11.4984H4.26415C3.54946 11.4984 3.10279 12.2721 3.46013 12.891C3.62596 13.1783 3.93248 13.3552 4.26415 13.3552H8.59673C14.5759 13.3621 19.4213 18.2075 19.4281 24.1867V26.0435C19.4281 26.5562 19.8438 26.9719 20.3565 26.9719H25.6268C25.8612 31.015 30.3844 33.2883 33.7687 31.0637C36.4034 29.3319 36.9336 25.6876 34.9016 23.2768ZM8.59673 11.4984H7.66832V5.92798H19.4281V17.5857C17.1261 13.8067 13.0216 11.5 8.59673 11.4984ZM21.285 24.1867V14.8778L32.8328 18.005C32.9622 18.0479 33.0483 18.1705 33.0448 18.3067V21.8657C30.1573 20.561 26.7801 22.0862 25.8496 25.1151H21.285V24.1867ZM30.8785 30.0666C28.258 30.0666 26.6202 27.2298 27.9304 24.9604C29.2407 22.6909 32.5163 22.6909 33.8266 24.9604C34.1254 25.4778 34.2827 26.0649 34.2827 26.6624C34.2827 28.5425 32.7586 30.0666 30.8785 30.0666ZM8.59673 16.4499C2.64098 16.4499 -1.08135 22.8972 1.89652 28.055C4.87438 33.2129 12.3191 33.2129 15.2969 28.055C15.976 26.8789 16.3334 25.5447 16.3334 24.1867C16.3283 19.9159 12.8675 16.4551 8.59673 16.4499ZM8.59673 30.0666C4.07036 30.0668 1.24143 25.167 3.50443 21.2469C5.76744 17.3269 11.4254 17.3266 13.6887 21.2465C14.2049 22.1404 14.4766 23.1544 14.4766 24.1867C14.4766 27.434 11.844 30.0664 8.59673 30.0666ZM10.1441 24.1867C10.1441 25.3778 8.85462 26.1223 7.82305 25.5267C6.79148 24.9311 6.79148 23.4422 7.82305 22.8466C8.05827 22.7108 8.32511 22.6393 8.59673 22.6393C9.45129 22.6393 10.1441 23.3321 10.1441 24.1867Z" fill="black"/>
</g>
</g>
<defs>
<clipPath id="clip0_3109_7812">
<rect width="36" height="36" fill="white"/>
</clipPath>
<clipPath id="clip1_3109_7812">
<rect width="36" height="36" fill="white" transform="translate(0.5)"/>
</clipPath>
</defs>
</svg>
