<svg width="36" height="36" viewBox="0 0 36 36" fill="none" xmlns="http://www.w3.org/2000/svg">
<g clip-path="url(#clip0_4456_13999)">
<path d="M34.2563 20.9251C34.1676 20.9915 34.0667 21.0399 33.9594 21.0674C33.8521 21.0949 33.7404 21.101 33.6307 21.0853C33.521 21.0697 33.4155 21.0325 33.3201 20.9761C33.2248 20.9196 33.1415 20.8449 33.075 20.7563C32.3709 19.8098 31.4543 19.0418 30.3992 18.5142C29.344 17.9866 28.1797 17.7142 27 17.7188C26.7762 17.7188 26.5616 17.6299 26.4034 17.4717C26.2451 17.3134 26.1562 17.0988 26.1562 16.8751C26.1562 16.6513 26.2451 16.4367 26.4034 16.2784C26.5616 16.1202 26.7762 16.0313 27 16.0313C27.6838 16.0312 28.3539 15.8393 28.9341 15.4774C29.5143 15.1155 29.9814 14.5982 30.2823 13.9842C30.5833 13.3701 30.706 12.684 30.6366 12.0037C30.5671 11.3235 30.3083 10.6763 29.8895 10.1358C29.4707 9.59521 28.9087 9.18293 28.2673 8.94576C27.626 8.70859 26.9309 8.65604 26.2612 8.79406C25.5915 8.93209 24.9739 9.25516 24.4785 9.72659C23.9832 10.198 23.63 10.7989 23.4591 11.461C23.4031 11.6777 23.2634 11.8633 23.0706 11.9769C22.8778 12.0906 22.6478 12.123 22.4311 12.0671C22.2144 12.0111 22.0288 11.8714 21.9151 11.6786C21.8015 11.4858 21.7691 11.2558 21.825 11.0391C22.0371 10.2143 22.4433 9.45203 23.0097 8.81599C23.5761 8.17994 24.2863 7.68849 25.0812 7.3826C25.8761 7.07672 26.7325 6.96525 27.5792 7.0575C28.4259 7.14975 29.2383 7.44305 29.9486 7.91293C30.659 8.38282 31.2467 9.01569 31.6628 9.75879C32.079 10.5019 32.3115 11.3337 32.341 12.1849C32.3704 13.0361 32.196 13.882 31.8323 14.6521C31.4685 15.4222 30.926 16.0942 30.2498 16.6121C31.9137 17.233 33.3632 18.3203 34.425 19.7438C34.4915 19.8324 34.5399 19.9333 34.5674 20.0407C34.5949 20.148 34.6009 20.2597 34.5853 20.3694C34.5696 20.4791 34.5325 20.5846 34.476 20.6799C34.4196 20.7753 34.3449 20.8586 34.2563 20.9251ZM9.84375 16.8751C9.84375 16.6513 9.75485 16.4367 9.59662 16.2784C9.43839 16.1202 9.22378 16.0313 9 16.0313C8.31627 16.0311 7.6463 15.8392 7.06616 15.4773C6.48603 15.1155 6.01899 14.5982 5.71806 13.9842C5.41714 13.3703 5.2944 12.6843 5.36377 12.0041C5.43315 11.3239 5.69186 10.6767 6.11054 10.1362C6.52922 9.59563 7.09108 9.18331 7.73232 8.94603C8.37356 8.70875 9.06848 8.65603 9.73818 8.79386C10.4079 8.93169 11.0255 9.25453 11.5209 9.72574C12.0164 10.1969 12.3697 10.7976 12.5409 11.4596C12.5686 11.5669 12.6172 11.6677 12.6839 11.7562C12.7505 11.8447 12.8339 11.9193 12.9294 11.9755C13.0249 12.0318 13.1305 12.0687 13.2402 12.0842C13.3499 12.0997 13.4616 12.0934 13.5689 12.0657C13.6762 12.038 13.777 11.9894 13.8655 11.9228C13.954 11.8561 14.0286 11.7727 14.0849 11.6772C14.1411 11.5818 14.1781 11.4762 14.1935 11.3664C14.209 11.2567 14.2027 11.145 14.175 11.0377C13.9629 10.2128 13.5567 9.45063 12.9903 8.81458C12.4239 8.17853 11.7137 7.68708 10.9188 7.3812C10.1239 7.07531 9.26747 6.96385 8.42078 7.0561C7.5741 7.14835 6.76173 7.44164 6.05139 7.91153C5.34105 8.38141 4.75331 9.01428 4.33716 9.75738C3.92101 10.5005 3.68851 11.3323 3.65904 12.1835C3.62956 13.0347 3.80397 13.8806 4.16772 14.6507C4.53146 15.4208 5.07402 16.0928 5.75016 16.6107C4.08617 17.2319 2.63656 18.3198 1.575 19.7438C1.50852 19.8324 1.46015 19.9333 1.43265 20.0407C1.40515 20.148 1.39906 20.2597 1.41473 20.3694C1.4304 20.4791 1.46752 20.5846 1.52397 20.6799C1.58043 20.7753 1.65511 20.8586 1.74375 20.9251C1.83239 20.9915 1.93326 21.0399 2.0406 21.0674C2.14793 21.0949 2.25964 21.101 2.36932 21.0853C2.47901 21.0697 2.58454 21.0325 2.67989 20.9761C2.77523 20.9196 2.85852 20.8449 2.925 20.7563C3.62912 19.8098 4.54566 19.0418 5.60083 18.5142C6.65599 17.9866 7.8203 17.7142 9 17.7188C9.22378 17.7188 9.43839 17.6299 9.59662 17.4717C9.75485 17.3134 9.84375 17.0988 9.84375 16.8751Z" fill="black"/>
<path fill-rule="evenodd" clip-rule="evenodd" d="M26.6048 29.9532C26.6603 30.0491 26.6964 30.1551 26.711 30.265C26.7256 30.3748 26.7183 30.4865 26.6897 30.5936C26.6611 30.7007 26.6117 30.8011 26.5443 30.8891C26.4769 30.977 26.3928 31.0509 26.2968 31.1063C26.1689 31.1813 26.0232 31.2207 25.875 31.2202C25.7268 31.2203 25.5812 31.1814 25.4528 31.1073C25.3244 31.0333 25.2178 30.9267 25.1437 30.7984C24.4103 29.5558 23.3655 28.5259 22.1125 27.8105C20.8594 27.095 19.4415 26.7187 17.9986 26.7187C16.5557 26.7187 15.1377 27.095 13.8847 27.8105C12.6316 28.5259 11.5868 29.5558 10.8534 30.7984C10.8007 30.8992 10.7281 30.9883 10.64 31.0604C10.5519 31.1324 10.4501 31.1859 10.3409 31.2176C10.2316 31.2493 10.117 31.2586 10.004 31.2449C9.89107 31.2311 9.78205 31.1947 9.68352 31.1378C9.585 31.0808 9.49902 31.0045 9.43075 30.9135C9.36247 30.8225 9.31332 30.7185 9.28625 30.608C9.25918 30.4975 9.25474 30.3826 9.27321 30.2703C9.29168 30.158 9.33267 30.0507 9.39372 29.9546C10.543 27.98 12.3424 26.466 14.4843 25.6712C13.3143 24.9115 12.4212 23.7939 11.9382 22.4851C11.4553 21.1763 11.4084 19.7464 11.8046 18.4088C12.2007 17.0711 13.0187 15.8974 14.1365 15.0627C15.2543 14.228 16.6119 13.777 18.007 13.777C19.4021 13.777 20.7597 14.228 21.8775 15.0627C22.9953 15.8974 23.8133 17.0711 24.2094 18.4088C24.6056 19.7464 24.5587 21.1763 24.0758 22.4851C23.5928 23.7939 22.6997 24.9115 21.5297 25.6712C23.6657 26.4687 25.4592 27.9819 26.6048 29.9532ZM18 25.0314C18.9456 25.0314 19.87 24.751 20.6563 24.2256C21.4426 23.7002 22.0554 22.9535 22.4173 22.0798C22.7792 21.2062 22.8739 20.2448 22.6894 19.3173C22.5049 18.3899 22.0495 17.5379 21.3809 16.8693C20.7122 16.2006 19.8602 15.7452 18.9328 15.5607C18.0053 15.3763 17.044 15.4709 16.1703 15.8328C15.2966 16.1947 14.5499 16.8075 14.0245 17.5938C13.4992 18.3801 13.2188 19.3045 13.2188 20.2501C13.2188 21.5182 13.7225 22.7343 14.6191 23.631C15.5158 24.5276 16.7319 25.0314 18 25.0314Z" fill="#00A3E2"/>
</g>
<defs>
<clipPath id="clip0_4456_13999">
<rect width="36" height="36" fill="white"/>
</clipPath>
</defs>
</svg>
