<svg width="36" height="36" viewBox="0 0 36 36" fill="none" xmlns="http://www.w3.org/2000/svg">
<g clip-path="url(#clip0_2966_6909)">
<g clip-path="url(#clip1_2966_6909)">
<path d="M18.1664 0.359985C4.58715 0.359381 -3.89977 15.059 2.88936 26.8193C9.67846 38.5796 26.6526 38.5804 33.4427 26.8207C34.9912 24.1389 35.8064 21.0967 35.8064 18C35.795 8.26242 27.904 0.371418 18.1664 0.359985ZM8.38488 30.1059C12.8204 22.7303 23.5125 22.7303 27.948 30.1059C22.2464 34.7293 14.0864 34.7293 8.38488 30.1059ZM12.2864 16.6165C12.2864 12.09 17.1864 9.26101 21.1064 11.5242C25.0264 13.7874 25.0264 19.4455 21.1064 21.7087C20.2126 22.2248 19.1986 22.4965 18.1664 22.4965C14.919 22.4965 12.2864 19.8639 12.2864 16.6165ZM29.4958 28.6601C27.8654 26.125 25.4285 24.2132 22.5782 23.2332C27.6751 19.8384 27.1856 12.199 21.6972 9.4824C16.2087 6.76576 9.8376 11.0093 10.2292 17.1207C10.3878 19.5971 11.6929 21.8576 13.7582 23.2332C10.9079 24.2132 8.47089 26.125 6.84051 28.6601C-1.3767 19.94 2.92724 5.59464 14.5876 2.83833C26.248 0.0820262 36.5195 10.9821 33.0764 22.4584C32.3811 24.7758 31.1551 26.8992 29.4958 28.6601Z" fill="#00A3E2"/>
<path fill-rule="evenodd" clip-rule="evenodd" d="M2.88936 26.8193C-3.89977 15.059 4.58715 0.359381 18.1664 0.359985C27.904 0.371418 35.795 8.26242 35.8064 18C35.8064 21.0967 34.9912 24.1389 33.4427 26.8207C26.6526 38.5804 9.67846 38.5796 2.88936 26.8193ZM8.81885 30.4453C7.00821 29.0859 5.50373 27.3407 4.42739 25.3319C3.19334 23.0489 2.60326 20.5726 2.59218 18.1195C2.59184 18.0774 2.59167 18.0352 2.59167 17.993C2.59167 15.092 3.38549 12.3764 4.76775 10.0516C6.79106 6.60412 10.1587 3.88525 14.5876 2.83833C26.248 0.0820262 36.5195 10.9821 33.0764 22.4584C32.3811 24.7758 31.1551 26.8992 29.4958 28.6601C29.4942 28.6575 29.4925 28.6549 29.4908 28.6523C29.0072 29.1665 28.489 29.6478 27.9399 30.0925C27.9426 30.097 27.9453 30.1014 27.948 30.1059C22.3896 34.6132 14.4946 34.7263 8.81885 30.4453Z" fill="#2B2A29"/>
</g>
</g>
<defs>
<clipPath id="clip0_2966_6909">
<rect width="36" height="36" fill="white"/>
</clipPath>
<clipPath id="clip1_2966_6909">
<rect width="36" height="36" fill="white"/>
</clipPath>
</defs>
</svg>
