<svg width="36" height="36" viewBox="0 0 36 36" fill="none" xmlns="http://www.w3.org/2000/svg">
<g clip-path="url(#clip0_2615_421)">
<path d="M35.297 24.6909C35.0018 23.6384 34.577 22.6268 34.032 21.6792C33.2091 20.3012 32.1061 19.1109 30.7945 18.1857C31.0098 17.7242 31.2007 17.2517 31.3666 16.7703C31.722 15.7772 31.8606 14.7195 31.7733 13.6683C31.722 13.1786 31.5597 12.7071 31.2988 12.2896C31.0378 11.8721 30.685 11.5197 30.2674 11.259C29.8048 10.966 29.2578 10.8351 28.7127 10.8869C28.1676 10.9387 27.655 11.1702 27.2559 11.5451C26.4018 12.2967 25.6879 13.1941 25.1476 14.1953C24.6556 15.1742 24.2182 16.1796 23.8377 17.207C22.9581 17.3187 22.1059 17.5892 21.3229 18.005C20.9043 18.227 20.5147 18.5001 20.1634 18.8181C19.8127 19.1561 19.5043 19.5353 19.2448 19.9475L18.8232 20.8811C18.5673 21.9954 18.9438 22.5827 19.5912 22.8236C20.1777 23.0189 20.8117 23.0189 21.3982 22.8236C21.3982 22.8236 19.6816 26.3472 19.6665 26.4978C19.4482 27.1707 19.287 27.8609 19.1847 28.5608C19.1191 29.0606 19.1191 29.5668 19.1847 30.0666C19.2315 30.353 19.302 30.6351 19.3954 30.9099C19.483 31.1225 19.636 31.3019 19.8321 31.4219C20.1292 31.59 20.4793 31.6385 20.811 31.5573C21.2413 31.4418 21.6487 31.2534 22.0156 31.0002L22.8889 30.1721L23.7171 29.118C23.8749 29.0849 24.0271 29.0291 24.1689 28.9523C24.4828 28.7517 24.7755 28.5197 25.0423 28.2596C25.4344 27.8667 25.7827 27.4326 26.0812 26.9646C26.3317 26.5487 26.5531 26.1161 26.7438 25.6697C26.8381 25.7202 26.9397 25.7559 27.045 25.775C27.3739 25.8644 27.7131 25.91 28.0539 25.9106H28.6563C28.5886 26.1425 28.5382 26.379 28.5057 26.6183C28.4757 26.8583 28.4757 27.1011 28.5057 27.3411C28.5529 27.5784 28.6236 27.8103 28.7164 28.0338C28.9614 28.5675 29.3337 29.033 29.8006 29.3891C29.8443 29.435 29.8968 29.4717 29.955 29.4968C30.0133 29.5218 30.076 29.5347 30.1395 29.5347C30.2028 29.5347 30.2656 29.5218 30.3238 29.4968C30.382 29.4717 30.4347 29.435 30.4782 29.3891C30.5674 29.2988 30.6175 29.1771 30.6175 29.0502C30.6175 28.9233 30.5674 28.8015 30.4782 28.7114C30.3686 28.5113 30.2826 28.299 30.2223 28.079C30.2223 27.8531 30.2223 27.6272 30.132 27.3863C30.0415 27.1454 30.132 26.9345 30.0265 26.6936C29.8156 25.6094 29.8006 25.3383 29.7403 25.1877C29.7582 25.0802 29.7336 24.9699 29.6719 24.8801C29.6101 24.7902 29.5159 24.7278 29.4091 24.7059C29.3211 24.686 29.229 24.6957 29.1471 24.734C29.0653 24.7721 28.9986 24.8364 28.9573 24.9167C28.7317 24.9317 28.5054 24.9317 28.2798 24.9167C27.9666 24.8726 27.6621 24.7811 27.3763 24.6456C26.7618 24.2952 26.2642 23.7714 25.9458 23.1399C25.7349 22.7484 25.6446 22.3116 26.1565 22.0256L26.6685 21.7847C27.0928 21.6716 27.5392 21.6716 27.9636 21.7847C28.4403 21.917 28.8963 22.1145 29.3188 22.3719C29.3707 22.4081 29.4294 22.4333 29.4913 22.446C29.5533 22.4588 29.6172 22.4589 29.6791 22.4462C29.7411 22.4336 29.7999 22.4084 29.8518 22.3724C29.9037 22.3362 29.9478 22.29 29.9814 22.2363C30.0517 22.1321 30.0786 22.0044 30.0561 21.8805C30.0336 21.7568 29.9635 21.6467 29.8609 21.5738C29.5779 21.3543 29.2812 21.153 28.9725 20.9715C29.04 20.958 29.1042 20.9312 29.1612 20.8923C29.218 20.8535 29.2665 20.8037 29.3037 20.7456C29.6049 20.2136 29.9061 19.6565 30.2071 19.0742C31.1293 20.0706 31.9005 21.197 32.496 22.4171C32.9476 23.3211 33.345 24.2514 33.6856 25.2029C34.2232 26.6816 34.6758 28.1898 35.0409 29.7203C35.0664 29.8472 35.1405 29.9592 35.2475 30.0323C35.3543 30.1055 35.4855 30.134 35.6132 30.1118C35.6756 30.0992 35.735 30.0744 35.7878 30.0389C35.8405 30.0032 35.8857 29.9574 35.9207 29.9042C35.9558 29.8511 35.9797 29.7914 35.9916 29.7288C36.0035 29.6663 36.0027 29.6019 35.9895 29.5395C35.8875 27.9075 35.6559 26.2862 35.297 24.6909ZM20.2387 21.6792C20.1799 21.6582 20.1279 21.6219 20.0881 21.5738L20.5399 20.7758C20.8453 20.3363 21.1989 19.9322 21.594 19.5711C21.8559 19.3143 22.1323 19.073 22.4221 18.8483C22.6987 18.6497 22.9908 18.4734 23.2956 18.3213C23.2666 18.3993 23.2314 18.4749 23.1901 18.5471L21.8499 21.5588C21.3376 21.6545 20.8195 21.7148 20.2989 21.7395L20.2387 21.6792ZM20.7507 29.916C20.7507 29.7956 20.4495 28.6662 20.4195 28.1844C20.3893 27.7025 20.4195 27.3863 20.4195 26.9948C20.8626 27.4428 21.3354 27.8603 21.8349 28.2446C22.0515 28.404 22.2778 28.55 22.5124 28.6812C22.5124 28.6812 20.9766 29.916 20.811 29.9763L20.7507 29.916ZM28.611 20.2337C28.57 20.3046 28.5484 20.3852 28.5484 20.4671C28.5484 20.549 28.57 20.6295 28.611 20.7005C28.4575 20.615 28.2961 20.5443 28.1292 20.4896C27.6438 20.3321 27.1291 20.2859 26.6233 20.3541L25.6747 20.6402C25.42 20.7306 25.1862 20.8713 24.9868 21.0539C24.7875 21.2363 24.627 21.4571 24.5146 21.7028C24.4023 21.9486 24.3405 22.2144 24.3328 22.4846C24.3252 22.7547 24.3718 23.0237 24.4701 23.2754C24.6384 23.7768 24.9162 24.2346 25.2832 24.6156C25.4593 24.7928 25.6507 24.954 25.8553 25.0974C25.6747 25.3535 25.5241 25.6245 25.3284 25.8654C24.9756 26.3187 24.5598 26.7194 24.0936 27.0549C23.9731 27.1454 23.4913 27.4616 23.5666 27.4616C23.1261 27.3741 22.6968 27.2378 22.2867 27.0549C21.7897 26.799 21.3229 26.5128 20.7808 26.2418C21.112 25.5792 21.4132 24.992 21.6843 24.48C22.5877 22.7784 23.2804 21.6491 24.5002 19.3001C25.1628 17.9598 25.75 16.439 26.5029 15.0536C26.9338 14.1894 27.5094 13.4051 28.2045 12.7347C28.3575 12.5753 28.5607 12.4733 28.7802 12.4459C28.9995 12.4185 29.2215 12.4673 29.4091 12.5841C29.6475 12.7085 29.8542 12.8859 30.0133 13.1025C30.1725 13.3191 30.28 13.5693 30.3277 13.8339C30.4419 14.7015 30.3753 15.5834 30.132 16.424C30.1168 16.7703 28.8972 19.6163 28.611 20.2337Z" fill="#2B2A29"/>
<path d="M24.0936 31.2411C22.236 32.2986 20.2915 33.1953 18.2811 33.9215C17.0286 34.3992 15.6678 34.5191 14.351 34.2678C13.764 34.0647 13.2434 33.7054 12.8452 33.2287C12.1714 32.4309 11.5857 31.5625 11.0984 30.6387C10.2853 29.2535 9.59262 27.8531 8.88489 26.4225C7.84587 24.2541 6.92733 22.0557 5.96361 19.827C5.45163 18.6976 5.02999 17.5533 4.62344 16.4088C3.96087 14.6771 3.40372 12.9003 2.8014 11.1234C2.68093 10.7771 1.98825 9.6176 1.65698 8.93999C2.16477 8.91092 2.66882 8.83531 3.1628 8.71412C5.72476 8.05365 8.24 7.22363 10.6919 6.22952C13.4607 5.19073 16.1484 3.94752 18.7329 2.51016C18.9778 2.35508 19.2008 2.16768 19.3955 1.953C19.7952 2.53634 20.1477 3.15065 20.4495 3.7901C21.2175 5.50673 22.091 8.30754 22.9492 10.5361C23.2051 11.1535 23.4612 11.7257 23.7021 12.2076C23.7294 12.2652 23.768 12.3168 23.8155 12.3595C23.8629 12.4021 23.9184 12.4348 23.9787 12.4558C24.0389 12.4768 24.1027 12.4857 24.1663 12.4819C24.2301 12.478 24.2923 12.4616 24.3496 12.4335C24.4632 12.3752 24.55 12.2755 24.5922 12.1549C24.6342 12.0344 24.6282 11.9022 24.5756 11.786C24.3139 11.2575 24.0827 10.7145 23.8829 10.1597C23.0546 7.94614 22.2565 5.07005 21.5035 3.3233C21.0224 2.3154 20.3701 1.39838 19.5762 0.612827C19.4663 0.549389 19.3416 0.515991 19.2148 0.515991C19.0879 0.515991 18.9633 0.549389 18.8533 0.612827C18.4618 0.868815 18.7329 1.04951 17.9198 1.53138C14.8176 3.09087 11.6069 4.42447 8.31267 5.52178C6.39931 6.22008 4.44267 6.7935 2.45505 7.23841C0.828776 7.47934 1.145 7.05771 0.497496 7.37394C0.3424 7.45587 0.213525 7.57985 0.125639 7.73165C0.0377523 7.88346 -0.0055904 8.05695 0.000577489 8.23225C0.314986 9.40851 0.73845 10.5529 1.26546 11.6505C1.86778 13.5026 2.42494 15.2193 3.01221 16.966C3.44889 18.1405 3.90065 19.3151 4.42767 20.4895C5.45163 22.7031 6.41535 24.9016 7.43931 27.0549C8.17715 28.5607 8.94512 29.916 9.84861 31.3164C10.4064 32.3061 11.0731 33.2304 11.8363 34.072C12.402 34.6917 13.1337 35.136 13.9444 35.352C15.464 35.6294 17.0311 35.4675 18.4618 34.8852C20.4951 34.0727 22.4634 33.1062 24.3496 31.9939C24.4473 31.9399 24.5198 31.8495 24.5508 31.7421C24.5819 31.6348 24.5691 31.5196 24.5152 31.4219C24.4699 31.3542 24.4059 31.3011 24.3312 31.2691C24.2563 31.237 24.1738 31.2273 24.0936 31.2411Z" fill="#2B2A29"/>
<path d="M11.505 11.6806C12.2916 11.55 13.0869 11.4795 13.8842 11.4698C14.7859 11.4528 15.6837 11.3468 16.5645 11.1536C17.8049 10.8942 18.917 10.2131 19.7117 9.22614C19.8009 9.13593 19.8508 9.01419 19.8508 8.88733C19.8508 8.76046 19.8009 8.63872 19.7117 8.54851C19.6682 8.50249 19.6155 8.46585 19.5573 8.4408C19.4991 8.41575 19.4362 8.40283 19.3729 8.40283C19.3095 8.40283 19.2468 8.41575 19.1884 8.4408C19.1302 8.46585 19.0777 8.50249 19.0341 8.54851C18.4944 9.08248 17.825 9.46654 17.0916 9.66282C16.185 9.84469 15.2584 9.90546 14.3359 9.84352C13.2952 9.82215 12.2552 9.91303 11.234 10.1146C10.4405 10.3221 9.69417 10.68 9.03547 11.1686C8.17894 11.842 7.44971 12.663 6.88215 13.593C6.84705 13.6796 6.84064 13.7751 6.86386 13.8656C6.88708 13.9561 6.93871 14.0368 7.01118 14.0958C7.08363 14.1547 7.17309 14.1889 7.26642 14.1933C7.35973 14.1977 7.452 14.172 7.52966 14.12C8.0705 13.4951 8.6995 12.9523 9.39687 12.5088C10.0308 12.0824 10.7503 11.7997 11.505 11.6806Z" fill="#00A3E2"/>
<path d="M20.7808 15.0085C20.8701 14.9183 20.92 14.7965 20.92 14.6697C20.92 14.5428 20.8701 14.4211 20.7808 14.3309C20.7372 14.2848 20.6847 14.2482 20.6265 14.2231C20.5681 14.1981 20.5054 14.1852 20.442 14.1852C20.3785 14.1852 20.3159 14.1981 20.2577 14.2231C20.1993 14.2482 20.1468 14.2848 20.1031 14.3309C19.4931 14.7397 18.8069 15.0213 18.0855 15.159C16.956 15.415 15.7665 15.4452 14.5618 15.6108C13.8781 15.7408 13.2113 15.948 12.5741 16.2282C12.1447 16.4223 11.736 16.6594 11.3544 16.9359C10.4093 17.566 9.61696 18.3994 9.03547 19.3753C8.97682 19.4701 8.95662 19.5837 8.97901 19.6929C9.00141 19.8021 9.06471 19.8985 9.15594 19.9626C9.20281 19.996 9.25603 20.0194 9.3123 20.0314C9.36858 20.0434 9.42672 20.0439 9.48315 20.0325C9.53956 20.0212 9.59308 19.9986 9.64041 19.9657C9.68772 19.933 9.72783 19.891 9.75826 19.8421C10.2608 19.2372 10.8677 18.7272 11.5502 18.3363C12.0681 18.0484 12.6128 17.8114 13.1765 17.6286C13.7349 17.4225 14.3089 17.2612 14.8931 17.1468C16.0977 16.8606 17.3175 16.71 18.4618 16.3185C19.3201 16.054 20.1112 15.6072 20.7808 15.0085Z" fill="#00A3E2"/>
<path d="M14.9081 22.2966C14.6011 22.3882 14.3036 22.5093 14.0197 22.6579C13.7415 22.7947 13.479 22.9614 13.2367 23.1549C12.6814 23.6283 12.1767 24.1582 11.7308 24.7359C11.6535 24.8172 11.6104 24.925 11.6104 25.0371C11.6104 25.1493 11.6535 25.2571 11.7308 25.3383C11.7701 25.3783 11.817 25.4101 11.8687 25.4319C11.9204 25.4536 11.9759 25.4649 12.032 25.4649C12.0881 25.4649 12.1436 25.4536 12.1954 25.4319C12.2471 25.4101 12.2939 25.3783 12.3332 25.3383C12.9816 24.9561 13.6501 24.6093 14.3359 24.2992C14.6521 24.1486 14.9533 23.968 15.2695 23.8023C15.5857 23.6367 15.8869 23.4409 16.2181 23.2903C16.5438 23.1459 16.8814 23.0299 17.227 22.944C17.2905 22.9384 17.3521 22.9201 17.4084 22.8906C17.4648 22.861 17.5146 22.8205 17.5552 22.7715C17.5959 22.7224 17.6263 22.6659 17.6449 22.6051C17.6635 22.5442 17.67 22.4803 17.6637 22.417C17.6602 22.3528 17.6434 22.2901 17.6145 22.2328C17.5855 22.1754 17.545 22.1247 17.4955 22.0836C17.446 22.0426 17.3886 22.0123 17.3269 21.9945C17.2651 21.9768 17.2005 21.972 17.1367 21.9802C16.381 21.9547 15.6268 22.0618 14.9081 22.2966Z" fill="#00A3E2"/>
</g>
<defs>
<clipPath id="clip0_2615_421">
<rect width="36" height="36" fill="white"/>
</clipPath>
</defs>
</svg>
