<svg width="36" height="36" viewBox="0 0 36 36" fill="none" xmlns="http://www.w3.org/2000/svg">
<g clip-path="url(#clip0_2615_440)">
<path fill-rule="evenodd" clip-rule="evenodd" d="M22.1661 16.905C22.2273 16.8976 22.2865 16.8781 22.3401 16.8477C22.3936 16.8172 22.4407 16.7764 22.4784 16.7275C22.516 16.6788 22.5436 16.6228 22.5595 16.5633C22.5753 16.5037 22.5792 16.4415 22.5708 16.3804C22.5666 15.6802 22.7757 14.9954 23.1703 14.417C23.5452 13.8534 23.9662 13.3219 24.4293 12.8282C25.1023 12.0499 25.8178 11.3093 26.5726 10.61C27.0309 10.7115 27.4975 10.7717 27.9666 10.7898C28.0624 10.7715 28.1488 10.7203 28.2111 10.6451C28.2732 10.5698 28.3072 10.4753 28.3072 10.3777C28.3072 10.2801 28.2732 10.1855 28.2111 10.1103C28.1488 10.035 28.0624 9.98385 27.9666 9.96549C25.2987 9.6957 24.1296 7.95706 24.2794 6.23343C24.3961 5.28406 24.8773 4.41723 25.6212 3.81597C26.3652 3.2147 27.3136 2.92603 28.2663 3.01096C29.1258 2.99445 29.9577 3.31424 30.5848 3.90218C31.212 4.49012 31.5847 5.29973 31.6237 6.15849C31.7109 6.59943 31.7101 7.05323 31.6216 7.49391C31.5333 7.93459 31.3587 8.3535 31.108 8.72662C30.8575 9.09975 30.5358 9.41978 30.1612 9.66837C29.7868 9.91697 29.367 10.0892 28.9258 10.1753C28.8025 10.1912 28.6906 10.2554 28.6147 10.3538C28.5388 10.4522 28.5052 10.5767 28.5211 10.6999C28.537 10.8231 28.6012 10.935 28.6996 11.0109C28.798 11.0868 28.9225 11.1205 29.0457 11.1046C29.5687 11.0583 30.0778 10.9107 30.5445 10.6699C30.9157 11.0859 31.2516 11.5321 31.5487 12.0039C31.7286 12.2737 31.8934 12.5435 32.0433 12.8133C32.2081 13.098 32.3731 13.3828 32.523 13.6676C32.8869 14.3761 33.1926 15.1129 33.4372 15.8709C33.4479 15.9304 33.4705 15.9873 33.5037 16.038C33.537 16.0887 33.58 16.132 33.6304 16.1656C33.6808 16.1992 33.7374 16.2223 33.7969 16.2334C33.8565 16.2447 33.9177 16.2436 33.9768 16.2306C34.098 16.2087 34.2055 16.1395 34.2759 16.0384C34.3461 15.9372 34.3734 15.8122 34.3515 15.691C34.3021 14.8111 34.146 13.9404 33.8869 13.098C33.7809 12.719 33.6352 12.3523 33.4522 12.0039C33.2545 11.6622 33.0235 11.3409 32.7628 11.0446C32.3808 10.659 31.953 10.3217 31.4887 10.0404C32.0182 9.51891 32.4268 8.88758 32.6859 8.19095C32.9448 7.49432 33.0478 6.74935 32.9875 6.00859C32.9817 5.38997 32.8536 4.7786 32.6104 4.20969C32.3674 3.64079 32.0142 3.12558 31.5712 2.69371C31.1283 2.26187 30.6042 1.92191 30.0292 1.6934C29.4543 1.46488 28.8399 1.35234 28.2213 1.36225C26.896 1.32109 25.6071 1.79966 24.6298 2.69577C23.6524 3.59189 23.0641 4.83456 22.9905 6.15849C22.9662 7.00584 23.1901 7.84182 23.6349 8.56352C24.0796 9.2852 24.7257 9.86109 25.4935 10.2203C24.8553 10.553 24.2527 10.9497 23.6949 11.4044C23.1625 11.8562 22.7025 12.3869 22.3309 12.9781C21.9852 13.4887 21.7458 14.0638 21.6274 14.669C21.5089 15.2742 21.5137 15.8971 21.6415 16.5004C21.6468 16.5624 21.6649 16.6227 21.6948 16.6774C21.7246 16.732 21.7656 16.7799 21.8149 16.818C21.8641 16.8561 21.9208 16.8834 21.9813 16.8984C22.0417 16.9134 22.1047 16.9156 22.1661 16.905Z" fill="#2B2A29"/>
<path fill-rule="evenodd" clip-rule="evenodd" d="M12.6337 29.7049C12.4542 29.371 12.2434 29.0548 12.0042 28.7607C11.6276 28.3563 11.1993 28.0035 10.7302 27.7116C11.2565 27.1939 11.6633 26.5677 11.9222 25.8763C12.1811 25.1851 12.2858 24.4456 12.229 23.7097C12.2273 23.0841 12.1001 22.465 11.8549 21.8895C11.6097 21.3138 11.2514 20.7933 10.8014 20.3586C10.3514 19.924 9.8187 19.5841 9.23492 19.359C8.65115 19.134 8.02814 19.0282 7.4028 19.0483C6.07787 18.9993 4.78677 19.4731 3.80814 20.3676C2.82951 21.2622 2.24183 22.5055 2.17191 23.8296C2.14628 24.6753 2.36805 25.5102 2.81001 26.2317C3.25197 26.9532 3.8949 27.5299 4.65996 27.8914C4.02183 28.2241 3.41919 28.6207 2.86137 29.0754C2.33433 29.5284 1.87946 30.0591 1.51244 30.6492C1.16462 31.1617 0.924219 31.7394 0.805725 32.3473C0.68723 32.9551 0.693098 33.5808 0.822972 34.1865C0.830199 34.2472 0.849746 34.3057 0.880413 34.3587C0.911082 34.4116 0.952229 34.4578 1.00134 34.4943C1.05044 34.5307 1.10648 34.5568 1.16601 34.5709C1.22554 34.585 1.28732 34.5867 1.34756 34.5762C1.40878 34.5687 1.46793 34.5492 1.52154 34.5187C1.57515 34.4883 1.62216 34.4475 1.65983 34.3986C1.69749 34.3498 1.72506 34.294 1.74093 34.2343C1.7568 34.1748 1.76064 34.1127 1.75224 34.0515C1.74804 33.3513 1.95715 32.6665 2.35178 32.0881C2.72658 31.5244 3.14771 30.993 3.61079 30.4993C4.28765 29.7246 5.00298 28.9842 5.75409 28.2811C6.20974 28.3972 6.6778 28.4575 7.14799 28.461C7.24386 28.4425 7.33032 28.3914 7.39251 28.3161C7.4547 28.2409 7.48872 28.1464 7.48872 28.0488C7.48872 27.9511 7.4547 27.8566 7.39251 27.7813C7.33032 27.7062 7.24386 27.6549 7.14799 27.6366C4.51008 27.3667 3.37097 25.6282 3.52085 23.9046C3.62318 22.9443 4.09813 22.0626 4.84365 21.4488C5.58915 20.835 6.5457 20.5381 7.50771 20.6221C8.36688 20.6218 9.19224 20.9568 9.80811 21.5559C10.424 22.155 10.7817 22.9707 10.8051 23.8296C10.9815 24.718 10.7981 25.6401 10.295 26.3932C9.79194 27.1464 9.01046 27.6691 8.12223 27.8464C8.06121 27.8533 8.00215 27.8721 7.94842 27.9019C7.89468 27.9316 7.84732 27.9715 7.80904 28.0195C7.77078 28.0677 7.74234 28.1227 7.72535 28.1817C7.70836 28.2408 7.70316 28.3024 7.71006 28.3635C7.71695 28.4245 7.73579 28.4836 7.7655 28.5373C7.79522 28.591 7.83522 28.6384 7.88323 28.6767C7.93125 28.7149 7.98635 28.7434 8.04536 28.7604C8.10435 28.7773 8.16614 28.7826 8.22716 28.7757C8.75022 28.7295 9.25929 28.5817 9.72597 28.341C10.0972 28.7569 10.4331 29.2032 10.7302 29.6749C10.9093 29.941 11.0744 30.2161 11.2248 30.4993C11.3897 30.7692 11.5545 31.0539 11.7044 31.3387C12.0683 32.0472 12.3741 32.784 12.6187 33.5419C12.6631 33.6358 12.7378 33.7122 12.8307 33.7588C12.9236 33.8053 13.0295 33.8194 13.1313 33.7986C13.2332 33.7779 13.3252 33.7237 13.3925 33.6445C13.4599 33.5653 13.4988 33.4659 13.503 33.3621C13.4535 32.4822 13.2975 31.6114 13.0384 30.7692C12.9375 30.4024 12.802 30.046 12.6337 29.7049Z" fill="#2B2A29"/>
<path fill-rule="evenodd" clip-rule="evenodd" d="M2.69644 15.4062C4.47618 16.6806 6.62352 17.3385 8.81163 17.2797C11.8863 17.1913 14.9537 16.9311 17.9994 16.5004C18.0553 16.4986 18.1103 16.4854 18.1607 16.4614C18.2112 16.4374 18.2562 16.4032 18.2928 16.3609C18.3294 16.3186 18.3568 16.2693 18.3734 16.2159C18.39 16.1625 18.3954 16.1062 18.3891 16.0507C18.3853 15.9975 18.3711 15.9456 18.3471 15.8979C18.3232 15.8503 18.2901 15.8079 18.2498 15.7729C18.2092 15.7381 18.1624 15.7117 18.1117 15.6951C18.0611 15.6784 18.0076 15.672 17.9544 15.676C14.9682 16.0102 11.9663 16.1854 8.96151 16.2006C7.05426 16.1898 5.20234 15.5584 3.68566 14.402C2.96242 13.7075 2.39475 12.8674 2.02012 11.9373C1.6455 11.0072 1.47243 10.0082 1.51237 9.00627C1.41611 7.00903 2.06811 5.0477 3.34093 3.50559C4.22957 2.62488 5.40518 2.09293 6.65333 2.00678C7.96233 1.85487 9.28842 2.04063 10.5053 2.54634C11.1065 2.79348 11.6469 3.168 12.0893 3.6441C12.5318 4.1202 12.8658 4.68657 13.0683 5.30418C13.7877 7.37255 13.6079 9.87558 14.4472 11.884C14.7938 12.7006 15.3463 13.4133 16.0509 13.9524C17.0299 14.6956 18.0974 15.3148 19.2285 15.7959C19.2834 15.8241 19.3435 15.841 19.4051 15.8457C19.4667 15.8503 19.5287 15.8427 19.5873 15.8232C19.6459 15.8037 19.7 15.7726 19.7465 15.732C19.7929 15.6912 19.8309 15.6417 19.8579 15.586C19.895 15.4794 19.8944 15.3631 19.8563 15.2568C19.818 15.1504 19.7446 15.0603 19.6481 15.0015C18.5809 14.5234 17.5746 13.9196 16.6504 13.203C16.1037 12.7546 15.6763 12.1779 15.4065 11.5243C14.5521 9.00627 15.0018 6.00863 13.8177 3.74541C13.2 2.62038 12.224 1.73409 11.0449 1.22738C9.63171 0.607522 8.08623 0.349944 6.54842 0.477972C4.91079 0.582879 3.36427 1.26845 2.18684 2.41145C0.661683 4.25976 -0.113927 6.61333 0.0135502 9.00627C-0.0137588 10.2016 0.211035 11.3893 0.67329 12.492C1.13555 13.5947 1.8249 14.5877 2.69644 15.4062Z" fill="#2B2A29"/>
<path fill-rule="evenodd" clip-rule="evenodd" d="M33.8119 20.6971C32.6544 19.5516 31.1206 18.8646 29.4952 18.7636C27.9571 18.6277 26.4097 18.8857 24.9988 19.513C23.8182 20.0098 22.8408 20.8923 22.2259 22.0161C20.982 24.2943 21.4915 27.3369 20.5773 29.7649C20.3029 30.4408 19.8591 31.0344 19.2883 31.4886C18.3646 32.2099 17.3583 32.8188 16.2907 33.3022C16.1812 33.3598 16.0984 33.4575 16.0593 33.5748C16.0203 33.6921 16.0279 33.8199 16.0809 33.9316C16.141 34.0384 16.2388 34.119 16.3552 34.1578C16.4715 34.1965 16.5981 34.1908 16.7103 34.1415C17.839 33.6495 18.9057 33.0256 19.8879 32.283C20.5884 31.7461 21.1404 31.0393 21.4915 30.2296C22.3309 28.2061 22.1511 25.7331 22.8705 23.6347C23.0718 23.0002 23.4115 22.4182 23.8651 21.931C24.3187 21.4437 24.8749 21.0631 25.4934 20.817C26.6979 20.3239 28.0075 20.1435 29.3004 20.2924C30.5485 20.3785 31.7242 20.9106 32.6128 21.7912C33.8935 23.3197 34.5612 25.2693 34.4863 27.2619C34.5385 28.2441 34.387 29.2264 34.0414 30.1473C33.6957 31.068 33.1635 31.9074 32.478 32.6127C30.9598 33.7648 29.1078 34.3909 27.202 34.3963C24.1968 34.3959 21.1941 34.2207 18.2092 33.8718C18.1485 33.8601 18.0859 33.862 18.0261 33.8773C17.9662 33.8926 17.9104 33.921 17.8629 33.9604C17.8152 33.9997 17.7768 34.0492 17.7505 34.1052C17.7241 34.161 17.7105 34.222 17.7105 34.2838C17.7105 34.3456 17.7241 34.4067 17.7505 34.4626C17.7768 34.5186 17.8152 34.5679 17.8629 34.6074C17.9104 34.6467 17.9662 34.675 18.0261 34.6905C18.0859 34.7058 18.1485 34.7077 18.2092 34.696C21.2385 35.1502 24.2908 35.4355 27.352 35.5504C29.5401 35.6091 31.6875 34.9512 33.4672 33.6769C34.3071 32.8456 34.9647 31.8486 35.3982 30.7494C35.8317 29.6502 36.0316 28.4727 35.9851 27.2919C36.1186 24.8982 35.3422 22.5424 33.8119 20.6971Z" fill="#2B2A29"/>
<path fill-rule="evenodd" clip-rule="evenodd" d="M6.72831 6.95296H10.1606C10.2858 6.97284 10.4138 6.94216 10.5164 6.86767C10.619 6.79318 10.6878 6.681 10.7077 6.55578C10.7276 6.43056 10.6969 6.30258 10.6224 6.19998C10.5479 6.09739 10.4357 6.02859 10.3105 6.00871C9.68099 5.81386 9.06647 5.61901 8.42198 5.48412C8.14556 5.42616 7.86482 5.39106 7.58264 5.37921C7.2983 5.35675 7.01264 5.35675 6.72831 5.37921C6.06518 5.46991 5.41256 5.62554 4.77984 5.84383C4.72491 5.85882 4.67375 5.8852 4.62971 5.92129C4.58568 5.9574 4.54976 6.00237 4.52429 6.05331C4.49883 6.10423 4.4844 6.15996 4.48194 6.21684C4.4795 6.27372 4.48907 6.33048 4.51005 6.38341C4.52499 6.49225 4.58204 6.59091 4.6689 6.65815C4.75578 6.72541 4.86557 6.75592 4.97469 6.74313C5.52926 6.75811 6.11379 6.89301 6.72831 6.95296Z" fill="#00A3E2"/>
<path fill-rule="evenodd" clip-rule="evenodd" d="M25.8382 25.2685H29.2705C29.8851 25.2685 30.4696 25.0737 31.1142 25.0437C31.1721 25.0596 31.2328 25.0627 31.2921 25.0533C31.3515 25.0437 31.408 25.0213 31.458 24.988C31.5079 24.9547 31.5502 24.9109 31.5819 24.8599C31.6135 24.8088 31.6338 24.7515 31.6414 24.6919C31.6489 24.6322 31.6437 24.5718 31.6258 24.5143C31.608 24.457 31.5781 24.4041 31.5381 24.3592C31.498 24.3144 31.4488 24.2788 31.3938 24.2547C31.3387 24.2305 31.2792 24.2184 31.219 24.2193C30.5868 23.9992 29.934 23.8437 29.2705 23.7547C28.9863 23.7322 28.7005 23.7322 28.4163 23.7547C28.1347 23.7748 27.8547 23.8099 27.5769 23.8596C26.9374 24.0027 26.3068 24.1828 25.6884 24.3991C25.5663 24.4212 25.4574 24.4897 25.3846 24.5904C25.312 24.691 25.2811 24.8158 25.2987 24.9387C25.3303 25.0516 25.4037 25.1484 25.5037 25.2096C25.6038 25.2708 25.7233 25.2918 25.8382 25.2685Z" fill="#00A3E2"/>
<path fill-rule="evenodd" clip-rule="evenodd" d="M4.12032 11.1046C4.13261 11.1571 4.15523 11.2065 4.18688 11.2501C4.21851 11.2937 4.25855 11.3306 4.30461 11.3585C4.35068 11.3864 4.40186 11.4049 4.45515 11.4127C4.50843 11.4206 4.56276 11.4178 4.61493 11.4044H7.62758L8.52686 11.3145L10.6702 11.0447C10.7312 11.0467 10.792 11.0366 10.8492 11.0151C10.9063 10.9936 10.9586 10.961 11.0032 10.9193C11.0477 10.8775 11.0836 10.8274 11.1088 10.7717C11.1339 10.7161 11.1479 10.6561 11.1498 10.595C11.1518 10.534 11.1417 10.4732 11.1202 10.416C11.0987 10.3589 11.0661 10.3066 11.0244 10.262C10.9826 10.2175 10.9325 10.1816 10.8769 10.1564C10.8212 10.1313 10.7612 10.1173 10.7001 10.1154C9.97125 9.98178 9.2358 9.88672 8.49689 9.83062C8.17754 9.80817 7.857 9.80817 7.53764 9.83062C7.21976 9.84006 6.90353 9.88021 6.59339 9.95053C5.8793 10.1027 5.1816 10.3236 4.51002 10.61C4.45055 10.6133 4.39245 10.6292 4.33961 10.6567C4.28675 10.6841 4.24035 10.7225 4.20348 10.7693C4.16663 10.8161 4.14015 10.8702 4.12581 10.928C4.11147 10.9858 4.1096 11.046 4.12032 11.1046Z" fill="#00A3E2"/>
<path fill-rule="evenodd" clip-rule="evenodd" d="M24.8492 28.8507C24.851 28.9131 24.8654 28.9743 24.8915 29.031C24.9176 29.0877 24.9548 29.1385 25.001 29.1805C25.0472 29.2224 25.1013 29.2546 25.1601 29.2752C25.2191 29.2959 25.2815 29.3044 25.3437 29.3004L27.4721 29.5701L28.3713 29.6601H31.3839C31.4912 29.6824 31.6029 29.6622 31.6953 29.6034C31.7877 29.5446 31.8536 29.4519 31.8786 29.3452C31.892 29.293 31.8948 29.2387 31.8869 29.1855C31.8791 29.1322 31.8606 29.0811 31.8327 29.0349C31.8048 28.9888 31.7679 28.9488 31.7243 28.9173C31.6808 28.8856 31.6313 28.863 31.5788 28.8507C30.8843 28.5493 30.1611 28.3183 29.4206 28.1613C29.1057 28.1613 28.791 28.0713 28.4613 28.0413C28.1315 28.0113 27.8318 28.0413 27.5171 28.0413C26.778 28.0965 26.0424 28.1914 25.3137 28.3261C25.248 28.3278 25.1834 28.3431 25.1238 28.3708C25.0643 28.3986 25.0112 28.4383 24.9675 28.4875C24.924 28.5367 24.891 28.5943 24.8706 28.6567C24.8502 28.7193 24.8429 28.7853 24.8492 28.8507Z" fill="#00A3E2"/>
</g>
<defs>
<clipPath id="clip0_2615_440">
<rect width="36" height="36" fill="white"/>
</clipPath>
</defs>
</svg>
