<svg width="36" height="36" viewBox="0 0 36 36" fill="none" xmlns="http://www.w3.org/2000/svg">
<path fill-rule="evenodd" clip-rule="evenodd" d="M4.90496 14.3499C8.32062 15.0241 11.946 15.5783 15.6013 16.1476C17.9533 16.5221 20.3352 16.9117 22.6872 17.1514C24.6347 17.3461 26.5672 17.4509 28.4698 17.4659L27.1365 16.1926C26.0879 15.2188 25.0542 14.245 24.1404 13.1963L20.6797 9.07661C20.5861 8.97439 20.5341 8.84077 20.5341 8.70209C20.5341 8.56343 20.5861 8.4298 20.6797 8.32757C20.7298 8.27729 20.7894 8.23741 20.8549 8.21018C20.9205 8.18296 20.9908 8.16895 21.0618 8.16895C21.1327 8.16895 21.2031 8.18296 21.2686 8.21018C21.3342 8.23741 21.3937 8.27729 21.4438 8.32757L25.2489 12.1327C26.4474 13.2563 27.9155 14.275 29.2189 15.3986C30.1406 16.1882 30.9881 17.0608 31.7506 18.0052C31.8559 18.1418 31.9305 18.2995 31.9693 18.4676C32.0081 18.6356 32.0101 18.8101 31.9753 18.979C31.9251 19.1696 31.8313 19.3459 31.7013 19.4941C31.5713 19.6423 31.4087 19.7582 31.2263 19.8329C31.0016 19.9378 30.5521 19.9976 30.3424 20.1175L28.4249 21.4958C27.1677 22.4279 25.9624 23.4281 24.8145 24.4919C24.0793 25.2193 23.3937 25.9951 22.7622 26.8139C22.6738 26.944 22.5379 27.0341 22.3839 27.065C22.2297 27.0958 22.0696 27.0649 21.9382 26.9788C21.8071 26.8877 21.7167 26.7493 21.6859 26.5927C21.6552 26.4361 21.6865 26.2736 21.7734 26.1398C22.3773 25.2131 23.0482 24.3319 23.7808 23.5031C24.8763 22.2877 26.0418 21.1373 27.2713 20.0576L28.9043 18.7393C26.3585 18.9643 23.7994 18.9943 21.2491 18.8291C19.9308 18.7393 18.6274 18.6044 17.3241 18.4247C16.0207 18.2449 14.7474 18.0052 13.459 17.7206C10.4629 17.0464 7.46667 16.2224 4.65026 15.3236C4.51692 15.2851 4.40366 15.1966 4.33391 15.0766C4.26416 14.9566 4.24331 14.8144 4.27571 14.6794C4.31712 14.5534 4.40591 14.4484 4.52337 14.3869C4.64096 14.3254 4.77777 14.3121 4.90496 14.3499Z" fill="#00A3E2"/>
</svg>
