<svg width="36" height="36" viewBox="0 0 36 36" fill="none" xmlns="http://www.w3.org/2000/svg">
<g clip-path="url(#clip0_2615_439)">
<path fill-rule="evenodd" clip-rule="evenodd" d="M35.8653 23.024C35.9552 22.3074 36.0002 21.5861 36.0003 20.864C36.0003 17.039 35.5203 17.234 34.5003 17.594C33.6623 17.8881 32.8578 18.2703 32.1003 18.734C31.6236 19.0383 31.1676 19.3742 30.7353 19.739C30.2703 20.144 29.8353 20.564 29.3853 20.969C28.0653 20.744 26.7603 20.489 25.4253 20.294C24.7803 20.204 24.1203 20.144 23.4603 20.084H20.0403C18.9003 20.084 17.3853 20.384 16.0503 20.549C16.6158 20.1311 17.1521 19.6751 17.6553 19.184C18.028 18.7703 18.3692 18.3291 18.6753 17.864C20.7753 14.864 20.5203 15.869 20.5203 15.449C20.6253 14.564 20.7453 13.694 20.7903 12.794V11.654C20.7783 11.2822 20.7432 10.9114 20.6853 10.544C20.5653 9.65898 20.3553 8.81898 20.1903 7.93398C20.1945 7.81311 20.1513 7.69539 20.0702 7.60576C19.989 7.51615 19.8761 7.4617 19.7553 7.45398C19.6299 7.45893 19.5114 7.51276 19.4253 7.60398C19.3498 7.60075 19.2747 7.61383 19.2048 7.6423C19.1349 7.67077 19.0721 7.71399 19.0203 7.76898C18.4503 8.21898 17.8653 8.62398 17.2953 9.08898L16.6053 9.68898C16.3839 9.89775 16.1736 10.1181 15.9753 10.349C15.6753 10.694 15.4203 11.039 15.1653 11.384C13.6653 11.384 12.0753 11.249 10.5153 11.204H8.38531C7.66531 11.204 6.9753 11.204 6.2703 11.294C5.0103 11.384 3.78031 11.534 2.53532 11.684C2.59982 11.6127 2.65992 11.5376 2.7153 11.459C2.82503 11.3029 2.92042 11.1372 3.00031 10.964C3.18032 10.559 3.25531 10.154 3.40531 9.73398C3.45155 9.67309 3.48471 9.6033 3.50271 9.52899C3.52071 9.45468 3.52316 9.37744 3.50991 9.30215C3.49667 9.22685 3.468 9.1551 3.42571 9.09139C3.38343 9.02769 3.32844 8.97342 3.26419 8.93196C3.19993 8.89051 3.12782 8.86278 3.05235 8.85052C2.97689 8.83825 2.89969 8.8417 2.82562 8.86068C2.75155 8.87964 2.68221 8.9137 2.62193 8.96074C2.56164 9.00777 2.51172 9.06675 2.47532 9.13398C2.14532 9.44898 1.83032 9.71898 1.53032 10.049C1.39714 10.1762 1.2719 10.3114 1.15531 10.454C1.07645 10.579 1.00629 10.7093 0.945307 10.844C0.518672 11.9529 0.319718 13.1365 0.360308 14.324C0.255308 15.659 0.210308 17.009 0.150308 18.344C0.150308 18.704 0.000307609 19.364 0.000307609 19.919C-0.00742337 20.2737 0.058993 20.6264 0.195307 20.954C0.322555 21.1653 0.490874 21.3489 0.690307 21.494C0.423557 22.6164 0.262851 23.7615 0.210307 24.914C0.190453 25.7258 0.230562 26.538 0.330308 27.344C0.840307 32.084 -1.43969 31.844 6.60032 31.844C7.74031 31.844 8.88031 31.844 10.0053 31.694C11.7153 31.589 13.4103 31.379 15.1053 31.259H15.2853C16.8603 31.379 18.4203 31.589 20.0103 31.664H23.5653L27.8253 31.259C27.9549 31.2374 28.0728 31.1706 28.1577 31.0703C28.2428 30.9701 28.2894 30.8429 28.2894 30.7115C28.2894 30.5801 28.2428 30.4529 28.1577 30.3527C28.0728 30.2523 27.9549 30.1856 27.8253 30.164L23.5053 29.969C22.3353 29.969 21.1653 29.864 19.9953 29.879C18.8253 29.894 17.4153 30.014 16.1253 30.149C16.2453 29.249 16.3653 28.379 16.4253 27.479V24.869C16.3053 23.849 16.0803 22.859 15.8853 21.869L23.3853 22.109C30.8853 22.394 28.9653 21.719 28.9203 25.019C28.9184 25.6904 28.9533 26.3615 29.0253 27.029C29.1003 28.019 29.2353 28.994 29.2203 30.029C29.2137 30.0989 29.2137 30.1691 29.2203 30.239C29.2203 30.239 29.0853 30.389 29.0253 30.479C28.9354 30.5714 28.8852 30.6951 28.8852 30.824C28.8852 30.9528 28.9354 31.0766 29.0253 31.169C29.1193 31.2554 29.2425 31.3034 29.3703 31.3034C29.4981 31.3034 29.6213 31.2554 29.7153 31.169C30.4953 30.614 31.3053 30.134 32.0703 29.564C32.4003 29.324 32.7003 29.054 33.0153 28.784C33.3303 28.514 33.6003 28.229 33.8853 27.929C34.1703 27.629 34.4253 27.284 34.7103 26.969C35.8653 26.789 35.8503 23.234 35.8653 23.024ZM17.1753 11.669C17.4323 11.4847 17.6731 11.279 17.8953 11.054C18.1209 10.8334 18.3313 10.5978 18.5253 10.349C18.7353 10.094 18.9153 9.80898 19.1103 9.53898C19.1103 9.89898 19.0053 10.259 18.9903 10.619C18.9753 10.979 18.9903 11.369 18.9903 11.744C18.9903 12.119 18.9903 12.494 19.0953 12.869C19.0953 13.589 19.2903 14.369 19.3803 14.999H19.2603C18.6153 15.539 18.0003 16.064 17.4003 16.664C17.1603 16.904 16.9203 17.159 16.6953 17.429C16.5021 17.664 16.3218 17.9094 16.1553 18.164C16.1553 17.789 16.2753 17.414 16.3053 17.039C16.3281 16.6694 16.3281 16.2986 16.3053 15.929C16.3026 15.5628 16.2776 15.1971 16.2303 14.834C16.1253 14.024 15.9303 13.244 15.7653 12.449C16.2492 12.2149 16.7199 11.9545 17.1753 11.669ZM6.3003 13.064H8.4303C9.1503 13.064 9.84031 13.064 10.5603 12.959C15.7503 12.629 14.6853 11.954 14.4903 14.954V16.049C14.4903 16.409 14.4903 16.769 14.5653 17.129C14.6553 17.969 14.7903 18.794 14.8653 19.634C14.8639 19.7091 14.8779 19.7838 14.9062 19.8534C14.9346 19.923 14.9768 19.9862 15.0303 20.039V20.144C14.1153 20.144 13.1853 20.249 12.2553 20.279H4.6653C4.07088 20.3159 3.47474 20.3159 2.8803 20.279C2.6228 20.2571 2.36715 20.217 2.11531 20.159C2.02532 20.159 1.89031 20.159 1.87531 20.069V18.314C1.80031 16.979 1.69532 15.659 1.68032 14.324V12.824C3.18032 12.884 4.7253 13.019 6.3003 13.064ZM14.8953 30.119C13.2903 29.954 11.7003 29.954 10.0953 29.954H7.95031C7.30532 29.954 6.54031 29.954 5.82031 30.059C4.53031 30.164 3.25531 30.314 1.98031 30.449C1.98031 29.264 2.10032 28.079 2.08531 26.879C2.08531 26.099 2.08531 25.304 1.99531 24.524C1.90531 23.744 1.87531 22.859 1.83031 22.049C2.77135 22.2086 3.7277 22.259 4.6803 22.199C6.8553 22.034 9.0153 21.929 11.1753 21.749C12.3303 21.644 13.4853 21.509 14.6253 21.344C14.6931 22.4979 14.6931 23.655 14.6253 24.809V26.084C14.6253 26.504 14.6253 26.939 14.7003 27.374C14.7003 28.304 14.8953 29.204 14.9703 30.134L14.8953 30.119ZM32.7153 26.459C32.1879 26.8506 31.6869 27.2766 31.2153 27.734C30.9603 27.989 30.7503 28.274 30.5253 28.544C30.6003 27.989 30.7353 27.449 30.7653 26.894C30.7953 26.339 30.7653 26.024 30.7653 25.589C30.7527 25.1675 30.7176 24.7469 30.6603 24.329C30.5553 23.504 30.4053 22.694 30.2853 21.884C30.8796 21.6506 31.452 21.3644 31.9953 21.029C32.4599 20.7155 32.9057 20.3748 33.3303 20.009L34.2903 19.214L34.1553 20.354C34.1553 20.804 34.1553 21.239 34.0653 21.689C33.9753 22.139 34.0653 22.574 34.0653 23.024C34.0653 23.789 34.0653 24.524 34.1853 25.319C33.7353 25.694 33.2103 26.069 32.7153 26.459Z" fill="#2B2A29"/>
<path fill-rule="evenodd" clip-rule="evenodd" d="M21.1353 18.9439C21.796 19.0518 22.4724 19.0107 23.1153 18.8239C24.3303 18.3739 23.8353 17.3239 22.7403 17.1139C22.0479 16.9579 21.3231 17.0425 20.6853 17.3539C19.5003 17.9539 20.2053 18.6889 21.1353 18.9439Z" fill="#00A3E2"/>
<path fill-rule="evenodd" clip-rule="evenodd" d="M5.4303 8.63895C6.09144 8.7377 6.76593 8.69681 7.4103 8.51895C8.6253 8.06895 8.1303 7.01895 7.0353 6.79395C6.34258 6.64494 5.62005 6.72933 4.9803 7.03395C3.7953 7.61895 4.5003 8.38395 5.4303 8.63895Z" fill="#00A3E2"/>
<path fill-rule="evenodd" clip-rule="evenodd" d="M24.2398 16.3188C24.9006 16.4265 25.5771 16.3856 26.2198 16.1988C27.4198 15.7488 26.9398 14.6988 25.8298 14.4888C25.1421 14.3409 24.4246 14.4253 23.7898 14.7288C22.5898 15.3138 23.3098 16.0788 24.2398 16.3188Z" fill="#00A3E2"/>
<path fill-rule="evenodd" clip-rule="evenodd" d="M8.5353 5.95398C9.18325 6.08993 9.85236 6.08993 10.5003 5.95398C11.7003 5.50398 11.2203 4.45398 10.1103 4.22898C9.42889 4.07985 8.71735 4.15892 8.0853 4.45398C6.8853 4.99398 7.6053 5.75898 8.5353 5.95398Z" fill="#00A3E2"/>
<path fill-rule="evenodd" clip-rule="evenodd" d="M27.5848 18.9438C28.2456 19.0515 28.9219 19.0106 29.5648 18.8238C30.7648 18.3738 30.2848 17.3238 29.1898 17.1138C28.4974 16.9577 27.7726 17.0424 27.1348 17.3538C25.9498 17.9538 26.6548 18.6888 27.5848 18.9438Z" fill="#00A3E2"/>
<path fill-rule="evenodd" clip-rule="evenodd" d="M11.8803 8.63893C12.5414 8.73768 13.2159 8.69681 13.8603 8.51894C15.0603 8.06894 14.5803 7.01893 13.4703 6.79393C12.7825 6.64606 12.065 6.73047 11.4303 7.03393C10.2453 7.61893 10.9503 8.38393 11.8803 8.63893Z" fill="#00A3E2"/>
<path fill-rule="evenodd" clip-rule="evenodd" d="M30.6898 16.3188C31.3504 16.4265 32.0269 16.3855 32.6698 16.1988C33.8698 15.7488 33.3748 14.6988 32.2798 14.4888C31.587 14.342 30.8652 14.4263 30.2248 14.7288C29.0398 15.3138 29.7598 16.0788 30.6898 16.3188Z" fill="#00A3E2"/>
<path fill-rule="evenodd" clip-rule="evenodd" d="M15.0003 5.95398C15.6483 6.08991 16.3173 6.08991 16.9653 5.95398C18.1653 5.50398 17.6853 4.45398 16.5753 4.22898C15.8841 4.07757 15.1623 4.15659 14.5203 4.45398C13.3353 4.99398 14.0553 5.75898 15.0003 5.95398Z" fill="#00A3E2"/>
</g>
<defs>
<clipPath id="clip0_2615_439">
<rect width="36" height="36" fill="white"/>
</clipPath>
</defs>
</svg>
