<svg width="36" height="36" viewBox="0 0 36 36" fill="none" xmlns="http://www.w3.org/2000/svg">
<g clip-path="url(#clip0_2615_420)">
<path d="M26.3538 29.5491C24.8748 28.0744 23.8894 26.1772 23.5338 24.1191C23.1136 20.5605 22.9932 16.9728 23.1738 13.394C23.1543 13.2869 23.0979 13.19 23.0143 13.1202C22.9306 13.0504 22.8252 13.0122 22.7163 13.0122C22.6074 13.0122 22.5019 13.0504 22.4184 13.1202C22.3348 13.19 22.2783 13.2869 22.2588 13.394C21.9663 17.0482 21.9663 20.7199 22.2588 24.3741C22.4377 25.4353 22.7242 26.4757 23.1138 27.4791C23.5819 28.3885 24.1558 29.2395 24.8238 30.0141C22.1238 31.5141 13.3788 30.8541 10.6488 30.7191C8.24883 30.5991 7.48383 31.0641 7.06383 29.2191C6.45471 24.8923 6.28383 20.5152 6.55383 16.1541C6.81027 14.5072 6.88572 12.8373 6.77883 11.174C6.67383 10.379 5.89383 10.754 5.95383 11.354C5.43341 14.6499 5.14271 17.9779 5.08383 21.3141C5.0496 24.2439 5.23512 27.172 5.63883 30.0741C5.75219 30.6327 6.03218 31.1439 6.44187 31.5402C6.85157 31.9365 7.37175 32.1993 7.93383 32.2941C8.78238 32.4264 9.64004 32.4916 10.4988 32.4891C14.1544 32.8323 17.8324 32.8674 21.4938 32.5941C23.7438 32.3241 27.6138 31.3641 26.3538 29.5491Z" fill="#2B2A29"/>
<path d="M8.42886 11.1591C10.9939 11.1591 21.6288 11.6091 23.8788 11.1591C24.1488 11.1027 24.398 10.9729 24.5988 10.7841C25.1478 10.107 25.5289 9.30974 25.7113 8.45738C25.8939 7.60502 25.8724 6.72163 25.6488 5.87912C24.8388 3.20912 22.3338 3.22412 19.4988 3.22412C16.6638 3.22412 13.7689 3.46412 11.7739 3.37412C9.77886 3.28412 6.94386 3.37412 6.82386 3.37412C4.61886 3.13412 2.09886 4.66412 1.10885 8.78912C0.546408 12.2653 0.185805 15.7711 0.0288531 19.2891C-0.0568177 22.957 0.0483241 26.6271 0.343852 30.2841C0.392899 30.4014 0.482833 30.4969 0.596959 30.5529C0.711084 30.6088 0.84165 30.6216 0.964418 30.5886C1.08719 30.5556 1.19382 30.4792 1.26452 30.3735C1.33522 30.2679 1.36518 30.1402 1.34885 30.0141C1.16545 25.0998 1.38116 20.1786 1.99386 15.2991C2.41386 12.2991 2.33886 7.99412 4.36386 5.84912C4.63065 5.48431 4.98615 5.19364 5.3967 5.00464C5.80725 4.81565 6.25924 4.73459 6.70988 4.76914C7.16052 4.80368 7.59487 4.95269 7.97181 5.20207C8.34875 5.45143 8.6558 5.7929 8.86386 6.19412C9.08322 6.83441 9.10767 7.52539 8.9341 8.1796C8.76056 8.83379 8.39678 9.42178 7.88886 9.86912C7.67886 10.0041 7.34886 11.1441 8.42886 11.1591ZM9.92886 5.59412C9.26886 4.37912 8.78886 4.36412 8.99886 4.36412C10.0339 4.36412 11.0389 4.48412 11.6089 4.54412C14.4289 4.82912 20.0088 4.63412 22.5588 5.12912C22.9699 5.19844 23.3442 5.40833 23.6178 5.72293C23.8914 6.03754 24.0472 6.43736 24.0588 6.85412C24.3888 10.0941 22.7838 9.55412 22.2588 9.61412C18.9738 9.95912 12.2239 10.1241 8.92386 10.1991C9.51357 9.6076 9.9205 8.8588 10.0961 8.0422C10.2716 7.2256 10.2084 6.37573 9.91386 5.59412H9.92886Z" fill="#2B2A29"/>
<path d="M12.8088 14.3691C12.1811 14.8826 11.6305 15.4838 11.1738 16.1541C10.2138 17.5341 10.2888 17.9091 9.82383 17.6541C9.75341 17.5959 9.67188 17.5526 9.58422 17.5268C9.49656 17.501 9.40457 17.4933 9.31383 17.5041C8.29383 17.9241 9.88383 19.6941 11.0538 19.0041C12.7938 17.6391 12.7488 16.1841 13.4988 15.0891C13.5642 14.9925 13.5945 14.8764 13.5847 14.7602C13.5748 14.6439 13.5254 14.5346 13.4447 14.4503C13.364 14.3661 13.2569 14.3121 13.1411 14.2973C13.0254 14.2825 12.9081 14.3079 12.8088 14.3691Z" fill="#00A3E2"/>
<path d="M16.1388 18.6891C17.1424 18.6625 18.1438 18.5824 19.1388 18.4491C19.2741 18.4491 19.4038 18.3954 19.4994 18.2997C19.5951 18.204 19.6488 18.0744 19.6488 17.9391C19.8738 16.5291 13.9338 16.9341 13.8438 17.6841C13.7538 18.4341 15.8988 18.6591 16.1388 18.6891Z" fill="#2B2A29"/>
<path d="M12.2988 21.7641C11.4138 23.1141 10.9938 23.4591 10.0938 24.9591C9.95958 24.9345 9.82868 24.8943 9.70383 24.8391C9.68004 24.783 9.64512 24.7325 9.60119 24.6903C9.55727 24.6482 9.50523 24.6153 9.44826 24.5939C9.39129 24.5724 9.33056 24.5627 9.26973 24.5654C9.20891 24.5681 9.14927 24.5831 9.09441 24.6095C9.03956 24.636 8.99064 24.6732 8.95061 24.7191C8.91057 24.765 8.88026 24.8184 8.86151 24.8763C8.84276 24.9344 8.83595 24.9954 8.84151 25.056C8.84706 25.1166 8.86487 25.1756 8.89383 25.2291C9.08784 25.661 9.38694 26.0375 9.76383 26.3241C11.2638 27.3741 12.6738 23.8941 13.2288 22.2141C13.2885 22.0908 13.2968 21.9488 13.2517 21.8193C13.2067 21.69 13.1122 21.5838 12.9888 21.5241C12.8655 21.4644 12.7235 21.4562 12.5941 21.5012C12.4647 21.5462 12.3585 21.6408 12.2988 21.7641Z" fill="#00A3E2"/>
<path d="M19.4988 25.5141C19.5916 25.4142 19.6432 25.283 19.6432 25.1466C19.6432 25.0103 19.5916 24.879 19.4988 24.7791C19.1838 24.3291 17.5638 24.1941 17.2038 24.2091C16.1196 24.278 15.0472 24.4743 14.0089 24.7941C13.8439 25.0191 13.7689 25.1991 13.9189 25.3641C14.0689 25.5291 13.7239 25.4541 15.9288 25.9491C17.1283 25.8974 18.322 25.752 19.4988 25.5141Z" fill="#2B2A29"/>
<path d="M35.7888 4.82919C34.9038 2.15919 31.3788 3.52419 30.3738 4.97919C30.192 5.25005 30.093 5.56799 30.0888 5.89419C27.6438 6.22419 27.5838 9.92919 27.5388 12.2242C27.6438 15.5392 27.5388 16.4692 28.1838 16.4092C28.8288 16.3492 28.6638 15.8092 29.1288 12.3142C29.5938 8.81919 29.2788 7.81419 30.1038 6.97419C30.2238 6.97419 30.1038 13.5892 30.3888 14.2492C29.9838 15.8392 29.7138 23.8192 29.6088 25.9942C29.509 26.7298 29.4789 27.473 29.5188 28.2142C29.8582 29.5043 30.6657 30.6218 31.7838 31.3492C32.7138 31.8142 33.2838 30.9292 33.5988 30.2842C34.4323 29.285 34.87 28.0147 34.8288 26.7142C34.8288 23.2042 34.7388 25.7392 35.1288 13.9942C35.436 13.1256 35.608 12.215 35.6388 11.2942C35.8338 9.32919 36.2538 6.20919 35.7888 4.82919ZM31.6938 6.01419C32.0862 5.63033 32.5723 5.35619 33.1038 5.21919C33.9138 5.06919 33.9438 4.99419 34.0938 5.30919C34.2091 5.58032 34.2753 5.86986 34.2888 6.16419C34.3449 8.5821 34.2598 11.0012 34.0338 13.4092C33.8988 13.4092 33.6438 13.5292 33.5538 13.5292H31.3038C31.1988 12.6592 31.1688 14.6542 31.6938 6.01419ZM32.1138 29.4742C31.7082 29.0458 31.401 28.5338 31.2138 27.9742C31.3338 24.0442 30.9438 17.8792 31.2138 14.6392C32.1358 14.7293 33.0628 14.7594 33.9888 14.7292L33.2838 24.0142C33.1338 28.1242 33.2988 27.5992 32.1138 29.4142V29.4742Z" fill="#2B2A29"/>
</g>
<defs>
<clipPath id="clip0_2615_420">
<rect width="36" height="36" fill="white"/>
</clipPath>
</defs>
</svg>
