<svg width="36" height="36" viewBox="0 0 36 36" fill="none" xmlns="http://www.w3.org/2000/svg">
<g clip-path="url(#clip0_2615_427)">
<path d="M20.8867 5.4615C21.2238 5.62803 21.5832 5.74448 21.9538 5.80718C24.1782 6.27308 23.1111 6.40835 25.5459 6.15285C26.2288 6.12381 26.8789 5.85201 27.3795 5.38635C27.7567 4.96341 28.0069 4.44238 28.1008 3.88341C28.2051 3.196 28.2051 2.49678 28.1008 1.80936C28.0957 1.45633 28.0605 1.10438 27.9957 0.757314C27.9513 0.638514 27.8811 0.531049 27.79 0.442681C27.6991 0.354313 27.5896 0.287244 27.4696 0.246317C26.7747 0.0576194 26.055 -0.0234781 25.3354 0.00584788C23.8326 0.00584788 22.2544 0.426669 20.8266 0.366552C20.7622 0.360379 20.6973 0.367257 20.6356 0.386775C20.574 0.406291 20.5168 0.438046 20.4678 0.480139C20.4186 0.522232 20.3785 0.573799 20.3499 0.631754C20.3211 0.689709 20.3044 0.75286 20.3007 0.817431C20.2941 0.847137 20.2941 0.877902 20.3007 0.907608C20.1195 1.73618 19.984 2.57407 19.8948 3.41751C19.8643 3.87951 19.9576 4.34128 20.1654 4.75512C20.3343 5.05395 20.5845 5.29884 20.8867 5.4615ZM21.1723 1.37352C22.4649 1.46369 23.9527 1.28334 25.3204 1.37352C25.7149 1.39701 26.107 1.4523 26.4927 1.53884C26.5359 2.13422 26.5359 2.73195 26.4927 3.32733C26.4613 3.67976 26.3253 4.01474 26.1019 4.28921C25.8765 4.5447 25.3806 4.57476 24.8695 4.60482C23.9718 4.64182 23.0725 4.61167 22.1793 4.51464C21.9667 4.49423 21.7558 4.45908 21.5481 4.40944C21.4231 4.38357 21.3114 4.31436 21.2325 4.21406C21.0651 3.87939 21.0174 3.49752 21.0972 3.13195C21.0865 2.54482 21.1117 1.95761 21.1723 1.37352Z" fill="#00A3E2"/>
<path d="M35.5254 15.9821C35.1796 15.5612 34.4883 15.0353 34.293 14.8098L29.9494 10.827C29.8695 10.7595 29.768 10.723 29.6634 10.7242C29.5587 10.7253 29.458 10.7641 29.3796 10.8334C29.3013 10.9027 29.2504 10.9978 29.2363 11.1015C29.2224 11.2052 29.2461 11.3105 29.3032 11.3981L33.0906 15.9069L33.4664 16.1925C32.8352 16.0722 32.2039 15.9821 31.5576 15.9219C30.9114 15.8618 30.6558 15.8468 30.205 15.8468H28.8524C28.0088 15.9597 27.1749 16.1355 26.3574 16.3728C26.3574 16.2677 26.3574 16.1624 26.2824 16.0572C26.1283 15.5877 25.8678 15.1602 25.521 14.8082C25.1742 14.4562 24.7506 14.1892 24.2835 14.0282C24.3737 13.1415 24.4638 12.2548 24.524 11.368V8.64773C24.524 8.19686 24.4488 7.94135 24.4037 7.59567C24.0429 6.55865 23.1712 6.70895 23.0509 7.59567C23.0509 7.94135 22.9758 8.28702 22.9458 8.64773C22.9158 9.00843 22.9458 9.5495 22.9458 10.0004V11.368C22.9458 12.2247 23.0961 13.0814 23.1712 13.9381C22.5532 14.0043 21.9681 14.2498 21.4879 14.6444C20.9925 15.0791 20.6676 15.6758 20.5711 16.3277C19.6906 16.1723 18.8028 16.0619 17.9111 15.9971H16.5434C16.0862 16.0041 15.6297 16.0343 15.1756 16.0872C14.304 16.1774 13.4473 16.3428 12.5906 16.5081C12.5626 16.376 12.5275 16.2456 12.4854 16.1174C12.3173 15.5136 11.9647 14.9776 11.4769 14.5842C10.9892 14.1907 10.3907 13.9596 9.76509 13.923C9.03446 13.9478 8.33217 14.2118 7.76619 14.6745C7.27793 15.0962 6.95341 15.6761 6.8494 16.3127C6.26326 16.3127 5.67711 16.1624 5.07594 16.1174H3.04698C2.2354 16.2225 1.54405 16.4028 0.672351 16.5681C0.60939 16.5564 0.544593 16.5585 0.482571 16.5746C0.42055 16.5906 0.362829 16.6202 0.313518 16.6611C0.264207 16.7019 0.224518 16.7532 0.197278 16.8113C0.170037 16.8692 0.155914 16.9325 0.155914 16.9965C0.155914 17.0606 0.170037 17.1239 0.197278 17.1819C0.224518 17.2398 0.264207 17.2911 0.313518 17.3321C0.362829 17.3729 0.42055 17.4024 0.482571 17.4185C0.544593 17.4345 0.60939 17.4368 0.672351 17.4249C1.4689 17.5001 2.17528 17.6352 3.03195 17.6954C3.36723 17.7179 3.70365 17.7179 4.03891 17.6954H5.04588C5.6621 17.6954 6.2783 17.5451 6.87947 17.4549C7.01111 17.9127 7.27825 18.32 7.64577 18.6231C8.01329 18.9263 8.46395 19.1111 8.93849 19.1532C8.93019 19.1879 8.93019 19.2239 8.93849 19.2584C8.78407 20.2224 8.71368 21.198 8.72806 22.1741C8.74327 22.7322 8.78842 23.2892 8.86333 23.8424V24.2031C9.32925 25.4655 9.82521 25.4505 10.3663 24.2031V23.4816C10.361 22.9025 10.3108 22.3247 10.216 21.7533C10.0807 20.8967 9.84024 20.085 9.72 19.2434C9.80252 19.2191 9.87555 19.1699 9.92929 19.1027C9.98304 19.0356 10.0149 18.9536 10.0206 18.8676C10.0247 18.8105 10.0174 18.7529 9.99921 18.6984C9.981 18.644 9.95222 18.5937 9.91452 18.5504C9.87681 18.5072 9.83093 18.4716 9.77949 18.4461C9.72806 18.4206 9.67209 18.4056 9.61481 18.4017C8.50263 18.2514 8.11187 17.5601 8.11187 16.8989C8.15514 16.6941 8.24804 16.5032 8.38239 16.3428C8.541 16.1361 8.74618 15.9698 8.98125 15.8574C9.21632 15.7452 9.4746 15.69 9.73503 15.6965C10.0457 15.6977 10.3484 15.7952 10.6014 15.9755C10.8544 16.1559 11.0453 16.4102 11.1478 16.7034C11.4183 17.3196 11.4784 18.0561 10.8171 18.3717C10.7017 18.4256 10.6114 18.5219 10.565 18.6407C10.5187 18.7593 10.5198 18.8913 10.5681 19.0092C10.6164 19.1271 10.7083 19.2219 10.8246 19.2738C10.9409 19.3259 11.0728 19.3311 11.1929 19.2885C11.56 19.1691 11.884 18.9446 12.1245 18.6426C12.365 18.3407 12.5114 17.9747 12.5455 17.5902C13.5675 17.5902 14.5595 17.7405 15.5514 17.7555H17.6856C18.6474 17.7555 19.5792 17.6352 20.5261 17.6052C20.7072 18.1692 21.0798 18.6521 21.5791 18.9704C22.0786 19.2888 22.6737 19.4226 23.2614 19.3487C23.3179 19.3527 23.3746 19.3454 23.4282 19.3269C23.4818 19.3086 23.5311 19.2795 23.5732 19.2417C23.6154 19.2038 23.6493 19.1577 23.6733 19.1064C23.6971 19.0551 23.7105 18.9995 23.7123 18.9428C23.7163 18.8856 23.7092 18.828 23.691 18.7736C23.6727 18.7191 23.6439 18.6689 23.6063 18.6255C23.5686 18.5823 23.5227 18.5468 23.4713 18.5213C23.4198 18.4958 23.3638 18.4808 23.3065 18.4769C22.1943 18.3266 21.7284 17.6352 21.8036 16.974C21.8542 16.7718 21.9464 16.5825 22.0742 16.418C22.2344 16.2129 22.4398 16.0481 22.6744 15.9359C22.9092 15.8238 23.1667 15.7676 23.4267 15.7716C23.7375 15.7728 24.0401 15.8703 24.2931 16.0506C24.5462 16.2311 24.7369 16.4853 24.8396 16.7786C25.125 17.3948 25.1702 18.1313 24.5088 18.4469C24.3902 18.4997 24.2969 18.5969 24.249 18.7178C24.2013 18.8387 24.2028 18.9734 24.2533 19.0931C24.3063 19.212 24.4028 19.3062 24.5229 19.3566C24.6429 19.4069 24.7778 19.4094 24.8997 19.3637C25.2757 19.2404 25.6059 19.0068 25.8472 18.693C26.0884 18.3794 26.2296 18.0003 26.2523 17.6052H33.6017C33.2709 18.0561 32.9253 18.522 32.5495 18.9579C32.1954 19.3971 31.8085 19.8092 31.3923 20.1903C31.1066 20.4504 30.7998 20.6865 30.4755 20.8967C29.9796 21.2423 29.4536 21.5429 28.9727 21.8585C28.8606 21.9219 28.7776 22.0263 28.7412 22.1496C28.7048 22.2731 28.7177 22.4058 28.7772 22.5198C28.8071 22.5767 28.8482 22.6271 28.8978 22.6677C28.9476 22.7085 29.0049 22.739 29.0665 22.7571C29.1282 22.7754 29.1929 22.781 29.2568 22.7738C29.3207 22.7666 29.3825 22.7466 29.4386 22.7151C30.0096 22.4447 30.5807 22.1892 31.1217 21.8886C31.5144 21.687 31.8914 21.4559 32.249 21.1973C32.7812 20.826 33.2836 20.414 33.7519 19.9649C34.2029 19.529 34.6086 19.0481 35.0144 18.5822C35.2467 18.3098 35.4626 18.0237 35.6607 17.7255C35.7945 17.5097 35.8575 17.2574 35.841 17.004C35.8647 16.6362 35.7523 16.2725 35.5254 15.9821Z" fill="#2B2A29"/>
<path d="M14.4693 26.7129C13.7527 26.2404 12.9332 25.9466 12.0796 25.8563C9.83598 25.7012 7.58312 25.7414 5.34647 25.9766C4.59137 26.018 3.83889 26.0982 3.09206 26.217C3.02891 26.2259 2.96811 26.2472 2.91317 26.2796C2.85821 26.3118 2.81017 26.3547 2.77179 26.4057C2.69428 26.5086 2.66082 26.6381 2.67876 26.7656C2.69668 26.8931 2.76456 27.0083 2.86744 27.0858C2.97031 27.1634 3.09976 27.1968 3.22732 27.1788C3.96376 27.0587 4.67014 27.0587 5.39155 27.0587H8.71303C9.76848 27.0099 10.8261 27.0704 11.8692 27.239C12.4856 27.3264 13.0726 27.5582 13.5825 27.9153C13.9256 28.3266 14.1637 28.815 14.2763 29.3385C14.3889 29.8622 14.3726 30.4053 14.2288 30.9212C14.1411 32.0796 13.6766 33.1776 12.9062 34.0473C12.5755 34.2767 12.1815 34.3976 11.779 34.3929C10.958 34.4376 10.1352 34.4376 9.31421 34.3929L6.83436 34.3028C5.33144 34.2276 4.50482 33.9572 4.03892 33.356C3.28745 32.349 3.573 30.6957 3.7834 28.4864C3.79962 28.4262 3.80269 28.3632 3.79243 28.3016C3.78219 28.2401 3.75883 28.1814 3.72397 28.1297C3.6891 28.0779 3.64353 28.0343 3.59034 28.0017C3.53715 27.969 3.47757 27.9483 3.41564 27.9407C3.35372 27.933 3.29086 27.9389 3.23137 27.9576C3.17187 27.9764 3.11709 28.0077 3.07074 28.0494C3.02439 28.0913 2.98755 28.1424 2.96269 28.1997C2.93785 28.257 2.9256 28.3188 2.92674 28.3812C2.53597 30.9212 2.28048 32.8149 3.09206 34.0323C3.53877 34.5563 4.09409 34.9769 4.71951 35.265C5.34495 35.553 6.02555 35.7017 6.71414 35.7005L9.28415 35.9259C10.3238 36.0248 11.3706 36.0248 12.4102 35.9259C12.959 35.8361 13.4761 35.6085 13.9132 35.2647C15.1654 33.8705 15.8516 32.0588 15.837 30.1848C15.8901 29.54 15.7944 28.8915 15.5574 28.2896C15.3202 27.6876 14.9479 27.1482 14.4693 26.7129Z" fill="#00A3E2"/>
</g>
<defs>
<clipPath id="clip0_2615_427">
<rect width="36" height="36" fill="white"/>
</clipPath>
</defs>
</svg>
