<svg width="36" height="36" viewBox="0 0 36 36" fill="none" xmlns="http://www.w3.org/2000/svg">
<g clip-path="url(#clip0_2615_425)">
<path fill-rule="evenodd" clip-rule="evenodd" d="M13.2904 20.6019C14.1609 19.6865 15.0164 18.8159 15.8118 18.1256C16.4193 18.2889 17.0441 18.3797 17.6729 18.3957C17.7302 18.3998 17.7876 18.3926 17.8419 18.3743C17.8964 18.3561 17.9465 18.3275 17.9898 18.2898C18.033 18.252 18.0684 18.2063 18.0939 18.155C18.1193 18.1035 18.1344 18.0477 18.1382 17.9904C18.1422 17.934 18.1349 17.8773 18.1166 17.8239C18.0983 17.7704 18.0693 17.7212 18.0314 17.679C17.9936 17.637 17.9477 17.6031 17.8964 17.5791C17.8451 17.5553 17.7896 17.5421 17.733 17.5401C14.356 17.225 12.7801 15.1388 12.7351 12.9475C13.2013 13.1938 13.7111 13.3468 14.2359 13.3978C14.4797 13.4353 14.7277 13.4353 14.9714 13.3978C15.219 13.3648 15.4613 13.2992 15.6918 13.2027C16.2723 12.9913 16.7891 12.6348 17.1927 12.1671C17.1927 12.1671 17.1927 12.047 17.2827 11.987C17.4696 12.1067 17.6652 12.212 17.868 12.3022C18.3855 12.5446 18.9296 12.726 19.4889 12.8425C20.5536 13.0408 21.6432 13.0662 22.7159 12.9175C22.844 14.0558 22.5335 15.2001 21.8475 16.1175C21.1616 17.0349 20.1518 17.6564 19.0238 17.8554C18.8949 17.8704 18.777 17.9355 18.6957 18.0366C18.6143 18.1376 18.5757 18.2666 18.5885 18.3957C18.6072 18.5258 18.6753 18.6437 18.7788 18.7247C18.8822 18.8058 19.013 18.8439 19.1438 18.8309C19.8735 18.758 20.582 18.5439 21.23 18.2006C21.7485 18.7577 22.2156 19.3605 22.6257 20.0016C22.8659 20.3618 23.091 20.7221 23.3162 21.0972C23.5413 21.4724 23.7365 21.8477 23.9315 22.2378C24.1646 22.6851 24.3701 23.1462 24.5469 23.6187C24.8621 24.159 25.6275 24.264 25.9427 23.3186C25.8227 22.328 25.6725 22.508 25.3724 21.6375C25.2072 21.1653 25.0014 20.7083 24.7569 20.2718C24.5169 19.8282 24.2247 19.4151 23.8865 19.041C23.3646 18.471 22.7748 17.967 22.1304 17.5401C22.8269 16.8668 23.3616 16.0442 23.6943 15.1343C24.0272 14.2245 24.1493 13.251 24.0516 12.2872C24.0516 10.695 23.4191 9.16797 22.2932 8.0421C21.1674 6.91624 19.6404 6.28374 18.0482 6.28374C16.3406 6.21433 14.6748 6.82186 13.4128 7.97421C12.1509 9.12654 11.3949 10.7305 11.3093 12.4373C11.2647 13.5555 11.5609 14.6608 12.1586 15.6069C12.7563 16.553 13.6273 17.2952 14.6562 17.7353C13.7784 18.2489 12.9495 18.8417 12.1798 19.5063C11.4953 20.099 10.899 20.7863 10.4088 21.5475C9.9257 22.2483 9.6738 23.0828 9.68834 23.9339C9.68834 24.6393 10.5588 25.0295 10.6789 24.4592C10.799 23.4236 11.1142 23.3336 11.7445 22.463C12.2249 21.8145 12.741 21.1932 13.2904 20.6019ZM18.0482 8.00973C19.1312 7.96212 20.1929 8.32036 21.0257 9.01434C21.8585 9.70831 22.4022 10.6881 22.5507 11.7619C21.6339 11.7243 20.7258 11.5678 19.8492 11.2966C19.4019 11.1528 18.9656 10.9772 18.5435 10.7713C18.1271 10.5705 17.7258 10.3398 17.3427 10.0809C16.6958 9.66348 16.1099 9.15838 15.6018 8.58004C16.3706 8.22735 17.2026 8.03337 18.0482 8.00973ZM14.6112 9.12036C15.0318 9.96894 15.6188 10.7243 16.3371 11.3416L16.4123 11.4167C16.2158 11.5033 16.0089 11.5638 15.7968 11.5968C15.552 11.6123 15.3063 11.6123 15.0614 11.5968L14.326 11.7018C13.835 11.8345 13.3324 11.9199 12.8251 11.957C13.0487 10.8229 13.6851 9.81214 14.6112 9.12036Z" fill="#2B2A29"/>
<path fill-rule="evenodd" clip-rule="evenodd" d="M23.5863 26.5154C23.6303 26.4458 23.6537 26.365 23.6537 26.2827C23.6537 26.2003 23.6303 26.1196 23.5863 26.0501C23.2262 25.4648 22.3856 26.2602 21.4401 26.4853C20.5959 26.6781 19.7378 26.8036 18.8736 26.8605C16.6652 27.0536 14.4404 26.8035 12.3299 26.125C11.2637 25.8024 10.2519 25.3218 9.32814 24.6993C8.43852 24.1256 7.63503 23.428 6.94178 22.6281C5.70461 21.0948 4.88681 19.2666 4.56846 17.3223C4.25013 15.378 4.44215 13.3845 5.12573 11.5367C5.71233 9.65997 6.68966 7.92869 7.99343 6.45677C9.2972 4.98486 10.8978 3.8057 12.6901 2.99683C13.7912 2.52544 14.9379 2.16837 16.112 1.93122C17.2386 1.67576 18.3978 1.59477 19.5491 1.69108C22.6952 2.12366 25.5488 3.76581 27.5036 6.26871C29.5064 8.77975 30.5966 11.8968 30.5954 15.1088C30.5786 16.353 30.4224 17.5914 30.1301 18.8008C29.855 20.0044 29.3448 21.1418 28.6292 22.1478C27.9485 22.9272 27.2057 23.6499 26.408 24.309C25.7333 24.6747 25.0907 25.0963 24.4868 25.5697C24.4437 25.654 24.4248 25.7487 24.4325 25.8432C24.4401 25.9376 24.4739 26.028 24.5298 26.1043C24.5859 26.1807 24.6621 26.2398 24.75 26.2754C24.8378 26.3108 24.9338 26.3211 25.0272 26.3052C26.7426 25.4393 28.2722 24.2462 29.5298 22.7931C30.3567 21.6986 30.9402 20.4398 31.2407 19.101C31.5924 17.803 31.7889 16.4681 31.826 15.1237C31.9073 11.6042 30.773 8.16416 28.6142 5.3832C26.4906 2.52503 23.3244 0.620951 19.8042 0.0851631C18.468 -0.0691863 17.1158 -0.0134808 15.7968 0.250257C14.511 0.510581 13.2542 0.897693 12.0447 1.40592C10.0265 2.31434 8.22734 3.6463 6.76935 5.31145C5.31138 6.9766 4.22873 8.93593 3.59486 11.0565C2.87468 13.1601 2.72162 15.4165 3.1511 17.5982C3.58059 19.7799 4.57745 21.8098 6.04125 23.4835C7.72332 25.1808 9.77931 26.4606 12.0447 27.2206C14.3264 27.8088 16.6902 28.0118 19.0388 27.8211C19.9491 27.7374 20.852 27.5868 21.7403 27.3708C22.3763 27.1325 22.9934 26.8464 23.5863 26.5154Z" fill="#00A3E2"/>
<path fill-rule="evenodd" clip-rule="evenodd" d="M33.0567 31.6332C32.8991 30.8953 32.5584 30.2089 32.0661 29.637C31.4508 28.9017 30.6404 28.3162 29.9499 27.6409C29.2596 26.9655 28.8393 26.5002 28.269 25.9599C28.1025 25.7988 27.9216 25.653 27.7287 25.5247C27.6449 25.4353 27.5325 25.3782 27.4109 25.3629C27.2894 25.3476 27.1664 25.3753 27.063 25.4412C26.9598 25.5072 26.8829 25.6071 26.8454 25.7236C26.808 25.8403 26.8125 25.9663 26.8581 26.08C27.0987 26.2681 27.3155 26.4847 27.5036 26.7253C28.0289 27.2956 28.5242 27.9261 29.0045 28.4964C29.4846 29.0667 30.3402 29.7871 30.8955 30.5226C31.2009 30.9277 31.4021 31.402 31.4808 31.9033C31.5048 32.3374 31.3937 32.7684 31.1625 33.1368C30.9312 33.505 30.5915 33.7924 30.1901 33.9595C29.8254 34.212 29.3972 34.357 28.9541 34.3782C28.511 34.3995 28.0709 34.296 27.6837 34.0795C27.3584 33.8319 27.0702 33.5386 26.8281 33.2091C26.4258 32.6142 26.0648 31.9924 25.7475 31.348C25.2072 30.3274 24.6669 29.3068 24.2466 28.2412C24.0216 27.7309 24.0816 27.8961 23.8715 27.3708C23.6613 26.8455 22.8809 27.3708 23.046 27.7609C23.2712 28.4664 23.2262 28.4964 23.4812 29.1868C23.8265 30.1173 24.2016 31.0329 24.6069 31.9483C24.8981 32.6715 25.239 33.3736 25.6275 34.0495C25.9346 34.5525 26.3253 34.9993 26.7831 35.3703C27.4208 35.7814 28.1633 36 28.9218 36C29.6805 36 30.423 35.7814 31.0605 35.3703C31.7411 35.0328 32.2991 34.4913 32.657 33.8214C33.0149 33.1513 33.1545 32.3865 33.0567 31.6332Z" fill="#2B2A29"/>
<path fill-rule="evenodd" clip-rule="evenodd" d="M18.4383 20.2418C18.4425 20.184 18.4347 20.1261 18.4154 20.0717C18.3962 20.0172 18.3659 19.9673 18.3264 19.925C18.287 19.8827 18.2393 19.8491 18.1862 19.8261C18.1332 19.8032 18.0759 19.7913 18.0182 19.7915C17.961 19.7895 17.904 19.7988 17.8503 19.8188C17.7968 19.8389 17.7477 19.8692 17.7059 19.9083C17.664 19.9473 17.6304 19.9941 17.6067 20.0463C17.583 20.0984 17.5698 20.1545 17.5679 20.2118C17.4329 20.7521 17.2677 21.2624 17.1777 21.8327C17.1066 22.2902 17.1066 22.7559 17.1777 23.2134C17.2527 23.7687 17.3727 24.294 17.4929 24.8343C17.4929 24.9657 17.5451 25.0917 17.6379 25.1846C17.7308 25.2774 17.8568 25.3296 17.9882 25.3296C18.1194 25.3296 18.2454 25.2774 18.3383 25.1846C18.4313 25.0917 18.4835 24.9657 18.4835 24.8343C18.4835 24.294 18.6785 23.7837 18.7386 23.2434C18.753 23.0135 18.753 22.7829 18.7386 22.5531C18.7535 22.3281 18.7535 22.1025 18.7386 21.8777C18.6935 21.2924 18.5435 20.7821 18.4383 20.2418Z" fill="#2B2A29"/>
</g>
<defs>
<clipPath id="clip0_2615_425">
<rect width="36" height="36" fill="white"/>
</clipPath>
</defs>
</svg>
