<svg width="36" height="36" viewBox="0 0 36 36" fill="none" xmlns="http://www.w3.org/2000/svg">
<g clip-path="url(#clip0_2966_10249)">
<g clip-path="url(#clip1_2966_10249)">
<path d="M34.6557 0H22.6455C21.7788 0 21.237 0.938292 21.6704 1.68893C21.8715 2.0373 22.2433 2.25191 22.6455 2.25191H33.5298V33.0281H22.6455C21.7788 33.028 21.237 33.9663 21.6704 34.717C21.8715 35.0654 22.2432 35.28 22.6455 35.28H34.6557C35.2776 35.28 35.7817 34.7759 35.7817 34.154V1.12596C35.7817 0.504112 35.2776 0 34.6557 0Z" fill="black"/>
<path d="M15.9348 25.942L23.4412 18.4356C23.8802 17.996 23.8802 17.2838 23.4412 16.8442L15.9348 9.33785C15.6612 9.08288 15.2788 8.98044 14.9143 9.06442C14.0697 9.25909 13.7526 10.2951 14.3435 10.9292L19.9263 16.514H1.62764C1.22536 16.514 0.853663 16.7286 0.652527 17.0769C0.219149 17.8276 0.760879 18.7659 1.62764 18.7659H19.9263L14.3435 24.3506C14.0885 24.6242 13.986 25.0066 14.07 25.3711C14.2647 26.2157 15.3007 26.5329 15.9348 25.942Z" fill="#00A3E2"/>
</g>
</g>
<defs>
<clipPath id="clip0_2966_10249">
<rect width="36" height="36" fill="white"/>
</clipPath>
<clipPath id="clip1_2966_10249">
<rect width="36" height="36" fill="white"/>
</clipPath>
</defs>
</svg>
