<svg width="36" height="36" viewBox="0 0 36 36" fill="none" xmlns="http://www.w3.org/2000/svg">
<g clip-path="url(#clip0_2966_5953)">
<path d="M2.90625 5.78125C2.90625 6.54375 3.20915 7.27501 3.74832 7.81418C4.28749 8.35335 5.01875 8.65625 5.78125 8.65625C6.54375 8.65625 7.27501 8.35335 7.81418 7.81418C8.35335 7.27501 8.65625 6.54375 8.65625 5.78125C8.65625 5.01875 8.35335 4.28749 7.81418 3.74832C7.27501 3.20915 6.54375 2.90625 5.78125 2.90625C5.01875 2.90625 4.28749 3.20915 3.74832 3.74832C3.20915 4.28749 2.90625 5.01875 2.90625 5.78125Z" stroke="black" stroke-width="1.5" stroke-linejoin="round"/>
<path d="M2.90625 33.0938V12.9688H8.65625V33.0938H2.90625Z" stroke="black" stroke-width="1.5" stroke-linejoin="round"/>
<path d="M12.25 12.9688V33.0938H18V23.1635C18 21.5937 19.4375 18.7188 23.5991 18.7188C25.9609 18.7188 27.3438 19.9334 27.3438 22.3125V33.0938H33.0938V22.3125C33.0938 20.4308 32.6452 18.0906 31.0899 16.1643C29.4454 14.1274 26.9024 12.9688 23.6005 12.9688C21.4256 12.9688 19.5252 13.8528 18 14.9324V12.9688H12.25Z" stroke="black" stroke-width="1.5" stroke-linejoin="round"/>
</g>
<defs>
<clipPath id="clip0_2966_5953">
<rect width="36" height="36" fill="white"/>
</clipPath>
</defs>
</svg>
