<svg width="36" height="36" viewBox="0 0 36 36" fill="none" xmlns="http://www.w3.org/2000/svg">
<g clip-path="url(#clip0_4456_13982)">
<path d="M33.75 16.78H29.6002L23.4267 10.6066C23.2442 10.4234 23.0272 10.2782 22.7882 10.1792C22.5493 10.0802 22.2931 10.0296 22.0345 10.03H6.22688C5.90279 10.0299 5.58369 10.1099 5.2979 10.2627C5.01211 10.4155 4.76847 10.6365 4.5886 10.9061L0.421877 17.1555C0.329811 17.2943 0.280881 17.4572 0.281252 17.6238V24.3738C0.281252 24.8959 0.488673 25.3967 0.857886 25.7659C1.2271 26.1351 1.72786 26.3425 2.25 26.3425H4.86563C5.05928 27.2962 5.57668 28.1536 6.33016 28.7695C7.08364 29.3853 8.02686 29.7218 9 29.7218C9.97315 29.7218 10.9164 29.3853 11.6698 28.7695C12.4233 28.1536 12.9407 27.2962 13.1344 26.3425H22.8656C23.0593 27.2962 23.5767 28.1536 24.3302 28.7695C25.0836 29.3853 26.0269 29.7218 27 29.7218C27.9731 29.7218 28.9164 29.3853 29.6698 28.7695C30.4233 28.1536 30.9407 27.2962 31.1344 26.3425H33.75C34.2721 26.3425 34.7729 26.1351 35.1421 25.7659C35.5113 25.3967 35.7188 24.8959 35.7188 24.3738V18.7488C35.7188 18.2266 35.5113 17.7259 35.1421 17.3567C34.7729 16.9875 34.2721 16.78 33.75 16.78ZM5.99344 11.8427C6.01908 11.8043 6.05379 11.7727 6.0945 11.7509C6.13522 11.7291 6.18068 11.7176 6.22688 11.7175H22.0345C22.109 11.7178 22.1803 11.7477 22.2328 11.8005L27.2138 16.78H2.70141L5.99344 11.8427ZM9 28.03C8.49937 28.03 8.00998 27.8816 7.59372 27.6034C7.17745 27.3253 6.85302 26.93 6.66143 26.4675C6.46985 26.0049 6.41972 25.496 6.51739 25.005C6.61506 24.5139 6.85614 24.0629 7.21014 23.7089C7.56414 23.3549 8.01517 23.1138 8.50618 23.0162C8.99719 22.9185 9.50614 22.9686 9.96867 23.1602C10.4312 23.3518 10.8265 23.6762 11.1047 24.0925C11.3828 24.5088 11.5313 24.9981 11.5313 25.4988C11.5313 26.1701 11.2646 26.8139 10.7899 27.2886C10.3152 27.7633 9.67133 28.03 9 28.03ZM27 28.03C26.4994 28.03 26.01 27.8816 25.5937 27.6034C25.1775 27.3253 24.853 26.93 24.6614 26.4675C24.4698 26.0049 24.4197 25.496 24.5174 25.005C24.6151 24.5139 24.8561 24.0629 25.2101 23.7089C25.5641 23.3549 26.0152 23.1138 26.5062 23.0162C26.9972 22.9185 27.5061 22.9686 27.9687 23.1602C28.4312 23.3518 28.8265 23.6762 29.1047 24.0925C29.3828 24.5088 29.5313 24.9981 29.5313 25.4988C29.5313 26.1701 29.2646 26.8139 28.7899 27.2886C28.3152 27.7633 27.6713 28.03 27 28.03ZM34.0313 24.3738C34.0313 24.4484 34.0016 24.5199 33.9489 24.5727C33.8961 24.6254 33.8246 24.655 33.75 24.655H31.1344C30.9407 23.7014 30.4233 22.8439 29.6698 22.2281C28.9164 21.6122 27.9731 21.2758 27 21.2758C26.0269 21.2758 25.0836 21.6122 24.3302 22.2281C23.5767 22.8439 23.0593 23.7014 22.8656 24.655H13.1344C12.9407 23.7014 12.4233 22.8439 11.6698 22.2281C10.9164 21.6122 9.97315 21.2758 9 21.2758C8.02686 21.2758 7.08364 21.6122 6.33016 22.2281C5.57668 22.8439 5.05928 23.7014 4.86563 24.655H2.25C2.17541 24.655 2.10387 24.6254 2.05113 24.5727C1.99838 24.5199 1.96875 24.4484 1.96875 24.3738V18.4675H33.75C33.8246 18.4675 33.8961 18.4972 33.9489 18.5499C34.0016 18.6027 34.0313 18.6742 34.0313 18.7488V24.3738Z" fill="black"/>
</g>
<defs>
<clipPath id="clip0_4456_13982">
<rect width="36" height="36" fill="white"/>
</clipPath>
</defs>
</svg>
