<svg width="36" height="36" viewBox="0 0 36 36" fill="none" xmlns="http://www.w3.org/2000/svg">
<g clip-path="url(#clip0_2615_419)">
<path fill-rule="evenodd" clip-rule="evenodd" d="M35.4315 8.578C35.2365 6.83766 35.3265 3.31195 34.0662 2.35177C31.1856 0.116322 24.8394 0.716441 20.8486 0.551408C15.6126 0.326363 10.1064 0.76145 4.93043 0.896477C4.79514 0.896477 4.66539 0.950221 4.56972 1.04588C4.47406 1.14155 4.42032 1.27129 4.42032 1.40658C4.42032 1.54186 4.47406 1.67161 4.56972 1.76727C4.66539 1.86294 4.79514 1.91668 4.93043 1.91668C10.1215 1.84167 15.4324 1.4966 20.7736 1.79665C24.4492 2.0067 30.7506 1.58661 33.1511 3.492C33.7512 3.97209 33.7662 7.49779 33.8862 8.72803C34.3911 13.1024 34.4313 17.5178 34.0062 21.9007C33.9369 23.3659 33.7106 24.8195 33.3311 26.2366C29.8055 28.2019 3.8502 29.7922 2.2749 27.0467C1.82826 25.5739 1.56128 24.0526 1.47974 22.5158C2.06486 22.3807 11.7868 22.5158 11.9818 22.5158C19.4834 22.5158 16.4827 22.1407 28.9652 22.3057C33.466 22.1857 31.0356 21.2405 28.9652 21.1805C24.3143 20.8504 21.9738 20.6254 18.268 20.6704C13.1371 20.6704 1.88481 21.4805 1.44973 21.6305C1.00521 17.0119 1.06558 12.3585 1.62977 7.75284C1.62977 6.97269 1.76479 6.25254 1.86981 5.44239C1.85712 4.4878 1.96294 3.53533 2.18487 2.60682C2.24988 2.52015 2.28144 2.41293 2.27376 2.30485C2.26608 2.19679 2.21967 2.09511 2.14306 2.0185C2.06646 1.9419 1.96477 1.89549 1.85671 1.88781C1.74864 1.88013 1.64142 1.91169 1.55475 1.9767C0.924624 2.59182 1.04465 4.58721 0.939627 5.30736C0.834606 6.02749 0.729585 6.86766 0.639567 7.66282C0.0456666 11.8659 -0.135232 16.117 0.0994596 20.3554C0.136446 22.8424 0.473961 25.3157 1.10466 27.7219C2.2899 29.8972 9.74639 30.0623 12.3569 30.1073C11.6155 31.2769 11.2831 32.6593 11.4117 34.0381L8.18607 34.2781C8.12114 34.2661 8.05436 34.2685 7.99046 34.2853C7.92656 34.3019 7.86712 34.3325 7.81636 34.3747C7.76559 34.417 7.72475 34.4698 7.69671 34.5296C7.66867 34.5895 7.65415 34.6547 7.65415 34.7207C7.65415 34.7867 7.66867 34.852 7.69671 34.9118C7.72475 34.9715 7.76559 35.0245 7.81636 35.0666C7.86712 35.1089 7.92656 35.1395 7.99046 35.1562C8.05436 35.1728 8.12114 35.1752 8.18607 35.1632C12.1082 35.4824 16.045 35.5826 19.9783 35.4634C22.0488 35.3734 24.1793 35.1332 26.3397 34.9682C26.458 34.9477 26.5655 34.886 26.6429 34.7941C26.7203 34.7021 26.7627 34.5859 26.7627 34.4656C26.7627 34.3454 26.7203 34.2292 26.6429 34.1372C26.5655 34.0453 26.458 33.9836 26.3397 33.9631H23.5791C23.3823 32.5318 22.9781 31.1369 22.379 29.8222C24.4643 29.6722 33.7062 28.982 34.8163 27.2117C35.409 25.5856 35.7235 23.8712 35.7465 22.1407C36.1689 17.623 36.0631 13.0713 35.4315 8.578ZM22.364 33.9181C17.7129 33.7981 15.9126 33.7831 12.5519 33.9181C13.178 32.7251 13.5605 31.4195 13.6772 30.0773C15.8826 30.0773 18.1781 30.0773 20.8787 29.8522C21.0546 31.3036 21.563 32.695 22.364 33.9181Z" fill="#2B2A29"/>
<path fill-rule="evenodd" clip-rule="evenodd" d="M17.8776 23.8661C16.6026 23.1911 15.0426 24.4961 16.1826 25.6511C16.3221 25.7828 16.4874 25.8842 16.668 25.9491C16.8486 26.0141 17.0406 26.0411 17.232 26.0283C17.4236 26.0157 17.6103 25.9637 17.7807 25.8755C17.9511 25.7874 18.1016 25.665 18.2226 25.5161C18.3581 25.2422 18.3978 24.9306 18.3353 24.6315C18.2727 24.3323 18.1114 24.0627 17.8776 23.8661Z" fill="#2B2A29"/>
<path fill-rule="evenodd" clip-rule="evenodd" d="M8.68115 15.4494C8.6223 15.4566 8.56554 15.4758 8.51436 15.5058C8.46318 15.5356 8.41866 15.5758 8.38355 15.6235C8.34842 15.6712 8.32343 15.7257 8.31011 15.7836C8.29679 15.8413 8.29541 15.9012 8.30607 15.9595C8.4111 16.6497 9.05622 16.0795 11.6367 16.4097L11.7117 18.42C11.699 18.4933 11.7025 18.5685 11.7219 18.6402C11.7413 18.712 11.7762 18.7788 11.8241 18.8356C11.8719 18.8925 11.9317 18.9382 11.9991 18.9696C12.0665 19.0011 12.14 19.0173 12.2144 19.0173C12.2887 19.0173 12.3622 19.0011 12.4296 18.9696C12.497 18.9382 12.5568 18.8925 12.6047 18.8356C12.6525 18.7788 12.6874 18.712 12.7068 18.6402C12.7262 18.5685 12.7297 18.4933 12.717 18.42L12.867 16.5147C14.2487 16.6383 15.6371 16.6683 17.0228 16.6047C17.0228 17.6848 17.0228 17.4748 17.0979 17.6848C17.0979 19.3651 17.9231 19.6203 18.2231 16.5747H22.514C22.589 17.2048 22.514 16.4547 22.739 18.525C22.649 19.1401 23.7591 19.2451 23.7741 18.45V16.5597C26.1897 16.5597 26.4747 16.7697 26.5047 16.2595C26.7747 15.4794 26.3247 15.5544 23.8041 15.3144V12.1788L25.0794 12.0138C25.1984 11.9851 25.3031 11.9147 25.3745 11.8153C25.4459 11.7159 25.479 11.5942 25.4682 11.4723C25.4573 11.3504 25.4028 11.2366 25.3151 11.1514C25.2272 11.0663 25.1115 11.0156 24.9894 11.0085H23.8041C23.8019 10.0053 23.7368 9.00309 23.6091 8.00796C24.1137 7.97554 24.6153 7.90534 25.1094 7.79791C25.2228 7.72423 25.3022 7.6086 25.3304 7.47639C25.3584 7.34416 25.3331 7.20619 25.2594 7.09276C24.9444 6.59767 24.0143 6.53766 23.4141 6.53766C23.2808 5.71032 23.0903 4.89319 22.844 4.09218C22.8386 4.0281 22.8195 3.96592 22.7882 3.90984C22.7568 3.85374 22.7136 3.80503 22.6619 3.76698C22.61 3.72892 22.5507 3.70242 22.4877 3.68923C22.4247 3.67606 22.3598 3.67653 22.2971 3.69058C22.2344 3.70464 22.1753 3.73198 22.124 3.77076C22.0727 3.80953 22.0304 3.85885 21.9998 3.91539C21.9692 3.97191 21.9509 4.03435 21.9465 4.09849C21.942 4.16263 21.9513 4.22698 21.9738 4.28721C22.083 5.03764 22.1432 5.79439 22.1538 6.55266C21.0887 6.55266 20.8185 6.40263 17.8329 6.46264C17.7902 5.67423 17.6543 4.89364 17.4279 4.13718C17.1279 3.59707 16.6628 3.92713 16.6628 4.60227V6.50766C13.8422 6.61267 14.9524 6.62767 13.032 6.7327C12.807 4.21219 13.032 4.45224 12.807 4.13718C12.7303 4.0924 12.644 4.06668 12.5553 4.06215C12.4666 4.05762 12.3782 4.07443 12.2973 4.11118C12.2165 4.14793 12.1457 4.20352 12.0908 4.27332C12.0359 4.3431 11.9985 4.42504 11.9818 4.51225C11.9068 4.97734 11.8318 6.17758 11.7868 6.7777C11.6517 6.7777 9.4463 6.7777 9.31128 6.88273C9.21528 6.90816 9.1304 6.9646 9.06983 7.04331C9.00927 7.122 8.97642 7.21851 8.97642 7.31781C8.97642 7.41712 9.00927 7.51363 9.06983 7.59232C9.1304 7.67101 9.21528 7.72747 9.31128 7.7529C10.0948 7.88866 10.8869 7.96887 11.6817 7.99294C11.5917 9.07317 11.5767 9.2232 11.5467 10.7535C10.6476 10.9411 9.7341 11.0516 8.81618 11.0836C8.75897 11.0751 8.70065 11.0782 8.64462 11.0925C8.5886 11.1069 8.53599 11.1323 8.4899 11.1672C8.4438 11.2021 8.40513 11.2459 8.37614 11.2959C8.34716 11.346 8.32844 11.4013 8.32107 11.4586C8.21606 12.2238 9.61134 12.0438 11.5467 12.0138V15.1494C10.5849 15.1699 9.6264 15.2703 8.68115 15.4494ZM12.987 15.1344C13.062 14.1142 13.137 13.109 13.197 12.1338C15.1025 12.2688 15.2525 12.2838 16.6028 12.3138C16.6028 13.199 16.7528 14.0992 16.8428 14.9843L12.987 15.1344ZM22.379 15.1344C21.0351 14.9672 19.6823 14.8821 18.3281 14.8793V12.2538C18.9732 12.2538 22.1838 12.1638 22.1838 12.1638C22.2438 13.8591 22.2738 14.0842 22.379 15.1494V15.1344ZM22.1388 7.81291V10.8135C20.4285 10.6635 20.6385 10.6635 18.2381 10.5585C18.2381 9.70329 18.1031 8.86312 18.0131 8.02296L22.1388 7.81291ZM16.5878 8.14297C16.4828 10.2884 16.4828 9.89833 16.4828 10.5135C15.3783 10.4525 14.2714 10.4525 13.167 10.5135C13.1832 9.65695 13.1481 8.80026 13.062 7.94794C14.2773 8.12797 15.4325 8.17299 16.5878 8.14297Z" fill="#00A3E2"/>
</g>
<defs>
<clipPath id="clip0_2615_419">
<rect width="36" height="36" fill="white"/>
</clipPath>
</defs>
</svg>
