<svg width="36" height="36" viewBox="0 0 36 36" fill="none" xmlns="http://www.w3.org/2000/svg">
<path d="M17.9816 8.64989C17.3103 8.64379 16.6553 8.85534 16.1144 9.25287C15.5735 9.65039 15.1761 10.2125 14.9815 10.8549C14.7764 11.5171 14.6555 12.2025 14.6215 12.8949C14.6597 13.8554 14.7599 14.8124 14.9215 15.7599C15.1466 17.2599 15.4766 18.7599 15.7466 20.2599C16.1666 22.7199 16.3316 23.2599 17.3966 24.0699C17.7362 24.2588 18.1314 24.3216 18.5129 24.2475C18.8943 24.1734 19.2374 23.9672 19.4816 23.6649C20.0055 22.9803 20.3927 22.2011 20.6216 21.3699C20.9066 20.5449 21.1616 19.7049 21.4016 18.8649C21.7466 17.6049 22.0466 16.3299 22.3316 15.0849C22.5188 14.3662 22.6491 13.634 22.7216 12.8949C22.7558 12.3146 22.6742 11.7333 22.4816 11.1849C22.0469 10.3809 21.3938 9.71633 20.5976 9.26777C19.8012 8.81921 18.8943 8.60501 17.9816 8.64989ZM20.8166 14.7699C20.6066 16.0149 20.3666 17.2749 20.0966 18.5199C19.9016 19.3599 19.7066 20.1699 19.4666 20.9799C19.3313 21.6663 19.0611 22.319 18.6716 22.8999C18.5894 23.0196 18.4674 23.1063 18.3275 23.1447C18.1874 23.1831 18.0383 23.1708 17.9066 23.1099C17.3066 22.6749 17.3366 22.8099 16.8716 20.1099C16.6316 18.6099 16.4966 17.1099 16.3616 15.6099C16.2657 14.7233 16.2306 13.8312 16.2566 12.9399C16.2537 12.3919 16.3295 11.8464 16.4816 11.3199C16.7366 10.4349 17.6816 10.2849 18.5816 10.4049C19.0503 10.4338 19.5048 10.5775 19.905 10.8234C20.3052 11.0693 20.6388 11.4098 20.8766 11.8149C20.9882 12.143 21.039 12.4886 21.0266 12.8349C20.9799 13.4861 20.8847 14.1329 20.7416 14.7699H20.8166Z" fill="#00A3E2"/>
<path d="M17.682 26.0655C17.023 26.1357 16.3932 26.3732 15.852 26.7555C15.5418 26.9729 15.2838 27.2567 15.097 27.5861C14.9102 27.9156 14.7992 28.2827 14.7719 28.6605C14.7402 29.0609 14.807 29.463 14.9664 29.8317C15.126 30.2004 15.3733 30.5244 15.687 30.7755C16.1194 31.076 16.6182 31.2671 17.1408 31.3325C17.6632 31.3977 18.1938 31.3353 18.687 31.1505C19.1989 30.983 19.6506 30.6693 19.9864 30.2481C20.3223 29.8271 20.5275 29.3169 20.577 28.7805C20.5968 28.4742 20.5507 28.1673 20.442 27.8805C20.2776 27.2963 19.9078 26.7911 19.4008 26.4576C18.8938 26.1243 18.2835 25.985 17.682 26.0655ZM19.482 28.6455C19.3996 28.9041 19.2489 29.1356 19.0455 29.3151C18.8421 29.4948 18.5937 29.6159 18.327 29.6655C18.076 29.7486 17.8087 29.7701 17.5477 29.7284C17.2866 29.6865 17.0394 29.5827 16.827 29.4255C16.7248 29.3424 16.6434 29.237 16.5888 29.1173C16.534 28.9976 16.5078 28.8669 16.512 28.7355C16.4992 28.5822 16.5195 28.4279 16.5712 28.2831C16.6228 28.1382 16.705 28.0061 16.812 27.8955C17.1174 27.5784 17.4999 27.3459 17.922 27.2205C18.792 27.0105 19.077 27.0855 19.422 28.1355C19.4878 28.2969 19.5087 28.4732 19.482 28.6455Z" fill="#00A3E2"/>
<path d="M35.8766 29.4548C35.5176 27.9306 35.072 26.4282 34.5416 24.9548C34.0397 23.3226 33.3869 21.7409 32.5916 20.2297C31.4816 17.9947 30.1166 15.9097 28.9466 13.7498C28.0016 11.9948 27.2816 10.3598 26.3366 8.73981C25.9223 8.01562 25.4613 7.31916 24.9566 6.65481C23.9085 4.98742 22.6647 3.45149 21.2516 2.07981C20.4761 1.39553 19.4646 1.0404 18.4316 1.08981C17.9766 1.14538 17.5404 1.30445 17.1566 1.55481C16.6962 1.84445 16.2599 2.17049 15.8516 2.52981C15.0765 3.1551 14.3633 3.85329 13.7216 4.61481C12.7916 5.70981 11.9816 6.90981 11.1416 8.10981L8.14158 12.1448C6.91885 14.0828 5.80221 16.0857 4.79658 18.1448C3.79657 20.2049 2.88157 22.2998 2.05158 24.4298C1.64658 25.4948 1.19658 26.5298 0.806578 27.6098C-0.288422 30.7598 -0.408422 31.8847 1.33158 32.8597C2.75713 33.4662 4.28313 33.8019 5.83158 33.8498L7.48158 34.0148C10.1966 34.1948 12.9116 34.5247 15.6416 34.7347C16.8116 34.8247 17.9966 34.8848 19.1816 34.9147H21.8816C23.9516 34.9147 26.0216 34.7198 28.0916 34.6598C30.0372 34.7718 31.9874 34.5381 33.8516 33.9697C34.3304 33.7819 34.761 33.4892 35.1114 33.1127C35.462 32.7362 35.7234 32.2859 35.8766 31.7948C36.0407 31.0235 36.0407 30.2262 35.8766 29.4548ZM34.2416 31.3148C34.1 31.6841 33.8628 32.0093 33.5546 32.2569C33.2462 32.5046 32.8778 32.6661 32.4866 32.7248C31.0065 33.0285 29.4971 33.1644 27.9866 33.1297C25.9166 33.2197 23.8466 33.3997 21.7766 33.4897H19.1516C18.0015 33.4897 16.8465 33.4448 15.6866 33.3548C12.9266 33.2648 10.1966 32.9947 7.48158 32.8447L5.90658 32.7098C4.52481 32.6886 3.1581 32.4193 1.87158 31.9147C1.13658 31.5097 0.566578 31.0298 1.72158 27.9097C2.11158 26.8598 2.59158 25.8247 3.01158 24.7897C3.86658 22.6897 4.79658 20.6498 5.83158 18.6548C6.85605 16.6571 7.99287 14.719 9.23658 12.8498L12.2816 8.99481C13.1216 7.83981 13.9316 6.71481 14.8466 5.66481C15.446 4.98854 16.1034 4.36616 16.8116 3.80481C17.1792 3.47687 17.5703 3.17607 17.9816 2.90481C18.1658 2.78207 18.3767 2.70495 18.5966 2.67981C19.0239 2.7072 19.4405 2.82581 19.8183 3.02762C20.196 3.22943 20.5262 3.50977 20.7866 3.84981C21.8217 5.0607 22.7691 6.34396 23.6216 7.68981C24.2396 8.50959 24.7914 9.37734 25.2716 10.2848C26.0216 11.6798 26.6516 13.1048 27.4466 14.5748C28.6166 16.7197 29.9516 18.8498 31.0766 21.0548C31.8495 22.4718 32.4873 23.9583 32.9816 25.4947C33.2816 26.5147 33.8666 27.8647 34.1966 29.1847C34.3757 29.8818 34.3911 30.6108 34.2416 31.3148Z" fill="#2B2A29"/>
</svg>
