<svg width="36" height="36" viewBox="0 0 36 36" fill="none" xmlns="http://www.w3.org/2000/svg">
<path fill-rule="evenodd" clip-rule="evenodd" d="M0.798009 15.5323C1.49747 15.828 2.24432 15.9957 3.00302 16.0273C5.49407 16.2865 8.00049 16.3668 10.503 16.2673C11.6429 16.252 12.7765 16.0959 13.878 15.8024C14.1465 15.7348 14.3958 15.6065 14.6065 15.4269C14.8172 15.2473 14.9837 15.0217 15.093 14.7674C15.3485 12.7779 15.4038 10.7679 15.258 8.76738C15.2278 6.77884 15.0272 4.79658 14.658 2.84238C14.5605 2.64719 14.4234 2.4744 14.2556 2.33496C14.0877 2.19554 13.8928 2.09249 13.683 2.03238C11.6667 1.49793 9.58893 1.23064 7.50302 1.23738C4.50302 1.16238 1.39801 1.61238 0.753009 2.66238C0.228009 3.32238 0.00300961 6.96738 0.00300961 10.1474C-0.0176995 11.6535 0.0876681 13.1588 0.318009 14.6474C0.371274 14.9889 0.540829 15.3015 0.798009 15.5323ZM1.50302 3.17238C1.799 2.87981 2.18456 2.69495 2.59802 2.64738C3.76908 2.42499 4.96268 2.34441 6.15302 2.40738C8.21994 2.44838 10.2766 2.70986 12.288 3.18738C13.428 3.48738 13.413 2.18238 13.488 9.95238C13.5751 11.2808 13.5801 12.6133 13.503 13.9424C13.338 13.9424 13.053 14.1824 12.738 14.2424C10.7013 14.5295 8.64405 14.6449 6.58802 14.5874C5.20035 14.5878 3.81356 14.5177 2.43302 14.3774C2.25878 14.3502 2.08785 14.305 1.92301 14.2424C1.80339 13.9988 1.69819 13.7483 1.60801 13.4924C1.37827 11.5761 1.26806 9.64736 1.27801 7.71738C1.15649 6.20932 1.2678 4.69157 1.60801 3.21738L1.50302 3.17238Z" fill="#2B2A29"/>
<path fill-rule="evenodd" clip-rule="evenodd" d="M14.838 21.2935C14.7444 21.0955 14.6087 20.9203 14.4402 20.7804C14.2718 20.6404 14.0748 20.5392 13.863 20.4835C11.8622 19.9465 9.79959 19.6741 7.72798 19.6735C4.63798 19.6735 1.57798 20.0635 0.93298 21.1735C0.46798 21.8785 0.21298 25.5235 0.24298 28.6735C0.22359 30.1795 0.32895 31.6848 0.55798 33.1735C0.611244 33.5149 0.780801 33.8275 1.03798 34.0585C1.71499 34.3162 2.42917 34.4632 3.15298 34.4935C5.6445 34.7457 8.15043 34.8258 10.653 34.7335C11.7979 34.7067 12.9357 34.5456 14.043 34.2535C14.3134 34.1904 14.5648 34.0636 14.7762 33.8835C14.9875 33.7035 15.1527 33.4755 15.258 33.2185C15.5143 31.2291 15.5696 29.2189 15.423 27.2185C15.3991 25.2303 15.2034 23.2479 14.838 21.2935ZM13.608 32.3935C13.443 32.3935 13.158 32.6335 12.843 32.6785C10.8004 32.956 8.73817 33.0613 6.67798 32.9935C5.04298 32.9935 3.51298 32.9185 2.53798 32.7985C2.36374 32.7714 2.19282 32.7261 2.02798 32.6635C1.92469 32.4009 1.84438 32.13 1.78798 31.8535C1.58443 29.9655 1.48928 28.0674 1.50298 26.1685C1.38751 24.6604 1.49875 23.1436 1.83298 21.6685C1.99798 21.3985 2.40298 21.2635 2.92798 21.1435C4.09827 20.9148 5.29203 20.8291 6.48298 20.8885C8.55049 20.9337 10.6072 21.2002 12.618 21.6835C13.728 21.9685 13.743 20.4835 13.818 28.4485C13.8206 29.7663 13.7505 31.0833 13.608 32.3935Z" fill="#2B2A29"/>
<path fill-rule="evenodd" clip-rule="evenodd" d="M18.544 4.49254L23.254 4.61254C24.529 4.61254 25.789 4.71754 27.049 4.73254H29.599L33.529 4.49254H35.269C35.794 4.35754 35.539 3.57754 35.374 3.56254L33.559 3.32254L29.599 2.99254C28.324 2.99254 27.064 2.91754 25.789 2.91754C24.934 2.91754 24.094 2.99254 23.239 3.03754L18.544 3.41254C18.4009 3.41254 18.2635 3.46944 18.1623 3.5707C18.061 3.67197 18.004 3.80932 18.004 3.95254C18.004 4.09576 18.061 4.2331 18.1623 4.33438C18.2635 4.43565 18.4009 4.49254 18.544 4.49254Z" fill="#2B2A29"/>
<path fill-rule="evenodd" clip-rule="evenodd" d="M18.7241 22.9136L23.4342 23.0486C24.7092 23.0486 25.9692 23.1536 27.2292 23.1686H29.7792L33.694 23.0036C36.9491 22.9286 36.319 22.1036 33.694 21.8486L29.7342 21.4586H25.9242C25.0692 21.4586 24.2292 21.4586 23.3742 21.5636L18.6792 21.9536C18.6016 21.9405 18.5224 21.9446 18.4467 21.9653C18.3709 21.9861 18.3007 22.023 18.2407 22.0737C18.1807 22.1244 18.1326 22.1876 18.0996 22.2588C18.0666 22.3301 18.0495 22.4076 18.0495 22.4861C18.0495 22.5647 18.0666 22.6422 18.0996 22.7133C18.1326 22.7846 18.1807 22.8477 18.2407 22.8984C18.3007 22.9491 18.3709 22.9862 18.4467 23.0069C18.5224 23.0277 18.6016 23.0316 18.6792 23.0186L18.7241 22.9136Z" fill="#2B2A29"/>
<path fill-rule="evenodd" clip-rule="evenodd" d="M18.5441 9.42778L23.2691 9.56278C24.5291 9.56278 25.7891 9.66778 27.0491 9.68278H29.5991L33.5291 9.51778H35.2691C35.7941 9.39778 35.5391 8.61778 35.3741 8.58778L33.5741 8.36278L29.5991 7.97278H25.7891C24.9491 7.97278 24.0941 7.97278 23.2391 8.07778L18.5441 8.46778C18.4667 8.45473 18.3873 8.45873 18.3117 8.47948C18.236 8.50024 18.1656 8.53726 18.1058 8.58794C18.0458 8.63863 17.9976 8.70178 17.9646 8.773C17.9315 8.8442 17.9144 8.92177 17.9144 9.00028C17.9144 9.07877 17.9315 9.15634 17.9646 9.22754C17.9976 9.29876 18.0458 9.36191 18.1058 9.4126C18.1656 9.4633 18.236 9.5003 18.3117 9.52106C18.3873 9.54181 18.4667 9.54581 18.5441 9.53278V9.42778Z" fill="#2B2A29"/>
<path fill-rule="evenodd" clip-rule="evenodd" d="M18.7241 27.8789L23.4341 27.9989C24.7091 27.9989 25.9691 28.1039 27.2291 28.1189H29.7791L33.6941 27.9539H35.4491C35.9741 27.8339 35.7191 27.0539 35.5541 27.0389L33.7391 26.7989L29.7791 26.4239C28.5041 26.4239 27.2441 26.3339 25.9691 26.3489C25.1141 26.3489 24.2741 26.3489 23.4191 26.4689L18.7241 26.8439C18.581 26.8439 18.4436 26.9007 18.3423 27.002C18.2411 27.1032 18.1841 27.2406 18.1841 27.3839C18.1841 27.5271 18.2411 27.6644 18.3423 27.7656C18.4436 27.867 18.581 27.9239 18.7241 27.9239V27.8789Z" fill="#2B2A29"/>
<path fill-rule="evenodd" clip-rule="evenodd" d="M18.6942 14.4831L23.4192 14.6181C24.6792 14.6181 25.9392 14.7231 27.1992 14.7381H29.7492L33.6792 14.5731H35.4192C35.9442 14.4531 35.6892 13.6731 35.5242 13.6431L33.7242 13.4031L29.7492 13.0281C28.4892 13.0281 27.2142 12.9531 25.9542 13.0281C25.0992 13.0281 24.2442 13.0281 23.3892 13.1331L18.6942 13.4931C18.6168 13.4801 18.5374 13.4841 18.4617 13.5049C18.3859 13.5256 18.3157 13.5626 18.2557 13.6133C18.1957 13.664 18.1476 13.7272 18.1146 13.7984C18.0816 13.8696 18.0645 13.9471 18.0645 14.0256C18.0645 14.1042 18.0816 14.1817 18.1146 14.2529C18.1476 14.3241 18.1957 14.3873 18.2557 14.438C18.3157 14.4887 18.3859 14.5257 18.4617 14.5464C18.5374 14.5672 18.6168 14.5712 18.6942 14.5581V14.4831Z" fill="#00A3E2"/>
<path fill-rule="evenodd" clip-rule="evenodd" d="M35.7042 32.0492L33.8892 31.8092L30.0042 31.4942C28.7292 31.4942 27.4692 31.4042 26.1942 31.4192C25.3392 31.4192 24.4992 31.4192 23.6442 31.5242L18.9492 31.9142C18.8059 31.9142 18.6685 31.971 18.5673 32.0723C18.466 32.1735 18.4092 32.3109 18.4092 32.4542C18.4092 32.5973 18.466 32.7347 18.5673 32.8359C18.6685 32.9372 18.8059 32.9942 18.9492 32.9942L23.6742 33.1142C24.9342 33.1142 26.1942 33.2192 27.4542 33.2342H30.0042L33.8592 32.9942C37.0542 32.8892 35.7342 32.0492 35.7042 32.0492Z" fill="#00A3E2"/>
</svg>
