<svg width="36" height="36" viewBox="0 0 36 36" fill="none" xmlns="http://www.w3.org/2000/svg">
<g clip-path="url(#clip0_2615_436)">
<path fill-rule="evenodd" clip-rule="evenodd" d="M13.883 19.9344C15.1521 19.2264 16.3755 18.4392 17.5458 17.5776C17.6098 17.4519 17.622 17.3061 17.58 17.1714C17.5378 17.0368 17.4449 16.924 17.3207 16.857C16.4351 16.2865 15.5943 15.6861 14.6937 15.1156L13.5678 14.4251C13.1625 14.1999 12.7872 13.9898 12.3819 13.8096C11.4812 13.3743 10.5805 13.029 9.69479 12.6387C9.69479 12.4586 9.82989 12.2935 9.88993 12.0983C9.94998 11.9032 9.88993 11.8281 9.88993 11.708V11.4978C10.9281 11.4842 11.961 11.3481 12.9673 11.0925C13.9729 10.8317 14.8935 10.3145 15.6395 9.59137C16.0755 9.2029 16.4161 8.71909 16.6348 8.17755C16.8535 7.636 16.9445 7.05132 16.9004 6.46895C16.8431 5.90366 16.6662 5.35701 16.3815 4.86526C16.0968 4.37353 15.7109 3.94796 15.2492 3.61674C14.5818 3.12555 13.8281 2.76402 13.0274 2.55092C12.2481 2.34962 11.4453 2.25369 10.6405 2.26569C10.4972 2.26569 10.3597 2.32263 10.2584 2.42399C10.157 2.52533 10.1001 2.66278 10.1001 2.80611C10.1039 2.94825 10.1621 3.0835 10.2626 3.18405C10.3631 3.28458 10.4984 3.34273 10.6405 3.34653C11.3351 3.36522 12.0231 3.48663 12.6821 3.70682C13.3135 3.91056 13.9032 4.22579 14.4234 4.63754C14.7175 4.86957 14.9601 5.16021 15.1357 5.49099C15.3116 5.82177 15.4165 6.18547 15.4443 6.55902C15.4422 6.91679 15.3603 7.26958 15.2044 7.59163C15.0486 7.91368 14.8228 8.19686 14.5435 8.42046C13.9547 8.91642 13.254 9.26161 12.502 9.42624C11.2543 9.69001 9.97765 9.79092 8.70402 9.72648C8.10214 9.74164 7.49999 9.71154 6.90263 9.6364C6.31391 9.57555 5.73139 9.46508 5.16127 9.30615C4.35246 9.12357 3.63138 8.66758 3.11968 8.01514C2.89527 7.71057 2.76203 7.34848 2.73545 6.9711C2.70886 6.5937 2.79006 6.21653 2.96958 5.88349L3.46496 5.01282C4.17811 4.34193 5.0358 3.84375 5.97191 3.55669C6.94385 3.23515 7.9527 3.03843 8.97423 2.97125C9.10162 2.97125 9.22381 2.92063 9.3139 2.83055C9.40399 2.74046 9.45461 2.61827 9.45461 2.49087C9.45461 2.36346 9.40399 2.24129 9.3139 2.1512C9.22381 2.06111 9.10162 2.0105 8.97423 2.0105C7.61479 1.99661 6.26181 2.1993 4.96613 2.61096C4.05313 2.89337 3.20938 3.36382 2.4892 3.99202C2.34744 4.14231 2.21697 4.30287 2.09891 4.4724C1.93419 4.70019 1.78859 4.9412 1.66356 5.19296C1.31856 5.76858 1.14644 6.43131 1.16773 7.10208C1.18903 7.77283 1.40284 8.42331 1.78365 8.9759C2.50706 10.0037 3.57045 10.7428 4.78599 11.0625C5.44467 11.2542 6.1172 11.3947 6.79753 11.4828C7.26291 11.4828 7.72827 11.4828 8.20863 11.5579V11.723C8.19388 11.8527 8.19388 11.9836 8.20863 12.1133C8.26099 12.3406 8.33644 12.5619 8.43381 12.7738C7.56314 13.029 6.69246 13.2692 5.8368 13.6145C5.41647 13.7946 4.98114 14.0048 4.56081 14.2149C4.14048 14.4251 3.75018 14.6653 3.35988 14.9205C2.41414 15.4909 1.54347 16.1064 0.61275 16.7068C0.395427 16.9953 0.194938 17.296 0.0122846 17.6076C-0.015676 17.7307 0.00449751 17.86 0.0686784 17.9689C0.132859 18.0777 0.236198 18.1579 0.357552 18.193C0.653266 18.3183 0.935025 18.4743 1.1982 18.6583C1.90375 19.1388 2.53424 19.7542 3.20976 20.1595C3.90466 20.5372 4.6215 20.8731 5.35642 21.1653C6.31458 21.5077 7.29203 21.7933 8.28369 22.021C8.28369 22.2912 8.10356 22.5465 8.04351 22.8316C8.02107 22.996 8.02107 23.1627 8.04351 23.3271C8.02793 23.4967 8.02793 23.6676 8.04351 23.8374C8.10865 24.169 8.19899 24.4953 8.31372 24.8131H2.30907C2.18412 24.8091 2.0625 24.8538 1.97 24.9378C1.87751 25.0219 1.82142 25.1388 1.81368 25.2636C1.81752 25.3863 1.86549 25.5036 1.94878 25.5937C1.5885 26.4195 1.25825 27.2301 0.958017 28.0857C0.750898 28.7107 0.580476 29.3473 0.447623 29.9922C0.447623 30.2925 0.147389 31.2381 0.0723311 31.8687C0.0467259 32.1471 0.0773559 32.4279 0.1624 32.6943C0.293074 32.9311 0.473418 33.1369 0.691068 33.2976C0.908716 33.4582 1.15853 33.57 1.42338 33.625C2.60443 33.8958 3.81487 34.0168 5.02617 33.9853C8.36295 33.8899 11.6888 33.5589 14.9789 32.9946C15.7144 32.8744 14.8288 32.9946 16.1348 29.4217C16.2699 29.0164 16.405 28.5961 16.525 28.1758C16.6339 27.7818 16.7142 27.3804 16.7652 26.9748C16.7875 26.5993 16.7206 26.2237 16.57 25.879C16.4445 25.5967 16.2126 25.3755 15.9246 25.2636C15.5868 25.1457 15.2316 25.0848 14.8738 25.0834L12.7422 24.8281H11.4361L9.48462 24.9033C9.48462 24.588 9.64975 24.2878 9.7098 23.9575C9.72538 23.7877 9.72538 23.6169 9.7098 23.4471C9.724 23.2723 9.724 23.0965 9.7098 22.9218C9.62799 22.6548 9.52767 22.3941 9.40956 22.141L11.7364 21.1954C12.502 20.715 13.2075 20.3697 13.883 19.9344ZM12.607 26.5996L14.8138 26.7646C14.9487 26.773 15.0842 26.773 15.219 26.7646V26.9899C15.2025 27.2622 15.1674 27.5329 15.114 27.8005C15.0325 28.3068 14.9222 28.8079 14.7837 29.3016C14.5585 30.0973 14.2883 30.8779 14.0782 31.6585C14.0563 31.7268 14.0563 31.8003 14.0782 31.8687C12.9823 31.8687 11.1809 32.0037 9.21441 32.0338H5.85182C4.75596 32.0338 3.44995 32.0338 2.59428 31.8987H1.66356C1.16818 31.8987 1.78365 30.3975 1.81368 30.0372C1.89374 29.3442 2.01909 28.6572 2.18897 27.9807C2.36912 27.2751 2.56427 26.5845 2.78943 25.909C2.79707 25.8592 2.79707 25.8087 2.78943 25.7589L8.53889 26.3893L12.607 26.5996ZM9.30449 20.8951L8.97423 21.1053L4.02039 18.5983C3.25479 18.2982 2.51922 17.8627 1.72361 17.5626C1.64058 17.527 1.55534 17.4969 1.46841 17.4724C2.36911 17.1273 3.2698 16.782 4.14048 16.3917L5.41647 15.7912C5.82178 15.5811 6.2271 15.3709 6.6174 15.1306C7.47306 14.6053 8.29871 14.0348 9.18439 13.4794C9.96499 14.0949 10.6855 14.7254 11.5112 15.2808C11.8842 15.5355 12.27 15.771 12.6671 15.9864C13.0724 16.2115 13.4777 16.4067 13.883 16.5868C14.2884 16.767 14.9338 17.0221 15.3841 17.2323C14.5585 17.5926 13.7329 17.9379 12.9223 18.3732C12.1117 18.8085 11.5712 19.1838 10.8957 19.5741C10.2202 19.9644 9.87492 20.4898 9.30449 20.8951Z" fill="#2B2A29"/>
<path fill-rule="evenodd" clip-rule="evenodd" d="M1.5885 31.7636C1.5885 31.8386 1.5885 31.8686 1.6785 31.8986C1.7685 31.9286 1.6335 31.7036 1.5885 31.7636Z" fill="#2B2A29"/>
<path d="M29.0897 11.1525V9.92159L28.8945 8.52551C28.7942 8.06651 28.5996 7.63335 28.3232 7.25349C28.0466 6.87363 27.6942 6.55535 27.2883 6.3188C26.1509 5.88234 24.9297 5.70789 23.7155 5.80839C22.3644 5.80839 21.0134 5.97353 19.6473 6.00354H17.9361C17.8115 5.99019 17.6864 6.02459 17.586 6.09981C17.4858 6.17502 17.4177 6.28547 17.3957 6.40886C17.3784 6.53415 17.4114 6.66117 17.4873 6.76235C17.5631 6.86352 17.6759 6.93069 17.801 6.94928C18.5841 7.11444 19.376 7.23473 20.1728 7.30956C21.3437 7.44467 22.5146 7.50471 23.6705 7.6248C24.608 7.53948 25.5531 7.64676 26.4476 7.94006C26.9052 8.17943 27.2504 8.58923 27.4083 9.08093L27.6786 10.0717C27.6786 10.417 27.6786 10.7772 27.7536 11.1375V11.3177C27.6035 11.678 28.8495 11.753 29.0147 11.3177C29.0747 11.2276 29.0747 11.1826 29.0897 11.1525Z" fill="#00A3E2"/>
<path d="M26.9882 23.7624C26.9493 24.342 26.8742 24.9186 26.763 25.4887C26.6981 25.8465 26.6025 26.1979 26.4779 26.5395C26.408 26.7948 26.285 27.0325 26.1168 27.2368C25.9487 27.4413 25.7391 27.6078 25.5021 27.7254C24.9249 28.003 24.2958 28.1565 23.6556 28.1758C22.2596 28.3258 20.8485 28.3558 19.4523 28.491C18.8327 28.534 18.216 28.6143 17.606 28.7311C17.4813 28.7532 17.3694 28.8207 17.2917 28.9204C17.214 29.0203 17.1762 29.1454 17.1857 29.2716C17.2043 29.3967 17.2713 29.5095 17.3726 29.5852C17.4737 29.6611 17.6007 29.6941 17.726 29.6769H19.4825C20.9085 29.6769 22.3196 29.902 23.7306 29.9322C24.8363 29.9535 25.9233 29.6451 26.8532 29.0464C27.5121 28.5316 27.9735 27.8053 28.1591 26.9898C28.2852 26.4471 28.3656 25.8948 28.3994 25.3386C28.4294 24.8136 28.4294 24.2874 28.3994 23.7624V22.4863C28.395 22.3287 28.3332 22.1779 28.2255 22.0627C28.1178 21.9475 27.9716 21.8757 27.8145 21.861C27.6575 21.8461 27.5004 21.8895 27.3731 21.9825C27.2457 22.0756 27.1569 22.2121 27.1233 22.3663L26.9882 23.7624Z" fill="#00A3E2"/>
<path d="M35.9952 15.8813C35.7551 12.3535 34.9895 12.6087 34.9293 12.6087H34.8243C33.176 12.3125 31.5119 12.112 29.8404 12.0082H26.3277C25.2768 12.0082 24.2711 12.1133 23.3253 12.2184C22.6116 12.2988 21.9042 12.4293 21.2087 12.6087C20.6652 13.4621 20.2694 14.401 20.0378 15.3859C19.9748 15.7331 19.9346 16.0841 19.9178 16.4366C19.8953 16.7866 19.8953 17.1376 19.9178 17.4875C20.0231 18.3056 20.2298 19.1074 20.5332 19.8743C20.5721 20.0126 20.6616 20.1313 20.784 20.2064C20.9066 20.2816 21.0528 20.3077 21.1937 20.2796C21.266 20.2586 21.3329 20.2222 21.3899 20.173C21.4469 20.1238 21.4926 20.0629 21.524 19.9945C21.5244 20.0912 21.5571 20.1851 21.617 20.2613C21.6768 20.3374 21.7602 20.3914 21.8543 20.4148C22.5443 20.6273 23.253 20.7731 23.9709 20.8501C24.9467 20.9852 28.1591 21.1054 28.7745 21.1654H30.2757C31.9392 21.1304 33.5988 20.99 35.2446 20.7451C35.5899 20.7451 35.6499 21.0002 35.9201 17.5025C35.9864 16.9648 36.0116 16.4228 35.9952 15.8813ZM29.5251 19.484H27.0633C25.9074 19.484 24.7064 19.7092 23.5205 19.7092C23.0186 19.72 22.5165 19.6898 22.0194 19.6192C21.9161 19.5973 21.8084 19.6123 21.7151 19.6616C21.6219 19.7111 21.5489 19.7917 21.509 19.8893V19.7543C21.4785 19.3394 21.4785 18.923 21.509 18.5083C21.509 18.088 21.584 17.6827 21.614 17.2624C21.6441 16.8421 21.614 16.4366 21.614 16.0313V13.6595H22.6949C23.8658 13.6595 25.0217 13.8547 26.2376 13.9447H34.2989C34.2989 14.5452 34.1487 15.1307 34.1037 15.7312V17.8178C34.1037 18.5233 34.2689 19.2139 34.3589 19.9043C32.8277 19.6942 31.1915 19.484 29.5251 19.484Z" fill="#2B2A29"/>
</g>
<defs>
<clipPath id="clip0_2615_436">
<rect width="36" height="36" fill="white"/>
</clipPath>
</defs>
</svg>
