<svg width="36" height="36" viewBox="0 0 36 36" fill="none" xmlns="http://www.w3.org/2000/svg">
<g clip-path="url(#clip0_4482_13158)">
<path d="M34.5938 18C34.5938 18.2238 34.5049 18.4384 34.3466 18.5966C34.1884 18.7549 33.9738 18.8438 33.75 18.8438H31.1639C30.9572 20.399 30.1931 21.8265 29.0135 22.861C27.8339 23.8955 26.319 24.4668 24.75 24.4688H18.8438V28.4062H22.5C23.6189 28.4062 24.6919 28.8507 25.4831 29.6419C26.2743 30.4331 26.7188 31.5061 26.7188 32.625C26.7188 32.8488 26.6299 33.0634 26.4716 33.2216C26.3134 33.3799 26.0988 33.4688 25.875 33.4688C25.6512 33.4688 25.4366 33.3799 25.2784 33.2216C25.1201 33.0634 25.0312 32.8488 25.0312 32.625C25.0312 31.9537 24.7646 31.3098 24.2899 30.8351C23.8152 30.3604 23.1713 30.0938 22.5 30.0938H18.8438V32.625C18.8438 32.8488 18.7549 33.0634 18.5966 33.2216C18.4384 33.3799 18.2238 33.4688 18 33.4688C17.7762 33.4688 17.5616 33.3799 17.4034 33.2216C17.2451 33.0634 17.1562 32.8488 17.1562 32.625V30.0938H13.5C12.8287 30.0938 12.1848 30.3604 11.7101 30.8351C11.2354 31.3098 10.9688 31.9537 10.9688 32.625C10.9688 32.8488 10.8799 33.0634 10.7216 33.2216C10.5634 33.3799 10.3488 33.4688 10.125 33.4688C9.90122 33.4688 9.68661 33.3799 9.52838 33.2216C9.37015 33.0634 9.28125 32.8488 9.28125 32.625C9.28125 31.5061 9.72572 30.4331 10.5169 29.6419C11.3081 28.8507 12.3811 28.4062 13.5 28.4062H17.1562V24.4688H11.25C9.68104 24.4668 8.1661 23.8955 6.98651 22.861C5.80691 21.8265 5.04281 20.399 4.83609 18.8438H2.25C2.02622 18.8438 1.81161 18.7549 1.65338 18.5966C1.49514 18.4384 1.40625 18.2238 1.40625 18C1.40625 17.7762 1.49514 17.5616 1.65338 17.4034C1.81161 17.2451 2.02622 17.1562 2.25 17.1562H5.625C5.84878 17.1562 6.06339 17.2451 6.22162 17.4034C6.37986 17.5616 6.46875 17.7762 6.46875 18C6.46875 19.2681 6.97249 20.4842 7.86915 21.3809C8.7658 22.2775 9.98193 22.7812 11.25 22.7812H24.75C26.0181 22.7812 27.2342 22.2775 28.1309 21.3809C29.0275 20.4842 29.5312 19.2681 29.5312 18C29.5312 17.7762 29.6201 17.5616 29.7784 17.4034C29.9366 17.2451 30.1512 17.1562 30.375 17.1562H33.75C33.9738 17.1562 34.1884 17.2451 34.3466 17.4034C34.5049 17.5616 34.5938 17.7762 34.5938 18Z" fill="black"/>
<path fill-rule="evenodd" clip-rule="evenodd" d="M9.76359 19.2895C9.57827 19.0762 9.44104 18.8256 9.36121 18.5545C9.28137 18.2835 9.26082 17.9984 9.30094 17.7188L11.2303 4.21875C11.2999 3.75095 11.5347 3.32355 11.8923 3.01399C12.2498 2.70442 12.7064 2.53316 13.1794 2.53125H22.8206C23.2936 2.53316 23.7502 2.70442 24.1077 3.01399C24.4653 3.32355 24.7001 3.75095 24.7697 4.21875L26.6991 17.7188C26.7394 17.9982 26.7192 18.2831 26.6397 18.554C26.5602 18.8249 26.4234 19.0756 26.2386 19.289C26.0537 19.5025 25.8251 19.6736 25.5683 19.7909C25.3114 19.9082 25.0323 19.9688 24.75 19.9688H11.25C10.9681 19.9686 10.6894 19.9078 10.433 19.7907C10.1765 19.6735 9.94827 19.5026 9.76359 19.2895ZM11.0377 18.1842C11.064 18.2146 11.0966 18.239 11.1333 18.2558C11.1699 18.2725 11.2097 18.2812 11.25 18.2812L24.735 18.2815C24.7753 18.2815 24.8301 18.2725 24.8667 18.2558C24.8733 18.2508 24.8822 18.2451 24.8922 18.2387C24.9152 18.2239 24.9439 18.2054 24.9623 18.1842C24.9672 18.1714 24.9783 18.1521 24.9903 18.1312C25.0065 18.1029 25.0245 18.0716 25.031 18.0495C25.0396 18.0206 25.037 18.0075 25.0328 17.986C25.0314 17.9788 25.0298 17.9706 25.0284 17.9606L23.0841 4.46088C23.0745 4.3933 23.0407 4.33151 22.989 4.287C22.9373 4.2425 22.8711 4.21834 22.8028 4.21901H13.1644C13.0962 4.21834 13.03 4.2425 12.9783 4.287C12.9265 4.33151 12.8927 4.3933 12.8832 4.46088L10.9687 17.9606C10.9635 18.0006 10.967 18.0413 10.9788 18.0799C10.9907 18.1185 11.0108 18.154 11.0377 18.1842Z" fill="#00A3E2"/>
</g>
<defs>
<clipPath id="clip0_4482_13158">
<rect width="36" height="36" fill="white"/>
</clipPath>
</defs>
</svg>
