<svg width="36" height="36" viewBox="0 0 36 36" fill="none" xmlns="http://www.w3.org/2000/svg">
<g clip-path="url(#clip0_2615_433)">
<path fill-rule="evenodd" clip-rule="evenodd" d="M31.1738 9.63764C30.4478 9.365 29.6822 9.21286 28.907 9.18727C26.415 9.00712 22.4219 9.00712 20.6355 9.00712C21.251 7.64104 22.4669 4.95393 23.0523 3.72295C23.1275 3.5428 23.4426 3.13749 23.4426 2.82224C23.4426 2.507 22.8272 1.8915 22.4069 2.62708C22.4069 2.71716 22.2417 2.94234 22.0916 3.25758C21.251 4.95393 19.1943 9.35241 19.1943 9.35241C19.1495 9.44081 19.1261 9.53852 19.1261 9.63764C19.1261 9.73674 19.1495 9.83447 19.1943 9.92286C19.2471 10.0053 19.3208 10.0723 19.4078 10.1171C19.4948 10.1619 19.592 10.1829 19.6898 10.1781C23.0687 10.1477 26.4468 10.3081 29.8077 10.6584H30.0179C29.9585 10.7717 29.8934 10.882 29.8227 10.9887C28.8815 12.1949 27.8795 13.3523 26.8203 14.4564C24.9138 16.483 22.587 18.8099 20.6355 20.7164C18.9692 22.4127 10.5024 30.324 6.77949 33.3114L6.19403 33.7617C6.54621 32.5662 7.05075 31.4208 7.69521 30.354C9.39156 27.2316 12.1087 23.1333 14.5556 19.0951C14.7102 18.8952 14.7941 18.6498 14.7941 18.3971C14.7941 18.1445 14.7102 17.8989 14.5556 17.6989C14.3531 17.4527 14.0723 17.2832 13.76 17.2187C13.1865 17.1522 12.6072 17.1522 12.0336 17.2187L7.12476 17.3388H6.149C6.26909 17.0685 6.44922 16.7382 6.56933 16.4081C7.92039 12.61 11.5383 3.70794 12.6942 1.39611C13.3397 1.23098 14.8709 1.20096 15.006 1.18594C16.1319 1.09587 17.2878 1.05084 18.4437 1.02081H23.6979C23.763 1.02112 23.8274 1.00776 23.8871 0.981614C23.9466 0.955463 24.0002 0.917096 24.044 0.868994C24.0878 0.820891 24.1211 0.764122 24.1416 0.702356C24.1622 0.640589 24.1695 0.575199 24.1632 0.510409C24.1695 0.44562 24.1622 0.380229 24.1416 0.318462C24.1211 0.256695 24.0878 0.199927 24.044 0.151824C24.0002 0.103722 23.9466 0.0653559 23.8871 0.0392048C23.8274 0.0130537 23.763 -0.000300474 23.6979 5.12903e-06H17.543C16.6724 5.12903e-06 15.7866 5.13345e-06 14.8859 0.105088H12.469C12.2002 0.129197 11.952 0.258732 11.7785 0.465373C10.6976 2.40191 6.6594 11.8144 5.1432 15.7774C4.92057 16.3161 4.73009 16.8675 4.57274 17.4288C4.52012 17.586 4.5119 17.7546 4.54898 17.9163C4.58606 18.0779 4.66701 18.226 4.78292 18.3445C5.03307 18.5529 5.33312 18.6925 5.65359 18.7498C6.15288 18.7969 6.6555 18.7969 7.15479 18.7498L12.0036 18.7649C12.2176 18.7901 12.4287 18.8352 12.6341 18.9C9.76685 23.5086 6.62937 28.1172 5.21826 31.2248C4.76333 32.1108 4.47338 33.0722 4.36257 34.062C4.31808 34.398 4.3626 34.74 4.49169 35.0535C4.62078 35.367 4.8299 35.6411 5.09816 35.8484C5.26371 35.9477 5.45309 36 5.64609 36C5.8391 36 6.02849 35.9477 6.19403 35.8484C6.80183 35.4984 7.37487 35.0911 7.90538 34.6325C11.6283 31.6301 20.0951 23.5086 21.7764 21.8123C24.4635 19.1101 27.7811 15.5523 29.8527 13.1804C30.6594 12.3767 31.2752 11.4019 31.6542 10.3282C31.6418 10.181 31.5909 10.0397 31.5066 9.9185C31.4223 9.79728 31.3074 9.7004 31.1738 9.63764Z" fill="#2B2A29"/>
</g>
<defs>
<clipPath id="clip0_2615_433">
<rect width="36" height="36" fill="white"/>
</clipPath>
</defs>
</svg>
