<svg width="36" height="36" viewBox="0 0 36 36" fill="none" xmlns="http://www.w3.org/2000/svg">
<g clip-path="url(#clip0_2966_12511)">
<path d="M23.6614 17.1983L15.9653 12.0676C15.3493 11.6566 14.5194 12.0666 14.4714 12.8056C14.4701 12.8268 14.4694 12.848 14.4694 12.8693V23.1307C14.4683 23.8712 15.2693 24.3353 15.9112 23.9659C15.9296 23.9553 15.9477 23.9441 15.9653 23.9324L23.6614 18.8016C24.235 18.4211 24.235 17.5788 23.6614 17.1983ZM16.3934 21.3333V14.6666L21.3927 18L16.3934 21.3333ZM34.7357 8.70057C34.4533 7.6035 33.6612 6.70881 32.6064 6.29556C27.1358 4.17753 18.3607 4.21121 17.9968 4.21121C17.6328 4.21121 8.85772 4.17753 3.38068 6.29556C2.32838 6.71049 1.53891 7.6049 1.25786 8.70057C0.849009 10.2863 0.359985 13.1899 0.359985 18C0.359985 22.81 0.849009 25.7137 1.25786 27.2994C1.54024 28.3965 2.33234 29.2911 3.38711 29.7044C8.85772 31.8224 17.6312 31.7887 17.9968 31.7887H18.1106C19.2185 31.7887 27.41 31.7182 32.6129 29.7044C33.6676 29.2911 34.4597 28.3965 34.7421 27.2994C35.151 25.7169 35.64 22.8212 35.64 18C35.64 13.1787 35.1526 10.2863 34.7357 8.70057ZM32.8726 26.8184C32.7474 27.3183 32.3894 27.7276 31.9106 27.9183C26.7799 29.8952 18.0898 29.8647 17.9968 29.8647C17.9038 29.8647 9.22487 29.8968 4.08776 27.9135C3.60896 27.7227 3.25101 27.3135 3.12576 26.8136C2.73935 25.3401 2.284 22.6144 2.284 18C2.284 13.3855 2.73935 10.6599 3.12095 9.18158C3.2462 8.68164 3.60415 8.27239 4.08295 8.08168C9.02767 6.17691 17.2801 6.13522 17.9583 6.13522H17.9968C18.0834 6.13522 26.7687 6.10315 31.9058 8.08649C32.3846 8.2772 32.7425 8.68645 32.8678 9.18639C33.2494 10.6599 33.7047 13.3855 33.7047 18.0048C33.7047 22.624 33.2542 25.3401 32.8726 26.8184Z" fill="black"/>
</g>
<defs>
<clipPath id="clip0_2966_12511">
<rect width="36" height="36" fill="white"/>
</clipPath>
</defs>
</svg>
