<svg width="36" height="36" viewBox="0 0 36 36" fill="none" xmlns="http://www.w3.org/2000/svg">
<g clip-path="url(#clip0_2615_438)">
<path fill-rule="evenodd" clip-rule="evenodd" d="M8.88217 26.7697C8.82332 26.7769 8.76656 26.7961 8.71538 26.8261C8.6642 26.856 8.61968 26.8962 8.58457 26.9439C8.54944 26.9916 8.52445 27.046 8.51113 27.1039C8.49781 27.1617 8.49643 27.2215 8.50709 27.2799C8.61212 27.97 9.25724 27.3999 11.8378 27.73L11.9128 29.7403C11.9001 29.8137 11.9035 29.8888 11.9229 29.9605C11.9423 30.0324 11.9772 30.0991 12.0251 30.156C12.073 30.2128 12.1327 30.2586 12.2001 30.2899C12.2675 30.3214 12.341 30.3376 12.4154 30.3376C12.4897 30.3376 12.5632 30.3214 12.6306 30.2899C12.698 30.2586 12.7578 30.2128 12.8057 30.156C12.8536 30.0991 12.8884 30.0324 12.9078 29.9605C12.9272 29.8888 12.9307 29.8137 12.918 29.7403L13.068 27.835C14.4497 27.9586 15.8381 27.9886 17.2238 27.925C17.2238 29.0052 17.2238 28.7952 17.2989 29.0052C17.2989 30.6855 18.1241 30.9406 18.4241 27.895H22.715C22.79 28.5252 22.715 27.775 22.94 29.8453C22.85 30.4605 23.9601 30.5655 23.9751 29.7703V27.88C26.3907 27.88 26.6757 28.09 26.7057 27.5799C26.9757 26.7997 26.5257 26.8747 24.0051 26.6347V23.4991L25.2804 23.3341C25.3994 23.3054 25.5041 23.235 25.5755 23.1356C25.6469 23.0362 25.68 22.9145 25.6692 22.7926C25.6583 22.6708 25.6038 22.5569 25.5161 22.4717C25.4282 22.3866 25.3125 22.3359 25.1904 22.3289H24.0051C24.0029 21.3256 23.9378 20.3234 23.8101 19.3283C24.3147 19.2959 24.8163 19.2257 25.3104 19.1182C25.4238 19.0445 25.5032 18.9289 25.5314 18.7967C25.5594 18.6645 25.5341 18.5265 25.4604 18.4131C25.1454 17.918 24.2153 17.858 23.6151 17.858C23.4818 17.0306 23.2913 16.2135 23.045 15.4125C23.0396 15.3484 23.0205 15.2862 22.9892 15.2302C22.9578 15.1741 22.9146 15.1253 22.8629 15.0873C22.811 15.0492 22.7517 15.0227 22.6887 15.0095C22.6257 14.9964 22.5608 14.9968 22.4981 15.0109C22.4354 15.025 22.3763 15.0523 22.325 15.0911C22.2737 15.1298 22.2314 15.1792 22.2008 15.2357C22.1702 15.2922 22.1519 15.3547 22.1475 15.4188C22.143 15.4829 22.1523 15.5473 22.1748 15.6075C22.284 16.358 22.3442 17.1147 22.3548 17.873C21.2897 17.873 21.0195 17.7229 18.0339 17.783C17.9912 16.9945 17.8553 16.214 17.6289 15.4575C17.3289 14.9174 16.8638 15.2474 16.8638 15.9226V17.828C14.0432 17.933 15.1534 17.948 13.233 18.053C13.008 15.5325 13.233 15.7726 13.008 15.4575C12.9313 15.4127 12.845 15.387 12.7563 15.3825C12.6677 15.3779 12.5792 15.3947 12.4984 15.4315C12.4175 15.4682 12.3467 15.5238 12.2918 15.5936C12.2369 15.6634 12.1995 15.7454 12.1828 15.8326C12.1078 16.2977 12.0328 17.4979 11.9878 18.098C11.8528 18.098 9.64732 18.098 9.5123 18.203C9.4163 18.2285 9.33142 18.2849 9.27085 18.3636C9.21029 18.4423 9.17744 18.5388 9.17744 18.6381C9.17744 18.7374 9.21029 18.8339 9.27085 18.9126C9.33142 18.9913 9.4163 19.0478 9.5123 19.0732C10.2958 19.209 11.0879 19.2892 11.8828 19.3133C11.7928 20.3935 11.7778 20.5435 11.7477 22.0738C10.8486 22.2615 9.93512 22.3719 9.0172 22.4039C8.95999 22.3954 8.90167 22.3985 8.84564 22.4128C8.78962 22.4272 8.73701 22.4526 8.69092 22.4875C8.64482 22.5224 8.60615 22.5662 8.57716 22.6162C8.54818 22.6663 8.52946 22.7216 8.52209 22.7789C8.41708 23.5441 9.81236 23.3641 11.7477 23.3341V26.4697C10.7859 26.4903 9.82742 26.5906 8.88217 26.7697ZM13.188 26.4547C13.263 25.4345 13.3381 24.4293 13.3981 23.4541C15.3035 23.5891 15.4535 23.6041 16.8038 23.6341C16.8038 24.5193 16.9538 25.4195 17.0438 26.3047L13.188 26.4547ZM22.58 26.4547C21.2361 26.2876 19.8833 26.2024 18.5291 26.1996V23.5741C19.1742 23.5741 22.3848 23.4841 22.3848 23.4841C22.4448 25.1794 22.4748 25.4045 22.58 26.4697V26.4547ZM22.3398 19.1332V22.1338C20.6295 21.9838 20.8395 21.9838 18.4391 21.8788C18.4391 21.0236 18.3041 20.1834 18.2141 19.3433L22.3398 19.1332ZM16.7888 19.4633C16.6838 21.6087 16.6838 21.2186 16.6838 21.8338C15.5793 21.7728 14.4724 21.7728 13.3681 21.8338C13.3842 20.9773 13.3491 20.1206 13.263 19.2683C14.4783 19.4483 15.6335 19.4933 16.7888 19.4633Z" fill="#00A3E2"/>
<path d="M23.6364 5.84071C23.4671 6.97764 23.5908 8.13898 23.9963 9.21459C24.2673 9.74197 24.7218 10.152 25.2743 10.3675C25.8266 10.5829 26.4387 10.5889 26.9952 10.3842C27.3738 10.2925 27.7233 10.1071 28.0115 9.8451C28.2998 9.58309 28.5174 9.25284 28.6448 8.88471C28.8899 8.04325 28.9814 7.16448 28.9146 6.29056V4.10128C28.937 3.76927 28.8869 3.43638 28.7678 3.12565C28.6487 2.81494 28.4634 2.53384 28.2249 2.30188C27.4254 1.75959 26.4504 1.53994 25.4958 1.68709C25.4315 1.68508 25.3674 1.696 25.3076 1.71922C25.2476 1.74243 25.1928 1.77745 25.1468 1.82221C25.1006 1.86697 25.0638 1.92055 25.0388 1.97977C25.0137 2.03899 25.0008 2.10264 25.001 2.16693C24.9641 2.07447 24.8957 1.99807 24.8078 1.95139C24.7199 1.9047 24.6183 1.89075 24.5211 1.91202C24.423 1.93947 24.3333 1.99083 24.2601 2.06149C24.1868 2.13216 24.1322 2.21991 24.1013 2.31688C24.0119 2.8417 23.9766 3.37434 23.9963 3.90636L23.7863 4.82106C23.7081 5.15619 23.658 5.49726 23.6364 5.84071ZM24.881 5.22592C24.881 5.22592 25.1208 2.43684 25.1208 2.33187C25.1586 2.42011 25.2213 2.49544 25.3013 2.54869C25.3811 2.60194 25.4747 2.6308 25.5707 2.63178C26.9202 2.63178 27.4901 2.88669 27.6401 3.41152C27.6887 4.36558 27.6233 5.32204 27.4451 6.26058C27.4491 6.84111 27.3837 7.42003 27.2502 7.98501C27.1452 8.34489 27.0102 8.70477 26.6354 8.79474C26.4891 8.86101 26.3298 8.8938 26.1692 8.89072C26.0087 8.88763 25.8507 8.84877 25.707 8.77693C25.5635 8.7051 25.4376 8.60212 25.3388 8.47549C25.2399 8.34888 25.1706 8.20179 25.1358 8.04498C24.8975 7.12552 24.8114 6.17322 24.881 5.22592Z" fill="#2B2A29"/>
<path d="M12.825 5.37591C12.825 5.52586 12.9299 5.67582 13.5147 5.73579C14.3545 5.73579 14.7143 6.0057 15.869 6.06568H19.6328C20.6673 6.06568 21.2972 5.97571 22.3469 5.90074C22.8417 5.90074 23.2316 4.94106 22.5717 4.77612C21.4322 4.73113 20.6523 4.53619 19.4978 4.53619H16.4988C15.5715 4.53313 14.645 4.58821 13.7247 4.70113C13.0949 4.74612 12.81 5.15098 12.825 5.37591Z" fill="#2B2A29"/>
<path d="M34.4928 6.14074C33.9869 5.59026 33.3207 5.2126 32.5884 5.0611C31.8945 4.87756 31.1756 4.80669 30.4592 4.85118C29.3945 5.00112 29.6794 5.73588 30.2341 5.73588C30.7367 5.73085 31.2386 5.77099 31.7337 5.85585C32.4818 5.90925 33.1826 6.24094 33.6981 6.78553C34.0475 7.48638 34.2466 8.25249 34.2828 9.03478C34.4328 10.2044 34.5528 11.7189 34.6278 13.3833C32.4235 13.3833 27.9999 13.2034 23.0366 13.1134H12.87C7.50174 13.1584 2.83828 13.3384 1.36877 13.3983C1.35925 11.136 1.59048 8.87901 2.05854 6.66558C2.20605 6.39478 2.42234 6.16764 2.68559 6.00706C2.94883 5.84647 3.24976 5.75811 3.55804 5.75088C4.18083 5.59933 4.82226 5.53873 5.46242 5.57094C5.54718 5.55634 5.62509 5.51515 5.68486 5.45331C5.74464 5.39146 5.78316 5.3122 5.79486 5.22699C5.80654 5.14177 5.79081 5.05506 5.74991 4.9794C5.709 4.90374 5.64507 4.84308 5.56739 4.80619C4.63847 4.60497 3.67724 4.60497 2.74832 4.80619C2.38037 4.89471 2.03763 5.06646 1.74648 5.30823C1.45532 5.54998 1.22351 5.85532 1.06887 6.20073C0.484062 7.58026 -0.115739 15.1977 0.0192166 21.9454C0.124182 26.8489 0.708989 31.2424 1.78863 32.562C2.58336 33.5217 4.65269 34.0615 7.26182 34.2714C11.3255 34.5414 16.7236 34.0915 19.5128 34.0915C23.0154 34.2024 26.5215 34.0872 30.0093 33.7465C31.5816 33.6101 33.1109 33.1614 34.5078 32.427C34.9146 32.0821 35.1856 31.6038 35.2725 31.0774C35.8065 27.9982 36.0474 24.8752 35.9924 21.7506C35.9924 15.0328 35.4375 7.25038 34.4928 6.14074ZM34.118 29.323C34.0344 29.9811 33.868 30.6259 33.6231 31.2424C31.945 31.9447 30.1487 32.3214 28.3299 32.352C24.821 32.637 20.9523 32.502 19.5128 32.502C16.7537 32.502 11.4004 32.9668 7.36679 32.727C5.29746 32.607 3.58803 32.397 2.95824 31.6473C1.93859 30.4627 1.50372 26.4291 1.36877 21.9754C1.26908 19.4125 1.25908 16.8468 1.33878 14.283C2.83828 14.283 7.41177 14.523 12.87 14.6279H23.0366C28.0299 14.538 32.4684 14.403 34.6578 14.343C34.6578 15.8425 34.7326 17.5369 34.6578 19.1865C34.6878 22.5732 34.5075 25.9585 34.118 29.323Z" fill="#2B2A29"/>
<path d="M6.72202 5.79569C6.60661 6.99641 6.7237 8.20811 7.0669 9.3645C7.3379 9.89187 7.79245 10.3019 8.34485 10.5174C8.89727 10.7328 9.50941 10.7388 10.0659 10.5341C10.4478 10.446 10.801 10.2621 11.0921 9.99972C11.3833 9.73738 11.603 9.40526 11.7304 9.03461C11.9854 8.18483 12.077 7.29438 12.0003 6.41048V4.22121C12.0207 3.8894 11.9696 3.55706 11.8507 3.24665C11.7317 2.93624 11.5475 2.65496 11.3105 2.4218C10.5138 1.87287 9.53806 1.64771 8.58139 1.79201C8.45015 1.79201 8.32429 1.84415 8.2315 1.93695C8.13869 2.02974 8.08655 2.15561 8.08655 2.28684C8.04976 2.19438 7.98131 2.118 7.89343 2.07131C7.80554 2.02461 7.70393 2.01066 7.60672 2.03193C7.50868 2.05938 7.41901 2.11074 7.34572 2.18141C7.27244 2.25207 7.21784 2.33982 7.18685 2.4368C7.07428 2.92929 7.009 3.4314 6.99193 3.9363L6.82697 4.73103V5.12091L6.72202 5.79569ZM7.9516 5.36082C7.9516 5.36082 8.19152 2.58675 8.19152 2.46678C8.22527 2.559 8.2865 2.63864 8.36695 2.69495C8.44739 2.75126 8.54318 2.78153 8.64137 2.78168C9.99092 2.78168 10.5607 3.0366 10.7107 3.56142C10.7545 4.51608 10.684 5.47254 10.5008 6.41048C10.5021 6.99086 10.4367 7.56947 10.3058 8.13491C10.2158 8.4798 10.0809 8.83968 9.70603 8.92965C9.5597 8.99592 9.40046 9.02871 9.23986 9.02564C9.07927 9.02255 8.92139 8.98368 8.77774 8.91185C8.63407 8.84001 8.50825 8.73704 8.40943 8.61041C8.31061 8.48379 8.24129 8.3367 8.20652 8.17989C7.96546 7.2609 7.8793 6.30816 7.9516 5.36082Z" fill="#2B2A29"/>
</g>
<defs>
<clipPath id="clip0_2615_438">
<rect width="36" height="36" fill="white"/>
</clipPath>
</defs>
</svg>
