<svg width="36" height="36" viewBox="0 0 36 36" fill="none" xmlns="http://www.w3.org/2000/svg">
<g clip-path="url(#clip0_2615_429)">
<path fill-rule="evenodd" clip-rule="evenodd" d="M13.7748 16.0377L13.1448 15.9477C13.1448 15.7677 13.2198 15.5877 13.2498 15.3927C13.2798 15.1977 13.3248 14.7477 13.3398 14.4327C13.3398 13.6527 13.3398 12.9327 13.2648 12.1377C13.2827 12.0064 13.2477 11.8734 13.1675 11.7679C13.0873 11.6624 12.9686 11.5931 12.8373 11.5752C12.706 11.5573 12.573 11.5923 12.4675 11.6724C12.362 11.7526 12.2927 11.8714 12.2748 12.0027C12.0348 12.7377 11.7498 13.4277 11.5548 14.1927C11.4718 14.513 11.4116 14.8388 11.3748 15.1677V15.6627L10.8798 15.4827C9.57476 14.7477 10.1598 15.2727 10.7898 14.3577L12.3798 11.6727C12.4594 11.5665 12.4946 11.4336 12.4778 11.3019C12.461 11.1703 12.3935 11.0504 12.2898 10.9677C12.1879 10.8872 12.0585 10.8499 11.9294 10.864C11.8004 10.878 11.682 10.9422 11.5998 11.0427L9.40976 13.2777C9.18476 13.5177 8.92976 13.7427 8.73476 13.9677C8.47392 14.2504 8.30634 14.6065 8.25476 14.9877C8.25476 15.5277 8.32976 16.1577 9.28976 16.7127L10.2948 17.1027L11.3148 17.2527V18.4527C11.3088 18.5256 11.3174 18.5989 11.3398 18.6685C11.3622 18.7381 11.3981 18.8026 11.4455 18.8583C11.4929 18.9139 11.5507 18.9598 11.6158 18.9931C11.6809 19.0266 11.7519 19.0467 11.8248 19.0527C11.8976 19.0585 11.971 19.0501 12.0406 19.0276C12.1102 19.0051 12.1747 18.9693 12.2304 18.9219C12.2861 18.8746 12.3319 18.8167 12.3653 18.7516C12.3986 18.6865 12.4188 18.6156 12.4248 18.5427C12.5298 18.0777 12.6498 17.6427 12.7548 17.1927H13.5648C13.7137 17.2053 13.8615 17.1588 13.9766 17.0634C14.0916 16.968 14.1646 16.8313 14.1798 16.6827C14.2073 16.5438 14.1806 16.3996 14.1054 16.2798C14.0301 16.1598 13.9118 16.0732 13.7748 16.0377Z" fill="#00A3E2"/>
<path fill-rule="evenodd" clip-rule="evenodd" d="M27.1686 15.7226H26.5386V15.1676C26.5611 14.843 26.5611 14.5172 26.5386 14.1926C26.4486 13.4126 26.2836 12.6926 26.1486 11.9276C26.1486 11.7963 26.0964 11.6704 26.0037 11.5776C25.9109 11.4848 25.7849 11.4326 25.6536 11.4326C25.5224 11.4326 25.3965 11.4848 25.3037 11.5776C25.2108 11.6704 25.1586 11.7963 25.1586 11.9276C25.0236 12.6926 24.8286 13.4276 24.7386 14.2076C24.7158 14.5322 24.7158 14.858 24.7386 15.1826V15.6776L24.2286 15.5726C22.8186 15.0176 23.4786 15.4676 23.9886 14.4626L25.2186 11.5976C25.2537 11.5429 25.2773 11.4817 25.2879 11.4176C25.2986 11.3535 25.2962 11.2879 25.2807 11.2248C25.2653 11.1617 25.2372 11.1024 25.1982 11.0504C25.1591 10.9985 25.11 10.955 25.0536 10.9226C24.9411 10.8597 24.809 10.8418 24.6837 10.8724C24.5585 10.903 24.4494 10.9799 24.3786 11.0876L22.4736 13.5026C22.2786 13.7726 22.0536 14.0276 21.8886 14.2826C21.678 14.5992 21.5586 14.9677 21.5436 15.3476C21.5606 15.7118 21.6933 16.061 21.9227 16.3443C22.152 16.6277 22.466 16.8303 22.8186 16.9226L23.8536 17.1776H24.9336C25.0086 17.5676 25.0686 17.9576 25.1586 18.3626C25.1586 18.5099 25.2171 18.651 25.3212 18.7551C25.4253 18.8592 25.5665 18.9176 25.7136 18.9176C25.8608 18.9176 26.0021 18.8592 26.106 18.7551C26.2101 18.651 26.2686 18.5099 26.2686 18.3626C26.2686 17.8976 26.3586 17.4326 26.4186 16.9826L27.2136 16.8326C27.2871 16.8327 27.3599 16.8179 27.4275 16.7889C27.495 16.7598 27.5559 16.7174 27.6065 16.664C27.657 16.6107 27.6962 16.5476 27.7215 16.4786C27.7467 16.4096 27.7577 16.3361 27.7536 16.2626C27.7517 16.1885 27.735 16.1154 27.7043 16.0478C27.6737 15.9801 27.6299 15.9194 27.5753 15.869C27.5207 15.8187 27.4566 15.7797 27.3867 15.7547C27.317 15.7295 27.2427 15.7187 27.1686 15.7226Z" fill="#00A3E2"/>
<path fill-rule="evenodd" clip-rule="evenodd" d="M19.7592 12.8125C18.6942 12.0625 18.0942 12.2725 16.9842 12.8125C16.551 13.0445 16.1685 13.3607 15.8592 13.7425C15.4167 14.2509 15.126 14.8734 15.0198 15.5391C14.9138 16.2046 14.9967 16.8867 15.2592 17.5075C15.4806 17.9811 15.8393 18.3774 16.2887 18.6448C16.7379 18.9123 17.2572 19.0386 17.7792 19.0075C18.3443 18.9724 18.8909 18.7926 19.3664 18.4853C19.8419 18.1779 20.2302 17.7534 20.4942 17.2526C20.7515 16.8017 20.9147 16.3035 20.9739 15.7878C21.0333 15.2722 20.9874 14.7499 20.8392 14.2525C20.635 13.6732 20.2581 13.1706 19.7592 12.8125ZM18.9792 16.2775C18.854 16.4997 18.6765 16.6881 18.4622 16.8267C18.248 16.9652 18.0033 17.0494 17.7492 17.0725C17.5185 17.1021 17.2848 17.047 17.0918 16.9173C16.8986 16.7877 16.7591 16.5922 16.6992 16.3674C16.5926 16.0647 16.5548 15.7421 16.5885 15.423C16.6223 15.1038 16.7267 14.7962 16.8942 14.5225C18.1842 12.5125 19.3092 13.9525 19.4442 14.5975C19.5179 15.1969 19.3506 15.8011 18.9792 16.2775Z" fill="#00A3E2"/>
<path fill-rule="evenodd" clip-rule="evenodd" d="M32.5677 13.3224C32.4471 13.0113 32.3016 12.7103 32.1327 12.4225C31.9977 12.1975 31.8177 11.9875 31.6527 11.7626C31.7474 11.7636 31.8405 11.7391 31.9224 11.6916C32.0043 11.6441 32.0718 11.5753 32.1177 11.4926C32.4751 10.7563 32.6782 9.95466 32.7142 9.137C32.7504 8.31931 32.6189 7.50291 32.3277 6.73799C32.07 5.95689 31.6792 5.22621 31.1728 4.57817C30.6192 3.90097 29.9157 3.36181 29.118 3.0033C28.1604 2.63986 27.1424 2.46172 26.1182 2.47834C24.7269 2.50739 23.3493 2.76062 22.0386 3.22829C22.0386 3.1083 21.9336 2.97332 21.8586 2.85332C20.9727 1.76498 19.8056 0.940179 18.4839 0.468524C17.5214 0.128975 16.5042 -0.02869 15.4842 0.00356387C14.4977 0.0531011 13.5301 0.292453 12.6344 0.708502C11.7393 1.11165 10.9459 1.7103 10.3125 2.46042C9.67922 3.21055 9.22208 4.09308 8.97471 5.04314C8.27715 4.96888 7.57203 5.01454 6.88989 5.17812C5.6702 5.63339 4.62201 6.45621 3.89015 7.53291C3.6315 7.92978 3.4626 8.37832 3.39525 8.84721C3.32789 9.31611 3.36371 9.79405 3.50018 10.2477C3.60872 10.577 3.77088 10.8861 3.98013 11.1626C4.22012 11.4776 4.49009 11.7626 4.73007 12.0325C4.55009 12.1825 4.3551 12.3175 4.19012 12.4825C4.01475 12.6566 3.86343 12.8533 3.74016 13.0674C3.35034 13.6552 3.12525 14.3368 3.08832 15.0411C3.05138 15.7453 3.20397 16.4468 3.53018 17.0721C4.59344 18.7684 6.16955 20.0819 8.02979 20.8218C8.90501 21.2444 9.81923 21.5809 10.7595 21.8267C11.8026 22.1247 12.8651 22.3501 13.9393 22.5016L15.1542 22.6667C16.9272 22.8603 18.7132 22.9054 20.4937 22.8016L21.7986 22.6966C23.8033 22.4688 25.767 21.9641 27.6332 21.1968C29.5781 20.4928 31.2344 19.1634 32.3427 17.4171C32.6774 16.7925 32.8709 16.1022 32.9099 15.3947C32.9487 14.6872 32.8319 13.9799 32.5677 13.3224ZM30.6479 17.4471C29.6324 18.5052 28.3695 19.2938 26.9732 19.7418C25.0847 20.4214 23.111 20.8353 21.1086 20.9718C19.0833 21.118 17.0486 21.0629 15.0342 20.8068C13.9166 20.6987 12.8052 20.5335 11.7045 20.3118C10.6278 20.1012 9.57321 19.7898 8.55474 19.382C7.0014 18.839 5.65118 17.8341 4.68507 16.5021C4.43348 16.0693 4.30095 15.5778 4.30095 15.0772C4.30095 14.5767 4.43348 14.0851 4.68507 13.6524C4.7816 13.4845 4.89737 13.3285 5.03004 13.1874L5.51 12.7525C5.78406 12.548 6.07509 12.3674 6.37992 12.2125C6.73571 12.0497 7.10141 11.9094 7.47483 11.7926C7.59789 11.7484 7.6985 11.6574 7.7547 11.5394C7.81089 11.4214 7.81812 11.2859 7.7748 11.1626C7.72776 11.0423 7.63554 10.9451 7.51784 10.8919C7.40015 10.8386 7.26629 10.8335 7.14486 10.8776C6.74559 10.9902 6.35468 11.1305 5.97497 11.2976L5.525 11.5526C5.33003 11.2526 5.12004 10.9376 4.94006 10.6077C4.85556 10.417 4.79996 10.2148 4.77507 10.0077C4.75712 9.73401 4.7958 9.45955 4.88871 9.20148C4.98162 8.94342 5.12675 8.70728 5.31503 8.50784C5.89755 7.78031 6.67151 7.22972 7.54983 6.91797C8.20062 6.63499 8.9153 6.53142 9.61965 6.618C9.9287 6.62213 10.2309 6.70923 10.4948 6.87018C10.7587 7.03113 10.9744 7.26002 11.1195 7.53291C11.1645 7.67529 11.2635 7.79434 11.3954 7.86447C11.5272 7.9346 11.6813 7.95018 11.8245 7.90788C11.8938 7.88889 11.9587 7.85625 12.0153 7.81183C12.0719 7.76743 12.119 7.71217 12.1539 7.64929C12.1889 7.58643 12.2109 7.5172 12.2187 7.44571C12.2265 7.37421 12.22 7.30187 12.1994 7.23294C12.0853 6.80754 11.8683 6.41676 11.5675 6.09504C11.2667 5.7733 10.8914 5.53053 10.4746 5.3881C10.3096 5.3881 10.0996 5.3881 9.91962 5.26811C10.2357 4.55895 10.6985 3.9249 11.2777 3.4078C11.8568 2.89072 12.539 2.50236 13.2793 2.26837C14.0158 2.00424 14.7918 1.86731 15.5742 1.8634C16.3848 1.81123 17.1981 1.90782 17.9739 2.14838C18.8805 2.36175 19.7332 2.76005 20.4788 3.31828C20.8169 3.58479 21.0938 3.921 21.2904 4.30403C21.4872 4.68707 21.5991 5.10795 21.6186 5.53809C21.6224 5.68407 21.6821 5.82303 21.7854 5.92629C21.8886 6.02956 22.0276 6.08925 22.1736 6.09305C22.2465 6.09504 22.319 6.08265 22.3871 6.05659C22.4552 6.03052 22.5175 5.99132 22.5705 5.94117C22.6233 5.89103 22.6659 5.83094 22.6956 5.76435C22.7253 5.69776 22.7415 5.62598 22.7435 5.55309C22.7796 5.08286 22.7288 4.61001 22.5936 4.15821C23.5425 3.98082 24.5091 3.91537 25.4733 3.96322C26.4822 3.98899 27.4741 4.22931 28.383 4.66817C28.9227 4.91954 29.3994 5.28854 29.7778 5.74808C30.1948 6.19767 30.5481 6.70233 30.8279 7.24794C31.1245 7.81042 31.3065 8.42625 31.3631 9.05966C31.4198 9.69308 31.35 10.3314 31.1579 10.9376V11.0876C31.07 11.0331 30.9687 11.0043 30.8654 11.0043C30.762 11.0043 30.6606 11.0331 30.5728 11.0876C30.5133 11.1291 30.4631 11.1824 30.4251 11.2443C30.3871 11.3061 30.3625 11.3752 30.3526 11.4471C30.3428 11.5189 30.348 11.5921 30.3678 11.6619C30.3876 11.7317 30.4216 11.7966 30.4678 11.8525C30.6778 12.1525 30.8878 12.4375 31.0679 12.7225C31.2405 13.006 31.3813 13.3078 31.4877 13.6224C31.7244 14.274 31.771 14.9794 31.6224 15.6566C31.4736 16.3337 31.1357 16.9545 30.6479 17.4471Z" fill="#2B2A29"/>
<path fill-rule="evenodd" clip-rule="evenodd" d="M19.6245 24.7065C19.5863 24.849 19.5863 24.999 19.6245 25.1415C19.6745 25.3034 19.781 25.4418 19.9245 25.5315C20.1923 25.6889 20.4798 25.8099 20.7795 25.8915C21.9795 26.2965 23.5095 25.5765 22.4295 27.3165C22.0346 27.914 21.5825 28.4717 21.0795 28.9815C19.9995 30.2565 18.8445 31.5765 17.6145 32.7915C17.1195 33.2565 16.5945 33.6615 16.1145 34.0815C16.4295 33.4815 16.7295 32.8965 17.0295 32.2815C17.3295 31.6665 17.6745 30.9015 17.9445 30.1965C18.1499 29.6774 18.3056 29.1401 18.4095 28.5915C18.5031 28.0898 18.4617 27.5721 18.2895 27.0915C18.1907 26.9111 18.0453 26.7603 17.8686 26.6549C17.6919 26.5493 17.4903 26.493 17.2845 26.4915H13.3245C13.5345 26.2065 13.7895 25.9065 13.8345 25.8165L14.5095 24.4515L14.8995 23.7615C15.2445 23.1615 13.6545 23.1615 13.4895 23.7615L13.0545 24.3465L12.5595 25.1415C12.2333 25.5579 11.9327 25.9937 11.6595 26.4465C11.5141 26.7281 11.4616 27.0483 11.5095 27.3615C11.5769 27.5957 11.7259 27.7977 11.9295 27.9315C12.3043 28.1198 12.7029 28.256 13.1145 28.3365C13.5016 28.4037 13.8923 28.4487 14.2845 28.4715H15.9195L16.6845 28.3065C16.6919 28.3964 16.6919 28.4867 16.6845 28.5765C16.6323 28.952 16.5521 29.3231 16.4445 29.6865C16.2645 30.3765 16.0395 31.0515 15.7995 31.7115C15.4095 32.7465 14.9745 33.7665 14.5995 34.8015C14.4495 35.1465 15.1395 36.3015 15.7545 35.9265C17.0502 35.1695 18.2708 34.2905 19.3995 33.3015C20.5245 32.3265 21.5895 31.2765 22.5945 30.3015C23.196 29.7078 23.7294 29.0487 24.1845 28.3365C24.5507 27.7467 24.743 27.0657 24.7395 26.3715C24.7277 26.1294 24.6573 25.8938 24.5346 25.6848C24.4118 25.4759 24.2402 25.2998 24.0345 25.1715C23.168 24.828 22.2506 24.6303 21.3195 24.5865V24.1065C21.3945 23.5815 20.6595 23.5065 20.1645 24.0315C19.9706 24.2451 19.7903 24.4706 19.6245 24.7065Z" fill="#2B2A29"/>
</g>
<defs>
<clipPath id="clip0_2615_429">
<rect width="36" height="36" fill="white"/>
</clipPath>
</defs>
</svg>
