<svg width="36" height="36" viewBox="0 0 36 36" fill="none" xmlns="http://www.w3.org/2000/svg">
<g clip-path="url(#clip0_2615_412)">
<path d="M13.883 29.4209C12.7622 29.6268 11.6083 29.5596 10.519 29.2248C9.4053 28.9016 8.35454 28.3914 7.41157 27.7164C5.31763 26.129 3.7425 23.9553 2.88612 21.4711C1.97775 18.9935 1.6175 16.348 1.83018 13.7176C1.90727 11.7781 2.46789 9.8887 3.46109 8.22106C4.4543 6.55342 5.84858 5.16049 7.51718 4.16889C10.9722 2.22829 14.9254 1.35681 18.876 1.66482C20.7153 1.88322 22.4826 2.5099 24.0486 3.49908C25.6144 4.48824 26.9396 5.81487 27.927 7.38196C30.0991 10.503 31.0296 14.3218 30.5367 18.0923C30.5142 18.2081 30.5379 18.3281 30.6027 18.4268C30.6675 18.5254 30.7683 18.5948 30.8836 18.6203C30.9402 18.6359 30.9993 18.6395 31.0574 18.6309C31.1154 18.6223 31.171 18.6018 31.2207 18.5706C31.2703 18.5394 31.313 18.4981 31.3458 18.4496C31.3788 18.401 31.4012 18.3461 31.4115 18.2883C32.0763 14.2616 31.2042 10.1322 28.9678 6.71823C27.9172 4.94581 26.4831 3.43107 24.7708 2.28516C23.0584 1.13925 21.1113 0.391234 19.0722 0.09599C14.7505 -0.314055 10.406 0.595861 6.61207 2.70567C4.7323 3.84343 3.1667 5.43297 2.05758 7.32979C0.948465 9.22662 0.331016 11.3706 0.26136 13.5667C0.0974132 16.4119 0.555562 19.2587 1.6039 21.9087C2.60559 24.6161 4.39116 26.9634 6.73277 28.6516C7.80351 29.3526 8.98757 29.863 10.2324 30.16C11.4926 30.4983 12.8133 30.5446 14.0942 30.2958C14.2268 30.2635 14.3418 30.1811 14.4149 30.0657C14.4881 29.9503 14.5137 29.8111 14.4864 29.6773C14.4315 29.5708 14.3412 29.487 14.231 29.4402C14.1208 29.3933 13.9977 29.3865 13.883 29.4209Z" fill="#2B2A29"/>
<path d="M20.3091 32.3323C21.3486 31.3426 22.2976 30.2623 23.145 29.1042C23.7912 28.2562 24.2163 27.261 24.382 26.2078C24.4896 25.5574 24.3811 24.8896 24.0733 24.3067C23.7655 23.7237 23.2752 23.2576 22.6774 22.9797C22.2787 22.7697 21.84 22.6464 21.3903 22.6177C20.9406 22.5892 20.4898 22.656 20.0677 22.8138C18.9153 23.1967 17.9367 23.9775 17.3073 25.0161C17.1607 25.3087 17.0347 25.6111 16.93 25.9212C16.8385 26.2372 16.773 26.56 16.734 26.8867C16.7253 27.006 16.7626 27.1242 16.8385 27.2167C16.9143 27.3093 17.0226 27.3693 17.1412 27.3844C17.1988 27.3907 17.2569 27.3855 17.3124 27.3691C17.3679 27.3528 17.4196 27.3256 17.4645 27.289C17.5093 27.2526 17.5465 27.2076 17.574 27.1566C17.6013 27.1057 17.6184 27.0498 17.6239 26.9923C17.6682 26.7342 17.7388 26.4814 17.8351 26.238C17.9559 25.9816 18.0765 25.7403 18.1972 25.5291C18.6402 24.8908 19.266 24.4018 19.9923 24.1261C20.2872 23.9689 20.6161 23.8867 20.9502 23.8867C21.2842 23.8867 21.6133 23.9689 21.9081 24.1261C22.3194 24.3789 22.6137 24.7843 22.7268 25.2535C22.8399 25.7229 22.7625 26.2179 22.5115 26.6302C21.6507 28.3159 20.5135 29.8455 19.1476 31.1557C18.5415 31.6747 17.9812 32.245 17.4732 32.8603C17.3611 33.0265 17.2867 33.2154 17.2555 33.4134C17.2242 33.6115 17.2368 33.814 17.2921 34.0068C17.3424 34.1466 17.4204 34.2748 17.5215 34.3836C17.6226 34.4925 17.7447 34.5798 17.8804 34.6402C18.1884 34.7659 18.5142 34.8423 18.8458 34.8666L22.4059 35.1229H24.0049C24.1239 35.1024 24.2319 35.0403 24.3097 34.9479C24.3874 34.8555 24.4302 34.7385 24.4302 34.6176C24.4302 34.4968 24.3874 34.3798 24.3097 34.2874C24.2319 34.195 24.1239 34.1329 24.0049 34.1124H22.5567L19.1476 33.6295L18.9364 33.5391L19.1778 33.343C19.5549 32.9055 20.128 32.5134 20.3091 32.3323Z" fill="#00A3E2"/>
<path d="M35.3639 29.3003C34.9565 29.0891 34.0967 29.3003 32.543 29.5566V29.1795C32.543 27.6711 32.3166 26.3285 32.2413 25.4838C32.2374 25.365 32.1887 25.2521 32.1045 25.1679C32.0205 25.0839 31.9076 25.035 31.7888 25.0313C31.73 25.0313 31.6718 25.043 31.6178 25.0659C31.5636 25.0889 31.5147 25.1225 31.4739 25.1646C31.4331 25.2069 31.4012 25.2569 31.3802 25.3118C31.359 25.3665 31.3493 25.425 31.3512 25.4838C31.2456 26.3135 31.0043 27.656 30.8987 29.1494V29.7075L29.8428 29.8283C29.0993 29.873 28.3538 29.873 27.6102 29.8283H27.0219C26.8857 29.8307 26.751 29.7996 26.6297 29.7377C26.7504 29.3606 28.1382 25.8458 28.7265 24.5334C28.9338 24.0014 29.2022 23.4953 29.526 23.025C29.6055 22.9386 29.6496 22.8255 29.6496 22.7082C29.6496 22.5908 29.6055 22.4777 29.526 22.3914C29.4414 22.3085 29.3277 22.262 29.2092 22.262C29.0907 22.262 28.977 22.3085 28.8924 22.3914C28.4651 22.8473 28.0953 23.354 27.7913 23.8998C27.1124 25.1369 26.5542 26.585 25.9659 27.7163C25.5902 28.3145 25.3055 28.9652 25.1213 29.6472C25.0839 29.8497 25.0959 30.0584 25.1564 30.2553C25.2168 30.4523 25.3238 30.6317 25.4682 30.7785C25.685 30.9995 25.9551 31.1606 26.2526 31.2462C26.72 31.3686 27.2031 31.4195 27.6857 31.397C28.3193 31.397 28.9679 31.3217 29.6316 31.2311C30.2954 31.1406 30.5066 31.05 30.944 30.9596V31.4121C30.9735 32.6538 31.0743 33.8928 31.2456 35.123C31.2579 35.2868 31.2884 35.4486 31.3362 35.6057C31.472 35.9526 31.7133 36.0131 31.8491 35.9979C31.9851 35.9979 32.1155 35.9439 32.2118 35.8478C32.3079 35.7515 32.3619 35.6211 32.3619 35.4851C32.3619 35.4851 32.5278 33.0111 32.6033 31.4273V30.6428C33.1161 30.5523 34.67 30.3864 35.213 30.2204C35.756 30.0545 35.756 29.8433 35.7711 29.7227C35.7527 29.6198 35.7041 29.5248 35.6316 29.4497C35.559 29.3745 35.4659 29.3225 35.3639 29.3003Z" fill="#00A3E2"/>
<path d="M18.318 16.9005C18.4339 16.5141 18.4899 16.1123 18.4839 15.7088C18.4839 15.03 18.4839 14.0344 18.3933 12.9181C18.2727 10.8817 18.0313 8.39266 17.986 6.55231C17.986 6.41627 17.932 6.28583 17.8359 6.18964C17.7396 6.09346 17.6092 6.03943 17.4732 6.03943C17.3371 6.03943 17.2066 6.09346 17.1105 6.18964C17.0143 6.28583 16.9603 6.41627 16.9603 6.55231C16.8246 8.43791 16.7943 10.942 16.7943 12.9935V15.9954H15.859L13.4455 16.1463L9.41788 16.2368C9.35918 16.2327 9.30028 16.2405 9.24467 16.2597C9.18907 16.2789 9.13792 16.3091 9.09425 16.3485C9.0506 16.388 9.01535 16.4358 8.9906 16.4892C8.96585 16.5426 8.95213 16.6004 8.95024 16.6592C8.94607 16.7768 8.98783 16.8912 9.06667 16.9785C9.14551 17.0658 9.25525 17.1191 9.37262 17.1267C11.0772 17.2928 14.0037 17.6246 15.8742 17.6547C16.5193 17.7054 17.1684 17.639 17.79 17.4587C17.9136 17.4101 18.0249 17.3349 18.1161 17.2383C18.2073 17.1419 18.2763 17.0265 18.318 16.9005Z" fill="#2B2A29"/>
</g>
<defs>
<clipPath id="clip0_2615_412">
<rect width="36" height="36" fill="white"/>
</clipPath>
</defs>
</svg>
