<svg width="36" height="36" viewBox="0 0 36 36" fill="none" xmlns="http://www.w3.org/2000/svg">
<g clip-path="url(#clip0_2615_423)">
<path fill-rule="evenodd" clip-rule="evenodd" d="M11.7097 11.6589C11.661 11.6491 11.6107 11.651 11.5629 11.6643C11.5152 11.6777 11.4712 11.7022 11.4347 11.7358C11.3982 11.7694 11.3701 11.8111 11.3528 11.8577C11.3355 11.9042 11.3295 11.9541 11.3352 12.0034C11.2003 12.8423 11.0206 13.6812 10.8108 14.5052C10.3015 16.4526 9.64236 18.3852 9.13302 20.3176C8.98321 20.9019 8.54877 21.6808 8.38398 22.3999C8.27785 22.7974 8.27785 23.2159 8.38398 23.6134C8.66572 24.2656 9.17013 24.7966 9.80713 25.1115C11.0893 25.6696 12.439 26.0574 13.8219 26.265C14.8256 26.4897 15.8143 26.7144 16.818 26.8941C17.4922 27.0289 18.1813 27.1338 18.8554 27.2236C19.3851 27.3097 19.923 27.3349 20.4583 27.2986C20.9067 27.2548 21.3331 27.0832 21.6867 26.8042C22.1832 26.3518 22.5546 25.7791 22.7653 25.1413C23.1159 23.8654 23.3911 22.5699 23.5893 21.2614C23.8888 20.1379 24.5181 17.8758 24.8176 16.7673C24.9448 16.3224 25.0251 15.8655 25.0573 15.4041C25.0771 15.0121 24.9723 14.6241 24.7578 14.2955C24.4728 13.9201 24.1032 13.6173 23.6791 13.4116C23.1375 13.1418 22.5703 12.926 21.9864 12.7674C21.0718 12.4635 20.1417 12.2084 19.2 12.0034C17.0128 11.569 14.7058 11.3143 12.5785 10.9098C12.4799 10.8956 12.3794 10.9183 12.2965 10.9736C12.2136 11.0289 12.154 11.1129 12.1291 11.2095C12.1113 11.3086 12.1325 11.4107 12.1884 11.4945C12.2442 11.5783 12.3304 11.6372 12.4287 11.6589C13.3426 11.8536 14.2714 12.0184 15.2001 12.1682C14.9754 13.067 14.7358 13.9509 14.4961 14.8348L11.4999 14.5651C11.6797 13.7262 11.8445 12.8873 11.9494 12.0334C11.9634 11.9523 11.9466 11.8689 11.9022 11.7996C11.8578 11.7303 11.7892 11.6801 11.7097 11.6589ZM10.5112 18.6997C11.4878 18.8146 12.4578 18.9796 13.4175 19.1941C13.4175 19.4038 13.3126 19.5985 13.2677 19.8084C13.1628 20.2578 13.0729 20.7072 12.968 21.1566C11.9044 21.0667 10.8708 21.0517 9.85209 21.0667C9.92698 20.8569 10.0019 20.6472 10.0468 20.4675C10.1817 19.8832 10.3464 19.299 10.5112 18.6997ZM9.43263 23.1939C9.32859 22.9033 9.32859 22.5856 9.43263 22.2951C9.43263 22.1302 9.52251 21.9805 9.58243 21.8157L11.455 22.0854L12.6834 22.3251C12.5336 22.9842 12.3688 23.6433 12.1891 24.2875C12.1686 24.3675 12.1752 24.4519 12.2077 24.5278C12.2402 24.6036 12.2968 24.6666 12.3688 24.7069C11.8603 24.6088 11.3596 24.4737 10.8708 24.3025C10.5619 24.2308 10.2723 24.0934 10.0215 23.8995C9.77068 23.7055 9.56472 23.4598 9.41764 23.1789L9.43263 23.1939ZM20.9976 25.7706C20.7819 25.9176 20.5245 25.9912 20.2636 25.9803C19.8921 25.9825 19.5213 25.9525 19.155 25.8904C18.331 25.7856 17.5071 25.6507 16.6833 25.5009C15.8593 25.3512 15.0054 25.1863 14.1216 25.0066C13.7021 24.9166 13.1628 24.8418 12.6235 24.7369C12.697 24.7392 12.7695 24.7189 12.8311 24.6787C12.8927 24.6385 12.9405 24.5805 12.968 24.5122C13.2227 23.8381 13.4774 23.1789 13.7171 22.5048L15.0204 22.7295C16.8031 23.0442 18.6157 23.3437 20.2935 23.7481C20.3407 23.7619 20.3902 23.7663 20.4391 23.761C20.488 23.7556 20.5354 23.7406 20.5785 23.7171C20.6217 23.6934 20.6596 23.6614 20.6904 23.6232C20.7213 23.5848 20.7442 23.5407 20.7579 23.4936C20.7765 23.4465 20.7844 23.3959 20.7811 23.3455C20.778 23.2951 20.7637 23.2459 20.7394 23.2017C20.7151 23.1573 20.6814 23.1189 20.6406 23.089C20.5998 23.0593 20.5528 23.0388 20.5033 23.0292C19.2898 22.5798 18.0165 22.1602 16.6981 21.8157C16.1439 21.6658 15.5896 21.5461 15.0204 21.4411C14.7208 21.4411 14.4212 21.3513 14.1066 21.3064C14.2264 20.9469 14.3463 20.6023 14.4511 20.2578C14.556 19.9132 14.6009 19.7184 14.6608 19.4637L15.5596 19.6585L17.5971 20.1079C19.23 20.4675 20.8479 20.842 22.4058 21.2614C22.2411 22.1004 22.1062 23.1789 21.8215 24.1677C21.6982 24.7671 21.4132 25.3215 20.9976 25.7706ZM22.4956 20.4975C21.2523 20.0181 19.9639 19.5387 18.6457 19.1341C18.0315 18.9544 17.4322 18.7896 16.8031 18.6399C16.1739 18.49 15.5596 18.3852 14.9305 18.2953C15.0654 17.6961 15.2001 17.1118 15.3049 16.5126C15.3123 16.3779 15.3123 16.2429 15.3049 16.108L17.4022 16.5724L19.5595 16.992L23.3346 17.7259L22.4956 20.4975ZM19.0201 12.9023C19.9341 13.112 20.8479 13.3517 21.7467 13.6363C22.2619 13.7998 22.7629 14.0052 23.2447 14.2505C23.5068 14.3911 23.7364 14.585 23.9188 14.8198C24.0057 14.9691 24.0424 15.1423 24.0237 15.3141C23.9829 15.691 23.9025 16.0626 23.784 16.4227L23.6343 16.8721C22.3609 16.4826 21.0876 16.0932 19.7842 15.7785C18.7506 15.5239 17.7169 15.3141 16.6833 15.1344L15.5298 14.9846C15.6645 14.0857 15.7843 13.1869 15.9042 12.303C16.9378 12.4828 18.0015 12.6776 19.0201 12.9023ZM13.9568 16.8721C13.8519 17.2915 13.747 17.7409 13.6572 18.1755C12.6535 18.0855 11.6497 18.0406 10.661 18.0406C10.9157 17.1118 11.1404 16.183 11.3651 15.2542L14.2264 15.8535L13.9568 16.8721Z" fill="#2B2A29"/>
<path fill-rule="evenodd" clip-rule="evenodd" d="M24.4431 9.80129C24.1343 9.76596 23.8286 9.70584 23.5293 9.62151C23.6492 9.3219 23.829 8.97735 23.9937 8.60283C24.8477 6.70029 25.3869 4.64796 23.9937 3.11993C23.9622 3.08157 23.9235 3.04979 23.8797 3.02639C23.8361 3.00299 23.7881 2.98845 23.7387 2.98358C23.639 2.97374 23.5394 3.00393 23.462 3.0675C23.3844 3.13107 23.3354 3.22281 23.3256 3.32255C23.3157 3.42228 23.3459 3.52184 23.4095 3.59931C24.9075 5.59173 22.4957 7.80887 22.0163 9.59156C21.5369 11.3742 26.136 11.3892 27.7838 10.8649L30.2556 10.1758C30.8849 9.89117 30.5103 9.15711 30.1358 9.23202C27.0797 9.98105 26.9898 10.1758 24.4431 9.80129Z" fill="#2B2A29"/>
<path fill-rule="evenodd" clip-rule="evenodd" d="M25.6416 2.08623C23.7391 1.69672 24.608 1.92144 11.8595 0.333496C11.7548 0.335416 11.6544 0.37506 11.5766 0.445137C11.4988 0.515212 11.449 0.61101 11.4362 0.714907C11.4235 0.818803 11.4487 0.923814 11.5072 1.01062C11.5657 1.09743 11.6535 1.1602 11.7546 1.18739C23.6193 2.77533 23.9937 2.79031 25.4918 3.11989C26.99 3.44946 30.1807 7.50921 30.9447 9.00726C31.118 9.27385 31.202 9.58864 31.1844 9.9061C30.78 12.0333 29.1171 18.2053 28.6227 19.6135C28.1285 21.0217 27.6791 22.0404 27.2745 23.2837C27.1098 23.7631 25.7765 29.6056 24.0687 30.1749C21.7167 30.9688 19.3198 29.9502 16.9678 29.8603C15.4698 29.8603 12.4737 29.6505 10.5562 29.3509C3.06587 28.1374 3.39544 28.3023 1.47792 27.0739C3.63513 24.7818 5.62755 19.0443 6.70615 15.7635C7.64791 12.0579 8.37815 8.30166 8.89332 4.51308C9.01317 3.85393 10.0768 0.453342 9.01317 0.797895C8.56374 0.932721 8.62366 1.60684 8.57872 1.89148C8.27911 3.76405 6.97581 11.0296 6.70615 12.2281C5.55919 16.7149 3.81591 21.0279 1.52286 25.0515C1.24449 25.4425 0.944411 25.8177 0.62403 26.175C0.384919 26.4132 0.182926 26.6859 0.0248065 26.9839C-0.0218631 27.1963 -0.00237117 27.4177 0.0806583 27.6186C0.163687 27.8196 0.306269 27.9901 0.489206 28.1076C1.30068 28.723 2.20616 29.2036 3.17073 29.5306C7.67174 30.5542 12.253 31.1857 16.863 31.4182C19.2449 31.5081 21.7617 32.5867 24.4881 31.6579C26.975 30.804 28.2932 24.6919 28.5629 23.8381C28.9524 22.5946 29.4466 21.3963 29.8512 20.1678C30.2556 18.9394 31.9185 12.6775 32.3379 10.2357C32.7424 8.06349 27.5592 2.4907 25.6416 2.08623Z" fill="#2B2A29"/>
<path fill-rule="evenodd" clip-rule="evenodd" d="M34.7049 11.3742C34.2855 13.5015 32.0533 21.9655 31.5591 23.3587C31.0647 24.7519 30.6153 25.8006 30.2107 27.0439C30.046 27.5233 28.7127 33.3508 27.0049 33.9201C24.6529 34.714 22.2561 33.6954 19.9041 33.6054C18.406 33.6054 15.4099 33.3957 13.4924 33.0961C6.34666 31.9426 6.31669 32.2422 4.66884 31.1935C3.6951 30.6543 3.32058 31.6131 3.90481 32.1223C4.56589 32.6326 5.33425 32.9862 6.1519 33.156C10.6519 34.1875 15.2334 34.8241 19.8442 35.0586C22.2261 35.1484 24.7578 36.2121 27.4693 35.2983C30.1807 34.3845 31.2744 28.3323 31.4841 27.4633C31.8736 26.235 32.368 25.0365 32.7724 23.8081C33.177 22.5798 35.5288 14.1157 35.9782 11.7188C36.1731 10.5054 35.0046 10.1458 34.7049 11.3742Z" fill="#00A3E2"/>
</g>
<defs>
<clipPath id="clip0_2615_423">
<rect width="36" height="36" fill="white"/>
</clipPath>
</defs>
</svg>
