<svg width="36" height="36" viewBox="0 0 36 36" fill="none" xmlns="http://www.w3.org/2000/svg">
<circle cx="18" cy="18" r="12" fill="white"/>
<path d="M23.8135 18C23.8135 18.2675 23.5966 18.4844 23.3291 18.4844H18.4848V23.3284C18.4848 23.7013 18.0811 23.9344 17.7581 23.7479C17.6083 23.6614 17.5159 23.5015 17.5159 23.3284V18.4844H12.6716C12.2987 18.4844 12.0656 18.0807 12.2521 17.7578C12.3386 17.6079 12.4985 17.5156 12.6716 17.5156H17.5159V12.6716C17.5159 12.2987 17.9196 12.0656 18.2426 12.2521C18.3925 12.3386 18.4848 12.4985 18.4848 12.6716V17.5156H23.3291C23.5966 17.5156 23.8135 17.7325 23.8135 18Z" fill="#2B2A29"/>
<path fill-rule="evenodd" clip-rule="evenodd" d="M31.9341 6.99442C26.4879 0.0479041 18.3711 0.543013 14.0502 1.65325C11.7942 2.22483 9.67653 3.24538 7.82383 4.65391C6.46138 5.67061 5.21374 6.83273 4.10302 8.11967C2.97571 9.44397 2.05512 10.9311 1.37243 12.5306C-0.0487637 15.6475 -0.377561 19.1524 0.439162 22.4793C1.25588 25.806 3.17041 28.7602 5.87341 30.8647C8.52156 32.9817 11.6758 34.3717 15.025 34.8979C18.3743 35.4241 21.8028 35.0682 24.9726 33.8653C27.9945 32.6307 30.6237 30.5977 32.5793 27.984C34.6104 25.4022 35.804 22.2612 36 18.982C35.9904 14.6493 34.5624 10.4389 31.9341 6.99442ZM31.2439 26.9188C29.451 29.2408 27.0675 31.0387 24.3424 32.1249C21.4723 33.1984 18.374 33.5139 15.3465 33.0409C12.3189 32.5678 9.46446 31.3222 7.05867 29.4243C4.61808 27.574 2.86881 24.9585 2.09086 21.9963C1.3129 19.0341 1.55124 15.8965 2.76772 13.0858C3.35785 11.6261 4.16736 10.2652 5.16825 9.04988C6.18504 7.78748 7.33717 6.64038 8.60402 5.62912C10.307 4.29016 12.2608 3.30562 14.3503 2.73349C16.8558 2.02834 25.3626 0.452994 30.8538 7.8046C33.2726 11.0089 34.5648 14.9225 34.5297 18.937C34.2594 21.8668 33.1147 24.6478 31.2439 26.9188Z" fill="white"/>
</svg>
