<svg width="36" height="36" viewBox="0 0 36 36" fill="none" xmlns="http://www.w3.org/2000/svg">
<g clip-path="url(#clip0_4403_23507)">
<g clip-path="url(#clip1_4403_23507)">
<path fill-rule="evenodd" clip-rule="evenodd" d="M21.2936 12.6738C21.3155 12.5319 21.3042 12.3869 21.2606 12.2501C21.2169 12.1134 21.1422 11.9886 21.0422 11.8857C20.9421 11.7827 20.8194 11.7044 20.684 11.6569C20.5485 11.6094 20.4039 11.594 20.2616 11.6118C20.015 11.6419 19.7879 11.7612 19.6232 11.9472C19.4585 12.1332 19.3676 12.373 19.3676 12.6214C19.3676 12.8698 19.4585 13.1097 19.6232 13.2956C19.7879 13.4816 20.015 13.6009 20.2616 13.631C20.3948 13.6488 20.5305 13.637 20.6586 13.5963C20.7869 13.5556 20.9045 13.4871 21.0032 13.3956C21.1017 13.3041 21.179 13.192 21.2291 13.0672C21.2793 12.9424 21.3014 12.8081 21.2936 12.6738Z" fill="black"/>
<path fill-rule="evenodd" clip-rule="evenodd" d="M15.8343 12.8233C15.8564 12.6814 15.8451 12.5364 15.8015 12.3997C15.7578 12.2629 15.6831 12.1381 15.5831 12.0352C15.483 11.9322 15.3603 11.8539 15.2249 11.8064C15.0894 11.7589 14.9448 11.7435 14.8024 11.7614C14.5558 11.7915 14.3287 11.9107 14.164 12.0967C13.9994 12.2827 13.9084 12.5225 13.9084 12.771C13.9084 13.0194 13.9994 13.2592 14.164 13.4452C14.3287 13.6312 14.5558 13.7505 14.8024 13.7805C14.9347 13.7932 15.0683 13.7777 15.1943 13.7352C15.3201 13.6926 15.4356 13.6238 15.5331 13.5334C15.6306 13.443 15.7079 13.333 15.7598 13.2106C15.8117 13.0882 15.8372 12.9562 15.8343 12.8233Z" fill="black"/>
<path fill-rule="evenodd" clip-rule="evenodd" d="M15.8643 17.6094C16.1848 17.797 16.5418 17.9143 16.9113 17.9533C17.2668 17.9956 17.6271 17.9701 17.9731 17.8786C18.7597 17.6814 19.4559 17.2225 19.9474 16.5774C20.0497 16.4737 20.107 16.3341 20.107 16.1884C20.107 16.0429 20.0497 15.9033 19.9474 15.7996C19.8438 15.6973 19.7041 15.64 19.5585 15.64C19.413 15.64 19.2732 15.6973 19.1697 15.7996C18.8698 15.9876 18.5347 16.1122 18.1849 16.1664C17.8353 16.2204 17.4781 16.2024 17.1355 16.1137C16.9486 16.0933 16.7637 16.0582 16.5822 16.009C16.0983 15.9219 15.6654 15.6547 15.3706 15.2611C15.3181 15.1431 15.2214 15.0501 15.1011 15.0025C14.9808 14.955 14.8467 14.9566 14.7276 15.0069C14.6682 15.0297 14.6142 15.0645 14.5689 15.109C14.5236 15.1536 14.4879 15.2068 14.464 15.2658C14.4402 15.3247 14.4287 15.3879 14.4303 15.4515C14.4319 15.5149 14.4465 15.5775 14.4733 15.6351C14.5469 16.0458 14.7096 16.4353 14.9499 16.7764C15.1902 17.1175 15.5023 17.4018 15.8643 17.6094Z" fill="black"/>
<path fill-rule="evenodd" clip-rule="evenodd" d="M7.06982 27.9144C6.97985 28.5034 6.93485 29.0985 6.93521 29.6943C6.90551 30.2871 6.90551 30.8812 6.93521 31.474C7.06157 32.8548 7.31184 34.2213 7.68303 35.5572C7.69563 35.6271 7.72191 35.6937 7.76034 35.7532C7.79877 35.8129 7.8486 35.8644 7.90697 35.9046C7.96535 35.9449 8.03111 35.9733 8.10048 35.9881C8.16986 36.003 8.24147 36.0039 8.3112 35.991C8.38194 35.9803 8.44974 35.9553 8.51043 35.9173C8.57112 35.8795 8.6234 35.8296 8.66405 35.7708C8.70468 35.7118 8.73284 35.6452 8.74676 35.5752C8.76066 35.505 8.76005 35.4327 8.74494 35.3628C8.74494 34.6149 8.64026 33.8671 8.6253 33.1044C8.61033 32.3415 8.6253 31.6087 8.6253 30.8608V25.9551C8.6253 24.7885 7.36895 25.8504 7.12964 26.703C7.18947 27.1965 7.14459 27.4209 7.06982 27.9144Z" fill="black"/>
<path fill-rule="evenodd" clip-rule="evenodd" d="M22.7144 21.6775C22.581 21.6202 22.4307 21.6163 22.2944 21.6664C22.1582 21.7163 22.0461 21.8167 21.9815 21.9467C21.6269 22.4938 21.1451 22.9468 20.5773 23.2672C20.0096 23.5876 19.3727 23.7656 18.7211 23.7863C17.9529 23.8801 17.1738 23.8139 16.4327 23.5919C15.9489 23.4649 15.4961 23.2411 15.1016 22.9339C14.8231 22.7005 14.5986 22.4096 14.4434 22.0813C14.4434 21.9467 14.234 21.827 13.8302 22.0813C13.8302 22.0813 13.3217 22.6198 13.3965 22.8142C13.5248 23.2612 13.7494 23.6747 14.0545 24.0256C14.658 24.7334 15.4524 25.2527 16.343 25.5212C17.2007 25.7581 18.1014 25.7939 18.9753 25.6259C19.8603 25.4837 20.6945 25.1179 21.3986 24.5629C22.1027 24.008 22.6533 23.2825 22.9986 22.4552C23.0384 22.3868 23.0625 22.3106 23.0694 22.2319C23.0765 22.1533 23.066 22.0739 23.0388 21.9997C23.0118 21.9254 22.9686 21.8581 22.9125 21.8024C22.8564 21.7468 22.7888 21.704 22.7144 21.6775Z" fill="black"/>
<path fill-rule="evenodd" clip-rule="evenodd" d="M27.1414 28.0789C27.1414 28.9764 27.3508 29.8737 27.4705 30.7711C27.6649 32.1022 27.9042 33.4185 28.0687 34.7794C28.0687 34.9222 28.1254 35.0592 28.2265 35.1601C28.3275 35.2612 28.4644 35.3179 28.6072 35.3179C28.75 35.3179 28.887 35.2612 28.9879 35.1601C29.0889 35.0592 29.1456 34.9222 29.1456 34.7794C29.1456 33.4185 29.2653 32.0872 29.1456 30.7411C29.1456 30.1579 29.1456 29.5896 29.011 29.0212C28.9579 28.4476 28.8679 27.8781 28.7418 27.3162C28.6785 26.9427 28.5936 26.5731 28.4875 26.2093C28.338 25.6111 27.2013 24.5343 26.9022 25.3269C26.9919 26.5084 26.9919 26.8824 27.1414 28.0789Z" fill="black"/>
<path fill-rule="evenodd" clip-rule="evenodd" d="M34.7544 32.5062C34.5244 31.5737 34.2141 30.663 33.8271 29.784C33.1614 28.3383 32.3174 26.9817 31.3143 25.7459C30.2955 24.5157 29.1245 23.4201 27.8295 22.4853C26.064 21.2352 24.0485 20.3831 21.9216 19.9875C22.4356 19.5519 22.8885 19.0488 23.2677 18.4919C24.4291 16.7165 25.0238 14.6302 24.9727 12.5093C24.9727 12.3625 24.9145 12.2218 24.8107 12.118C24.7069 12.0142 24.5662 11.9559 24.4194 11.9559C24.2727 11.9559 24.1318 12.0142 24.028 12.118C23.9242 12.2218 23.8661 12.3625 23.8661 12.5093C23.7866 14.0657 23.3187 15.5774 22.5049 16.9065C21.8235 18.1475 20.6866 19.0752 19.3342 19.494C18.1514 19.8024 16.9018 19.7345 15.7596 19.2995C14.9762 19.032 14.2468 18.6269 13.6058 18.1031C12.7881 17.4209 12.1494 16.5492 11.7454 15.5639C11.3413 14.5785 11.1842 13.5094 11.2876 12.4495C11.2982 12.3874 11.296 12.3238 11.2812 12.2626C11.2663 12.2014 11.2392 12.1438 11.2014 12.0934C11.1636 12.043 11.116 12.0009 11.0614 11.9695C11.0067 11.9382 10.9463 11.9183 10.8838 11.911C10.755 11.894 10.6246 11.9283 10.521 12.0067C10.4174 12.0851 10.3489 12.2012 10.3304 12.3298C10.0795 13.5872 10.1464 14.8872 10.5251 16.1121C10.9038 17.337 11.5823 18.4481 12.4991 19.3445C12.8134 19.6433 13.1538 19.9136 13.5161 20.1521C11.6144 20.5863 9.81254 21.378 8.20653 22.4853C6.91335 23.411 5.74244 24.4964 4.72167 25.7159C3.71873 26.9517 2.87459 28.3085 2.20898 29.7542C1.82186 30.633 1.5116 31.5438 1.28167 32.4762C1.02876 33.4215 0.927788 34.4009 0.982535 35.3778C0.968855 35.4489 0.971525 35.5224 0.990345 35.5923C1.00917 35.6624 1.04364 35.7272 1.09118 35.7819C1.13871 35.8367 1.19806 35.8799 1.26474 35.9084C1.33142 35.9367 1.40369 35.9498 1.4761 35.9462C1.53896 35.9442 1.60083 35.93 1.65816 35.904C1.71549 35.8782 1.76717 35.8413 1.81022 35.7954C1.85328 35.7497 1.88688 35.6957 1.90911 35.6369C1.93134 35.5781 1.94175 35.5154 1.93976 35.4525C1.97151 34.5881 2.14325 33.7344 2.44827 32.9249C2.74434 32.0955 3.11477 31.2945 3.55506 30.5319C4.26101 29.2985 5.09847 28.145 6.0528 27.0918C6.48654 26.5685 8.19158 25.0877 8.96933 24.2951C9.52587 23.8172 10.1102 23.3727 10.7192 22.9638C12.2296 22.2219 13.7946 21.5969 15.4007 21.0944C16.8426 21.6123 18.4089 21.675 19.8876 21.2738C20.0371 21.2738 20.1717 21.0944 20.3213 21.0345C21.0441 21.1658 21.7584 21.3405 22.4601 21.558C23.5075 21.9047 24.5114 22.3715 25.4514 22.949C27.1439 24.1112 28.6686 25.5 29.9832 27.077C30.894 28.1331 31.7145 29.2638 32.4361 30.4571C32.8764 31.2198 33.2467 32.0207 33.5429 32.8502C33.8479 33.6597 34.0197 34.5134 34.0513 35.3778C34.0494 35.4407 34.0599 35.5032 34.0821 35.5622C34.1043 35.621 34.1379 35.6748 34.181 35.7207C34.224 35.7665 34.2757 35.8034 34.333 35.8293C34.3904 35.8551 34.4521 35.8694 34.515 35.8713C34.5779 35.8734 34.6405 35.8629 34.6993 35.8407C34.7581 35.8185 34.8121 35.7849 34.8579 35.7419C34.9038 35.6988 34.9407 35.6471 34.9665 35.5898C34.9925 35.5325 35.0067 35.4705 35.0087 35.4077C35.078 34.4331 34.9921 33.4538 34.7544 32.5062Z" fill="black"/>
<path fill-rule="evenodd" clip-rule="evenodd" d="M7.09975 12.2998C7.84764 12.0656 8.61279 11.8906 9.38811 11.7763C10.5697 11.5819 11.7811 11.4772 12.9627 11.3575C14.4584 11.1781 15.7746 11.0883 17.1505 10.9986C18.5265 10.9089 19.9474 10.8191 21.3384 10.8341C23.2318 10.8466 25.1217 11.0016 26.9919 11.2977C27.1296 11.3168 27.2694 11.2833 27.3835 11.204C27.4977 11.1247 27.5778 11.0053 27.6079 10.8696C27.6381 10.7339 27.6162 10.5918 27.5463 10.4717C27.4765 10.3514 27.364 10.2619 27.2313 10.2209C26.9022 10.1311 26.5881 10.1012 26.259 10.0264C26.3983 9.5401 26.4688 9.03666 26.4684 8.53077C26.4036 7.65525 26.2122 6.79377 25.9 5.97321C25.6494 5.3248 25.3336 4.70343 24.9579 4.1186C24.5668 3.52608 24.0934 2.99226 23.5519 2.5332C22.615 1.75475 21.4716 1.26619 20.2615 1.12729C19.7722 0.650658 19.1703 0.30588 18.5116 0.125206C17.3901 -0.113517 16.2228 -0.00928929 15.1612 0.424336C14.6124 0.636829 14.1058 0.945812 13.6657 1.33668C13.5825 1.43513 13.5075 1.54017 13.4413 1.65076C12.2558 2.05552 11.1841 2.7375 10.3154 3.63999C9.87679 4.0902 9.49504 4.5925 9.17871 5.13564C8.85412 5.69625 8.59803 6.29381 8.41593 6.91546C8.10985 8.18857 8.10985 9.5161 8.41593 10.7892C7.8721 10.9422 7.33773 11.1269 6.81558 11.3426C6.74671 11.3605 6.68253 11.3931 6.62743 11.4381C6.57234 11.4832 6.52764 11.5396 6.49638 11.6035C6.46513 11.6674 6.44806 11.7374 6.44637 11.8085C6.44467 11.8796 6.45837 11.9503 6.48654 12.0156C6.50647 12.0758 6.5385 12.1311 6.58066 12.1784C6.62283 12.2256 6.67422 12.2638 6.73167 12.2904C6.78913 12.317 6.85143 12.3316 6.91474 12.3332C6.97804 12.3348 7.04101 12.3235 7.09975 12.2998ZM22.8939 4.44764C23.4199 5.1171 23.8761 5.83879 24.2548 6.60138C24.5547 7.12858 24.8002 7.68481 24.9877 8.26155C25.1229 8.748 25.1584 9.25669 25.0924 9.75721C23.6473 9.45627 22.183 9.25636 20.7102 9.15895C20.8447 8.68034 21.0093 8.18678 21.099 7.66329C21.2512 6.93108 21.3709 6.19251 21.4579 5.44973C21.5106 4.83264 21.5106 4.21221 21.4579 3.59512C21.4204 3.28788 21.3451 2.98647 21.2337 2.69774C21.4131 2.81738 21.5926 2.93703 21.7572 3.07164C22.1779 3.49409 22.5583 3.95474 22.8939 4.44764ZM15.8493 2.12938C16.5364 1.85096 17.2884 1.77315 18.018 1.90503C18.3601 1.96941 18.6832 2.11053 18.9631 2.31779C19.2429 2.52503 19.4719 2.793 19.6333 3.10155C19.8003 3.42242 19.9018 3.77318 19.9324 4.13355C19.9698 4.57149 19.9698 5.0118 19.9324 5.44973C19.9324 6.22748 19.8576 6.94538 19.7829 7.57356C19.7076 8.07783 19.6027 8.57724 19.4688 9.06921C18.3877 9.00961 17.3043 9.00961 16.2232 9.06921C15.6699 9.06921 15.1015 9.23373 14.5481 9.32347C14.4135 8.75513 14.2938 8.20173 14.2191 7.64833C14.1488 6.92768 14.1188 6.20366 14.1293 5.47965C14.0947 4.9817 14.0947 4.48194 14.1293 3.98398C14.1707 3.71253 14.2567 3.44976 14.3836 3.20625C14.5053 2.97422 14.6858 2.77823 14.9071 2.6379C15.1987 2.42987 15.5152 2.25904 15.8493 2.12938ZM10.7791 6.10782C11.0275 5.63416 11.3178 5.18367 11.6465 4.76173C11.9237 4.39493 12.2341 4.05447 12.5738 3.74469C12.5666 4.34573 12.6116 4.94624 12.7084 5.53947C12.8055 6.34997 12.9504 7.15404 13.1422 7.94746C13.274 8.49372 13.4338 9.03286 13.6208 9.56277L12.7234 9.69738C11.6166 9.9666 10.5397 10.2059 9.44793 10.52C9.48432 9.49278 9.70206 8.48008 10.0911 7.52868C10.2966 7.04392 10.5262 6.56972 10.7791 6.10782Z" fill="#00A3E2"/>
</g>
</g>
<defs>
<clipPath id="clip0_4403_23507">
<rect width="36" height="36" fill="white"/>
</clipPath>
<clipPath id="clip1_4403_23507">
<rect width="36" height="36" fill="white"/>
</clipPath>
</defs>
</svg>
