<svg width="36" height="36" viewBox="0 0 36 36" fill="none" xmlns="http://www.w3.org/2000/svg">
<g clip-path="url(#clip0_4403_23529)">
<g clip-path="url(#clip1_4403_23529)">
<path fill-rule="evenodd" clip-rule="evenodd" d="M3.98501 3.26255C5.4229 2.96994 6.87974 2.7797 8.34455 2.69327C10.5618 2.54345 12.8389 2.55843 15.0112 2.58839C17.1835 2.61836 19.0261 2.58839 21.0037 2.58839C22.3521 2.58839 23.6854 2.58839 25.0186 2.69327C27.1611 2.78315 29.3184 2.96292 31.4907 3.18765V8.1015C31.4907 9.13521 31.5805 10.1539 31.6404 11.1876C31.7154 12.6858 31.8202 14.2888 31.8202 15.8468C31.807 15.9262 31.8112 16.0075 31.8327 16.0852C31.8541 16.1627 31.8921 16.2347 31.9441 16.2961C31.9962 16.3574 32.061 16.4068 32.134 16.4407C32.2071 16.4744 32.2866 16.492 32.367 16.492C32.4475 16.492 32.527 16.4744 32.6001 16.4407C32.673 16.4068 32.7378 16.3574 32.7898 16.2961C32.8419 16.2347 32.88 16.1627 32.9013 16.0852C32.9227 16.0075 32.9271 15.9262 32.9139 15.8468C33.1236 14.3487 33.3033 12.8506 33.3633 11.2326C33.4008 10.5689 33.4008 9.90372 33.3633 9.24008C33.3633 8.5809 33.3183 7.92173 33.2284 7.26255C33.0487 5.76443 32.719 4.2663 32.3895 2.76818C32.3341 2.62175 32.2498 2.48795 32.1418 2.37471C32.0337 2.26148 31.9039 2.17112 31.7602 2.10899C28.4455 1.50585 25.0993 1.0907 21.7378 0.865546C19.5205 0.730716 17.2584 0.730716 15.0262 0.775659C12.794 0.820603 10.5318 1.04532 8.20973 1.37491C6.69302 1.59342 5.19182 1.90868 3.71534 2.31873C3.59423 2.35382 3.49111 2.43384 3.42706 2.54246C3.36301 2.65106 3.34288 2.78004 3.37078 2.903C3.38441 2.96868 3.41168 3.03077 3.45082 3.08525C3.48995 3.13974 3.5401 3.1854 3.59798 3.21929C3.65588 3.25317 3.72023 3.27453 3.78691 3.28199C3.85357 3.28944 3.92107 3.28281 3.98501 3.26255Z" fill="black"/>
<path fill-rule="evenodd" clip-rule="evenodd" d="M35.9102 22.7233C35.9132 21.8395 35.838 20.9572 35.6855 20.0866C35.5848 19.5643 35.3469 19.0783 34.9962 18.6784C34.6985 18.3992 34.3392 18.194 33.9476 18.0791C33.2943 17.9048 32.628 17.7845 31.9551 17.7196C30.9324 17.6518 29.9066 17.6518 28.8839 17.7196C27.375 17.8199 25.874 18.0151 24.3896 18.3038C24.2942 18.3233 24.2091 18.3764 24.1499 18.4535C24.119 18.4148 24.0804 18.3827 24.0366 18.3596C23.9928 18.3364 23.9447 18.3224 23.8952 18.3188C23.8329 18.3104 23.7698 18.3148 23.7092 18.3316C23.6487 18.3484 23.5923 18.3772 23.5433 18.4165C23.4944 18.4556 23.4537 18.5044 23.4242 18.5597C23.3945 18.6149 23.3763 18.6757 23.3708 18.7382C22.881 21.7115 22.5957 24.7148 22.5168 27.727C22.5126 29.759 22.6226 31.7897 22.8465 33.8095C22.8677 33.9613 22.925 34.1059 23.0136 34.231C23.1023 34.3561 23.2196 34.4581 23.3558 34.5286C23.6225 34.6453 23.898 34.7404 24.1797 34.8131L26.1123 35.1278C27.8313 35.2925 29.562 35.2925 31.2809 35.1278C32.4546 35.0086 33.605 34.721 34.6967 34.2739C34.7654 34.2508 34.8285 34.2136 34.8821 34.165C34.9358 34.1162 34.9787 34.0568 35.0082 33.9907C35.0378 33.9245 35.0534 33.853 35.0538 33.7805C35.0544 33.708 35.0399 33.6362 35.0112 33.5697C35.144 33.5714 35.2728 33.5255 35.3745 33.4403C35.4762 33.3551 35.544 33.2361 35.5656 33.1052C35.8163 31.388 35.9613 29.6569 36 27.9218C36 26.1839 36 24.4312 35.9102 22.7233ZM31.176 33.8393C29.5395 33.8598 27.9047 33.7295 26.2922 33.4499L24.6891 33.1052H24.5993C24.4644 31.8468 24.4046 30.5585 24.3446 29.255C24.2847 27.9517 24.1797 26.2588 24.1797 24.7607C24.1797 22.8581 24.1797 20.9854 24.3146 19.1578C24.3896 19.1578 24.4494 19.2326 24.5244 19.1578C25.7334 19.0291 26.9489 18.9691 28.1648 18.9779C29.3523 18.9817 30.5364 19.1021 31.7004 19.3375C32.2064 19.4146 32.7069 19.5247 33.1985 19.667C33.3954 19.7008 33.5808 19.7831 33.7379 19.9067C33.8955 20.1589 33.9834 20.4485 33.9926 20.7457C34.0974 21.4948 34.0974 22.3337 34.1573 22.8131C34.3521 24.8057 34.5168 26.858 34.5768 28.9105C34.5768 30.2738 34.5768 31.6221 34.5018 32.9555C34.4963 33.0605 34.5224 33.1651 34.5768 33.2551C34.5035 33.233 34.4253 33.233 34.3521 33.2551C33.3291 33.61 32.2583 33.8069 31.176 33.8393Z" fill="black"/>
<path fill-rule="evenodd" clip-rule="evenodd" d="M5.75279 10.6184C5.73817 10.7428 5.73817 10.8685 5.75279 10.9929C5.74435 11.1226 5.74435 11.2527 5.75279 11.3824C6.11236 12.7607 6.36702 12.8056 6.62171 12.8056C6.87639 12.8056 7.14605 12.8056 7.49063 11.3075C7.50629 11.1832 7.50629 11.0573 7.49063 10.933C7.51277 10.8091 7.51277 10.6823 7.49063 10.5585C7.08613 9.06032 6.66665 9.19515 6.63669 9.19515C6.2322 9.22512 5.79775 10.5135 5.75279 10.6184Z" fill="black"/>
<path fill-rule="evenodd" clip-rule="evenodd" d="M27.6255 11.3824C27.641 11.253 27.641 11.1223 27.6255 10.9929C27.6473 10.869 27.6473 10.7422 27.6255 10.6184C27.6255 10.4686 27.1461 9.2251 26.7116 9.25507C26.7116 9.25507 26.2772 9.10525 25.8726 10.6184C25.8581 10.7428 25.8581 10.8685 25.8726 10.9929C25.857 11.1172 25.857 11.2431 25.8726 11.3674C26.2173 12.7607 26.4718 12.8656 26.7265 12.8656C26.9812 12.8656 27.266 12.7607 27.6255 11.3824Z" fill="black"/>
<path fill-rule="evenodd" clip-rule="evenodd" d="M8.67416 14.7682L7.17604 14.0341C7.12765 13.9214 7.03789 13.8316 6.92525 13.783C6.81262 13.7345 6.68566 13.731 6.57049 13.7732C6.45533 13.8154 6.36074 13.9002 6.30619 14.01C6.25162 14.1199 6.24124 14.2465 6.27716 14.3637C6.25976 14.5805 6.28666 14.7985 6.3562 15.0046C6.42574 15.2105 6.53647 15.4003 6.68165 15.5623C6.79487 15.7085 6.94477 15.8222 7.11611 15.8918C7.2689 15.9728 7.43776 16.0189 7.6105 16.0267C7.97762 16.048 8.34514 15.9919 8.68915 15.8618C8.83616 15.8618 8.97715 15.8035 9.0811 15.6995C9.18505 15.5956 9.24346 15.4546 9.24346 15.3076C9.24356 15.2341 9.22868 15.1615 9.19973 15.094C9.17077 15.0265 9.12835 14.9657 9.07504 14.9152C9.02174 14.8647 8.9587 14.8256 8.88977 14.8004C8.82083 14.7751 8.74747 14.7641 8.67416 14.7682Z" fill="black"/>
<path fill-rule="evenodd" clip-rule="evenodd" d="M24.7191 15.8618C25.063 15.9917 25.4305 16.0478 25.7977 16.0265C25.9708 16.0208 26.1402 15.9746 26.2921 15.8917C26.47 15.8266 26.6259 15.7123 26.7415 15.5621C27.0289 15.2315 27.1743 14.8008 27.1461 14.3637C27.1897 14.2425 27.1836 14.1089 27.1287 13.9923C27.0739 13.8757 26.9751 13.7856 26.8539 13.7419C26.7327 13.6982 26.5992 13.7045 26.4825 13.7592C26.3659 13.814 26.2759 13.9129 26.2321 14.0341L24.7341 14.7682C24.5896 14.7681 24.4509 14.8244 24.3474 14.9252C24.2437 15.0259 24.1837 15.1631 24.1798 15.3074C24.1833 15.4508 24.2409 15.5875 24.3408 15.6902C24.4408 15.793 24.5758 15.8543 24.7191 15.8618Z" fill="black"/>
<path fill-rule="evenodd" clip-rule="evenodd" d="M7.53557 5.49468C7.36283 5.50249 7.19397 5.54854 7.04118 5.62951C6.88446 5.7244 6.75533 5.8587 6.66665 6.01902C6.27714 6.49842 6.03744 7.51714 6.5468 7.77183C6.60375 7.79623 6.66503 7.809 6.72698 7.80936C6.78894 7.80972 6.85035 7.79769 6.90759 7.77396C6.96483 7.75021 7.01675 7.71526 7.06028 7.67116C7.10379 7.62706 7.13805 7.5747 7.16103 7.51714L8.65916 6.78306C8.73123 6.78507 8.80298 6.7726 8.87016 6.7464C8.93733 6.72018 8.99856 6.68077 9.05024 6.63049C9.10193 6.58021 9.143 6.52008 9.17103 6.45364C9.19907 6.38722 9.2135 6.31584 9.21347 6.24373C9.22845 5.50966 7.88013 5.47969 7.53557 5.49468Z" fill="black"/>
<path fill-rule="evenodd" clip-rule="evenodd" d="M24.7191 6.7532C24.7191 6.7532 26.2173 7.4723 26.2173 7.48728C26.2609 7.60847 26.3509 7.70732 26.4676 7.76211C26.5842 7.81689 26.7177 7.82312 26.8389 7.77941C26.9601 7.73571 27.0589 7.64565 27.1138 7.52906C27.1686 7.41246 27.1747 7.27887 27.1311 7.15769C27.1594 6.72051 27.0141 6.28982 26.7265 5.95919C26.6109 5.8091 26.455 5.69483 26.2771 5.62961C26.1252 5.54666 25.9558 5.50049 25.7827 5.49477C25.4157 5.47344 25.0482 5.52959 24.7041 5.65956C24.5583 5.66336 24.4195 5.72297 24.3163 5.82611C24.2131 5.92926 24.1536 6.06806 24.1498 6.21387C24.1518 6.28667 24.168 6.35838 24.1977 6.42489C24.2274 6.4914 24.2698 6.55142 24.3226 6.6015C24.3756 6.65159 24.4378 6.69077 24.5058 6.71679C24.5737 6.74282 24.6463 6.75519 24.7191 6.7532Z" fill="black"/>
<path fill-rule="evenodd" clip-rule="evenodd" d="M21.1835 5.35985C20.8746 5.32959 20.5635 5.32959 20.2547 5.35985C20.2547 5.35985 18.1872 5.65947 18.2172 6.30368C18.2172 6.48345 18.1424 6.76809 20.03 7.14263C20.2241 7.16477 20.4201 7.16477 20.6142 7.14263H21.1985C23.2509 6.81303 23.1161 6.37857 23.1161 6.1988C23.1161 6.01902 22.9364 5.62952 21.1835 5.35985Z" fill="black"/>
<path fill-rule="evenodd" clip-rule="evenodd" d="M16.3146 6.16891C16.3146 5.80936 16.1498 5.62959 14.397 5.35993C14.0881 5.33005 13.7771 5.33005 13.4682 5.35993C13.4682 5.35993 11.4008 5.65956 11.4307 6.30375C11.4307 6.48352 11.4307 6.76816 13.2434 7.1427C13.4376 7.16485 13.6336 7.16485 13.8277 7.1427H14.412C16.5243 6.78315 16.3296 6.34869 16.3146 6.16891Z" fill="black"/>
<path fill-rule="evenodd" clip-rule="evenodd" d="M22.7267 15.2026C22.7267 14.8581 22.5618 14.6633 20.8091 14.4086C20.5005 14.3713 20.1887 14.3713 19.8801 14.4086C19.8801 14.4086 17.7978 14.6933 17.8427 15.3524C17.8427 15.5173 17.7678 15.8018 19.6554 16.1764C19.8495 16.1986 20.0456 16.1986 20.2397 16.1764H20.8239C22.8764 15.8168 22.7415 15.3974 22.7267 15.2026Z" fill="black"/>
<path fill-rule="evenodd" clip-rule="evenodd" d="M15.9401 15.2026C15.9401 14.858 15.7754 14.6633 14.0075 14.4086C13.704 14.3713 13.3971 14.3713 13.0936 14.4086C13.0936 14.4086 11.0112 14.6932 11.0412 15.3524C11.0412 15.5173 11.0412 15.8018 12.8689 16.1764C13.0581 16.1984 13.2491 16.1984 13.4382 16.1764C13.6377 16.1918 13.838 16.1918 14.0375 16.1764C16.0749 15.8168 15.9551 15.3974 15.9401 15.2026Z" fill="black"/>
<path fill-rule="evenodd" clip-rule="evenodd" d="M27.9251 21.9593C27.4779 21.782 26.997 21.7052 26.5169 21.7345C26.2331 21.7637 25.9682 21.8909 25.7678 22.094C25.5512 22.3189 25.41 22.6058 25.3644 22.9147C25.3187 23.2235 25.3707 23.539 25.5131 23.8169C25.5131 23.8811 25.526 23.9447 25.551 24.004C25.5761 24.0631 25.6127 24.1166 25.6589 24.1613C25.7049 24.206 25.7595 24.241 25.8195 24.2642C25.8794 24.2875 25.9433 24.2983 26.0075 24.2963C26.7416 24.2963 25.7528 23.7421 28.0001 23.0528C28.1391 23.0416 28.2689 22.9783 28.3632 22.8755C28.4577 22.7728 28.5098 22.6381 28.5093 22.4986C28.512 22.4231 28.4984 22.348 28.4693 22.2784C28.4403 22.2086 28.3965 22.1461 28.341 22.0948C28.2855 22.0436 28.2197 22.0051 28.1478 21.9817C28.0761 21.9583 28.0001 21.9506 27.9251 21.9593Z" fill="black"/>
<path fill-rule="evenodd" clip-rule="evenodd" d="M32.5842 21.9592C32.2797 21.7708 31.9221 21.6866 31.5655 21.7195C31.1662 21.8048 30.7752 21.9253 30.397 22.079C30.334 22.075 30.2709 22.0834 30.2112 22.1038C30.1513 22.1242 30.0963 22.1563 30.049 22.198C30.0016 22.2398 29.9631 22.2904 29.9353 22.3472C29.9076 22.4039 29.8914 22.4656 29.8876 22.5286C29.8836 22.5914 29.892 22.6547 29.9124 22.7144C29.9328 22.7741 29.9647 22.8292 30.0066 22.8766C30.0483 22.9238 30.099 22.9625 30.1557 22.9901C30.2124 23.0179 30.274 23.0341 30.337 23.0378C32.2396 23.8469 32.1648 23.4874 32.3445 23.8469C32.3536 23.9176 32.3769 23.9855 32.413 24.0469C32.4493 24.1082 32.4976 24.1616 32.5551 24.2036C32.6125 24.2456 32.6779 24.2756 32.7474 24.2915C32.8168 24.3074 32.8887 24.3091 32.9588 24.2963C33.1007 24.274 33.2284 24.1976 33.3151 24.083C33.4017 23.9684 33.4405 23.8247 33.4231 23.6821C33.4827 23.3431 33.4336 22.994 33.283 22.6846C33.1323 22.3753 32.8878 22.1213 32.5842 21.9592Z" fill="black"/>
<path fill-rule="evenodd" clip-rule="evenodd" d="M26.0524 28.6407C26.2599 28.7648 26.5003 28.8222 26.7415 28.8056C27.1234 28.7654 27.5001 28.685 27.8652 28.5659C27.9946 28.5443 28.1122 28.4775 28.1971 28.3775C28.282 28.2773 28.3287 28.1504 28.3287 28.019C28.3287 27.8877 28.282 27.7608 28.1971 27.6606C28.1122 27.5604 27.9946 27.4937 27.8652 27.4722C27.1311 27.2475 26.7865 27.4722 26.5618 26.6033C26.5702 26.5403 26.5659 26.4762 26.5492 26.4149C26.5327 26.3535 26.5041 26.2959 26.4649 26.2458C26.4259 26.1956 26.3773 26.1537 26.322 26.1225C26.2665 26.0913 26.2054 26.0714 26.1423 26.064C26.0134 26.0513 25.8847 26.0897 25.7838 26.171C25.683 26.2523 25.618 26.3699 25.603 26.4984C25.513 26.6633 25.4532 26.828 25.3633 27.0228C25.2733 27.2175 25.3633 27.3524 25.2733 27.5321C25.2874 27.771 25.3678 28.0013 25.5054 28.1972C25.6429 28.3929 25.8324 28.5465 26.0524 28.6407Z" fill="black"/>
<path fill-rule="evenodd" clip-rule="evenodd" d="M30.2472 28.596C30.5883 28.7637 30.9444 28.8991 31.3109 29.0004C31.6142 29.059 31.9281 29.0224 32.2098 28.8955C32.8839 28.596 33.3933 28.1316 33.2285 27.2926C33.2369 27.2217 33.231 27.1498 33.2114 27.0813C33.1917 27.0126 33.1586 26.9485 33.114 26.8929C33.0693 26.8371 33.0141 26.7907 32.9516 26.7565C32.8889 26.7222 32.82 26.7007 32.7491 26.6934C32.1948 26.6934 32.7491 27.1278 31.3409 27.4423C30.9677 27.4768 30.5972 27.5368 30.2322 27.6222C30.1178 27.6423 30.014 27.7021 29.9393 27.7912C29.8646 27.8803 29.8236 27.9928 29.8236 28.1091C29.8236 28.2253 29.8646 28.3378 29.9393 28.4269C30.014 28.5159 30.1178 28.5757 30.2322 28.596H30.2472Z" fill="black"/>
<path fill-rule="evenodd" clip-rule="evenodd" d="M21.1086 22.4984C18.8465 22.3037 16.6143 22.094 14.2921 21.9891C13.3183 21.9891 12.3596 21.8991 11.3708 21.8841H8.44944C6.2322 21.8841 4.02996 22.109 1.79775 22.2288V18.1389C1.79775 17.0303 1.79775 15.9066 1.9176 14.798C2.03745 13.6894 2.05243 12.5658 2.14231 11.4422C2.32998 8.83274 2.70044 6.23961 3.25094 3.68195C3.28779 3.54489 3.26915 3.39884 3.19903 3.27545C3.12892 3.15204 3.01301 3.06126 2.8764 3.02277C2.80753 3.00477 2.73579 3.00059 2.6653 3.01046C2.59482 3.02033 2.52697 3.04404 2.4657 3.08025C2.40442 3.11646 2.35092 3.16445 2.30827 3.22143C2.26563 3.27842 2.23469 3.34328 2.21723 3.41228C1.42826 5.98509 0.837268 8.61449 0.449436 11.2775C0.284641 12.416 0.179773 13.5097 0.0449413 14.7082C-0.0149804 15.8609 -0.0149804 17.016 0.0449413 18.1688C0.0449413 18.3636 0.494379 26.7381 1.54306 26.6931C2.23221 26.6931 2.93632 26.6931 3.62547 26.798C5.28838 26.9328 6.93633 27.1875 8.56929 27.3674C9.52809 27.3674 10.4869 27.4572 11.4607 27.5022L10.1573 29.9891C9.98108 30.3134 9.82594 30.6486 9.69288 30.9927C9.61345 31.181 9.59829 31.3902 9.64975 31.5879C9.7012 31.7856 9.81642 31.9608 9.97752 32.0864C10.3638 32.3498 10.8039 32.5238 11.2659 32.5958C12.081 32.6937 12.9024 32.7288 13.7228 32.7006H19.9849C20.2696 32.7006 21.0786 32.0265 20.9888 31.652C21.02 31.1531 21.02 30.6527 20.9888 30.1538C20.9706 29.9504 20.9304 29.7494 20.8689 29.5545C20.8097 29.3541 20.7345 29.1588 20.6442 28.9703C20.4275 28.5242 20.1717 28.098 19.8801 27.6969C19.8567 27.63 19.8201 27.5684 19.7727 27.5154C19.7253 27.4626 19.668 27.4197 19.604 27.3891C19.5399 27.3585 19.4706 27.3408 19.3997 27.3371C19.3288 27.3333 19.2579 27.3437 19.191 27.3674C19.0546 27.4179 18.9438 27.5202 18.8822 27.6519C18.8205 27.7836 18.813 27.9344 18.8615 28.0715C18.9363 28.5509 18.9363 28.9853 18.9963 29.4647C19.0093 29.6628 19.0446 29.8587 19.1012 30.0489C19.1459 30.2402 19.2113 30.426 19.2959 30.6033C19.4538 30.9329 19.6392 31.2486 19.8503 31.5471C18.6666 31.3673 17.4681 31.2026 16.2696 31.0677C15.4306 30.9779 14.5768 30.9179 13.7378 30.858H11.6105C11.6025 30.7632 11.6025 30.668 11.6105 30.5733L12.5393 27.5771H13.4082C15.8802 27.5771 18.337 27.4422 20.809 27.2325C20.9385 27.2109 21.0561 27.1442 21.141 27.0441C21.2259 26.9439 21.2726 26.8169 21.2726 26.6856C21.2726 26.5544 21.2259 26.4275 21.141 26.3273C21.0561 26.2271 20.9385 26.1603 20.809 26.1389C19.5956 26.1389 18.382 26.1389 17.1686 26.034C15.9551 25.9292 14.3221 25.8392 12.9139 25.7643C11.5056 25.6895 10.0674 25.6445 8.62922 25.5846C7.19102 25.5246 5.78277 25.5846 4.35955 25.5846C3.56554 25.5846 2.86141 25.5846 2.00749 25.7193C1.93258 24.8954 1.90262 24.0714 1.87266 23.2475C4.0749 23.3973 6.24718 23.577 8.44944 23.6819C9.42323 23.6819 10.397 23.6819 11.4457 23.7569H14.2622C16.5243 23.7569 18.7566 23.652 21.0636 23.637C21.1932 23.6154 21.3108 23.5487 21.3957 23.4486C21.4806 23.3484 21.5271 23.2214 21.5271 23.0901C21.5271 22.9589 21.4806 22.832 21.3957 22.7318C21.3108 22.6316 21.1932 22.5648 21.0636 22.5434L21.1086 22.4984Z" fill="black"/>
</g>
</g>
<defs>
<clipPath id="clip0_4403_23529">
<rect width="36" height="36" fill="white"/>
</clipPath>
<clipPath id="clip1_4403_23529">
<rect width="36" height="36" fill="white"/>
</clipPath>
</defs>
</svg>
