<svg width="36" height="36" viewBox="0 0 36 36" fill="none" xmlns="http://www.w3.org/2000/svg">
<g clip-path="url(#clip0_2615_428)">
<path fill-rule="evenodd" clip-rule="evenodd" d="M0.780431 23.655C1.09153 23.8064 1.42647 23.9028 1.77044 23.94C2.95544 24.105 5.47544 24.3 7.99544 24.405C10.3851 24.5853 12.7866 24.5299 15.1655 24.24C15.4794 24.1217 15.7475 23.9062 15.9305 23.625C16.1667 23.1871 16.2905 22.6976 16.2905 22.2C16.2905 21.555 16.3805 20.925 16.3955 20.28C16.4105 19.635 16.3955 18.99 16.3955 18.345L16.0655 5.565L15.8255 2.385C15.8624 2.02594 15.8624 1.66405 15.8255 1.305C15.7812 1.02655 15.65 0.769254 15.4505 0.57C15.0099 0.326896 14.5136 0.202818 14.0104 0.21C12.1504 0.075 8.08544 0 4.90544 0H0.255431C0.0923411 0.935898 0.0570186 1.8896 0.150431 2.835C0.180431 7.215 0.240431 16.815 0.345431 21V22.86C0.353969 23.0166 0.397472 23.1693 0.472748 23.3069C0.548022 23.4444 0.653157 23.5634 0.780431 23.655ZM2.01044 1.155C4.81544 1.155 11.0104 1.335 13.6204 1.56C13.8604 1.56 14.1154 1.56 14.3104 1.65C14.3104 1.845 14.5504 5.625 14.5504 5.625V14.625C14.5504 15.915 14.5504 17.205 14.6404 18.48V20.31C14.6404 20.925 14.6404 21.525 14.5354 22.14C14.5354 22.275 14.5354 22.575 14.4604 22.695C12.7798 22.8459 11.0904 22.876 9.40544 22.785C7.06544 22.665 4.53044 22.5 2.91044 22.5C2.58737 22.4511 2.26697 22.386 1.95044 22.305C1.95044 21.975 1.95044 21.54 1.87544 21.03C1.66544 16.77 1.29043 7.185 1.12543 2.805L1.06543 1.125L2.01044 1.155Z" fill="#2B2A29"/>
<path fill-rule="evenodd" clip-rule="evenodd" d="M35.3254 12.195C35.139 11.9047 34.8582 11.6875 34.5304 11.58C32.1088 11.266 29.6629 11.1806 27.2254 11.325C24.6454 11.325 22.0804 11.535 20.8654 11.7C20.5107 11.72 20.1636 11.8119 19.8454 11.97C19.7202 12.0638 19.6194 12.1864 19.5514 12.3274C19.4836 12.4683 19.4506 12.6236 19.4554 12.78V35.01C19.4361 35.1233 19.4467 35.2395 19.4862 35.3474C19.5256 35.4552 19.5927 35.5509 19.6804 35.625C19.9804 35.97 22.5154 35.76 24.1804 35.76C27.3604 35.76 31.4254 35.76 33.2854 35.595C33.7765 35.5971 34.2607 35.4786 34.6954 35.25C34.8996 35.0522 35.0361 34.7949 35.0854 34.515C35.1073 34.1553 35.1073 33.7947 35.0854 33.435L35.3104 30.255L35.6404 17.475V15.54C35.6404 14.895 35.6404 14.265 35.5354 13.62C35.5821 13.135 35.5101 12.6459 35.3254 12.195ZM33.9454 30.195L33.7954 33.42C33.7954 33.585 33.6454 33.975 33.7204 34.17C33.5254 34.17 33.2704 34.245 33.0154 34.26C30.3454 34.485 24.2104 34.605 21.4204 34.665H20.4604V32.955C20.5654 28.545 20.8054 18.87 20.9554 14.655V13.38C21.2757 13.2935 21.6015 13.2284 21.9304 13.185C23.5804 13.08 26.1904 13.02 28.5904 13.005C30.3069 12.9489 32.0251 12.999 33.7354 13.155C33.6304 13.29 33.8404 13.575 33.8404 13.725C33.8404 14.34 33.9304 14.955 33.9454 15.555C33.9604 16.155 33.9454 16.77 33.9454 17.385C33.9454 18.66 33.9454 19.95 33.8704 21.24C33.9454 24.24 33.9904 27.225 33.9454 30.21V30.195Z" fill="#2B2A29"/>
<path fill-rule="evenodd" clip-rule="evenodd" d="M16.9354 28.11C16.9222 27.7887 16.8923 27.4682 16.8454 27.15C16.799 26.9319 16.6954 26.73 16.5455 26.565C16.3361 26.4033 16.0877 26.2998 15.8254 26.265H13.2604C9.55542 26.265 3.30042 26.655 2.32542 26.715C2.32542 26.715 0.825419 26.505 0.690419 26.94C0.690419 27.045 0.525419 29.595 0.525419 29.73V33.66C0.480134 34.0386 0.480134 34.4214 0.525419 34.8C0.559004 35.0904 0.6914 35.3606 0.900419 35.565C1.29523 35.7851 1.73849 35.9036 2.19042 35.91C3.79542 36 7.33542 36 10.5304 36C12.9004 36 15.0304 35.805 16.0805 35.73H16.6805C16.8421 35.7147 16.9968 35.6565 17.1287 35.5617C17.2604 35.4668 17.3646 35.3385 17.4305 35.19C17.6165 34.4091 17.6571 33.6006 17.5504 32.805C17.4004 31.005 17.0105 28.8 16.9354 28.11ZM15.0304 33.975C12.4654 34.155 7.26042 34.485 4.05042 34.53C3.13542 34.53 2.31042 34.68 1.83042 34.635C1.73352 34.299 1.69296 33.9492 1.71042 33.6L1.53042 29.685V27.75H2.38542C3.49542 27.75 11.3854 27.6 14.6104 27.75C14.8133 27.7557 15.0147 27.786 15.2105 27.84C15.2105 28.005 15.3005 28.185 15.3005 28.26C15.3005 28.86 15.6005 30.615 15.7505 32.175C15.7505 32.835 15.8855 33.465 15.8855 33.885L15.0304 33.975Z" fill="#2B2A29"/>
<path fill-rule="evenodd" clip-rule="evenodd" d="M35.7003 0.585027C35.6325 0.438785 35.5247 0.314714 35.3894 0.227129C35.2539 0.139544 35.0966 0.0920154 34.9353 0.0900269H28.7853C25.6053 0.0900269 22.0653 0.285027 20.4303 0.510027C19.9791 0.529458 19.5402 0.66369 19.1553 0.900027C18.9582 1.11531 18.837 1.3893 18.8103 1.68003C18.7779 2.05934 18.7779 2.44073 18.8103 2.82003L19.0053 6.75003L19.1103 8.55003C19.1103 8.55003 19.1103 9.60003 19.4403 9.88503C19.7703 10.17 31.8753 9.69003 31.8753 9.69003C32.7275 9.6867 33.5787 9.63663 34.4253 9.54003C34.6896 9.5082 34.9367 9.39255 35.1303 9.21003C35.286 9.04493 35.3858 8.835 35.4153 8.61003C35.4354 8.29033 35.4354 7.96971 35.4153 7.65003C35.4153 6.96003 35.7603 4.74003 35.8353 3.03003C35.9552 2.21424 35.9093 1.38267 35.7003 0.585027ZM34.2003 3.58503C34.2003 5.08503 33.9603 6.91503 33.9153 7.51503C33.9153 7.51503 33.9153 7.77003 33.8403 7.93503C33.6489 7.99083 33.4533 8.03096 33.2553 8.05503C30.0453 8.34003 22.1403 8.53503 21.0303 8.56503H20.1903C20.1845 8.52023 20.1845 8.47482 20.1903 8.43003V2.71503C20.1903 2.55003 20.2653 1.81503 20.3553 1.80003C20.8203 1.80003 21.5703 1.71003 22.4853 1.68003C25.7103 1.60503 30.9153 1.68003 33.4803 1.78503H34.3203C34.2153 2.23503 34.1703 2.86503 34.1403 3.54003L34.2003 3.58503Z" fill="#00A3E2"/>
</g>
<defs>
<clipPath id="clip0_2615_428">
<rect width="36" height="36" fill="white"/>
</clipPath>
</defs>
</svg>
