<svg width="36" height="36" viewBox="0 0 36 36" fill="none" xmlns="http://www.w3.org/2000/svg">
<g clip-path="url(#clip0_2615_418)">
<path d="M23.701 34.8321C19.5457 34.8321 15.5703 34.6071 11.4599 34.3819C10.3198 34.3819 2.8491 34.5021 2.14403 33.8719C2.00903 32.8818 1.93401 29.1015 1.63398 11.4598V8.99952C1.45472 6.754 1.40963 4.49977 1.49897 2.24887C1.49897 1.58881 0.67389 1.84383 0.628885 1.96384C0.448867 2.6239 0.223846 27.4513 0.223846 27.6013C0.223846 30.1816 0.223846 34.3219 0.763899 34.8771C2.53407 36.8122 5.60937 35.6421 8.36964 35.7171C13.2751 35.8371 18.8706 35.9271 23.701 35.8521C23.8363 35.8521 23.9661 35.7984 24.0618 35.7027C24.1575 35.6071 24.2112 35.4774 24.2112 35.3421C24.2112 35.2068 24.1575 35.077 24.0618 34.9815C23.9661 34.8858 23.8363 34.8321 23.701 34.8321Z" fill="#2B2A29"/>
<path d="M32.6868 8.62444H30.3466C31.0816 5.62416 30.2267 4.12401 30.1066 4.12401C29.3715 3.14892 28.7865 6.17922 29.2065 8.62444C27.4663 8.62444 26.5062 8.51944 24.7061 8.45943C24.7971 7.5067 24.6636 6.54589 24.316 5.65416C24.316 5.65416 23.6259 5.29413 23.4309 5.89419C23.0361 6.67843 22.9401 7.5796 23.1609 8.42943H19.1856C19.3073 7.48939 19.2666 6.53545 19.0655 5.60916C19.0485 5.55162 19.02 5.49807 18.9819 5.45169C18.9438 5.40529 18.8969 5.36698 18.8438 5.33904C18.7906 5.31108 18.7325 5.29402 18.6726 5.28889C18.6127 5.28375 18.5526 5.29063 18.4954 5.30913C18.0522 5.68365 17.7456 6.19446 17.6235 6.76171C17.5014 7.32897 17.5705 7.9207 17.8204 8.44443H13.74V8.1744C13.965 7.00429 14.1 3.94399 13.44 3.74898C13.1999 3.62896 13.0049 3.74898 12.7949 4.04901C12.0748 5.0541 12.3749 7.94938 12.3749 8.0994C12.3749 8.65446 12.7649 8.24941 9.23956 8.35443V3.59896C8.89453 2.30884 8.32447 2.84889 8.21946 3.59896C8.21946 5.99919 8.12946 4.84408 8.00944 8.36943L2.99895 8.87947C1.63383 9.29952 1.66383 9.62955 2.99895 9.88458C3.79404 9.88458 5.23417 9.88456 7.90443 9.74956C7.79943 13.83 7.82943 11.8798 7.81443 14.145C7.69441 14.145 3.85404 13.0349 3.49401 14.265C3.08896 15 4.10907 14.805 4.81413 15.1501C5.78089 15.5152 6.84766 15.5152 7.81443 15.1501V18.8104C4.22907 18.0453 4.99414 19.7406 4.81413 19.8606C8.6095 20.8206 7.69441 18.6604 7.94944 23.8959C7.51441 23.6965 7.03336 23.6191 6.55776 23.6719C6.08214 23.7247 5.62981 23.9059 5.24917 24.1959C4.25908 25.111 7.88943 25.261 8.00944 25.276C8.09944 26.8362 8.17446 28.3963 8.23446 29.9565C7.81443 30.1665 3.26898 29.8365 3.64402 30.9616C3.64402 31.0816 3.64402 31.2616 3.89904 31.3216C5.33076 31.7781 6.87489 31.7358 8.27947 31.2016V33.0018C8.5795 33.9319 8.92453 34.0369 9.37458 33.0018C9.52459 25.786 9.37458 16.5001 9.17955 9.71955C11.8348 9.80956 13.0349 10.1846 17.3853 10.1396C19.6356 10.1396 21.8857 9.97458 24.136 9.94458C25.9212 9.94458 29.2965 9.94458 32.5818 9.68955C33.6619 9.52453 34.2469 8.63944 32.6868 8.62444Z" fill="#00A3E2"/>
<path d="M35.387 23.7012V9.25474C35.387 7.12455 36.0621 3.49419 34.9819 1.25898C34.5019 0.253879 33.0018 0.493902 32.4168 0.343888C28.3214 -0.691212 16.5001 0.928944 10.4996 1.04896C9.08947 1.07896 6.94426 0.628915 5.09908 0.583911C1.27372 0.508903 2.39883 1.34899 2.99889 1.75402C3.59895 2.15907 31.7717 1.97904 32.0717 1.99405C33.5718 1.99405 33.887 3.22416 34.067 4.67931C34.112 5.33359 34.112 5.9902 34.067 6.64451V11.475L34.352 23.3111L26.1462 24.0012C24.2859 24.3162 25.1111 25.7263 25.1261 26.3713C25.3811 33.3321 25.3211 29.1166 24.826 33.9771C24.8034 34.0722 24.8112 34.1718 24.8484 34.2621C24.8856 34.3524 24.9504 34.4288 25.0333 34.4802C25.1163 34.5317 25.2134 34.5557 25.3109 34.5488C25.4082 34.542 25.501 34.5047 25.576 34.4422C26.3862 33.8571 26.6712 25.8914 26.6862 25.4414C35.2369 24.7962 33.947 24.9162 34.097 24.8412C34.247 24.7662 33.6318 26.9715 33.4368 27.4365C32.4318 29.7318 29.7915 32.8371 27.2862 32.8971C27.1509 32.8971 27.0213 32.9508 26.9256 33.0465C26.8299 33.1421 26.7762 33.2718 26.7762 33.4071C26.7762 33.5424 26.8299 33.6721 26.9256 33.7677C27.0213 33.8634 27.1509 33.9171 27.2862 33.9171C32.1766 34.0071 37.2323 25.6514 35.387 23.7012Z" fill="#2B2A29"/>
</g>
<defs>
<clipPath id="clip0_2615_418">
<rect width="36" height="36" fill="white"/>
</clipPath>
</defs>
</svg>
