<svg width="36" height="36" viewBox="0 0 36 36" fill="none" xmlns="http://www.w3.org/2000/svg">
<g clip-path="url(#clip0_2615_431)">
<path fill-rule="evenodd" clip-rule="evenodd" d="M34.8713 14.0736C34.3958 11.993 33.4797 10.0386 32.1846 8.34213C30.7979 5.54607 28.5968 3.23564 25.8711 1.71515C22.7776 0.178044 19.2783 -0.344253 15.8709 0.222584C12.4911 0.693393 9.2781 1.98476 6.51257 3.98384C4.44455 5.46915 2.88172 7.55291 2.03487 9.95409C1.77243 10.7452 1.62172 11.5691 1.5871 12.4019C1.02157 13.9902 0.815257 15.684 0.983016 17.3616C1.15077 19.0392 1.68843 20.6588 2.55727 22.1035C3.48303 23.5347 4.70445 24.7511 6.13942 25.6707C7.54222 26.5827 9.08512 27.2583 10.7067 27.6708C11.2387 27.7893 11.7769 27.879 12.3186 27.9394C13.1076 28.009 13.9 28.034 14.6918 28.0142H15.7963C15.9603 28.0076 16.1181 27.949 16.2468 27.847C16.3755 27.7452 16.4687 27.6051 16.5128 27.4468C16.6155 26.9259 16.6656 26.3958 16.662 25.8648C16.662 25.1185 16.5575 20.9841 16.7516 19.5215C17.0799 16.9542 17.4978 14.0736 17.7516 13.0885V12.79L19.3934 13.9691L28.3488 20.1632C28.2488 20.381 28.164 20.6054 28.095 20.8349C28.0809 21.0087 28.0809 21.1835 28.095 21.3573C28.0728 21.5357 28.0728 21.7161 28.095 21.8946C28.095 22.1484 28.2144 22.3872 28.2741 22.626L25.7964 20.5812C24.9307 19.8646 24.08 19.0886 23.1994 18.4617C21.7068 17.3124 20.2143 16.2526 18.7216 15.0587C18.6772 15.0126 18.6238 14.976 18.5649 14.951C18.5059 14.926 18.4425 14.9131 18.3785 14.9131C18.3144 14.9131 18.2509 14.926 18.192 14.951C18.133 14.976 18.0797 15.0126 18.0351 15.0587C17.9886 15.1046 17.9517 15.1592 17.9265 15.2193C17.9013 15.2795 17.8884 15.3441 17.8884 15.4094C17.8884 15.4748 17.9013 15.5393 17.9265 15.5996C17.9517 15.6597 17.9886 15.7143 18.0351 15.7602C19.1397 17.0289 20.2442 18.2676 21.4531 19.4169C21.9755 19.9095 22.5278 20.3722 23.08 20.82C23.6322 21.2677 24.2293 21.6856 24.7965 22.0886C26.1846 23.0439 27.6024 23.8797 29.0502 24.7305C29.2443 24.8499 29.1696 25.1185 31.4682 23.417C32.2157 22.8108 32.8738 22.1024 33.4235 21.3125C34.159 20.2652 34.6674 19.0754 34.916 17.8199C35.1402 16.5797 35.1249 15.3081 34.8713 14.0736ZM15.2739 26.7304L14.7217 26.5962C14.1097 26.5962 13.4978 26.5066 12.9007 26.4319C12.3142 26.3487 11.7353 26.2188 11.1694 26.0439C10.0362 25.6719 8.9495 25.171 7.9305 24.5514C6.40938 23.6806 5.08746 22.501 4.04983 21.0886C3.13546 19.7562 2.56618 18.2176 2.39308 16.6108C2.48265 16.8348 2.54235 17.0588 2.64682 17.2976C3.54915 19.2724 5.06804 20.9015 6.97526 21.9393C9.61841 23.241 12.4965 23.9973 15.4382 24.1633V25.6558C15.4157 26.0182 15.3606 26.3779 15.2739 26.7304ZM18.4382 10.9392C19.2253 10.4827 19.9876 9.98448 20.7218 9.44662C21.4038 8.93124 22.0566 8.37813 22.677 7.78988C23.6173 6.9839 24.483 6.01373 25.4681 5.19282C25.5702 5.09648 25.6331 4.96566 25.6443 4.8257C25.6556 4.68573 25.6145 4.54658 25.5291 4.43514C25.4436 4.32371 25.3199 4.24791 25.1819 4.22246C25.0437 4.19699 24.9011 4.22366 24.7815 4.29728C23.7367 4.98386 22.692 5.67044 21.677 6.40179C20.8174 7.01946 19.9952 7.6873 19.2143 8.40183C15.8561 11.5213 17.3485 10.6257 13.0798 10.0436C12.4861 9.9573 11.8883 9.90249 11.2888 9.87947H9.55739C8.20298 9.93405 6.85263 10.0636 5.51255 10.2675C5.43802 10.2713 5.36501 10.2898 5.29764 10.3219C5.23027 10.354 5.16992 10.3991 5.12 10.4545C5.07008 10.51 5.0316 10.5748 5.00676 10.6451C4.98192 10.7155 4.9712 10.7901 4.97523 10.8646C4.97897 10.9385 4.99754 11.0109 5.02982 11.0774C5.06208 11.144 5.10741 11.2035 5.16311 11.2522C5.2188 11.3009 5.2837 11.338 5.35399 11.3611C5.42428 11.3842 5.49851 11.393 5.57225 11.3869C6.94541 11.3869 8.27379 11.581 9.61709 11.6705C10.5276 11.6705 11.4231 11.8049 12.3186 11.8347H16.0201C16.0201 12.2079 15.9306 12.581 15.9008 12.7452C15.7665 13.4915 15.6023 15.2826 15.4979 17.2229C15.3486 19.5215 15.2739 21.9692 15.2889 23.2677C12.6045 23.0216 9.99891 22.2292 7.63199 20.9394C6.00849 19.993 4.73977 18.5408 4.01998 16.805C3.09447 14.8259 2.95575 12.569 3.63192 10.4914C4.43655 8.45033 5.84181 6.70155 7.66184 5.47641C10.1756 3.6768 13.0911 2.51882 16.1546 2.10321C19.1804 1.52801 22.3102 1.90881 25.1098 3.19278C28.1319 4.75416 30.4668 7.38157 31.6623 10.566C32.2485 12.1002 32.3584 13.7756 31.9778 15.3732C31.5969 16.9708 30.7431 18.4165 29.5278 19.5215C29.5278 19.0886 28.11 18.3273 20.5725 12.4019L18.4382 10.9392ZM32.0652 20.4618C31.6752 21.1845 31.1712 21.8397 30.5727 22.4021C30.2565 22.6986 29.8797 22.9227 29.4681 23.0588C29.6003 22.6875 29.7099 22.3088 29.7966 21.9244C29.811 21.7556 29.811 21.5858 29.7966 21.417C29.8728 21.2673 29.9232 21.1057 29.9459 20.9394C29.93 20.8524 29.9049 20.7674 29.8711 20.6856C30.0063 20.6795 30.1364 20.6327 30.2444 20.5513C31.568 19.4166 32.5542 17.94 33.0951 16.2825C33.1176 16.7052 33.1176 17.1287 33.0951 17.5512C32.9322 18.5762 32.5832 19.5625 32.0652 20.4618Z" fill="#2B2A29"/>
<path fill-rule="evenodd" clip-rule="evenodd" d="M30.0204 29.223C30.0694 29.1644 30.1065 29.0964 30.1293 29.0234C30.1522 28.9503 30.1603 28.8734 30.1534 28.7972C30.1465 28.7208 30.1246 28.6467 30.0889 28.5789C30.0534 28.5111 30.0046 28.4511 29.9458 28.4022C28.5577 27.2678 27.1248 26.1633 25.7517 24.9992C24.8412 24.2379 23.9457 23.5065 23.1099 22.6409L20.9904 20.5512L20.1396 19.7603L19.6471 19.4468C19.5315 19.379 19.4026 19.3365 19.2691 19.3226C19.1358 19.3086 19.0009 19.3233 18.8737 19.3658C18.7465 19.4081 18.6298 19.4772 18.5316 19.5684C18.4332 19.6596 18.3556 19.7709 18.3037 19.8945C18.1962 20.1497 18.1404 20.4237 18.1396 20.7006C18.1396 21.2976 18.3037 22.1931 18.2889 22.5663V25.2081C18.2889 26.5215 18.4231 27.8351 18.4828 29.1485C18.5425 30.4619 18.6022 31.6112 18.6918 32.835C18.6918 33.651 18.7665 34.472 18.9157 35.2979C18.9157 35.4023 18.468 35.9545 23.1099 35.9993C23.9689 36.0091 24.826 35.9139 25.6621 35.7158C27.1236 35.399 28.4676 34.6805 29.5428 33.6411C29.6146 33.5831 29.6692 33.5066 29.7009 33.4197C29.7324 33.3329 29.7397 33.2391 29.7219 33.1485C29.7864 33.0984 29.8398 33.0354 29.8783 32.9634C29.9169 32.8914 29.9398 32.8121 29.9458 32.7306C30.0652 32.2678 30.1995 31.8351 30.2742 31.3574C30.3136 31.1655 30.3387 30.971 30.3487 30.7754C30.3708 30.5819 30.3708 30.3867 30.3487 30.1932C30.2733 29.8593 30.1633 29.5341 30.0204 29.223ZM20.0949 22.2677L21.9009 23.9244C22.8412 24.7155 23.8113 25.4171 24.7965 26.1783C25.7815 26.9394 27.2293 27.9545 28.4532 28.8051C27.5205 29.1936 26.5569 29.5031 25.5726 29.7306L24.0799 30.0291L22.5874 30.2679C21.6645 30.4136 20.7276 30.4487 19.7964 30.3723V29.0141L20.1097 22.4319L20.0949 22.2677ZM26.2144 33.6261C25.3486 33.8052 24.4531 33.8649 23.5725 33.9695C22.2739 34.1187 21.0352 34.2828 19.8561 34.3575V31.5515C20.8153 31.8899 21.8241 32.0662 22.8412 32.0739C23.3973 32.0583 23.9514 31.9985 24.498 31.8948C25.0377 31.7667 25.5666 31.5971 26.08 31.3874C26.9034 31.0869 27.6978 30.7122 28.4532 30.2679C28.4458 30.3921 28.4458 30.5168 28.4532 30.641C28.4385 30.8348 28.4385 31.0293 28.4532 31.2231C28.4532 31.7007 28.6771 32.1186 28.7667 32.5814C27.9922 33.093 27.1252 33.4479 26.2144 33.6261Z" fill="#00A3E2"/>
</g>
<defs>
<clipPath id="clip0_2615_431">
<rect width="36" height="36" fill="white"/>
</clipPath>
</defs>
</svg>
