<svg width="36" height="36" viewBox="0 0 36 36" fill="none" xmlns="http://www.w3.org/2000/svg">
<g clip-path="url(#clip0_2615_432)">
<path fill-rule="evenodd" clip-rule="evenodd" d="M35.9817 18.5607C36.0399 17.8234 35.9587 17.0818 35.7421 16.3746C35.0539 15.1722 34.1623 14.0982 33.1069 13.2005C30.8761 11.1343 27.8367 9.12796 26.1598 7.51093L20.7397 2.28555C20.605 2.16577 19.6019 1.1177 19.1676 0.788302C19.0072 0.625222 18.8049 0.509573 18.583 0.454096C18.3612 0.39862 18.1283 0.405464 17.91 0.473879C17.3676 0.738749 16.8639 1.07623 16.4127 1.47703C15.5144 2.27058 14.646 3.33361 13.9123 3.99241C12.3103 5.48965 10.7082 6.86712 9.16605 8.33442C7.62389 9.80172 6.06675 11.3289 4.6743 12.931C3.76098 13.8143 2.44341 14.9972 1.54506 16.0902C1.04543 16.6465 0.654402 17.2914 0.39218 17.9917C0.0397487 20.7516 -0.075462 23.5368 0.0478134 26.3164C0.0502925 29.0755 0.280653 31.83 0.736547 34.5513C0.763658 34.6404 0.814016 34.7205 0.882435 34.7838C0.950856 34.8469 1.03487 34.8906 1.12583 34.9105C1.16026 35.0317 1.23601 35.1369 1.33994 35.2081C1.44387 35.2792 1.5694 35.3116 1.69479 35.2998C5.76751 35.136 9.84616 35.196 13.9123 35.4795C16.6823 35.5843 19.497 35.5993 22.1472 35.5693C25.1209 35.5741 28.0919 35.3841 31.0408 35.0004C31.1932 34.9816 31.3323 34.9035 31.4275 34.783C31.5228 34.6624 31.5667 34.5093 31.5499 34.3566C31.531 34.203 31.4535 34.0626 31.3335 33.9649C31.2135 33.8673 31.0604 33.8197 30.906 33.8325C26.8232 33.9907 22.7344 33.9258 18.6586 33.6379C17.0266 33.6379 15.3646 33.5331 13.7326 33.5181H10.4237C7.51668 33.5602 4.61562 33.7954 1.7397 34.2219C1.37978 31.593 1.23955 28.9386 1.32047 26.2864C1.27365 23.6523 1.43888 21.0186 1.81456 18.4108C2.10713 17.7577 2.52414 17.1678 3.0423 16.6741C3.94065 15.7458 5.06359 14.8624 5.79725 14.1138C6.98007 12.916 8.22278 11.7481 9.4655 10.5953C11.4119 8.85846 13.3134 7.16658 15.2299 5.45971C15.9784 4.8159 16.832 3.76782 17.7303 2.97427C17.8896 2.82691 18.0597 2.69178 18.2394 2.57002C18.6885 3.00423 19.2575 3.6181 19.3473 3.70794L24.8573 9.00819C26.594 10.5054 29.6634 12.5267 31.969 14.533C32.8944 15.2754 33.6846 16.1719 34.3049 17.1832C34.4874 18.2464 34.5177 19.3303 34.3947 20.4022C34.3048 24.6844 33.8107 31.5567 34.0503 35.0154C34.0654 35.1702 34.1388 35.3136 34.2555 35.4163C34.3722 35.5192 34.5236 35.5738 34.6791 35.5693C34.7579 35.5656 34.8349 35.5462 34.9062 35.5125C34.9773 35.4787 35.0412 35.4313 35.0942 35.373C35.1469 35.3146 35.1877 35.2462 35.2141 35.1721C35.2406 35.0979 35.2521 35.0191 35.2481 34.9405C35.0385 30.883 35.9817 22.3636 35.9817 18.5607Z" fill="#2B2A29"/>
<path d="M20.3655 33.2187C20.5023 33.332 20.6745 33.3939 20.8521 33.3939C21.0297 33.3939 21.2017 33.332 21.3387 33.2187C21.6136 30.9338 21.7288 28.6325 21.6831 26.3315C21.727 25.5534 21.727 24.7737 21.6831 23.9957C21.6193 23.4155 21.4626 22.8492 21.2188 22.3188C21.0597 22.0548 20.8419 21.831 20.5823 21.6648C20.3225 21.4986 20.028 21.3945 19.7217 21.3606C18.8346 21.2922 17.9436 21.2922 17.0565 21.3606C16.2351 21.2795 15.4076 21.2795 14.5861 21.3606C14.1133 21.4527 13.6738 21.6698 13.3134 21.9894C13.0726 22.2365 12.9245 22.5591 12.8942 22.9028C12.7894 23.5466 12.3851 31.4072 12.5798 32.1408C12.6252 32.2929 12.7252 32.423 12.8606 32.5059C12.996 32.5887 13.1573 32.6187 13.3134 32.5899C14.1818 32.4252 14.2717 23.1123 14.5262 23.0825H17.0415C17.5656 23.0825 18.1346 22.9926 18.8532 22.9926C19.1766 23.0028 19.4979 23.048 19.8116 23.1273C19.9567 23.4828 20.0769 23.8479 20.1708 24.2204C20.2774 24.9246 20.3425 25.6344 20.3655 26.3465C20.4403 27.8436 20.3655 29.0265 20.3655 30.3441C20.2306 30.7932 20.0809 32.9642 20.3655 33.2187Z" fill="#00A3E2"/>
</g>
<defs>
<clipPath id="clip0_2615_432">
<rect width="36" height="36" fill="white"/>
</clipPath>
</defs>
</svg>
