<svg width="36" height="36" viewBox="0 0 36 36" fill="none" xmlns="http://www.w3.org/2000/svg">
<g clip-path="url(#clip0_2615_424)">
<path fill-rule="evenodd" clip-rule="evenodd" d="M16.8795 4.5088C16.0365 3.52947 15.2517 2.50162 14.5288 1.43052C14.4759 1.37385 14.4348 1.30722 14.4079 1.23452C14.3809 1.16181 14.3687 1.08448 14.3719 1.00701C14.3751 0.929543 14.3937 0.853484 14.4266 0.783259C14.4594 0.713033 14.5059 0.650041 14.5633 0.597941C15.2789 -0.0621191 18.1577 3.10617 19.2108 4.26577L19.4478 4.5253C20.2293 5.41638 18.8943 6.723 16.833 8.74068C16.518 9.04821 16.188 9.37074 15.8445 9.71277C15.7377 9.83331 15.5883 9.90768 15.4278 9.9202C15.2673 9.93271 15.1082 9.88239 14.984 9.77985C14.8599 9.67731 14.7804 9.53055 14.7624 9.37054C14.7443 9.21055 14.7892 9.0498 14.8874 8.92219C15.2714 8.35815 15.5294 7.96512 15.7485 7.63209C16.116 7.07103 16.3725 6.6825 16.9215 5.94742H16.7805C15.927 5.94742 14.7884 5.94592 13.2702 5.98044C9.7179 6.06594 7.91174 5.98494 6.92465 6.84601C5.63903 7.96962 5.75303 10.6954 5.20398 17.4865C5.19966 17.6429 5.13372 17.7914 5.02052 17.8996C4.9073 18.0077 4.75598 18.0668 4.59942 18.064C3.95438 18.0445 3.93936 17.815 3.87936 13.0701C3.76385 3.63421 6.74913 3.53371 16.8795 4.5088Z" fill="#00A3E2"/>
<path fill-rule="evenodd" clip-rule="evenodd" d="M30.5311 29.2461C31.6366 25.9158 31.9803 22.3815 31.5361 18.9012C31.5138 18.7486 31.5522 18.5934 31.6431 18.4687C31.7338 18.3441 31.8699 18.2599 32.022 18.2344C32.1741 18.2089 32.3301 18.244 32.4567 18.3322C32.5831 18.4204 32.6701 18.5547 32.6988 18.7062C33.2688 21.1903 33.4563 23.7466 33.2553 26.2879C32.6583 32.9785 28.782 32.5239 20.8822 31.5984L19.9221 31.4859C20.7415 32.467 21.5047 33.4938 22.2084 34.5612C22.2618 34.6192 22.3029 34.6873 22.3294 34.7617C22.356 34.836 22.3674 34.9147 22.3629 34.9936C22.3584 35.0724 22.3381 35.1493 22.3033 35.2201C22.2685 35.2909 22.2199 35.3541 22.1604 35.4057C21.4432 36.0507 18.6349 32.89 17.5774 31.7004C17.4933 31.605 17.4088 31.51 17.3239 31.4154C16.5513 30.5137 17.9074 29.2236 19.9986 27.2329C20.3166 26.9299 20.6512 26.6119 20.9977 26.2759C21.1086 26.1732 21.253 26.1144 21.4041 26.1105C21.5551 26.1067 21.7024 26.158 21.8184 26.2549C21.9343 26.352 22.0108 26.4879 22.0338 26.6373C22.0567 26.7865 22.0243 26.9392 21.9427 27.0664C21.5557 27.6199 21.2932 28.0086 21.0727 28.3371C20.6767 28.9221 20.4097 29.3181 19.7976 30.1117C20.4952 30.1297 21.1687 30.1507 21.8167 30.1702C26.3427 30.3082 29.601 30.4102 30.5311 29.2461Z" fill="#00A3E2"/>
<path fill-rule="evenodd" clip-rule="evenodd" d="M21.5454 13.9672C20.9138 14.0467 20.2823 14.1367 19.6538 14.2387C19.4973 14.2471 19.3508 14.3172 19.2461 14.4337C19.1414 14.5501 19.0872 14.7034 19.0956 14.8598C19.104 15.0162 19.1741 15.1627 19.2906 15.2674C19.407 15.3721 19.5603 15.4261 19.7168 15.4179C28.23 15.5874 34.4346 15.3339 35.3841 15.2229C35.4672 15.2221 35.5494 15.2047 35.6258 15.1717C35.702 15.1387 35.771 15.0906 35.8283 15.0304C35.8857 14.9703 35.9304 14.8992 35.9598 14.8215C35.9892 14.7437 36.0027 14.6608 35.9996 14.5777C35.9963 14.4947 35.9765 14.4131 35.9411 14.3378C35.9058 14.2626 35.8557 14.1951 35.7938 14.1396C35.732 14.0841 35.6595 14.0415 35.5809 14.0145C35.5023 13.9874 35.4191 13.9764 35.3361 13.9822C34.6386 13.8927 33.9395 13.8167 33.239 13.7542L33.269 13.2741C33.2915 12.8496 33.32 12.3395 33.3785 11.7365C33.452 10.9594 33.5645 10.1583 33.6785 9.35875C34.178 5.83044 34.6731 2.33812 31.6578 1.17851C29.618 0.691749 27.522 0.481347 25.4262 0.552955C24.0461 0.525954 22.5639 0.552956 21.8289 1.80256C21.3249 5.83794 21.2288 9.91381 21.5439 13.9687L21.5454 13.9672ZM22.7829 13.8262C25.8008 13.5167 28.8389 13.458 31.8663 13.6506C31.8633 13.2456 31.8858 12.7506 31.9113 12.1655C31.9293 11.7995 31.9488 11.3974 31.9623 10.9609L31.9728 10.6819C24.6777 11.534 24.5171 7.50309 32.0463 9.33175C32.0733 8.91922 32.1018 8.52468 32.1303 8.14815C32.1648 7.6711 32.1993 7.22256 32.2218 6.80403C23.2931 7.5976 25.6932 3.78274 32.2533 5.45841C32.2188 4.16379 31.9263 3.31172 30.9857 2.96067C28.5027 2.44485 25.947 2.38183 23.4416 2.77465C23.2226 3.13618 22.8579 11.2504 22.7829 13.8262Z" fill="#2B2A29"/>
<path fill-rule="evenodd" clip-rule="evenodd" d="M3.40862 24.8551L0.93789 26.4783C0.811995 26.5657 0.657249 26.6016 0.505719 26.578C0.354189 26.5546 0.217493 26.4738 0.123956 26.3523C0.0304197 26.2308 -0.0127856 26.0779 0.00329335 25.9254C0.0193724 25.773 0.0935028 25.6324 0.210322 25.5331C1.25442 24.6031 8.23755 18.4915 9.49167 19.1155C12.6066 20.701 15.5418 22.6173 18.2465 24.8311C18.3137 24.8775 18.3711 24.9364 18.4153 25.005C18.4597 25.0734 18.4902 25.15 18.5049 25.2303C18.5198 25.3105 18.5185 25.3929 18.5014 25.4725C18.4844 25.5523 18.4518 25.6281 18.4055 25.6951C18.3593 25.7623 18.3001 25.8198 18.2316 25.8642C18.1632 25.9084 18.0865 25.9389 18.0065 25.9537C17.9262 25.9684 17.8438 25.9672 17.764 25.9501C17.6842 25.9332 17.6087 25.9005 17.5415 25.8543C17.0718 25.5736 16.2123 25.0711 15.1937 24.4831C15.2656 25.1806 15.3496 25.8588 15.4291 26.5098C15.8793 30.1551 16.2243 32.9649 13.9876 33.8529C11.0687 34.4349 8.05801 34.3734 5.16528 33.6729C3.2301 32.8194 3.2781 30.8932 3.36511 27.3453C3.38461 26.5923 3.40562 25.7641 3.41012 24.8581L3.40862 24.8551ZM4.4587 24.1665C4.53831 24.2635 4.58505 24.3834 4.59222 24.5086C5.21928 30.9937 5.22678 31.1587 5.24178 31.1587C5.24478 31.1587 5.24778 31.1527 5.25678 31.1902C5.65133 32.8239 12.4769 32.3092 13.1655 32.1277C13.9891 31.9177 13.9756 31.1197 13.9246 27.7849C13.9096 26.7513 13.8886 25.4746 13.8886 23.895C13.8839 23.8425 13.8859 23.7895 13.8946 23.7375C12.1814 22.7595 10.3092 21.7138 9.12414 21.1078L4.4587 24.1665Z" fill="#2B2A29"/>
</g>
<defs>
<clipPath id="clip0_2615_424">
<rect width="36" height="36" fill="white"/>
</clipPath>
</defs>
</svg>
