<svg width="36" height="36" viewBox="0 0 36 36" fill="none" xmlns="http://www.w3.org/2000/svg">
<g clip-path="url(#clip0_2615_435)">
<path fill-rule="evenodd" clip-rule="evenodd" d="M17.2784 30.2302C16.4984 30.2302 15.5984 30.0802 14.6384 30.0052C14.0384 29.9902 13.4834 29.9902 12.8684 29.9902C11.8319 29.9913 10.7976 30.0867 9.7784 30.2752C9.72036 30.2787 9.66371 30.2943 9.612 30.3208C9.5603 30.3474 9.51467 30.3844 9.47801 30.4296C9.44135 30.4747 9.41445 30.5269 9.39903 30.583C9.3836 30.639 9.37998 30.6976 9.3884 30.7552C9.39401 30.8124 9.41091 30.868 9.43814 30.9186C9.46536 30.9693 9.50237 31.0141 9.54701 31.0503C9.59165 31.0866 9.64304 31.1137 9.69821 31.1299C9.75338 31.1463 9.81122 31.1514 9.8684 31.1452C10.2134 31.1452 11.1734 31.4452 12.4184 31.6102C12.7784 31.6102 13.1534 31.6402 13.5434 31.7002H14.6984C15.6021 31.6477 16.5 31.5223 17.3834 31.3252C17.5148 31.3113 17.6351 31.2457 17.718 31.1431C17.801 31.0404 17.8398 30.909 17.8259 30.7777C17.8119 30.6463 17.7465 30.526 17.6438 30.4431C17.5412 30.3601 17.4096 30.3213 17.2784 30.3352V30.2302Z" fill="#00A3E2"/>
<path fill-rule="evenodd" clip-rule="evenodd" d="M15.8533 26.5558L14.7133 26.4358H13.5583C12.4578 26.3898 11.3555 26.4703 10.2733 26.6758C10.2172 26.6866 10.1637 26.7084 10.1159 26.7397C10.0682 26.7712 10.0271 26.8119 9.99507 26.8593C9.96303 26.9065 9.94065 26.9598 9.92919 27.0159C9.91774 27.0718 9.91744 27.1296 9.92833 27.1858C9.95358 27.3004 10.0226 27.4006 10.1207 27.465C10.2187 27.5295 10.3381 27.553 10.4533 27.5308C10.7983 27.5308 11.8483 27.8608 13.1233 28.0408C13.7543 28.131 14.3909 28.1761 15.0283 28.1758C16.2436 28.285 17.4601 27.9783 18.4783 27.3058C18.525 27.2598 18.5622 27.2049 18.5874 27.1443C18.6127 27.0838 18.6258 27.0189 18.6258 26.9533C18.6258 26.8876 18.6127 26.8227 18.5874 26.7622C18.5622 26.7016 18.525 26.6469 18.4783 26.6008C17.9833 26.0908 18.5833 26.8108 15.8533 26.5558Z" fill="#00A3E2"/>
<path fill-rule="evenodd" clip-rule="evenodd" d="M25.6764 17.2125C25.7857 17.2542 25.9072 17.2509 26.0142 17.203C26.1211 17.1552 26.2045 17.0668 26.2464 16.9575C26.2881 16.848 26.2848 16.7265 26.2369 16.6197C26.1891 16.5127 26.1007 16.4292 25.9914 16.3875C25.4509 16.1241 24.8481 16.0153 24.2497 16.0737C23.6514 16.1319 23.0808 16.3548 22.6014 16.7175C22.2448 17.0622 22.0198 17.5206 21.9651 18.0133C21.9103 18.5062 22.0293 19.0029 22.3014 19.4175C22.5721 19.8244 22.9479 20.1508 23.3887 20.362C23.8297 20.5732 24.3195 20.6614 24.8064 20.6175C25.2955 20.6088 25.7646 20.4205 26.1241 20.0887C26.4835 19.7568 26.7087 19.3044 26.7564 18.8175C26.7814 18.7477 26.7909 18.6735 26.7843 18.5997C26.7777 18.5259 26.755 18.4545 26.7181 18.3904C26.6811 18.3262 26.6305 18.271 26.5701 18.2283C26.5095 18.1857 26.4403 18.1567 26.3676 18.1435C26.2947 18.1302 26.2198 18.133 26.1481 18.1516C26.0766 18.1702 26.0098 18.2043 25.9525 18.2512C25.8954 18.2982 25.849 18.3571 25.8169 18.4239C25.7847 18.4905 25.7676 18.5634 25.7664 18.6375C25.7199 18.7992 25.624 18.9426 25.4923 19.0474C25.3606 19.1523 25.1995 19.2133 25.0314 19.2225C24.7872 19.2652 24.5356 19.2304 24.3123 19.1227C24.0891 19.015 23.905 18.8401 23.7864 18.6225C23.5164 18.1575 23.5914 17.8125 23.9064 17.5875C24.1606 17.4082 24.4486 17.2827 24.7528 17.2182C25.0572 17.1537 25.3713 17.1517 25.6764 17.2125Z" fill="#2B2A29"/>
<path fill-rule="evenodd" clip-rule="evenodd" d="M28.6003 8.52855C29.5602 8.61853 30.43 8.69352 31.2099 8.7985C34.9293 9.24843 34.0594 9.29343 34.2094 10.2983C34.3815 12.3293 34.3815 14.3713 34.2094 16.4022C34.1965 18.0326 33.9126 19.6493 33.3696 21.1865C32.865 21.9726 32.2766 22.7018 31.6149 23.3612C31.172 23.7908 30.7064 24.1964 30.2201 24.576C30.3195 23.8859 30.3596 23.1884 30.34 22.4913V19.8668C30.4398 18.5939 30.4398 17.3153 30.34 16.0424C30.2797 15.4179 30.0401 14.8241 29.6502 14.3326C29.7104 14.3358 29.7707 14.3268 29.8274 14.3061C29.8841 14.2855 29.9359 14.2537 29.98 14.2126C30.43 13.9877 30.8649 13.8377 31.2849 13.5977C31.4642 13.4915 31.6347 13.3711 31.7948 13.2378C31.9547 13.1029 32.1005 12.9522 32.2298 12.7879C32.5644 12.3876 32.8513 11.9497 33.0846 11.4831C33.1409 11.3769 33.1578 11.2542 33.1325 11.1367C33.1071 11.0193 33.0411 10.9145 32.946 10.841C32.851 10.7674 32.733 10.7298 32.613 10.7348C32.4928 10.7398 32.3784 10.787 32.2897 10.8682C31.9597 11.1531 31.5549 11.3331 31.1499 11.6181C30.8886 11.7916 30.6427 11.9873 30.4151 12.203C30.0387 12.6188 29.6975 13.0653 29.3952 13.5378C28.8797 13.7382 28.3172 13.7851 27.7755 13.6727C23.6101 13.2518 19.4232 13.0816 15.2374 13.1628C12.3579 13.1628 9.41837 13.3578 6.88376 13.6577C5.1008 13.8479 3.34194 14.2198 1.6346 14.7676C2.11452 14.1077 2.8794 13.2678 3.68927 12.263C4.22918 11.6331 4.78409 10.9882 5.30901 10.4182C5.78322 9.80742 6.3747 9.29752 7.04874 8.91849C8.11356 8.63353 8.35353 8.18361 7.57365 7.5387C7.26939 7.50957 6.96305 7.50957 6.6588 7.5387C5.96926 7.74012 5.33373 8.09376 4.79909 8.57353C4.31364 8.98699 3.86686 9.4438 3.46429 9.93832C3.09948 10.3689 2.75899 10.8195 2.44446 11.2881C1.74594 12.3835 1.13417 13.5318 0.614751 14.7226C0.614751 14.7226 0.0748365 16.8822 0.0748365 16.9422C-0.0700039 18.4437 -0.00437999 19.9581 0.269805 21.4415C0.363858 22.5344 0.363858 23.6331 0.269805 24.726C0.232052 25.3244 0.401528 25.9176 0.74973 26.4057C1.04428 26.7059 1.40593 26.9318 1.80488 27.0647C2.20381 27.1977 2.62864 27.234 3.04437 27.1706H4.54413C4.64751 27.1515 4.74094 27.0968 4.80819 27.0159C4.87543 26.9351 4.91226 26.8334 4.91226 26.7282C4.91226 26.6231 4.87543 26.5212 4.80819 26.4404C4.74094 26.3595 4.64751 26.3049 4.54413 26.2857H3.04437C1.91955 26.2857 1.54461 26.0007 1.36463 25.4159C1.16966 24.441 1.57459 22.9713 1.36463 21.3065C1.19875 20.1444 1.15852 18.9678 1.24465 17.7971C1.27565 17.3846 1.37182 16.9796 1.52961 16.5972C1.52961 16.4622 1.66458 16.3274 1.78456 16.2974C5.30886 15.4055 8.93256 14.967 12.5679 14.9925C17.3972 14.8276 22.5262 14.8875 25.7508 15.0825C26.8756 15.0825 27.7605 15.2175 28.3153 15.3075L28.6903 15.3825C28.9613 15.7953 29.0927 16.2842 29.0652 16.7772C29.1237 17.8212 29.1237 18.8678 29.0652 19.9118V22.5363C29.0652 24.036 29.0652 24.906 28.5854 25.4159C27.7474 26.0237 26.7748 26.42 25.7508 26.5707C25.6875 26.588 25.6283 26.6177 25.5767 26.658C25.5249 26.6985 25.4817 26.7488 25.4496 26.8059C25.4175 26.8632 25.3971 26.9262 25.3896 26.9913C25.3821 27.0566 25.3876 27.1226 25.4058 27.1856C25.4232 27.2489 25.4529 27.3081 25.4932 27.3597C25.5336 27.4115 25.5838 27.4547 25.6411 27.4868C25.6983 27.5189 25.7613 27.5393 25.8265 27.5468C25.8916 27.5543 25.9576 27.5487 26.0208 27.5306C28.3638 27.0171 30.5277 25.8885 32.2897 24.261C33.1108 23.5662 33.846 22.7757 34.4795 21.9065C35.1402 20.6427 35.5477 19.2621 35.6791 17.8421C35.8566 16.5143 35.9568 15.1772 35.9791 13.8377C36.0463 12.3769 35.9508 10.9131 35.6941 9.4734C35.6665 9.17361 35.5728 8.88364 35.4198 8.62434C35.2669 8.36503 35.0584 8.14282 34.8093 7.97364C33.9513 7.69647 33.0564 7.54986 32.1548 7.5387C31.2399 7.49371 30.1301 7.49371 28.9153 7.49371C27.6705 7.70368 27.7905 8.07862 28.6003 8.52855Z" fill="#2B2A29"/>
<path fill-rule="evenodd" clip-rule="evenodd" d="M27.7305 1.49469C27.6894 1.33766 27.6124 1.19228 27.5058 1.06997C27.3991 0.947667 27.2655 0.851763 27.1155 0.789796C25.6386 0.45813 24.13 0.287163 22.6162 0.279877C19.4817 0.174894 15.4473 0.159897 12.5828 0.249882C11.474 0.270771 10.3673 0.3559 9.26835 0.504841C8.56345 0.654817 8.42848 1.16474 8.44348 1.34471L9.13336 7.49373L9.23835 8.54356L9.34333 9.42843C8.81842 9.42843 8.26351 9.32344 8.15853 9.84837C8.05354 10.3733 13.3327 10.6432 15.9723 10.7782C19.8717 10.9582 24.3259 10.9282 25.6458 10.2533C25.9512 10.0488 26.1867 9.75574 26.3206 9.41343C26.4685 9.07043 26.5987 8.72003 26.7106 8.3636L26.9805 7.49373C27.2863 6.39917 27.5266 5.28738 27.7005 4.16427C27.8845 3.28488 27.8947 2.37798 27.7305 1.49469ZM25.1658 8.03366C25.0308 8.46858 24.6709 8.87352 24.7609 9.02349C22.6612 9.93835 14.6525 9.69838 11.353 9.56341H10.3632L9.77827 1.85463C10.1289 1.77462 10.4847 1.71949 10.8431 1.68966C13.0477 1.68966 16.9771 1.68966 20.3815 1.88463C22.9762 2.0046 25.2558 2.10958 26.1556 2.28955V2.37954C26.0532 4.29706 25.7208 6.19534 25.1658 8.03366Z" fill="#2B2A29"/>
<path fill-rule="evenodd" clip-rule="evenodd" d="M22.1963 24.7563C22.1421 26.5172 21.9262 28.2693 21.5514 29.9906C21.4938 30.6207 21.3071 31.2324 21.0026 31.7871C20.698 32.342 20.2824 32.828 19.7817 33.215C19.1661 33.4989 18.5069 33.6764 17.832 33.74C16.7222 33.875 15.6123 33.845 14.4275 33.995C13.4334 34.1463 12.4221 34.1463 11.428 33.995C9.92822 33.785 7.88855 34.1148 6.20882 33.77C5.66579 33.6737 5.15244 33.453 4.70904 33.125C4.85903 32.9151 5.17398 32.6301 5.21897 32.5101C5.71389 31.4453 6.2988 30.4404 6.82371 29.3906C7.04868 28.9257 7.27364 28.4607 7.46861 27.9809C7.92473 26.9669 8.19887 25.8804 8.27849 24.7713C7.84355 24.1565 7.45362 23.9465 7.19865 24.7713C6.9287 25.8662 6.58376 27.246 6.44877 27.5309L3.97416 31.8803C3.6782 32.252 3.43122 32.6603 3.23928 33.095C3.19962 33.2625 3.20361 33.4373 3.25088 33.6027C3.29816 33.7682 3.38711 33.9186 3.50924 34.04C4.14773 34.6874 4.96053 35.1354 5.84886 35.3297C7.54361 35.7347 9.59828 35.4347 11.188 35.6747C11.7539 35.7614 12.3253 35.8065 12.8978 35.8097C13.4756 35.8025 14.0521 35.7522 14.6225 35.6597C16.0323 35.4497 17.337 35.4797 18.6269 35.1947C19.2614 35.0447 19.8721 34.8074 20.4415 34.4898C21.5275 33.7562 22.2817 32.625 22.5413 31.3403C23.0604 29.1651 23.2972 26.9321 23.2461 24.6963C23.2461 23.7365 22.4813 23.9915 22.1963 24.7563Z" fill="#2B2A29"/>
<path fill-rule="evenodd" clip-rule="evenodd" d="M25.4809 22.0415C24.9801 22.0386 24.4794 22.0637 23.9813 22.1165C23.2613 22.1915 22.4814 22.3113 21.8666 22.3863C20.8953 22.4894 19.918 22.5245 18.942 22.4913C17.7871 22.4913 16.6173 22.3713 15.4626 22.3113C14.3077 22.2513 13.0479 22.2063 11.8781 22.2213L7.33381 22.4913H5.83405C5.69908 22.4913 4.97919 22.3413 4.69423 22.7013C4.65304 22.7691 4.62987 22.8464 4.62693 22.9256C4.624 23.0049 4.6414 23.0835 4.67748 23.1542C4.71355 23.2248 4.7671 23.2851 4.83304 23.3292C4.89898 23.3733 4.97511 23.3999 5.05417 23.4062C5.31394 23.4207 5.5743 23.4207 5.83405 23.4062L11.8331 23.7212C12.808 23.7212 13.8128 23.8262 14.8326 23.8712C15.8525 23.9162 16.8723 23.9762 17.8321 23.9762C19.2274 23.9738 20.619 23.8332 21.9865 23.5562L24.0562 23.1213C24.4926 23.0414 24.9333 22.9863 25.3759 22.9563C25.4943 22.9358 25.6017 22.8741 25.6789 22.7822C25.7563 22.6902 25.7988 22.574 25.7988 22.4538C25.7988 22.3337 25.7563 22.2174 25.6789 22.1255C25.6017 22.0337 25.4943 21.972 25.3759 21.9515L25.4809 22.0415Z" fill="#2B2A29"/>
</g>
<defs>
<clipPath id="clip0_2615_435">
<rect width="36" height="36" fill="white"/>
</clipPath>
</defs>
</svg>
