<svg width="36" height="36" viewBox="0 0 36 36" fill="none" xmlns="http://www.w3.org/2000/svg">
<g clip-path="url(#clip0_2615_414)">
<path d="M30.6423 15.4066C30.5796 15.3431 30.5049 15.2927 30.4224 15.2583C30.3401 15.2238 30.2517 15.2061 30.1623 15.2061C30.0731 15.2061 29.9847 15.2238 29.9024 15.2583C29.8199 15.2927 29.7452 15.3431 29.6823 15.4066C29.1857 15.8715 28.7244 16.373 28.3023 16.9067C27.6573 17.6867 27.0723 18.5267 26.4723 19.2917C25.2123 20.9417 23.9523 22.5767 22.6323 24.1817C21.7623 25.2467 20.8623 26.2966 19.9323 27.3167C19.2573 28.0816 18.4323 29.1616 17.4573 30.1066C16.9295 30.6975 16.3356 31.226 15.6873 31.6817C14.9671 32.0012 14.1879 32.1663 13.3999 32.1663C12.6119 32.1663 11.8326 32.0012 11.1124 31.6817C9.54278 31.1745 8.14896 30.2332 7.09236 28.9667C6.72692 28.4769 6.48213 27.9079 6.37787 27.3058C6.27362 26.7037 6.31284 26.0856 6.49236 25.5016C7.1627 23.5788 8.07503 21.7491 9.20736 20.0567C9.59736 19.3666 9.98736 18.6916 10.4074 18.0166C10.8274 17.3416 11.2324 16.6817 11.6824 16.0366L13.8424 13.0366C14.9524 11.5366 16.0773 10.0366 17.3373 8.53658C18.1472 7.60032 19.052 6.75075 20.0373 6.00157C20.4573 5.68657 20.8773 5.32658 21.3123 5.04158C21.5579 4.87137 21.8253 4.73514 22.1073 4.63658C22.9455 4.39691 23.8341 4.39691 24.6723 4.63658C25.5545 4.87781 26.3907 5.26299 27.1473 5.77658C27.5243 6.02961 27.8189 6.38744 27.9948 6.80592C28.1708 7.22442 28.2203 7.68525 28.1373 8.13157C27.8354 9.7215 27.1334 11.2083 26.0973 12.4516L24.8973 13.9516L23.3973 15.9616L21.3723 18.6766L18.8973 22.0067C18.414 22.6607 17.8878 23.2819 17.3223 23.8666C16.7694 24.4445 16.1444 24.9486 15.4623 25.3666C15.062 25.5737 14.6221 25.6927 14.1719 25.716C13.7218 25.7394 13.2719 25.6662 12.8524 25.5016C12.4561 25.4073 12.1055 25.177 11.8615 24.851C11.6176 24.5247 11.4958 24.1233 11.5174 23.7167C11.6177 23.0324 11.8743 22.3804 12.2674 21.8116C12.8974 20.7766 13.7674 19.7867 14.3074 19.0067C14.8474 18.2267 15.5823 17.1616 16.2723 16.2766C16.7237 15.7072 17.2257 15.1802 17.7723 14.7016C17.8506 14.6515 17.9171 14.5852 17.9672 14.5071C18.0174 14.4291 18.0501 14.3411 18.0632 14.2492C18.0764 14.1573 18.0693 14.0636 18.0429 13.9747C18.0165 13.8857 17.9712 13.8034 17.91 13.7336C17.849 13.6637 17.7735 13.6079 17.6888 13.5699C17.6042 13.5319 17.5122 13.5126 17.4194 13.5133C17.3265 13.5141 17.235 13.5349 17.151 13.5743C17.0669 13.6137 16.9923 13.6707 16.9323 13.7416C16.3478 14.2791 15.8108 14.8663 15.3273 15.4966C14.6374 16.3966 14.0074 17.3717 13.3624 18.2717C12.7174 19.1716 11.8624 20.1017 11.2774 21.1817C10.7904 21.9109 10.4774 22.7423 10.3624 23.6117C10.3167 24.1596 10.4349 24.7089 10.702 25.1895C10.9691 25.6702 11.3729 26.0609 11.8624 26.3116C12.5109 26.6873 13.243 26.895 13.9921 26.916C14.7413 26.9368 15.4839 26.7703 16.1523 26.4317C16.7729 26.0718 17.3514 25.6441 17.8773 25.1567C18.6399 24.4296 19.3421 23.6419 19.9773 22.8016L22.3473 19.5016L24.4323 16.7416L25.9323 14.7916L27.1323 13.2916C28.332 11.8595 29.1477 10.1458 29.5023 8.31157C29.6253 7.61439 29.5418 6.89646 29.2619 6.24616C28.9821 5.59587 28.5182 5.04161 27.9273 4.65158C27.0426 4.04037 26.0577 3.58857 25.0173 3.31658C23.9297 3.00239 22.7751 3.00239 21.6873 3.31658C21.281 3.44855 20.8968 3.64068 20.5473 3.88658C20.0973 4.18658 19.6623 4.56157 19.2273 4.89157C18.1736 5.70252 17.2037 6.6171 16.3323 7.62157C15.0573 9.12157 13.9324 10.7116 12.8074 12.2566L10.6624 15.3617C10.2124 16.0367 9.77736 16.7116 9.35736 17.4016C8.93736 18.0916 8.56236 18.7966 8.17236 19.5016C6.99977 21.2943 6.0621 23.23 5.38236 25.2617C5.16243 26.013 5.1239 26.8059 5.26992 27.5751C5.41595 28.3444 5.74236 29.068 6.22236 29.6866C7.40204 31.1192 8.96169 32.1901 10.7224 32.7766C11.6031 33.1512 12.5534 33.3342 13.5103 33.3135C14.4671 33.2928 15.4086 33.0689 16.2723 32.6567C16.8119 32.286 17.3142 31.864 17.7723 31.3967C18.8523 30.3467 19.9473 29.0267 20.7723 28.1567C21.5973 27.2866 22.6323 26.0717 23.5323 25.0067C24.8823 23.4017 26.1723 21.7667 27.4623 20.1317C28.0623 19.3667 28.6623 18.5566 29.2923 17.7766C29.691 17.2836 30.122 16.8176 30.5823 16.3817C30.6504 16.3215 30.7059 16.2488 30.7458 16.1672C30.7857 16.0857 30.809 15.9971 30.8147 15.9065C30.8202 15.816 30.8078 15.7253 30.7782 15.6395C30.7487 15.5536 30.7026 15.4744 30.6423 15.4066Z" fill="#2B2A29"/>
<path d="M3.65736 23.0566C3.65736 23.3416 2.29236 22.7716 1.09236 23.4016C-0.497642 24.2566 -0.182642 22.2166 0.957358 22.0666C2.47236 21.8566 3.79236 22.4116 3.65736 23.0566Z" fill="#00A3E2"/>
<path d="M7.96237 13.2316C8.06737 12.9466 6.85237 12.1666 6.14737 10.9966C5.20237 9.49664 4.43737 11.3866 5.35237 12.0916C6.55237 13.0366 7.75237 13.8466 7.96237 13.2316Z" fill="#00A3E2"/>
<path d="M14.6374 4.87658C14.3374 4.87658 14.4424 3.49658 13.4224 2.58158C12.0874 1.36658 14.1124 0.976577 14.6524 1.99658C15.3574 3.34658 15.2824 4.78658 14.6374 4.87658Z" fill="#00A3E2"/>
<path d="M20.1571 31.1262C19.9021 31.3062 20.9521 32.2812 20.8321 33.6312C20.6671 35.4312 22.4221 34.3362 22.1221 33.2412C21.7021 31.7562 20.6821 30.7662 20.1571 31.1262Z" fill="#00A3E2"/>
<path d="M27.5073 23.3265C27.7323 23.1315 28.9173 23.9265 30.2673 24.1365C32.0523 24.3915 30.5823 25.8465 29.5773 25.2915C28.2423 24.5565 26.9973 23.7615 27.5073 23.3265Z" fill="#00A3E2"/>
<path d="M32.337 13.5765C32.337 13.8765 33.687 13.2465 34.917 13.8465C36.537 14.6415 36.147 12.6165 35.007 12.4965C33.477 12.3465 32.187 12.9465 32.337 13.5765Z" fill="#00A3E2"/>
</g>
<defs>
<clipPath id="clip0_2615_414">
<rect width="36" height="36" fill="white"/>
</clipPath>
</defs>
</svg>
