<svg width="36" height="36" viewBox="0 0 36 36" fill="none" xmlns="http://www.w3.org/2000/svg">
<g clip-path="url(#clip0_2615_434)">
<path fill-rule="evenodd" clip-rule="evenodd" d="M35.018 11.2478C34.254 10.5581 33.2771 10.1507 32.2494 10.0933C31.2218 10.0359 30.2055 10.332 29.3694 10.9323C28.6707 11.5562 28.1385 12.3445 27.8211 13.2258C27.5037 14.1072 27.4112 15.0537 27.5517 15.98C27.4943 16.1307 27.4076 16.2686 27.2963 16.3856C26.5752 15.6644 26.4401 15.3791 26.0645 15.1536C25.6538 14.9462 25.2059 14.8221 24.747 14.7886C24.288 14.7551 23.8269 14.8128 23.3904 14.9584C22.9776 15.1034 22.6344 15.3983 22.4289 15.7847C21.5058 16.1727 20.7501 16.8753 20.2958 17.7677C19.6197 19.4201 20.6714 20.7722 21.5877 22.1243C22.0374 22.794 22.5398 23.427 23.09 24.0171C24.6288 25.3467 26.4539 26.303 28.4231 26.8113C28.8803 26.8359 29.3366 26.7488 29.7527 26.5578C30.1688 26.3667 30.5322 26.0774 30.8117 25.7147C31.7732 24.618 33.005 22.9655 32.5994 21.6285C31.9083 19.2849 29.745 19.1948 30.5412 20.3816C30.9467 20.8197 31.2677 21.329 31.4877 21.8838C31.5087 22.0331 31.4985 22.185 31.4574 22.3299C31.4163 22.475 31.3455 22.6097 31.2492 22.7256C31.1531 22.8417 31.0338 22.9362 30.899 23.0034C30.7641 23.0706 30.6167 23.1089 30.4661 23.1158C29.2043 23.2509 25.5837 20.5319 24.4571 18.3384C24.0818 17.8365 23.811 17.2644 23.6609 16.6559C23.6609 15.7395 25.1631 15.7095 25.7039 15.965L26.8157 16.9865C26.3199 17.4822 25.6589 18.1281 26.1095 18.4887C26.193 18.5669 26.3031 18.6104 26.4176 18.6104C26.5319 18.6104 26.642 18.5669 26.7255 18.4887C26.9508 17.8728 28.3179 17.1518 28.6935 16.2203C29.069 15.2889 28.3931 14.3875 29.715 12.6899C30.2181 12.093 30.9338 11.7152 31.7105 11.6367C32.4872 11.5582 33.264 11.7851 33.8763 12.2693C35.1833 13.6514 34.5072 17.0015 32.3741 17.4672C31.5629 17.6625 30.8718 17.4672 30.1206 18.0681C29.7596 18.4071 29.4371 18.785 29.1591 19.1948C28.7235 19.7807 28.1978 20.2914 28.8287 20.5619C29.4596 20.8323 29.5197 20.4116 29.9855 19.8558C30.2259 19.5296 30.5031 19.2321 30.8117 18.9695C31.2924 18.639 31.9535 18.9695 32.8998 18.684C33.5997 18.4148 34.2273 17.9864 34.7333 17.4329C35.2392 16.8794 35.6096 16.2158 35.8149 15.4946C36.0204 14.7734 36.0554 14.0143 35.9171 13.2772C35.7788 12.5402 35.471 11.8454 35.018 11.2478ZM24.9228 21.7637C26.0345 22.8303 28.4831 24.588 30.2408 24.5279C29.715 25.1138 29.1141 25.6545 28.3779 25.4142C26.1225 24.6635 24.1961 23.1563 22.9247 21.1478C22.4034 20.5902 21.9543 19.9694 21.5877 19.2999C21.4224 18.9744 21.3696 18.6032 21.4376 18.2445C21.5055 17.8857 21.6903 17.5596 21.9633 17.3169L22.2036 17.1216C22.6451 18.9111 23.5884 20.5373 24.9228 21.8088V21.7637Z" fill="#2B2A29"/>
<path fill-rule="evenodd" clip-rule="evenodd" d="M18.9587 32.3997C17.4206 32.9945 15.8168 33.4029 14.1815 33.6165C12.4989 33.7968 11.1769 34.1874 10.2906 34.1724C10.1854 34.1724 10.0652 34.0673 10.0202 34.0973C7.9921 29.891 1.06662 7.85253 0.826251 7.44691C0.783222 7.36926 0.718215 7.30603 0.639387 7.26519C0.560557 7.22434 0.471421 7.20769 0.383161 7.21732C0.294903 7.22694 0.211453 7.26243 0.143287 7.31931C0.0751203 7.37619 0.0252726 7.45194 0 7.53705C0 7.67226 3.33505 20.1111 3.71062 21.3881C5.07028 25.9748 6.75715 30.458 8.75826 34.8033C9.56949 36.3056 11.913 35.1939 14.3467 34.8033C16.0338 34.4822 17.6811 33.9785 19.2591 33.3011C19.3377 33.2352 19.3945 33.1473 19.4224 33.0488C19.4503 32.9501 19.448 32.8454 19.4156 32.7482C19.3832 32.651 19.3223 32.5658 19.2408 32.5037C19.1594 32.4414 19.0611 32.4053 18.9587 32.3997Z" fill="#2B2A29"/>
<path fill-rule="evenodd" clip-rule="evenodd" d="M1.337 6.48546C5.73358 4.85113 10.2552 3.57505 14.8575 2.66968C16.2475 2.36061 17.6584 2.15475 19.0789 2.05375C18.8836 3.55603 17.817 7.83751 19.9953 8.06286C22.069 7.97953 24.0406 7.14064 25.5387 5.70429C26.0494 8.00277 25.779 6.95117 26.7405 10.4515C26.7852 10.5512 26.8645 10.6313 26.964 10.6768C27.0633 10.7223 27.1758 10.7302 27.2805 10.699C27.3852 10.6678 27.475 10.5995 27.5332 10.507C27.5914 10.4145 27.6139 10.304 27.5968 10.1961C27.1759 8.46834 26.8549 6.71779 26.6353 4.95315C26.47 3.79639 21.0168 0.190932 18.6732 0.446319C11.7177 1.04723 5.6335 3.81141 0.931381 5.56908C0.809862 5.62287 0.714685 5.72272 0.66679 5.84668C0.618897 5.97064 0.622207 6.10855 0.675996 6.23008C0.729783 6.3516 0.829642 6.44677 0.953604 6.49467C1.07757 6.54256 1.21548 6.53925 1.337 6.48546ZM24.8626 4.80292C24.2317 5.68926 21.5877 6.30519 20.3557 6.30519C20.1535 4.95804 20.068 3.5959 20.1004 2.23402C21.7902 2.88516 23.3904 3.74836 24.8626 4.80292Z" fill="#2B2A29"/>
<path fill-rule="evenodd" clip-rule="evenodd" d="M33.5007 26.8413C32.6445 26.8413 33.636 28.0881 32.1337 30.8523L27.732 29.1248C27.3264 28.9745 27.5517 28.9295 22.7895 32.0541C22.3314 30.6776 21.7947 29.3283 21.1821 28.013C20.5662 27.1718 18.4329 27.8778 15.4134 28.4337C17.5767 25.2489 17.9521 24.7832 17.3212 24.1973C16.6903 23.6114 13.3853 21.5682 13.0398 21.0425C13.4153 20.8622 14.0763 20.5767 14.7373 20.3064C16.6002 19.5702 16.8255 19.7505 16.9606 19.2098C17.0959 18.6689 16.6302 16.2051 16.7353 15.3038C16.9156 15.3038 16.57 15.1986 19.1089 15.7545C19.2405 15.7704 19.3728 15.7335 19.477 15.6518C19.5813 15.57 19.6488 15.4503 19.6648 15.3188C19.6807 15.1874 19.6438 15.0549 19.5621 14.9507C19.4803 14.8464 19.3606 14.7789 19.2291 14.763C18.463 14.6578 16.4049 13.6813 15.864 14.5076C15.6045 15.8645 15.5638 17.2541 15.7438 18.6239C14.608 18.9599 13.4941 19.3662 12.4088 19.8407C11.9581 20.066 11.4323 20.1411 11.2971 20.6819C11.1619 21.2228 11.7177 21.8237 12.1985 22.1843C12.6792 22.5447 14.7974 24.1973 15.7588 24.9183C14.8023 26.1867 13.9147 27.5055 13.0998 28.8693C12.9962 29.0711 12.9711 29.3042 13.0294 29.5235C13.0877 29.7426 13.2252 29.9324 13.4153 30.0561C14.1114 30.3248 14.8825 30.3248 15.5785 30.0561C16.495 29.8908 18.9136 29.3351 20.0854 29.2449C21.2872 31.6485 21.5877 34.6532 22.9698 33.7517L27.687 30.3566L32.1937 31.934C32.3071 31.977 32.4318 31.9796 32.5467 31.9413C32.6617 31.9029 32.7598 31.8261 32.8248 31.7237C33.6145 30.3552 34.0146 28.7966 33.9814 27.2168C33.9664 27.1038 33.9076 27.0011 33.8178 26.9309C33.7279 26.8607 33.6141 26.8284 33.5007 26.8413Z" fill="#00A3E2"/>
<path fill-rule="evenodd" clip-rule="evenodd" d="M15.0228 8.07789C15.1523 8.05001 15.2654 7.97181 15.3372 7.86053C15.4091 7.74924 15.4338 7.61399 15.4059 7.48449C15.378 7.355 15.2999 7.2419 15.1886 7.17005C15.0773 7.09821 14.942 7.07352 14.8125 7.10141C11.6975 7.66898 8.7134 8.80455 6.00914 10.4515C5.95391 10.4692 5.90271 10.4977 5.85846 10.5352C5.81423 10.5728 5.77781 10.6187 5.75132 10.6703C5.72481 10.7219 5.70873 10.7782 5.70399 10.8361C5.69925 10.8939 5.70596 10.9521 5.72372 11.0073C5.74146 11.0626 5.76993 11.1138 5.80748 11.158C5.84502 11.2022 5.89091 11.2387 5.94252 11.2652C5.99414 11.2917 6.05046 11.3078 6.10829 11.3125C6.16613 11.3172 6.22431 11.3105 6.27956 11.2928C11.1169 10.2712 12.7393 8.76894 15.0228 8.07789Z" fill="#2B2A29"/>
<path fill-rule="evenodd" clip-rule="evenodd" d="M9.47939 15.3489C10.6543 15.2515 11.8006 14.9357 12.8595 14.4174C13.5681 13.9737 14.3445 13.6489 15.158 13.456C15.2765 13.4354 15.384 13.3737 15.4616 13.2816C15.539 13.1895 15.5814 13.0731 15.5814 12.9527C15.5814 12.8324 15.539 12.7159 15.4616 12.6238C15.384 12.5318 15.2765 12.47 15.158 12.4495C14.4915 12.3932 13.8204 12.4542 13.175 12.6297C12.2921 12.8316 11.4352 13.1341 10.6211 13.5311C10.9967 13.3959 8.20245 14.5527 8.14236 14.6728C7.81185 15.454 8.66816 15.499 9.47939 15.3489Z" fill="#2B2A29"/>
</g>
<defs>
<clipPath id="clip0_2615_434">
<rect width="36" height="36" fill="white"/>
</clipPath>
</defs>
</svg>
