<svg width="36" height="36" viewBox="0 0 36 36" fill="none" xmlns="http://www.w3.org/2000/svg">
<path d="M21.3985 18.5187L21.8568 18.0377C25.2503 17.7556 28.5945 17.0467 31.8109 15.9276L31.8835 15.9083C31.9808 15.8902 32.0736 15.853 32.1567 15.7989L32.4298 16.2177L32.1567 15.7989C32.2397 15.7447 32.3114 15.6746 32.3675 15.5927C32.4236 15.5107 32.4631 15.4185 32.4836 15.3211L21.3985 18.5187ZM21.3985 18.5187C21.2997 21.3887 21.1749 22.3052 20.9752 23.7708C20.8374 24.7826 20.6639 26.0562 20.4388 28.4148L20.4392 28.514C20.539 29.4742 20.3926 29.9933 20.2123 30.2427C20.0635 30.4487 19.8371 30.5432 19.4717 30.4822C19.427 30.4747 19.3446 30.4386 19.2418 30.2613C19.1395 30.0847 19.059 29.8356 19.001 29.5549C18.9442 29.2801 18.9151 29.0053 18.9003 28.7963C18.893 28.6926 18.8894 28.607 18.8876 28.5482C18.8867 28.5189 18.8863 28.4963 18.8861 28.4816L18.8859 28.4656L18.8859 28.4623M21.3985 18.5187L18.8859 28.4623M32.0048 13.9345C31.8436 13.9006 31.6773 13.8985 31.5153 13.9286H21.8982C21.6399 10.9747 21.6399 8.00367 21.8982 5.04936C21.9876 4.86642 22.0365 4.66672 22.042 4.46327C22.0478 4.25981 22.0098 4.05761 21.9308 3.87006C21.8518 3.68251 21.7335 3.51423 21.5839 3.37649C21.4347 3.23876 21.2575 3.13452 21.0644 3.07089M32.0048 13.9345L31.9007 14.4235C31.9009 14.4235 31.9011 14.4236 31.9012 14.4236M32.0048 13.9345L31.9019 14.4238C31.9017 14.4237 31.9014 14.4237 31.9012 14.4236M32.0048 13.9345L32.4872 15.0254C32.4504 14.8279 32.3368 14.6533 32.1719 14.5401L32.1717 14.54C32.09 14.4839 31.9981 14.4443 31.9012 14.4236M31.9012 14.4236C31.804 14.4033 31.7039 14.4021 31.6068 14.4202L31.5153 14.4286H21.8982L21.4001 13.9722C21.1393 10.9893 21.1393 7.9891 21.4001 5.00581L21.449 4.82976C21.5069 4.7113 21.5386 4.58196 21.5421 4.44992L21.5422 4.44889C21.5459 4.31724 21.5214 4.1861 21.47 4.06414C21.4188 3.94255 21.3421 3.83355 21.2453 3.74436L21.2448 3.74389C21.1482 3.6548 21.0335 3.58723 20.9084 3.54592M20.9084 3.54592C20.9085 3.54597 20.9087 3.54602 20.9088 3.54607L21.0644 3.07089M20.9084 3.54592C20.9082 3.54587 20.9081 3.54582 20.9079 3.54577L21.0644 3.07089M20.9084 3.54592C20.7829 3.50492 20.6504 3.49116 20.5198 3.50551M21.0644 3.07089C20.8713 3.00767 20.667 2.98632 20.4651 3.00851M20.4651 3.00851L20.5206 3.50542C20.5203 3.50545 20.5201 3.50548 20.5198 3.50551M20.4651 3.00851C20.2628 3.03112 20.0681 3.09643 19.8938 3.20067C19.7191 3.30449 19.5686 3.44515 19.4529 3.61218M20.4651 3.00851L20.5197 3.50552C20.5197 3.50552 20.5198 3.50551 20.5198 3.50551M20.5198 3.50551C20.3883 3.52032 20.2625 3.56273 20.1504 3.62977L20.1492 3.6305C20.0366 3.69743 19.9391 3.78844 19.8639 3.89685M19.8639 3.89685C19.864 3.89674 19.8641 3.89663 19.8641 3.89652L19.4529 3.61218M19.8639 3.89685C19.8639 3.8969 19.8639 3.89695 19.8638 3.897L19.4529 3.61218M19.8639 3.89685C19.7888 4.00566 19.7377 4.12913 19.7141 4.2592L19.6945 4.33381C18.6047 7.4727 17.9798 10.7548 17.8402 14.0752L17.3822 14.5525C14.4466 14.7976 11.4957 14.7976 8.56009 14.5525L8.53833 14.5502C8.31155 14.5212 8.08182 14.578 7.89363 14.7096C7.70636 14.8406 7.57401 15.0376 7.52283 15.2623M19.4529 3.61218C19.3371 3.77964 19.2585 3.9697 19.2222 4.16981C18.1163 7.35478 17.4823 10.685 17.3406 14.0542C14.4327 14.297 11.5097 14.297 8.60169 14.0542C8.25104 14.0094 7.89664 14.0973 7.60701 14.2999C7.31738 14.5026 7.11385 14.8063 7.03528 15.1514M7.52283 15.2623C7.52286 15.2621 7.52289 15.262 7.52293 15.2618L7.03528 15.1514M7.52283 15.2623C7.52282 15.2623 7.52281 15.2624 7.5228 15.2624L7.03528 15.1514M7.52283 15.2623C7.47216 15.4865 7.50651 15.7213 7.61915 15.921L7.6194 15.9215C7.73145 16.1206 7.91342 16.2709 8.12949 16.3434M7.03528 15.1514C6.95712 15.4965 7.00979 15.8584 7.18365 16.1667C7.35709 16.4749 7.63919 16.7074 7.97437 16.8187M8.12949 16.3434C8.12848 16.343 8.12747 16.3427 8.12646 16.3424L7.97437 16.8187M8.12949 16.3434C8.13031 16.3436 8.13113 16.3439 8.13196 16.3442L7.97437 16.8187M8.12949 16.3434C10.8061 17.1978 13.5652 17.7652 16.3613 18.0359M7.97437 16.8187C10.6934 17.687 13.4965 18.2626 16.3372 18.5359M16.3372 18.5359V18.0359H16.3596C16.3602 18.0359 16.3607 18.0359 16.3613 18.0359M16.3372 18.5359C16.8728 18.5359 17.0511 18.5359 17.1072 18.6188C17.1563 18.6911 17.1122 18.8266 17.1317 19.0804C17.3799 22.2282 17.7987 25.3601 18.3859 28.4623C18.8699 28.4623 18.8854 28.4622 18.8859 28.4622M16.3372 18.5359L16.3851 18.0382C16.3771 18.0375 16.3692 18.0367 16.3613 18.0359M16.3613 18.0359C16.5917 18.0359 16.7785 18.0359 16.9147 18.0457C16.9859 18.0509 17.069 18.0601 17.1503 18.0823C17.2327 18.1048 17.3482 18.1499 17.4488 18.2507C17.6448 18.447 17.6338 18.7068 17.6312 18.7696C17.631 18.7732 17.6309 18.7761 17.6309 18.7784C17.6302 18.8024 17.6294 18.8242 17.6287 18.8449C17.6262 18.91 17.6242 18.9639 17.6302 19.0416M17.6302 19.0416C17.6302 19.0414 17.6301 19.0413 17.6301 19.0411L17.1317 19.0804L17.6302 19.0422C17.6302 19.042 17.6302 19.0418 17.6302 19.0416ZM17.6302 19.0416C17.877 22.1711 18.2934 25.285 18.8772 28.3693L18.8859 28.4622M18.8859 28.4622L18.8859 28.4623M18.8859 28.4622C18.8859 28.4621 18.8859 28.4621 18.8859 28.4621V28.4623M32.4872 15.0255C32.5054 15.1233 32.5042 15.2237 32.4837 15.321L32.4872 15.0255Z" fill="#2B2A29" stroke="white" stroke-linejoin="bevel"/>
</svg>
