<svg width="36" height="36" viewBox="0 0 36 36" fill="none" xmlns="http://www.w3.org/2000/svg">
<g clip-path="url(#clip0_2615_426)">
<path fill-rule="evenodd" clip-rule="evenodd" d="M3.46124 18.2421C4.96064 19.3817 6.0252 18.3171 4.87067 17.0577L4.75071 16.9377C4.50472 16.7019 4.24434 16.4816 3.97104 16.278C3.68615 16.068 3.38627 15.8882 3.08639 15.7082C2.36103 15.3003 1.59774 14.9639 0.807318 14.7036C0.6741 14.638 0.520275 14.628 0.379678 14.6758C0.239083 14.7236 0.123237 14.8253 0.0576221 14.9585C-0.00799234 15.0917 -0.0179991 15.2456 0.0298034 15.3861C0.0776057 15.5267 0.179301 15.6426 0.312519 15.7082C0.957256 16.143 1.49704 16.6979 2.11179 17.2076C2.50596 17.558 2.9216 17.8835 3.35628 18.1823L3.46124 18.2421Z" fill="#00A3E2"/>
<path fill-rule="evenodd" clip-rule="evenodd" d="M17.9903 26.4138C17.9406 26.2746 17.8377 26.1609 17.7041 26.0976C17.5706 26.0344 17.4173 26.0268 17.2781 26.0764C17.1389 26.1262 17.0252 26.2291 16.9619 26.3626C16.8987 26.4963 16.8911 26.6494 16.9407 26.7886C17.0243 27.226 16.9305 27.6787 16.6803 28.0471C16.43 28.4154 16.0437 28.6693 15.6063 28.7529C15.3419 28.7601 15.0795 28.7034 14.8416 28.5879C14.5853 28.4898 14.3509 28.342 14.1519 28.1532C14.019 28.0152 13.8939 27.87 13.777 27.7183C13.7085 27.6123 13.6579 27.4957 13.6271 27.3735C13.5662 27.0882 13.6087 26.7906 13.747 26.5338C13.852 26.4288 13.927 26.3238 14.0169 26.2189C14.1413 26.0443 14.2993 25.8966 14.4817 25.7841C14.8115 25.5679 15.1971 25.4529 15.5913 25.4529C15.9855 25.4529 16.3712 25.5679 16.7009 25.7841C16.7964 25.863 16.9182 25.9032 17.0421 25.8966C17.1659 25.89 17.2827 25.8372 17.3696 25.7487C17.4563 25.66 17.5065 25.542 17.5104 25.4181C17.5143 25.2942 17.4716 25.1733 17.3906 25.0794C17.022 24.7017 16.5605 24.4281 16.0524 24.2859C15.5444 24.1437 15.0077 24.1381 14.4967 24.2697C14.4935 24.036 14.4582 23.8039 14.3918 23.58C14.3409 23.4397 14.237 23.325 14.1024 23.2605C13.9678 23.196 13.8133 23.1868 13.6721 23.2351C13.6014 23.2587 13.5362 23.2962 13.4803 23.3454C13.4245 23.3946 13.3791 23.4546 13.3469 23.5218C13.3147 23.589 13.2964 23.6619 13.293 23.7363C13.2896 23.8107 13.3013 23.8851 13.3272 23.9548C13.4097 24.2082 13.4097 24.4812 13.3272 24.7345C12.8654 24.9993 12.4825 25.3822 12.2177 25.8441C12.1579 25.8505 12.0975 25.8505 12.0377 25.8441C11.7778 25.855 11.5194 25.7982 11.288 25.6791C10.9995 25.612 10.7286 25.4842 10.4934 25.3042C10.3582 25.1727 10.2376 25.0269 10.1335 24.8694C10.0548 24.7674 9.99864 24.6499 9.96857 24.5245C9.92021 24.2085 9.97415 23.8852 10.1225 23.602C10.2709 23.3188 10.5059 23.0904 10.7932 22.9503C11.1215 22.7304 11.5077 22.6131 11.9028 22.6131C12.2979 22.6131 12.684 22.7304 13.0123 22.9503C13.1078 23.0416 13.2356 23.0914 13.3678 23.0887C13.5 23.0859 13.6256 23.0307 13.7171 22.9353C13.8085 22.8397 13.8583 22.7119 13.8555 22.5798C13.8527 22.4476 13.7975 22.3219 13.7021 22.2306C13.398 21.9081 13.0226 21.6615 12.606 21.5104C12.1893 21.3594 11.7431 21.3081 11.303 21.3609C11.3565 20.9422 11.2943 20.5171 11.1231 20.1313C11.0734 19.9921 10.9704 19.8784 10.8369 19.8151C10.7033 19.752 10.5501 19.7443 10.4109 19.794C10.2717 19.8438 10.158 19.9467 10.0947 20.0802C10.0314 20.2138 10.0238 20.367 10.0735 20.5062C10.1252 20.7264 10.1265 20.9554 10.0771 21.1761C10.0278 21.3969 9.92918 21.6034 9.78864 21.7807C9.49676 21.936 9.22905 22.1329 8.99397 22.3654C8.9076 22.4091 8.81721 22.4442 8.72408 22.4704C8.46518 22.4704 8.20935 22.4142 7.97438 22.3054C7.71809 22.2073 7.4837 22.0596 7.28466 21.8707C7.14764 21.7366 7.02224 21.5911 6.90981 21.4359C6.83229 21.3294 6.78093 21.2061 6.75987 21.076C6.69774 20.7552 6.74901 20.4228 6.90491 20.1355C7.0608 19.8484 7.31165 19.6243 7.61453 19.5016C7.94424 19.2855 8.32986 19.1704 8.72408 19.1704C9.11829 19.1704 9.50391 19.2855 9.83363 19.5016C9.9305 19.5585 10.0438 19.5807 10.155 19.5645C10.2661 19.5484 10.3685 19.495 10.4452 19.413C10.522 19.3311 10.5685 19.2253 10.5773 19.1134C10.586 19.0014 10.5564 18.8898 10.4934 18.7969C10.0198 18.3747 9.43976 18.09 8.81604 17.9737C8.19234 17.8575 7.54871 17.914 6.9548 18.1372C6.32922 18.3396 5.79714 18.76 5.45541 19.3216C5.0237 19.9257 4.83137 20.6683 4.91562 21.4059C4.96847 21.7215 5.07497 22.0258 5.2305 22.3054C5.44316 22.639 5.69484 22.9461 5.98019 23.2201C6.41661 23.5956 6.93548 23.8627 7.49457 23.9998C7.72332 24.07 7.9602 24.1104 8.19929 24.1197C8.16918 24.3637 8.16918 24.6105 8.19929 24.8544C8.25485 25.1668 8.36661 25.4665 8.52915 25.7391C8.73209 26.0841 8.98469 26.3973 9.27885 26.6688C9.71366 27.0381 10.2262 27.3045 10.7782 27.4483C11.1345 27.5457 11.5039 27.5862 11.8728 27.5683C11.8801 27.6079 11.8801 27.6486 11.8728 27.6883C11.9242 28.0065 12.0362 28.3119 12.2027 28.5879C12.4059 28.9282 12.6586 29.2365 12.9524 29.5026C13.3812 29.8807 13.8959 30.1483 14.4518 30.2823C15.0006 30.4381 15.5822 30.4381 16.131 30.2823C16.5327 30.1582 16.9056 29.955 17.2275 29.6847C17.5494 29.4142 17.8139 29.0821 18.0053 28.7079C18.1704 28.3476 18.2547 27.9555 18.2522 27.5592C18.2496 27.1629 18.1602 26.772 17.9903 26.4138Z" fill="#2B2A29"/>
<path fill-rule="evenodd" clip-rule="evenodd" d="M16.191 9.53088C16.395 9.56993 16.5955 9.62508 16.7908 9.69582C17.8254 10.1157 18.3951 9.02109 17.6454 8.54129C17.2722 8.31809 16.8679 8.15135 16.446 8.0465C15.5095 7.84473 14.5443 7.81425 13.5971 7.95653C12.7606 8.01311 11.9204 7.97285 11.0931 7.83657L8.01936 6.68204C7.3093 6.38331 6.57084 6.15725 5.81524 6.00732C5.75121 6.01266 5.68897 6.03122 5.63247 6.06183C5.57598 6.09243 5.52643 6.13443 5.48698 6.18516C5.44753 6.23588 5.41902 6.29423 5.40327 6.35654C5.3875 6.41883 5.38483 6.48372 5.39542 6.5471C5.4055 6.65903 5.45455 6.76386 5.53401 6.84333C5.61348 6.92279 5.71831 6.97184 5.83024 6.98192C5.83024 6.98192 6.01017 7.07189 6.17511 7.16186C7.10472 7.64166 9.06892 8.87115 10.4034 9.54588C10.9516 9.8589 11.5595 10.053 12.1877 10.1157L13.882 9.77079C14.6358 9.57843 15.4137 9.49761 16.191 9.53088Z" fill="#00A3E2"/>
<path fill-rule="evenodd" clip-rule="evenodd" d="M35.863 5.81222C35.7852 5.68328 35.6595 5.5904 35.5134 5.55388C35.3673 5.51735 35.2128 5.54015 35.0834 5.6173L32.4146 7.11668C31.9363 7.39088 31.4345 7.6217 30.9151 7.80641C30.61 7.90445 30.2907 7.95008 29.9704 7.94135C29.4685 7.9337 28.9679 7.89364 28.4711 7.8214C28.0297 7.74533 27.594 7.64014 27.1667 7.50653C26.537 7.29661 25.9371 7.02673 25.3074 6.8468C24.8214 6.69961 24.3156 6.62879 23.808 6.63688C23.4032 6.65575 23.0037 6.73666 22.6234 6.87679C22.0929 7.05322 21.5886 7.30034 21.1241 7.61149C20.7492 7.8364 17.3005 11.0301 16.9707 11.375C16.393 11.9221 15.889 12.5421 15.4713 13.2192C15.1831 13.7287 15.0188 14.2988 14.9916 14.8835C14.9579 15.2255 15.0025 15.5706 15.1221 15.8927C15.2415 16.2149 15.4327 16.5056 15.6813 16.7427C16.0339 17.0216 16.4448 17.2176 16.8834 17.3162C17.322 17.4149 17.7772 17.4135 18.2152 17.3126C18.9894 17.1576 19.7146 16.8182 20.3293 16.323C20.9419 15.8357 21.5136 15.2991 22.0387 14.7186C22.8022 15.0395 23.6121 15.2369 24.4377 15.3033C24.8264 15.3482 25.2188 15.3482 25.6073 15.3033C25.9924 15.2475 26.3699 15.1469 26.7318 15.0035C27.559 14.6556 28.3084 14.1458 28.9359 13.5041C28.9908 13.4681 29.0376 13.4212 29.0736 13.3664C29.1096 13.3115 29.1341 13.2499 29.1453 13.1852C29.1565 13.1206 29.1544 13.0543 29.139 12.9905C29.1237 12.9267 29.0954 12.8668 29.0559 12.8144C29.0184 12.7612 28.971 12.7159 28.9161 12.6811C28.8612 12.6463 28.7998 12.6226 28.7358 12.6115C28.6718 12.6003 28.6062 12.6019 28.5427 12.6161C28.4793 12.6304 28.4193 12.657 28.3662 12.6944C27.6765 12.9869 26.95 13.1836 26.2069 13.2792L24.9025 13.5041C24.6027 13.5041 24.3327 13.6091 24.0329 13.624C23.5638 13.6616 23.0925 13.6616 22.6234 13.624C22.6381 13.57 22.6381 13.5131 22.6234 13.4591C22.5787 13.4129 22.5252 13.3761 22.466 13.351C22.4067 13.3258 22.343 13.3129 22.2786 13.3129C22.2143 13.3129 22.1505 13.3258 22.0912 13.351C22.032 13.3761 21.9785 13.4129 21.9338 13.4591C21.2256 14.1623 20.4636 14.809 19.6546 15.3933C19.1712 15.7262 18.6167 15.9419 18.0354 16.023C17.633 16.0887 17.2202 16.0146 16.8659 15.8132C16.7249 15.7362 16.6123 15.6159 16.5448 15.4701C16.4773 15.3243 16.4584 15.1608 16.491 15.0035C16.5538 14.6603 16.6866 14.3337 16.8808 14.0439C17.2542 13.5209 17.6869 13.0429 18.1702 12.6194C18.9049 11.8847 19.6697 11.1201 20.4494 10.3854C20.9402 9.9337 21.4667 9.52253 22.0238 9.15586C22.3136 8.96017 22.6195 8.78962 22.9383 8.64607C23.529 8.38685 24.1909 8.33918 24.8125 8.51113C25.4272 8.64607 26.0121 8.87098 26.6268 9.0509C27.1641 9.18467 27.7102 9.27988 28.2612 9.33578C28.8006 9.36562 29.3412 9.36562 29.8804 9.33578C30.3618 9.32183 30.8376 9.23071 31.29 9.0659C31.8851 8.81669 32.457 8.51566 32.9992 8.16626L35.5932 6.53192C35.7224 6.47003 35.8227 6.36053 35.873 6.22639C35.9234 6.09223 35.9197 5.94382 35.863 5.81222Z" fill="#2B2A29"/>
<path fill-rule="evenodd" clip-rule="evenodd" d="M27.8414 21.0011C27.7497 20.7387 27.6395 20.4831 27.5115 20.2364C27.0875 19.5087 26.5847 18.8298 26.0121 18.2121L24.4079 16.3829C24.3264 16.2885 24.2124 16.2284 24.0887 16.2144C23.9648 16.2005 23.8403 16.2338 23.7399 16.3076C23.6396 16.3814 23.5707 16.4904 23.5472 16.6128C23.5238 16.7352 23.5473 16.862 23.6132 16.9677L24.7977 19.0968C25.1874 19.7192 25.5284 20.3709 25.8173 21.0461C25.9998 21.4244 26.1213 21.8292 26.1771 22.2455C26.2248 22.5077 26.2161 22.7771 26.1515 23.0357C26.0868 23.2943 25.9677 23.5361 25.8023 23.7449C25.5921 23.9843 25.3235 24.165 25.0226 24.2697C25.0005 24.2135 24.9755 24.1584 24.9476 24.1047C24.6314 23.6346 24.2805 23.1885 23.898 22.7703L21.7389 20.3264C21.6975 20.2653 21.6446 20.213 21.5831 20.1725C21.5214 20.1318 21.4526 20.1038 21.3801 20.0898C21.2339 20.0618 21.0825 20.0928 20.9592 20.1764C20.8359 20.2599 20.7509 20.3889 20.7228 20.5352C20.6946 20.6814 20.7258 20.8328 20.8092 20.9561L22.4886 23.8199C22.7742 24.2211 23.0394 24.6365 23.2833 25.0644C23.4129 25.2855 23.5137 25.5224 23.5832 25.7691C23.6664 25.9407 23.691 26.135 23.6531 26.3219C23.6153 26.5088 23.5169 26.6781 23.3733 26.8037C23.1588 26.9811 22.8992 27.0953 22.6236 27.1335V26.9987C22.4643 26.6583 22.2683 26.3364 22.0388 26.039C21.6789 25.6041 21.3341 25.1843 20.9442 24.7796C20.5544 24.3747 20.1945 23.9849 19.7897 23.61C19.7075 23.5095 19.5893 23.4453 19.4601 23.4314C19.3311 23.4173 19.2018 23.4546 19.1 23.535C18.9986 23.6198 18.9341 23.7407 18.92 23.8722C18.906 24.0038 18.9437 24.1355 19.025 24.2397C19.265 24.5996 19.4748 24.9444 19.6847 25.3193C19.8947 25.6941 20.2695 26.4138 20.5394 26.9837L20.9592 28.0032L20.7494 28.3631C20.6481 28.5251 20.5148 28.6646 20.3574 28.7729C20.2001 28.8812 20.0222 28.956 19.8347 28.9928C19.4724 29.0891 19.0874 29.0463 18.7551 28.8728C18.6932 28.8344 18.6242 28.8084 18.5522 28.7967C18.4802 28.7849 18.4065 28.7874 18.3354 28.8042C18.2645 28.8209 18.1974 28.8515 18.1382 28.8941C18.0789 28.9368 18.0288 28.9907 17.9904 29.0528C17.912 29.1803 17.8868 29.3336 17.9205 29.4795C17.9541 29.6255 18.044 29.7522 18.1704 29.8325C18.6524 30.2502 19.272 30.4746 19.9097 30.4622C20.325 30.4728 20.7383 30.3971 21.1229 30.2396C21.5073 30.0822 21.855 29.8466 22.1438 29.5476C22.3626 29.3225 22.5447 29.0645 22.6835 28.7829C22.7292 28.6365 22.7595 28.4858 22.7735 28.3331C23.2895 28.3691 23.8061 28.2708 24.2729 28.0482C24.7142 27.8012 25.0679 27.4233 25.2855 26.9669C25.503 26.5103 25.5735 25.9976 25.4874 25.4993C26.0418 25.3953 26.5589 25.1471 26.9868 24.7796C27.3284 24.4683 27.6041 24.0915 27.7973 23.6717C27.9903 23.2518 28.0973 22.7975 28.1114 22.3355C28.077 21.8813 27.9863 21.4329 27.8414 21.0011Z" fill="#00A3E2"/>
<path fill-rule="evenodd" clip-rule="evenodd" d="M35.983 19.1568C35.9656 19.0858 35.9341 19.0189 35.8908 18.9601C35.8473 18.9013 35.7927 18.8517 35.73 18.814C35.6673 18.7764 35.5977 18.7515 35.5254 18.7408C35.4529 18.7302 35.3793 18.7339 35.3083 18.7519C34.3938 18.8569 33.5091 18.8869 32.6244 19.0368C32.0224 19.1335 31.4302 19.2841 30.8551 19.4866C30.1939 19.7359 29.5648 20.0632 28.9809 20.4612C27.7515 20.971 28.4862 21.9606 29.6407 21.6307L31.0351 21.3459L32.0847 21.091L33.1192 20.7612C33.9439 20.4762 34.7536 20.1613 35.5782 19.8315C35.6493 19.8139 35.716 19.7826 35.7748 19.7391C35.8338 19.6957 35.8834 19.641 35.9209 19.5783C35.9586 19.5156 35.9835 19.4461 35.9941 19.3737C36.0048 19.3014 36.001 19.2276 35.983 19.1568Z" fill="#2B2A29"/>
</g>
<defs>
<clipPath id="clip0_2615_426">
<rect width="36" height="36" fill="white"/>
</clipPath>
</defs>
</svg>
