<svg width="36" height="36" viewBox="0 0 36 36" fill="none" xmlns="http://www.w3.org/2000/svg">
<path fill-rule="evenodd" clip-rule="evenodd" d="M35.4344 15.7254C35.1327 15.1383 34.7103 14.6216 34.1949 14.2093C33.6795 13.7969 33.0827 13.4983 32.4437 13.3329C31.7909 13.1472 31.1033 13.1194 30.4377 13.252C29.772 13.3846 29.1476 13.6738 28.6158 14.0955C27.7965 14.7602 27.1979 15.6575 26.8989 16.6692C26.6 17.681 26.6147 18.7595 26.9411 19.7627C27.5541 21.3627 29.154 22.6487 32.01 22.3646C32.1468 22.3352 32.2685 22.2576 32.3529 22.146C32.4372 22.0344 32.4786 21.8961 32.4696 21.7566C32.4605 21.617 32.4015 21.4853 32.3034 21.3855C32.2055 21.2858 32.0748 21.2246 31.9353 21.2132C29.9166 21.2132 28.7952 20.4057 28.4513 19.2543C28.2992 18.5678 28.3593 17.8512 28.6236 17.1996C28.8881 16.548 29.3442 15.9923 29.9316 15.6057C30.2378 15.3704 30.5928 15.2067 30.9707 15.1265C31.3484 15.0462 31.7393 15.0516 32.1147 15.1422C32.5211 15.2232 32.9072 15.3839 33.2511 15.6149C33.5949 15.8459 33.8898 16.1426 34.1184 16.488C34.5195 17.1191 34.6935 17.868 34.6119 18.6113C34.5534 19.3731 34.2728 20.1011 33.8045 20.7047C33.7533 20.7459 33.711 20.7969 33.6795 20.8545C33.6482 20.9121 33.6285 20.9754 33.6215 21.0407C33.6146 21.1059 33.6206 21.1719 33.6392 21.2349C33.6576 21.2978 33.6885 21.3564 33.7296 21.4076C33.7709 21.4586 33.8219 21.501 33.8795 21.5324C33.9371 21.5637 34.0004 21.5835 34.0656 21.5904C34.1309 21.5975 34.1969 21.5915 34.2597 21.5729C34.3227 21.5543 34.3814 21.5235 34.4325 21.4823C35.1936 20.7647 35.7158 19.8302 35.9277 18.8057C36.1131 17.7527 35.9394 16.6679 35.4344 15.7254Z" fill="#00A3E2"/>
<path fill-rule="evenodd" clip-rule="evenodd" d="M18.5374 13.5123C17.8846 13.3265 17.197 13.2988 16.5313 13.4314C15.8656 13.564 15.2412 13.8532 14.7094 14.2749C13.96 14.9103 13.4174 15.7549 13.151 16.7007C12.8846 17.6464 12.9066 18.6501 13.2141 19.5832C13.5175 20.5048 14.1293 21.2935 14.9465 21.8166C15.7636 22.3396 16.7361 22.5648 17.7 22.4542C17.8368 22.432 17.9611 22.362 18.051 22.2565C18.1408 22.1511 18.19 22.017 18.19 21.8785C18.19 21.7399 18.1408 21.606 18.051 21.5005C17.9611 21.3951 17.8368 21.3249 17.7 21.3028C17.0101 21.3481 16.3266 21.1456 15.7728 20.7316C15.219 20.3176 14.8313 19.7194 14.6795 19.0449C14.5238 18.4317 14.5561 17.7859 14.7721 17.1913C14.988 16.5967 15.3778 16.0807 15.8907 15.7104C16.2004 15.4764 16.5586 15.3147 16.9389 15.237C17.3193 15.1594 17.7121 15.1678 18.0888 15.2619C18.4926 15.3384 18.8763 15.4975 19.2159 15.7291C19.5555 15.9606 19.8438 16.2597 20.0626 16.6075C20.4759 17.2282 20.656 17.9752 20.571 18.7159C20.5161 19.4785 20.235 20.2074 19.7635 20.8093C19.6605 20.8927 19.5946 21.0135 19.5805 21.1453C19.5666 21.277 19.6054 21.409 19.6888 21.5122C19.7721 21.6153 19.8928 21.6811 20.0247 21.6951C20.1565 21.7092 20.2884 21.6702 20.3916 21.5869C21.154 20.8762 21.6766 19.9461 21.8869 18.9253C22.1101 17.8807 21.9786 16.7914 21.513 15.8301C21.2079 15.2562 20.7852 14.7531 20.2725 14.3537C19.7598 13.9543 19.1685 13.6676 18.5374 13.5123Z" fill="#2B2A29"/>
<path fill-rule="evenodd" clip-rule="evenodd" d="M5.57314 13.5123C4.92151 13.3244 4.23456 13.2943 3.56896 13.4243C2.90338 13.5543 2.27826 13.8407 1.74519 14.2599C0.890694 14.9691 0.306696 15.9511 0.0915348 17.0406C-0.123627 18.13 0.0431913 19.2603 0.563898 20.2411C0.990528 21.2163 1.76205 21.9997 2.73057 22.4412C3.69909 22.8826 4.79647 22.9512 5.8124 22.6336C5.95563 22.5885 6.07665 22.4911 6.15145 22.3609C6.22624 22.2309 6.24933 22.0773 6.21614 21.9307C6.19878 21.8584 6.167 21.7902 6.12265 21.7303C6.07833 21.6705 6.02238 21.6202 5.95815 21.5826C5.89392 21.5448 5.82274 21.5205 5.74887 21.5109C5.67501 21.5014 5.59998 21.5068 5.5283 21.5271C4.79633 21.6882 4.03055 21.5686 3.38256 21.192C2.73456 20.8155 2.25161 20.2092 2.02929 19.4935C1.73823 18.8599 1.66845 18.147 1.83114 17.4691C1.99384 16.7913 2.3796 16.1877 2.92647 15.7552C3.23423 15.517 3.59122 15.3505 3.97147 15.2677C4.35173 15.1849 4.74566 15.1881 5.12456 15.2767C5.5332 15.3567 5.92196 15.5169 6.26841 15.7479C6.61488 15.9787 6.91219 16.276 7.14321 16.6225C7.48951 17.151 7.67162 17.77 7.66657 18.4018C7.6602 19.0735 7.49631 19.7341 7.18808 20.3308C7.13209 20.445 7.12093 20.5761 7.15682 20.698C7.1927 20.8201 7.27301 20.9242 7.38189 20.9899C7.49077 21.0556 7.62035 21.0781 7.74501 21.0531C7.86969 21.0279 7.98042 20.9569 8.05534 20.8542C8.51778 20.1429 8.80948 19.3344 8.90767 18.4917C9.01947 17.6038 8.86325 16.7029 8.45909 15.9048C8.17346 15.3253 7.76875 14.8128 7.27146 14.4005C6.77415 13.9882 6.19544 13.6856 5.57314 13.5123Z" fill="#2B2A29"/>
</svg>
