<svg width="36" height="36" viewBox="0 0 36 36" fill="none" xmlns="http://www.w3.org/2000/svg">
<path d="M35.9831 21.1499C34.6739 18.9635 33.1683 16.901 31.485 14.9876C30.9753 14.4079 30.4504 13.8382 29.9107 13.2784C29.9107 12.7087 29.9108 12.1539 30.0158 11.5842C30.1206 10.3997 30.2706 9.21523 30.4056 8.06076C30.4415 7.40116 30.4314 6.73986 30.3756 6.08164C30.3776 5.51362 30.2439 4.95334 29.9858 4.44738C29.7972 4.12359 29.5074 3.87072 29.1611 3.72771C28.8239 3.62466 28.4773 3.55437 28.1265 3.5178C27.5593 3.45046 26.9885 3.42042 26.4174 3.42784C25.8384 3.43575 25.2612 3.49597 24.6931 3.60775C24.3966 3.66163 24.1056 3.74191 23.8235 3.84765C23.5743 3.94927 23.3494 4.10257 23.1637 4.29745C22.9164 4.63035 22.7895 5.03743 22.8039 5.45193V5.97669L20.2101 3.08299C19.8873 2.72677 19.5193 2.41428 19.1155 2.15341C18.7447 1.91767 18.31 1.80246 17.8711 1.82356C17.5027 1.83231 17.1505 1.97643 16.8816 2.22838C16.5573 2.55364 16.266 2.91022 16.0121 3.2929L12.8334 6.89128C11.559 8.39061 10.2546 9.88993 8.93519 11.3893C7.61577 12.8886 6.26639 14.3879 4.87201 15.7523C3.73252 16.9368 2.48808 17.9264 1.40857 19.1108C0.919276 19.6391 0.473052 20.2056 0.0741666 20.805C0.00949726 20.9054 -0.0141186 21.0266 0.00821044 21.1439C0.0305394 21.261 0.0971024 21.3653 0.194112 21.4347C0.296187 21.4979 0.418748 21.5192 0.53613 21.494C0.653511 21.4689 0.756608 21.3993 0.82383 21.2999C1.34577 20.5871 1.93852 19.929 2.59303 19.3356C3.59758 18.3911 4.6771 17.5665 5.71164 16.592C7.21097 15.2126 8.59034 13.8182 9.99971 12.3788C11.4091 10.9395 12.7585 9.48511 14.0929 7.98579C14.0929 7.98579 17.9762 3.56278 17.9461 3.56278C17.9161 3.56278 22.2942 7.92582 22.2942 7.92582C24.4682 10.0549 26.7022 12.079 28.8312 14.238L28.9212 14.3429C29.4309 14.8377 29.9258 15.3324 30.4206 15.8423C32.1396 17.6463 33.6903 19.6035 35.0535 21.6896C35.0889 21.7467 35.1353 21.7962 35.1898 21.8355C35.2444 21.8747 35.3063 21.9027 35.3717 21.918C35.437 21.9333 35.5049 21.9356 35.5712 21.9248C35.6375 21.9138 35.701 21.89 35.7582 21.8546C35.8152 21.8192 35.8648 21.7728 35.904 21.7182C35.9431 21.6636 35.9712 21.6018 35.9865 21.5364C36.0018 21.4709 36.0041 21.4031 35.9933 21.3368C35.9823 21.2705 35.9585 21.207 35.923 21.1499H35.9831ZM23.9884 7.14616V5.78178C23.9884 5.302 23.9884 5.25702 24.1383 5.15206L24.993 4.98714C25.3824 4.96467 25.773 4.96467 26.1624 4.98714C26.7664 5.02329 27.3674 5.09841 27.9617 5.21203L28.4863 5.33199C28.6278 5.58972 28.7049 5.87773 28.7113 6.17161C28.7488 6.76575 28.7488 7.36167 28.7113 7.9558V12.064C26.9871 10.4147 25.4877 8.79543 23.8535 7.14616H23.9884Z" fill="#2B2A29"/>
<path d="M17.1515 15.9622C17.5446 16.069 17.9553 16.0947 18.3587 16.0375C18.762 15.9804 19.1496 15.8416 19.4975 15.6298C19.8455 15.418 20.1467 15.1374 20.3826 14.8053C20.6184 14.4732 20.7843 14.0966 20.8698 13.6983C21.5295 11.2694 19.4904 9.20029 16.3719 10.3998C15.7466 10.6649 15.2217 11.1216 14.8725 11.7042C14.6371 12.1279 14.5237 12.6087 14.5448 13.093C14.566 13.5773 14.7209 14.0463 14.9925 14.4479C15.4968 15.2056 16.2674 15.7461 17.1515 15.9622ZM16.1919 12.3489C16.409 11.8875 16.7957 11.5276 17.2715 11.3443C18.7707 10.6696 20.0901 11.7192 19.5054 13.2635C19.4511 13.461 19.3568 13.6453 19.2284 13.805C19.1 13.9646 18.9404 14.0963 18.759 14.1919C18.5778 14.2874 18.3789 14.3448 18.1746 14.3604C17.9703 14.3761 17.765 14.3498 17.5713 14.283C17.13 14.1518 16.7483 13.8708 16.4918 13.4884C16.3427 13.3438 16.236 13.1612 16.1832 12.9604C16.1303 12.7596 16.1334 12.5481 16.1919 12.3489Z" fill="#00A3E2"/>
<path d="M30.9303 21.2848V18.2862C30.9303 18.2193 30.9171 18.153 30.8914 18.091C30.8658 18.0292 30.8283 17.973 30.7809 17.9257C30.7336 17.8783 30.6774 17.8408 30.6156 17.8152C30.5538 17.7895 30.4875 17.7765 30.4204 17.7765C30.3535 17.7765 30.2872 17.7895 30.2254 17.8152C30.1636 17.8408 30.1074 17.8783 30.06 17.9257C30.0127 17.973 29.9751 18.0292 29.9496 18.091C29.9239 18.153 29.9107 18.2193 29.9107 18.2862V21.2848C29.8057 23.6388 29.5809 25.9927 29.5359 28.3317C29.5942 29.2753 29.5942 30.2217 29.5359 31.1653C29.4997 31.6758 29.3175 32.1649 29.0112 32.5747C28.8762 32.7247 28.5913 32.5747 28.3215 32.5747C27.8116 32.5747 27.2869 32.4697 26.9871 32.4549C25.9375 32.4549 20.2401 32.05 19.3854 32.05H13.9279C12.9384 32.05 11.9338 32.1549 10.9293 32.2749C10.1946 32.3649 9.31 32.5747 8.47038 32.6197C8.03121 32.6575 7.58932 32.5908 7.18096 32.4249C6.95605 32.3199 6.8811 32.02 6.80613 31.7202C6.68296 31.0267 6.61279 30.325 6.59622 29.6211C6.46128 28.1218 6.37132 26.7274 6.31135 25.288C6.31135 23.0991 6.22138 20.925 6.2064 18.736C6.20839 18.6769 6.19873 18.618 6.17796 18.5626C6.15718 18.5073 6.12571 18.4566 6.08533 18.4135C6.04495 18.3703 5.99646 18.3355 5.94262 18.3111C5.88879 18.2866 5.83066 18.2731 5.77159 18.2712C5.71128 18.2692 5.65117 18.2793 5.59485 18.301C5.53854 18.3228 5.48716 18.3555 5.4438 18.3975C5.40043 18.4395 5.36595 18.4897 5.34241 18.5454C5.31888 18.6009 5.30677 18.6606 5.3068 18.721C5.23183 20.925 5.15686 23.1141 5.14188 25.303C5.14188 26.8023 5.14188 28.3017 5.24683 29.7261C5.22564 30.6424 5.31118 31.5582 5.50171 32.4549C5.64397 33.0082 5.99982 33.4827 6.49126 33.7743C6.95968 34.006 7.46911 34.1436 7.99059 34.179C9.02509 34.1724 10.0576 34.0872 11.0792 33.9241C12.1587 33.8191 13.2532 33.7743 14.3627 33.7443H19.3555L26.8521 34.0141C27.5353 34.0764 28.2229 34.0764 28.9062 34.0141C29.3704 33.9684 29.8021 33.7552 30.1206 33.4144C30.4969 32.9292 30.7444 32.3566 30.8403 31.7502C30.9514 30.5683 30.9514 29.3785 30.8403 28.1967C30.7803 25.9777 30.9003 23.6238 30.9303 21.2848Z" fill="#2B2A29"/>
<path d="M14.6176 31.3753C14.6176 30.5956 14.4077 29.7709 14.4677 28.9464C14.56 27.6399 14.9775 26.377 15.6822 25.273C15.9296 24.8896 16.2726 24.5772 16.6775 24.3669C17.0825 24.1566 17.5352 24.0555 17.9912 24.0735C18.4665 24.0631 18.9384 24.1572 19.3737 24.3489C19.8089 24.5404 20.1968 24.8253 20.51 25.183C21.1836 25.9561 21.5979 26.9209 21.6945 27.9418C21.7898 29.0787 21.8249 30.2197 21.7994 31.3603C21.7994 31.795 22.7291 32.035 22.9239 31.3603C23.1033 29.8413 23.1033 28.3063 22.9239 26.7873C22.7577 25.7965 22.3452 24.8634 21.7245 24.0735C21.2697 23.5231 20.6997 23.0794 20.0546 22.7737C19.4094 22.468 18.705 22.3077 17.9912 22.3044C17.249 22.3038 16.5197 22.4971 15.8753 22.8654C15.231 23.2336 14.694 23.7637 14.3178 24.4033C13.5936 25.7911 13.2229 27.3361 13.2383 28.9014C13.2472 29.7591 13.3733 30.6117 13.6131 31.4352C13.793 31.87 14.5727 31.87 14.6176 31.3753Z" fill="#2B2A29"/>
</svg>
