<svg width="36" height="36" viewBox="0 0 36 36" fill="none" xmlns="http://www.w3.org/2000/svg">
<g clip-path="url(#clip0_3058_8665)">
<path d="M36 18C36 18.8283 35.3284 19.4998 34.5001 19.4998H19.501V34.498C19.501 35.6525 18.2511 36.3741 17.2512 35.7968C16.7871 35.5289 16.5012 35.0338 16.5012 34.498V19.4998H1.50214C0.34752 19.4998 -0.374129 18.25 0.203187 17.2501C0.471133 16.786 0.96626 16.5002 1.50214 16.5002H16.5012V1.50204C16.5012 0.347498 17.7511 -0.374105 18.7511 0.203175C19.2151 0.471089 19.501 0.966215 19.501 1.50204V16.5002H34.5001C35.3284 16.5002 36 17.1717 36 18Z" fill="#2B2A29"/>
</g>
<defs>
<clipPath id="clip0_3058_8665">
<rect width="36" height="36" fill="white" transform="matrix(-1 0 0 1 36 0)"/>
</clipPath>
</defs>
</svg>
