<svg width="36" height="36" viewBox="0 0 36 36" fill="none" xmlns="http://www.w3.org/2000/svg">
<circle cx="18" cy="18" r="12" fill="white"/>
<path fill-rule="evenodd" clip-rule="evenodd" d="M31.9341 6.99442C26.4879 0.0479041 18.3711 0.543013 14.0502 1.65325C11.7942 2.22483 9.67653 3.24538 7.82383 4.65391C6.46138 5.67061 5.21374 6.83273 4.10302 8.11967C2.97571 9.44397 2.05512 10.9311 1.37243 12.5306C-0.0487637 15.6475 -0.377561 19.1524 0.439162 22.4793C1.25588 25.806 3.17041 28.7602 5.87341 30.8647C8.52156 32.9817 11.6758 34.3717 15.025 34.8979C18.3743 35.4241 21.8028 35.0682 24.9726 33.8653C27.9945 32.6307 30.6237 30.5977 32.5793 27.984C34.6104 25.4022 35.804 22.2612 36 18.982C35.9904 14.6493 34.5624 10.4389 31.9341 6.99442ZM31.2439 26.9188C29.451 29.2408 27.0675 31.0387 24.3424 32.1249C21.4723 33.1984 18.374 33.5139 15.3465 33.0409C12.3189 32.5678 9.46446 31.3222 7.05867 29.4243C4.61808 27.574 2.86881 24.9585 2.09086 21.9963C1.3129 19.0341 1.55124 15.8965 2.76772 13.0858C3.35785 11.6261 4.16736 10.2652 5.16825 9.04988C6.18504 7.78748 7.33717 6.64038 8.60402 5.62912C10.307 4.29016 12.2608 3.30562 14.3503 2.73349C16.8558 2.02834 25.3626 0.452994 30.8538 7.8046C33.2726 11.0089 34.5648 14.9225 34.5297 18.937C34.2594 21.8668 33.1147 24.6478 31.2439 26.9188Z" fill="white"/>
<path fill-rule="evenodd" clip-rule="evenodd" d="M18.3471 18.5666C19.5801 18.4643 20.7952 18.2072 21.9639 17.8013C22.022 17.7904 22.0774 17.7682 22.127 17.736C22.1766 17.7037 22.2193 17.662 22.2527 17.6132C22.2862 17.5645 22.3097 17.5096 22.3219 17.4517C22.3342 17.3939 22.3349 17.3342 22.324 17.276C22.3021 17.1586 22.2345 17.0547 22.136 16.9872C22.0872 16.9537 22.0324 16.9302 21.9745 16.9179C21.9166 16.9057 21.8569 16.905 21.7988 16.9158L18.3471 16.9158C18.2544 15.8574 18.2544 14.7928 18.3471 13.7343C18.3792 13.6687 18.3968 13.5972 18.3987 13.5243C18.4008 13.4514 18.3872 13.3789 18.3588 13.3117C18.3305 13.2445 18.288 13.1842 18.2343 13.1349C18.1808 13.0855 18.1172 13.0482 18.0479 13.0254C17.9786 13.0027 17.9052 12.9951 17.8328 13.003C17.7602 13.0111 17.6903 13.0345 17.6277 13.0719C17.565 13.1091 17.511 13.1595 17.4695 13.2193C17.4279 13.2793 17.3997 13.3474 17.3867 13.4191C16.9898 14.5603 16.7622 15.7536 16.7114 16.9608C15.6677 17.0478 14.6186 17.0478 13.5749 16.9608C13.449 16.9447 13.3218 16.9762 13.2179 17.0488C13.1139 17.1214 13.0409 17.2303 13.0127 17.3539C12.9846 17.4776 13.0035 17.6073 13.0659 17.7177C13.1282 17.8281 13.2294 17.9114 13.3497 17.9513C14.3256 18.2624 15.3317 18.4687 16.3512 18.5666C16.7114 18.5666 16.6214 18.5666 16.6364 18.7617C16.7255 19.8896 16.8758 21.0118 17.0865 22.1233C17.0865 22.1233 17.0865 22.9637 17.4467 23.0238C17.8068 23.0838 18.077 22.8437 18.002 22.1233C18.1971 20.0824 18.2871 20.3075 18.3471 18.5666Z" fill="#2B2A29"/>
</svg>
