<svg width="36" height="36" viewBox="0 0 36 36" fill="none" xmlns="http://www.w3.org/2000/svg">
<g clip-path="url(#clip0_2573_1805)">
<path fill-rule="evenodd" clip-rule="evenodd" d="M21.555 14.8724C20.6803 14.2158 19.7688 13.6098 18.825 13.0574C17.862 12.4863 16.8595 11.9851 15.825 11.5574C15.7563 11.5255 15.6819 11.508 15.6063 11.506C15.5307 11.504 15.4554 11.5174 15.3852 11.5455C15.315 11.5736 15.2512 11.6157 15.1978 11.6694C15.1444 11.723 15.1027 11.787 15.075 11.8574C15.0316 11.7911 14.971 11.7379 14.8996 11.7035C14.8282 11.6691 14.7488 11.6549 14.6699 11.6624C14.5373 11.6701 14.4129 11.7293 14.3233 11.8274C14.2337 11.9254 14.1858 12.0546 14.1899 12.1874V20.6923C14.1899 20.9323 14.0099 21.3523 14.0099 21.5623C14.0123 21.7134 14.0487 21.862 14.1165 21.997C14.1842 22.132 14.2815 22.2501 14.4011 22.3423C14.5208 22.4346 14.6597 22.4986 14.8075 22.5298C14.9553 22.561 15.1083 22.5585 15.255 22.5223C15.9642 22.3548 16.6461 22.087 17.28 21.7273C18.6 20.9923 19.875 19.8973 21.015 19.1473C21.405 18.8773 22.065 18.5773 22.515 18.2173C22.809 18.0105 23.0673 17.7571 23.28 17.4673C23.3947 17.2966 23.4561 17.0956 23.4561 16.8898C23.4561 16.6842 23.3947 16.483 23.28 16.3123C22.7532 15.7773 22.1755 15.295 21.555 14.8724ZM21.27 16.9573C20.805 17.2273 20.265 17.4673 19.905 17.6923C18.93 18.3073 17.865 19.1923 16.755 19.8823C16.4554 20.0799 16.1449 20.2602 15.825 20.4223L15.705 18.6373L15.21 12.5324C15.2698 12.5843 15.3352 12.6296 15.405 12.6674C16.3399 13.1016 17.2423 13.6029 18.105 14.1674C18.9612 14.753 19.7779 15.3943 20.55 16.0873C20.8773 16.3107 21.1927 16.551 21.495 16.8073L21.27 16.9573Z" fill="#2B2A29"/>
<path fill-rule="evenodd" clip-rule="evenodd" d="M8.82046 19.5978L8.91046 15.9828V5.07777C8.82046 4.37277 7.78546 4.83777 7.75546 5.51277C7.50046 7.25276 7.50046 8.28777 7.32046 10.0278C6.55864 10.0924 5.80198 10.2077 5.05546 10.3728C4.02452 10.6206 3.01987 10.9672 2.05546 11.4078C1.50046 11.8578 1.60546 13.2378 2.74546 12.9078L4.50046 12.2628C5.40046 11.9328 6.28546 11.6328 7.18546 11.3628C7.18546 11.6928 7.18546 12.0078 7.09546 12.3228C7.09546 13.5378 6.99046 14.7378 6.97546 15.9528V16.4778C6.1045 16.3588 5.22142 16.3588 4.35046 16.4778C3.96818 16.5547 3.59215 16.66 3.22546 16.7928C2.89546 16.954 2.58368 17.1501 2.29546 17.3778C1.75546 18.0228 1.78546 19.1778 2.64046 18.8778C3.00046 18.7578 3.36046 18.5928 3.70546 18.4578C4.05046 18.3228 4.26046 18.2328 4.68046 18.0678C5.10046 17.9028 5.37046 17.9028 5.79046 17.7678C6.18439 17.6449 6.58504 17.5447 6.99046 17.4678V19.4628C6.99046 20.1228 7.08046 21.2028 7.11046 22.0728C6.52128 22.0806 5.93396 22.1409 5.35546 22.2528C5.01409 22.3423 4.67848 22.4526 4.35046 22.5828C4.03376 22.7136 3.72782 22.8691 3.43546 23.0478C3.19858 23.1832 2.97725 23.3442 2.77546 23.5278C2.20546 24.0528 2.13046 25.3428 3.19546 25.0278C3.82546 24.8178 3.85546 24.8478 4.51546 24.5928C5.17546 24.3378 5.44546 24.1878 5.91046 23.9928C6.37546 23.7978 6.75046 23.6028 7.17046 23.4228C7.17046 24.7878 7.17046 25.3878 7.26046 26.7678C7.36546 27.6978 8.50546 27.4878 8.44546 26.5128C8.53546 23.9778 8.73046 22.1928 8.82046 19.5978Z" fill="#00A3E2"/>
<path fill-rule="evenodd" clip-rule="evenodd" d="M36.0006 17.9778C36.0006 16.6278 36.0006 15.2928 35.9256 13.9578C35.8206 10.8078 35.5656 7.68778 35.4006 4.61278C35.3954 4.51735 35.3609 4.42582 35.3019 4.35067C35.2428 4.27552 35.1621 4.2204 35.0706 4.19278C35 4.08478 34.8941 4.00474 34.7708 3.96642C34.6476 3.92809 34.515 3.93388 34.3956 3.98278C32.7416 4.6584 31.0073 5.1172 29.2356 5.34778C27.4862 5.51842 25.7211 5.42233 24.0006 5.06278C21.6306 4.65778 19.2156 3.90778 16.8306 3.35278C14.3371 2.69559 11.7535 2.44737 9.18056 2.61778C7.41587 2.79109 5.72267 3.4035 4.2554 4.39914C2.78814 5.39478 1.59353 6.74196 0.780551 8.31778V8.48278C0.665402 8.50405 0.561524 8.56546 0.487373 8.6561C0.413223 8.74672 0.373602 8.86071 0.375551 8.97778C0.110197 11.7597 -0.0149616 14.5533 0.0005506 17.3478C0.0005506 17.5728 0.255551 21.6378 0.330551 22.3878C0.555551 24.8778 0.900551 27.3678 1.15555 29.8878C1.16709 30.0404 1.23794 30.1823 1.3529 30.2832C1.46786 30.3842 1.6178 30.4361 1.77056 30.4278C1.84482 30.4241 1.91759 30.4053 1.9845 30.3729C2.05143 30.3405 2.11115 30.2949 2.16012 30.239C2.2091 30.183 2.24631 30.1178 2.26958 30.0471C2.29284 29.9765 2.30168 29.9019 2.29556 29.8278C1.39555 15.8778 1.39555 9.24778 1.38055 8.97778C1.47962 8.94072 1.56744 8.87873 1.63556 8.79778C2.31467 7.69269 3.21369 6.73896 4.2768 5.99581C5.33991 5.25267 6.54441 4.73598 7.81556 4.47778C8.44556 4.47778 9.16556 4.25278 9.31556 4.23778C11.7084 4.21645 14.0921 4.53462 16.3956 5.18278C18.8256 5.75278 21.3156 6.38278 23.7306 6.68278C25.6454 6.7807 27.5648 6.75064 29.4756 6.59278C31.1699 6.29208 32.8217 5.78845 34.3956 5.09278V14.3028C34.3956 15.4128 34.5006 21.0978 34.5006 21.8028C34.5006 22.9128 34.0356 29.1678 33.9756 30.5628C32.5374 31.0077 31.0524 31.2845 29.5506 31.3878C27.7932 31.4775 26.0324 31.2953 24.3306 30.8478C21.9906 30.2928 19.6206 29.3478 17.2806 28.6878C14.8332 27.8738 12.2697 27.4634 9.69056 27.4728C8.90912 27.5466 8.13275 27.6669 7.36556 27.8328C4.7 28.5645 2.4111 30.2798 0.960551 32.6328C0.882524 32.7408 0.849825 32.8749 0.869447 33.0066C0.889068 33.1385 0.959453 33.2573 1.06555 33.3378C1.1735 33.4158 1.30769 33.4485 1.43944 33.4289C1.57119 33.4092 1.69002 33.3389 1.77056 33.2328C2.65628 31.9497 3.84572 30.9057 5.23284 30.1938C6.61997 29.4819 8.16168 29.1243 9.72056 29.1528C12.1094 29.2764 14.4683 29.7411 16.7256 30.5328C19.1106 31.2528 21.5556 32.0328 23.9406 32.5428C25.8312 32.9207 27.7679 33.0117 29.6856 32.8128C31.1856 32.6478 35.9256 31.8678 35.5206 30.6828C35.4923 30.6066 35.4462 30.5382 35.3862 30.4835C35.3262 30.4287 35.2541 30.389 35.1756 30.3678C35.4906 27.5778 35.7606 24.7728 35.8806 21.9378C36.0006 20.5728 36.0006 19.2378 36.0006 17.9778Z" fill="#2B2A29"/>
<path fill-rule="evenodd" clip-rule="evenodd" d="M32.4297 24.7726H31.3347C30.9729 24.786 30.6122 24.8209 30.2547 24.8776C29.6697 24.9676 29.0997 25.0876 28.5147 25.1926C28.6197 23.6926 28.6947 22.1926 28.7097 20.6926V20.0176C29.152 20.085 29.5977 20.13 30.0447 20.1526H31.1097C31.4697 20.1526 31.8297 20.1526 32.1747 20.0476C32.7747 19.9576 33.0747 19.8376 33.6747 19.7326C34.5447 19.5676 34.3947 18.6376 33.6747 18.4126C32.9547 18.1876 32.6997 18.2776 32.0847 18.2476H30.9897C30.6329 18.2604 30.2771 18.2955 29.9247 18.3526C29.4897 18.3526 29.0847 18.5476 28.6797 18.6376V14.8427C28.6797 13.8527 28.5897 12.8627 28.5297 11.8427L29.9997 11.9777H32.0397C32.6997 11.9777 32.8197 11.8577 33.5397 11.8727C34.2597 11.8877 34.3347 10.9277 33.5397 10.5827C33.1013 10.4115 32.6499 10.276 32.1897 10.1777C31.8275 10.1154 31.4618 10.0753 31.0947 10.0577C30.7152 10.0278 30.3341 10.0278 29.9547 10.0577C29.4455 10.1627 28.9443 10.3031 28.4547 10.4777C28.4547 9.32269 28.3497 8.76769 28.3347 7.61269C28.1097 6.74269 27.2997 6.92269 27.2397 7.61269C26.9847 10.4927 26.8197 12.7877 26.8197 15.6976C26.8197 17.6476 26.8197 19.5976 26.9097 21.5476C26.9097 24.5476 27.0597 27.3676 26.9097 30.2626C26.8913 30.3414 26.8899 30.423 26.9055 30.5022C26.921 30.5814 26.9532 30.6565 27 30.7224C27.0468 30.7882 27.107 30.8433 27.1767 30.8841C27.2465 30.9249 27.324 30.9504 27.4043 30.9591C27.4845 30.9676 27.5658 30.9589 27.6425 30.9337C27.7193 30.9087 27.7898 30.8674 27.8493 30.813C27.909 30.7584 27.9563 30.6919 27.9882 30.6177C28.0202 30.5436 28.0361 30.4635 28.0347 30.3826C28.2297 29.0476 28.3647 27.6976 28.4847 26.3476C29.2454 26.505 30.0183 26.5953 30.7947 26.6176C31.3716 26.6151 31.9479 26.5749 32.5197 26.4976L33.4197 26.3626C34.4997 25.9426 34.3197 24.8626 33.4197 24.7576C33.0897 24.7368 32.7588 24.7417 32.4297 24.7726Z" fill="#00A3E2"/>
</g>
<defs>
<clipPath id="clip0_2573_1805">
<rect width="36" height="36" fill="white"/>
</clipPath>
</defs>
</svg>
