<svg width="36" height="36" viewBox="0 0 36 36" fill="none" xmlns="http://www.w3.org/2000/svg">
<g clip-path="url(#clip0_2948_7175)">
<g clip-path="url(#clip1_2948_7175)">
<path d="M29.2995 26.1939C29.5095 25.8639 29.7645 25.5639 29.9895 25.2639C30.2052 24.9963 30.4356 24.7408 30.6795 24.4989C30.8311 24.3516 31.0092 24.2344 31.2045 24.1539C31.2564 24.1257 31.3135 24.1084 31.3723 24.103C31.431 24.0976 31.4903 24.1042 31.5464 24.1225C31.6025 24.1407 31.6544 24.1702 31.6987 24.2091C31.7431 24.2481 31.7791 24.2956 31.8045 24.3489C31.9845 24.7089 31.8045 24.5139 31.2645 26.0139C31.1745 26.2389 31.0995 26.4939 30.9945 26.7189C30.8167 27.0729 30.6057 27.4095 30.3645 27.7239C29.9409 28.2732 29.4349 28.7539 28.8645 29.1489C28.8183 29.1979 28.7625 29.2369 28.7006 29.2636C28.6387 29.2903 28.5719 29.3041 28.5045 29.3041C28.4371 29.3041 28.3704 29.2903 28.3085 29.2636C28.2466 29.2369 28.1908 29.1979 28.1445 29.1489C28.0493 29.0532 27.9958 28.9237 27.9958 28.7889C27.9958 28.6539 28.0493 28.5244 28.1445 28.4289C28.4511 27.9495 28.7219 27.448 28.9545 26.9289C29.0528 26.6763 29.1681 26.4307 29.2995 26.1939Z" fill="#00A3E2"/>
<path d="M7.97249 25.9539C8.18249 25.6239 8.43749 25.3239 8.66249 25.0239C8.87819 24.7563 9.10859 24.5008 9.35249 24.2589C9.50264 24.1131 9.67484 23.9916 9.86249 23.8989C9.97214 23.8467 10.0978 23.8393 10.2127 23.8786C10.3276 23.9178 10.4227 24.0004 10.4775 24.1089C10.5291 24.2163 10.536 24.3397 10.4965 24.4522C10.4572 24.5647 10.3747 24.657 10.2675 24.7089L9.93749 25.7589C9.84749 25.9989 9.77249 26.2539 9.66749 26.4789C9.48959 26.833 9.27869 27.1695 9.03749 27.4839C8.61389 28.0333 8.10794 28.5139 7.53749 28.9089C7.44029 28.9953 7.31369 29.0412 7.18364 29.0374C7.05374 29.0335 6.92999 28.9803 6.83804 28.8883C6.74609 28.7962 6.69269 28.6726 6.68894 28.5426C6.68504 28.4127 6.73109 28.2861 6.81749 28.1889C7.12664 27.7135 7.39274 27.2115 7.61249 26.6889C7.71134 26.434 7.83179 26.1882 7.97249 25.9539Z" fill="#00A3E2"/>
<path d="M27.98 24.3041C27.8088 24.6398 27.6026 24.9566 27.365 25.2491C26.9813 25.65 26.5418 25.9935 26.06 26.2691C25.9628 26.3555 25.8362 26.4015 25.7062 26.3976C25.5762 26.3939 25.4526 26.3405 25.3606 26.2485C25.2686 26.1566 25.2153 26.033 25.2115 25.9029C25.2076 25.7729 25.2536 25.6463 25.34 25.5491C25.61 25.1291 25.76 24.6791 26.015 24.2591C26.27 23.8391 26.375 23.7491 26.525 23.4941C26.675 23.2391 27.155 22.7441 27.365 22.5191L27.515 22.3241C27.83 22.1291 28.04 22.1591 28.13 22.3241C28.22 22.4891 28.475 22.2641 27.98 24.3041Z" fill="#00A3E2"/>
<path d="M5.9781 25.0092C5.59125 25.4067 5.1522 25.7499 4.6731 26.0292C4.5732 26.1219 4.4418 26.1735 4.3056 26.1735C4.16925 26.1735 4.038 26.1219 3.9381 26.0292C3.84285 25.9335 3.7893 25.8041 3.7893 25.6692C3.7893 25.5342 3.84285 25.4048 3.9381 25.3092C4.2081 24.8892 4.3731 24.4392 4.6281 24.0192C4.8831 23.5992 4.9881 23.5092 5.1381 23.2542L5.9781 22.2642C6.0681 22.1742 6.0981 22.0992 6.1281 22.0842C6.4431 21.8892 6.6381 21.9192 6.7431 22.0842C6.8481 22.2492 7.0881 22.0842 6.5781 24.0942C6.4128 24.4206 6.2115 24.7275 5.9781 25.0092Z" fill="#00A3E2"/>
<path d="M2.7087 19.2795L2.97855 18.9945C3.52365 18.5619 4.1514 18.2455 4.8234 18.0646C6.13755 17.7447 7.49325 17.6283 8.8428 17.7196C9.8046 17.772 10.7472 18.0115 11.6173 18.4246C13.2146 19.3392 14.4564 20.766 15.1419 22.474C15.3519 21.8142 15.5467 21.1242 15.6667 20.7343C15.7516 20.4507 15.9065 20.1928 16.1168 19.9843C16.2731 19.8939 16.4469 19.8376 16.6266 19.8193C17.1241 19.7571 17.6251 19.7271 18.1264 19.7295C18.6384 19.7122 19.1487 19.7991 19.6263 19.9843C19.8101 20.1196 19.9676 20.2875 20.0912 20.4793C20.3401 20.9583 20.541 21.4606 20.6911 21.979C20.8111 22.369 20.916 22.789 21.0061 23.1789C21.9125 21.2164 23.5162 19.6609 25.5054 18.8145C26.6564 18.4146 27.8876 18.3012 29.0923 18.4842C30.297 18.667 31.439 19.1409 32.4194 19.8643C32.4768 19.8997 32.5265 19.9459 32.5659 20.0005C32.6052 20.0551 32.6334 20.1169 32.6487 20.1825C32.6641 20.248 32.6663 20.316 32.6552 20.3823C32.6442 20.4487 32.6201 20.5123 32.5844 20.5693C32.5129 20.6845 32.3996 20.7676 32.2682 20.8012C32.1368 20.8347 31.9975 20.8161 31.8795 20.7493C31.0344 20.1552 30.0565 19.7775 29.0315 19.6494C28.0065 19.5213 26.9657 19.6467 26.0004 20.0143C25.0959 20.4634 24.2945 21.0951 23.6465 21.8695C22.9986 22.644 22.5183 23.5443 22.2359 24.5137C22.0539 25.453 22.1185 26.4234 22.4234 27.3303C22.7283 28.2372 23.2631 29.0494 23.9756 29.688C24.6835 30.4 25.5564 30.9261 26.5168 31.2192C27.4771 31.5123 28.495 31.5633 29.4799 31.3678C30.7198 31.0644 31.8642 30.456 32.8094 29.598C33.8002 28.7778 34.4955 27.6558 34.7891 26.4034C34.9099 25.6768 34.8585 24.9319 34.6391 24.2287C34.4193 23.494 34.0908 22.7964 33.6643 22.159C33.6275 22.1116 33.601 22.0572 33.5863 21.999C33.5717 21.9409 33.5692 21.8803 33.579 21.8212C33.5889 21.762 33.6109 21.7056 33.6436 21.6553C33.6764 21.6051 33.7191 21.562 33.7693 21.5292C33.8174 21.4945 33.872 21.4696 33.9298 21.4561C33.9876 21.4426 34.0475 21.4408 34.1061 21.4506C34.1646 21.4603 34.2207 21.4815 34.271 21.513C34.3213 21.5446 34.3648 21.5857 34.3992 21.6342C34.9283 22.3431 35.3386 23.1333 35.614 23.9739C35.9356 24.8038 36.0588 25.6974 35.9739 26.5834C35.7412 28.1121 35.008 29.5204 33.8892 30.5878C32.8071 31.701 31.4603 32.5215 29.9748 32.9725C28.7246 33.2613 27.422 33.2328 26.1856 32.8897C24.9493 32.5465 23.8183 31.8996 22.8958 31.0078C22.0461 30.2685 21.3802 29.3415 20.9508 28.3002C20.5212 27.259 20.3399 26.1321 20.4212 25.0087C19.9562 24.7087 20.6762 25.0087 19.5513 22.774C18.7115 21.0792 19.4013 21.2742 17.1066 21.4092C16.7466 22.159 16.1017 23.5389 15.7118 24.2287C15.7118 24.4537 15.8018 24.6787 15.8318 24.9037C16.0649 26.2491 15.8436 27.6337 15.2027 28.8396C14.5618 30.0453 13.5378 31.0033 12.2924 31.5627C11.6804 31.8225 11.0415 32.0136 10.3875 32.1327C9.45165 32.3091 8.5044 32.4193 7.55295 32.4627C6.8181 32.4627 6.0531 32.5377 5.24325 32.4627C4.70655 32.4364 4.17405 32.356 3.65355 32.2227C3.5244 32.1873 3.4137 32.1039 3.34395 31.9896C3.2742 31.8753 3.2508 31.7388 3.27855 31.6077C3.31065 31.4727 3.39495 31.3558 3.513 31.2826C3.63105 31.2096 3.77325 31.1863 3.9084 31.2178C4.36155 31.3197 4.82385 31.375 5.28825 31.3828C6.0231 31.3828 6.7881 31.3078 7.46295 31.2478C8.35575 31.1716 9.24255 31.0363 10.1176 30.8428C10.6723 30.7144 11.2108 30.5232 11.7223 30.273C12.6507 29.7954 13.3959 29.0254 13.8432 28.0822C14.2903 27.1389 14.4147 26.0746 14.1971 25.0537C14.0742 24.0019 13.7115 22.9926 13.1367 22.1032C12.562 21.2139 11.7909 20.4685 10.8825 19.9243C10.0362 19.5522 9.1224 19.3581 8.1978 19.3545C7.2174 19.3045 6.2346 19.3801 5.27325 19.5795C4.66305 19.7206 4.09665 20.0089 3.62355 20.4193C3.09555 20.8567 2.6268 21.3609 2.2287 21.9192C1.63515 22.8163 1.2744 23.8471 1.17885 24.9187C1.06725 26.0599 1.11765 27.2112 1.32885 28.3381C1.38795 28.6369 1.46295 28.9324 1.55385 29.2231C1.6401 29.4973 1.761 29.7594 1.9137 30.003C1.9794 30.1044 2.00205 30.2277 1.9767 30.3459C1.95135 30.4641 1.88025 30.5673 1.7787 30.6328C1.6773 30.6985 1.554 30.7212 1.4358 30.6958C1.31775 30.6705 1.21455 30.5994 1.14885 30.4978C0.9963 30.2578 0.861 30.0072 0.743851 29.748C0.5826 29.3641 0.452251 28.9678 0.354 28.5631C0.00389862 27.0903 -0.0874519 25.5679 0.0839996 24.0639C0.5373 22.2717 1.44075 20.6248 2.7087 19.2795Z" fill="black"/>
<path d="M16.8066 7.17627L16.8366 7.22127L16.8516 7.25127L16.8216 7.17627H16.8066Z" fill="black"/>
<path d="M20.6158 13.0858C19.8744 12.7081 19.072 12.4643 18.2458 12.3658C17.2783 12.2256 16.291 12.3393 15.3808 12.6958C15.2308 12.6958 15.2308 13.0108 15.1708 13.3258C15.1108 13.6408 15.0508 14.0458 14.9908 14.4958C14.9851 14.5628 14.9664 14.6281 14.9353 14.6879C14.9043 14.7476 14.8618 14.8006 14.8102 14.8438C14.7586 14.8871 14.6989 14.9197 14.6347 14.9397C14.5704 14.9598 14.5029 14.9669 14.4358 14.9608C14.3688 14.9551 14.3035 14.9362 14.2437 14.9052C14.184 14.8742 14.131 14.8317 14.0878 14.7801C14.0445 14.7285 14.0119 14.6689 13.9918 14.6046C13.9719 14.5404 13.9647 14.4728 13.9708 14.4058C13.9756 13.7966 14.0359 13.189 14.1508 12.5908C14.1858 12.389 14.2642 12.1972 14.3809 12.0289C14.4975 11.8605 14.6493 11.7195 14.8258 11.6158C15.9135 11.0561 17.1291 10.7923 18.3508 10.8508C19.6222 10.8584 20.8615 11.2506 21.9059 11.9758C22.2191 12.3508 22.3939 12.8222 22.4009 13.3108C22.46 14.3099 22.46 15.3116 22.4009 16.3108C22.4107 16.3754 22.4107 16.4411 22.4009 16.5058C22.4909 17.6608 21.2009 17.2708 19.5508 16.9258C18.8307 16.7551 18.0985 16.6397 17.3608 16.5808C16.8928 16.52 16.4188 16.52 15.9508 16.5808C15.7108 16.5808 14.7958 16.7608 14.4508 16.7908H14.2258C14.1252 16.7918 14.0269 16.7603 13.9458 16.7008C13.8646 16.6412 13.8051 16.5571 13.7758 16.4608C13.7412 16.3592 13.7467 16.2482 13.7913 16.1506C13.836 16.0529 13.9164 15.976 14.0158 15.9358C14.0895 15.9154 14.1672 15.9154 14.2408 15.9358C14.6008 15.9358 15.4258 15.6658 15.6508 15.6058C16.1944 15.4585 16.753 15.373 17.3158 15.3508C18.1224 15.3242 18.9297 15.3593 19.7308 15.4558L20.6608 15.5608C20.7471 14.737 20.7321 13.9058 20.6158 13.0858Z" fill="black"/>
<path d="M2.52872 16.61C2.73857 16.055 2.90356 15.68 2.90356 15.68L3.53357 14.1803C3.83237 13.1917 4.19822 12.2246 4.62842 11.2857C4.96502 10.5748 5.48207 9.96462 6.12811 9.51594C6.44176 9.28902 6.76727 9.07875 7.10296 8.88603C7.38991 8.76041 7.69277 8.67462 8.00297 8.63106H8.64782C8.76437 8.58106 8.86712 8.50392 8.94781 8.40609C9.05281 8.48107 9.12767 8.07613 9.23267 7.82118C9.66767 6.81631 10.2225 5.16656 10.5525 4.35666C10.664 4.0584 10.8378 3.78738 11.0625 3.56178C11.4353 3.2688 11.8721 3.06834 12.3372 2.97685C12.8898 2.865 13.4538 2.81969 14.0171 2.84187C14.5755 2.80617 15.1364 2.85163 15.6818 2.97685C15.8885 3.03958 16.08 3.14376 16.2452 3.283C16.4102 3.42223 16.545 3.59364 16.6416 3.78675C16.6988 3.94106 16.7342 4.10259 16.7466 4.26668V6.59135C16.7546 6.79154 16.7952 6.9891 16.8666 7.17627C16.8666 7.17627 16.8666 7.26625 16.9566 7.28125H17.5416C18.0404 7.32747 18.5424 7.32747 19.0413 7.28125V5.33153C19.0433 4.82795 19.0935 4.32572 19.1913 3.83174C19.2849 3.63818 19.4192 3.46702 19.5848 3.32986C19.7504 3.19272 19.9436 3.09279 20.1512 3.03685C20.646 2.94789 21.1507 2.9277 21.651 2.97685C22.2141 2.96277 22.7771 3.00801 23.3307 3.11184C23.7635 3.20743 24.172 3.39125 24.5306 3.65177C24.7608 3.87696 24.922 4.1631 24.9955 4.47665C25.2205 5.27154 25.5354 6.9063 25.8354 7.91116C25.8354 8.13613 26.0154 8.40609 26.0304 8.45109C26.1262 8.55556 26.244 8.63752 26.3753 8.69104C26.5403 8.69104 26.7052 8.69104 27.0202 8.76604C27.3245 8.78794 27.6234 8.85885 27.9051 8.97602C28.2356 9.16936 28.556 9.37962 28.8649 9.60592C29.5078 10.039 30.0251 10.6339 30.3647 11.3307C30.7955 12.2865 31.1662 13.2682 31.4746 14.2703L32.3145 16.475C32.3546 16.5866 32.3506 16.7093 32.3032 16.818C32.2558 16.9268 32.1686 17.0133 32.0595 17.0598C31.9995 17.0804 31.9358 17.0879 31.8727 17.082C31.8095 17.0762 31.7484 17.0571 31.6931 17.0259C31.6379 16.9947 31.5899 16.9523 31.5522 16.9013C31.5145 16.8503 31.4881 16.7919 31.4746 16.7298L30.5297 14.6302C30.2135 13.7193 29.8326 12.8322 29.3899 11.9756C29.1303 11.4647 28.7362 11.0343 28.25 10.7308C27.971 10.5382 27.6805 10.3629 27.3802 10.2058C27.2169 10.1414 27.0451 10.101 26.8702 10.0858C26.5886 10.0742 26.308 10.0441 26.0304 9.99586C25.7028 9.89755 25.4007 9.72861 25.1455 9.50094C24.8551 9.14865 24.6407 8.74017 24.5156 8.3011C24.2156 7.40124 23.8857 6.06642 23.6457 5.30152C23.6457 5.15155 23.5407 5.00157 23.5107 4.89659C23.2905 4.78667 23.0512 4.72046 22.8058 4.70162C22.4212 4.67915 22.0356 4.67915 21.651 4.70162C20.1512 4.70162 20.5562 3.81674 20.6612 8.04615C20.6744 8.26725 20.6096 8.48599 20.478 8.66418C20.3465 8.84238 20.1564 8.96867 19.9412 9.021C19.4067 9.15636 18.8579 9.22686 18.3065 9.23097C17.553 9.2728 16.7988 9.16578 16.0868 8.91601C15.7623 8.77731 15.4932 8.5346 15.3219 8.22612C15.1205 7.8562 15.0027 7.44664 14.9769 7.02628C14.9321 6.38215 14.9321 5.73568 14.9769 5.09155C15.0014 4.95406 15.0365 4.81868 15.0819 4.68662C14.8269 4.8366 14.2271 4.49165 14.0021 4.49165C13.5587 4.43936 13.1106 4.43936 12.6672 4.49165C12.4901 4.52907 12.3186 4.58958 12.1574 4.67161C12.1574 4.7766 12.0224 4.95659 11.9624 5.12156C11.6024 5.94643 11.1075 7.29625 10.6875 8.12113C10.523 8.54937 10.2843 8.94534 9.98267 9.29097C9.71252 9.52078 9.40247 9.69875 9.06767 9.8159C8.84282 9.8159 8.63281 9.8159 8.21281 9.90588C8.04391 9.91854 7.87742 9.95385 7.71797 10.0109C7.46297 10.1309 7.25296 10.3108 6.87811 10.5358C6.40876 10.8374 6.02626 11.2561 5.76826 11.7506C5.33596 12.6307 4.96037 13.5374 4.64342 14.4652L3.95341 15.965L3.71357 16.565C3.60857 17.6298 2.12372 18.1397 2.52872 16.61Z" fill="black"/>
</g>
</g>
<defs>
<clipPath id="clip0_2948_7175">
<rect width="36" height="36" fill="white" transform="matrix(-1 0 0 1 36 0)"/>
</clipPath>
<clipPath id="clip1_2948_7175">
<rect width="36" height="36" fill="white" transform="matrix(-1 0 0 1 36 0)"/>
</clipPath>
</defs>
</svg>
