<svg width="36" height="36" viewBox="0 0 36 36" fill="none" xmlns="http://www.w3.org/2000/svg">
<g clip-path="url(#clip0_2989_12089)">
<path d="M30.5085 18C30.5072 13.9729 28.5651 10.1932 25.2919 7.84737L24.2703 2.20417C24.0765 1.13602 23.1461 0.359592 22.0605 0.359986H13.9397C12.8541 0.359592 11.9238 1.13602 11.7299 2.20417L10.7084 7.84737C3.75256 12.8287 3.75256 23.1713 10.7084 28.1526L11.7299 33.7958C11.9238 34.8639 12.8541 35.6404 13.9397 35.64H22.0605C23.1461 35.6404 24.0765 34.8639 24.2703 33.7958L25.2919 28.1526C28.5651 25.8067 30.5072 22.0271 30.5085 18ZM13.6238 2.54735C13.652 2.39304 13.7877 2.28179 13.9445 2.28435H22.0653C22.2222 2.28179 22.3579 2.39304 22.3861 2.54735L23.1173 6.5869C19.8688 5.12658 16.1506 5.12658 12.9022 6.5869L13.6238 2.54735ZM22.3764 33.4526C22.3482 33.6069 22.2125 33.7182 22.0557 33.7156H13.9397C13.7829 33.7182 13.6472 33.6069 13.619 33.4526L12.8877 29.4131C16.1362 30.8734 19.8544 30.8734 23.1029 29.4131L22.3764 33.4526ZM18.0001 28.584C9.85255 28.5844 4.76039 19.7646 8.83386 12.7084C12.9073 5.65221 23.0918 5.65176 27.1659 12.7076C28.095 14.3166 28.5841 16.1419 28.5841 18C28.5771 23.8424 23.8426 28.5769 18.0001 28.584Z" fill="black"/>
<path d="M24.4147 18.9622C24.9461 18.9622 25.3769 18.5314 25.3769 18C25.3769 17.4686 24.9461 17.0378 24.4147 17.0378H18.9623V11.5854C18.9623 11.2417 18.7789 10.924 18.4812 10.7522C17.8398 10.3818 17.038 10.8447 17.038 11.5854V18C17.038 18.5314 17.4687 18.9622 18.0001 18.9622H24.4147Z" fill="#00A3E2"/>
</g>
<defs>
<clipPath id="clip0_2989_12089">
<rect width="36" height="36" fill="white"/>
</clipPath>
</defs>
</svg>
