<svg width="36" height="36" viewBox="0 0 36 36" fill="none" xmlns="http://www.w3.org/2000/svg">
<g clip-path="url(#clip0_2668_3242)">
<path d="M0.441341 33.6024C-0.338432 34.329 -0.0392418 35.6273 0.979897 35.9393C1.48642 36.0944 2.03705 35.9468 2.39818 35.5593L18.0343 19.9251L33.6705 35.5593C34.4503 36.2859 35.7242 35.8959 35.9636 34.8572C36.0669 34.4091 35.9409 33.9389 35.6274 33.6024L19.9935 17.966L35.6274 2.3295C36.354 1.54972 35.9639 0.275778 34.9253 0.0364065C34.4772 -0.0668637 34.007 0.0591211 33.6705 0.372648L18.0343 16.0068L2.39818 0.372648C1.61839 -0.35396 0.344475 0.0360621 0.105122 1.07468C0.00183868 1.52284 0.127819 1.99303 0.441341 2.3295L16.0752 17.966L0.441341 33.6024Z" fill="#2B2A29"/>
</g>
<defs>
<clipPath id="clip0_2668_3242">
<rect width="36" height="36" fill="white" transform="matrix(-1 0 0 1 36 0)"/>
</clipPath>
</defs>
</svg>
