<svg width="1000" height="128" viewBox="0 0 1000 128" fill="none" xmlns="http://www.w3.org/2000/svg">
<g clip-path="url(#clip0_2808_6634)">
<g clip-path="url(#clip1_2808_6634)">
<path fill-rule="evenodd" clip-rule="evenodd" d="M960.467 17.7513H962.088C963.978 17.7513 964.878 18.4913 965.149 20.0637C965.599 21.9137 965.869 23.2203 966.319 23.7752H969.931C969.661 23.2203 969.301 22.3878 968.851 20.0637C968.401 18.0288 967.68 16.8147 966.229 16.3522V16.1672C967.939 15.6122 969.301 14.4098 969.301 12.5482C969.301 11.0682 968.671 9.95826 967.77 9.29921C966.78 8.55922 965.52 8.09673 962.718 8.09673C960.287 8.09673 958.385 8.37423 957.035 8.55922V23.7637H960.467V17.7397V17.7513ZM960.557 10.8948C960.917 10.8023 961.548 10.7098 962.448 10.7098C964.608 10.7098 965.61 11.6348 965.61 13.0223C965.61 14.5948 964.079 15.2422 962.178 15.2422H960.557V10.8833V10.8948ZM962.898 0.696838C971.281 0.696838 977.966 7.3683 977.966 15.9013C977.966 24.4227 971.293 31.1983 962.808 31.1983C954.323 31.1983 947.56 24.4343 947.56 15.9013C947.56 7.3683 954.323 0.696838 962.898 0.696838ZM962.718 3.76086C969.301 3.76086 974.173 9.22984 974.173 15.9938C974.173 22.7578 969.301 28.1342 962.898 28.0417C956.315 28.0417 951.352 22.6653 951.352 15.9013C951.352 9.13734 956.315 3.76086 962.718 3.76086Z" fill="#006491"/>
<path fill-rule="evenodd" clip-rule="evenodd" d="M513.874 0.696838C530.798 0.696838 545.303 6.87112 557.4 19.2313C569.486 31.5914 575.529 46.5299 575.529 64.0468C575.529 81.5638 569.486 96.5023 557.4 108.862C545.315 121.223 530.798 127.397 513.874 127.397C496.95 127.397 482.287 121.223 470.258 108.862C458.229 96.5023 452.22 81.5638 452.22 64.0468C452.22 46.5299 458.229 31.5914 470.258 19.2313C482.299 6.88268 496.826 0.696838 513.874 0.696838ZM513.874 15.4157C500.652 15.4157 489.748 20.0406 480.397 29.6489C471.046 39.2572 466.545 50.4611 466.545 64.0468C466.545 77.6326 471.046 88.8365 480.397 98.4448C489.748 108.053 500.652 112.678 513.874 112.678C527.096 112.678 537.933 107.984 547.295 98.4216C556.68 88.8365 561.204 77.6441 561.204 64.0468C561.204 50.4495 556.669 39.2572 547.295 29.672C537.944 20.11 527.085 15.4157 513.874 15.4157Z" fill="#006491"/>
<path fill-rule="evenodd" clip-rule="evenodd" d="M747.833 88.6284C747.833 85.4487 746.978 81.7603 745.976 78.7541C742.386 67.9896 733.429 60.1157 722.716 57.4563C720.488 56.9013 718.103 56.7626 715.638 56.7626H659.295C659.07 56.7626 658.789 56.7857 658.451 56.7626C652.543 56.3117 646.512 53.0164 643.789 47.4087C642.315 44.68 641.426 41.3847 641.426 38.2282C641.426 35.6151 641.808 33.8692 642.776 31.4758C644.711 26.6427 648.02 23.255 652.724 21.2547C654.535 20.48 656.426 19.9713 658.451 19.8672C658.789 19.8556 659.07 19.8672 659.295 19.8672H737.559C739.585 19.8672 741.295 19.1388 742.702 17.705C744.108 16.2597 744.806 14.5601 744.806 12.5945C744.806 10.5133 744.108 8.75579 742.702 7.3105C741.295 5.86521 739.585 5.14835 737.559 5.14835H659.295C656.831 5.14835 654.411 5.4374 652.048 6.01552C638.466 9.29922 629.115 20.5609 627.281 34.586C627.112 35.8463 627.112 37.0719 627.112 38.2166C627.112 42.1362 627.742 45.6396 628.969 49.2933C629.858 51.9527 630.983 54.4848 632.502 56.7395C639.175 66.6021 648.177 71.4583 659.295 71.4583H715.638C735.331 71.4583 740.327 99.2541 722.21 106.955C720.443 107.706 718.508 108.065 716.482 108.169C716.145 108.18 715.863 108.169 715.638 108.169H637.465C635.45 108.169 633.729 108.886 632.322 110.331C630.915 111.776 630.218 113.534 630.218 115.615C630.218 117.58 630.915 119.28 632.322 120.725C633.729 122.171 635.439 122.888 637.465 122.888H716.145C734.206 122.888 747.822 107.047 747.822 88.6052L747.833 88.6284Z" fill="#006491"/>
<path fill-rule="evenodd" clip-rule="evenodd" d="M67.2247 102.503H219.251C224.72 102.503 229.187 107.093 229.187 112.713C229.187 118.332 224.72 122.922 219.251 122.922H67.2247C61.7558 122.922 57.2884 118.332 57.2884 112.713C57.2884 107.093 61.7558 102.503 67.2247 102.503Z" fill="#00A0DC"/>
<path fill-rule="evenodd" clip-rule="evenodd" d="M9.9363 53.7563H161.963C167.432 53.7563 171.899 58.3466 171.899 63.9659C171.899 69.5852 167.432 74.1754 161.963 74.1754H9.9363C4.46739 74.1754 0 69.5852 0 63.9659C0 58.3466 4.46739 53.7563 9.9363 53.7563Z" fill="#006491"/>
<path fill-rule="evenodd" clip-rule="evenodd" d="M38.5861 5.19458H190.613C196.081 5.19458 200.549 9.78482 200.549 15.4041C200.549 21.0234 196.081 25.6137 190.613 25.6137H38.5861C33.1172 25.6137 28.6498 21.0234 28.6498 15.4041C28.6498 9.78482 33.1172 5.19458 38.5861 5.19458Z" fill="#006491"/>
<path fill-rule="evenodd" clip-rule="evenodd" d="M343.776 102.249L390.723 5.04428C392.591 1.18246 397.182 -0.401579 400.929 1.5062C404.676 3.41399 406.229 8.13142 404.361 11.9932L350.719 123.049C349.38 125.824 346.611 127.397 343.776 127.397C340.94 127.397 338.172 125.824 336.833 123.049L283.179 11.9932C281.322 8.13142 282.864 3.41399 286.611 1.5062C290.358 -0.401579 294.961 1.19402 296.817 5.04428L343.764 102.249H343.776Z" fill="#006491"/>
<path fill-rule="evenodd" clip-rule="evenodd" d="M919.721 88.6284C919.721 85.4487 918.865 81.7603 917.864 78.7541C914.274 67.9896 905.317 60.1157 894.604 57.4563C892.387 56.9013 889.991 56.7626 887.526 56.7626H831.183C830.958 56.7626 830.677 56.7857 830.339 56.7626C824.431 56.3117 818.4 53.0164 815.676 47.4087C814.202 44.68 813.313 41.3847 813.313 38.2282C813.313 35.6151 813.696 33.8692 814.664 31.4758C816.599 26.6427 819.908 23.255 824.611 21.2547C826.423 20.48 828.313 19.9713 830.339 19.8672C830.677 19.8556 830.958 19.8672 831.183 19.8672H909.447C911.472 19.8672 913.183 19.1388 914.589 17.705C915.996 16.2597 916.694 14.5601 916.694 12.5945C916.694 10.5133 915.985 8.75579 914.589 7.3105C913.183 5.86521 911.472 5.14835 909.447 5.14835H831.183C828.719 5.14835 826.299 5.4374 823.936 6.01552C810.354 9.29922 801.014 20.5609 799.169 34.586C799 35.8463 799 37.0719 799 38.2166C799 42.1362 799.63 45.6396 800.856 49.2933C801.745 51.9527 802.871 54.4848 804.39 56.7395C811.063 66.6021 820.065 71.4583 831.183 71.4583H887.526C907.219 71.4583 912.215 99.2541 894.098 106.955C892.331 107.706 890.384 108.065 888.37 108.169C888.033 108.18 887.751 108.169 887.526 108.169H809.352C807.338 108.169 805.616 108.886 804.21 110.331C802.803 111.776 802.106 113.534 802.106 115.615C802.106 117.58 802.803 119.28 804.21 120.725C805.616 122.171 807.327 122.888 809.352 122.888H888.033C906.093 122.888 919.709 107.047 919.709 88.6052L919.721 88.6284Z" fill="#006491"/>
</g>
</g>
<defs>
<clipPath id="clip0_2808_6634">
<rect width="1000" height="126.697" fill="white" transform="translate(0 0.393677)"/>
</clipPath>
<clipPath id="clip1_2808_6634">
<rect width="977.966" height="126.7" fill="white" transform="translate(0 0.696838)"/>
</clipPath>
</defs>
</svg>
