<svg width="1000" height="127" viewBox="0 0 1000 127" fill="none" xmlns="http://www.w3.org/2000/svg">
<g clip-path="url(#clip0_2437_180)">
<path fill-rule="evenodd" clip-rule="evenodd" d="M976.198 24.1976H978.403C980.997 24.1976 982.23 25.1707 982.554 27.2466C983.138 29.7118 983.527 31.3985 984.175 32.177H989.104C988.715 31.4634 988.261 30.3605 987.613 27.2466C987.029 24.522 985.991 22.965 984.046 22.3163V22.0568C986.38 21.3432 988.196 19.7214 988.196 17.2562C988.196 15.31 987.353 13.8179 986.121 12.9746C984.759 12.0015 983.073 11.3528 979.246 11.3528C975.939 11.3528 973.345 11.742 971.529 11.9366V32.0472H976.198V24.0679V24.1976ZM976.328 15.1154C976.847 14.9856 977.69 14.8559 978.922 14.8559C981.841 14.8559 983.203 16.0885 983.203 17.9049C983.203 19.9809 981.127 20.8242 978.533 20.8242H976.328V15.0505V15.1154ZM979.506 1.62183C967.832 1.62183 958.687 10.4445 958.687 21.7324C958.687 33.0203 967.897 41.9728 979.441 41.9728C990.985 41.9728 1000.06 33.0203 1000.06 21.7324C1000.06 10.4445 990.985 1.62183 979.571 1.62183H979.506ZM979.246 5.64395C988.196 5.64395 994.812 12.9097 994.812 21.8622C994.812 30.8146 988.196 37.9507 979.506 37.8209C970.556 37.8209 963.811 30.6849 963.811 21.7324C963.811 12.78 970.556 5.64395 979.246 5.64395Z" fill="#282D2D"/>
<path fill-rule="evenodd" clip-rule="evenodd" d="M158.895 0C193.852 0 222.258 28.3495 222.258 63.3809C222.258 98.4122 193.917 126.762 158.895 126.762C148.194 126.762 138.076 124.102 129.256 119.431C126.792 118.393 122.317 115.668 124.068 109.505C124.068 109.505 133.731 60.9806 174.784 43.5297C146.832 61.8239 138.401 84.724 132.11 98.542C133.796 97.3094 135.871 96.5958 138.401 96.7255C188.923 98.6717 205.201 70.1276 192.749 17.7103C167.131 47.3572 122.965 31.658 116.48 68.7653C114.145 82.3237 125.041 84.5294 125.041 94.6496C123.289 98.6717 121.02 108.532 119.722 113.333C104.935 101.721 95.4666 83.6861 95.4666 63.4457C95.5315 28.3495 123.938 0 158.895 0Z" fill="#00AEEF"/>
<path fill-rule="evenodd" clip-rule="evenodd" d="M456.839 110.543H406.057V65.6514H451.261V55.142H406.057V15.829H454.18V5.18984H392.892V121.248H456.904V110.608L456.839 110.543ZM561.385 5.18984H548.803V55.7258C548.803 74.02 549.128 87.838 550.425 103.991L550.101 104.121C544.523 92.1196 537.519 80.0532 528.893 66.2353L489.72 5.18984H475.842V121.248H488.294V70.0628C488.294 49.9522 488.164 36.3937 486.997 21.6676L487.645 21.5378C493.547 34.3178 501.33 47.2924 509.436 60.2021L548.155 121.248H561.385V5.18984ZM651.015 110.543H600.234V65.6514H645.437V55.142H600.234V15.829H648.356V5.18984H587.068V121.248H651.08V110.608L651.015 110.543ZM719.307 65.1973C732.214 60.7859 741.942 50.8604 741.942 35.4855C741.942 26.7925 738.569 18.878 732.862 13.8828C725.663 7.46039 715.351 4.41136 699.591 4.41136C690.058 4.41136 679.551 5.31958 672.028 6.87653V121.248H685.258V69.933H700.045C714.378 69.933 721.058 77.069 724.561 93.2224C727.739 107.689 730.462 117.874 732.343 121.248H746.028C743.628 116.836 740.904 106.651 737.078 89.9139C734.224 77.2637 728.647 68.5707 719.243 65.7163V65.2622L719.307 65.1973ZM685.258 60.2021V15.6993C687.982 15.1154 693.041 14.4667 700.24 14.4667C715.027 14.4667 728.582 19.7862 728.582 36.9776C728.582 50.9901 717.751 60.1372 700.889 60.1372H685.258V60.2021ZM847.785 61.4347H810.169V71.6197H834.684V108.792C831.182 110.608 824.308 112.165 814.125 112.165C786.432 112.165 768.078 94.6496 768.078 63.316C768.078 31.9824 787.34 14.9208 816.006 14.9208C827.291 14.9208 834.944 17.0616 840.846 19.6565L844.348 9.14709C838.316 6.42242 827.94 4.28162 816.331 4.28162C778.261 4.28162 754.199 28.8036 754.199 64.0945C754.199 88.6164 765.484 122.61 813.153 122.61C828.458 122.61 841.17 119.107 847.72 116.642V61.4995L847.785 61.4347ZM932.097 5.25471L914.586 37.5614C909.787 46.5788 905.636 54.4933 902.328 62.2131H901.874C898.178 53.8445 894.416 46.3841 889.746 37.6912L872.884 5.25471H857.773L894.74 71.8143V121.312H907.971V71.49L947.013 5.25471H932.227H932.097Z" fill="#6F6F6E"/>
<path fill-rule="evenodd" clip-rule="evenodd" d="M63.7525 75.1228C65.5685 67.7922 67.6438 60.4616 69.784 53.1958L83.7279 5.18982H116.739C98.7742 18.2293 87.0355 39.4427 87.0355 63.3808C87.0355 74.2795 89.5 84.5943 93.7804 93.8711L83.663 121.312H41.5072L0 5.18982H43.6474L57.6561 53.1309C59.7964 60.3967 61.8717 67.7273 63.7525 75.1228Z" fill="#282D2D"/>
<path fill-rule="evenodd" clip-rule="evenodd" d="M349.244 49.7575C364.939 56.3097 377.586 66.8191 377.586 84.9187C377.586 90.7572 376.289 96.4012 373.565 101.526C365.134 117.29 346.521 122.35 329.853 122.35C316.622 122.35 304.754 119.691 293.793 112.555C298.787 105.548 302.873 96.4012 303.068 86.5405L307.607 88.6813C314.352 91.9249 323.367 93.8711 330.89 93.8711C335.365 93.8711 343.278 93.0278 343.278 86.9946C343.278 86.281 343.213 85.5674 342.954 84.8538C341.397 80.7019 332.317 77.069 328.621 75.5121C313.898 69.2194 298.722 58.4505 298.722 40.7402C298.722 35.8099 299.695 30.9444 301.771 26.4682C309.229 10.1202 327.453 4.28162 344.186 4.28162C353.006 4.28162 362.734 5.70882 370.841 9.3417L373.825 10.704L367.015 38.7291L362.605 36.6532C356.768 33.9285 350.542 32.5662 344.056 32.5662C340.554 32.5662 333.031 33.5393 333.031 38.4697C333.031 38.9886 333.031 39.5076 333.29 40.0266C333.809 41.5835 335.755 42.881 337.052 43.7244C340.748 46.0598 345.353 47.9411 349.374 49.6927" fill="#282D2D"/>
<path fill-rule="evenodd" clip-rule="evenodd" d="M266.684 49.7575C282.379 56.3097 294.961 66.8191 294.961 84.9187C294.961 90.7572 293.664 96.4012 290.94 101.526C282.509 117.29 263.895 122.35 247.227 122.35C237.369 122.35 221.61 119.885 210.325 113.398C217.07 106.521 222.388 98.2176 225.89 89.0705C232.505 92.0547 241.131 93.8063 248.265 93.8063C252.74 93.8063 260.652 92.9629 260.652 86.9297C260.652 86.2161 260.588 85.5025 260.328 84.7889C258.772 80.6371 249.692 77.0042 245.995 75.4472C240.677 73.1767 235.294 70.2574 230.56 66.7542C230.56 65.5865 230.625 64.4188 230.625 63.316C230.625 49.3034 226.604 36.264 219.664 25.2356C227.512 9.86069 245.152 4.28162 261.496 4.28162C270.316 4.28162 280.044 5.70882 288.151 9.3417L291.134 10.704L284.325 38.7291L279.914 36.6532C274.077 33.9285 267.851 32.5662 261.366 32.5662C257.864 32.5662 250.34 33.5393 250.34 38.4697C250.34 38.9886 250.34 39.5076 250.6 40.0266C251.119 41.5835 253.064 42.881 254.362 43.7244C258.058 46.0598 262.663 47.9411 266.684 49.6927" fill="#282D2D"/>
</g>
<defs>
<clipPath id="clip0_2437_180">
<rect width="1000" height="126.697" fill="white"/>
</clipPath>
</defs>
</svg>
