<svg width="1000" height="127" viewBox="0 0 1000 127" fill="none" xmlns="http://www.w3.org/2000/svg">
<g clip-path="url(#clip0_2808_6725)">
<g clip-path="url(#clip1_2808_6725)">
<path fill-rule="evenodd" clip-rule="evenodd" d="M960.467 17.4481H962.088C963.978 17.4481 964.878 18.1881 965.149 19.7606C965.599 21.6106 965.869 22.9171 966.319 23.4721H969.931C969.661 22.9171 969.301 22.0846 968.851 19.7606C968.401 17.7256 967.68 16.5116 966.229 16.0491V15.8641C967.939 15.3091 969.301 14.1066 969.301 12.2451C969.301 10.7651 968.671 9.6551 967.77 8.99605C966.78 8.25606 965.52 7.79357 962.718 7.79357C960.287 7.79357 958.385 8.07106 957.035 8.25606V23.4605H960.467V17.4366V17.4481ZM960.557 10.5917C960.917 10.4992 961.548 10.4067 962.448 10.4067C964.608 10.4067 965.61 11.3316 965.61 12.7191C965.61 14.2916 964.079 14.9391 962.178 14.9391H960.557V10.5801V10.5917ZM962.898 0.393677C971.281 0.393677 977.966 7.06514 977.966 15.5981C977.966 24.1196 971.293 30.8951 962.808 30.8951C954.323 30.8951 947.56 24.1311 947.56 15.5981C947.56 7.06514 954.323 0.393677 962.898 0.393677ZM962.718 3.45769C969.301 3.45769 974.173 8.92668 974.173 15.6906C974.173 22.4546 969.301 27.8311 962.898 27.7386C956.315 27.7386 951.352 22.3621 951.352 15.5981C951.352 8.83418 956.315 3.45769 962.718 3.45769Z" fill="white"/>
<path fill-rule="evenodd" clip-rule="evenodd" d="M513.874 0.393677C530.798 0.393677 545.303 6.56796 557.4 18.9281C569.486 31.2882 575.529 46.2267 575.529 63.7437C575.529 81.2606 569.486 96.1991 557.4 108.559C545.315 120.919 530.798 127.094 513.874 127.094C496.95 127.094 482.287 120.919 470.258 108.559C458.229 96.1991 452.22 81.2606 452.22 63.7437C452.22 46.2267 458.229 31.2882 470.258 18.9281C482.299 6.57952 496.826 0.393677 513.874 0.393677ZM513.874 15.1125C500.652 15.1125 489.748 19.7375 480.397 29.3457C471.046 38.954 466.545 50.1579 466.545 63.7437C466.545 77.3294 471.046 88.5333 480.397 98.1416C489.748 107.75 500.652 112.375 513.874 112.375C527.096 112.375 537.933 107.681 547.295 98.1185C556.68 88.5333 561.204 77.341 561.204 63.7437C561.204 50.1464 556.669 38.954 547.295 29.3689C537.944 19.8068 527.085 15.1125 513.874 15.1125Z" fill="white"/>
<path fill-rule="evenodd" clip-rule="evenodd" d="M747.833 88.3252C747.833 85.1455 746.978 81.4572 745.976 78.451C742.386 67.6864 733.429 59.8125 722.716 57.1531C720.488 56.5982 718.103 56.4594 715.638 56.4594H659.295C659.07 56.4594 658.789 56.4825 658.451 56.4594C652.543 56.0085 646.512 52.7132 643.789 47.1055C642.315 44.3768 641.426 41.0815 641.426 37.925C641.426 35.3119 641.808 33.566 642.776 31.1726C644.711 26.3395 648.02 22.9518 652.724 20.9515C654.535 20.1768 656.426 19.6681 658.451 19.564C658.789 19.5525 659.07 19.564 659.295 19.564H737.559C739.585 19.564 741.295 18.8356 742.702 17.4019C744.108 15.9566 744.806 14.2569 744.806 12.2913C744.806 10.2101 744.108 8.45262 742.702 7.00732C741.295 5.56203 739.585 4.84517 737.559 4.84517H659.295C656.831 4.84517 654.411 5.13423 652.048 5.71234C638.466 8.99604 629.115 20.2578 627.281 34.2829C627.112 35.5431 627.112 36.7688 627.112 37.9134C627.112 41.8331 627.742 45.3364 628.969 48.9901C629.858 51.6495 630.983 54.1816 632.502 56.4363C639.175 66.2989 648.177 71.1551 659.295 71.1551H715.638C735.331 71.1551 740.327 98.951 722.21 106.651C720.443 107.403 718.508 107.761 716.482 107.866C716.145 107.877 715.863 107.866 715.638 107.866H637.465C635.45 107.866 633.729 108.582 632.322 110.028C630.915 111.473 630.218 113.23 630.218 115.312C630.218 117.277 630.915 118.977 632.322 120.422C633.729 121.867 635.439 122.584 637.465 122.584H716.145C734.206 122.584 747.822 106.744 747.822 88.3021L747.833 88.3252Z" fill="white"/>
<path fill-rule="evenodd" clip-rule="evenodd" d="M67.2247 102.2H219.251C224.72 102.2 229.187 106.79 229.187 112.41C229.187 118.029 224.72 122.619 219.251 122.619H67.2247C61.7558 122.619 57.2884 118.029 57.2884 112.41C57.2884 106.79 61.7558 102.2 67.2247 102.2Z" fill="white"/>
<path fill-rule="evenodd" clip-rule="evenodd" d="M9.9363 53.4532H161.963C167.432 53.4532 171.899 58.0434 171.899 63.6627C171.899 69.282 167.432 73.8723 161.963 73.8723H9.9363C4.46739 73.8723 0 69.282 0 63.6627C0 58.0434 4.46739 53.4532 9.9363 53.4532Z" fill="white"/>
<path fill-rule="evenodd" clip-rule="evenodd" d="M38.5861 4.89142H190.613C196.081 4.89142 200.549 9.48166 200.549 15.101C200.549 20.7202 196.081 25.3105 190.613 25.3105H38.5861C33.1172 25.3105 28.6498 20.7202 28.6498 15.101C28.6498 9.48166 33.1172 4.89142 38.5861 4.89142Z" fill="white"/>
<path fill-rule="evenodd" clip-rule="evenodd" d="M343.776 101.946L390.723 4.74112C392.591 0.879298 397.182 -0.704741 400.929 1.20304C404.676 3.11083 406.229 7.82826 404.361 11.6901L350.719 122.746C349.38 125.521 346.611 127.094 343.776 127.094C340.94 127.094 338.172 125.521 336.833 122.746L283.179 11.6901C281.322 7.82826 282.864 3.11083 286.611 1.20304C290.358 -0.704741 294.961 0.890861 296.817 4.74112L343.764 101.946H343.776Z" fill="white"/>
<path fill-rule="evenodd" clip-rule="evenodd" d="M919.721 88.3252C919.721 85.1455 918.865 81.4572 917.864 78.451C914.274 67.6864 905.317 59.8125 894.604 57.1531C892.387 56.5982 889.991 56.4594 887.526 56.4594H831.183C830.958 56.4594 830.677 56.4825 830.339 56.4594C824.431 56.0085 818.4 52.7132 815.676 47.1055C814.202 44.3768 813.313 41.0815 813.313 37.925C813.313 35.3119 813.696 33.566 814.664 31.1726C816.599 26.3395 819.908 22.9518 824.611 20.9515C826.423 20.1768 828.313 19.6681 830.339 19.564C830.677 19.5525 830.958 19.564 831.183 19.564H909.447C911.472 19.564 913.183 18.8356 914.589 17.4019C915.996 15.9566 916.694 14.2569 916.694 12.2913C916.694 10.2101 915.985 8.45262 914.589 7.00732C913.183 5.56203 911.472 4.84517 909.447 4.84517H831.183C828.719 4.84517 826.299 5.13423 823.936 5.71234C810.354 8.99604 801.014 20.2578 799.169 34.2829C799 35.5431 799 36.7688 799 37.9134C799 41.8331 799.63 45.3364 800.856 48.9901C801.745 51.6495 802.871 54.1816 804.39 56.4363C811.063 66.2989 820.065 71.1551 831.183 71.1551H887.526C907.219 71.1551 912.215 98.951 894.098 106.651C892.331 107.403 890.384 107.761 888.37 107.866C888.033 107.877 887.751 107.866 887.526 107.866H809.352C807.338 107.866 805.616 108.582 804.21 110.028C802.803 111.473 802.106 113.23 802.106 115.312C802.106 117.277 802.803 118.977 804.21 120.422C805.616 121.867 807.327 122.584 809.352 122.584H888.033C906.093 122.584 919.709 106.744 919.709 88.3021L919.721 88.3252Z" fill="white"/>
</g>
</g>
<defs>
<clipPath id="clip0_2808_6725">
<rect width="1000" height="126.697" fill="white" transform="translate(0 0.0905151)"/>
</clipPath>
<clipPath id="clip1_2808_6725">
<rect width="977.966" height="126.7" fill="white" transform="translate(0 0.393677)"/>
</clipPath>
</defs>
</svg>
