<svg width="1000" height="128" viewBox="0 0 1000 128" fill="none" xmlns="http://www.w3.org/2000/svg">
<g clip-path="url(#clip0_2437_1762)">
<path fill-rule="evenodd" clip-rule="evenodd" d="M976.198 24.8944H978.403C980.997 24.8944 982.23 25.8675 982.554 27.9435C983.138 30.4086 983.527 32.0953 984.175 32.8738H989.104C988.715 32.1602 988.261 31.0574 987.613 27.9435C987.029 25.2188 985.991 23.6619 984.046 23.0131V22.7536C986.38 22.04 988.196 20.4182 988.196 17.953C988.196 16.0069 987.353 14.5148 986.121 13.6714C984.759 12.6983 983.073 12.0496 979.246 12.0496C975.939 12.0496 973.345 12.4388 971.529 12.6335V32.7441H976.198V24.7647V24.8944ZM976.328 15.8122C976.847 15.6825 977.69 15.5527 978.922 15.5527C981.841 15.5527 983.203 16.7853 983.203 18.6018C983.203 20.6777 981.127 21.5211 978.533 21.5211H976.328V15.7474V15.8122ZM979.506 2.31866C967.832 2.31866 958.687 11.1414 958.687 22.4293C958.687 33.7172 967.897 42.6696 979.441 42.6696C990.985 42.6696 1000.06 33.7172 1000.06 22.4293C1000.06 11.1414 990.985 2.31866 979.571 2.31866H979.506ZM979.246 6.34079C988.196 6.34079 994.812 13.6066 994.812 22.559C994.812 31.5115 988.196 38.6475 979.506 38.5178C970.556 38.5178 963.811 31.3817 963.811 22.4293C963.811 13.4768 970.556 6.34079 979.246 6.34079Z" fill="white"/>
<path fill-rule="evenodd" clip-rule="evenodd" d="M158.895 0.696838C193.852 0.696838 222.258 29.0463 222.258 64.0777C222.258 99.1091 193.917 127.459 158.895 127.459C148.194 127.459 138.076 124.799 129.256 120.128C126.792 119.09 122.317 116.365 124.068 110.202C124.068 110.202 133.731 61.6774 174.784 44.2266C146.832 62.5207 138.401 85.4209 132.11 99.2388C133.796 98.0062 135.871 97.2926 138.401 97.4224C188.923 99.3686 205.201 70.8245 192.749 18.4071C167.131 48.0541 122.965 32.3548 116.48 69.4621C114.145 83.0206 125.041 85.2263 125.041 95.3464C123.289 99.3686 121.02 109.229 119.722 114.03C104.935 102.418 95.4666 84.3829 95.4666 64.1426C95.5315 29.0463 123.938 0.696838 158.895 0.696838Z" fill="white"/>
<path fill-rule="evenodd" clip-rule="evenodd" d="M456.839 111.24H406.057V66.3482H451.261V55.8388H406.057V16.5258H454.18V5.88668H392.892V121.944H456.904V111.305L456.839 111.24ZM561.385 5.88668H548.803V56.4227C548.803 74.7169 549.128 88.5348 550.425 104.688L550.101 104.818C544.523 92.8164 537.519 80.75 528.893 66.9321L489.72 5.88668H475.842V121.944H488.294V70.7596C488.294 50.649 488.164 37.0906 486.997 22.3644L487.645 22.2347C493.547 35.0146 501.33 47.9892 509.436 60.8989L548.155 121.944H561.385V5.88668ZM651.015 111.24H600.234V66.3482H645.437V55.8388H600.234V16.5258H648.356V5.88668H587.068V121.944H651.08V111.305L651.015 111.24ZM719.307 65.8941C732.214 61.4828 741.942 51.5572 741.942 36.1823C741.942 27.4894 738.569 19.5749 732.862 14.5796C725.663 8.15723 715.351 5.1082 699.591 5.1082C690.058 5.1082 679.551 6.01642 672.028 7.57337V121.944H685.258V70.6299H700.045C714.378 70.6299 721.058 77.7659 724.561 93.9192C727.739 108.386 730.462 118.571 732.343 121.944H746.028C743.628 117.533 740.904 107.348 737.078 90.6107C734.224 77.9605 728.647 69.2675 719.243 66.4131V65.959L719.307 65.8941ZM685.258 60.8989V16.3961C687.982 15.8122 693.041 15.1635 700.24 15.1635C715.027 15.1635 728.582 20.4831 728.582 37.6744C728.582 51.687 717.751 60.834 700.889 60.834H685.258V60.8989ZM847.785 62.1315H810.169V72.3166H834.684V109.489C831.182 111.305 824.308 112.862 814.125 112.862C786.432 112.862 768.078 95.3464 768.078 64.0128C768.078 32.6792 787.34 15.6176 816.006 15.6176C827.291 15.6176 834.944 17.7584 840.846 20.3533L844.348 9.84392C838.316 7.11926 827.94 4.97845 816.331 4.97845C778.261 4.97845 754.199 29.5004 754.199 64.7913C754.199 89.3133 765.484 123.307 813.153 123.307C828.458 123.307 841.17 119.804 847.72 117.338V62.1964L847.785 62.1315ZM932.097 5.95155L914.586 38.2583C909.787 47.2756 905.636 55.1901 902.328 62.91H901.874C898.178 54.5414 894.416 47.081 889.746 38.388L872.884 5.95155H857.773L894.74 72.5112V122.009H907.971V72.1868L947.013 5.95155H932.227H932.097Z" fill="white"/>
<path fill-rule="evenodd" clip-rule="evenodd" d="M63.7525 75.8197C65.5685 68.489 67.6438 61.1584 69.784 53.8926L83.7279 5.88666H116.739C98.7742 18.9261 87.0355 40.1396 87.0355 64.0777C87.0355 74.9763 89.5 85.2911 93.7804 94.5679L83.663 122.009H41.5072L0 5.88666H43.6474L57.6561 53.8277C59.7964 61.0935 61.8717 68.4242 63.7525 75.8197Z" fill="white"/>
<path fill-rule="evenodd" clip-rule="evenodd" d="M349.244 50.4544C364.939 57.0065 377.586 67.516 377.586 85.6155C377.586 91.4541 376.289 97.098 373.565 102.223C365.134 117.987 346.521 123.047 329.853 123.047C316.622 123.047 304.754 120.387 293.793 113.251C298.787 106.245 302.873 97.098 303.068 87.2373L307.607 89.3781C314.352 92.6218 323.367 94.568 330.89 94.568C335.365 94.568 343.278 93.7246 343.278 87.6914C343.278 86.9778 343.213 86.2642 342.954 85.5506C341.397 81.3988 332.317 77.7659 328.621 76.2089C313.898 69.9163 298.722 59.1474 298.722 41.437C298.722 36.5067 299.695 31.6412 301.771 27.165C309.229 10.817 327.453 4.97845 344.186 4.97845C353.006 4.97845 362.734 6.40566 370.841 10.0385L373.825 11.4009L367.015 39.426L362.605 37.35C356.768 34.6254 350.542 33.2631 344.056 33.2631C340.554 33.2631 333.031 34.2361 333.031 39.1665C333.031 39.6855 333.031 40.2045 333.29 40.7234C333.809 42.2804 335.755 43.5778 337.052 44.4212C340.748 46.7566 345.353 48.6379 349.374 50.3895" fill="white"/>
<path fill-rule="evenodd" clip-rule="evenodd" d="M266.684 50.4544C282.379 57.0065 294.961 67.516 294.961 85.6155C294.961 91.4541 293.664 97.098 290.94 102.223C282.509 117.987 263.895 123.047 247.227 123.047C237.369 123.047 221.61 120.582 210.325 114.095C217.07 107.218 222.388 98.9145 225.89 89.7674C232.505 92.7515 241.131 94.5031 248.265 94.5031C252.74 94.5031 260.652 93.6597 260.652 87.6266C260.652 86.913 260.588 86.1994 260.328 85.4858C258.772 81.3339 249.692 77.701 245.995 76.1441C240.677 73.8735 235.294 70.9542 230.56 67.4511C230.56 66.2834 230.625 65.1157 230.625 64.0128C230.625 50.0003 226.604 36.9608 219.664 25.9324C227.511 10.5575 245.152 4.97845 261.496 4.97845C270.316 4.97845 280.044 6.40566 288.151 10.0385L291.134 11.4009L284.325 39.426L279.914 37.35C274.077 34.6254 267.851 33.2631 261.366 33.2631C257.864 33.2631 250.34 34.2361 250.34 39.1665C250.34 39.6855 250.34 40.2045 250.6 40.7234C251.119 42.2804 253.064 43.5778 254.362 44.4212C258.058 46.7566 262.663 48.6379 266.684 50.3895" fill="white"/>
</g>
<defs>
<clipPath id="clip0_2437_1762">
<rect width="1000" height="126.697" fill="white" transform="translate(0 0.696838)"/>
</clipPath>
</defs>
</svg>
