<svg width="1191" height="242" viewBox="0 0 1191 242" fill="none" xmlns="http://www.w3.org/2000/svg">
<g clip-path="url(#clip0_2437_1802)">
<g clip-path="url(#clip1_2437_1802)">
<path d="M1187.37 223.934C1189.62 223.934 1191 222.034 1191 219.962C1191 217.89 1189.79 216.163 1187.63 216.163C1185.47 216.163 1184.01 217.89 1184.01 220.135C1184.01 222.207 1185.39 223.934 1187.37 223.934ZM1144.75 222.984L1148.63 201.802C1150.62 190.866 1159.4 184.161 1165.27 184.161C1171.14 184.161 1173.18 187.873 1173.18 192.766C1173.18 194.665 1172.84 196.737 1172.58 198.435L1167.92 222.984H1171.8L1176.38 198.781C1176.81 196.449 1177.16 194.118 1177.16 192.248C1177.16 182.693 1170.54 180.707 1166.82 180.707C1160.38 180.707 1154.5 184.506 1150.88 190.521H1150.71L1152 181.657H1148.37C1147.94 184.938 1147.42 188.535 1146.56 192.766L1140.89 222.984H1144.78H1144.75ZM1132.69 190.434C1132.69 198.522 1121.49 200.162 1109.26 199.989C1111.59 191.902 1117.78 184.045 1125.29 184.045C1129.52 184.045 1132.69 186.204 1132.69 190.406V190.434ZM1130.1 217.574C1128.02 218.782 1124.4 220.509 1119.25 220.509C1114.5 220.509 1110.9 218.178 1109.26 213.458C1108.22 210.609 1108.14 205.544 1108.65 203.299C1123.22 203.558 1136.66 201.313 1136.66 190.204C1136.66 185.369 1133.46 180.736 1125.98 180.736C1113.66 180.736 1104.37 195.471 1104.37 207.789C1104.37 215.962 1108.25 223.905 1118.76 223.905C1124.86 223.905 1129.18 222.006 1131.25 220.624L1130.13 217.602L1130.1 217.574ZM1067.81 202.838C1070.32 191.643 1077.89 184.074 1085.11 184.074C1092.34 184.074 1094.58 189.83 1094.58 195.701C1094.58 206.119 1087.18 220.595 1074.17 220.595C1068.73 220.595 1066.17 218.092 1066.17 213.544C1066.17 211.127 1066.43 209.4 1066.78 207.932L1067.81 202.838ZM1072.13 161.856L1062.92 208.105C1062.66 209.832 1062.32 212.163 1062.32 213.89C1062.32 221.631 1068.19 223.963 1073.86 223.963C1089.2 223.963 1098.58 208.019 1098.58 195.787C1098.58 188.477 1095.39 180.707 1086.09 180.707C1080.25 180.707 1074.46 183.988 1070.4 190.78L1070.23 190.693L1076.02 161.856H1072.13ZM1052.93 190.434C1052.93 198.522 1041.74 200.162 1029.5 199.989C1031.84 191.902 1038.02 184.045 1045.54 184.045C1049.77 184.045 1052.93 186.204 1052.93 190.406V190.434ZM1050.34 217.574C1048.27 218.782 1044.64 220.509 1039.49 220.509C1034.74 220.509 1031.14 218.178 1029.5 213.458C1028.47 210.609 1028.38 205.544 1028.9 203.299C1043.46 203.558 1056.9 201.313 1056.9 190.204C1056.9 185.369 1053.71 180.736 1046.23 180.736C1033.91 180.736 1024.61 195.471 1024.61 207.789C1024.61 215.962 1028.5 223.905 1039 223.905C1045.1 223.905 1049.42 222.006 1051.49 220.624L1050.37 217.602L1050.34 217.574ZM992.03 223.013H1019.95L1020.64 219.646H996.52L1007.03 164.965H1003.05L992.03 223.013ZM962.931 223.963C965.176 223.963 966.558 222.063 966.558 219.991C966.558 217.919 965.349 216.192 963.19 216.192C961.032 216.192 959.564 217.919 959.564 220.164C959.564 222.236 960.945 223.963 962.931 223.963ZM920.305 223.013L924.363 201.14C926.177 191.327 934.61 184.161 940.913 184.161C946.497 184.161 948.742 187.787 948.742 192.248C948.742 194.838 948.483 196.91 948.137 198.262L943.475 222.984H947.36L952.023 198.435C952.455 196.449 952.627 194.032 952.627 191.73C952.627 182.779 946.094 180.707 942.467 180.707C935.675 180.707 930.321 184.333 926.608 190.175H926.436L932.048 161.828H928.076L916.448 222.984H920.334L920.305 223.013ZM906.691 217.833C904.533 218.955 900.906 220.509 896.272 220.509C888.098 220.509 884.644 215.242 884.644 207.932C884.644 196.91 892.3 184.247 904.36 184.247C907.9 184.247 910.462 185.283 912.275 186.146L913.656 182.865C912.793 182.088 908.994 180.707 904.964 180.707C890.66 180.707 880.586 194.751 880.586 208.537C880.586 216.106 884.644 223.876 895.581 223.876C901.597 223.876 906 222.063 907.727 221.113L906.691 217.833ZM874.743 173.224C876.815 173.224 877.938 171.584 878.111 169.771C878.111 167.871 876.988 166.317 875.002 166.317C873.189 166.317 871.894 167.871 871.807 169.771C871.721 171.584 872.844 173.224 874.743 173.224ZM866.742 223.013L874.657 181.685H870.771L862.856 223.013H866.742ZM849.012 223.013L860.726 161.856H856.754L845.126 223.013H849.012ZM824.288 223.013L828.087 202.954C829.987 192.449 836.607 184.707 841.788 184.707C842.651 184.707 843.256 184.707 843.687 184.88L844.464 180.908C844.033 180.822 843.169 180.736 842.565 180.736C837.125 180.736 832.836 185.225 830.246 190.981H829.987C830.592 187.528 830.937 184.621 831.369 181.685H827.828C827.31 185.657 826.62 190.204 825.756 195.126L820.403 223.042H824.288V223.013ZM808.516 173.052C810.588 173.052 811.797 171.325 811.797 169.598C811.797 167.871 810.674 166.317 808.688 166.317C806.875 166.317 805.494 167.958 805.494 169.771C805.494 171.584 806.53 173.052 808.516 173.052ZM793.952 173.052C796.024 173.052 797.233 171.325 797.233 169.598C797.233 167.871 796.024 166.317 794.125 166.317C792.225 166.317 790.844 167.958 790.844 169.771C790.844 171.584 792.052 173.052 793.952 173.052ZM810.415 181.657L806.184 204.134C804.371 213.688 796.283 220.423 790.498 220.423C784.713 220.423 782.324 216.969 782.324 211.731C782.324 209.746 782.583 207.846 783.101 205.285L787.591 181.685H783.706L779.216 205.198C778.698 207.875 778.438 209.947 778.438 211.731C778.438 222.15 785.058 223.963 789.548 223.963C795.305 223.963 801.004 219.905 804.371 214.494H804.544L803.249 223.013H806.961C807.221 219.732 807.739 216.048 808.516 211.904L814.301 181.685H810.415V181.657ZM762.954 171.929L761.141 181.657H754.78L754.175 184.851H760.45L755.873 208.623C755.269 211.472 754.924 213.976 754.924 216.451C754.924 220.077 756.823 223.848 762.321 223.848C764.047 223.848 765.688 223.675 766.811 223.243L766.465 220.135C765.602 220.394 764.479 220.567 763.098 220.567C760.335 220.567 758.953 218.926 758.953 216.163C758.953 213.573 759.298 211.501 759.817 208.767L764.306 184.822H774.898L775.503 181.628H764.997L767.07 170.778L762.925 171.9L762.954 171.929ZM738.575 199.155C736.33 210.695 727.897 220.595 720.5 220.595C713.708 220.595 712.154 215.07 712.154 210.091C712.24 196.133 722.832 184.074 735.323 184.074C738.518 184.074 740.245 184.42 741.252 184.851L738.575 199.155ZM739.698 223.013C739.525 218.782 739.957 211.818 741.511 203.472L745.656 181.944C743.152 181.254 739.468 180.736 736.1 180.736C719.551 180.736 708.182 196.075 708.182 210.782C708.182 218.092 712.413 223.963 719.637 223.963C726.084 223.963 732.128 220.423 736.935 210.782H737.108C736.417 215.876 735.899 220.423 735.985 223.013H739.698ZM659.598 223.013L666.476 186.492C667.772 179.354 668.462 175.037 669.067 169.771L669.326 169.598C670.448 174.174 671.571 177.426 674.593 184.247L690.97 223.013H694.51L705.534 164.965H701.734L694.769 201.745C693.301 209.573 692.783 213.458 692.438 218.293L692.265 218.379C691.143 214.235 690.02 210.551 687.343 204.421L670.535 164.965H666.822L655.798 223.013H659.598ZM626.7 223.963C628.945 223.963 630.326 222.063 630.326 219.991C630.326 217.919 629.117 216.192 626.959 216.192C624.8 216.192 623.332 217.919 623.332 220.164C623.332 222.236 624.714 223.963 626.7 223.963ZM617.489 190.463C617.489 198.55 606.293 200.191 594.061 200.018C596.392 191.931 602.58 184.074 610.092 184.074C614.323 184.074 617.489 186.233 617.489 190.434V190.463ZM614.899 217.602C612.827 218.811 609.2 220.538 604.048 220.538C599.299 220.538 595.701 218.207 594.061 213.487C593.025 210.638 592.938 205.573 593.456 203.328C608.02 203.587 621.461 201.342 621.461 190.233C621.461 185.398 618.267 180.765 610.783 180.765C598.465 180.765 589.168 195.5 589.168 207.817C589.168 215.991 593.054 223.934 603.559 223.934C609.661 223.934 613.978 222.034 616.05 220.653L614.928 217.631L614.899 217.602ZM583.383 173.253C585.455 173.253 586.578 171.613 586.75 169.8C586.75 167.9 585.628 166.346 583.642 166.346C581.829 166.346 580.533 167.9 580.447 169.8C580.361 171.613 581.483 173.253 583.383 173.253ZM575.381 223.042L583.296 181.714H579.411L571.496 223.042H575.381ZM557.997 201.428C556.356 210.206 548.873 219.847 541.361 219.847C533.446 219.847 531.978 213.142 531.978 208.307C532.064 196.593 540.325 184.103 552.557 184.103C556.356 184.103 559.436 185.139 560.99 185.916L557.968 201.428H557.997ZM525.617 237.95C528.121 239.763 532.583 241.058 537.332 241.058C541.562 241.058 546.887 240.108 550.859 236.482C554.745 232.942 557.134 227.359 558.947 217.89L565.308 183.614C562.804 182.232 557.479 180.765 553.334 180.765C538.598 180.765 528.006 194.809 528.006 209.199C528.006 215.991 531.805 223.243 540.152 223.243C546.427 223.243 552.298 219.79 556.184 212.739H556.356L554.63 220.653C551.694 233.661 545.678 237.69 538.08 237.69C533.244 237.69 529.733 236.482 527.056 234.755L525.588 237.95H525.617ZM508.406 223.042L512.205 202.982C514.104 192.478 520.724 184.736 525.905 184.736C526.769 184.736 527.373 184.736 527.805 184.909L528.582 180.937C528.15 180.851 527.287 180.765 526.682 180.765C521.242 180.765 516.954 185.254 514.363 191.01H514.104C514.709 187.557 515.054 184.65 515.486 181.714H511.946C511.428 185.686 510.737 190.233 509.873 195.154L504.52 223.07H508.406V223.042ZM496.346 190.492C496.346 198.579 485.15 200.22 472.917 200.047C475.249 191.96 481.437 184.103 488.949 184.103C493.18 184.103 496.346 186.261 496.346 190.463V190.492ZM493.756 217.631C491.683 218.84 488.085 220.567 482.905 220.567C478.156 220.567 474.558 218.236 472.917 213.516C471.881 210.666 471.795 205.601 472.313 203.356C486.877 203.616 500.318 201.371 500.318 190.262C500.318 185.427 497.123 180.793 489.64 180.793C477.321 180.793 468.024 195.528 468.024 207.846C468.024 216.019 471.91 223.963 482.415 223.963C488.517 223.963 492.835 222.063 494.907 220.682L493.784 217.66L493.756 217.631ZM427.528 223.07L431.414 201.889C433.4 190.952 442.178 184.247 448.05 184.247C453.921 184.247 455.965 187.959 455.965 192.852C455.965 194.751 455.619 196.824 455.36 198.522L450.698 223.07H454.583L459.16 198.867C459.591 196.536 459.937 194.205 459.937 192.334C459.937 182.779 453.317 180.793 449.604 180.793C443.157 180.793 437.285 184.592 433.659 190.607H433.486L434.781 181.743H431.155C430.723 185.024 430.205 188.621 429.341 192.852L423.671 223.07H427.557H427.528ZM417.195 190.78H395.753L400.07 168.389H422.808L423.499 165.022H396.789L385.765 223.07H413.77L414.461 219.703H390.342L395.177 194.118H416.533L417.224 190.751L417.195 190.78Z" fill="#00AEEF"/>
<path fill-rule="evenodd" clip-rule="evenodd" d="M976.804 26.132H979.02C981.582 26.132 982.82 27.1105 983.194 29.2114C983.798 31.6576 984.172 33.3844 984.777 34.1327H989.67C989.296 33.3844 988.806 32.2908 988.202 29.2114C987.597 26.5061 986.619 24.9232 984.633 24.2901V24.0598C986.964 23.3116 988.806 21.7287 988.806 19.2824C988.806 17.3254 987.943 15.8577 986.734 14.9943C985.381 14.0158 983.654 13.4114 979.855 13.4114C976.545 13.4114 973.955 13.7855 972.142 14.0158V34.1327H976.804V26.1607V26.132ZM976.919 17.0664C977.409 16.9513 978.272 16.8074 979.481 16.8074C982.417 16.8074 983.769 18.0449 983.769 19.8868C983.769 21.9589 981.697 22.8223 979.107 22.8223H976.891V17.0664H976.919ZM980.114 3.56879C968.457 3.56879 959.247 12.4041 959.247 23.6857C959.247 34.9673 968.457 43.9177 979.97 43.9177C991.483 43.9177 1000.58 34.9673 1000.58 23.6857C1000.58 12.4041 991.512 3.56879 980.085 3.56879H980.114ZM979.855 7.6267C988.806 7.6267 995.426 14.8504 995.426 23.8296C995.426 32.8088 988.806 39.8886 980.085 39.7735C971.134 39.7735 964.37 32.6649 964.37 23.7145C964.37 14.764 971.105 7.65548 979.826 7.65548L979.855 7.6267Z" fill="#282D2D"/>
<path fill-rule="evenodd" clip-rule="evenodd" d="M158.934 0.00012207C193.933 0.00012207 222.284 28.3768 222.284 63.3439C222.284 98.3111 193.904 126.688 158.934 126.688C148.227 126.688 138.125 124.04 129.289 119.32C126.814 118.255 122.352 115.55 124.108 109.362C124.108 109.362 133.75 60.8401 174.851 43.4285C146.903 61.7323 138.442 84.612 132.167 98.4262C133.836 97.2175 135.909 96.498 138.47 96.6131C188.983 98.5701 205.302 70.0496 192.84 17.5844C167.195 47.2562 123.043 31.5425 116.567 68.6106C114.207 82.1658 125.115 84.4106 125.144 94.4546C123.389 98.4838 121.086 108.355 119.791 113.161C105.026 101.563 95.5275 83.5472 95.5275 63.3151C95.5563 28.3768 123.935 0.00012207 158.934 0.00012207Z" fill="#00AEEF"/>
<path fill-rule="evenodd" clip-rule="evenodd" d="M456.915 110.542H406.086V65.6175H451.331V55.1129H406.086V15.8576H454.209V5.20919H392.875V121.22H456.915V110.571V110.542ZM561.48 5.20919H548.902V55.7461C548.902 74.0211 549.219 87.8641 550.485 104.009L550.168 104.153C544.585 92.1235 537.591 80.0936 528.985 66.2506L489.784 5.20919H475.911V121.22H488.345V70.0783C488.345 49.9902 488.172 36.435 487.078 21.6711L487.711 21.5272C493.612 34.3053 501.412 47.2561 509.528 60.2069L548.24 121.248H561.451V5.20919H561.48ZM651.107 110.571H600.278V65.6463H645.523V55.1417H600.278V15.8576H648.401V5.20919H587.067V121.22H651.107V110.571ZM719.435 65.2146C732.33 60.8113 742.058 50.9111 742.058 35.5141C742.058 26.8226 738.719 18.9083 732.992 13.9006C725.825 7.51156 715.464 4.46092 699.691 4.46092C690.135 4.46092 679.63 5.38187 672.118 6.90719V121.248H685.329V69.9344H700.151C714.485 69.9344 721.191 77.1005 724.674 93.2171C727.869 107.693 730.574 117.881 732.474 121.22H746.174C743.785 116.816 741.079 106.6 737.251 89.8499C734.373 77.2156 728.818 68.5242 719.407 65.6463V65.1858L719.435 65.2146ZM685.357 60.1781V15.7137C688.063 15.1094 693.157 14.505 700.324 14.505C715.147 14.505 728.674 19.8292 728.674 37.0394C728.674 51.055 717.852 60.1781 700.957 60.1781H685.357ZM847.89 61.3869H810.3V71.5749H834.822V108.729C831.311 110.542 824.461 112.068 814.272 112.068C786.555 112.068 768.221 94.5697 768.221 63.2C768.221 31.8303 787.505 14.7928 816.172 14.7928C827.483 14.7928 835.139 16.9225 841.011 19.5126L844.522 9.00809C838.478 6.27404 828.116 4.14435 816.488 4.14435C778.41 4.14435 754.348 28.6645 754.348 63.977C754.348 88.4972 765.659 122.457 813.294 122.457C828.577 122.457 841.327 118.917 847.861 116.5V61.3869H847.89ZM932.192 5.20919L914.664 37.4711C909.886 46.4503 905.741 54.3647 902.403 62.1352H901.913C898.258 53.7603 894.43 46.3064 889.796 37.615L872.901 5.18041H857.762L894.718 71.7187V121.191H907.929V71.4022L946.957 5.18041H932.134L932.192 5.20919Z" fill="#6F6F6E"/>
<path fill-rule="evenodd" clip-rule="evenodd" d="M63.7522 75.1148C65.5942 67.776 67.6377 60.466 69.7964 53.2135L83.7845 5.20923H116.826C98.8375 18.2464 87.1232 39.4569 87.1232 63.3727C87.1232 74.2514 89.5696 84.5833 93.887 93.8503L83.7845 121.277H41.59L0 5.20923H43.6623L57.6504 53.156C59.809 60.4372 61.8813 67.7472 63.7522 75.1148Z" fill="#282D2D"/>
<path fill-rule="evenodd" clip-rule="evenodd" d="M349.299 49.76C365.014 56.3217 377.62 66.7975 377.62 84.9286C377.62 90.7421 376.354 96.4117 373.591 101.534C365.158 117.277 346.564 122.371 329.9 122.371C316.689 122.371 304.83 119.723 293.836 112.557C298.844 105.564 302.931 96.4117 303.132 86.5403L307.651 88.6987C314.386 91.9221 323.424 93.8503 330.936 93.8503C335.426 93.8503 343.341 93.0157 343.341 87.0007C343.341 86.2813 343.254 85.5618 342.995 84.8711C341.441 80.7268 332.375 77.0718 328.662 75.5177C313.926 69.1862 298.729 58.4226 298.729 40.752C298.729 35.8307 299.707 30.9669 301.751 26.5061C309.234 10.1305 327.424 4.31708 344.204 4.31708C353.04 4.31708 362.74 5.72728 370.856 9.38228L373.85 10.7349L367 38.7662L362.596 36.7229C356.724 33.9888 350.507 32.6649 344.031 32.6649C340.491 32.6649 332.979 33.6147 332.979 38.536C332.979 39.054 333.037 39.6008 333.209 40.0901C333.756 41.6442 335.656 42.9392 336.951 43.7738C340.664 46.105 345.269 48.0044 349.27 49.7312" fill="#282D2D"/>
<path fill-rule="evenodd" clip-rule="evenodd" d="M266.752 49.76C282.467 56.3217 295.073 66.7975 295.073 84.9286C295.073 90.7421 293.807 96.4116 291.044 101.534C282.611 117.277 264.017 122.371 247.353 122.371C237.509 122.371 221.708 119.896 210.425 113.392C217.132 106.484 222.485 98.2535 225.996 89.1016C232.645 92.0947 241.222 93.8502 248.389 93.8502C252.879 93.8502 260.794 93.0156 260.794 87.0007C260.794 86.2812 260.708 85.5617 260.448 84.871C258.894 80.7268 249.828 77.0718 246.115 75.5177C240.79 73.2153 235.408 70.3661 230.688 66.7975C230.745 65.6463 230.774 64.4951 230.774 63.3151C230.774 49.3283 226.774 36.2624 219.837 25.211C227.666 9.81395 245.309 4.28827 261.657 4.28827C270.493 4.28827 280.193 5.69847 288.309 9.35347L291.303 10.7061L284.453 38.7374L280.049 36.694C274.178 33.96 267.961 32.6361 261.485 32.6361C257.944 32.6361 250.432 33.5859 250.432 38.5072C250.432 39.0252 250.49 39.572 250.663 40.0613C251.209 41.6154 253.109 42.9104 254.404 43.745C258.117 46.0762 262.722 47.9756 266.723 49.7024" fill="#282D2D"/>
</g>
</g>
<defs>
<clipPath id="clip0_2437_1802">
<rect width="1191" height="241" fill="white" transform="translate(0 0.393677)"/>
</clipPath>
<clipPath id="clip1_2437_1802">
<rect width="1191" height="241" fill="white"/>
</clipPath>
</defs>
</svg>
